<?xml version="1.0" encoding="UTF-8" standalone="no"?>
<!-- Created with Inkscape (http://www.inkscape.org/) -->

<svg
   xmlns:dc="http://purl.org/dc/elements/1.1/"
   xmlns:cc="http://creativecommons.org/ns#"
   xmlns:rdf="http://www.w3.org/1999/02/22-rdf-syntax-ns#"
   xmlns:svg="http://www.w3.org/2000/svg"
   xmlns="http://www.w3.org/2000/svg"
   xmlns:sodipodi="http://sodipodi.sourceforge.net/DTD/sodipodi-0.dtd"
   xmlns:inkscape="http://www.inkscape.org/namespaces/inkscape"
   version="1.1"
   id="svg2"
   xml:space="preserve"
   width="631.3147"
   height="399.76666"
   viewBox="0 0 631.3147 399.76666"
   sodipodi:docname="configure-kvm.svg"
   inkscape:version="0.92.2 5c3e80d, 2017-08-06"><metadata
     id="metadata8"><rdf:RDF><cc:Work
         rdf:about=""><dc:format>image/svg+xml</dc:format><dc:type
           rdf:resource="http://purl.org/dc/dcmitype/StillImage" /><dc:title></dc:title><dc:subject><rdf:Bag><rdf:li>KVM</rdf:li><rdf:li>virtualization</rdf:li></rdf:Bag></dc:subject></cc:Work></rdf:RDF></metadata><defs
     id="defs6"><clipPath
       clipPathUnits="userSpaceOnUse"
       id="clipPath20"><path
         d="M 0,299.825 H 473.486 V 0 H 0 Z"
         id="path18"
         inkscape:connector-curvature="0" /></clipPath></defs><sodipodi:namedview
     pagecolor="#ffffff"
     bordercolor="#666666"
     borderopacity="1"
     objecttolerance="10"
     gridtolerance="10"
     guidetolerance="10"
     inkscape:pageopacity="0"
     inkscape:pageshadow="2"
     inkscape:window-width="640"
     inkscape:window-height="480"
     id="namedview4"
     showgrid="false"
     inkscape:zoom="0.57657457"
     inkscape:cx="315.65735"
     inkscape:cy="199.88333"
     inkscape:window-x="0"
     inkscape:window-y="0"
     inkscape:window-maximized="0"
     inkscape:current-layer="g10" /><g
     id="g10"
     inkscape:groupmode="layer"
     inkscape:label="configure-kvm"
     transform="matrix(1.3333333,0,0,-1.3333333,0,399.76667)"><path
       d="M 463.199,118.379 H 9.591 v 48.454 h 453.608 z"
       style="fill:#0e88ca;fill-opacity:1;fill-rule:nonzero;stroke:none"
       id="path12"
       inkscape:connector-curvature="0" /><g
       id="g14"><g
         id="g16"
         clip-path="url(#clipPath20)"><g
           id="g22"
           transform="translate(225.3737,136.3645)"><path
             d="M 0,0 -3.609,6.421 -5.737,3.913 V 0 h -2.659 v 13.298 h 2.659 v -3.78 c 0,-0.495 -0.019,-1.691 -0.038,-2.109 0.19,0.304 0.684,0.911 1.045,1.349 l 3.723,4.54 H 2.204 L -1.691,8.701 3.191,0 Z"
             style="fill:#ffffff;fill-opacity:1;fill-rule:nonzero;stroke:none"
             id="path24"
             inkscape:connector-curvature="0" /></g><g
           id="g26"
           transform="translate(236.1672,136.3645)"><path
             d="m 0,0 h -2.583 l -4.731,13.298 h 2.945 l 2.507,-7.694 c 0.247,-0.741 0.513,-1.709 0.627,-2.184 0.114,0.493 0.361,1.405 0.608,2.184 l 2.451,7.694 H 4.73 Z"
             style="fill:#ffffff;fill-opacity:1;fill-rule:nonzero;stroke:none"
             id="path28"
             inkscape:connector-curvature="0" /></g><g
           id="g30"
           transform="translate(253.1525,136.3645)"><path
             d="M 0,0 V 4.882 C 0,5.604 0.038,7.295 0.038,7.808 -0.152,7.313 -0.551,6.364 -0.893,5.604 l -2.698,-5.908 -2.697,5.908 c -0.342,0.76 -0.741,1.709 -0.931,2.204 0,-0.513 0.038,-2.204 0.038,-2.926 V 0 h -2.602 v 13.298 h 2.564 l 2.774,-6.022 c 0.342,-0.741 0.741,-1.748 0.912,-2.222 0.171,0.493 0.551,1.462 0.892,2.222 l 2.679,6.022 H 2.659 L 2.659,0 Z"
             style="fill:#ffffff;fill-opacity:1;fill-rule:nonzero;stroke:none"
             id="path32"
             inkscape:connector-curvature="0" /></g><path
           d="M 9.592,110.256 H 463.2 V 10.064 H 9.592 Z"
           style="fill:#e6e6e6;fill-opacity:1;fill-rule:nonzero;stroke:none"
           id="path34"
           inkscape:connector-curvature="0" /><g
           id="g36"
           transform="translate(199.9035,30.8874)"><path
             d="M 0,0 V 5.026 H -5.154 V 0 h -1.681 v 11.204 h 1.681 V 6.675 H 0 v 4.529 H 1.681 V 0 Z"
             style="fill:#4c4d4d;fill-opacity:1;fill-rule:nonzero;stroke:none"
             id="path38"
             inkscape:connector-curvature="0" /></g><g
           id="g40"
           transform="translate(209.5344,37.6257)"><path
             d="M 0,0 C -0.272,0.801 -0.72,2.098 -0.848,2.577 -0.976,2.098 -1.376,0.816 -1.665,-0.016 l -0.896,-2.56 H 0.896 Z M 2.353,-6.738 1.409,-4.081 H -3.073 L -4.001,-6.738 H -5.746 L -1.712,4.466 H 0.064 L 4.146,-6.738 Z"
             style="fill:#4c4d4d;fill-opacity:1;fill-rule:nonzero;stroke:none"
             id="path42"
             inkscape:connector-curvature="0" /></g><g
           id="g44"
           transform="translate(220.7985,40.5075)"><path
             d="M 0,0 H -3.265 V -3.602 H 0 c 1.121,0 1.905,0.577 1.905,1.793 C 1.905,-0.641 1.136,0 0,0 M 1.136,-5.042 3.425,-9.62 H 1.489 l -2.225,4.433 H -3.265 V -9.62 H -4.914 V 1.584 H 0 c 1.953,0 3.602,-1.04 3.602,-3.345 0,-1.793 -0.945,-2.897 -2.466,-3.281"
             style="fill:#4c4d4d;fill-opacity:1;fill-rule:nonzero;stroke:none"
             id="path46"
             inkscape:connector-curvature="0" /></g><g
           id="g48"
           transform="translate(230.0451,40.4597)"><path
             d="M 0,0 H -1.376 V -7.939 H 0 c 2.657,0 3.746,1.616 3.746,3.969 C 3.746,-1.617 2.657,0 0,0 M 0,-9.572 H -3.057 V 1.632 H 0 c 3.009,0 5.458,-1.649 5.458,-5.602 0,-3.954 -2.529,-5.602 -5.458,-5.602"
             style="fill:#4c4d4d;fill-opacity:1;fill-rule:nonzero;stroke:none"
             id="path50"
             inkscape:connector-curvature="0" /></g><g
           id="g52"
           transform="translate(246.799,30.8874)"><path
             d="M 0,0 H -1.696 L -3.441,7.235 C -3.537,7.619 -3.713,8.451 -3.761,8.724 -3.81,8.451 -3.985,7.619 -4.082,7.235 L -5.906,0 H -7.571 L -9.86,11.204 h 1.697 L -6.818,4.13 c 0.064,-0.336 0.208,-1.105 0.256,-1.473 0.063,0.368 0.224,1.12 0.304,1.456 l 1.792,7.091 h 1.441 L -1.2,3.953 c 0.08,-0.304 0.208,-0.895 0.272,-1.296 0.08,0.416 0.176,1.04 0.224,1.313 l 1.36,7.234 h 1.633 z"
             style="fill:#4c4d4d;fill-opacity:1;fill-rule:nonzero;stroke:none"
             id="path54"
             inkscape:connector-curvature="0" /></g><g
           id="g56"
           transform="translate(255.342,37.6257)"><path
             d="M 0,0 C -0.271,0.801 -0.72,2.098 -0.848,2.577 -0.976,2.098 -1.376,0.816 -1.664,-0.016 l -0.897,-2.56 H 0.896 Z M 2.354,-6.738 1.409,-4.081 H -3.073 L -4.001,-6.738 H -5.746 L -1.712,4.466 H 0.064 L 4.146,-6.738 Z"
             style="fill:#4c4d4d;fill-opacity:1;fill-rule:nonzero;stroke:none"
             id="path58"
             inkscape:connector-curvature="0" /></g><g
           id="g60"
           transform="translate(266.6057,40.5075)"><path
             d="M 0,0 H -3.265 V -3.602 H 0 c 1.121,0 1.905,0.577 1.905,1.793 C 1.905,-0.641 1.137,0 0,0 M 1.137,-5.042 3.426,-9.62 H 1.489 l -2.225,4.433 H -3.265 V -9.62 H -4.914 V 1.584 H 0 c 1.953,0 3.602,-1.04 3.602,-3.345 0,-1.793 -0.945,-2.897 -2.465,-3.281"
             style="fill:#4c4d4d;fill-opacity:1;fill-rule:nonzero;stroke:none"
             id="path62"
             inkscape:connector-curvature="0" /></g><g
           id="g64"
           transform="translate(272.7951,30.8874)"><path
             d="M 0,0 V 11.204 H 7.219 V 9.572 H 1.681 V 6.803 H 4.898 V 5.17 H 1.681 V 1.633 H 7.459 V 0 Z"
             style="fill:#4c4d4d;fill-opacity:1;fill-rule:nonzero;stroke:none"
             id="path66"
             inkscape:connector-curvature="0" /></g><path
           d="M 266.112,74.509 H 262.81 V 62.953 h 3.302 z"
           style="fill:#ffffff;fill-opacity:1;fill-rule:nonzero;stroke:none"
           id="path68"
           inkscape:connector-curvature="0" /><g
           id="g70"
           transform="translate(268.3215,89.2204)"><path
             d="M 0,0 H -61.604 L -73.306,-4.979 H 10.169 Z"
             style="fill:#ffffff;fill-opacity:1;fill-rule:nonzero;stroke:none"
             id="path72"
             inkscape:connector-curvature="0" /></g><path
           d="m 276.018,74.509 h -3.302 V 62.953 h 3.302 z"
           style="fill:#ffffff;fill-opacity:1;fill-rule:nonzero;stroke:none"
           id="path74"
           inkscape:connector-curvature="0" /><g
           id="g76"
           transform="translate(198.9099,70.8718)"><path
             d="m 0,0 c 1.253,0 2.27,-1.016 2.27,-2.27 0,-1.253 -1.017,-2.27 -2.27,-2.27 -1.253,0 -2.27,1.017 -2.27,2.27 C -2.27,-1.016 -1.253,0 0,0 m 8.054,0 c 1.254,0 2.27,-1.016 2.27,-2.27 0,-1.253 -1.016,-2.27 -2.27,-2.27 -1.253,0 -2.27,1.017 -2.27,2.27 0,1.254 1.017,2.27 2.27,2.27 M 62.25,4.462 c 0,0.456 0.37,0.826 0.826,0.826 h 4.952 c 0.456,0 0.825,-0.37 0.825,-0.826 V -8.744 c 0,-0.456 -0.369,-0.825 -0.825,-0.825 h -4.952 c -0.456,0 -0.826,0.369 -0.826,0.825 z m 9.905,0 c 0,0.456 0.372,0.826 0.827,0.826 h 4.949 c 0.456,0 0.827,-0.37 0.827,-0.826 V -8.744 c 0,-0.456 -0.371,-0.825 -0.827,-0.825 h -4.949 c -0.455,0 -0.827,0.369 -0.827,0.825 z M -8.347,-14.373 H 83.322 V 9.661 H -8.347 Z"
             style="fill:#ffffff;fill-opacity:1;fill-rule:nonzero;stroke:none"
             id="path78"
             inkscape:connector-curvature="0" /></g><path
           d="m 282.233,56.499 h -91.669 v 24.034 h 91.669 z M 206.718,89.22 h 61.603 l 10.169,-4.978 h -83.475 z m 77.889,-4.296 -15.18,7.428 c -0.226,0.109 -0.474,0.167 -0.723,0.167 h -62.321 c -0.223,0 -0.442,-0.041 -0.647,-0.129 l -17.471,-7.43 c -0.765,-0.326 -1.129,-1.16 -0.919,-1.942 -0.038,-0.139 -0.086,-0.275 -0.086,-0.426 V 82.183 54.847 c 0,-0.909 0.736,-1.65 1.651,-1.65 h 94.967 c 0.915,0 1.652,0.741 1.652,1.65 v 27.336 0.409 c 0.004,0.153 -0.047,0.292 -0.085,0.43 0.198,0.747 -0.117,1.548 -0.838,1.902"
           style="fill:#4c4d4d;fill-opacity:1;fill-rule:nonzero;stroke:none"
           id="path80"
           inkscape:connector-curvature="0" /><g
           id="g82"
           transform="translate(198.9099,66.3318)"><path
             d="M 0,0 C 1.253,0 2.27,1.017 2.27,2.271 2.27,3.524 1.253,4.54 0,4.54 -1.253,4.54 -2.27,3.524 -2.27,2.271 -2.27,1.017 -1.253,0 0,0"
             style="fill:#4c4d4d;fill-opacity:1;fill-rule:nonzero;stroke:none"
             id="path84"
             inkscape:connector-curvature="0" /></g><g
           id="g86"
           transform="translate(206.9641,66.3318)"><path
             d="M 0,0 C 1.253,0 2.27,1.017 2.27,2.271 2.27,3.524 1.253,4.54 0,4.54 -1.253,4.54 -2.27,3.524 -2.27,2.271 -2.27,1.017 -1.253,0 0,0"
             style="fill:#4c4d4d;fill-opacity:1;fill-rule:nonzero;stroke:none"
             id="path88"
             inkscape:connector-curvature="0" /></g><path
           d="m 272.716,74.509 h 3.302 V 62.953 h -3.302 z m -0.824,-13.207 h 4.949 c 0.456,0 0.827,0.37 0.827,0.826 v 13.206 c 0,0.456 -0.371,0.826 -0.827,0.826 h -4.949 c -0.455,0 -0.827,-0.37 -0.827,-0.826 V 62.128 c 0,-0.456 0.372,-0.826 0.827,-0.826"
           style="fill:#4c4d4d;fill-opacity:1;fill-rule:nonzero;stroke:none"
           id="path90"
           inkscape:connector-curvature="0" /><path
           d="m 262.811,74.509 h 3.302 V 62.953 h -3.302 z m -0.825,-13.207 h 4.952 c 0.456,0 0.825,0.37 0.825,0.826 v 13.206 c 0,0.456 -0.369,0.826 -0.825,0.826 h -4.952 c -0.457,0 -0.826,-0.37 -0.826,-0.826 V 62.128 c 0,-0.456 0.369,-0.826 0.826,-0.826"
           style="fill:#4c4d4d;fill-opacity:1;fill-rule:nonzero;stroke:none"
           id="path92"
           inkscape:connector-curvature="0" /><path
           d="M 9.592,289.886 H 155.125 V 174.954 H 9.592 Z"
           style="fill:#e6e6e6;fill-opacity:1;fill-rule:nonzero;stroke:none"
           id="path94"
           inkscape:connector-curvature="0" /><path
           d="m 112.109,248.86 h -3.306 v -11.569 h 3.306 z"
           style="fill:#ffffff;fill-opacity:1;fill-rule:nonzero;stroke:none"
           id="path96"
           inkscape:connector-curvature="0" /><path
           d="m 122.025,248.86 h -3.306 v -11.569 h 3.306 z"
           style="fill:#ffffff;fill-opacity:1;fill-rule:nonzero;stroke:none"
           id="path98"
           inkscape:connector-curvature="0" /><g
           id="g100"
           transform="translate(124.5007,258.6042)"><path
             d="M 0,0 -10.181,4.985 H -71.857 L -83.573,0 Z"
             style="fill:#ffffff;fill-opacity:1;fill-rule:nonzero;stroke:none"
             id="path102"
             inkscape:connector-curvature="0" /></g><g
           id="g104"
           transform="translate(44.8264,245.2185)"><path
             d="m 0,0 c 1.255,0 2.272,-1.017 2.272,-2.272 0,-1.255 -1.017,-2.273 -2.272,-2.273 -1.255,0 -2.272,1.018 -2.272,2.273 C -2.272,-1.017 -1.255,0 0,0 m 8.064,0 c 1.255,0 2.272,-1.017 2.272,-2.272 0,-1.255 -1.017,-2.273 -2.272,-2.273 -1.255,0 -2.273,1.018 -2.273,2.273 C 5.791,-1.017 6.809,0 8.064,0 m 54.26,4.468 c 0,0.456 0.37,0.826 0.826,0.826 h 4.958 c 0.456,0 0.827,-0.37 0.827,-0.826 V -8.754 c 0,-0.456 -0.371,-0.827 -0.827,-0.827 H 63.15 c -0.456,0 -0.826,0.371 -0.826,0.827 z m 9.916,0 c 0,0.456 0.372,0.826 0.828,0.826 h 4.955 c 0.456,0 0.829,-0.37 0.829,-0.826 V -8.754 c 0,-0.456 -0.373,-0.827 -0.829,-0.827 h -4.955 c -0.456,0 -0.828,0.371 -0.828,0.827 z M -8.358,-14.39 H 83.419 V 9.672 H -8.358 Z"
             style="fill:#ffffff;fill-opacity:1;fill-rule:nonzero;stroke:none"
             id="path106"
             inkscape:connector-curvature="0" /></g><g
           id="g108"
           transform="translate(52.6438,263.5891)"><path
             d="m 0,0 h 61.676 l 10.181,-4.985 h -83.573 z m 75.602,-32.761 h -91.777 v 24.062 h 91.777 z m -94.076,28.495 c -0.766,-0.327 -1.129,-1.163 -0.919,-1.943 -0.038,-0.141 -0.086,-0.276 -0.086,-0.427 v -0.41 -27.368 c 0,-0.91 0.737,-1.652 1.652,-1.652 h 95.08 c 0.916,0 1.655,0.742 1.655,1.652 v 27.368 0.41 c 0,0.152 -0.05,0.291 -0.09,0.43 0.199,0.748 -0.117,1.55 -0.839,1.904 L 62.782,3.135 C 62.556,3.244 62.308,3.302 62.058,3.302 H -0.335 c -0.224,0 -0.443,-0.041 -0.648,-0.129 z"
             style="fill:#4c4d4d;fill-opacity:1;fill-rule:nonzero;stroke:none"
             id="path110"
             inkscape:connector-curvature="0" /></g><g
           id="g112"
           transform="translate(44.8264,240.6736)"><path
             d="M 0,0 C 1.255,0 2.272,1.018 2.272,2.272 2.272,3.528 1.255,4.545 0,4.545 -1.255,4.545 -2.272,3.528 -2.272,2.272 -2.272,1.018 -1.255,0 0,0"
             style="fill:#4c4d4d;fill-opacity:1;fill-rule:nonzero;stroke:none"
             id="path114"
             inkscape:connector-curvature="0" /></g><g
           id="g116"
           transform="translate(52.8903,240.6736)"><path
             d="M 0,0 C 1.255,0 2.272,1.018 2.272,2.272 2.272,3.528 1.255,4.545 0,4.545 -1.255,4.545 -2.273,3.528 -2.273,2.272 -2.273,1.018 -1.255,0 0,0"
             style="fill:#4c4d4d;fill-opacity:1;fill-rule:nonzero;stroke:none"
             id="path118"
             inkscape:connector-curvature="0" /></g><path
           d="m 118.719,248.86 h 3.306 v -11.569 h -3.306 z m -0.824,-13.223 h 4.955 c 0.456,0 0.828,0.371 0.828,0.827 v 13.222 c 0,0.456 -0.372,0.826 -0.828,0.826 h -4.955 c -0.456,0 -0.828,-0.37 -0.828,-0.826 v -13.222 c 0,-0.456 0.372,-0.827 0.828,-0.827"
           style="fill:#4c4d4d;fill-opacity:1;fill-rule:nonzero;stroke:none"
           id="path120"
           inkscape:connector-curvature="0" /><path
           d="m 108.803,248.86 h 3.306 v -11.569 h -3.306 z m -0.826,-13.223 h 4.958 c 0.456,0 0.826,0.371 0.826,0.827 v 13.222 c 0,0.456 -0.37,0.826 -0.826,0.826 h -4.958 c -0.457,0 -0.827,-0.37 -0.827,-0.826 v -13.222 c 0,-0.456 0.37,-0.827 0.827,-0.827"
           style="fill:#4c4d4d;fill-opacity:1;fill-rule:nonzero;stroke:none"
           id="path122"
           inkscape:connector-curvature="0" /><g
           id="g124"
           transform="translate(84.6101,222.8122)"><path
             d="m 0,0 h -3.314 c -0.684,0 -1.24,-0.555 -1.24,-1.24 0,-0.684 0.556,-1.239 1.24,-1.239 H 0 c 0.684,0 1.239,0.555 1.239,1.239 C 1.239,-0.555 0.684,0 0,0"
             style="fill:#4c4d4d;fill-opacity:1;fill-rule:nonzero;stroke:none"
             id="path126"
             inkscape:connector-curvature="0" /></g><g
           id="g128"
           transform="translate(92.8967,222.8122)"><path
             d="m 0,0 h -3.313 c -0.685,0 -1.24,-0.555 -1.24,-1.24 0,-0.684 0.555,-1.239 1.24,-1.239 H 0 c 0.685,0 1.24,0.555 1.24,1.239 C 1.24,-0.555 0.685,0 0,0"
             style="fill:#4c4d4d;fill-opacity:1;fill-rule:nonzero;stroke:none"
             id="path130"
             inkscape:connector-curvature="0" /></g><g
           id="g132"
           transform="translate(29.0031,262.8322)"><path
             d="m 0,0 c -0.585,0.355 -1.347,0.17 -1.703,-0.417 -0.664,-1.095 -1.092,-2.345 -1.237,-3.612 -0.078,-0.681 0.409,-1.296 1.09,-1.374 0.048,-0.005 0.096,-0.008 0.142,-0.008 0.622,0 1.157,0.466 1.23,1.099 0.104,0.916 0.415,1.818 0.894,2.609 C 0.771,-1.117 0.585,-0.355 0,0"
             style="fill:#4c4d4d;fill-opacity:1;fill-rule:nonzero;stroke:none"
             id="path134"
             inkscape:connector-curvature="0" /></g><g
           id="g136"
           transform="translate(59.7507,222.8122)"><path
             d="m 0,0 h -3.313 c -0.685,0 -1.24,-0.555 -1.24,-1.24 0,-0.684 0.555,-1.239 1.24,-1.239 H 0 c 0.684,0 1.24,0.555 1.24,1.239 C 1.24,-0.555 0.684,0 0,0"
             style="fill:#4c4d4d;fill-opacity:1;fill-rule:nonzero;stroke:none"
             id="path138"
             inkscape:connector-curvature="0" /></g><g
           id="g140"
           transform="translate(43.1784,222.8122)"><path
             d="m 0,0 h -3.313 c -0.685,0 -1.24,-0.555 -1.24,-1.24 0,-0.684 0.555,-1.239 1.24,-1.239 H 0 c 0.685,0 1.24,0.555 1.24,1.239 C 1.24,-0.555 0.683,0 0,0"
             style="fill:#4c4d4d;fill-opacity:1;fill-rule:nonzero;stroke:none"
             id="path142"
             inkscape:connector-curvature="0" /></g><g
           id="g144"
           transform="translate(34.8171,222.8122)"><path
             d="M 0,0 C -0.937,0 -1.841,0.2 -2.684,0.595 -3.304,0.886 -4.041,0.617 -4.332,-0.001 -4.623,-0.623 -4.355,-1.36 -3.735,-1.651 -2.562,-2.2 -1.304,-2.479 0,-2.479 h 0.073 c 0.684,0 1.203,0.555 1.203,1.239 C 1.278,-0.555 0.685,0 0,0"
             style="fill:#4c4d4d;fill-opacity:1;fill-rule:nonzero;stroke:none"
             id="path146"
             inkscape:connector-curvature="0" /></g><g
           id="g148"
           transform="translate(101.1838,222.8122)"><path
             d="m 0,0 h -3.314 c -0.684,0 -1.239,-0.555 -1.239,-1.24 0,-0.684 0.555,-1.239 1.239,-1.239 H 0 c 0.684,0 1.239,0.555 1.239,1.239 C 1.239,-0.555 0.684,0 0,0"
             style="fill:#4c4d4d;fill-opacity:1;fill-rule:nonzero;stroke:none"
             id="path150"
             inkscape:connector-curvature="0" /></g><g
           id="g152"
           transform="translate(51.4655,222.8122)"><path
             d="m 0,0 h -3.315 c -0.685,0 -1.24,-0.555 -1.24,-1.24 0,-0.684 0.555,-1.239 1.24,-1.239 H 0 c 0.684,0 1.24,0.555 1.24,1.239 C 1.24,-0.555 0.684,0 0,0"
             style="fill:#4c4d4d;fill-opacity:1;fill-rule:nonzero;stroke:none"
             id="path154"
             inkscape:connector-curvature="0" /></g><g
           id="g156"
           transform="translate(68.0378,222.8122)"><path
             d="m 0,0 h -3.314 c -0.684,0 -1.239,-0.555 -1.239,-1.24 0,-0.684 0.555,-1.239 1.239,-1.239 H 0 c 0.684,0 1.24,0.555 1.24,1.239 C 1.24,-0.555 0.684,0 0,0"
             style="fill:#4c4d4d;fill-opacity:1;fill-rule:nonzero;stroke:none"
             id="path158"
             inkscape:connector-curvature="0" /></g><g
           id="g160"
           transform="translate(137.5012,231.1902)"><path
             d="m 0,0 c -0.684,0 -1.239,-0.555 -1.239,-1.24 v -0.775 c 0,-0.714 -0.117,-1.415 -0.351,-2.086 -0.226,-0.646 0.116,-1.352 0.764,-1.576 0.134,-0.047 0.271,-0.07 0.407,-0.07 0.514,0 0.991,0.321 1.169,0.833 0.325,0.931 0.49,1.906 0.49,2.899 V -1.24 C 1.24,-0.555 0.685,0 0,0"
             style="fill:#4c4d4d;fill-opacity:1;fill-rule:nonzero;stroke:none"
             id="path162"
             inkscape:connector-curvature="0" /></g><g
           id="g164"
           transform="translate(109.4689,222.8122)"><path
             d="m 0,0 h -3.313 c -0.685,0 -1.24,-0.555 -1.24,-1.24 0,-0.684 0.555,-1.239 1.24,-1.239 H 0 c 0.685,0 1.24,0.555 1.24,1.239 C 1.24,-0.555 0.685,0 0,0"
             style="fill:#4c4d4d;fill-opacity:1;fill-rule:nonzero;stroke:none"
             id="path166"
             inkscape:connector-curvature="0" /></g><g
           id="g168"
           transform="translate(137.5012,247.7624)"><path
             d="m 0,0 c -0.684,0 -1.239,-0.556 -1.239,-1.24 v -3.315 c 0,-0.684 0.555,-1.24 1.239,-1.24 0.685,0 1.24,0.556 1.24,1.24 V -1.24 C 1.24,-0.556 0.685,0 0,0"
             style="fill:#4c4d4d;fill-opacity:1;fill-rule:nonzero;stroke:none"
             id="path170"
             inkscape:connector-curvature="0" /></g><g
           id="g172"
           transform="translate(137.5012,256.049)"><path
             d="m 0,0 c -0.684,0 -1.239,-0.555 -1.239,-1.239 v -3.314 c 0,-0.684 0.555,-1.24 1.239,-1.24 0.685,0 1.24,0.556 1.24,1.24 v 3.314 C 1.24,-0.555 0.685,0 0,0"
             style="fill:#4c4d4d;fill-opacity:1;fill-rule:nonzero;stroke:none"
             id="path174"
             inkscape:connector-curvature="0" /></g><g
           id="g176"
           transform="translate(137.5012,239.4753)"><path
             d="m 0,0 c -0.684,0 -1.239,-0.555 -1.239,-1.24 v -3.315 c 0,-0.684 0.555,-1.239 1.239,-1.239 0.685,0 1.24,0.555 1.24,1.239 V -1.24 C 1.24,-0.555 0.685,0 0,0"
             style="fill:#4c4d4d;fill-opacity:1;fill-rule:nonzero;stroke:none"
             id="path178"
             inkscape:connector-curvature="0" /></g><g
           id="g180"
           transform="translate(117.7561,222.8122)"><path
             d="m 0,0 h -3.314 c -0.684,0 -1.24,-0.555 -1.24,-1.24 0,-0.684 0.556,-1.239 1.24,-1.239 H 0 c 0.684,0 1.239,0.555 1.239,1.239 C 1.239,-0.555 0.684,0 0,0"
             style="fill:#4c4d4d;fill-opacity:1;fill-rule:nonzero;stroke:none"
             id="path182"
             inkscape:connector-curvature="0" /></g><g
           id="g184"
           transform="translate(126.0446,222.8122)"><path
             d="m 0,0 h -3.315 c -0.685,0 -1.24,-0.555 -1.24,-1.24 0,-0.684 0.555,-1.239 1.24,-1.239 H 0 c 0.684,0 1.239,0.555 1.239,1.239 C 1.239,-0.555 0.684,0 0,0"
             style="fill:#4c4d4d;fill-opacity:1;fill-rule:nonzero;stroke:none"
             id="path186"
             inkscape:connector-curvature="0" /></g><g
           id="g188"
           transform="translate(133.3977,223.865)"><path
             d="m 0,0 c -0.782,-0.516 -1.646,-0.846 -2.572,-0.983 -0.676,-0.101 -1.143,-0.731 -1.044,-1.41 0.092,-0.615 0.621,-1.058 1.224,-1.058 0.061,0 0.121,0.005 0.184,0.013 1.284,0.19 2.487,0.651 3.571,1.367 0.573,0.379 0.729,1.146 0.352,1.717 C 1.339,0.218 0.572,0.377 0,0"
             style="fill:#4c4d4d;fill-opacity:1;fill-rule:nonzero;stroke:none"
             id="path190"
             inkscape:connector-curvature="0" /></g><g
           id="g192"
           transform="translate(76.3244,222.8122)"><path
             d="m 0,0 h -3.313 c -0.685,0 -1.24,-0.555 -1.24,-1.24 0,-0.684 0.555,-1.239 1.24,-1.239 H 0 c 0.685,0 1.24,0.555 1.24,1.239 C 1.24,-0.555 0.685,0 0,0"
             style="fill:#4c4d4d;fill-opacity:1;fill-rule:nonzero;stroke:none"
             id="path194"
             inkscape:connector-curvature="0" /></g><g
           id="g196"
           transform="translate(88.5334,271.6018)"><path
             d="m 0,0 h 3.314 c 0.684,0 1.24,0.555 1.24,1.239 0,0.685 -0.556,1.24 -1.24,1.24 H 0 c -0.684,0 -1.239,-0.555 -1.239,-1.24 C -1.239,0.555 -0.684,0 0,0"
             style="fill:#4c4d4d;fill-opacity:1;fill-rule:nonzero;stroke:none"
             id="path198"
             inkscape:connector-curvature="0" /></g><g
           id="g200"
           transform="translate(105.1076,271.6018)"><path
             d="m 0,0 h 3.313 c 0.685,0 1.24,0.555 1.24,1.239 0,0.685 -0.555,1.24 -1.24,1.24 H 0 c -0.685,0 -1.24,-0.555 -1.24,-1.24 C -1.24,0.555 -0.685,0 0,0"
             style="fill:#4c4d4d;fill-opacity:1;fill-rule:nonzero;stroke:none"
             id="path202"
             inkscape:connector-curvature="0" /></g><g
           id="g204"
           transform="translate(71.9597,271.6018)"><path
             d="m 0,0 h 3.314 c 0.684,0 1.239,0.555 1.239,1.239 0,0.685 -0.555,1.24 -1.239,1.24 H 0 c -0.684,0 -1.24,-0.555 -1.24,-1.24 C -1.24,0.555 -0.684,0 0,0"
             style="fill:#4c4d4d;fill-opacity:1;fill-rule:nonzero;stroke:none"
             id="path206"
             inkscape:connector-curvature="0" /></g><g
           id="g208"
           transform="translate(80.2468,271.6018)"><path
             d="m 0,0 h 3.313 c 0.685,0 1.24,0.555 1.24,1.239 0,0.685 -0.555,1.24 -1.24,1.24 H 0 c -0.685,0 -1.24,-0.555 -1.24,-1.24 C -1.24,0.555 -0.685,0 0,0"
             style="fill:#4c4d4d;fill-opacity:1;fill-rule:nonzero;stroke:none"
             id="path210"
             inkscape:connector-curvature="0" /></g><g
           id="g212"
           transform="translate(96.8205,271.6018)"><path
             d="m 0,0 h 3.313 c 0.685,0 1.24,0.555 1.24,1.239 0,0.685 -0.555,1.24 -1.24,1.24 H 0 c -0.684,0 -1.24,-0.555 -1.24,-1.24 C -1.24,0.555 -0.684,0 0,0"
             style="fill:#4c4d4d;fill-opacity:1;fill-rule:nonzero;stroke:none"
             id="path214"
             inkscape:connector-curvature="0" /></g><g
           id="g216"
           transform="translate(128.1022,265.7658)"><path
             d="m 0,0 2.977,-1.456 c 0.176,-0.086 0.361,-0.126 0.544,-0.126 0.457,0 0.9,0.255 1.115,0.694 0.301,0.615 0.046,1.357 -0.569,1.658 L 1.091,2.226 C 0.471,2.527 -0.268,2.271 -0.569,1.658 -0.87,1.043 -0.615,0.301 0,0"
             style="fill:#4c4d4d;fill-opacity:1;fill-rule:nonzero;stroke:none"
             id="path218"
             inkscape:connector-curvature="0" /></g><g
           id="g220"
           transform="translate(113.3928,271.6018)"><path
             d="m 0,0 h 1.311 c 0.557,0 1.113,-0.075 1.657,-0.222 0.109,-0.029 0.217,-0.043 0.323,-0.043 0.546,0 1.047,0.364 1.196,0.918 C 4.666,1.314 4.275,1.993 3.614,2.171 2.861,2.375 2.086,2.479 1.311,2.479 H 0 c -0.685,0 -1.24,-0.555 -1.24,-1.24 C -1.24,0.555 -0.685,0 0,0"
             style="fill:#4c4d4d;fill-opacity:1;fill-rule:nonzero;stroke:none"
             id="path222"
             inkscape:connector-curvature="0" /></g><g
           id="g224"
           transform="translate(136.0188,259.4406)"><path
             d="m 0,0 c 0.147,-0.555 0.649,-0.924 1.198,-0.924 0.106,0 0.212,0.013 0.318,0.042 0.661,0.173 1.057,0.852 0.882,1.513 -0.327,1.24 -0.932,2.415 -1.75,3.4 -0.44,0.527 -1.22,0.598 -1.745,0.162 C -1.625,3.755 -1.697,2.975 -1.261,2.448 -0.671,1.742 -0.236,0.894 0,0"
             style="fill:#4c4d4d;fill-opacity:1;fill-rule:nonzero;stroke:none"
             id="path226"
             inkscape:connector-curvature="0" /></g><g
           id="g228"
           transform="translate(120.6599,269.4084)"><path
             d="m 0,0 2.978,-1.456 c 0.174,-0.086 0.36,-0.126 0.543,-0.126 0.459,0 0.9,0.255 1.115,0.694 0.301,0.616 0.045,1.357 -0.57,1.658 L 1.087,2.226 C 0.476,2.525 -0.27,2.271 -0.57,1.658 -0.871,1.043 -0.615,0.301 0,0"
             style="fill:#4c4d4d;fill-opacity:1;fill-rule:nonzero;stroke:none"
             id="path230"
             inkscape:connector-curvature="0" /></g><g
           id="g232"
           transform="translate(27.2146,240.8523)"><path
             d="m 0,0 c 0.684,0 1.24,0.555 1.24,1.239 v 3.314 c 0,0.684 -0.556,1.24 -1.24,1.24 -0.684,0 -1.24,-0.556 -1.24,-1.24 V 1.239 C -1.24,0.555 -0.684,0 0,0"
             style="fill:#4c4d4d;fill-opacity:1;fill-rule:nonzero;stroke:none"
             id="path234"
             inkscape:connector-curvature="0" /></g><g
           id="g236"
           transform="translate(32.1037,263.6682)"><path
             d="M 0,0 C 0.162,0 0.325,0.032 0.484,0.1 L 3.533,1.397 C 4.163,1.665 4.457,2.394 4.188,3.021 3.92,3.651 3.193,3.949 2.563,3.676 L -0.486,2.38 C -1.116,2.112 -1.41,1.384 -1.141,0.755 -0.94,0.283 -0.483,0 0,0"
             style="fill:#4c4d4d;fill-opacity:1;fill-rule:nonzero;stroke:none"
             id="path238"
             inkscape:connector-curvature="0" /></g><g
           id="g240"
           transform="translate(27.2146,249.1374)"><path
             d="M 0,0 C 0.684,0 1.24,0.555 1.24,1.24 V 4.555 C 1.24,5.239 0.684,5.794 0,5.794 -0.684,5.794 -1.24,5.239 -1.24,4.555 V 1.24 C -1.24,0.555 -0.684,0 0,0"
             style="fill:#4c4d4d;fill-opacity:1;fill-rule:nonzero;stroke:none"
             id="path242"
             inkscape:connector-curvature="0" /></g><g
           id="g244"
           transform="translate(28.4606,228.8894)"><path
             d="m 0,0 c -0.03,0.684 -0.633,1.258 -1.292,1.184 -0.685,-0.03 -1.213,-0.609 -1.184,-1.293 0.058,-1.301 0.392,-2.544 0.995,-3.694 0.222,-0.423 0.653,-0.664 1.099,-0.664 0.194,0 0.39,0.044 0.575,0.142 0.607,0.316 0.84,1.066 0.523,1.672 C 0.283,-1.826 0.043,-0.934 0,0"
             style="fill:#4c4d4d;fill-opacity:1;fill-rule:nonzero;stroke:none"
             id="path246"
             inkscape:connector-curvature="0" /></g><g
           id="g248"
           transform="translate(27.2146,232.5652)"><path
             d="M 0,0 C 0.684,0 1.24,0.555 1.24,1.24 V 4.555 C 1.24,5.239 0.684,5.794 0,5.794 -0.684,5.794 -1.24,5.239 -1.24,4.555 V 1.24 C -1.24,0.555 -0.684,0 0,0"
             style="fill:#4c4d4d;fill-opacity:1;fill-rule:nonzero;stroke:none"
             id="path250"
             inkscape:connector-curvature="0" /></g><g
           id="g252"
           transform="translate(47.3552,270.1555)"><path
             d="M 0,0 C 0.162,0 0.326,0.031 0.484,0.099 L 2.462,0.94 C 2.763,1.068 3.072,1.172 3.386,1.251 4.049,1.42 4.451,2.094 4.282,2.758 4.114,3.421 3.443,3.823 2.775,3.654 2.338,3.543 1.911,3.4 1.492,3.221 L -0.486,2.38 C -1.116,2.112 -1.41,1.383 -1.141,0.755 -0.94,0.283 -0.483,0 0,0"
             style="fill:#4c4d4d;fill-opacity:1;fill-rule:nonzero;stroke:none"
             id="path254"
             inkscape:connector-curvature="0" /></g><g
           id="g256"
           transform="translate(55.3874,271.6018)"><path
             d="M 0,0 H 3.315 C 4,0 4.555,0.555 4.555,1.239 4.555,1.924 4,2.479 3.315,2.479 H 0 c -0.684,0 -1.239,-0.555 -1.239,-1.24 C -1.239,0.555 -0.684,0 0,0"
             style="fill:#4c4d4d;fill-opacity:1;fill-rule:nonzero;stroke:none"
             id="path258"
             inkscape:connector-curvature="0" /></g><g
           id="g260"
           transform="translate(63.6745,271.6018)"><path
             d="m 0,0 h 3.313 c 0.685,0 1.24,0.555 1.24,1.239 0,0.685 -0.555,1.24 -1.24,1.24 H 0 c -0.684,0 -1.24,-0.555 -1.24,-1.24 C -1.24,0.555 -0.684,0 0,0"
             style="fill:#4c4d4d;fill-opacity:1;fill-rule:nonzero;stroke:none"
             id="path262"
             inkscape:connector-curvature="0" /></g><g
           id="g264"
           transform="translate(39.7292,266.9128)"><path
             d="m 0,0 c 0.162,0 0.326,0.031 0.484,0.099 l 3.05,1.297 C 4.164,1.664 4.458,2.393 4.188,3.021 3.92,3.651 3.193,3.948 2.563,3.676 L -0.486,2.378 C -1.116,2.11 -1.41,1.382 -1.14,0.753 -0.94,0.283 -0.482,0 0,0"
             style="fill:#4c4d4d;fill-opacity:1;fill-rule:nonzero;stroke:none"
             id="path266"
             inkscape:connector-curvature="0" /></g><g
           id="g268"
           transform="translate(76.8088,201.3381)"><path
             d="m 0,0 h -1.776 l -3.89,11.204 h 1.825 l 2.337,-7.139 c 0.208,-0.656 0.528,-1.648 0.624,-2.048 0.096,0.4 0.416,1.409 0.624,2.065 l 2.305,7.122 h 1.793 z"
             style="fill:#4c4d4d;fill-opacity:1;fill-rule:nonzero;stroke:none"
             id="path270"
             inkscape:connector-curvature="0" /></g><g
           id="g272"
           transform="translate(91.2263,201.3381)"><path
             d="M 0,0 V 5.923 C 0,6.595 0.016,7.571 0.032,7.892 -0.096,7.571 -0.417,6.771 -0.688,6.131 L -3.41,-0.176 -6.099,6.131 c -0.272,0.64 -0.592,1.44 -0.72,1.761 0.016,-0.321 0.032,-1.297 0.032,-1.969 V 0 h -1.585 v 11.204 h 1.729 l 2.513,-5.97 c 0.272,-0.64 0.625,-1.457 0.769,-1.921 0.159,0.464 0.48,1.265 0.752,1.921 l 2.465,5.97 H 1.648 V 0 Z"
             style="fill:#4c4d4d;fill-opacity:1;fill-rule:nonzero;stroke:none"
             id="path274"
             inkscape:connector-curvature="0" /></g><g
           id="g276"
           transform="translate(57.9318,183.9685)"><path
             d="m 0,0 c -1.3,1.235 -2.535,2.977 -2.535,5.33 0,2.431 1.209,4.148 2.535,5.408 L 0.676,10.153 C -0.481,8.866 -1.118,7.372 -1.118,5.396 c 0,-2.133 0.689,-3.563 1.794,-4.811 z"
             style="fill:#4c4d4d;fill-opacity:1;fill-rule:nonzero;stroke:none"
             id="path278"
             inkscape:connector-curvature="0" /></g><g
           id="g280"
           transform="translate(64.406,193.2121)"><path
             d="M 0,0 H -2.652 V -2.925 H 0 c 0.91,0 1.547,0.467 1.547,1.456 C 1.547,-0.52 0.923,0 0,0 M 0.923,-4.095 2.782,-7.813 H 1.209 l -1.807,3.601 h -2.054 v -3.601 h -1.339 v 9.1 H 0 c 1.586,0 2.925,-0.845 2.925,-2.717 0,-1.456 -0.767,-2.353 -2.002,-2.665"
             style="fill:#4c4d4d;fill-opacity:1;fill-rule:nonzero;stroke:none"
             id="path282"
             inkscape:connector-curvature="0" /></g><g
           id="g284"
           transform="translate(74.988,185.3987)"><path
             d="M 0,0 V 4.082 H -4.187 V 0 h -1.364 v 9.1 h 1.364 V 5.421 H 0 V 9.1 H 1.365 V 0 Z"
             style="fill:#4c4d4d;fill-opacity:1;fill-rule:nonzero;stroke:none"
             id="path286"
             inkscape:connector-curvature="0" /></g><g
           id="g288"
           transform="translate(78.7185,185.3987)"><path
             d="M 0,0 V 9.1 H 5.863 V 7.774 H 1.365 V 5.525 H 3.978 V 4.199 H 1.365 V 1.326 H 6.058 V 0 Z"
             style="fill:#4c4d4d;fill-opacity:1;fill-rule:nonzero;stroke:none"
             id="path290"
             inkscape:connector-curvature="0" /></g><g
           id="g292"
           transform="translate(86.7136,185.3987)"><path
             d="M 0,0 V 9.1 H 1.365 V 1.339 H 5.902 V 0 Z"
             style="fill:#4c4d4d;fill-opacity:1;fill-rule:nonzero;stroke:none"
             id="path294"
             inkscape:connector-curvature="0" /></g><g
           id="g296"
           transform="translate(101.1174,193.3938)"><path
             d="m 0,0 c -1.326,0 -1.794,-0.598 -1.794,-1.287 0,-0.728 0.689,-1.248 1.82,-1.248 1.17,0 1.794,0.533 1.794,1.196 C 1.82,-0.65 1.326,0 0,0 m 0,-3.822 c -1.456,0 -2.184,-0.572 -2.184,-1.495 0,-0.962 0.793,-1.573 2.197,-1.573 1.456,0 2.197,0.624 2.197,1.508 0,0.962 -0.689,1.56 -2.21,1.56 m -0.013,-4.316 c -2.197,0 -3.549,1.001 -3.549,2.795 0,1.092 0.559,1.872 1.612,2.262 -0.936,0.39 -1.222,1.209 -1.222,1.755 0,1.755 1.417,2.574 3.198,2.574 1.625,0 3.172,-0.793 3.172,-2.548 0,-0.533 -0.286,-1.404 -1.222,-1.781 0.975,-0.364 1.612,-1.092 1.612,-2.262 0,-1.794 -1.404,-2.795 -3.601,-2.795"
             style="fill:#4c4d4d;fill-opacity:1;fill-rule:nonzero;stroke:none"
             id="path298"
             inkscape:connector-curvature="0" /></g><g
           id="g300"
           transform="translate(106.7849,183.9817)"><path
             d="m 0,0 -0.676,0.585 c 1.157,1.287 1.794,2.782 1.794,4.758 0,2.132 -0.689,3.562 -1.794,4.81 L 0,10.738 C 1.3,9.503 2.535,7.761 2.535,5.408 2.535,2.977 1.326,1.261 0,0"
             style="fill:#4c4d4d;fill-opacity:1;fill-rule:nonzero;stroke:none"
             id="path302"
             inkscape:connector-curvature="0" /></g><path
           d="M 163.629,289.886 H 309.163 V 174.954 H 163.629 Z"
           style="fill:#e6e6e6;fill-opacity:1;fill-rule:nonzero;stroke:none"
           id="path304"
           inkscape:connector-curvature="0" /><g
           id="g306"
           transform="translate(278.5383,258.6042)"><path
             d="M 0,0 -10.181,4.985 H -71.857 L -83.573,0 Z"
             style="fill:#ffffff;fill-opacity:1;fill-rule:nonzero;stroke:none"
             id="path308"
             inkscape:connector-curvature="0" /></g><path
           d="m 276.063,248.86 h -3.306 v -11.569 h 3.306 z"
           style="fill:#ffffff;fill-opacity:1;fill-rule:nonzero;stroke:none"
           id="path310"
           inkscape:connector-curvature="0" /><path
           d="m 266.146,248.86 h -3.306 v -11.569 h 3.306 z"
           style="fill:#ffffff;fill-opacity:1;fill-rule:nonzero;stroke:none"
           id="path312"
           inkscape:connector-curvature="0" /><g
           id="g314"
           transform="translate(198.864,245.2185)"><path
             d="m 0,0 c 1.255,0 2.272,-1.017 2.272,-2.272 0,-1.255 -1.017,-2.273 -2.272,-2.273 -1.255,0 -2.273,1.018 -2.273,2.273 C -2.273,-1.017 -1.255,0 0,0 m 8.063,0 c 1.256,0 2.273,-1.017 2.273,-2.272 0,-1.255 -1.017,-2.273 -2.273,-2.273 -1.254,0 -2.272,1.018 -2.272,2.273 C 5.791,-1.017 6.809,0 8.063,0 m 54.261,4.468 c 0,0.456 0.37,0.826 0.826,0.826 h 4.958 c 0.456,0 0.827,-0.37 0.827,-0.826 V -8.754 c 0,-0.456 -0.371,-0.827 -0.827,-0.827 H 63.15 c -0.456,0 -0.826,0.371 -0.826,0.827 z m 9.916,0 c 0,0.456 0.372,0.826 0.828,0.826 h 4.955 c 0.456,0 0.828,-0.37 0.828,-0.826 V -8.754 c 0,-0.456 -0.372,-0.827 -0.828,-0.827 h -4.955 c -0.456,0 -0.828,0.371 -0.828,0.827 z M -8.358,-14.39 H 83.419 V 9.672 H -8.358 Z"
             style="fill:#ffffff;fill-opacity:1;fill-rule:nonzero;stroke:none"
             id="path316"
             inkscape:connector-curvature="0" /></g><g
           id="g318"
           transform="translate(206.6814,263.5891)"><path
             d="m 0,0 h 61.676 l 10.181,-4.985 h -83.573 z m 75.602,-32.761 h -91.777 v 24.062 h 91.777 z m -94.077,28.495 c -0.765,-0.327 -1.129,-1.163 -0.919,-1.943 -0.038,-0.141 -0.085,-0.276 -0.085,-0.427 v -0.41 -27.368 c 0,-0.91 0.737,-1.652 1.652,-1.652 h 95.08 c 0.915,0 1.655,0.742 1.655,1.652 v 27.368 0.41 c 0,0.152 -0.05,0.291 -0.09,0.43 0.198,0.748 -0.117,1.55 -0.839,1.904 L 62.782,3.135 C 62.555,3.244 62.307,3.302 62.058,3.302 H -0.335 c -0.224,0 -0.443,-0.041 -0.648,-0.129 z"
             style="fill:#4c4d4d;fill-opacity:1;fill-rule:nonzero;stroke:none"
             id="path320"
             inkscape:connector-curvature="0" /></g><g
           id="g322"
           transform="translate(198.864,240.6736)"><path
             d="M 0,0 C 1.255,0 2.272,1.018 2.272,2.272 2.272,3.528 1.255,4.545 0,4.545 -1.255,4.545 -2.273,3.528 -2.273,2.272 -2.273,1.018 -1.255,0 0,0"
             style="fill:#4c4d4d;fill-opacity:1;fill-rule:nonzero;stroke:none"
             id="path324"
             inkscape:connector-curvature="0" /></g><g
           id="g326"
           transform="translate(206.9274,240.6736)"><path
             d="M 0,0 C 1.255,0 2.273,1.018 2.273,2.272 2.273,3.528 1.255,4.545 0,4.545 -1.255,4.545 -2.272,3.528 -2.272,2.272 -2.272,1.018 -1.255,0 0,0"
             style="fill:#4c4d4d;fill-opacity:1;fill-rule:nonzero;stroke:none"
             id="path328"
             inkscape:connector-curvature="0" /></g><path
           d="m 272.757,248.86 h 3.306 v -11.569 h -3.306 z m -0.825,-13.223 h 4.955 c 0.456,0 0.828,0.371 0.828,0.827 v 13.222 c 0,0.456 -0.372,0.826 -0.828,0.826 h -4.955 c -0.456,0 -0.828,-0.37 -0.828,-0.826 v -13.222 c 0,-0.456 0.372,-0.827 0.828,-0.827"
           style="fill:#4c4d4d;fill-opacity:1;fill-rule:nonzero;stroke:none"
           id="path330"
           inkscape:connector-curvature="0" /><path
           d="m 262.84,248.86 h 3.306 v -11.569 h -3.306 z m -0.826,-13.223 h 4.958 c 0.456,0 0.827,0.371 0.827,0.827 v 13.222 c 0,0.456 -0.371,0.826 -0.827,0.826 h -4.958 c -0.456,0 -0.826,-0.37 -0.826,-0.826 v -13.222 c 0,-0.456 0.37,-0.827 0.826,-0.827"
           style="fill:#4c4d4d;fill-opacity:1;fill-rule:nonzero;stroke:none"
           id="path332"
           inkscape:connector-curvature="0" /><g
           id="g334"
           transform="translate(238.6472,222.8122)"><path
             d="m 0,0 h -3.313 c -0.685,0 -1.24,-0.555 -1.24,-1.24 0,-0.684 0.555,-1.239 1.24,-1.239 H 0 c 0.685,0 1.24,0.555 1.24,1.239 C 1.24,-0.555 0.685,0 0,0"
             style="fill:#4c4d4d;fill-opacity:1;fill-rule:nonzero;stroke:none"
             id="path336"
             inkscape:connector-curvature="0" /></g><g
           id="g338"
           transform="translate(246.9343,222.8122)"><path
             d="m 0,0 h -3.314 c -0.684,0 -1.239,-0.555 -1.239,-1.24 0,-0.684 0.555,-1.239 1.239,-1.239 H 0 c 0.684,0 1.24,0.555 1.24,1.239 C 1.24,-0.555 0.684,0 0,0"
             style="fill:#4c4d4d;fill-opacity:1;fill-rule:nonzero;stroke:none"
             id="path340"
             inkscape:connector-curvature="0" /></g><g
           id="g342"
           transform="translate(183.0402,262.8322)"><path
             d="m 0,0 c -0.585,0.355 -1.347,0.17 -1.702,-0.417 -0.665,-1.095 -1.093,-2.345 -1.238,-3.612 -0.078,-0.681 0.41,-1.296 1.09,-1.374 0.049,-0.005 0.097,-0.008 0.143,-0.008 0.621,0 1.157,0.466 1.229,1.099 0.104,0.916 0.416,1.818 0.895,2.609 C 0.772,-1.117 0.585,-0.355 0,0"
             style="fill:#4c4d4d;fill-opacity:1;fill-rule:nonzero;stroke:none"
             id="path344"
             inkscape:connector-curvature="0" /></g><g
           id="g346"
           transform="translate(213.7883,222.8122)"><path
             d="m 0,0 h -3.314 c -0.684,0 -1.24,-0.555 -1.24,-1.24 0,-0.684 0.556,-1.239 1.24,-1.239 H 0 c 0.684,0 1.239,0.555 1.239,1.239 C 1.239,-0.555 0.684,0 0,0"
             style="fill:#4c4d4d;fill-opacity:1;fill-rule:nonzero;stroke:none"
             id="path348"
             inkscape:connector-curvature="0" /></g><g
           id="g350"
           transform="translate(197.216,222.8122)"><path
             d="m 0,0 h -3.314 c -0.684,0 -1.239,-0.555 -1.239,-1.24 0,-0.684 0.555,-1.239 1.239,-1.239 H 0 c 0.684,0 1.24,0.555 1.24,1.239 C 1.24,-0.555 0.683,0 0,0"
             style="fill:#4c4d4d;fill-opacity:1;fill-rule:nonzero;stroke:none"
             id="path352"
             inkscape:connector-curvature="0" /></g><g
           id="g354"
           transform="translate(188.8547,222.8122)"><path
             d="M 0,0 C -0.937,0 -1.841,0.2 -2.684,0.595 -3.304,0.886 -4.041,0.617 -4.332,-0.001 -4.623,-0.623 -4.355,-1.36 -3.735,-1.651 -2.562,-2.2 -1.304,-2.479 0,-2.479 h 0.073 c 0.684,0 1.203,0.555 1.203,1.239 C 1.277,-0.555 0.684,0 0,0"
             style="fill:#4c4d4d;fill-opacity:1;fill-rule:nonzero;stroke:none"
             id="path356"
             inkscape:connector-curvature="0" /></g><g
           id="g358"
           transform="translate(255.2209,222.8122)"><path
             d="m 0,0 h -3.313 c -0.685,0 -1.24,-0.555 -1.24,-1.24 0,-0.684 0.555,-1.239 1.24,-1.239 H 0 c 0.685,0 1.24,0.555 1.24,1.239 C 1.24,-0.555 0.685,0 0,0"
             style="fill:#4c4d4d;fill-opacity:1;fill-rule:nonzero;stroke:none"
             id="path360"
             inkscape:connector-curvature="0" /></g><g
           id="g362"
           transform="translate(205.5031,222.8122)"><path
             d="m 0,0 h -3.315 c -0.685,0 -1.24,-0.555 -1.24,-1.24 0,-0.684 0.555,-1.239 1.24,-1.239 H 0 c 0.684,0 1.239,0.555 1.239,1.239 C 1.239,-0.555 0.684,0 0,0"
             style="fill:#4c4d4d;fill-opacity:1;fill-rule:nonzero;stroke:none"
             id="path364"
             inkscape:connector-curvature="0" /></g><g
           id="g366"
           transform="translate(222.0749,222.8122)"><path
             d="m 0,0 h -3.313 c -0.685,0 -1.24,-0.555 -1.24,-1.24 0,-0.684 0.555,-1.239 1.24,-1.239 H 0 c 0.685,0 1.24,0.555 1.24,1.239 C 1.24,-0.555 0.685,0 0,0"
             style="fill:#4c4d4d;fill-opacity:1;fill-rule:nonzero;stroke:none"
             id="path368"
             inkscape:connector-curvature="0" /></g><g
           id="g370"
           transform="translate(291.5392,231.1902)"><path
             d="m 0,0 c -0.685,0 -1.24,-0.555 -1.24,-1.24 v -0.775 c 0,-0.714 -0.117,-1.415 -0.351,-2.086 -0.225,-0.646 0.116,-1.352 0.764,-1.576 0.134,-0.047 0.271,-0.07 0.407,-0.07 0.514,0 0.991,0.321 1.17,0.833 0.324,0.931 0.489,1.906 0.489,2.899 V -1.24 C 1.239,-0.555 0.684,0 0,0"
             style="fill:#4c4d4d;fill-opacity:1;fill-rule:nonzero;stroke:none"
             id="path372"
             inkscape:connector-curvature="0" /></g><g
           id="g374"
           transform="translate(263.506,222.8122)"><path
             d="m 0,0 h -3.313 c -0.685,0 -1.24,-0.555 -1.24,-1.24 0,-0.684 0.555,-1.239 1.24,-1.239 H 0 c 0.685,0 1.24,0.555 1.24,1.239 C 1.24,-0.555 0.685,0 0,0"
             style="fill:#4c4d4d;fill-opacity:1;fill-rule:nonzero;stroke:none"
             id="path376"
             inkscape:connector-curvature="0" /></g><g
           id="g378"
           transform="translate(291.5392,247.7624)"><path
             d="m 0,0 c -0.685,0 -1.24,-0.556 -1.24,-1.24 v -3.315 c 0,-0.684 0.555,-1.24 1.24,-1.24 0.684,0 1.239,0.556 1.239,1.24 V -1.24 C 1.239,-0.556 0.684,0 0,0"
             style="fill:#4c4d4d;fill-opacity:1;fill-rule:nonzero;stroke:none"
             id="path380"
             inkscape:connector-curvature="0" /></g><g
           id="g382"
           transform="translate(291.5392,256.049)"><path
             d="m 0,0 c -0.685,0 -1.24,-0.555 -1.24,-1.239 v -3.314 c 0,-0.684 0.555,-1.24 1.24,-1.24 0.684,0 1.239,0.556 1.239,1.24 v 3.314 C 1.239,-0.555 0.684,0 0,0"
             style="fill:#4c4d4d;fill-opacity:1;fill-rule:nonzero;stroke:none"
             id="path384"
             inkscape:connector-curvature="0" /></g><g
           id="g386"
           transform="translate(291.5392,239.4753)"><path
             d="m 0,0 c -0.685,0 -1.24,-0.555 -1.24,-1.24 v -3.315 c 0,-0.684 0.555,-1.239 1.24,-1.239 0.684,0 1.239,0.555 1.239,1.239 V -1.24 C 1.239,-0.555 0.684,0 0,0"
             style="fill:#4c4d4d;fill-opacity:1;fill-rule:nonzero;stroke:none"
             id="path388"
             inkscape:connector-curvature="0" /></g><g
           id="g390"
           transform="translate(271.7932,222.8122)"><path
             d="m 0,0 h -3.313 c -0.685,0 -1.24,-0.555 -1.24,-1.24 0,-0.684 0.555,-1.239 1.24,-1.239 H 0 c 0.685,0 1.24,0.555 1.24,1.239 C 1.24,-0.555 0.685,0 0,0"
             style="fill:#4c4d4d;fill-opacity:1;fill-rule:nonzero;stroke:none"
             id="path392"
             inkscape:connector-curvature="0" /></g><g
           id="g394"
           transform="translate(280.0822,222.8122)"><path
             d="M 0,0 H -3.315 C -4,0 -4.556,-0.555 -4.556,-1.24 c 0,-0.684 0.556,-1.239 1.241,-1.239 H 0 c 0.684,0 1.239,0.555 1.239,1.239 C 1.239,-0.555 0.684,0 0,0"
             style="fill:#4c4d4d;fill-opacity:1;fill-rule:nonzero;stroke:none"
             id="path396"
             inkscape:connector-curvature="0" /></g><g
           id="g398"
           transform="translate(287.4348,223.865)"><path
             d="m 0,0 c -0.781,-0.516 -1.646,-0.846 -2.571,-0.983 -0.676,-0.101 -1.144,-0.731 -1.045,-1.41 0.093,-0.615 0.622,-1.058 1.224,-1.058 0.062,0 0.121,0.005 0.184,0.013 1.284,0.19 2.487,0.651 3.572,1.367 0.572,0.379 0.729,1.146 0.352,1.717 C 1.339,0.218 0.572,0.377 0,0"
             style="fill:#4c4d4d;fill-opacity:1;fill-rule:nonzero;stroke:none"
             id="path400"
             inkscape:connector-curvature="0" /></g><g
           id="g402"
           transform="translate(230.362,222.8122)"><path
             d="m 0,0 h -3.314 c -0.684,0 -1.239,-0.555 -1.239,-1.24 0,-0.684 0.555,-1.239 1.239,-1.239 H 0 c 0.684,0 1.24,0.555 1.24,1.239 C 1.24,-0.555 0.684,0 0,0"
             style="fill:#4c4d4d;fill-opacity:1;fill-rule:nonzero;stroke:none"
             id="path404"
             inkscape:connector-curvature="0" /></g><g
           id="g406"
           transform="translate(242.571,271.6018)"><path
             d="m 0,0 h 3.314 c 0.684,0 1.239,0.555 1.239,1.239 0,0.685 -0.555,1.24 -1.239,1.24 H 0 c -0.684,0 -1.24,-0.555 -1.24,-1.24 C -1.24,0.555 -0.684,0 0,0"
             style="fill:#4c4d4d;fill-opacity:1;fill-rule:nonzero;stroke:none"
             id="path408"
             inkscape:connector-curvature="0" /></g><g
           id="g410"
           transform="translate(259.1447,271.6018)"><path
             d="m 0,0 h 3.313 c 0.685,0 1.241,0.555 1.241,1.239 0,0.685 -0.556,1.24 -1.241,1.24 H 0 c -0.685,0 -1.239,-0.555 -1.239,-1.24 C -1.239,0.555 -0.685,0 0,0"
             style="fill:#4c4d4d;fill-opacity:1;fill-rule:nonzero;stroke:none"
             id="path412"
             inkscape:connector-curvature="0" /></g><g
           id="g414"
           transform="translate(225.9973,271.6018)"><path
             d="m 0,0 h 3.313 c 0.685,0 1.24,0.555 1.24,1.239 0,0.685 -0.555,1.24 -1.24,1.24 H 0 c -0.685,0 -1.24,-0.555 -1.24,-1.24 C -1.24,0.555 -0.685,0 0,0"
             style="fill:#4c4d4d;fill-opacity:1;fill-rule:nonzero;stroke:none"
             id="path416"
             inkscape:connector-curvature="0" /></g><g
           id="g418"
           transform="translate(234.2839,271.6018)"><path
             d="m 0,0 h 3.314 c 0.684,0 1.239,0.555 1.239,1.239 0,0.685 -0.555,1.24 -1.239,1.24 H 0 c -0.684,0 -1.239,-0.555 -1.239,-1.24 C -1.239,0.555 -0.684,0 0,0"
             style="fill:#4c4d4d;fill-opacity:1;fill-rule:nonzero;stroke:none"
             id="path420"
             inkscape:connector-curvature="0" /></g><g
           id="g422"
           transform="translate(250.8576,271.6018)"><path
             d="m 0,0 h 3.314 c 0.684,0 1.24,0.555 1.24,1.239 0,0.685 -0.556,1.24 -1.24,1.24 H 0 c -0.684,0 -1.239,-0.555 -1.239,-1.24 C -1.239,0.555 -0.684,0 0,0"
             style="fill:#4c4d4d;fill-opacity:1;fill-rule:nonzero;stroke:none"
             id="path424"
             inkscape:connector-curvature="0" /></g><g
           id="g426"
           transform="translate(282.1398,265.7658)"><path
             d="m 0,0 2.977,-1.456 c 0.176,-0.086 0.361,-0.126 0.544,-0.126 0.457,0 0.9,0.255 1.115,0.694 0.301,0.615 0.046,1.357 -0.569,1.658 L 1.091,2.226 C 0.471,2.527 -0.268,2.271 -0.568,1.658 -0.87,1.043 -0.615,0.301 0,0"
             style="fill:#4c4d4d;fill-opacity:1;fill-rule:nonzero;stroke:none"
             id="path428"
             inkscape:connector-curvature="0" /></g><g
           id="g430"
           transform="translate(267.4299,271.6018)"><path
             d="m 0,0 h 1.311 c 0.557,0 1.114,-0.075 1.658,-0.222 0.108,-0.029 0.216,-0.043 0.322,-0.043 0.547,0 1.048,0.364 1.196,0.918 C 4.666,1.314 4.275,1.993 3.615,2.171 2.861,2.375 2.086,2.479 1.311,2.479 H 0 c -0.684,0 -1.239,-0.555 -1.239,-1.24 C -1.239,0.555 -0.684,0 0,0"
             style="fill:#4c4d4d;fill-opacity:1;fill-rule:nonzero;stroke:none"
             id="path432"
             inkscape:connector-curvature="0" /></g><g
           id="g434"
           transform="translate(290.0558,259.4406)"><path
             d="m 0,0 c 0.147,-0.555 0.65,-0.924 1.198,-0.924 0.107,0 0.212,0.013 0.318,0.042 0.661,0.173 1.058,0.852 0.882,1.513 -0.327,1.24 -0.931,2.415 -1.75,3.4 C 0.209,4.558 -0.571,4.629 -1.097,4.193 -1.624,3.755 -1.697,2.975 -1.261,2.448 -0.671,1.742 -0.236,0.894 0,0"
             style="fill:#4c4d4d;fill-opacity:1;fill-rule:nonzero;stroke:none"
             id="path436"
             inkscape:connector-curvature="0" /></g><g
           id="g438"
           transform="translate(274.6974,269.4084)"><path
             d="m 0,0 2.979,-1.456 c 0.172,-0.086 0.359,-0.126 0.542,-0.126 0.458,0 0.9,0.255 1.115,0.694 0.301,0.616 0.045,1.357 -0.571,1.658 L 1.087,2.226 C 0.476,2.525 -0.27,2.271 -0.57,1.658 -0.871,1.043 -0.615,0.301 0,0"
             style="fill:#4c4d4d;fill-opacity:1;fill-rule:nonzero;stroke:none"
             id="path440"
             inkscape:connector-curvature="0" /></g><g
           id="g442"
           transform="translate(181.2522,240.8523)"><path
             d="m 0,0 c 0.684,0 1.239,0.555 1.239,1.239 v 3.314 c 0,0.684 -0.555,1.24 -1.239,1.24 -0.685,0 -1.24,-0.556 -1.24,-1.24 V 1.239 C -1.24,0.555 -0.685,0 0,0"
             style="fill:#4c4d4d;fill-opacity:1;fill-rule:nonzero;stroke:none"
             id="path444"
             inkscape:connector-curvature="0" /></g><g
           id="g446"
           transform="translate(186.1408,263.6682)"><path
             d="m 0,0 c 0.162,0 0.326,0.032 0.484,0.1 l 3.05,1.297 C 4.163,1.665 4.458,2.394 4.188,3.021 3.92,3.651 3.193,3.949 2.563,3.676 L -0.486,2.38 C -1.116,2.112 -1.41,1.384 -1.141,0.755 -0.94,0.283 -0.482,0 0,0"
             style="fill:#4c4d4d;fill-opacity:1;fill-rule:nonzero;stroke:none"
             id="path448"
             inkscape:connector-curvature="0" /></g><g
           id="g450"
           transform="translate(181.2522,249.1374)"><path
             d="M 0,0 C 0.684,0 1.239,0.555 1.239,1.24 V 4.555 C 1.239,5.239 0.684,5.794 0,5.794 -0.685,5.794 -1.24,5.239 -1.24,4.555 V 1.24 C -1.24,0.555 -0.685,0 0,0"
             style="fill:#4c4d4d;fill-opacity:1;fill-rule:nonzero;stroke:none"
             id="path452"
             inkscape:connector-curvature="0" /></g><g
           id="g454"
           transform="translate(182.4982,228.8894)"><path
             d="m 0,0 c -0.03,0.684 -0.633,1.258 -1.292,1.184 -0.685,-0.03 -1.214,-0.609 -1.184,-1.293 0.058,-1.301 0.392,-2.544 0.995,-3.694 0.222,-0.423 0.653,-0.664 1.099,-0.664 0.194,0 0.39,0.044 0.575,0.142 0.607,0.316 0.84,1.066 0.523,1.672 C 0.283,-1.826 0.043,-0.934 0,0"
             style="fill:#4c4d4d;fill-opacity:1;fill-rule:nonzero;stroke:none"
             id="path456"
             inkscape:connector-curvature="0" /></g><g
           id="g458"
           transform="translate(181.2522,232.5652)"><path
             d="M 0,0 C 0.684,0 1.239,0.555 1.239,1.24 V 4.555 C 1.239,5.239 0.684,5.794 0,5.794 -0.685,5.794 -1.24,5.239 -1.24,4.555 V 1.24 C -1.24,0.555 -0.685,0 0,0"
             style="fill:#4c4d4d;fill-opacity:1;fill-rule:nonzero;stroke:none"
             id="path460"
             inkscape:connector-curvature="0" /></g><g
           id="g462"
           transform="translate(201.3928,270.1555)"><path
             d="M 0,0 C 0.162,0 0.325,0.031 0.484,0.099 L 2.462,0.94 C 2.763,1.068 3.072,1.172 3.386,1.251 4.049,1.42 4.451,2.094 4.282,2.758 4.113,3.421 3.442,3.823 2.775,3.654 2.338,3.543 1.91,3.4 1.492,3.221 L -0.486,2.38 C -1.116,2.112 -1.41,1.383 -1.141,0.755 -0.94,0.283 -0.483,0 0,0"
             style="fill:#4c4d4d;fill-opacity:1;fill-rule:nonzero;stroke:none"
             id="path464"
             inkscape:connector-curvature="0" /></g><g
           id="g466"
           transform="translate(209.425,271.6018)"><path
             d="M 0,0 H 3.315 C 4,0 4.555,0.555 4.555,1.239 4.555,1.924 4,2.479 3.315,2.479 H 0 c -0.685,0 -1.24,-0.555 -1.24,-1.24 C -1.24,0.555 -0.685,0 0,0"
             style="fill:#4c4d4d;fill-opacity:1;fill-rule:nonzero;stroke:none"
             id="path468"
             inkscape:connector-curvature="0" /></g><g
           id="g470"
           transform="translate(217.7116,271.6018)"><path
             d="m 0,0 h 3.314 c 0.684,0 1.24,0.555 1.24,1.239 0,0.685 -0.556,1.24 -1.24,1.24 H 0 c -0.684,0 -1.239,-0.555 -1.239,-1.24 C -1.239,0.555 -0.684,0 0,0"
             style="fill:#4c4d4d;fill-opacity:1;fill-rule:nonzero;stroke:none"
             id="path472"
             inkscape:connector-curvature="0" /></g><g
           id="g474"
           transform="translate(193.7668,266.9128)"><path
             d="m 0,0 c 0.162,0 0.326,0.031 0.484,0.099 l 3.05,1.297 C 4.163,1.664 4.458,2.393 4.188,3.021 3.92,3.651 3.193,3.948 2.563,3.676 L -0.486,2.378 C -1.116,2.11 -1.41,1.382 -1.141,0.753 -0.94,0.283 -0.483,0 0,0"
             style="fill:#4c4d4d;fill-opacity:1;fill-rule:nonzero;stroke:none"
             id="path476"
             inkscape:connector-curvature="0" /></g><g
           id="g478"
           transform="translate(230.8459,201.3381)"><path
             d="m 0,0 h -1.776 l -3.89,11.204 h 1.825 l 2.337,-7.139 c 0.208,-0.656 0.528,-1.648 0.624,-2.048 0.096,0.4 0.416,1.409 0.624,2.065 l 2.305,7.122 h 1.793 z"
             style="fill:#4c4d4d;fill-opacity:1;fill-rule:nonzero;stroke:none"
             id="path480"
             inkscape:connector-curvature="0" /></g><g
           id="g482"
           transform="translate(245.2634,201.3381)"><path
             d="M 0,0 V 5.923 C 0,6.595 0.016,7.571 0.032,7.892 -0.096,7.571 -0.417,6.771 -0.688,6.131 L -3.41,-0.176 -6.099,6.131 c -0.272,0.64 -0.592,1.44 -0.72,1.761 0.016,-0.321 0.032,-1.297 0.032,-1.969 V 0 h -1.585 v 11.204 h 1.729 l 2.513,-5.97 c 0.272,-0.64 0.625,-1.457 0.769,-1.921 0.159,0.464 0.48,1.265 0.752,1.921 l 2.465,5.97 H 1.648 V 0 Z"
             style="fill:#4c4d4d;fill-opacity:1;fill-rule:nonzero;stroke:none"
             id="path484"
             inkscape:connector-curvature="0" /></g><g
           id="g486"
           transform="translate(212.9187,183.9685)"><path
             d="m 0,0 c -1.3,1.235 -2.535,2.977 -2.535,5.33 0,2.431 1.209,4.148 2.535,5.408 L 0.676,10.153 C -0.481,8.866 -1.118,7.372 -1.118,5.396 c 0,-2.133 0.689,-3.563 1.794,-4.811 z"
             style="fill:#4c4d4d;fill-opacity:1;fill-rule:nonzero;stroke:none"
             id="path488"
             inkscape:connector-curvature="0" /></g><g
           id="g490"
           transform="translate(219.3928,193.2121)"><path
             d="M 0,0 H -2.652 V -2.925 H 0 c 0.91,0 1.547,0.467 1.547,1.456 C 1.547,-0.52 0.923,0 0,0 M 0.923,-4.095 2.782,-7.813 H 1.209 l -1.807,3.601 h -2.054 v -3.601 h -1.339 v 9.1 H 0 c 1.586,0 2.925,-0.845 2.925,-2.717 0,-1.456 -0.767,-2.353 -2.002,-2.665"
             style="fill:#4c4d4d;fill-opacity:1;fill-rule:nonzero;stroke:none"
             id="path492"
             inkscape:connector-curvature="0" /></g><g
           id="g494"
           transform="translate(229.9748,185.3987)"><path
             d="M 0,0 V 4.082 H -4.186 V 0 h -1.365 v 9.1 h 1.365 V 5.421 H 0 V 9.1 H 1.365 V 0 Z"
             style="fill:#4c4d4d;fill-opacity:1;fill-rule:nonzero;stroke:none"
             id="path496"
             inkscape:connector-curvature="0" /></g><g
           id="g498"
           transform="translate(233.7053,185.3987)"><path
             d="M 0,0 V 9.1 H 5.863 V 7.774 H 1.365 V 5.525 H 3.978 V 4.199 H 1.365 V 1.326 H 6.058 V 0 Z"
             style="fill:#4c4d4d;fill-opacity:1;fill-rule:nonzero;stroke:none"
             id="path500"
             inkscape:connector-curvature="0" /></g><g
           id="g502"
           transform="translate(241.7004,185.3987)"><path
             d="M 0,0 V 9.1 H 1.365 V 1.339 H 5.902 V 0 Z"
             style="fill:#4c4d4d;fill-opacity:1;fill-rule:nonzero;stroke:none"
             id="path504"
             inkscape:connector-curvature="0" /></g><g
           id="g506"
           transform="translate(255.4025,185.3987)"><path
             d="m 0,0 h -1.378 c 0.052,3.133 1.118,5.577 2.82,7.774 h -4.77 V 9.1 H 3.029 V 7.722 C 1.481,5.993 0.064,3.38 0,0"
             style="fill:#4c4d4d;fill-opacity:1;fill-rule:nonzero;stroke:none"
             id="path508"
             inkscape:connector-curvature="0" /></g><g
           id="g510"
           transform="translate(260.7844,183.9817)"><path
             d="m 0,0 -0.677,0.585 c 1.157,1.287 1.794,2.782 1.794,4.758 0,2.132 -0.688,3.562 -1.794,4.81 L 0,10.738 C 1.3,9.503 2.534,7.761 2.534,5.408 2.534,2.977 1.325,1.261 0,0"
             style="fill:#4c4d4d;fill-opacity:1;fill-rule:nonzero;stroke:none"
             id="path512"
             inkscape:connector-curvature="0" /></g><path
           d="M 317.666,289.886 H 463.199 V 174.954 H 317.666 Z"
           style="fill:#e6e6e6;fill-opacity:1;fill-rule:nonzero;stroke:none"
           id="path514"
           inkscape:connector-curvature="0" /><path
           d="m 420.183,248.86 h -3.305 v -11.569 h 3.305 z"
           style="fill:#ffffff;fill-opacity:1;fill-rule:nonzero;stroke:none"
           id="path516"
           inkscape:connector-curvature="0" /><path
           d="m 430.1,248.86 h -3.306 v -11.569 h 3.306 z"
           style="fill:#ffffff;fill-opacity:1;fill-rule:nonzero;stroke:none"
           id="path518"
           inkscape:connector-curvature="0" /><g
           id="g520"
           transform="translate(352.9016,245.2185)"><path
             d="m 0,0 c 1.255,0 2.272,-1.017 2.272,-2.272 0,-1.255 -1.017,-2.273 -2.272,-2.273 -1.256,0 -2.272,1.018 -2.272,2.273 C -2.272,-1.017 -1.256,0 0,0 m 8.063,0 c 1.255,0 2.273,-1.017 2.273,-2.272 0,-1.255 -1.018,-2.273 -2.273,-2.273 -1.254,0 -2.272,1.018 -2.272,2.273 C 5.791,-1.017 6.809,0 8.063,0 m 54.26,4.468 c 0,0.456 0.37,0.826 0.826,0.826 h 4.959 c 0.456,0 0.827,-0.37 0.827,-0.826 V -8.754 c 0,-0.456 -0.371,-0.827 -0.827,-0.827 h -4.959 c -0.456,0 -0.826,0.371 -0.826,0.827 z m 9.917,0 c 0,0.456 0.372,0.826 0.828,0.826 h 4.954 c 0.457,0 0.829,-0.37 0.829,-0.826 V -8.754 c 0,-0.456 -0.372,-0.827 -0.829,-0.827 h -4.954 c -0.456,0 -0.828,0.371 -0.828,0.827 z M -8.358,-14.39 H 83.419 V 9.672 H -8.358 Z"
             style="fill:#ffffff;fill-opacity:1;fill-rule:nonzero;stroke:none"
             id="path522"
             inkscape:connector-curvature="0" /></g><g
           id="g524"
           transform="translate(432.5754,258.6042)"><path
             d="M 0,0 -10.181,4.985 H -71.856 L -83.573,0 Z"
             style="fill:#ffffff;fill-opacity:1;fill-rule:nonzero;stroke:none"
             id="path526"
             inkscape:connector-curvature="0" /></g><g
           id="g528"
           transform="translate(360.7189,263.5891)"><path
             d="m 0,0 h 61.676 l 10.18,-4.985 h -83.573 z m 75.602,-32.761 h -91.777 v 24.062 h 91.777 z m -94.077,28.495 c -0.765,-0.327 -1.129,-1.163 -0.919,-1.943 -0.038,-0.141 -0.085,-0.276 -0.085,-0.427 v -0.41 -27.368 c 0,-0.91 0.737,-1.652 1.652,-1.652 h 95.08 c 0.916,0 1.654,0.742 1.654,1.652 v 27.368 0.41 c 0,0.152 -0.05,0.291 -0.089,0.43 0.199,0.748 -0.117,1.55 -0.839,1.904 L 62.781,3.135 C 62.555,3.244 62.307,3.302 62.058,3.302 H -0.336 c -0.223,0 -0.442,-0.041 -0.647,-0.129 z"
             style="fill:#4c4d4d;fill-opacity:1;fill-rule:nonzero;stroke:none"
             id="path530"
             inkscape:connector-curvature="0" /></g><g
           id="g532"
           transform="translate(352.9016,240.6736)"><path
             d="M 0,0 C 1.255,0 2.272,1.018 2.272,2.272 2.272,3.528 1.255,4.545 0,4.545 -1.256,4.545 -2.272,3.528 -2.272,2.272 -2.272,1.018 -1.256,0 0,0"
             style="fill:#4c4d4d;fill-opacity:1;fill-rule:nonzero;stroke:none"
             id="path534"
             inkscape:connector-curvature="0" /></g><g
           id="g536"
           transform="translate(360.965,240.6736)"><path
             d="M 0,0 C 1.255,0 2.272,1.018 2.272,2.272 2.272,3.528 1.255,4.545 0,4.545 -1.255,4.545 -2.272,3.528 -2.272,2.272 -2.272,1.018 -1.255,0 0,0"
             style="fill:#4c4d4d;fill-opacity:1;fill-rule:nonzero;stroke:none"
             id="path538"
             inkscape:connector-curvature="0" /></g><path
           d="m 426.794,248.86 h 3.306 v -11.569 h -3.306 z m -0.824,-13.223 h 4.954 c 0.457,0 0.828,0.371 0.828,0.827 v 13.222 c 0,0.456 -0.371,0.826 -0.828,0.826 h -4.954 c -0.456,0 -0.828,-0.37 -0.828,-0.826 v -13.222 c 0,-0.456 0.372,-0.827 0.828,-0.827"
           style="fill:#4c4d4d;fill-opacity:1;fill-rule:nonzero;stroke:none"
           id="path540"
           inkscape:connector-curvature="0" /><path
           d="m 416.878,248.86 h 3.305 v -11.569 h -3.305 z m -0.827,-13.223 h 4.959 c 0.456,0 0.826,0.371 0.826,0.827 v 13.222 c 0,0.456 -0.37,0.826 -0.826,0.826 h -4.959 c -0.456,0 -0.826,-0.37 -0.826,-0.826 v -13.222 c 0,-0.456 0.37,-0.827 0.826,-0.827"
           style="fill:#4c4d4d;fill-opacity:1;fill-rule:nonzero;stroke:none"
           id="path542"
           inkscape:connector-curvature="0" /><g
           id="g544"
           transform="translate(392.6848,222.8122)"><path
             d="m 0,0 h -3.313 c -0.685,0 -1.241,-0.555 -1.241,-1.24 0,-0.684 0.556,-1.239 1.241,-1.239 H 0 c 0.685,0 1.239,0.555 1.239,1.239 C 1.239,-0.555 0.685,0 0,0"
             style="fill:#4c4d4d;fill-opacity:1;fill-rule:nonzero;stroke:none"
             id="path546"
             inkscape:connector-curvature="0" /></g><g
           id="g548"
           transform="translate(400.9719,222.8122)"><path
             d="m 0,0 h -3.314 c -0.684,0 -1.24,-0.555 -1.24,-1.24 0,-0.684 0.556,-1.239 1.24,-1.239 H 0 c 0.684,0 1.239,0.555 1.239,1.239 C 1.239,-0.555 0.684,0 0,0"
             style="fill:#4c4d4d;fill-opacity:1;fill-rule:nonzero;stroke:none"
             id="path550"
             inkscape:connector-curvature="0" /></g><g
           id="g552"
           transform="translate(337.0773,262.8322)"><path
             d="m 0,0 c -0.585,0.355 -1.347,0.17 -1.702,-0.417 -0.664,-1.095 -1.093,-2.345 -1.237,-3.612 -0.079,-0.681 0.409,-1.296 1.09,-1.374 0.048,-0.005 0.096,-0.008 0.142,-0.008 0.621,0 1.157,0.466 1.229,1.099 0.105,0.916 0.416,1.818 0.895,2.609 C 0.772,-1.117 0.585,-0.355 0,0"
             style="fill:#4c4d4d;fill-opacity:1;fill-rule:nonzero;stroke:none"
             id="path554"
             inkscape:connector-curvature="0" /></g><g
           id="g556"
           transform="translate(367.8254,222.8122)"><path
             d="m 0,0 h -3.313 c -0.685,0 -1.24,-0.555 -1.24,-1.24 0,-0.684 0.555,-1.239 1.24,-1.239 H 0 c 0.685,0 1.239,0.555 1.239,1.239 C 1.239,-0.555 0.685,0 0,0"
             style="fill:#4c4d4d;fill-opacity:1;fill-rule:nonzero;stroke:none"
             id="path558"
             inkscape:connector-curvature="0" /></g><g
           id="g560"
           transform="translate(351.2531,222.8122)"><path
             d="m 0,0 h -3.313 c -0.685,0 -1.24,-0.555 -1.24,-1.24 0,-0.684 0.555,-1.239 1.24,-1.239 H 0 c 0.685,0 1.24,0.555 1.24,1.239 C 1.24,-0.555 0.683,0 0,0"
             style="fill:#4c4d4d;fill-opacity:1;fill-rule:nonzero;stroke:none"
             id="path562"
             inkscape:connector-curvature="0" /></g><g
           id="g564"
           transform="translate(342.8918,222.8122)"><path
             d="m 0,0 c -0.937,0 -1.841,0.2 -2.684,0.595 -0.62,0.291 -1.357,0.022 -1.648,-0.596 -0.29,-0.622 -0.022,-1.359 0.597,-1.65 C -2.562,-2.2 -1.304,-2.479 0,-2.479 h 0.073 c 0.684,0 1.203,0.555 1.203,1.239 C 1.278,-0.555 0.685,0 0,0"
             style="fill:#4c4d4d;fill-opacity:1;fill-rule:nonzero;stroke:none"
             id="path566"
             inkscape:connector-curvature="0" /></g><g
           id="g568"
           transform="translate(409.259,222.8122)"><path
             d="m 0,0 h -3.314 c -0.684,0 -1.24,-0.555 -1.24,-1.24 0,-0.684 0.556,-1.239 1.24,-1.239 H 0 c 0.684,0 1.239,0.555 1.239,1.239 C 1.239,-0.555 0.684,0 0,0"
             style="fill:#4c4d4d;fill-opacity:1;fill-rule:nonzero;stroke:none"
             id="path570"
             inkscape:connector-curvature="0" /></g><g
           id="g572"
           transform="translate(359.5402,222.8122)"><path
             d="m 0,0 h -3.315 c -0.685,0 -1.24,-0.555 -1.24,-1.24 0,-0.684 0.555,-1.239 1.24,-1.239 H 0 c 0.685,0 1.239,0.555 1.239,1.239 C 1.239,-0.555 0.685,0 0,0"
             style="fill:#4c4d4d;fill-opacity:1;fill-rule:nonzero;stroke:none"
             id="path574"
             inkscape:connector-curvature="0" /></g><g
           id="g576"
           transform="translate(376.1125,222.8122)"><path
             d="m 0,0 h -3.313 c -0.685,0 -1.241,-0.555 -1.241,-1.24 0,-0.684 0.556,-1.239 1.241,-1.239 H 0 c 0.685,0 1.239,0.555 1.239,1.239 C 1.239,-0.555 0.685,0 0,0"
             style="fill:#4c4d4d;fill-opacity:1;fill-rule:nonzero;stroke:none"
             id="path578"
             inkscape:connector-curvature="0" /></g><g
           id="g580"
           transform="translate(445.5764,231.1902)"><path
             d="m 0,0 c -0.685,0 -1.24,-0.555 -1.24,-1.24 v -0.775 c 0,-0.714 -0.117,-1.415 -0.35,-2.086 -0.226,-0.646 0.115,-1.352 0.764,-1.576 0.134,-0.047 0.27,-0.07 0.406,-0.07 0.514,0 0.991,0.321 1.17,0.833 0.324,0.931 0.489,1.906 0.489,2.899 V -1.24 C 1.239,-0.555 0.684,0 0,0"
             style="fill:#4c4d4d;fill-opacity:1;fill-rule:nonzero;stroke:none"
             id="path582"
             inkscape:connector-curvature="0" /></g><g
           id="g584"
           transform="translate(417.5441,222.8122)"><path
             d="m 0,0 h -3.314 c -0.684,0 -1.24,-0.555 -1.24,-1.24 0,-0.684 0.556,-1.239 1.24,-1.239 H 0 c 0.684,0 1.239,0.555 1.239,1.239 C 1.239,-0.555 0.684,0 0,0"
             style="fill:#4c4d4d;fill-opacity:1;fill-rule:nonzero;stroke:none"
             id="path586"
             inkscape:connector-curvature="0" /></g><g
           id="g588"
           transform="translate(445.5764,247.7624)"><path
             d="m 0,0 c -0.685,0 -1.24,-0.556 -1.24,-1.24 v -3.315 c 0,-0.684 0.555,-1.24 1.24,-1.24 0.684,0 1.239,0.556 1.239,1.24 V -1.24 C 1.239,-0.556 0.684,0 0,0"
             style="fill:#4c4d4d;fill-opacity:1;fill-rule:nonzero;stroke:none"
             id="path590"
             inkscape:connector-curvature="0" /></g><g
           id="g592"
           transform="translate(445.5764,256.049)"><path
             d="m 0,0 c -0.685,0 -1.24,-0.555 -1.24,-1.239 v -3.314 c 0,-0.684 0.555,-1.24 1.24,-1.24 0.684,0 1.239,0.556 1.239,1.24 v 3.314 C 1.239,-0.555 0.684,0 0,0"
             style="fill:#4c4d4d;fill-opacity:1;fill-rule:nonzero;stroke:none"
             id="path594"
             inkscape:connector-curvature="0" /></g><g
           id="g596"
           transform="translate(445.5764,239.4753)"><path
             d="m 0,0 c -0.685,0 -1.24,-0.555 -1.24,-1.24 v -3.315 c 0,-0.684 0.555,-1.239 1.24,-1.239 0.684,0 1.239,0.555 1.239,1.239 V -1.24 C 1.239,-0.555 0.684,0 0,0"
             style="fill:#4c4d4d;fill-opacity:1;fill-rule:nonzero;stroke:none"
             id="path598"
             inkscape:connector-curvature="0" /></g><g
           id="g600"
           transform="translate(425.8303,222.8122)"><path
             d="m 0,0 h -3.313 c -0.685,0 -1.24,-0.555 -1.24,-1.24 0,-0.684 0.555,-1.239 1.24,-1.239 H 0 c 0.685,0 1.24,0.555 1.24,1.239 C 1.24,-0.555 0.685,0 0,0"
             style="fill:#4c4d4d;fill-opacity:1;fill-rule:nonzero;stroke:none"
             id="path602"
             inkscape:connector-curvature="0" /></g><g
           id="g604"
           transform="translate(434.1193,222.8122)"><path
             d="m 0,0 h -3.315 c -0.685,0 -1.24,-0.555 -1.24,-1.24 0,-0.684 0.555,-1.239 1.24,-1.239 H 0 c 0.685,0 1.239,0.555 1.239,1.239 C 1.239,-0.555 0.685,0 0,0"
             style="fill:#4c4d4d;fill-opacity:1;fill-rule:nonzero;stroke:none"
             id="path606"
             inkscape:connector-curvature="0" /></g><g
           id="g608"
           transform="translate(441.4728,223.865)"><path
             d="m 0,0 c -0.782,-0.516 -1.646,-0.846 -2.572,-0.983 -0.676,-0.101 -1.144,-0.731 -1.045,-1.41 0.093,-0.615 0.622,-1.058 1.225,-1.058 0.061,0 0.121,0.005 0.183,0.013 1.284,0.19 2.488,0.651 3.572,1.367 0.572,0.379 0.729,1.146 0.352,1.717 C 1.338,0.218 0.571,0.377 0,0"
             style="fill:#4c4d4d;fill-opacity:1;fill-rule:nonzero;stroke:none"
             id="path610"
             inkscape:connector-curvature="0" /></g><g
           id="g612"
           transform="translate(384.3996,222.8122)"><path
             d="m 0,0 h -3.313 c -0.685,0 -1.241,-0.555 -1.241,-1.24 0,-0.684 0.556,-1.239 1.241,-1.239 H 0 c 0.684,0 1.239,0.555 1.239,1.239 C 1.239,-0.555 0.684,0 0,0"
             style="fill:#4c4d4d;fill-opacity:1;fill-rule:nonzero;stroke:none"
             id="path614"
             inkscape:connector-curvature="0" /></g><g
           id="g616"
           transform="translate(396.6086,271.6018)"><path
             d="m 0,0 h 3.313 c 0.685,0 1.24,0.555 1.24,1.239 0,0.685 -0.555,1.24 -1.24,1.24 H 0 c -0.685,0 -1.24,-0.555 -1.24,-1.24 C -1.24,0.555 -0.685,0 0,0"
             style="fill:#4c4d4d;fill-opacity:1;fill-rule:nonzero;stroke:none"
             id="path618"
             inkscape:connector-curvature="0" /></g><g
           id="g620"
           transform="translate(413.1818,271.6018)"><path
             d="m 0,0 h 3.314 c 0.684,0 1.24,0.555 1.24,1.239 0,0.685 -0.556,1.24 -1.24,1.24 H 0 c -0.684,0 -1.239,-0.555 -1.239,-1.24 C -1.239,0.555 -0.684,0 0,0"
             style="fill:#4c4d4d;fill-opacity:1;fill-rule:nonzero;stroke:none"
             id="path622"
             inkscape:connector-curvature="0" /></g><g
           id="g624"
           transform="translate(380.0344,271.6018)"><path
             d="m 0,0 h 3.313 c 0.685,0 1.241,0.555 1.241,1.239 0,0.685 -0.556,1.24 -1.241,1.24 H 0 c -0.685,0 -1.239,-0.555 -1.239,-1.24 C -1.239,0.555 -0.685,0 0,0"
             style="fill:#4c4d4d;fill-opacity:1;fill-rule:nonzero;stroke:none"
             id="path626"
             inkscape:connector-curvature="0" /></g><g
           id="g628"
           transform="translate(388.3215,271.6018)"><path
             d="m 0,0 h 3.313 c 0.685,0 1.241,0.555 1.241,1.239 0,0.685 -0.556,1.24 -1.241,1.24 H 0 c -0.685,0 -1.239,-0.555 -1.239,-1.24 C -1.239,0.555 -0.685,0 0,0"
             style="fill:#4c4d4d;fill-opacity:1;fill-rule:nonzero;stroke:none"
             id="path630"
             inkscape:connector-curvature="0" /></g><g
           id="g632"
           transform="translate(404.8957,271.6018)"><path
             d="m 0,0 h 3.313 c 0.684,0 1.24,0.555 1.24,1.239 0,0.685 -0.556,1.24 -1.24,1.24 H 0 c -0.685,0 -1.24,-0.555 -1.24,-1.24 C -1.24,0.555 -0.685,0 0,0"
             style="fill:#4c4d4d;fill-opacity:1;fill-rule:nonzero;stroke:none"
             id="path634"
             inkscape:connector-curvature="0" /></g><g
           id="g636"
           transform="translate(436.1769,265.7658)"><path
             d="m 0,0 2.977,-1.456 c 0.176,-0.086 0.362,-0.126 0.544,-0.126 0.458,0 0.9,0.255 1.115,0.694 0.301,0.615 0.047,1.357 -0.569,1.658 L 1.091,2.226 C 0.471,2.527 -0.268,2.271 -0.568,1.658 -0.869,1.043 -0.615,0.301 0,0"
             style="fill:#4c4d4d;fill-opacity:1;fill-rule:nonzero;stroke:none"
             id="path638"
             inkscape:connector-curvature="0" /></g><g
           id="g640"
           transform="translate(421.467,271.6018)"><path
             d="m 0,0 h 1.312 c 0.556,0 1.113,-0.075 1.657,-0.222 0.109,-0.029 0.217,-0.043 0.322,-0.043 0.547,0 1.048,0.364 1.196,0.918 C 4.666,1.314 4.276,1.993 3.615,2.171 2.861,2.375 2.086,2.479 1.312,2.479 H 0 c -0.684,0 -1.239,-0.555 -1.239,-1.24 C -1.239,0.555 -0.684,0 0,0"
             style="fill:#4c4d4d;fill-opacity:1;fill-rule:nonzero;stroke:none"
             id="path642"
             inkscape:connector-curvature="0" /></g><g
           id="g644"
           transform="translate(444.0939,259.4406)"><path
             d="m 0,0 c 0.146,-0.555 0.649,-0.924 1.198,-0.924 0.106,0 0.211,0.013 0.318,0.042 0.661,0.173 1.057,0.852 0.881,1.513 C 2.07,1.871 1.466,3.046 0.647,4.031 0.208,4.558 -0.572,4.629 -1.098,4.193 -1.625,3.755 -1.697,2.975 -1.262,2.448 -0.671,1.742 -0.236,0.894 0,0"
             style="fill:#4c4d4d;fill-opacity:1;fill-rule:nonzero;stroke:none"
             id="path646"
             inkscape:connector-curvature="0" /></g><g
           id="g648"
           transform="translate(428.7346,269.4084)"><path
             d="m 0,0 2.979,-1.456 c 0.173,-0.086 0.36,-0.126 0.542,-0.126 0.458,0 0.9,0.255 1.115,0.694 0.301,0.616 0.045,1.357 -0.571,1.658 L 1.088,2.226 C 0.477,2.525 -0.27,2.271 -0.57,1.658 -0.871,1.043 -0.615,0.301 0,0"
             style="fill:#4c4d4d;fill-opacity:1;fill-rule:nonzero;stroke:none"
             id="path650"
             inkscape:connector-curvature="0" /></g><g
           id="g652"
           transform="translate(335.2892,240.8523)"><path
             d="m 0,0 c 0.685,0 1.239,0.555 1.239,1.239 v 3.314 c 0,0.684 -0.554,1.24 -1.239,1.24 -0.684,0 -1.239,-0.556 -1.239,-1.24 V 1.239 C -1.239,0.555 -0.684,0 0,0"
             style="fill:#4c4d4d;fill-opacity:1;fill-rule:nonzero;stroke:none"
             id="path654"
             inkscape:connector-curvature="0" /></g><g
           id="g656"
           transform="translate(340.1779,263.6682)"><path
             d="m 0,0 c 0.162,0 0.326,0.032 0.484,0.1 l 3.05,1.297 C 4.164,1.665 4.458,2.394 4.188,3.021 3.921,3.651 3.193,3.949 2.563,3.676 L -0.485,2.38 C -1.115,2.112 -1.409,1.384 -1.14,0.755 -0.94,0.283 -0.482,0 0,0"
             style="fill:#4c4d4d;fill-opacity:1;fill-rule:nonzero;stroke:none"
             id="path658"
             inkscape:connector-curvature="0" /></g><g
           id="g660"
           transform="translate(335.2892,249.1374)"><path
             d="M 0,0 C 0.685,0 1.239,0.555 1.239,1.24 V 4.555 C 1.239,5.239 0.685,5.794 0,5.794 -0.684,5.794 -1.239,5.239 -1.239,4.555 V 1.24 C -1.239,0.555 -0.684,0 0,0"
             style="fill:#4c4d4d;fill-opacity:1;fill-rule:nonzero;stroke:none"
             id="path662"
             inkscape:connector-curvature="0" /></g><g
           id="g664"
           transform="translate(336.5353,228.8894)"><path
             d="m 0,0 c -0.029,0.684 -0.633,1.258 -1.292,1.184 -0.685,-0.03 -1.214,-0.609 -1.184,-1.293 0.058,-1.301 0.392,-2.544 0.996,-3.694 0.221,-0.423 0.652,-0.664 1.098,-0.664 0.194,0 0.391,0.044 0.575,0.142 0.607,0.316 0.84,1.066 0.523,1.672 C 0.283,-1.826 0.043,-0.934 0,0"
             style="fill:#4c4d4d;fill-opacity:1;fill-rule:nonzero;stroke:none"
             id="path666"
             inkscape:connector-curvature="0" /></g><g
           id="g668"
           transform="translate(335.2892,232.5652)"><path
             d="M 0,0 C 0.685,0 1.239,0.555 1.239,1.24 V 4.555 C 1.239,5.239 0.685,5.794 0,5.794 -0.684,5.794 -1.239,5.239 -1.239,4.555 V 1.24 C -1.239,0.555 -0.684,0 0,0"
             style="fill:#4c4d4d;fill-opacity:1;fill-rule:nonzero;stroke:none"
             id="path670"
             inkscape:connector-curvature="0" /></g><g
           id="g672"
           transform="translate(355.4299,270.1555)"><path
             d="M 0,0 C 0.162,0 0.325,0.031 0.484,0.099 L 2.463,0.94 C 2.764,1.068 3.072,1.172 3.387,1.251 4.049,1.42 4.451,2.094 4.282,2.758 4.113,3.421 3.442,3.823 2.775,3.654 2.339,3.543 1.91,3.4 1.492,3.221 L -0.486,2.38 C -1.115,2.112 -1.41,1.383 -1.141,0.755 -0.94,0.283 -0.482,0 0,0"
             style="fill:#4c4d4d;fill-opacity:1;fill-rule:nonzero;stroke:none"
             id="path674"
             inkscape:connector-curvature="0" /></g><g
           id="g676"
           transform="translate(363.4621,271.6018)"><path
             d="M 0,0 H 3.315 C 4,0 4.556,0.555 4.556,1.239 4.556,1.924 4,2.479 3.315,2.479 H 0 c -0.685,0 -1.239,-0.555 -1.239,-1.24 C -1.239,0.555 -0.685,0 0,0"
             style="fill:#4c4d4d;fill-opacity:1;fill-rule:nonzero;stroke:none"
             id="path678"
             inkscape:connector-curvature="0" /></g><g
           id="g680"
           transform="translate(371.7492,271.6018)"><path
             d="m 0,0 h 3.313 c 0.685,0 1.241,0.555 1.241,1.239 0,0.685 -0.556,1.24 -1.241,1.24 H 0 c -0.685,0 -1.239,-0.555 -1.239,-1.24 C -1.239,0.555 -0.685,0 0,0"
             style="fill:#4c4d4d;fill-opacity:1;fill-rule:nonzero;stroke:none"
             id="path682"
             inkscape:connector-curvature="0" /></g><g
           id="g684"
           transform="translate(347.8039,266.9128)"><path
             d="m 0,0 c 0.162,0 0.326,0.031 0.484,0.099 l 3.05,1.297 C 4.163,1.664 4.458,2.393 4.188,3.021 3.921,3.651 3.193,3.948 2.563,3.676 L -0.485,2.378 C -1.115,2.11 -1.409,1.382 -1.141,0.753 -0.94,0.283 -0.482,0 0,0"
             style="fill:#4c4d4d;fill-opacity:1;fill-rule:nonzero;stroke:none"
             id="path686"
             inkscape:connector-curvature="0" /></g><g
           id="g688"
           transform="translate(384.884,201.3381)"><path
             d="m 0,0 h -1.776 l -3.89,11.204 h 1.824 l 2.337,-7.139 c 0.208,-0.656 0.528,-1.648 0.624,-2.048 0.097,0.4 0.417,1.409 0.625,2.065 l 2.305,7.122 h 1.793 z"
             style="fill:#4c4d4d;fill-opacity:1;fill-rule:nonzero;stroke:none"
             id="path690"
             inkscape:connector-curvature="0" /></g><g
           id="g692"
           transform="translate(399.301,201.3381)"><path
             d="M 0,0 V 5.923 C 0,6.595 0.016,7.571 0.032,7.892 -0.096,7.571 -0.416,6.771 -0.688,6.131 l -2.721,-6.307 -2.69,6.307 C -6.37,6.771 -6.69,7.571 -6.818,7.892 -6.803,7.571 -6.787,6.595 -6.787,5.923 V 0 h -1.584 v 11.204 h 1.728 l 2.513,-5.97 c 0.273,-0.64 0.625,-1.457 0.769,-1.921 0.16,0.464 0.48,1.265 0.752,1.921 l 2.465,5.97 H 1.648 L 1.648,0 Z"
             style="fill:#4c4d4d;fill-opacity:1;fill-rule:nonzero;stroke:none"
             id="path694"
             inkscape:connector-curvature="0" /></g><g
           id="g696"
           transform="translate(326.4728,183.9685)"><path
             d="m 0,0 c -1.3,1.235 -2.535,2.977 -2.535,5.33 0,2.431 1.209,4.148 2.535,5.408 L 0.677,10.153 C -0.48,8.866 -1.118,7.372 -1.118,5.396 c 0,-2.133 0.689,-3.563 1.795,-4.811 z"
             style="fill:#4c4d4d;fill-opacity:1;fill-rule:nonzero;stroke:none"
             id="path698"
             inkscape:connector-curvature="0" /></g><g
           id="g700"
           transform="translate(335.5734,185.3987)"><path
             d="M 0,0 V 4.81 C 0,5.356 0.013,6.149 0.025,6.409 -0.078,6.149 -0.338,5.499 -0.56,4.979 l -2.21,-5.122 -2.183,5.122 c -0.222,0.52 -0.482,1.17 -0.585,1.43 0.013,-0.26 0.025,-1.053 0.025,-1.599 V 0 H -6.8 v 9.1 h 1.404 l 2.042,-4.849 c 0.22,-0.52 0.506,-1.183 0.624,-1.56 0.129,0.377 0.389,1.027 0.611,1.56 L -0.117,9.1 H 1.339 V 0 Z"
             style="fill:#4c4d4d;fill-opacity:1;fill-rule:nonzero;stroke:none"
             id="path702"
             inkscape:connector-curvature="0" /></g><path
           d="m 338.966,192.224 h 1.339 v -6.825 h -1.339 z m 0.676,0.884 c -0.481,0 -0.871,0.39 -0.871,0.858 0,0.481 0.39,0.871 0.871,0.871 0.469,0 0.858,-0.39 0.858,-0.871 0,-0.468 -0.389,-0.858 -0.858,-0.858"
           style="fill:#4c4d4d;fill-opacity:1;fill-rule:nonzero;stroke:none"
           id="path704"
           inkscape:connector-curvature="0" /><g
           id="g706"
           transform="translate(346.4543,190.261)"><path
             d="m 0,0 c -0.56,0.572 -1.054,0.832 -1.664,0.832 -0.976,0 -1.6,-0.871 -1.6,-2.262 0,-1.339 0.573,-2.301 1.639,-2.301 0.637,0 1.014,0.286 1.547,0.845 l 0.857,-0.845 c -0.532,-0.676 -1.209,-1.274 -2.443,-1.274 -1.664,0 -2.951,1.404 -2.951,3.536 0,2.262 1.326,3.575 2.99,3.575 1.001,0 1.78,-0.403 2.418,-1.157 z"
             style="fill:#4c4d4d;fill-opacity:1;fill-rule:nonzero;stroke:none"
             id="path708"
             inkscape:connector-curvature="0" /></g><g
           id="g710"
           transform="translate(352.4728,190.8069)"><path
             d="m 0,0 c -0.286,0.156 -0.585,0.247 -1.027,0.247 -0.845,0 -1.339,-0.598 -1.339,-1.755 v -3.9 h -1.339 v 6.825 h 1.339 v -0.65 c 0.312,0.455 0.884,0.793 1.56,0.793 0.546,0 0.884,-0.104 1.158,-0.286 z"
             style="fill:#4c4d4d;fill-opacity:1;fill-rule:nonzero;stroke:none"
             id="path712"
             inkscape:connector-curvature="0" /></g><g
           id="g714"
           transform="translate(356.3615,191.093)"><path
             d="m 0,0 c -1.015,0 -1.639,-0.897 -1.639,-2.249 0,-1.495 0.69,-2.314 1.703,-2.314 1.015,0 1.677,1.027 1.677,2.275 C 1.741,-0.897 1.079,0 0,0 m 0.013,-5.837 c -1.716,0 -3.003,1.417 -3.003,3.549 0,2.236 1.326,3.562 3.042,3.562 1.742,0 3.042,-1.391 3.042,-3.523 0,-2.262 -1.326,-3.588 -3.081,-3.588"
             style="fill:#4c4d4d;fill-opacity:1;fill-rule:nonzero;stroke:none"
             id="path716"
             inkscape:connector-curvature="0" /></g><g
           id="g718"
           transform="translate(363.0041,185.2556)"><path
             d="m 0,0 c -0.924,0 -1.925,0.364 -2.613,0.871 l 0.611,1.014 c 0.637,-0.442 1.352,-0.676 1.988,-0.676 0.846,0 1.248,0.273 1.248,0.754 0,0.52 -0.597,0.767 -1.586,1.144 -1.468,0.572 -2.002,1.066 -2.002,2.145 0,1.222 0.962,1.859 2.328,1.859 0.858,0 1.703,-0.312 2.314,-0.754 L 1.703,5.33 c -0.559,0.39 -1.118,0.585 -1.768,0.585 -0.651,0 -0.936,-0.26 -0.936,-0.624 0,-0.338 0.233,-0.585 1.261,-0.988 C 1.78,3.718 2.561,3.302 2.561,2.015 2.561,0.507 1.339,0 0,0"
             style="fill:#4c4d4d;fill-opacity:1;fill-rule:nonzero;stroke:none"
             id="path720"
             inkscape:connector-curvature="0" /></g><g
           id="g722"
           transform="translate(369.634,191.093)"><path
             d="m 0,0 c -1.015,0 -1.639,-0.897 -1.639,-2.249 0,-1.495 0.69,-2.314 1.703,-2.314 1.015,0 1.677,1.027 1.677,2.275 C 1.741,-0.897 1.079,0 0,0 m 0.013,-5.837 c -1.716,0 -3.003,1.417 -3.003,3.549 0,2.236 1.326,3.562 3.042,3.562 1.742,0 3.042,-1.391 3.042,-3.523 0,-2.262 -1.326,-3.588 -3.081,-3.588"
             style="fill:#4c4d4d;fill-opacity:1;fill-rule:nonzero;stroke:none"
             id="path724"
             inkscape:connector-curvature="0" /></g><g
           id="g726"
           transform="translate(376.4211,193.6667)"><path
             d="m 0,0 c -0.441,0 -0.624,-0.169 -0.624,-0.663 v -0.78 h 1.261 v -1.248 h -1.261 v -5.577 h -1.339 v 5.577 h -0.884 v 1.248 h 0.884 v 0.897 c 0,1.248 0.767,1.716 1.73,1.716 0.35,0 0.727,-0.052 1.013,-0.13 V -0.13 C 0.468,-0.039 0.234,0 0,0"
             style="fill:#4c4d4d;fill-opacity:1;fill-rule:nonzero;stroke:none"
             id="path728"
             inkscape:connector-curvature="0" /></g><g
           id="g730"
           transform="translate(381.7902,185.5676)"><path
             d="m 0,0 c -0.325,-0.182 -0.78,-0.312 -1.313,-0.312 -0.949,0 -1.534,0.585 -1.534,1.807 v 3.939 h -0.975 v 1.222 h 0.975 v 1.95 l 1.313,0.703 V 6.656 h 1.69 V 5.434 h -1.69 V 1.729 c 0,-0.637 0.208,-0.819 0.702,-0.819 0.351,0 0.741,0.13 0.988,0.273 z"
             style="fill:#4c4d4d;fill-opacity:1;fill-rule:nonzero;stroke:none"
             id="path732"
             inkscape:connector-curvature="0" /></g><g
           id="g734"
           transform="translate(394.634,185.3987)"><path
             d="M 0,0 H -1.378 L -2.795,5.876 C -2.873,6.188 -3.016,6.864 -3.055,7.085 -3.094,6.864 -3.237,6.188 -3.315,5.876 L -4.797,0 h -1.352 l -1.859,9.1 h 1.378 l 1.092,-5.746 c 0.052,-0.273 0.169,-0.897 0.208,-1.196 0.052,0.299 0.182,0.91 0.247,1.183 L -3.627,9.1 h 1.17 l 1.482,-5.889 c 0.065,-0.247 0.169,-0.728 0.221,-1.053 0.066,0.338 0.143,0.845 0.182,1.066 L 0.533,9.1 h 1.326 z"
             style="fill:#4c4d4d;fill-opacity:1;fill-rule:nonzero;stroke:none"
             id="path736"
             inkscape:connector-curvature="0" /></g><path
           d="m 397.884,192.224 h 1.339 v -6.825 h -1.339 z m 0.676,0.884 c -0.482,0 -0.871,0.39 -0.871,0.858 0,0.481 0.389,0.871 0.871,0.871 0.468,0 0.857,-0.39 0.857,-0.871 0,-0.468 -0.389,-0.858 -0.857,-0.858"
           style="fill:#4c4d4d;fill-opacity:1;fill-rule:nonzero;stroke:none"
           id="path738"
           inkscape:connector-curvature="0" /><g
           id="g740"
           transform="translate(405.2287,185.3987)"><path
             d="m 0,0 v 3.861 c 0,1.378 -0.52,1.872 -1.404,1.872 -0.897,0 -1.404,-0.637 -1.404,-1.742 V 0 h -1.338 v 6.825 h 1.338 v -0.65 c 0.338,0.494 1.014,0.793 1.716,0.793 1.586,0 2.431,-1.04 2.431,-3.055 L 1.339,0 Z"
             style="fill:#4c4d4d;fill-opacity:1;fill-rule:nonzero;stroke:none"
             id="path742"
             inkscape:connector-curvature="0" /></g><g
           id="g744"
           transform="translate(412.4308,190.2351)"><path
             d="m 0,0 c -0.3,0.403 -0.924,0.897 -1.6,0.897 -0.962,0 -1.481,-0.728 -1.481,-2.171 0,-1.716 0.546,-2.47 1.533,-2.47 0.638,0 1.196,0.429 1.548,0.87 z m -0.014,-4.836 v 0.649 c -0.494,-0.455 -1.065,-0.792 -1.781,-0.792 -1.469,0 -2.626,1.065 -2.626,3.666 0,2.34 1.275,3.445 2.692,3.445 0.689,0 1.338,-0.364 1.715,-0.78 v 2.6 l 1.326,0.689 v -9.477 z"
             style="fill:#4c4d4d;fill-opacity:1;fill-rule:nonzero;stroke:none"
             id="path746"
             inkscape:connector-curvature="0" /></g><g
           id="g748"
           transform="translate(418.2023,191.093)"><path
             d="m 0,0 c -1.014,0 -1.638,-0.897 -1.638,-2.249 0,-1.495 0.689,-2.314 1.703,-2.314 1.014,0 1.677,1.027 1.677,2.275 C 1.742,-0.897 1.079,0 0,0 m 0.013,-5.837 c -1.716,0 -3.003,1.417 -3.003,3.549 0,2.236 1.326,3.562 3.042,3.562 1.742,0 3.042,-1.391 3.042,-3.523 0,-2.262 -1.325,-3.588 -3.081,-3.588"
             style="fill:#4c4d4d;fill-opacity:1;fill-rule:nonzero;stroke:none"
             id="path750"
             inkscape:connector-curvature="0" /></g><g
           id="g752"
           transform="translate(428.758,185.3987)"><path
             d="M 0,0 H -1.145 L -2.067,3.445 C -2.21,3.965 -2.354,4.576 -2.418,4.901 -2.483,4.576 -2.626,3.952 -2.77,3.432 L -3.68,0 h -1.143 l -1.872,6.825 h 1.326 L -4.563,3.51 c 0.129,-0.52 0.273,-1.17 0.337,-1.495 0.079,0.338 0.235,0.962 0.377,1.495 l 0.911,3.315 h 1.079 l 0.922,-3.328 c 0.144,-0.533 0.287,-1.144 0.365,-1.482 0.078,0.338 0.208,0.975 0.338,1.495 l 0.805,3.315 h 1.326 z"
             style="fill:#4c4d4d;fill-opacity:1;fill-rule:nonzero;stroke:none"
             id="path754"
             inkscape:connector-curvature="0" /></g><g
           id="g756"
           transform="translate(433.9689,185.2556)"><path
             d="m 0,0 c -0.923,0 -1.924,0.364 -2.613,0.871 l 0.611,1.014 c 0.637,-0.442 1.353,-0.676 1.989,-0.676 0.845,0 1.248,0.273 1.248,0.754 0,0.52 -0.598,0.767 -1.586,1.144 -1.469,0.572 -2.002,1.066 -2.002,2.145 0,1.222 0.962,1.859 2.328,1.859 0.857,0 1.702,-0.312 2.313,-0.754 L 1.703,5.33 c -0.558,0.39 -1.118,0.585 -1.767,0.585 -0.651,0 -0.937,-0.26 -0.937,-0.624 0,-0.338 0.234,-0.585 1.261,-0.988 C 1.781,3.718 2.562,3.302 2.562,2.015 2.562,0.507 1.339,0 0,0"
             style="fill:#4c4d4d;fill-opacity:1;fill-rule:nonzero;stroke:none"
             id="path758"
             inkscape:connector-curvature="0" /></g><g
           id="g760"
           transform="translate(442.2629,185.3987)"><path
             d="M 0,0 V 6.968 H -1.612 V 7.917 C -0.676,7.982 0.091,8.294 0.26,9.1 H 1.365 V 0 Z"
             style="fill:#4c4d4d;fill-opacity:1;fill-rule:nonzero;stroke:none"
             id="path762"
             inkscape:connector-curvature="0" /></g><g
           id="g764"
           transform="translate(448.9582,193.3161)"><path
             d="m 0,0 c -1.586,0 -2.197,-1.443 -2.197,-3.354 0,-1.912 0.636,-3.38 2.223,-3.38 1.599,0 2.197,1.442 2.197,3.354 C 2.223,-1.469 1.599,0 0,0 m 0,-8.061 c -2.354,0 -3.575,1.925 -3.575,4.681 0,2.756 1.248,4.706 3.601,4.706 2.353,0 3.575,-1.924 3.575,-4.68 C 3.601,-6.11 2.353,-8.061 0,-8.061"
             style="fill:#4c4d4d;fill-opacity:1;fill-rule:nonzero;stroke:none"
             id="path766"
             inkscape:connector-curvature="0" /></g><g
           id="g768"
           transform="translate(454.3918,183.9817)"><path
             d="m 0,0 -0.676,0.585 c 1.157,1.287 1.794,2.782 1.794,4.758 0,2.132 -0.689,3.562 -1.794,4.81 L 0,10.738 C 1.3,9.503 2.535,7.761 2.535,5.408 2.535,2.977 1.326,1.261 0,0"
             style="fill:#4c4d4d;fill-opacity:1;fill-rule:nonzero;stroke:none"
             id="path770"
             inkscape:connector-curvature="0" /></g></g></g></g></svg>