<?xml version="1.0" encoding="utf-8"?>
<!-- Generator: Adobe Illustrator 15.0.0, SVG Export Plug-In . SVG Version: 6.00 Build 0)  -->
<!DOCTYPE svg PUBLIC "-//W3C//DTD SVG 1.1//EN" "http://www.w3.org/Graphics/SVG/1.1/DTD/svg11.dtd">
<svg version="1.1" id="Layer_1" xmlns="http://www.w3.org/2000/svg" xmlns:xlink="http://www.w3.org/1999/xlink" x="0px" y="0px"
	 width="612px" height="792px" viewBox="0 0 612 792" enable-background="new 0 0 612 792" xml:space="preserve">
<g>
	<linearGradient id="SVGID_1_" gradientUnits="userSpaceOnUse" x1="277.1514" y1="362.0098" x2="334.1915" y2="419.05">
		<stop  offset="0" style="stop-color:#E6E6E6"/>
		<stop  offset="0.5" style="stop-color:#F7F7F7"/>
		<stop  offset="1" style="stop-color:#C4C4C4"/>
	</linearGradient>
	<path fill="url(#SVGID_1_)" d="M313.495,383.778l5.354,1.935c-0.252,1.402-0.614,2.767-1.085,4.079l-5.595-1
		c-0.668,1.606-1.55,3.095-2.594,4.454l3.669,4.355c-0.91,1.074-1.909,2.074-2.985,2.984l-4.354-3.67
		c-1.359,1.043-2.849,1.928-4.455,2.593l0.999,5.595c-1.312,0.473-2.675,0.835-4.078,1.086l-1.936-5.354
		c-0.844,0.109-1.699,0.185-2.573,0.185s-1.73-0.077-2.576-0.185l-1.936,5.354c-1.402-0.251-2.766-0.613-4.077-1.086l0.998-5.595
		c-1.605-0.667-3.094-1.55-4.453-2.593l-4.355,3.67c-1.075-0.912-2.074-1.91-2.985-2.984l3.671-4.355
		c-1.044-1.359-1.926-2.848-2.593-4.454l-5.597,1c-0.471-1.312-0.833-2.677-1.085-4.079l5.355-1.935
		c-0.11-0.847-0.186-1.699-0.186-2.575c0-0.875,0.075-1.73,0.187-2.574l-5.356-1.937c0.252-1.403,0.614-2.768,1.086-4.079l5.596,1
		c0.667-1.606,1.549-3.095,2.593-4.455l-3.671-4.353c0.911-1.077,1.91-2.075,2.985-2.986l4.355,3.672
		c1.359-1.046,2.849-1.928,4.453-2.596l-0.998-5.595c1.312-0.471,2.675-0.835,4.077-1.086l1.936,5.355
		c0.846-0.108,1.702-0.186,2.576-0.186s1.729,0.077,2.573,0.186l1.936-5.355c1.403,0.251,2.766,0.613,4.078,1.086l-0.999,5.595
		c1.606,0.668,3.096,1.55,4.455,2.593l4.354-3.669c1.076,0.911,2.075,1.909,2.985,2.983l-3.669,4.355
		c1.044,1.36,1.926,2.849,2.593,4.455l5.595-1c0.472,1.312,0.834,2.676,1.086,4.079l-5.355,1.935
		c0.111,0.846,0.187,1.701,0.187,2.576C313.681,382.079,313.605,382.935,313.495,383.778z M293.862,376.557
		c-2.566,0-4.647,2.081-4.647,4.646c0,2.567,2.081,4.647,4.647,4.647c2.565,0,4.646-2.08,4.646-4.647
		C298.509,378.638,296.428,376.557,293.862,376.557z M340.234,382.073l5.565-0.736c0.052-1.404-0.013-2.812-0.194-4.215
		l-5.617-0.219c-0.267-0.854-0.637-1.689-1.143-2.479c-0.506-0.788-1.109-1.476-1.773-2.077l2.15-5.19
		c-1.196-0.749-2.449-1.398-3.751-1.942l-2.995,4.75c-1.765-0.398-3.631-0.321-5.404,0.255l-3.426-4.459
		c-1.242,0.662-2.431,1.423-3.553,2.277l2.62,4.972c-1.268,1.371-2.118,3.038-2.493,4.806l-5.567,0.735
		c-0.048,1.408,0.018,2.82,0.195,4.218l5.617,0.22c0.268,0.854,0.64,1.688,1.144,2.477c0.507,0.788,1.109,1.478,1.773,2.075
		l-2.148,5.193c1.192,0.75,2.446,1.396,3.75,1.94l2.992-4.747c1.765,0.397,3.632,0.32,5.407-0.256l3.424,4.459
		c1.245-0.661,2.434-1.422,3.554-2.278l-2.619-4.974C339.008,385.507,339.856,383.843,340.234,382.073z M330.72,384.566
		c-2.553,0.272-4.842-1.575-5.114-4.128c-0.271-2.551,1.576-4.841,4.129-5.113c2.552-0.272,4.841,1.576,5.112,4.127
		C335.119,382.005,333.271,384.294,330.72,384.566z M325.2,421.962c0.116-1.403,0.115-2.815,0-4.222l-5.611-0.478
		c-0.366-1.968-1.134-3.794-2.226-5.384l3.625-4.304c-0.909-1.075-1.909-2.072-2.985-2.985l-4.302,3.627
		c-1.589-1.092-3.415-1.858-5.383-2.225l-0.48-5.61c-1.403-0.116-2.815-0.115-4.222,0l-0.477,5.61
		c-1.969,0.366-3.793,1.133-5.384,2.225l-4.301-3.625c-1.075,0.911-2.073,1.91-2.985,2.984l3.626,4.303
		c-1.092,1.589-1.86,3.416-2.227,5.384l-5.609,0.479c-0.116,1.404-0.116,2.817,0,4.222l5.609,0.479
		c0.365,1.969,1.134,3.795,2.224,5.384l-3.624,4.302c0.911,1.074,1.909,2.074,2.984,2.985l4.302-3.625
		c1.59,1.093,3.415,1.859,5.385,2.226l0.479,5.61c1.403,0.115,2.816,0.115,4.222,0l0.479-5.61c1.969-0.366,3.795-1.133,5.384-2.226
		l4.303,3.625c1.076-0.911,2.073-1.909,2.986-2.985l-3.627-4.302c1.092-1.589,1.859-3.415,2.225-5.384L325.2,421.962z
		 M305.729,424.499c-2.566,0-4.646-2.08-4.646-4.646c0-2.565,2.08-4.647,4.646-4.647c2.565,0,4.647,2.082,4.647,4.647
		C310.377,422.419,308.295,424.499,305.729,424.499z"/>
	<path fill="none" stroke="#000000" stroke-width="2" stroke-linecap="round" stroke-linejoin="round" stroke-miterlimit="10" d="
		M313.681,381.203c0-0.875-0.075-1.73-0.187-2.576l5.355-1.935c-0.252-1.403-0.614-2.768-1.086-4.079l-5.595,1
		c-0.667-1.606-1.549-3.095-2.593-4.455l3.669-4.355c-0.91-1.074-1.909-2.072-2.985-2.983l-4.354,3.669
		c-1.359-1.043-2.849-1.925-4.455-2.593l0.999-5.595c-1.312-0.473-2.675-0.835-4.078-1.086l-1.936,5.355
		c-0.844-0.108-1.699-0.186-2.573-0.186s-1.73,0.077-2.576,0.186l-1.936-5.355c-1.402,0.251-2.766,0.615-4.077,1.086l0.998,5.595
		c-1.604,0.668-3.094,1.55-4.453,2.596l-4.355-3.672c-1.075,0.911-2.074,1.909-2.985,2.986l3.671,4.353
		c-1.044,1.36-1.926,2.849-2.593,4.455l-5.596-1c-0.472,1.312-0.834,2.676-1.086,4.079l5.356,1.937
		c-0.111,0.844-0.187,1.699-0.187,2.574c0,0.876,0.075,1.729,0.186,2.575l-5.355,1.935c0.252,1.402,0.614,2.767,1.085,4.079l5.597-1
		c0.667,1.606,1.549,3.095,2.593,4.454l-3.671,4.355c0.911,1.074,1.91,2.072,2.985,2.984l4.355-3.67
		c1.359,1.043,2.848,1.926,4.453,2.593l-0.998,5.595c1.312,0.473,2.675,0.835,4.077,1.086l1.936-5.354
		c0.846,0.107,1.702,0.185,2.576,0.185s1.729-0.075,2.573-0.185l1.936,5.354c1.403-0.251,2.766-0.613,4.078-1.086l-0.999-5.595
		c1.606-0.665,3.096-1.55,4.455-2.593l4.354,3.67c1.076-0.91,2.075-1.91,2.985-2.984l-3.669-4.355
		c1.044-1.359,1.926-2.848,2.594-4.454l5.595,1c0.471-1.312,0.833-2.677,1.085-4.079l-5.354-1.935
		C313.605,382.935,313.681,382.079,313.681,381.203z"/>
	
		<circle fill="none" stroke="#000000" stroke-width="2" stroke-linecap="round" stroke-linejoin="round" stroke-miterlimit="10" cx="293.862" cy="381.203" r="4.647"/>
	
		<circle fill="none" stroke="#000000" stroke-width="2" stroke-linecap="round" stroke-linejoin="round" stroke-miterlimit="10" cx="330.226" cy="379.945" r="4.647"/>
	<path fill="none" stroke="#000000" stroke-width="2" stroke-linecap="round" stroke-linejoin="round" stroke-miterlimit="10" d="
		M325.2,421.962c0.116-1.403,0.115-2.815,0-4.222l-5.611-0.478c-0.366-1.968-1.134-3.794-2.226-5.384l3.625-4.304
		c-0.909-1.075-1.909-2.072-2.985-2.985l-4.302,3.627c-1.589-1.092-3.415-1.858-5.383-2.225l-0.48-5.61
		c-1.403-0.116-2.815-0.115-4.222,0l-0.477,5.61c-1.969,0.366-3.793,1.133-5.384,2.225l-4.301-3.625
		c-1.075,0.911-2.073,1.91-2.985,2.984l3.626,4.303c-1.092,1.589-1.86,3.416-2.227,5.384l-5.609,0.479
		c-0.116,1.404-0.116,2.817,0,4.222l5.609,0.479c0.365,1.969,1.134,3.795,2.224,5.384l-3.624,4.302
		c0.911,1.074,1.909,2.074,2.984,2.985l4.302-3.625c1.59,1.093,3.415,1.859,5.385,2.226l0.479,5.61c1.403,0.115,2.816,0.115,4.222,0
		l0.479-5.61c1.969-0.366,3.795-1.133,5.384-2.226l4.303,3.625c1.076-0.911,2.073-1.909,2.986-2.985l-3.627-4.302
		c1.092-1.589,1.859-3.415,2.225-5.384L325.2,421.962z"/>
	<path fill="none" stroke="#000000" stroke-width="2" stroke-linecap="round" stroke-linejoin="round" stroke-miterlimit="10" d="
		M338.846,374.425c-0.506-0.788-1.109-1.476-1.773-2.077l2.15-5.19c-1.196-0.749-2.449-1.398-3.751-1.942l-2.995,4.75
		c-1.765-0.398-3.631-0.321-5.404,0.255l-3.426-4.459c-1.242,0.662-2.431,1.423-3.553,2.277l2.62,4.972
		c-1.268,1.371-2.118,3.038-2.493,4.806l-5.567,0.735c-0.048,1.408,0.018,2.82,0.195,4.218l5.617,0.22
		c0.268,0.854,0.64,1.688,1.144,2.477c0.507,0.788,1.109,1.478,1.773,2.075l-2.148,5.193c1.192,0.75,2.446,1.396,3.75,1.94
		l2.992-4.747c1.765,0.397,3.632,0.32,5.407-0.256l3.424,4.459c1.245-0.661,2.434-1.422,3.554-2.278l-2.619-4.974
		c1.266-1.371,2.114-3.035,2.492-4.805l5.565-0.736c0.052-1.404-0.013-2.812-0.194-4.215l-5.617-0.219
		C339.722,376.05,339.352,375.214,338.846,374.425z"/>
	
		<circle fill="none" stroke="#000000" stroke-width="2" stroke-linecap="round" stroke-linejoin="round" stroke-miterlimit="10" cx="305.73" cy="419.853" r="4.647"/>
	<path fill="none" stroke="#000000" stroke-linecap="round" stroke-linejoin="round" stroke-miterlimit="10" d="M290.452,372.749
		c1.054-0.426,2.205-0.66,3.411-0.66c5.033,0,9.113,4.081,9.113,9.113c0,5.034-4.08,9.114-9.113,9.114s-9.114-4.08-9.114-9.114
		c0-1.842,0.547-3.557,1.487-4.99"/>
	<path fill="none" stroke="#000000" stroke-linecap="round" stroke-linejoin="round" stroke-miterlimit="10" d="M312.488,425.968
		c-1.668,1.841-4.078,2.997-6.757,2.997c-5.033,0-9.114-4.08-9.114-9.114c0-5.032,4.081-9.113,9.114-9.113s9.113,4.081,9.113,9.113
		c0,0.627-0.063,1.239-0.184,1.83"/>
</g>
</svg>
