<?xml version="1.0" encoding="utf-8"?>
<!-- Generator: Adobe Illustrator 21.1.0, SVG Export Plug-In . SVG Version: 6.00 Build 0)  -->
<svg version="1.1" id="Layer_1" xmlns="http://www.w3.org/2000/svg" xmlns:xlink="http://www.w3.org/1999/xlink" x="0px" y="0px"
	 width="4439px" height="1821.7px" viewBox="0 0 4439 1821.7" style="enable-background:new 0 0 4439 1821.7;" xml:space="preserve"
	>
<style type="text/css">
	.st0{fill:#4D4C4D;}
	.st1{fill:none;stroke:#4C4C4C;stroke-width:7;stroke-miterlimit:10;}
	.st2{fill:none;stroke:#4D4C4D;stroke-width:7;stroke-miterlimit:10;}
	.st3{fill:#4C4C4C;}
</style>
<g>
	<g>
		<path class="st0" d="M336.5,98.9c-0.9-1.4-2.4-2.1-4.2-2.1H285V56.9c0-1.2-0.6-2.6-1.5-3.5s-2.1-1.5-3.5-1.5H154
			c-1.4-6.5-2.7-12.9-4.1-19.4c-0.5-2.3-2.4-3.9-4.8-3.9h-58c-2.3,0-4.4,1.7-4.8,3.9c-1.4,6.5-2.7,12.9-4.1,19.4h-21
			c-1.4,0-2.6,0.6-3.5,1.5s-1.5,2.1-1.5,3.5v153.6l0.2,0.2c0,0.6,0.2,1.2,0.3,1.7c0.2,0.2,0.2,0.2,0.2,0.5c0.2,0.2,0.2,0.4,0.5,0.4
			c0.2,0.5,0.3,0.5,0.5,0.8c0.2,0.2,0.2,0.2,0.2,0.2v0.2c0.5,0.3,0.9,0.6,1.4,0.9c0.2,0,0.3,0.2,0.5,0.2c0.6,0.2,1.2,0.5,1.7,0.5
			h222.8c0.6,0,1.2-0.2,1.7-0.5c0.1,0,0.4-0.2,0.4-0.2c0.5-0.3,0.8-0.6,1.2-0.9c0,0,0.2,0,0.2-0.2c0.2,0,0.2,0,0.2,0
			c0.5-0.5,0.6-0.9,0.9-1.4c17.4-36.3,34.8-72.5,52.2-108.8C337.6,102.4,337.4,100.6,336.5,98.9L336.5,98.9z M74.2,85.1
			c-1.4,0-2.4,1.2-2.4,2.4c0,1.4,1.1,2.4,2.4,2.4h201.2v6.5H74.2c-1.4,0-2.4,1.1-2.4,2.4c0,1.4,1.1,2.4,2.4,2.4h30.2
			c-0.9,2.1-2,4.2-3,6.5h-27c-1.4,0-2.4,1.2-2.4,2.4c0,1.4,1.1,2.4,2.4,2.4H99l-3.2,6.5H74.2c-1.4,0-2.4,1.1-2.4,2.4
			c0,1.2,1.1,2.4,2.4,2.4h19.4c-1.1,2.1-2.1,4.2-3.2,6.3H74.2c-1.4,0-2.4,1.2-2.4,2.4c0,1.4,1.1,2.4,2.4,2.4H88
			c-0.9,2.1-2,4.2-3,6.5H74.2c-1.4,0-2.4,1.1-2.4,2.4c0,1.5,1.1,2.4,2.4,2.4h8.6l-3.2,6.5h-5.4c-1.4,0-2.4,1.1-2.4,2.4
			c0,1.4,1.1,2.4,2.4,2.4h3c-0.9,2.1-2,4.2-3,6.3l0,0c-1.4,0-2.4,1.2-2.4,2.4c0,0.6,0.2,1.2,0.6,1.5c-3.3,7.1-6.6,14-9.9,20.9V61.3
			l0,0h20c2.4,0,4.4-1.7,4.8-3.9c1.4-6.5,2.7-12.9,4.1-19.5h50.1c1.4,6.5,2.7,12.9,4.1,19.5c0.5,2.1,2.4,3.9,4.8,3.9h125.3v23.9
			 M277.1,205.6h-212c15.9-33,31.7-66,47.6-99h212C308.8,139.6,292.9,172.6,277.1,205.6L277.1,205.6z M231.8,198.5h38.3
			c0.9,0,1.8-0.6,2.3-1.4l12.2-25.2c0.6-1.4,0-2.7-1.2-3.3s-2.7-0.2-3.3,1.2c-3.8,8-7.7,15.9-11.4,23.9h-36.8
			c-1.4,0-2.4,1.2-2.4,2.4C229.3,197.5,230.3,198.5,231.8,198.5L231.8,198.5z"/>
	</g>
</g>
<g>
	<g>
		<path class="st0" d="M614.1,328.4c-0.9-1.4-2.4-2.1-4.2-2.1h-47.3v-39.9c0-1.2-0.6-2.6-1.5-3.5s-2.1-1.5-3.5-1.5H431.5
			c-1.4-6.5-2.7-12.9-4.1-19.4c-0.5-2.3-2.4-3.9-4.8-3.9h-58.1c-2.3,0-4.4,1.7-4.8,3.9c-1.4,6.5-2.7,12.9-4.1,19.4h-21
			c-1.4,0-2.6,0.6-3.5,1.5s-1.5,2.1-1.5,3.5V440l0.2,0.2c0,0.6,0.1,1.2,0.3,1.7c0.2,0.2,0.2,0.2,0.2,0.5c0.1,0.2,0.1,0.5,0.5,0.5
			c0.1,0.5,0.3,0.5,0.5,0.8c0.2,0.2,0.2,0.2,0.2,0.2v0.2c0.5,0.3,0.9,0.6,1.4,0.9c0.2,0,0.3,0.2,0.5,0.2c0.6,0.2,1.2,0.5,1.7,0.5
			h222.8c0.6,0,1.2-0.2,1.7-0.5c0.2,0,0.5-0.2,0.5-0.2c0.5-0.3,0.8-0.6,1.2-0.9c0,0,0.2,0,0.2-0.2c0.1,0,0.1,0,0.1,0
			c0.5-0.5,0.6-0.9,0.9-1.4c17.4-36.3,34.8-72.5,52.2-108.8C615.1,331.8,615,330,614.1,328.4L614.1,328.4z M351.7,314.6
			c-1.4,0-2.4,1.2-2.4,2.4c0,1.4,1.1,2.4,2.4,2.4h201.2v6.5H351.7c-1.4,0-2.4,1.1-2.4,2.4s1.1,2.4,2.4,2.4h30.2
			c-0.9,2.1-2,4.2-3,6.5h-27c-1.4,0-2.4,1.2-2.4,2.4c0,1.4,1.1,2.4,2.4,2.4h24.6l-3.2,6.5h-21.6c-1.4,0-2.4,1.1-2.4,2.4
			c0,1.2,1.1,2.4,2.4,2.4h19.4c-1.1,2.1-2.1,4.2-3.2,6.3h-16.2c-1.4,0-2.4,1.2-2.4,2.4c0,1.4,1.1,2.4,2.4,2.4h13.8
			c-0.9,2.1-2,4.2-3,6.5h-10.8c-1.4,0-2.4,1.1-2.4,2.4c0,1.5,1.1,2.4,2.4,2.4h8.6l-3.2,6.5h-5.4c-1.4,0-2.4,1.1-2.4,2.4
			s1.1,2.4,2.4,2.4h3c-0.9,2.1-2,4.2-3,6.3l0,0c-1.4,0-2.4,1.2-2.4,2.4c0,0.6,0.1,1.2,0.6,1.5c-3.3,7.1-6.6,14-9.9,20.9V290.7l0,0
			h20c2.4,0,4.4-1.7,4.8-3.9c1.4-6.5,2.7-12.9,4.1-19.5H419c1.4,6.5,2.7,12.9,4.1,19.5c0.5,2.1,2.4,3.9,4.8,3.9H553v23.9
			 M554.7,435.1h-212c15.9-33,31.7-66,47.6-99h212C586.3,369,570.4,402,554.7,435.1L554.7,435.1z M509.4,428h38.3
			c0.9,0,1.8-0.6,2.3-1.4l12.2-25.2c0.6-1.4,0-2.7-1.2-3.3c-1.2-0.6-2.7-0.2-3.3,1.2c-3.8,8-7.7,15.9-11.4,23.9h-36.8
			c-1.4,0-2.4,1.2-2.4,2.4C506.8,427,507.9,428,509.4,428L509.4,428z"/>
	</g>
</g>
<g>
	<g>
		<path class="st0" d="M929.7,919.2c-0.9-1.4-2.4-2.1-4.2-2.1h-47.3v-39.9c0-1.2-0.6-2.6-1.5-3.5s-2.1-1.5-3.5-1.5h-126
			c-1.4-6.5-2.7-12.9-4.1-19.4c-0.5-2.3-2.4-3.9-4.8-3.9h-58.1c-2.3,0-4.4,1.7-4.8,3.9c-1.4,6.5-2.7,12.9-4.1,19.4h-21
			c-1.4,0-2.6,0.6-3.5,1.5s-1.5,2.1-1.5,3.5v153.6l0.1,0.2c0,0.6,0.2,1.2,0.3,1.7c0.1,0.2,0.1,0.2,0.1,0.5c0.2,0.1,0.2,0.4,0.5,0.4
			c0.2,0.4,0.3,0.4,0.5,0.8c0.2,0.2,0.2,0.2,0.2,0.2v0.2c0.5,0.3,0.9,0.6,1.4,0.9c0.1,0,0.3,0.2,0.5,0.2c0.6,0.2,1.2,0.4,1.7,0.4
			h222.8c0.6,0,1.2-0.2,1.7-0.4c0.2,0,0.5-0.2,0.5-0.2c0.5-0.3,0.8-0.6,1.2-0.9c0,0,0.2,0,0.2-0.2c0.2,0,0.2,0,0.2,0
			c0.5-0.4,0.6-0.9,0.9-1.3c17.4-36.3,34.8-72.5,52.2-108.8C930.8,922.6,930.6,920.8,929.7,919.2L929.7,919.2z M667.4,905.4
			c-1.4,0-2.4,1.2-2.4,2.4c0,1.4,1.1,2.4,2.4,2.4h201.2v6.5H667.4c-1.4,0-2.4,1.1-2.4,2.4s1.1,2.4,2.4,2.4h30.2
			c-0.9,2.1-2,4.2-3,6.5h-27c-1.4,0-2.4,1.2-2.4,2.4c0,1.4,1.1,2.4,2.4,2.4h24.6l-3.2,6.5h-21.6c-1.4,0-2.4,1.1-2.4,2.4
			c0,1.2,1.1,2.4,2.4,2.4h19.4c-1.1,2.1-2.1,4.2-3.2,6.3h-16.2c-1.4,0-2.4,1.2-2.4,2.4c0,1.4,1.1,2.4,2.4,2.4h13.8
			c-0.9,2.1-2,4.2-3,6.5h-10.8c-1.4,0-2.4,1.1-2.4,2.4c0,1.5,1.1,2.4,2.4,2.4h8.6l-3.2,6.5h-5.4c-1.4,0-2.4,1.1-2.4,2.4
			s1.1,2.4,2.4,2.4h3c-0.9,2.1-2,4.2-3,6.3l0,0c-1.4,0-2.4,1.2-2.4,2.4c0,0.6,0.2,1.2,0.6,1.5c-3.3,7.1-6.6,14-9.9,20.9V881.5l0,0
			h20c2.4,0,4.4-1.7,4.8-3.9c1.4-6.5,2.7-12.9,4.1-19.5h50.1c1.4,6.5,2.7,12.9,4.1,19.5c0.5,2.1,2.4,3.9,4.8,3.9h125.3v23.9
			 M870.3,1025.8h-212c15.9-33,31.7-66,47.6-99h212C902,959.8,886.1,992.8,870.3,1025.8L870.3,1025.8z M825,1018.8h38.3
			c0.9,0,1.8-0.6,2.3-1.4l12.2-25.2c0.6-1.4,0-2.7-1.2-3.3s-2.7-0.2-3.3,1.2c-3.8,8-7.7,15.9-11.4,23.9H825c-1.4,0-2.4,1.2-2.4,2.4
			C822.5,1017.7,823.5,1018.8,825,1018.8L825,1018.8z"/>
	</g>
</g>
<g>
	<g>
		<path class="st0" d="M929.7,1235.1c-0.9-1.3-2.4-2.1-4.2-2.1h-47.3v-39.9c0-1.2-0.6-2.6-1.5-3.5s-2.1-1.5-3.5-1.5h-126
			c-1.4-6.5-2.7-12.9-4.1-19.4c-0.5-2.3-2.4-3.9-4.8-3.9h-58.1c-2.3,0-4.4,1.7-4.8,3.9c-1.4,6.5-2.7,12.9-4.1,19.4h-21
			c-1.4,0-2.6,0.6-3.5,1.5s-1.5,2.1-1.5,3.5v153.6l0.1,0.2c0,0.6,0.2,1.2,0.3,1.7c0.1,0.1,0.1,0.1,0.1,0.4c0.2,0.2,0.2,0.4,0.5,0.4
			c0.2,0.5,0.3,0.5,0.5,0.8c0.2,0.2,0.2,0.2,0.2,0.2v0.2c0.5,0.3,0.9,0.6,1.4,0.9c0.1,0,0.3,0.2,0.5,0.2c0.6,0.2,1.2,0.5,1.7,0.5
			h222.8c0.6,0,1.2-0.2,1.7-0.5c0.2,0,0.5-0.2,0.5-0.2c0.5-0.3,0.8-0.6,1.2-0.9c0,0,0.2,0,0.2-0.2c0.2,0,0.2,0,0.2,0
			c0.5-0.5,0.6-0.9,0.9-1.4c17.4-36.3,34.8-72.5,52.2-108.8C930.8,1238.6,930.6,1236.8,929.7,1235.1L929.7,1235.1z M667.4,1221.3
			c-1.4,0-2.4,1.2-2.4,2.4c0,1.3,1.1,2.4,2.4,2.4h201.2v6.5H667.4c-1.4,0-2.4,1.1-2.4,2.4s1.1,2.4,2.4,2.4h30.2
			c-0.9,2.1-2,4.2-3,6.5h-27c-1.4,0-2.4,1.2-2.4,2.4c0,1.4,1.1,2.4,2.4,2.4h24.6l-3.2,6.5h-21.6c-1.4,0-2.4,1.1-2.4,2.4
			c0,1.2,1.1,2.4,2.4,2.4h19.4c-1.1,2.1-2.1,4.2-3.2,6.3h-16.2c-1.4,0-2.4,1.2-2.4,2.4c0,1.4,1.1,2.4,2.4,2.4h13.8
			c-0.9,2.1-2,4.2-3,6.5h-10.8c-1.4,0-2.4,1.1-2.4,2.4c0,1.5,1.1,2.4,2.4,2.4h8.6l-3.2,6.5h-5.4c-1.4,0-2.4,1.1-2.4,2.4
			s1.1,2.4,2.4,2.4h3c-0.9,2.1-2,4.2-3,6.3l0,0c-1.4,0-2.4,1.2-2.4,2.4c0,0.6,0.2,1.2,0.6,1.5c-3.3,7.1-6.6,14-9.9,20.9v-127.1l0,0
			h20c2.4,0,4.4-1.7,4.8-3.9c1.4-6.5,2.7-12.9,4.1-19.5h50.1c1.4,6.5,2.7,12.9,4.1,19.5c0.5,2.1,2.4,3.9,4.8,3.9h125.3v23.9
			 M870.3,1341.8h-212c15.9-33,31.7-66,47.6-99h212C902,1275.8,886.1,1308.8,870.3,1341.8L870.3,1341.8z M825,1334.7h38.3
			c0.9,0,1.8-0.6,2.3-1.4l12.2-25.2c0.6-1.4,0-2.7-1.2-3.3c-1.2-0.6-2.7-0.2-3.3,1.2c-3.8,8-7.7,15.9-11.4,23.9H825
			c-1.4,0-2.4,1.2-2.4,2.4C822.5,1333.7,823.5,1334.7,825,1334.7L825,1334.7z"/>
	</g>
</g>
<g>
	<g>
		<path class="st0" d="M614.1,1444.5c-0.9-1.4-2.4-2.1-4.2-2.1h-47.3v-39.9c0-1.2-0.6-2.6-1.5-3.5s-2.1-1.5-3.5-1.5H431.5
			c-1.4-6.5-2.7-12.9-4.1-19.4c-0.5-2.3-2.4-3.9-4.8-3.9h-58.1c-2.3,0-4.4,1.7-4.8,3.9c-1.4,6.5-2.7,12.9-4.1,19.4h-21
			c-1.4,0-2.6,0.6-3.5,1.5s-1.5,2.1-1.5,3.5v153.6l0.2,0.2c0,0.6,0.1,1.2,0.3,1.7c0.2,0.2,0.2,0.2,0.2,0.4c0.1,0.2,0.1,0.5,0.5,0.5
			c0.1,0.4,0.3,0.4,0.5,0.8c0.2,0.2,0.2,0.2,0.2,0.2v0.2c0.5,0.3,0.9,0.6,1.4,0.9c0.2,0,0.3,0.2,0.5,0.2c0.6,0.2,1.2,0.5,1.7,0.5
			h222.8c0.6,0,1.2-0.2,1.7-0.5c0.2,0,0.5-0.2,0.5-0.2c0.5-0.3,0.8-0.6,1.2-0.9c0,0,0.2,0,0.2-0.2c0.1,0,0.1,0,0.1,0
			c0.5-0.4,0.6-0.9,0.9-1.4c17.4-36.3,34.8-72.5,52.2-108.8C615.1,1447.9,615,1446.1,614.1,1444.5L614.1,1444.5z M351.7,1430.7
			c-1.4,0-2.4,1.2-2.4,2.4c0,1.4,1.1,2.4,2.4,2.4h201.2v6.5H351.7c-1.4,0-2.4,1.1-2.4,2.4s1.1,2.4,2.4,2.4h30.2
			c-0.9,2.1-2,4.2-3,6.5h-27c-1.4,0-2.4,1.2-2.4,2.4c0,1.4,1.1,2.4,2.4,2.4h24.6l-3.2,6.5h-21.6c-1.4,0-2.4,1.1-2.4,2.4
			c0,1.2,1.1,2.4,2.4,2.4h19.4c-1.1,2.1-2.1,4.2-3.2,6.3h-16.2c-1.4,0-2.4,1.2-2.4,2.4c0,1.4,1.1,2.4,2.4,2.4h13.8
			c-0.9,2.1-2,4.2-3,6.5h-10.8c-1.4,0-2.4,1.1-2.4,2.4c0,1.5,1.1,2.4,2.4,2.4h8.6l-3.2,6.5h-5.4c-1.4,0-2.4,1.1-2.4,2.4
			s1.1,2.4,2.4,2.4h3c-0.9,2.1-2,4.2-3,6.3l0,0c-1.4,0-2.4,1.2-2.4,2.4c0,0.6,0.1,1.2,0.6,1.5c-3.3,7.1-6.6,14-9.9,20.9v-127.1l0,0
			h20c2.4,0,4.4-1.7,4.8-3.9c1.4-6.5,2.7-12.9,4.1-19.5H419c1.4,6.5,2.7,12.9,4.1,19.5c0.5,2.1,2.4,3.9,4.8,3.9H553v23.9
			 M554.7,1551.2h-212c15.9-33,31.7-66,47.6-99h212C586.3,1485.1,570.4,1518.1,554.7,1551.2L554.7,1551.2z M509.4,1544.1h38.3
			c0.9,0,1.8-0.6,2.3-1.4l12.2-25.2c0.6-1.4,0-2.7-1.2-3.3c-1.2-0.6-2.7-0.2-3.3,1.2c-3.8,8-7.7,15.9-11.4,23.9h-36.8
			c-1.4,0-2.4,1.2-2.4,2.4C506.8,1543.1,507.9,1544.1,509.4,1544.1L509.4,1544.1z"/>
	</g>
</g>
<g>
	<g>
		<path class="st0" d="M929.7,1593.8c-0.9-1.3-2.4-2.1-4.2-2.1h-47.3v-39.9c0-1.2-0.6-2.6-1.5-3.5s-2.1-1.5-3.5-1.5h-126
			c-1.4-6.5-2.7-12.9-4.1-19.4c-0.5-2.3-2.4-3.9-4.8-3.9h-58.1c-2.3,0-4.4,1.7-4.8,3.9c-1.4,6.5-2.7,12.9-4.1,19.4h-21
			c-1.4,0-2.6,0.6-3.5,1.5s-1.5,2.1-1.5,3.5v153.6l0.1,0.2c0,0.6,0.2,1.2,0.3,1.7c0.1,0.1,0.1,0.1,0.1,0.4c0.2,0.2,0.2,0.4,0.5,0.4
			c0.2,0.5,0.3,0.5,0.5,0.8c0.2,0.2,0.2,0.2,0.2,0.2v0.2c0.5,0.3,0.9,0.6,1.4,0.9c0.1,0,0.3,0.2,0.5,0.2c0.6,0.2,1.2,0.5,1.7,0.5
			h222.8c0.6,0,1.2-0.2,1.7-0.5c0.2,0,0.5-0.2,0.5-0.2c0.5-0.3,0.8-0.6,1.2-0.9c0,0,0.2,0,0.2-0.2c0.2,0,0.2,0,0.2,0
			c0.5-0.5,0.6-0.9,0.9-1.4c17.4-36.3,34.8-72.5,52.2-108.8C930.8,1597.2,930.6,1595.4,929.7,1593.8L929.7,1593.8z M667.4,1580
			c-1.4,0-2.4,1.2-2.4,2.4c0,1.3,1.1,2.4,2.4,2.4h201.2v6.5H667.4c-1.4,0-2.4,1.1-2.4,2.4s1.1,2.4,2.4,2.4h30.2
			c-0.9,2.1-2,4.2-3,6.5h-27c-1.4,0-2.4,1.2-2.4,2.4c0,1.4,1.1,2.4,2.4,2.4h24.6l-3.2,6.5h-21.6c-1.4,0-2.4,1.1-2.4,2.4
			c0,1.2,1.1,2.4,2.4,2.4h19.4c-1.1,2.1-2.1,4.2-3.2,6.3h-16.2c-1.4,0-2.4,1.2-2.4,2.4c0,1.4,1.1,2.4,2.4,2.4h13.8
			c-0.9,2.1-2,4.2-3,6.5h-10.8c-1.4,0-2.4,1.1-2.4,2.4c0,1.5,1.1,2.4,2.4,2.4h8.6l-3.2,6.5h-5.4c-1.4,0-2.4,1.1-2.4,2.4
			s1.1,2.4,2.4,2.4h3c-0.9,2.1-2,4.2-3,6.3l0,0c-1.4,0-2.4,1.2-2.4,2.4c0,0.6,0.2,1.2,0.6,1.5c-3.3,7.1-6.6,14-9.9,20.9v-127.1l0,0
			h20c2.4,0,4.4-1.7,4.8-3.9c1.4-6.5,2.7-12.9,4.1-19.5h50.1c1.4,6.5,2.7,12.9,4.1,19.5c0.5,2.1,2.4,3.9,4.8,3.9h125.3v23.9
			 M870.3,1700.4h-212c15.9-33,31.7-66,47.6-99h212C902,1634.4,886.1,1667.4,870.3,1700.4L870.3,1700.4z M825,1693.4h38.3
			c0.9,0,1.8-0.6,2.3-1.4l12.2-25.2c0.6-1.4,0-2.7-1.2-3.3c-1.2-0.6-2.7-0.2-3.3,1.2c-3.8,8-7.7,15.9-11.4,23.9H825
			c-1.4,0-2.4,1.2-2.4,2.4C822.5,1692.3,823.5,1693.4,825,1693.4L825,1693.4z"/>
	</g>
</g>
<g>
	<path class="st0" d="M165.8,289.5h-7.3l22.2-62.5h7.3L165.8,289.5z"/>
</g>
<g>
	<path class="st0" d="M2698,289.5h-7.3l22.2-62.5h7.3L2698,289.5z"/>
</g>
<polyline class="st1" points="187.4,289.5 187.4,375.5 337.3,375.5 "/>
<polyline class="st1" points="187.4,289.5 187.4,1486.6 337.3,1486.6 "/>
<polyline class="st1" points="461.4,524.3 461.4,633.5 654.1,633.5 "/>
<polyline class="st2" points="456.2,1630.4 456.2,1658.9 656,1658.9 "/>
<polyline class="st1" points="461.4,524.3 461.4,972.5 656.3,972.5 "/>
<polyline class="st1" points="461.4,524.3 461.4,1288.5 656.3,1288.5 "/>
<line class="st1" x1="903.7" y1="1668" x2="1243.8" y2="1668"/>
<line class="st1" x1="902.4" y1="636.5" x2="1046.9" y2="636.5"/>
<g>
	<g>
		<g>
			<path class="st3" d="M1372.5,1491.2c-0.6-0.6-1.4-1-2.3-1h-119.9c-1.8,0-3.3,1.4-3.3,3.3V1711c0,1.8,1.4,3.3,3.3,3.3H1409
				c1.8,0,3.3-1.4,3.3-3.3v-177.7c0-0.9-0.4-1.7-0.9-2.3L1372.5,1491.2z M1373.4,1501.5l29.5,30.4h-29.5V1501.5z M1253.5,1496.7
				h113.4v37c0,0.3,0.1,0.5,0.1,0.8s-0.1,0.5-0.1,0.8c0,1.8,1.4,3.3,3.3,3.3h35.5v169.3h-152.1L1253.5,1496.7L1253.5,1496.7z"/>
		</g>
	</g>
	<g>
		<path class="st3" d="M1380,1567.9h-102.8c-1.4,0-2.4-1.1-2.4-2.4c0-1.4,1.1-2.4,2.4-2.4H1380c1.4,0,2.4,1.1,2.4,2.4
			S1381.4,1567.9,1380,1567.9z"/>
	</g>
	<g>
		<path class="st3" d="M1359.1,1593.2h-81.8c-1.4,0-2.4-1.1-2.4-2.4c0-1.4,1.1-2.4,2.4-2.4h81.8c1.4,0,2.4,1.1,2.4,2.4
			C1361.5,1592.2,1360.4,1593.2,1359.1,1593.2z"/>
	</g>
	<g>
		<path class="st3" d="M1380,1618.5h-102.8c-1.4,0-2.4-1.1-2.4-2.4c0-1.4,1.1-2.4,2.4-2.4H1380c1.4,0,2.4,1.1,2.4,2.4
			S1381.4,1618.5,1380,1618.5z"/>
	</g>
	<g>
		<path class="st3" d="M1359.1,1643.8h-81.8c-1.4,0-2.4-1.1-2.4-2.4c0-1.4,1.1-2.4,2.4-2.4h81.8c1.4,0,2.4,1.1,2.4,2.4
			S1360.4,1643.8,1359.1,1643.8z"/>
	</g>
	<g>
		<path class="st3" d="M1380,1669.2h-102.8c-1.4,0-2.4-1.1-2.4-2.4c0-1.4,1.1-2.4,2.4-2.4H1380c1.4,0,2.4,1.1,2.4,2.4
			C1382.4,1668,1381.4,1669.2,1380,1669.2z"/>
	</g>
</g>
<g>
	<g>
		<g>
			<path class="st3" d="M2457,1177.4c-0.6-0.6-1.4-1-2.3-1h-119.9c-1.8,0-3.3,1.4-3.3,3.3v217.5c0,1.8,1.4,3.3,3.3,3.3h158.7
				c1.8,0,3.3-1.4,3.3-3.3v-177.7c0-0.9-0.4-1.7-0.9-2.3L2457,1177.4z M2457.9,1187.7l29.5,30.4h-29.5V1187.7z M2338,1182.9h113.4
				v37c0,0.3,0.1,0.5,0.1,0.8s-0.1,0.5-0.1,0.8c0,1.8,1.4,3.3,3.3,3.3h35.5v169.3h-152.1L2338,1182.9L2338,1182.9z"/>
		</g>
	</g>
	<g>
		<path class="st3" d="M2464.5,1254.1h-102.8c-1.4,0-2.4-1.1-2.4-2.4c0-1.4,1.1-2.4,2.4-2.4h102.8c1.4,0,2.4,1.1,2.4,2.4
			C2467,1253,2465.9,1254.1,2464.5,1254.1z"/>
	</g>
	<g>
		<path class="st3" d="M2443.7,1279.4h-81.8c-1.4,0-2.4-1.1-2.4-2.4c0-1.4,1.1-2.4,2.4-2.4h81.8c1.4,0,2.4,1.1,2.4,2.4
			C2446.1,1278.4,2444.9,1279.4,2443.7,1279.4z"/>
	</g>
	<g>
		<path class="st3" d="M2464.5,1304.7h-102.8c-1.4,0-2.4-1.1-2.4-2.4c0-1.4,1.1-2.4,2.4-2.4h102.8c1.4,0,2.4,1.1,2.4,2.4
			C2467,1303.6,2465.9,1304.7,2464.5,1304.7z"/>
	</g>
	<g>
		<path class="st3" d="M2443.7,1330h-81.8c-1.4,0-2.4-1.1-2.4-2.4c0-1.4,1.1-2.4,2.4-2.4h81.8c1.4,0,2.4,1.1,2.4,2.4
			S2444.9,1330,2443.7,1330z"/>
	</g>
	<g>
		<path class="st3" d="M2464.5,1355.4h-102.8c-1.4,0-2.4-1.1-2.4-2.4c0-1.4,1.1-2.4,2.4-2.4h102.8c1.4,0,2.4,1.1,2.4,2.4
			C2467,1354.2,2465.9,1355.4,2464.5,1355.4z"/>
	</g>
</g>
<polyline class="st1" points="2705.4,306.7 2705.4,375.5 2906.6,375.5 "/>
<polyline class="st1" points="2705.7,306.7 2705.7,375.5 2519.2,375.5 "/>
<polyline class="st1" points="3027.4,524.3 3027.4,633.5 3179.3,633.5 "/>
<polyline class="st1" points="3027.4,524.3 3027.4,956.5 3179.3,956.5 "/>
<polyline class="st1" points="3027.4,524.3 3027.4,1288.5 3179.3,1288.5 "/>
<line class="st1" x1="2399.6" y1="526.5" x2="2399.6" y2="720.6"/>
<line class="st1" x1="2399.6" y1="965.5" x2="2399.6" y2="1175"/>
<g>
	<g>
		<g>
			<path class="st3" d="M1231,421.1c-0.6-0.6-1.5-1.1-2.5-1.1H1110c-1.9,0-3.2,1.5-3.2,3.2v215c0,1.9,1.5,3.2,3.2,3.2h156.9
				c1.9,0,3.2-1.5,3.2-3.2V462.9c0-0.9-0.4-1.7-0.9-2.1L1231,421.1z M1232.1,431.4l29,30.1h-29V431.4z M1113.6,426.7h112v36.7
				c0,0.1,0.1,0.5,0.1,0.6s-0.1,0.5-0.1,0.6c0,1.9,1.5,3.2,3.2,3.2h34.9v167.4h-150.2L1113.6,426.7L1113.6,426.7z"/>
		</g>
	</g>
	<g>
		<path class="st3" d="M1238.6,497h-101.7c-1.4,0-2.5-1.1-2.5-2.5s1.1-2.5,2.5-2.5h101.7c1.4,0,2.5,1.1,2.5,2.5
			C1240.9,495.8,1240.1,497,1238.6,497z"/>
	</g>
	<g>
		<path class="st3" d="M1217.7,522h-80.9c-1.4,0-2.5-1.1-2.5-2.5s1.1-2.5,2.5-2.5h80.9c1.4,0,2.5,1.1,2.5,2.5
			C1220.2,520.7,1219.1,522,1217.7,522z"/>
	</g>
	<g>
		<path class="st3" d="M1238.6,546.9h-101.7c-1.4,0-2.5-1.1-2.5-2.5s1.1-2.5,2.5-2.5h101.7c1.4,0,2.5,1.1,2.5,2.5
			C1240.9,546,1240.1,546.9,1238.6,546.9z"/>
	</g>
	<g>
		<path class="st3" d="M1217.7,571.9h-80.9c-1.4,0-2.5-1.1-2.5-2.5s1.1-2.5,2.5-2.5h80.9c1.4,0,2.5,1.1,2.5,2.5
			C1220.2,570.8,1219.1,571.9,1217.7,571.9z"/>
	</g>
	<g>
		<path class="st3" d="M1238.6,596.9h-101.7c-1.4,0-2.5-1.1-2.5-2.5s1.1-2.5,2.5-2.5h101.7c1.4,0,2.5,1.1,2.5,2.5
			C1241,595.8,1240.1,596.9,1238.6,596.9z"/>
	</g>
</g>
<g>
	<path class="st0" d="M1549,439.8c0-2.6-1.4-5.2-3.5-6.7c-2.3-1.5-5-1.9-7.5-1l-92.2,33.7c-3.1,1.1-5.4,4.3-5.4,7.8v106
		c-7.3-0.1-13.8,2.3-19,6.3c0,0-10.4,6.7-9.8,20.5c0.1,4.7,1.1,8.9,3.4,12.7c-0.1,0,7.1,14.2,24.5,14.2c15.3,0,28-12.2,28-26.9
		v-95.2l54.6-20.1v58.6c-13.3-0.5-24.5,8.2-27.9,20c-4.1,20.9,9.7,33.7,26.9,33.7c15.3,0,27.9-12.2,27.9-26.9V439.8L1549,439.8z
		 M1521.2,593.8c-10.1,0-18.2-7.8-18.2-17.4c0-9.5,8.2-17.4,18.2-17.4c1.4,0,2.9,0.1,4.7,0.5l6,1.5v-84l-73.7,27.3v101.8
		c0,9.5-8.2,17.4-18.2,17.4c-10.1,0-18.2-7.8-18.2-17.4c0-9.6,8.2-17.4,18.2-17.4c1.4,0,2.9,0.1,4.7,0.5l6,1.5V475.6v-1.4l89.2-32.7
		v134.8C1539.4,586,1531.2,593.8,1521.2,593.8z"/>
</g>
<g>
	<path class="st0" d="M1839.7,456.9l-37.6-38.5c-0.6-0.6-1.5-1-2.2-1h-115.7c-1.7,0-3,1.5-3,3v209.8c0,1.7,1.5,3,3,3h153.2
		c1.7,0,3-1.5,3-3V459.1C1840.5,458.4,1840.3,457.5,1839.7,456.9z M1803.3,428.4l28.5,29.2h-28.5V428.4z M1834.4,627.6h-146.7V423.8
		H1797v35.7c0,0.1,0,0.5,0,0.6c-0.5,1.5,0.2,3.2,1.7,3.7c0.5,0.1,1,0.1,1.5,0.1h34L1834.4,627.6L1834.4,627.6z"/>
	<path class="st0" d="M1796.7,590.9h-5v-61.3c0-1.5-1.2-2.7-2.7-2.7h-18.1c-1.5,0-2.7,1.2-2.7,2.7v7.8h-15.3c-1.5,0-2.7,1.2-2.7,2.7
		v5.7h-14.7c-1.5,0-2.7,1.2-2.7,2.7v43h-5.5v-61c0.1-1.6-1-3-2.7-3.2c-1.6-0.1-3,1-3.2,2.7c0,0.1,0,0.5,0,0.6V594
		c0,1.6,1.3,2.9,2.9,2.9h71.7c1.6,0,2.9-1.3,2.9-2.9C1799.4,592.4,1798.3,590.9,1796.7,590.9z M1750.8,550.6V591h-12.4v-40.4H1750.8
		z M1768.5,542.5V591h-12.7v-48.6L1768.5,542.5L1768.5,542.5z M1786.7,532.3v58.8h-13.2v-58.8H1786.7z"/>
	<path class="st0" d="M1760.9,506.7c12.4,0,22.5-10.1,22.5-22.5s-10.1-22.5-22.5-22.5s-22.5,10.1-22.5,22.5
		C1738.4,496.7,1748.6,506.7,1760.9,506.7L1760.9,506.7z M1778,481.5h-14.4v-14.4C1771,468.4,1776.8,474.2,1778,481.5L1778,481.5z
		 M1758.4,467.1v19.6h19.5c-1.5,9.4-10.2,15.6-19.6,14c-9.4-1.5-15.6-10.2-14-19.6C1745.3,474.2,1751.1,468.5,1758.4,467.1
		L1758.4,467.1z"/>
</g>
<g>
	<path class="st0" d="M1437.1,758.2c0-7.3-5.9-13.3-13.3-13.3h-140.5l141.8-29.5c7.1-1.4,11.8-8.5,10.5-15.6l-1.7-8.6
		c-1.4-6.9-8.5-11.8-15.5-10.4l-175.9,36.4c-7.1,1.4-11.8,8.5-10.5,15.6l1.7,8.6c0.7,3.7,3.1,6.9,6.4,9c-1.5,2.2-2.3,4.9-2.3,7.7
		V844c0,7.3,5.9,13.3,13.3,13.3h173.1c5.8,0,13.3-3.3,13.3-13.3v-85.8H1437.1L1437.1,758.2z M1419.9,754l-13.6,15.6h-15.5l13.6-15.6
		H1419.9z M1398.7,754l-13.6,15.6h-16.6L1382,754H1398.7z M1376.2,754l-13.6,15.6h-15.5l13.6-15.6H1376.2z M1354.8,754l-13.6,15.6
		h-16.6l13.6-15.6H1354.8z M1332.5,754l-13.6,15.6h-15.5L1317,754H1332.5z M1311.1,754l-13.6,15.6H1281l13.6-15.6H1311.1z
		 M1288.7,754l-13.6,15.6h-15.5l13.6-15.6H1288.7z M1253.8,769.6h-7.6v-11.4c0-2.3,1.9-4.4,4.4-4.4h16.8L1253.8,769.6z
		 M1419.8,689.6c0.3,0,0.5-0.1,0.9-0.1c2.1,0,3.7,1.4,4.2,3.5l1.7,8.6c0.5,2.3-1.3,4.9-3.5,5.1h-0.3l-18.4-14.2L1419.8,689.6z
		 M1398.7,694l18.4,14.2l-15.2,3.1l-18.4-14.2L1398.7,694z M1377.6,698.3l18.4,14.2l-16.2,3.3l-18.4-14.2L1377.6,698.3z
		 M1355.8,702.8l18.5,14.3l-15.2,3.1l-18.4-14.2L1355.8,702.8z M1334.8,707.2l18.4,14.2l-16.2,3.3l-18.4-14.2L1334.8,707.2z
		 M1313,711.7l18.4,14.2l-15.2,3.1l-18.4-14.2L1313,711.7z M1292,716.1l18.4,14.2l-16.2,3.3l-18.4-14.2L1292,716.1z M1270.3,720.6
		l18.4,14.2l-15.2,3.1l-18.4-14.2L1270.3,720.6z M1242.3,740l-1.7-8.6c-0.5-2.3,1.3-4.9,3.5-5.1l5.1-1l18.4,14.2l-20.4,4.2
		C1244.8,743.7,1242.5,742.2,1242.3,740z M1428,844.1c0,2.3-1.9,4.4-4.4,4.4h-173.1c-2.3,0-4.4-1.9-4.4-4.4v-70h181.5L1428,844.1
		L1428,844.1z M1428,769.6h-15.9l13.2-15.4c1.5,0.7,2.7,2.2,2.7,4.1L1428,769.6L1428,769.6z"/>
	<path class="st0" d="M1354.2,806.5l-23.6-13.6c-1.4-0.9-2.8-1.3-4.1-1.3c-2.9,0-5.9,2.1-5.9,6.9v27.1c0,4.9,2.9,6.9,5.9,6.9
		c1.4,0,2.7-0.3,4.1-1.3l23.6-13.6c2.3-1.4,3.7-3.5,3.7-5.8C1357.9,810,1356.5,807.9,1354.2,806.5z M1351.9,814l-23.6,13.6
		c-0.9,0.5-1.5,0.5-1.9,0.5c-1.3,0-1.5-1.5-1.5-2.3v-27.1c0-0.9,0.1-2.3,1.4-2.3c0.3,0,1,0.1,1.9,0.5l23.6,13.6
		c1,0.5,1.5,1.4,1.5,1.9C1353.3,812.8,1352.9,813.5,1351.9,814z"/>
</g>
<g>
	<g>
		<g>
			<path class="st0" d="M1735,758.1c-0.1-0.7-0.6-1.4-1.4-1.8l-60.7-37.8l-51.8-58.2c-0.7-1-2.2-1-3.1-0.1l-16.4,14.2l-13.9-8.5
				c-1.4-1-3.3-0.5-4.2,1l-32.5,51.4l-18.5,16.1c-0.5,0.2-0.7,1-0.7,1.6s0.1,1.2,0.6,1.6l3.9,4.3l-11.6,18.2
				c-0.5,0.6-0.6,1.6-0.2,2.3c0.1,0.7,0.6,1.4,1.4,1.8l67.8,41.8l51.1,57.3c0.5,0.5,1.1,0.7,1.7,0.7c0.5,0,1.1-0.1,1.4-0.6l15.9-14
				l7.6,4.7c0.5,0.2,1.1,0.5,1.6,0.5c1,0,1.9-0.5,2.5-1.4l19.8-31.1l37.8-32.9c0.5-0.5,0.7-1,0.7-1.6s-0.1-1.2-0.6-1.6l-9-10
				l10-15.9C1735,759.7,1735.1,759,1735,758.1z M1587.3,672.8l9.5,5.9l-29.8,25.8L1587.3,672.8z M1531.6,760.9l9-14.2l39.5,44.4
				L1531.6,760.9z M1672.2,848.2l-3.5-2.2l10.9-9.4L1672.2,848.2z M1646.7,859.1l-53.1-59.9v-0.1h-0.1l-56-62.9l81.8-71.3l54.3,61.1
				v0.1h0.1l54.6,61.6L1646.7,859.1z M1720.2,771.7l-33.2-37.2l40.8,25.2L1720.2,771.7z"/>
			<path class="st0" d="M1627.4,714.2c-0.7-1-2.2-1-3.1-0.1l-37.5,32.7c-0.5,0.5-0.7,1-0.7,1.6s0.1,1.2,0.6,1.6l36,40.3
				c0.7,1,2.2,1,3.1,0.1l8.9-7.6l15.6,17.4c0.5,0.5,1.1,0.7,1.7,0.7c0.5,0,1.1-0.1,1.4-0.6l27-23.7c0.5-0.5,0.7-1,0.7-1.6
				s-0.1-1.2-0.6-1.6L1627.4,714.2z M1651.8,795.5l-15.6-17.4c-0.5-0.5-1.1-0.7-1.7-0.7c-0.5,0-1.1,0.1-1.4,0.6l-8.9,7.6l-32.9-36.9
				l34.3-29.8l49.9,56L1651.8,795.5z"/>
			<path class="st0" d="M1695.6,793.7c0.1,0.2,0.5,0.2,0.7,0.2s0.5-0.1,0.7-0.2c0.5-0.5,0.5-1.1,0.1-1.6l-12.1-13.6
				c-0.5-0.5-1.1-0.5-1.6-0.1c-0.5,0.5-0.5,1.1-0.1,1.6L1695.6,793.7z"/>
			<path class="st0" d="M1685.1,772.4c0.2,0,0.5-0.1,0.7-0.2l8.5-7.5c0.5-0.5,0.5-1.1,0.1-1.6c-0.5-0.5-1.1-0.5-1.6-0.1l-8.5,7.5
				c-0.5,0.5-0.5,1.1-0.1,1.6C1684.4,772.2,1684.9,772.4,1685.1,772.4z"/>
			<path class="st0" d="M1622,710.7c0.1,0.2,0.5,0.2,0.7,0.2s0.5-0.1,0.7-0.2c0.5-0.5,0.5-1.1,0.1-1.6l-12.1-13.6
				c-0.5-0.5-1.1-0.5-1.6-0.1c-0.5,0.5-0.5,1.1-0.1,1.6L1622,710.7z"/>
			<path class="st0" d="M1584.9,743l-12.1-13.6c-0.5-0.5-1.1-0.5-1.6-0.1c-0.5,0.5-0.5,1.1-0.1,1.6l12.1,13.6
				c0.1,0.2,0.5,0.2,0.7,0.2s0.5-0.1,0.7-0.2C1585.4,744,1585.4,743.3,1584.9,743z"/>
			<path class="st0" d="M1631.3,712c0.2,0,0.5-0.1,0.7-0.2l8.5-7.5c0.5-0.5,0.5-1.1,0.1-1.6c-0.5-0.5-1.1-0.5-1.6-0.1l-8.5,7.5
				c-0.5,0.5-0.5,1.1-0.1,1.6C1630.6,711.9,1630.9,712,1631.3,712z"/>
			<path class="st0" d="M1655.8,804c-0.5-0.5-1.1-0.5-1.6-0.1c-0.5,0.5-0.5,1.1-0.1,1.6l12.1,13.6c0.1,0.2,0.5,0.2,0.7,0.2
				s0.5-0.1,0.7-0.2c0.5-0.5,0.5-1.1,0.1-1.6L1655.8,804z"/>
			<path class="st0" d="M1647.8,802.4l-8.5,7.5c-0.5,0.5-0.5,1.1-0.1,1.6c0.1,0.2,0.5,0.2,0.7,0.2s0.5-0.1,0.7-0.2l8.5-7.5
				c0.5-0.5,0.5-1.1,0.1-1.6C1648.9,802,1648.3,802,1647.8,802.4z"/>
			<path class="st0" d="M1619.4,791.3l-8.5,7.5c-0.5,0.5-0.5,1.1-0.1,1.6c0.1,0.2,0.5,0.2,0.7,0.2s0.5-0.1,0.7-0.2l8.5-7.5
				c0.5-0.5,0.5-1.1,0.1-1.6C1620.6,790.9,1619.9,790.9,1619.4,791.3z"/>
			<path class="st0" d="M1583.6,750.9l-8.5,7.5c-0.5,0.5-0.5,1.1-0.1,1.6c0.1,0.2,0.5,0.2,0.7,0.2s0.5-0.1,0.7-0.2l8.5-7.5
				c0.5-0.5,0.5-1.1,0.1-1.6C1584.8,750.5,1584,750.5,1583.6,750.9z"/>
		</g>
	</g>
</g>
<path class="st1" d="M1841.6,912.5H1104c-31.2,0-56.5-25.3-56.5-56.5V414.5c0-31.2,25.3-56.5,56.5-56.5h737.6
	c31.2,0,56.5,25.3,56.5,56.5v441.6C1898.1,887.2,1872.8,912.5,1841.6,912.5z"/>
<g>
	<g>
		<g>
			<path class="st3" d="M3757.7,421.1c-0.6-0.6-1.5-1.1-2.5-1.1h-118.6c-1.9,0-3.2,1.5-3.2,3.2v215c0,1.9,1.5,3.2,3.2,3.2h156.9
				c1.9,0,3.2-1.5,3.2-3.2V462.9c0-0.9-0.4-1.7-0.9-2.1L3757.7,421.1z M3758.8,431.4l29,30.1h-29V431.4z M3640.3,426.7h112v36.7
				c0,0.1,0.1,0.5,0.1,0.6s-0.1,0.5-0.1,0.6c0,1.9,1.5,3.2,3.2,3.2h34.9v167.4h-150.2V426.7H3640.3z"/>
		</g>
	</g>
	<g>
		<path class="st3" d="M3765.3,497h-101.7c-1.4,0-2.5-1.1-2.5-2.5s1.1-2.5,2.5-2.5h101.7c1.4,0,2.5,1.1,2.5,2.5
			C3767.6,495.8,3766.8,497,3765.3,497z"/>
	</g>
	<g>
		<path class="st3" d="M3744.4,522h-80.9c-1.4,0-2.5-1.1-2.5-2.5s1.1-2.5,2.5-2.5h80.9c1.4,0,2.5,1.1,2.5,2.5
			C3746.9,520.7,3745.7,522,3744.4,522z"/>
	</g>
	<g>
		<path class="st3" d="M3765.3,546.9h-101.7c-1.4,0-2.5-1.1-2.5-2.5s1.1-2.5,2.5-2.5h101.7c1.4,0,2.5,1.1,2.5,2.5
			C3767.6,546,3766.8,546.9,3765.3,546.9z"/>
	</g>
	<g>
		<path class="st3" d="M3744.4,571.9h-80.9c-1.4,0-2.5-1.1-2.5-2.5s1.1-2.5,2.5-2.5h80.9c1.4,0,2.5,1.1,2.5,2.5
			C3746.9,570.8,3745.7,571.9,3744.4,571.9z"/>
	</g>
	<g>
		<path class="st3" d="M3765.3,596.9h-101.7c-1.4,0-2.5-1.1-2.5-2.5s1.1-2.5,2.5-2.5h101.7c1.4,0,2.5,1.1,2.5,2.5
			C3767.7,595.8,3766.8,596.9,3765.3,596.9z"/>
	</g>
</g>
<g>
	<path class="st0" d="M4075.7,439.8c0-2.6-1.4-5.2-3.5-6.7c-2.3-1.5-5-1.9-7.5-1l-92.2,33.7c-3.1,1.1-5.4,4.3-5.4,7.8v106
		c-7.3-0.1-13.8,2.3-19,6.3c0,0-10.4,6.7-9.8,20.5c0.1,4.7,1.1,8.9,3.4,12.7c-0.1,0,7.1,14.2,24.5,14.2c15.3,0,28-12.2,28-26.9
		v-95.2l54.6-20.1v58.6c-13.3-0.5-24.5,8.2-27.9,20c-4.1,20.9,9.7,33.7,26.9,33.7c15.3,0,27.9-12.2,27.9-26.9V439.8L4075.7,439.8z
		 M4047.8,593.8c-10.1,0-18.2-7.8-18.2-17.4c0-9.5,8.2-17.4,18.2-17.4c1.4,0,2.9,0.1,4.7,0.5l6,1.5v-84l-73.7,27.3v101.8
		c0,9.5-8.2,17.4-18.2,17.4c-10.1,0-18.2-7.8-18.2-17.4c0-9.6,8.2-17.4,18.2-17.4c1.4,0,2.9,0.1,4.7,0.5l6,1.5V475.6v-1.4l89.2-32.7
		v134.8C4066.1,586,4057.9,593.8,4047.8,593.8z"/>
</g>
<g>
	<path class="st0" d="M4366.4,456.9l-37.6-38.5c-0.6-0.6-1.5-1-2.2-1h-115.7c-1.7,0-3,1.5-3,3v209.8c0,1.7,1.5,3,3,3h153.2
		c1.7,0,3-1.5,3-3V459.1C4367.2,458.4,4367,457.5,4366.4,456.9z M4330,428.4l28.5,29.2H4330V428.4z M4361,627.6h-146.7V423.8h109.3
		v35.7c0,0.1,0,0.5,0,0.6c-0.5,1.5,0.2,3.2,1.7,3.7c0.5,0.1,1,0.1,1.5,0.1h34L4361,627.6L4361,627.6z"/>
	<path class="st0" d="M4323.4,590.9h-5v-61.3c0-1.5-1.2-2.7-2.7-2.7h-18.1c-1.5,0-2.7,1.2-2.7,2.7v7.8h-15.3c-1.5,0-2.7,1.2-2.7,2.7
		v5.7h-14.7c-1.5,0-2.7,1.2-2.7,2.7v43h-5.5v-61c0.1-1.6-1-3-2.7-3.2c-1.6-0.1-3,1-3.2,2.7c0,0.1,0,0.5,0,0.6V594
		c0,1.6,1.3,2.9,2.9,2.9h71.7c1.6,0,2.9-1.3,2.9-2.9C4326,592.4,4325,590.9,4323.4,590.9z M4277.5,550.6V591h-12.4v-40.4H4277.5z
		 M4295.2,542.5V591h-12.7v-48.6L4295.2,542.5L4295.2,542.5z M4313.3,532.3v58.8h-13.2v-58.8H4313.3z"/>
	<path class="st0" d="M4287.6,506.7c12.4,0,22.5-10.1,22.5-22.5s-10.1-22.5-22.5-22.5s-22.5,10.1-22.5,22.5
		C4265.1,496.7,4275.2,506.7,4287.6,506.7L4287.6,506.7z M4304.7,481.5h-14.4v-14.4C4297.7,468.4,4303.5,474.2,4304.7,481.5
		L4304.7,481.5z M4285.1,467.1v19.6h19.5c-1.5,9.4-10.2,15.6-19.6,14c-9.4-1.5-15.6-10.2-14-19.6
		C4271.9,474.2,4277.8,468.5,4285.1,467.1L4285.1,467.1z"/>
</g>
<g>
	<path class="st0" d="M3963.8,758.2c0-7.3-5.9-13.3-13.3-13.3H3810l141.8-29.5c7.1-1.4,11.8-8.5,10.5-15.6l-1.7-8.6
		c-1.4-6.9-8.5-11.8-15.5-10.4l-175.9,36.4c-7.1,1.4-11.8,8.5-10.5,15.6l1.7,8.6c0.7,3.7,3.1,6.9,6.4,9c-1.5,2.2-2.3,4.9-2.3,7.7
		V844c0,7.3,5.9,13.3,13.3,13.3h173.1c5.8,0,13.3-3.3,13.3-13.3v-85.8H3963.8L3963.8,758.2z M3946.6,754l-13.6,15.6h-15.5l13.6-15.6
		H3946.6z M3925.3,754l-13.6,15.6h-16.6l13.6-15.6H3925.3z M3902.9,754l-13.6,15.6h-15.5l13.6-15.6H3902.9z M3881.5,754l-13.6,15.6
		h-16.6l13.6-15.6H3881.5z M3859.2,754l-13.6,15.6h-15.5l13.6-15.6H3859.2z M3837.8,754l-13.6,15.6h-16.6l13.6-15.6H3837.8z
		 M3815.4,754l-13.6,15.6h-15.5L3800,754H3815.4z M3780.5,769.6h-7.6v-11.4c0-2.3,1.9-4.4,4.4-4.4h16.8L3780.5,769.6z M3946.5,689.6
		c0.3,0,0.5-0.1,0.9-0.1c2.1,0,3.7,1.4,4.2,3.5l1.7,8.6c0.5,2.3-1.3,4.9-3.5,5.1h-0.3l-18.4-14.2L3946.5,689.6z M3925.3,694
		l18.4,14.2l-15.2,3.1l-18.4-14.2L3925.3,694z M3904.3,698.3l18.4,14.2l-16.2,3.3l-18.4-14.2L3904.3,698.3z M3882.4,702.8l18.5,14.3
		l-15.2,3.1l-18.4-14.2L3882.4,702.8z M3861.5,707.2l18.4,14.2l-16.2,3.3l-18.4-14.2L3861.5,707.2z M3839.6,711.7l18.4,14.2
		l-15.2,3.1l-18.4-14.2L3839.6,711.7z M3818.7,716.1l18.4,14.2l-16.2,3.3l-18.4-14.2L3818.7,716.1z M3797,720.6l18.4,14.2l-15.2,3.1
		l-18.4-14.2L3797,720.6z M3769,740l-1.7-8.6c-0.5-2.3,1.3-4.9,3.5-5.1l5.1-1l18.4,14.2l-20.4,4.2
		C3771.5,743.7,3769.2,742.2,3769,740z M3954.7,844.1c0,2.3-1.9,4.4-4.4,4.4h-173.1c-2.3,0-4.4-1.9-4.4-4.4v-70h181.5L3954.7,844.1
		L3954.7,844.1z M3954.7,769.6h-15.9l13.2-15.4c1.5,0.7,2.7,2.2,2.7,4.1V769.6z"/>
	<path class="st0" d="M3880.8,806.5l-23.6-13.6c-1.4-0.9-2.8-1.3-4.1-1.3c-2.9,0-5.9,2.1-5.9,6.9v27.1c0,4.9,2.9,6.9,5.9,6.9
		c1.4,0,2.7-0.3,4.1-1.3l23.6-13.6c2.3-1.4,3.7-3.5,3.7-5.8C3884.6,810,3883.2,807.9,3880.8,806.5z M3878.6,814l-23.6,13.6
		c-0.9,0.5-1.5,0.5-1.9,0.5c-1.3,0-1.5-1.5-1.5-2.3v-27.1c0-0.9,0.1-2.3,1.4-2.3c0.3,0,1,0.1,1.9,0.5l23.6,13.6
		c1,0.5,1.5,1.4,1.5,1.9C3880,812.8,3879.6,813.5,3878.6,814z"/>
</g>
<g>
	<g>
		<g>
			<path class="st0" d="M4261.7,758.1c-0.1-0.7-0.6-1.4-1.4-1.8l-60.7-37.8l-51.8-58.2c-0.7-1-2.2-1-3.1-0.1l-16.4,14.2l-13.9-8.5
				c-1.4-1-3.3-0.5-4.2,1l-32.5,51.4l-18.5,16.1c-0.5,0.2-0.7,1-0.7,1.6s0.1,1.2,0.6,1.6l3.9,4.3l-11.6,18.2
				c-0.5,0.6-0.6,1.6-0.2,2.3c0.1,0.7,0.6,1.4,1.4,1.8l67.8,41.8l51.1,57.3c0.5,0.5,1.1,0.7,1.7,0.7c0.5,0,1.1-0.1,1.4-0.6l15.9-14
				l7.6,4.7c0.5,0.2,1.1,0.5,1.6,0.5c1,0,1.9-0.5,2.5-1.4l19.8-31.1l37.8-32.9c0.5-0.5,0.7-1,0.7-1.6s-0.1-1.2-0.6-1.6l-9-10
				l10-15.9C4261.7,759.7,4261.8,759,4261.7,758.1z M4114,672.8l9.5,5.9l-29.8,25.8L4114,672.8z M4058.3,760.9l9-14.2l39.5,44.4
				L4058.3,760.9z M4198.8,848.2l-3.5-2.2l10.9-9.4L4198.8,848.2z M4173.3,859.1l-53.1-59.9v-0.1h-0.1l-56-62.9l81.8-71.3l54.3,61.1
				v0.1h0.1l54.6,61.6L4173.3,859.1z M4246.9,771.7l-33.2-37.2l40.8,25.2L4246.9,771.7z"/>
			<path class="st0" d="M4154.1,714.2c-0.7-1-2.2-1-3.1-0.1l-37.5,32.7c-0.5,0.5-0.7,1-0.7,1.6s0.1,1.2,0.6,1.6l36,40.3
				c0.7,1,2.2,1,3.1,0.1l8.9-7.6l15.6,17.4c0.5,0.5,1.1,0.7,1.7,0.7c0.5,0,1.1-0.1,1.4-0.6l27-23.7c0.5-0.5,0.7-1,0.7-1.6
				s-0.1-1.2-0.6-1.6L4154.1,714.2z M4178.5,795.5l-15.6-17.4c-0.5-0.5-1.1-0.7-1.7-0.7c-0.5,0-1.1,0.1-1.4,0.6l-8.9,7.6l-32.9-36.9
				l34.3-29.8l49.9,56L4178.5,795.5z"/>
			<path class="st0" d="M4222.3,793.7c0.1,0.2,0.5,0.2,0.7,0.2s0.5-0.1,0.7-0.2c0.5-0.5,0.5-1.1,0.1-1.6l-12.1-13.6
				c-0.5-0.5-1.1-0.5-1.6-0.1c-0.5,0.5-0.5,1.1-0.1,1.6L4222.3,793.7z"/>
			<path class="st0" d="M4211.8,772.4c0.2,0,0.5-0.1,0.7-0.2l8.5-7.5c0.5-0.5,0.5-1.1,0.1-1.6c-0.5-0.5-1.1-0.5-1.6-0.1l-8.5,7.5
				c-0.5,0.5-0.5,1.1-0.1,1.6C4211.1,772.2,4211.5,772.4,4211.8,772.4z"/>
			<path class="st0" d="M4148.7,710.7c0.1,0.2,0.5,0.2,0.7,0.2s0.5-0.1,0.7-0.2c0.5-0.5,0.5-1.1,0.1-1.6l-12.1-13.6
				c-0.5-0.5-1.1-0.5-1.6-0.1c-0.5,0.5-0.5,1.1-0.1,1.6L4148.7,710.7z"/>
			<path class="st0" d="M4111.5,743l-12.1-13.6c-0.5-0.5-1.1-0.5-1.6-0.1c-0.5,0.5-0.5,1.1-0.1,1.6l12.1,13.6
				c0.1,0.2,0.5,0.2,0.7,0.2s0.5-0.1,0.7-0.2C4112.1,744,4112.1,743.3,4111.5,743z"/>
			<path class="st0" d="M4158,712c0.2,0,0.5-0.1,0.7-0.2l8.5-7.5c0.5-0.5,0.5-1.1,0.1-1.6c-0.5-0.5-1.1-0.5-1.6-0.1l-8.5,7.5
				c-0.5,0.5-0.5,1.1-0.1,1.6C4157.3,711.9,4157.5,712,4158,712z"/>
			<path class="st0" d="M4182.5,804c-0.5-0.5-1.1-0.5-1.6-0.1c-0.5,0.5-0.5,1.1-0.1,1.6l12.1,13.6c0.1,0.2,0.5,0.2,0.7,0.2
				s0.5-0.1,0.7-0.2c0.5-0.5,0.5-1.1,0.1-1.6L4182.5,804z"/>
			<path class="st0" d="M4174.5,802.4l-8.5,7.5c-0.5,0.5-0.5,1.1-0.1,1.6c0.1,0.2,0.5,0.2,0.7,0.2s0.5-0.1,0.7-0.2l8.5-7.5
				c0.5-0.5,0.5-1.1,0.1-1.6C4175.6,802,4174.9,802,4174.5,802.4z"/>
			<path class="st0" d="M4146.1,791.3l-8.5,7.5c-0.5,0.5-0.5,1.1-0.1,1.6c0.1,0.2,0.5,0.2,0.7,0.2s0.5-0.1,0.7-0.2l8.5-7.5
				c0.5-0.5,0.5-1.1,0.1-1.6C4147.3,790.9,4146.5,790.9,4146.1,791.3z"/>
			<path class="st0" d="M4110.3,750.9l-8.5,7.5c-0.5,0.5-0.5,1.1-0.1,1.6c0.1,0.2,0.5,0.2,0.7,0.2s0.5-0.1,0.7-0.2l8.5-7.5
				c0.5-0.5,0.5-1.1,0.1-1.6C4111.4,750.5,4110.7,750.5,4110.3,750.9z"/>
		</g>
	</g>
</g>
<path class="st1" d="M4368.3,912.5h-737.6c-31.2,0-56.5-25.3-56.5-56.5V414.5c0-31.2,25.3-56.5,56.5-56.5h737.6
	c31.2,0,56.5,25.3,56.5,56.5v441.6C4424.7,887.2,4399.5,912.5,4368.3,912.5z"/>
<line class="st1" x1="3429.9" y1="636.5" x2="3574.3" y2="636.5"/>
<g>
	<path class="st0" d="M729,782.5v-3.7c-2.5,2.5-6.2,4.5-10.2,4.5c-6,0-12.8-3.4-12.8-12.5c0-8.3,6.4-12.1,14.8-12.1
		c3.5,0,6.2,0.5,8.3,1.4v-2.7c0-4-2.5-6.3-7-6.3c-3.8,0-6.7,0.8-9.7,2.3l-2.8-5.6c3.5-2.2,7.5-3.4,12.7-3.4c8.3,0,13.9,4,13.9,12.4
		v25.5H729V782.5L729,782.5z M729,766.6c-2-1-4.6-1.6-8.5-1.6c-4.7,0-7.6,2.2-7.6,5.6c0,3.7,2.3,6.2,7.2,6.2c3.9,0,7.3-2.4,9-4.8
		L729,766.6L729,766.6z"/>
	<path class="st0" d="M747,782.5v-47.8l7.3-3.8v51.6H747z"/>
	<path class="st0" d="M769.4,740.6c-2.6,0-4.8-2.2-4.8-4.7c0-2.6,2.2-4.8,4.8-4.8c2.5,0,4.7,2.2,4.7,4.8
		C774.1,738.4,771.9,740.6,769.4,740.6z M765.7,782.5v-37.1h7.3v37.1H765.7z"/>
	<path class="st0" d="M807.5,756c-3-3.2-5.8-4.6-9-4.6c-5.3,0-8.7,4.8-8.7,12.3c0,7.3,3.2,12.5,8.9,12.5c3.5,0,5.6-1.5,8.4-4.6
		l4.7,4.6c-2.9,3.7-6.5,7-13.3,7c-9,0-16.1-7.6-16.1-19.3c0-12.3,7.2-19.5,16.3-19.5c5.4,0,9.7,2.2,13.2,6.3L807.5,756z"/>
	<path class="st0" d="M849.7,766.5h-24.6c0.8,7.2,4.8,10.2,9.4,10.2c3.2,0,5.6-1.1,8.1-2.9l4.4,4.7c-3.3,3.2-7.2,4.9-12.8,4.9
		c-8.7,0-16.1-7-16.1-19.3c0-12.6,6.6-19.4,16.3-19.4c10.6,0,15.7,8.6,15.7,18.6C849.9,764.5,849.8,765.7,849.7,766.5z M833.8,751.1
		c-4.9,0-7.8,3.4-8.5,9.4h17.2C842.2,755.4,839.8,751.1,833.8,751.1z"/>
</g>
<g>
	<path class="st0" d="M3253.2,782.5v-3.7c-2.5,2.5-6.2,4.5-10.2,4.5c-6,0-12.8-3.4-12.8-12.5c0-8.3,6.4-12.1,14.8-12.1
		c3.5,0,6.2,0.5,8.3,1.4v-2.7c0-4-2.5-6.3-7-6.3c-3.8,0-6.7,0.8-9.7,2.3l-2.8-5.6c3.5-2.2,7.5-3.4,12.7-3.4c8.3,0,13.9,4,13.9,12.4
		v25.5h-7.2V782.5L3253.2,782.5z M3253.2,766.6c-2-1-4.6-1.6-8.5-1.6c-4.7,0-7.6,2.2-7.6,5.6c0,3.7,2.3,6.2,7.2,6.2
		c3.9,0,7.3-2.4,9-4.8v-5.3L3253.2,766.6L3253.2,766.6z"/>
	<path class="st0" d="M3271.1,782.5v-47.8l7.3-3.8v51.6H3271.1z"/>
	<path class="st0" d="M3293.6,740.6c-2.6,0-4.8-2.2-4.8-4.7c0-2.6,2.2-4.8,4.8-4.8c2.5,0,4.7,2.2,4.7,4.8
		C3298.2,738.4,3296.1,740.6,3293.6,740.6z M3289.9,782.5v-37.1h7.3v37.1H3289.9z"/>
	<path class="st0" d="M3331.7,756c-3-3.2-5.8-4.6-9-4.6c-5.3,0-8.7,4.8-8.7,12.3c0,7.3,3.2,12.5,8.9,12.5c3.5,0,5.6-1.5,8.4-4.6
		l4.7,4.6c-2.9,3.7-6.5,7-13.3,7c-9,0-16.1-7.6-16.1-19.3c0-12.3,7.2-19.5,16.3-19.5c5.4,0,9.7,2.2,13.2,6.3L3331.7,756z"/>
	<path class="st0" d="M3373.9,766.5h-24.6c0.8,7.2,4.8,10.2,9.4,10.2c3.2,0,5.6-1.1,8.1-2.9l4.4,4.7c-3.3,3.2-7.2,4.9-12.8,4.9
		c-8.7,0-16.1-7-16.1-19.3c0-12.6,6.6-19.4,16.3-19.4c10.6,0,15.7,8.6,15.7,18.6C3374.1,764.5,3374,765.7,3373.9,766.5z M3358,751.1
		c-4.9,0-7.8,3.4-8.5,9.4h17.3C3366.4,755.4,3364,751.1,3358,751.1z"/>
</g>
<g>
	<path class="st0" d="M736.8,1104c-3.9,0-7.6-2.1-9.8-4.4v3.6h-7.5v-50l7.5-3.9v18.8c2.8-2.6,6-4.6,10.1-4.6c8.3,0,14.9,6,14.9,20.8
		C752.1,1097.8,744.9,1104,736.8,1104z M735.7,1070.5c-3.6,0-6.8,2.4-8.8,5v16.4c1.7,2.3,5.2,5.1,9.1,5.1c5.5,0,8.4-4.1,8.4-12.4
		C744.5,1074.9,741.4,1070.5,735.7,1070.5z"/>
	<path class="st0" d="M777,1104c-9.8,0-17.1-8.1-17.1-20.2c0-12.8,7.5-20.3,17.3-20.3c9.9,0,17.3,8,17.3,20.1
		C794.5,1096.5,787,1104,777,1104z M776.9,1070.8c-5.8,0-9.3,5.1-9.3,12.8c0,8.5,3.9,13.2,9.7,13.2s9.6-5.8,9.6-13
		C786.8,1075.9,783,1070.8,776.9,1070.8z"/>
	<path class="st0" d="M821.2,1104c-3.9,0-7.6-2.1-9.8-4.4v3.6h-7.5v-50l7.5-3.9v18.8c2.8-2.6,6-4.6,10.1-4.6c8.3,0,14.9,6,14.9,20.8
		C836.6,1097.8,829.3,1104,821.2,1104z M820.2,1070.5c-3.6,0-6.8,2.4-8.8,5v16.4c1.7,2.3,5.2,5.1,9.1,5.1c5.5,0,8.4-4.1,8.4-12.4
		C828.9,1074.9,825.9,1070.5,820.2,1070.5z"/>
</g>
<g>
	<path class="st0" d="M3251,1104.1c-3.9,0-7.6-2.1-9.8-4.4v3.6h-7.5v-50.1l7.5-3.9v18.8c2.9-2.6,6-4.6,10.1-4.6
		c8.3,0,14.9,6,14.9,20.9C3266.3,1097.8,3259,1104.1,3251,1104.1z M3249.8,1070.5c-3.6,0-6.8,2.4-8.8,5v16.4
		c1.7,2.3,5.2,5.1,9.1,5.1c5.5,0,8.4-4.1,8.4-12.4C3258.6,1074.9,3255.6,1070.5,3249.8,1070.5z"/>
	<path class="st0" d="M3291.1,1104.1c-9.8,0-17.1-8.1-17.1-20.2c0-12.8,7.5-20.3,17.3-20.3c9.9,0,17.3,8,17.3,20.1
		C3308.7,1096.5,3301.2,1104.1,3291.1,1104.1z M3291,1070.8c-5.8,0-9.4,5.1-9.4,12.8c0,8.6,3.9,13.2,9.7,13.2s9.6-5.8,9.6-13
		C3300.9,1075.9,3297.2,1070.8,3291,1070.8z"/>
	<path class="st0" d="M3335.4,1104.1c-3.9,0-7.6-2.1-9.8-4.4v3.6h-7.5v-50.1l7.5-3.9v18.8c2.9-2.6,6-4.6,10.1-4.6
		c8.3,0,14.9,6,14.9,20.9C3350.8,1097.8,3343.5,1104.1,3335.4,1104.1z M3334.3,1070.5c-3.6,0-6.8,2.4-8.8,5v16.4
		c1.7,2.3,5.2,5.1,9.1,5.1c5.5,0,8.4-4.1,8.4-12.4C3343.1,1074.9,3340.1,1070.5,3334.3,1070.5z"/>
</g>
<g>
	<path class="st0" d="M756.2,1406h-24.9c0.8,7.3,4.8,10.4,9.5,10.4c3.2,0,5.6-1.1,8.2-3l4.4,4.7c-3.3,3.2-7.3,5-13,5
		c-8.8,0-16.3-7.1-16.3-19.5c0-12.8,6.7-19.6,16.5-19.6c10.7,0,15.9,8.7,15.9,18.8C756.4,1404,756.3,1405.3,756.2,1406z
		 M740.1,1390.5c-5,0-7.9,3.4-8.6,9.5H749C748.6,1394.8,746.2,1390.5,740.1,1390.5z"/>
	<path class="st0" d="M781.7,1422.2h-7.4l-13.4-37.6h7.7l6.7,20.4c1.2,3.6,2.3,7.2,2.8,9.3c0.4-2.1,1.4-5.6,2.5-9.3l6.5-20.4h7.8
		L781.7,1422.2z"/>
	<path class="st0" d="M831.8,1406h-24.9c0.8,7.3,4.8,10.4,9.5,10.4c3.2,0,5.6-1.1,8.2-3l4.4,4.7c-3.3,3.2-7.3,5-13,5
		c-8.8,0-16.3-7.1-16.3-19.5c0-12.8,6.7-19.6,16.5-19.6c10.7,0,15.9,8.7,15.9,18.8C832,1404,831.9,1405.3,831.8,1406z M815.7,1390.5
		c-5,0-7.9,3.4-8.6,9.5h17.5C824.2,1394.8,821.8,1390.5,815.7,1390.5z"/>
</g>
<g>
	<path class="st0" d="M3269.5,1407h-24.9c0.8,7.3,4.8,10.4,9.5,10.4c3.2,0,5.6-1.1,8.2-3l4.4,4.7c-3.3,3.2-7.3,5-13,5
		c-8.8,0-16.3-7.1-16.3-19.5c0-12.8,6.7-19.6,16.5-19.6c10.7,0,15.9,8.7,15.9,18.8C3269.8,1405,3269.6,1406.3,3269.5,1407z
		 M3253.4,1391.5c-5,0-7.9,3.4-8.6,9.5h17.5C3261.9,1395.8,3259.5,1391.5,3253.4,1391.5z"/>
	<path class="st0" d="M3295.1,1423.2h-7.4l-13.4-37.6h7.7l6.7,20.4c1.2,3.6,2.3,7.2,2.8,9.3c0.4-2.1,1.4-5.6,2.5-9.3l6.4-20.4h7.8
		L3295.1,1423.2z"/>
	<path class="st0" d="M3345.1,1407h-24.9c0.8,7.3,4.8,10.4,9.5,10.4c3.2,0,5.6-1.1,8.2-3l4.4,4.7c-3.3,3.2-7.3,5-13,5
		c-8.8,0-16.3-7.1-16.3-19.5c0-12.8,6.7-19.6,16.5-19.6c10.7,0,15.9,8.7,15.9,18.8C3345.4,1405,3345.2,1406.3,3345.1,1407z
		 M3329,1391.5c-5,0-7.9,3.4-8.6,9.5h17.5C3337.5,1395.8,3335.1,1391.5,3329,1391.5z"/>
</g>
<g>
	<path class="st0" d="M424.1,1619.3h-7.8l-14.3-39.9h8.2l7.1,21.7c1.3,3.9,2.5,7.6,2.9,9.8c0.5-2.2,1.5-6,2.7-9.8l6.9-21.7h8.3
		L424.1,1619.3z"/>
	<path class="st0" d="M467.2,1619.3v-4c-2.7,2.7-6.7,4.8-11,4.8c-6.4,0-13.8-3.6-13.8-13.5c0-8.9,6.9-12.9,15.9-12.9
		c3.7,0,6.7,0.6,8.9,1.5v-2.9c0-4.3-2.7-6.8-7.5-6.8c-4.1,0-7.3,0.8-10.4,2.5l-3-6c3.7-2.3,8.1-3.6,13.7-3.6c8.9,0,15,4.3,15,13.4
		v27.4L467.2,1619.3L467.2,1619.3z M467.2,1602.2c-2.1-1.1-4.9-1.8-9.1-1.8c-5,0-8.2,2.3-8.2,6c0,4,2.5,6.7,7.7,6.7
		c4.2,0,7.8-2.6,9.7-5.2v-5.7H467.2L467.2,1602.2z"/>
	<path class="st0" d="M507.9,1587.6c-1.6-0.9-3.4-1.4-6-1.4c-4.9,0-7.8,3.5-7.8,10.3v22.8h-7.8v-39.9h7.8v3.9
		c1.9-2.7,5.2-4.7,9.1-4.7c3.2,0,5.2,0.6,6.8,1.6L507.9,1587.6z"/>
</g>
<g>
	<path class="st0" d="M2355.8,511.4h-7.8l-14.3-39.9h8.2l7.1,21.7c1.3,3.9,2.5,7.6,2.9,9.8c0.5-2.2,1.5-6,2.7-9.8l6.9-21.7h8.3
		L2355.8,511.4z"/>
	<path class="st0" d="M2398.9,511.4v-4c-2.7,2.7-6.7,4.8-11,4.8c-6.4,0-13.8-3.6-13.8-13.5c0-8.9,6.9-13,15.9-13
		c3.7,0,6.7,0.6,8.9,1.5v-2.9c0-4.3-2.7-6.8-7.5-6.8c-4.1,0-7.3,0.8-10.4,2.5l-3-6c3.7-2.3,8.1-3.6,13.7-3.6c8.9,0,15,4.3,15,13.4
		v27.4h-7.7L2398.9,511.4L2398.9,511.4z M2398.9,494.3c-2.1-1.1-4.9-1.8-9.1-1.8c-5,0-8.2,2.3-8.2,6c0,4,2.5,6.7,7.7,6.7
		c4.2,0,7.8-2.6,9.7-5.2L2398.9,494.3L2398.9,494.3L2398.9,494.3z"/>
	<path class="st0" d="M2439.5,479.8c-1.6-0.9-3.4-1.4-6-1.4c-4.9,0-7.8,3.5-7.8,10.3v22.8h-7.8v-39.9h7.8v3.9
		c1.9-2.7,5.2-4.7,9.1-4.7c3.2,0,5.2,0.6,6.8,1.6L2439.5,479.8z"/>
</g>
<g>
	<path class="st0" d="M728.5,1794v-53.5l8.2-4.3v57.8H728.5z"/>
	<path class="st0" d="M765.4,1794.9c-10.5,0-18.3-8.7-18.3-21.6c0-13.7,8-21.7,18.5-21.7c10.6,0,18.5,8.5,18.5,21.5
		C784.2,1786.8,776,1794.9,765.4,1794.9z M765.3,1759.3c-6.2,0-10,5.5-10,13.7c0,9.1,4.1,14.1,10.4,14.1s10.2-6.2,10.2-13.9
		C775.9,1764.8,771.9,1759.3,765.3,1759.3z"/>
	<path class="st0" d="M807.7,1809.3l-2.8-6.2c11.7-0.6,14.3-3.8,14.3-12.3v-0.7c-3,2.8-6.5,4.9-10.7,4.9c-8.9,0-16-6.5-16-22.3
		c0-14.3,7.8-21,16.5-21c4.1,0,8.2,2.2,10.4,4.8v-3.9h8.2v37.7C827.4,1802.7,822.7,1808.8,807.7,1809.3z M819.3,1764.5
		c-1.8-2.4-5.6-5.5-9.8-5.5c-5.9,0-9,4.4-9,13.3c0,10.5,3.3,15.1,9.4,15.1c3.9,0,7.3-2.6,9.4-5.4L819.3,1764.5L819.3,1764.5z"/>
</g>
<g>
	<path class="st0" d="M2349.5,950.8v-53.5l8.2-4.3v57.8H2349.5z"/>
	<path class="st0" d="M2386.4,951.7c-10.5,0-18.3-8.7-18.3-21.6c0-13.7,8-21.7,18.5-21.7c10.6,0,18.5,8.5,18.5,21.5
		C2405.2,943.6,2397.1,951.7,2386.4,951.7z M2386.4,916.1c-6.2,0-10,5.5-10,13.7c0,9.1,4.1,14.1,10.4,14.1c6.2,0,10.2-6.2,10.2-13.9
		C2397,921.6,2392.9,916.1,2386.4,916.1z"/>
	<path class="st0" d="M2428.7,966.1l-2.8-6.2c11.7-0.6,14.3-3.8,14.3-12.3v-0.7c-3,2.8-6.5,4.9-10.7,4.9c-8.9,0-16-6.5-16-22.3
		c0-14.3,7.8-21,16.5-21c4.1,0,8.2,2.2,10.4,4.8v-3.9h8.2v37.7C2448.3,959.5,2443.8,965.6,2428.7,966.1z M2440.4,921.3
		c-1.8-2.4-5.6-5.5-9.8-5.5c-5.9,0-9,4.4-9,13.3c0,10.5,3.3,15.1,9.4,15.1c3.9,0,7.3-2.6,9.4-5.4L2440.4,921.3L2440.4,921.3z"/>
</g>
<g>
	<path class="st0" d="M1230.3,1787.6v-19.9c0-7.1-2.2-9.7-6.8-9.7s-6.8,3.3-6.8,9v20.7h-6.9v-19.9c0-7.1-2.2-9.7-6.8-9.7
		c-4.7,0-6.8,3.3-6.8,9v20.7h-6.9v-35.2h6.9v3.3c1.8-2.6,4.8-4.1,8.4-4.1c4.8,0,7.8,1.9,9.7,5.2c2.6-3.2,5.3-5.2,10.9-5.2
		c8.2,0,12.1,5.4,12.1,15.8v20.3L1230.3,1787.6L1230.3,1787.6z"/>
	<path class="st0" d="M1275.6,1772.4h-23.4c0.7,6.8,4.5,9.7,8.9,9.7c3,0,5.3-1,7.6-2.8l4.1,4.4c-3.1,3-6.8,4.7-12.2,4.7
		c-8.3,0-15.3-6.6-15.3-18.3c0-12,6.3-18.4,15.5-18.4c10,0,14.9,8.2,14.9,17.7C1275.8,1770.5,1275.7,1771.7,1275.6,1772.4z
		 M1260.5,1757.8c-4.7,0-7.4,3.2-8.1,8.9h16.4C1268.6,1761.8,1266.2,1757.8,1260.5,1757.8z"/>
	<path class="st0" d="M1295.2,1788.3c-4.8,0-9.9-1.9-13.5-4.5l3.2-5.3c3.3,2.3,7,3.5,10.2,3.5c4.3,0,6.4-1.4,6.4-3.9
		c0-2.7-3.1-3.9-8.2-5.9c-7.5-3-10.3-5.5-10.3-11.1c0-6.3,5-9.6,12-9.6c4.4,0,8.8,1.7,12,3.9l-3,5.3c-2.9-2-5.8-3-9.1-3
		s-4.9,1.3-4.9,3.2c0,1.8,1.2,3,6.5,5.1c7.9,3,11.9,5.2,11.9,11.8C1308.5,1785.7,1302.2,1788.3,1295.2,1788.3z"/>
	<path class="st0" d="M1328,1788.3c-4.8,0-9.9-1.9-13.5-4.5l3.2-5.3c3.3,2.3,7,3.5,10.2,3.5c4.3,0,6.4-1.4,6.4-3.9
		c0-2.7-3.1-3.9-8.2-5.9c-7.5-3-10.3-5.5-10.3-11.1c0-6.3,5-9.6,12-9.6c4.4,0,8.8,1.7,12,3.9l-3,5.3c-2.9-2-5.8-3-9.1-3
		c-3.3,0-4.9,1.3-4.9,3.2c0,1.8,1.2,3,6.5,5.1c7.9,3,11.9,5.2,11.9,11.8C1341.2,1785.7,1334.9,1788.3,1328,1788.3z"/>
	<path class="st0" d="M1370,1787.6v-3.5c-2.4,2.4-5.9,4.2-9.7,4.2c-5.7,0-12.2-3.2-12.2-11.9c0-7.9,6.1-11.5,14.1-11.5
		c3.3,0,5.9,0.5,7.9,1.3v-2.6c0-3.8-2.4-6-6.6-6c-3.6,0-6.4,0.7-9.2,2.2l-2.7-5.3c3.3-2.1,7.1-3.2,12.1-3.2
		c7.9,0,13.2,3.8,13.2,11.8v24.2h-6.8L1370,1787.6L1370,1787.6z M1370,1772.5c-1.9-0.9-4.3-1.6-8.1-1.6c-4.4,0-7.2,2.1-7.2,5.3
		c0,3.5,2.2,5.9,6.8,5.9c3.7,0,6.9-2.3,8.6-4.5L1370,1772.5L1370,1772.5z"/>
	<path class="st0" d="M1398.2,1800.5l-2.4-5.3c9.9-0.5,12.1-3.2,12.1-10.4v-0.6c-2.6,2.4-5.5,4.1-9.1,4.1c-7.5,0-13.5-5.5-13.5-18.9
		c0-12.1,6.6-17.8,14-17.8c3.5,0,6.9,1.9,8.8,4v-3.3h6.9v31.9C1414.8,1794.9,1411,1800.1,1398.2,1800.5z M1408.1,1762.6
		c-1.6-2.1-4.8-4.7-8.3-4.7c-5,0-7.6,3.7-7.6,11.3c0,8.9,2.8,12.8,8,12.8c3.3,0,6.2-2.2,8-4.5L1408.1,1762.6L1408.1,1762.6z"/>
	<path class="st0" d="M1453.4,1772.4H1430c0.7,6.8,4.5,9.7,8.9,9.7c3,0,5.3-1,7.6-2.8l4.1,4.4c-3.1,3-6.8,4.7-12.2,4.7
		c-8.3,0-15.3-6.6-15.3-18.3c0-12,6.3-18.4,15.5-18.4c10,0,14.9,8.2,14.9,17.7C1453.6,1770.5,1453.5,1771.7,1453.4,1772.4z
		 M1438.4,1757.8c-4.7,0-7.4,3.2-8.1,8.9h16.4C1446.3,1761.8,1444,1757.8,1438.4,1757.8z"/>
	<path class="st0" d="M1473,1788.3c-4.8,0-9.9-1.9-13.5-4.5l3.2-5.3c3.3,2.3,7,3.5,10.2,3.5c4.3,0,6.4-1.4,6.4-3.9
		c0-2.7-3.1-3.9-8.2-5.9c-7.5-3-10.3-5.5-10.3-11.1c0-6.3,5-9.6,12-9.6c4.4,0,8.8,1.7,12,3.9l-3,5.3c-2.9-2-5.8-3-9.1-3
		c-3.3,0-4.9,1.3-4.9,3.2c0,1.8,1.2,3,6.5,5.1c7.9,3,11.9,5.2,11.9,11.8C1486.2,1785.7,1479.9,1788.3,1473,1788.3z"/>
</g>
<g>
	<path class="st0" d="M2303.4,1459.5v-19.9c0-7.1-2.2-9.7-6.8-9.7c-4.7,0-6.8,3.3-6.8,9v20.7h-6.9v-19.9c0-7.1-2.2-9.7-6.8-9.7
		s-6.8,3.3-6.8,9v20.7h-6.9v-35.2h6.9v3.3c1.8-2.6,4.8-4.1,8.4-4.1c4.8,0,7.8,1.9,9.7,5.2c2.6-3.2,5.3-5.2,10.9-5.2
		c8.2,0,12.1,5.4,12.1,15.8v20.3h-7V1459.5z"/>
	<path class="st0" d="M2348.6,1444.3h-23.4c0.7,6.8,4.5,9.7,8.9,9.7c3,0,5.3-1,7.6-2.8l4.1,4.4c-3.1,3-6.8,4.7-12.2,4.7
		c-8.3,0-15.3-6.6-15.3-18.3c0-12,6.3-18.4,15.5-18.4c10,0,14.9,8.2,14.9,17.7C2348.9,1442.4,2348.8,1443.6,2348.6,1444.3z
		 M2333.6,1429.7c-4.7,0-7.4,3.2-8.1,8.9h16.4C2341.5,1433.7,2339.2,1429.7,2333.6,1429.7z"/>
	<path class="st0" d="M2368.3,1460.2c-4.8,0-9.9-1.9-13.5-4.5l3.2-5.3c3.3,2.3,7,3.5,10.2,3.5c4.3,0,6.4-1.4,6.4-3.9
		c0-2.7-3.1-3.9-8.2-5.9c-7.5-3-10.3-5.5-10.3-11.1c0-6.3,5-9.6,12-9.6c4.4,0,8.8,1.7,12,3.9l-3,5.3c-2.9-2-5.8-3-9.1-3
		s-4.9,1.3-4.9,3.2c0,1.8,1.2,3,6.5,5.1c7.9,3,11.9,5.2,11.9,11.8C2381.5,1457.6,2375.1,1460.2,2368.3,1460.2z"/>
	<path class="st0" d="M2401,1460.2c-4.8,0-9.9-1.9-13.5-4.5l3.2-5.3c3.3,2.3,7,3.5,10.2,3.5c4.3,0,6.4-1.4,6.4-3.9
		c0-2.7-3.1-3.9-8.2-5.9c-7.5-3-10.3-5.5-10.3-11.1c0-6.3,5-9.6,12-9.6c4.4,0,8.8,1.7,12,3.9l-3,5.3c-2.9-2-5.8-3-9.1-3
		s-4.9,1.3-4.9,3.2c0,1.8,1.2,3,6.5,5.1c7.9,3,11.9,5.2,11.9,11.8C2414.3,1457.6,2408,1460.2,2401,1460.2z"/>
	<path class="st0" d="M2443.1,1459.5v-3.5c-2.4,2.4-5.9,4.2-9.7,4.2c-5.7,0-12.2-3.2-12.2-11.9c0-7.9,6.1-11.5,14.1-11.5
		c3.3,0,5.9,0.5,7.9,1.3v-2.6c0-3.8-2.4-6-6.6-6c-3.6,0-6.4,0.7-9.2,2.2l-2.7-5.3c3.3-2.1,7.1-3.2,12.1-3.2
		c7.9,0,13.2,3.8,13.2,11.8v24.2h-6.8L2443.1,1459.5L2443.1,1459.5z M2443.1,1444.4c-1.9-0.9-4.3-1.6-8.1-1.6
		c-4.4,0-7.2,2.1-7.2,5.3c0,3.5,2.2,5.9,6.8,5.9c3.7,0,6.9-2.3,8.6-4.5v-5.1L2443.1,1444.4L2443.1,1444.4z"/>
	<path class="st0" d="M2471.2,1472.4l-2.4-5.3c9.9-0.5,12.1-3.2,12.1-10.4v-0.6c-2.6,2.4-5.5,4.1-9.1,4.1c-7.5,0-13.5-5.5-13.5-18.9
		c0-12.1,6.6-17.8,14-17.8c3.5,0,6.9,1.9,8.8,4v-3.3h6.9v31.9C2487.8,1466.8,2484,1472,2471.2,1472.4z M2481.1,1434.5
		c-1.6-2.1-4.8-4.7-8.3-4.7c-5,0-7.6,3.7-7.6,11.3c0,8.9,2.8,12.8,8,12.8c3.3,0,6.2-2.2,8-4.5L2481.1,1434.5L2481.1,1434.5z"/>
	<path class="st0" d="M2526.5,1444.3h-23.4c0.7,6.8,4.5,9.7,8.9,9.7c3,0,5.3-1,7.6-2.8l4.1,4.4c-3.1,3-6.8,4.7-12.2,4.7
		c-8.3,0-15.3-6.6-15.3-18.3c0-12,6.3-18.4,15.5-18.4c10,0,14.9,8.2,14.9,17.7C2526.7,1442.4,2526.6,1443.6,2526.5,1444.3z
		 M2511.4,1429.7c-4.7,0-7.4,3.2-8.1,8.9h16.4C2519.4,1433.7,2517.1,1429.7,2511.4,1429.7z"/>
	<path class="st0" d="M2546,1460.2c-4.8,0-9.9-1.9-13.5-4.5l3.2-5.3c3.3,2.3,7,3.5,10.2,3.5c4.3,0,6.4-1.4,6.4-3.9
		c0-2.7-3.1-3.9-8.2-5.9c-7.5-3-10.3-5.5-10.3-11.1c0-6.3,5-9.6,12-9.6c4.4,0,8.8,1.7,12,3.9l-3,5.3c-2.9-2-5.8-3-9.1-3
		s-4.9,1.3-4.9,3.2c0,1.8,1.2,3,6.5,5.1c7.9,3,11.9,5.2,11.9,11.8C2559.3,1457.6,2553,1460.2,2546,1460.2z"/>
</g>
<g>
	<g>
		<path class="st0" d="M929.7,593.7c-0.9-1.4-2.4-2.1-4.2-2.1h-47.3v-39.9c0-1.2-0.6-2.6-1.5-3.5s-2.1-1.5-3.5-1.5h-126
			c-1.4-6.5-2.7-12.9-4.1-19.4c-0.5-2.3-2.4-3.9-4.8-3.9h-58.1c-2.3,0-4.4,1.7-4.8,3.9c-1.4,6.5-2.7,12.9-4.1,19.4h-21
			c-1.4,0-2.6,0.6-3.5,1.5s-1.5,2.1-1.5,3.5v153.6l0.1,0.2c0,0.6,0.2,1.2,0.3,1.7c0.1,0.2,0.1,0.2,0.1,0.5c0.2,0.2,0.2,0.5,0.5,0.5
			c0.2,0.5,0.3,0.5,0.5,0.8c0.2,0.2,0.2,0.2,0.2,0.2v0.2c0.5,0.3,0.9,0.6,1.4,0.9c0.1,0,0.3,0.1,0.5,0.1c0.6,0.2,1.2,0.5,1.7,0.5
			h222.8c0.6,0,1.2-0.1,1.7-0.5c0.2,0,0.5-0.1,0.5-0.1c0.5-0.3,0.8-0.6,1.2-0.9c0,0,0.2,0,0.2-0.2c0.2,0,0.2,0,0.2,0
			c0.5-0.5,0.6-0.9,0.9-1.4c17.4-36.3,34.8-72.5,52.2-108.8C930.8,597.2,930.6,595.4,929.7,593.7L929.7,593.7z M667.4,579.9
			c-1.4,0-2.4,1.2-2.4,2.4c0,1.4,1.1,2.4,2.4,2.4h201.2v6.5H667.4c-1.4,0-2.4,1.1-2.4,2.4c0,1.4,1.1,2.4,2.4,2.4h30.2
			c-0.9,2.1-2,4.2-3,6.5h-27c-1.4,0-2.4,1.2-2.4,2.4c0,1.4,1.1,2.4,2.4,2.4h24.6l-3.2,6.5h-21.6c-1.4,0-2.4,1.1-2.4,2.4
			c0,1.2,1.1,2.4,2.4,2.4h19.4c-1.1,2.1-2.1,4.2-3.2,6.3h-16.2c-1.4,0-2.4,1.2-2.4,2.4c0,1.4,1.1,2.4,2.4,2.4h13.8
			c-0.9,2.1-2,4.2-3,6.5h-10.8c-1.4,0-2.4,1.1-2.4,2.4c0,1.5,1.1,2.4,2.4,2.4h8.6l-3.2,6.5h-5.4c-1.4,0-2.4,1.1-2.4,2.4
			s1.1,2.4,2.4,2.4h3c-0.9,2.1-2,4.2-3,6.3l0,0c-1.4,0-2.4,1.2-2.4,2.4c0,0.6,0.2,1.2,0.6,1.5c-3.3,7.1-6.6,14-9.9,20.9V556.1l0,0
			h20c2.4,0,4.4-1.7,4.8-3.9c1.4-6.5,2.7-12.9,4.1-19.5h50.1c1.4,6.5,2.7,12.9,4.1,19.5c0.5,2.1,2.4,3.9,4.8,3.9h125.3V580
			 M870.3,700.4h-212c15.9-33,31.7-66,47.6-99h212C902,634.4,886.1,667.4,870.3,700.4L870.3,700.4z M825,693.4h38.3
			c0.9,0,1.8-0.6,2.3-1.4l12.2-25.2c0.6-1.4,0-2.7-1.2-3.3s-2.7-0.2-3.3,1.2c-3.8,8-7.7,15.9-11.4,23.9H825c-1.4,0-2.4,1.2-2.4,2.4
			C822.5,692.3,823.5,693.4,825,693.4L825,693.4z"/>
	</g>
</g>
<g>
	<g>
		<path class="st0" d="M2859.9,98.9c-0.9-1.4-2.4-2.1-4.2-2.1h-47.3V56.9c0-1.2-0.6-2.6-1.5-3.5s-2.1-1.5-3.5-1.5h-126.2
			c-1.4-6.5-2.7-12.9-4.1-19.4c-0.4-2.3-2.4-3.9-4.8-3.9h-58.1c-2.3,0-4.4,1.7-4.8,3.9c-1.4,6.5-2.7,12.9-4.1,19.4h-21
			c-1.4,0-2.6,0.6-3.5,1.5s-1.5,2.1-1.5,3.5v153.6l0.2,0.2c0,0.6,0.1,1.2,0.3,1.7c0.2,0.2,0.2,0.2,0.2,0.5c0.1,0.2,0.1,0.4,0.4,0.4
			c0.2,0.5,0.3,0.5,0.5,0.8c0.1,0.2,0.1,0.2,0.1,0.2v0.2c0.4,0.3,0.9,0.6,1.4,0.9c0.1,0,0.3,0.2,0.4,0.2c0.6,0.2,1.2,0.5,1.7,0.5
			h222.8c0.6,0,1.2-0.2,1.7-0.5c0.2,0,0.4-0.2,0.4-0.2c0.5-0.3,0.8-0.6,1.2-0.9c0,0,0.1,0,0.1-0.2c0.2,0,0.2,0,0.2,0
			c0.4-0.5,0.6-0.9,0.9-1.4c17.4-36.3,34.8-72.5,52.2-108.8C2861,102.4,2860.8,100.6,2859.9,98.9L2859.9,98.9z M2597.6,85.1
			c-1.4,0-2.4,1.2-2.4,2.4c0,1.4,1.1,2.4,2.4,2.4h201.2v6.5h-201.2c-1.4,0-2.4,1.1-2.4,2.4c0,1.4,1.1,2.4,2.4,2.4h30.2
			c-0.9,2.1-2,4.2-3,6.5h-27c-1.4,0-2.4,1.2-2.4,2.4c0,1.4,1.1,2.4,2.4,2.4h24.6l-3.2,6.5h-21.6c-1.4,0-2.4,1.1-2.4,2.4
			c0,1.2,1.1,2.4,2.4,2.4h19.4c-1.1,2.1-2.1,4.2-3.2,6.3h-16.2c-1.4,0-2.4,1.2-2.4,2.4c0,1.4,1.1,2.4,2.4,2.4h13.8
			c-0.9,2.1-2,4.2-3,6.5h-10.8c-1.4,0-2.4,1.1-2.4,2.4c0,1.5,1.1,2.4,2.4,2.4h8.6l-3.2,6.5h-5.4c-1.4,0-2.4,1.1-2.4,2.4
			c0,1.4,1.1,2.4,2.4,2.4h3c-0.9,2.1-2,4.2-3,6.3l0,0c-1.4,0-2.4,1.2-2.4,2.4c0,0.6,0.1,1.2,0.6,1.5c-3.3,7.1-6.6,14-9.9,20.9V61.3
			l0,0h20c2.4,0,4.4-1.7,4.8-3.9c1.4-6.5,2.7-12.9,4.1-19.5h50.1c1.4,6.5,2.7,12.9,4.1,19.5c0.5,2.1,2.4,3.9,4.8,3.9h125.1v23.9
			 M2800.5,205.6h-212c15.9-33,31.7-66,47.6-99h212C2832.2,139.6,2816.3,172.6,2800.5,205.6L2800.5,205.6z M2755.2,198.5h38.3
			c0.9,0,1.8-0.6,2.2-1.4l12.2-25.1c0.6-1.4,0-2.7-1.2-3.3s-2.7-0.2-3.3,1.2c-3.8,8-7.7,15.9-11.4,23.9h-36.8
			c-1.4,0-2.4,1.2-2.4,2.4C2752.7,197.5,2753.7,198.5,2755.2,198.5L2755.2,198.5z"/>
	</g>
</g>
<g>
	<g>
		<path class="st0" d="M2551.3,328.4c-0.9-1.4-2.4-2.1-4.2-2.1h-47.2v-39.9c0-1.2-0.6-2.6-1.5-3.5s-2.1-1.5-3.5-1.5h-126.2
			c-1.4-6.5-2.7-12.9-4.1-19.4c-0.4-2.3-2.4-3.9-4.8-3.9h-57.9c-2.2,0-4.4,1.7-4.8,3.9c-1.4,6.5-2.7,12.9-4.1,19.4h-21
			c-1.4,0-2.6,0.6-3.5,1.5s-1.5,2.1-1.5,3.5V440l0.2,0.2c0,0.6,0.1,1.2,0.3,1.7c0.1,0.2,0.1,0.2,0.1,0.5c0.2,0.2,0.2,0.5,0.4,0.5
			c0.2,0.5,0.3,0.5,0.5,0.8c0.1,0.2,0.1,0.2,0.1,0.2v0.2c0.5,0.3,0.9,0.6,1.4,0.9c0.2,0,0.3,0.2,0.5,0.2c0.6,0.2,1.2,0.5,1.6,0.5
			h222.8c0.6,0,1.2-0.2,1.7-0.5c0.2,0,0.5-0.2,0.5-0.2c0.4-0.3,0.8-0.6,1.2-0.9c0,0,0.2,0,0.2-0.2c0.1,0,0.1,0,0.1,0
			c0.4-0.5,0.6-0.9,0.9-1.4c17.4-36.3,34.8-72.5,52.2-108.8C2552.4,331.8,2552.2,330,2551.3,328.4L2551.3,328.4z M2289,314.6
			c-1.3,0-2.4,1.2-2.4,2.4c0,1.4,1.1,2.4,2.4,2.4h201.2v6.5H2289c-1.3,0-2.4,1.1-2.4,2.4s1.1,2.4,2.4,2.4h30.2c-0.9,2.1-2,4.2-3,6.5
			h-27c-1.4,0-2.4,1.2-2.4,2.4c0,1.4,1.1,2.4,2.4,2.4h24.6l-3.2,6.5H2289c-1.3,0-2.4,1.1-2.4,2.4c0,1.2,1.1,2.4,2.4,2.4h19.4
			c-1.1,2.1-2.1,4.2-3.2,6.3H2289c-1.4,0-2.4,1.2-2.4,2.4c0,1.4,1.1,2.4,2.4,2.4h13.8c-0.9,2.1-2,4.2-3,6.5H2289
			c-1.4,0-2.4,1.1-2.4,2.4c0,1.5,1.1,2.4,2.4,2.4h8.6l-3.2,6.5h-5.4c-1.4,0-2.4,1.1-2.4,2.4s1.1,2.4,2.4,2.4h3c-0.9,2.1-2,4.2-3,6.3
			l0,0c-1.4,0-2.4,1.2-2.4,2.4c0,0.6,0.2,1.2,0.6,1.5c-3.3,7.1-6.6,14-9.9,20.9V290.7l0,0h20c2.4,0,4.4-1.7,4.8-3.9
			c1.4-6.5,2.7-12.9,4.1-19.5h50.1c1.4,6.5,2.7,12.9,4.1,19.5c0.4,2.1,2.4,3.9,4.8,3.9h125.3v23.9 M2491.9,435.1h-212
			c15.9-33,31.7-66,47.6-99h212C2523.6,369,2507.7,402,2491.9,435.1L2491.9,435.1z M2446.6,428h38.3c0.9,0,1.8-0.6,2.3-1.4
			l12.2-25.2c0.6-1.4,0-2.7-1.2-3.3c-1.2-0.6-2.7-0.2-3.3,1.2c-3.8,8-7.7,15.9-11.4,23.9h-36.8c-1.4,0-2.4,1.2-2.4,2.4
			C2444.1,427,2445.1,428,2446.6,428L2446.6,428z"/>
	</g>
</g>
<g>
	<g>
		<path class="st0" d="M3181,328.4c-0.9-1.4-2.4-2.1-4.2-2.1h-47.3v-39.9c0-1.2-0.6-2.6-1.5-3.5s-2.1-1.5-3.5-1.5h-126.2
			c-1.4-6.5-2.7-12.9-4.1-19.4c-0.4-2.3-2.4-3.9-4.8-3.9h-58.1c-2.3,0-4.4,1.7-4.8,3.9c-1.4,6.5-2.7,12.9-4.1,19.4h-21
			c-1.4,0-2.6,0.6-3.5,1.5s-1.5,2.1-1.5,3.5V440l0.2,0.2c0,0.6,0.1,1.2,0.3,1.7c0.2,0.2,0.2,0.2,0.2,0.5c0.1,0.2,0.1,0.5,0.4,0.5
			c0.2,0.5,0.3,0.5,0.5,0.8c0.1,0.2,0.1,0.2,0.1,0.2v0.2c0.4,0.3,0.9,0.6,1.4,0.9c0.1,0,0.3,0.2,0.4,0.2c0.6,0.2,1.2,0.5,1.7,0.5
			h222.8c0.6,0,1.2-0.2,1.7-0.5c0.2,0,0.4-0.2,0.4-0.2c0.5-0.3,0.8-0.6,1.2-0.9c0,0,0.1,0,0.1-0.2c0.2,0,0.2,0,0.2,0
			c0.4-0.5,0.6-0.9,0.9-1.4c17.4-36.3,34.8-72.5,52.2-108.8C3182.1,331.8,3181.9,330,3181,328.4L3181,328.4z M2918.7,314.6
			c-1.4,0-2.4,1.2-2.4,2.4c0,1.4,1.1,2.4,2.4,2.4h201.2v6.5h-201.2c-1.4,0-2.4,1.1-2.4,2.4s1.1,2.4,2.4,2.4h30.2
			c-0.9,2.1-2,4.2-3,6.5h-27c-1.4,0-2.4,1.2-2.4,2.4c0,1.4,1.1,2.4,2.4,2.4h24.6l-3.2,6.5h-21.6c-1.4,0-2.4,1.1-2.4,2.4
			c0,1.2,1.1,2.4,2.4,2.4h19.4c-1.1,2.1-2.1,4.2-3.2,6.3h-16.2c-1.4,0-2.4,1.2-2.4,2.4c0,1.4,1.1,2.4,2.4,2.4h13.8
			c-0.9,2.1-2,4.2-3,6.5h-10.8c-1.4,0-2.4,1.1-2.4,2.4c0,1.5,1.1,2.4,2.4,2.4h8.6l-3.2,6.5h-5.4c-1.4,0-2.4,1.1-2.4,2.4
			s1.1,2.4,2.4,2.4h3c-0.9,2.1-2,4.2-3,6.3l0,0c-1.4,0-2.4,1.2-2.4,2.4c0,0.6,0.1,1.2,0.6,1.5c-3.3,7.1-6.6,14-9.9,20.9V290.7l0,0
			h20c2.4,0,4.4-1.7,4.8-3.9c1.4-6.5,2.7-12.9,4.1-19.5h50.1c1.4,6.5,2.7,12.9,4.1,19.5c0.5,2.1,2.4,3.9,4.8,3.9h125.3v23.9
			 M3121.6,435.1h-212c15.9-33,31.7-66,47.6-99h212C3153.3,369,3137.4,402,3121.6,435.1L3121.6,435.1z M3076.3,428h38.3
			c0.9,0,1.8-0.6,2.2-1.4l12.2-25.2c0.6-1.4,0-2.7-1.2-3.3c-1.2-0.6-2.7-0.2-3.3,1.2c-3.8,8-7.7,15.9-11.4,23.9h-36.8
			c-1.4,0-2.4,1.2-2.4,2.4C3073.8,427,3074.8,428,3076.3,428L3076.3,428z"/>
	</g>
</g>
<g>
	<g>
		<path class="st0" d="M3452.9,598.5c-0.9-1.4-2.4-2.1-4.2-2.1h-47.3v-39.9c0-1.2-0.6-2.6-1.5-3.5s-2.1-1.5-3.5-1.5h-126.2
			c-1.4-6.5-2.7-12.9-4.1-19.4c-0.4-2.3-2.4-3.9-4.8-3.9h-58.1c-2.3,0-4.4,1.7-4.8,3.9c-1.4,6.5-2.7,12.9-4.1,19.4h-21
			c-1.4,0-2.6,0.6-3.5,1.5s-1.5,2.1-1.5,3.5v153.6l0.2,0.2c0,0.6,0.1,1.2,0.3,1.7c0.2,0.2,0.2,0.2,0.2,0.5c0.1,0.2,0.1,0.5,0.4,0.5
			c0.2,0.5,0.3,0.5,0.5,0.8c0.1,0.2,0.1,0.2,0.1,0.2v0.2c0.4,0.3,0.9,0.6,1.4,0.9c0.1,0,0.3,0.2,0.4,0.2c0.6,0.2,1.2,0.5,1.7,0.5
			h222.8c0.6,0,1.2-0.2,1.7-0.5c0.2,0,0.4-0.2,0.4-0.2c0.5-0.3,0.8-0.6,1.2-0.9c0,0,0.1,0,0.1-0.2c0.2,0,0.2,0,0.2,0
			c0.4-0.5,0.6-0.9,0.9-1.4c17.4-36.3,34.8-72.5,52.2-108.8C3454,601.9,3453.8,600.1,3452.9,598.5L3452.9,598.5z M3190.6,584.7
			c-1.4,0-2.4,1.2-2.4,2.4c0,1.4,1.1,2.4,2.4,2.4h201.2v6.5h-201.2c-1.4,0-2.4,1.1-2.4,2.4s1.1,2.4,2.4,2.4h30.2
			c-0.9,2.1-2,4.2-3,6.5h-27c-1.4,0-2.4,1.2-2.4,2.4c0,1.4,1.1,2.4,2.4,2.4h24.6l-3.2,6.5h-21.6c-1.4,0-2.4,1.1-2.4,2.4
			c0,1.2,1.1,2.4,2.4,2.4h19.4c-1.1,2.1-2.1,4.2-3.2,6.3h-16.2c-1.4,0-2.4,1.2-2.4,2.4c0,1.4,1.1,2.4,2.4,2.4h13.8
			c-0.9,2.1-2,4.2-3,6.5h-10.8c-1.4,0-2.4,1.1-2.4,2.4c0,1.5,1.1,2.4,2.4,2.4h8.6l-3.2,6.5h-5.4c-1.4,0-2.4,1.1-2.4,2.4
			s1.1,2.4,2.4,2.4h3c-0.9,2.1-2,4.2-3,6.3l0,0c-1.4,0-2.4,1.2-2.4,2.4c0,0.6,0.1,1.2,0.6,1.5c-3.3,7.1-6.6,14-9.9,20.9V560.8l0,0
			h20c2.4,0,4.4-1.7,4.8-3.9c1.4-6.5,2.7-12.9,4.1-19.5h50.1c1.4,6.5,2.7,12.9,4.1,19.5c0.5,2.1,2.4,3.9,4.8,3.9h125.1v23.9
			 M3393.5,705.1h-212c15.9-33,31.7-66,47.6-99h212C3425.2,639.1,3409.3,672.1,3393.5,705.1L3393.5,705.1z M3348.2,698.1h38.3
			c0.9,0,1.8-0.6,2.2-1.4l12.2-25.2c0.6-1.4,0-2.7-1.2-3.3s-2.7-0.2-3.3,1.2c-3.8,8-7.7,15.9-11.4,23.9h-36.8
			c-1.4,0-2.4,1.2-2.4,2.4C3345.7,697,3346.7,698.1,3348.2,698.1L3348.2,698.1z"/>
	</g>
</g>
<g>
	<g>
		<path class="st0" d="M3452.9,919.2c-0.9-1.4-2.4-2.1-4.2-2.1h-47.3v-39.9c0-1.2-0.6-2.6-1.5-3.5s-2.1-1.5-3.5-1.5h-126.2
			c-1.4-6.5-2.7-12.9-4.1-19.4c-0.4-2.3-2.4-3.9-4.8-3.9h-58.1c-2.3,0-4.4,1.7-4.8,3.9c-1.4,6.5-2.7,12.9-4.1,19.4h-21
			c-1.4,0-2.6,0.6-3.5,1.5s-1.5,2.1-1.5,3.5v153.6l0.2,0.2c0,0.6,0.1,1.2,0.3,1.7c0.2,0.2,0.2,0.2,0.2,0.5c0.1,0.1,0.1,0.4,0.4,0.4
			c0.2,0.4,0.3,0.4,0.5,0.8c0.1,0.2,0.1,0.2,0.1,0.2v0.2c0.4,0.3,0.9,0.6,1.4,0.9c0.1,0,0.3,0.2,0.4,0.2c0.6,0.2,1.2,0.4,1.7,0.4
			h222.8c0.6,0,1.2-0.2,1.7-0.4c0.2,0,0.4-0.2,0.4-0.2c0.5-0.3,0.8-0.6,1.2-0.9c0,0,0.1,0,0.1-0.2c0.2,0,0.2,0,0.2,0
			c0.4-0.4,0.6-0.9,0.9-1.3c17.4-36.3,34.8-72.5,52.2-108.8C3454,922.6,3453.8,920.8,3452.9,919.2L3452.9,919.2z M3190.6,905.4
			c-1.4,0-2.4,1.2-2.4,2.4c0,1.4,1.1,2.4,2.4,2.4h201.2v6.5h-201.2c-1.4,0-2.4,1.1-2.4,2.4s1.1,2.4,2.4,2.4h30.2
			c-0.9,2.1-2,4.2-3,6.5h-27c-1.4,0-2.4,1.2-2.4,2.4c0,1.4,1.1,2.4,2.4,2.4h24.6l-3.2,6.5h-21.6c-1.4,0-2.4,1.1-2.4,2.4
			c0,1.2,1.1,2.4,2.4,2.4h19.4c-1.1,2.1-2.1,4.2-3.2,6.3h-16.2c-1.4,0-2.4,1.2-2.4,2.4c0,1.4,1.1,2.4,2.4,2.4h13.8
			c-0.9,2.1-2,4.2-3,6.5h-10.8c-1.4,0-2.4,1.1-2.4,2.4c0,1.5,1.1,2.4,2.4,2.4h8.6l-3.2,6.5h-5.4c-1.4,0-2.4,1.1-2.4,2.4
			s1.1,2.4,2.4,2.4h3c-0.9,2.1-2,4.2-3,6.3l0,0c-1.4,0-2.4,1.2-2.4,2.4c0,0.6,0.1,1.2,0.6,1.5c-3.3,7.1-6.6,14-9.9,20.9V881.5l0,0
			h20c2.4,0,4.4-1.7,4.8-3.9c1.4-6.5,2.7-12.9,4.1-19.5h50.1c1.4,6.5,2.7,12.9,4.1,19.5c0.5,2.1,2.4,3.9,4.8,3.9h125.1v23.9
			 M3393.5,1025.8h-212c15.9-33,31.7-66,47.6-99h212C3425.2,959.8,3409.3,992.8,3393.5,1025.8L3393.5,1025.8z M3348.2,1018.8h38.3
			c0.9,0,1.8-0.6,2.2-1.4l12.2-25.2c0.6-1.4,0-2.7-1.2-3.3s-2.7-0.2-3.3,1.2c-3.8,8-7.7,15.9-11.4,23.9h-36.8
			c-1.4,0-2.4,1.2-2.4,2.4C3345.7,1017.7,3346.7,1018.8,3348.2,1018.8L3348.2,1018.8z"/>
	</g>
</g>
<g>
	<g>
		<path class="st0" d="M3452.9,1251.2c-0.9-1.4-2.4-2.1-4.2-2.1h-47.3v-39.9c0-1.2-0.6-2.6-1.5-3.5s-2.1-1.5-3.5-1.5h-126.2
			c-1.4-6.5-2.7-12.9-4.1-19.4c-0.4-2.3-2.4-3.9-4.8-3.9h-58.1c-2.3,0-4.4,1.7-4.8,3.9c-1.4,6.5-2.7,12.9-4.1,19.4h-21
			c-1.4,0-2.6,0.6-3.5,1.5s-1.5,2.1-1.5,3.5v153.6l0.2,0.2c0,0.6,0.1,1.2,0.3,1.7c0.2,0.2,0.2,0.2,0.2,0.4c0.1,0.2,0.1,0.5,0.4,0.5
			c0.2,0.4,0.3,0.4,0.5,0.8c0.1,0.2,0.1,0.2,0.1,0.2v0.2c0.4,0.3,0.9,0.6,1.4,0.9c0.1,0,0.3,0.2,0.4,0.2c0.6,0.2,1.2,0.4,1.7,0.4
			h222.8c0.6,0,1.2-0.2,1.7-0.4c0.2,0,0.4-0.2,0.4-0.2c0.5-0.3,0.8-0.6,1.2-0.9c0,0,0.1,0,0.1-0.2c0.2,0,0.2,0,0.2,0
			c0.4-0.4,0.6-0.9,0.9-1.4c17.4-36.3,34.8-72.5,52.2-108.8C3454,1254.7,3453.8,1252.9,3452.9,1251.2L3452.9,1251.2z M3190.6,1237.4
			c-1.4,0-2.4,1.2-2.4,2.4c0,1.4,1.1,2.4,2.4,2.4h201.2v6.5h-201.2c-1.4,0-2.4,1.1-2.4,2.4s1.1,2.4,2.4,2.4h30.2
			c-0.9,2.1-2,4.2-3,6.5h-27c-1.4,0-2.4,1.2-2.4,2.4c0,1.4,1.1,2.4,2.4,2.4h24.6l-3.2,6.5h-21.6c-1.4,0-2.4,1.1-2.4,2.4
			c0,1.2,1.1,2.4,2.4,2.4h19.4c-1.1,2.1-2.1,4.2-3.2,6.3h-16.2c-1.4,0-2.4,1.2-2.4,2.4c0,1.4,1.1,2.4,2.4,2.4h13.8
			c-0.9,2.1-2,4.2-3,6.5h-10.8c-1.4,0-2.4,1.1-2.4,2.4c0,1.5,1.1,2.4,2.4,2.4h8.6l-3.2,6.5h-5.4c-1.4,0-2.4,1.1-2.4,2.4
			s1.1,2.4,2.4,2.4h3c-0.9,2.1-2,4.2-3,6.3l0,0c-1.4,0-2.4,1.2-2.4,2.4c0,0.6,0.1,1.2,0.6,1.5c-3.3,7.1-6.6,14-9.9,20.9v-127.1l0,0
			h20c2.4,0,4.4-1.7,4.8-3.9c1.4-6.5,2.7-12.9,4.1-19.5h50.1c1.4,6.5,2.7,12.9,4.1,19.5c0.5,2.1,2.4,3.9,4.8,3.9h125.1v23.9
			 M3393.5,1357.9h-212c15.9-33,31.7-66,47.6-99h212C3425.2,1291.9,3409.3,1324.9,3393.5,1357.9L3393.5,1357.9z M3348.2,1350.8h38.3
			c0.9,0,1.8-0.6,2.2-1.4l12.2-25.2c0.6-1.4,0-2.7-1.2-3.3c-1.2-0.6-2.7-0.2-3.3,1.2c-3.8,8-7.7,15.9-11.4,23.9h-36.8
			c-1.4,0-2.4,1.2-2.4,2.4C3345.7,1349.8,3346.7,1350.8,3348.2,1350.8L3348.2,1350.8z"/>
	</g>
</g>
<g>
	<g>
		<path class="st0" d="M2551.3,769.7c-0.9-1.4-2.4-2.1-4.2-2.1h-47.2v-39.9c0-1.2-0.6-2.6-1.5-3.5s-2.1-1.5-3.5-1.5h-126.2
			c-1.4-6.5-2.7-12.9-4.1-19.4c-0.4-2.3-2.4-3.9-4.8-3.9h-57.9c-2.2,0-4.4,1.7-4.8,3.9c-1.4,6.5-2.7,12.9-4.1,19.4h-21
			c-1.4,0-2.6,0.6-3.5,1.5s-1.5,2.1-1.5,3.5v153.6l0.2,0.2c0,0.6,0.1,1.2,0.3,1.7c0.1,0.2,0.1,0.2,0.1,0.5c0.2,0.2,0.2,0.5,0.4,0.5
			c0.2,0.5,0.3,0.5,0.5,0.8c0.1,0.2,0.1,0.2,0.1,0.2v0.2c0.5,0.3,0.9,0.6,1.4,0.9c0.2,0,0.3,0.2,0.5,0.2c0.6,0.2,1.2,0.5,1.6,0.5
			h222.8c0.6,0,1.2-0.2,1.7-0.5c0.2,0,0.5-0.2,0.5-0.2c0.4-0.3,0.8-0.6,1.2-0.9c0,0,0.2,0,0.2-0.2c0.1,0,0.1,0,0.1,0
			c0.4-0.5,0.6-0.9,0.9-1.4c17.4-36.3,34.8-72.5,52.2-108.8C2552.4,773.1,2552.2,771.3,2551.3,769.7L2551.3,769.7z M2289,755.9
			c-1.3,0-2.4,1.2-2.4,2.4c0,1.4,1.1,2.4,2.4,2.4h201.2v6.5H2289c-1.3,0-2.4,1.1-2.4,2.4s1.1,2.4,2.4,2.4h30.2c-0.9,2.1-2,4.2-3,6.5
			h-27c-1.4,0-2.4,1.2-2.4,2.4c0,1.4,1.1,2.4,2.4,2.4h24.6l-3.2,6.5H2289c-1.3,0-2.4,1.1-2.4,2.4c0,1.2,1.1,2.4,2.4,2.4h19.4
			c-1.1,2.1-2.1,4.2-3.2,6.3H2289c-1.4,0-2.4,1.2-2.4,2.4c0,1.4,1.1,2.4,2.4,2.4h13.8c-0.9,2.1-2,4.2-3,6.5H2289
			c-1.4,0-2.4,1.1-2.4,2.4c0,1.5,1.1,2.4,2.4,2.4h8.6l-3.2,6.5h-5.4c-1.4,0-2.4,1.1-2.4,2.4s1.1,2.4,2.4,2.4h3c-0.9,2.1-2,4.2-3,6.3
			l0,0c-1.4,0-2.4,1.2-2.4,2.4c0,0.6,0.2,1.2,0.6,1.5c-3.3,7.1-6.6,14-9.9,20.9V732l0,0h20c2.4,0,4.4-1.7,4.8-3.9
			c1.4-6.5,2.7-12.9,4.1-19.5h50.1c1.4,6.5,2.7,12.9,4.1,19.5c0.4,2.1,2.4,3.9,4.8,3.9h125.3v23.9 M2491.9,876.3h-212
			c15.9-33,31.7-66,47.6-99h212C2523.6,810.3,2507.7,843.3,2491.9,876.3L2491.9,876.3z M2446.6,869.3h38.3c0.9,0,1.8-0.6,2.3-1.4
			l12.2-25.2c0.6-1.4,0-2.7-1.2-3.3s-2.7-0.2-3.3,1.2c-3.8,8-7.7,15.9-11.4,23.9h-36.8c-1.4,0-2.4,1.2-2.4,2.4
			C2444.1,868.2,2445.1,869.3,2446.6,869.3L2446.6,869.3z"/>
	</g>
</g>
<g>
	<path class="st0" d="M400.2,506.7v-20.2c0-7.2-2.7-9.8-7.3-9.8c-4.7,0-7.3,3.3-7.3,9.1v20.9h-7v-45.9l7-3.7v17.3
		c1.8-2.6,5.3-4.1,9-4.1c8.3,0,12.7,5.4,12.7,16v20.5H400.2z"/>
	<path class="st0" d="M431.2,507.4c-9,0-15.7-7.4-15.7-18.6c0-11.7,6.9-18.6,15.9-18.6c9.1,0,15.9,7.3,15.9,18.4
		C447.3,500.5,440.4,507.4,431.2,507.4z M431.2,476.9c-5.3,0-8.6,4.7-8.6,11.8c0,7.8,3.6,12.1,8.9,12.1c5.3,0,8.8-5.4,8.8-11.9
		C440.3,481.6,436.8,476.9,431.2,476.9z"/>
	<path class="st0" d="M497.5,506.7v-20.2c0-7.2-2.2-9.8-6.9-9.8c-4.7,0-6.9,3.3-6.9,9.1v20.9h-7v-20.2c0-7.2-2.2-9.8-6.9-9.8
		c-4.7,0-6.9,3.3-6.9,9.1v20.9h-7V471h7v3.4c1.8-2.6,4.8-4.1,8.5-4.1c4.8,0,7.9,1.8,9.8,5.2c2.6-3.2,5.4-5.2,10.9-5.2
		c8.3,0,12.2,5.4,12.2,16v20.5H497.5z"/>
	<path class="st0" d="M543.3,491.3h-23.6c0.7,6.9,4.6,9.8,9,9.8c3,0,5.4-1.1,7.8-2.9l4.1,4.5c-3.1,3-6.9,4.7-12.3,4.7
		c-8.4,0-15.4-6.7-15.4-18.6c0-12.1,6.4-18.6,15.6-18.6c10.1,0,15,8.2,15,17.9C543.5,489.4,543.4,490.6,543.3,491.3z M528,476.6
		c-4.7,0-7.5,3.3-8.2,9h16.6C536.1,480.7,533.8,476.6,528,476.6z"/>
</g>
<g>
	<path class="st0" d="M2964.6,506.7v-20.2c0-7.2-2.7-9.8-7.3-9.8c-4.7,0-7.3,3.3-7.3,9.1v20.9h-7v-45.9l7-3.7v17.3
		c1.8-2.6,5.3-4.1,9-4.1c8.3,0,12.7,5.4,12.7,16v20.5H2964.6z"/>
	<path class="st0" d="M2995.6,507.4c-9,0-15.7-7.4-15.7-18.6c0-11.7,6.9-18.6,15.9-18.6c9.1,0,15.9,7.3,15.9,18.4
		C3011.8,500.5,3004.8,507.4,2995.6,507.4z M2995.6,476.9c-5.3,0-8.6,4.7-8.6,11.8c0,7.8,3.6,12.1,8.9,12.1c5.3,0,8.8-5.4,8.8-11.9
		C3004.7,481.6,3001.2,476.9,2995.6,476.9z"/>
	<path class="st0" d="M3061.9,506.7v-20.2c0-7.2-2.2-9.8-6.9-9.8c-4.7,0-6.9,3.3-6.9,9.1v20.9h-7v-20.2c0-7.2-2.2-9.8-6.9-9.8
		c-4.7,0-6.9,3.3-6.9,9.1v20.9h-7V471h7v3.4c1.8-2.6,4.8-4.1,8.5-4.1c4.8,0,7.9,1.8,9.8,5.2c2.6-3.2,5.4-5.2,10.9-5.2
		c8.3,0,12.2,5.4,12.2,16v20.5H3061.9z"/>
	<path class="st0" d="M3107.7,491.3h-23.6c0.7,6.9,4.6,9.8,9,9.8c3,0,5.4-1.1,7.8-2.9l4.1,4.5c-3.1,3-6.9,4.7-12.3,4.7
		c-8.4,0-15.4-6.7-15.4-18.6c0-12.1,6.4-18.6,15.6-18.6c10.1,0,15,8.2,15,17.9C3107.9,489.4,3107.8,490.6,3107.7,491.3z
		 M3092.4,476.6c-4.7,0-7.5,3.3-8.2,9h16.6C3100.5,480.7,3098.2,476.6,3092.4,476.6z"/>
</g>
</svg>
