<?xml version="1.0" encoding="utf-8"?>
<!-- Generator: Adobe Illustrator 21.0.0, SVG Export Plug-In . SVG Version: 6.00 Build 0)  -->
<svg version="1.1" id="Layer_1" xmlns="http://www.w3.org/2000/svg" xmlns:xlink="http://www.w3.org/1999/xlink" x="0px" y="0px"
	 width="3101px" height="2140.7px" viewBox="0 0 3101 2140.7" style="enable-background:new 0 0 3101 2140.7;" xml:space="preserve"
	>
<style type="text/css">
	.st0{fill:none;}
	.st1{fill:#4D4C4D;}
	.st2{fill:#8AD4E9;}
	.st3{fill:#0088CE;}
	.st4{fill:none;stroke:#4D4C4D;stroke-width:2;stroke-miterlimit:10;}
	.st5{fill:#FFFFFF;}
	.st6{fill:#8AD4E9;stroke:#FFFFFF;stroke-miterlimit:10;}
</style>
<g>
	<rect x="359.3" y="689.8" class="st0" width="188.7" height="61.8"/>
	<path class="st1" d="M374,695c-1.9,0-2.7,0.7-2.7,2.9v3.4h5.4v5.4h-5.4v24h-5.8v-24h-3.8v-5.4h3.8v-3.9c0-5.4,3.3-7.4,7.4-7.4
		c1.5,0,3.1,0.2,4.4,0.6v5C376,695.1,375,695,374,695z"/>
	<path class="st1" d="M394.2,731.2c-7.4,0-12.9-6.1-12.9-15.3c0-9.6,5.7-15.3,13.1-15.3c7.5,0,13.1,6,13.1,15.2
		C407.4,725.5,401.7,731.2,394.2,731.2z M394.1,706c-4.4,0-7.1,3.9-7.1,9.7c0,6.4,3,10,7.3,10c4.4,0,7.2-4.4,7.2-9.8
		C401.6,709.9,398.8,706,394.1,706z"/>
	<path class="st1" d="M430.5,707.3c-1.2-0.7-2.5-1.1-4.4-1.1c-3.6,0-5.8,2.6-5.8,7.6v16.8h-5.8v-29.4h5.8v2.8c1.3-2,3.8-3.4,6.7-3.4
		c2.4,0,3.8,0.4,5,1.2L430.5,707.3z"/>
	<path class="st1" d="M454.7,730.6l-6.5-14.6l-4.5,5.9v8.7H438v-37.8l5.8-3v18.5c0,1.8-0.1,4.8-0.1,6.3c0.8-1.2,2.3-3.4,3.2-4.8
		l6.1-8.6h6.6l-7.4,9.9l8.8,19.5H454.7z"/>
</g>
<g>
	<rect x="826" y="689.6" class="st0" width="264" height="62"/>
	<path class="st1" d="M889.2,731c-4,0-8.3-1.6-11.3-3.8l2.6-4.4c2.7,1.9,5.8,2.9,8.6,2.9c3.6,0,5.4-1.2,5.4-3.2
		c0-2.2-2.6-3.3-6.8-4.9c-6.3-2.5-8.6-4.6-8.6-9.2c0-5.3,4.1-8,10-8c3.7,0,7.3,1.3,10,3.2l-2.5,4.4c-2.4-1.7-4.8-2.5-7.6-2.5
		s-4,1.1-4,2.7c0,1.5,1,2.5,5.4,4.3c6.6,2.5,9.9,4.3,9.9,9.9C900.2,728.9,895,731,889.2,731z"/>
	<path class="st1" d="M925.3,730.4v-2.8c-1.5,2.1-4.4,3.4-7.4,3.4c-6.8,0-10.5-4.5-10.5-13.2v-16.9h5.8v16.6c0,5.9,2.2,8.1,6,8.1
		c3.9,0,6-2.7,6-7.5v-17.2h5.8v29.4L925.3,730.4L925.3,730.4z"/>
	<path class="st1" d="M949.1,731c-4,0-8.3-1.6-11.3-3.8l2.6-4.4c2.7,1.9,5.8,2.9,8.6,2.9c3.6,0,5.4-1.2,5.4-3.2
		c0-2.2-2.6-3.3-6.8-4.9c-6.3-2.5-8.6-4.6-8.6-9.2c0-5.3,4.1-8,10-8c3.7,0,7.3,1.3,10,3.2l-2.5,4.4c-2.4-1.7-4.8-2.5-7.6-2.5
		s-4,1.1-4,2.7c0,1.5,1,2.5,5.4,4.3c6.6,2.5,9.9,4.3,9.9,9.9C960.1,728.9,954.8,731,949.1,731z"/>
	<path class="st1" d="M980.6,731c-3,0-5.8-1.6-7.4-3.4v10.6l-5.7,3V701h5.7v2.8c2.1-2,4.6-3.4,7.7-3.4c6.3,0,11.3,4.6,11.3,15.8
		C992.2,726.3,986.7,731,980.6,731z M979.8,705.7c-2.7,0-5.2,1.8-6.7,3.8v12.4c1.3,1.7,4,3.9,6.9,3.9c4.1,0,6.4-3.1,6.4-9.4
		C986.4,709,984.1,705.7,979.8,705.7z"/>
	<path class="st1" d="M1023.1,717.8h-19.4c0.6,5.7,3.8,8.1,7.4,8.1c2.5,0,4.4-0.9,6.4-2.4l3.4,3.7c-2.6,2.5-5.7,3.9-10.1,3.9
		c-6.9,0-12.7-5.5-12.7-15.3c0-10,5.3-15.3,12.9-15.3c8.3,0,12.4,6.8,12.4,14.7C1023.2,716.2,1023.1,717.2,1023.1,717.8z
		 M1010.5,705.6c-3.9,0-6.2,2.7-6.7,7.4h13.7C1017.1,709,1015.2,705.6,1010.5,705.6z"/>
	<path class="st1" d="M1048.3,730.4v-16.6c0-5.9-2.2-8.1-6-8.1c-3.9,0-6,2.7-6,7.5v17.2h-5.8V701h5.8v2.8c1.5-2.1,4.4-3.4,7.4-3.4
		c6.8,0,10.5,4.5,10.5,13.2v16.9L1048.3,730.4L1048.3,730.4z"/>
	<path class="st1" d="M1080,730.4v-2.8c-2.1,2-4.6,3.4-7.7,3.4c-6.3,0-11.3-4.6-11.3-15.8c0-10.1,5.5-14.8,11.6-14.8
		c3,0,5.8,1.6,7.4,3.4v-11.2l5.7-3v40.8H1080z M1080.1,709.6c-1.3-1.7-4-3.9-6.9-3.9c-4.1,0-6.4,3.1-6.4,9.4
		c0,7.4,2.4,10.6,6.6,10.6c2.7,0,5.2-1.8,6.7-3.8L1080.1,709.6L1080.1,709.6z"/>
</g>
<g>
	<rect x="568" y="986.6" class="st0" width="264" height="62"/>
	<path class="st1" d="M616.5,1028c-4,0-8.3-1.6-11.3-3.8l2.6-4.4c2.7,1.9,5.8,2.9,8.6,2.9c3.6,0,5.4-1.2,5.4-3.2
		c0-2.2-2.6-3.3-6.8-4.9c-6.3-2.5-8.6-4.6-8.6-9.2c0-5.3,4.1-8,10-8c3.7,0,7.3,1.3,10,3.2l-2.5,4.4c-2.4-1.7-4.8-2.5-7.6-2.5
		s-4,1.1-4,2.7c0,1.5,1,2.5,5.4,4.3c6.6,2.5,9.9,4.3,9.9,9.9C627.5,1025.9,622.3,1028,616.5,1028z"/>
	<path class="st1" d="M652.9,1006.5c-2.4-2.5-4.5-3.6-7.2-3.6c-4.2,0-6.9,3.8-6.9,9.7c0,5.8,2.5,9.9,7.1,9.9c2.7,0,4.4-1.2,6.7-3.6
		l3.7,3.6c-2.3,2.9-5.2,5.5-10.5,5.5c-7.2,0-12.7-6-12.7-15.2c0-9.7,5.7-15.4,12.9-15.4c4.3,0,7.7,1.7,10.4,5L652.9,1006.5z"/>
	<path class="st1" d="M681.5,1027.4v-16.6c0-5.9-2.2-8.1-6-8.1c-3.9,0-6,2.7-6,7.5v17.2h-5.8v-37.8l5.8-3v14.2
		c1.5-2.1,4.4-3.4,7.4-3.4c6.8,0,10.5,4.5,10.5,13.2v16.9L681.5,1027.4L681.5,1027.4z"/>
	<path class="st1" d="M719.2,1014.8h-19.4c0.6,5.7,3.8,8.1,7.4,8.1c2.5,0,4.4-0.9,6.4-2.4l3.4,3.7c-2.6,2.5-5.7,3.9-10.1,3.9
		c-6.9,0-12.7-5.5-12.7-15.3c0-10,5.3-15.3,12.9-15.3c8.3,0,12.4,6.8,12.4,14.7C719.4,1013.2,719.3,1014.2,719.2,1014.8z
		 M706.6,1002.6c-3.9,0-6.2,2.7-6.7,7.4h13.7C713.3,1006,711.4,1002.6,706.6,1002.6z"/>
	<path class="st1" d="M744.2,1027.4v-2.8c-2.1,2-4.6,3.4-7.7,3.4c-6.3,0-11.3-4.6-11.3-15.8c0-10.1,5.5-14.8,11.6-14.8
		c3,0,5.8,1.6,7.4,3.4v-11.2l5.7-3v40.8H744.2z M744.3,1006.6c-1.3-1.7-4-3.9-6.9-3.9c-4.1,0-6.4,3.1-6.4,9.4
		c0,7.4,2.4,10.6,6.6,10.6c2.7,0,5.2-1.8,6.7-3.8L744.3,1006.6L744.3,1006.6z"/>
	<path class="st1" d="M776.1,1027.4v-2.8c-1.5,2.1-4.4,3.4-7.4,3.4c-6.8,0-10.5-4.5-10.5-13.2v-16.9h5.8v16.6c0,5.9,2.2,8.1,6,8.1
		c3.9,0,6-2.7,6-7.5v-17.2h5.8v29.4L776.1,1027.4L776.1,1027.4z"/>
	<path class="st1" d="M790.7,1027.4v-37.8l5.8-3v40.8H790.7z"/>
	<path class="st1" d="M828.9,1014.8h-19.4c0.6,5.7,3.8,8.1,7.4,8.1c2.5,0,4.4-0.9,6.4-2.4l3.4,3.7c-2.6,2.5-5.7,3.9-10.1,3.9
		c-6.9,0-12.7-5.5-12.7-15.3c0-10,5.3-15.3,12.9-15.3c8.3,0,12.4,6.8,12.4,14.7C829.1,1013.2,829,1014.2,828.9,1014.8z
		 M816.3,1002.6c-3.9,0-6.2,2.7-6.7,7.4h13.7C823,1006,821.1,1002.6,816.3,1002.6z"/>
</g>
<g>
	<rect x="1190" y="689.6" class="st0" width="264" height="62"/>
	<path class="st1" d="M1210.2,707.1c-1.2-0.7-2.5-1.1-4.4-1.1c-3.6,0-5.8,2.6-5.8,7.6v16.8h-5.8V701h5.8v2.8c1.3-2,3.8-3.4,6.7-3.4
		c2.4,0,3.8,0.4,5,1.2L1210.2,707.1z"/>
	<path class="st1" d="M1240,717.8h-19.4c0.6,5.7,3.8,8.1,7.4,8.1c2.5,0,4.4-0.9,6.4-2.4l3.4,3.7c-2.6,2.5-5.7,3.9-10.1,3.9
		c-6.9,0-12.7-5.5-12.7-15.3c0-10,5.3-15.3,12.9-15.3c8.3,0,12.4,6.8,12.4,14.7C1240.1,716.2,1240,717.2,1240,717.8z M1227.4,705.6
		c-3.9,0-6.2,2.7-6.7,7.4h13.7C1234,709,1232.1,705.6,1227.4,705.6z"/>
	<path class="st1" d="M1256.3,731c-4,0-8.3-1.6-11.3-3.8l2.6-4.4c2.7,1.9,5.8,2.9,8.6,2.9c3.6,0,5.4-1.2,5.4-3.2
		c0-2.2-2.6-3.3-6.8-4.9c-6.3-2.5-8.6-4.6-8.6-9.2c0-5.3,4.1-8,10-8c3.7,0,7.3,1.3,10,3.2l-2.5,4.4c-2.4-1.7-4.8-2.5-7.6-2.5
		c-2.8,0-4,1.1-4,2.7c0,1.5,1,2.5,5.4,4.3c6.6,2.5,9.9,4.3,9.9,9.9C1267.3,728.9,1262,731,1256.3,731z"/>
	<path class="st1" d="M1292.3,730.4v-2.8c-1.5,2.1-4.4,3.4-7.4,3.4c-6.8,0-10.5-4.5-10.5-13.2v-16.9h5.8v16.6c0,5.9,2.2,8.1,6,8.1
		c3.9,0,6-2.7,6-7.5v-17.2h5.8v29.4L1292.3,730.4L1292.3,730.4z"/>
	<path class="st1" d="M1340.8,730.4v-16.6c0-5.9-1.8-8.1-5.7-8.1c-3.9,0-5.7,2.7-5.7,7.5v17.2h-5.8v-16.6c0-5.9-1.8-8.1-5.7-8.1
		c-3.9,0-5.7,2.7-5.7,7.5v17.2h-5.8V701h5.8v2.8c1.5-2.1,4-3.4,7-3.4c4,0,6.5,1.5,8.1,4.3c2.1-2.6,4.4-4.3,9-4.3
		c6.8,0,10.1,4.5,10.1,13.2v16.9L1340.8,730.4L1340.8,730.4z"/>
	<path class="st1" d="M1378.5,717.8h-19.4c0.6,5.7,3.8,8.1,7.4,8.1c2.5,0,4.4-0.9,6.4-2.4l3.4,3.7c-2.6,2.5-5.7,3.9-10.1,3.9
		c-6.9,0-12.7-5.5-12.7-15.3c0-10,5.3-15.3,12.9-15.3c8.3,0,12.4,6.8,12.4,14.7C1378.7,716.2,1378.6,717.2,1378.5,717.8z
		 M1365.9,705.6c-3.9,0-6.2,2.7-6.7,7.4h13.7C1372.6,709,1370.7,705.6,1365.9,705.6z"/>
</g>
<g>
	<rect x="1618" y="689.6" class="st0" width="264" height="62"/>
	<path class="st1" d="M1723.1,731c-4,0-8.3-1.6-11.3-3.8l2.6-4.4c2.7,1.9,5.8,2.9,8.6,2.9c3.6,0,5.4-1.2,5.4-3.2
		c0-2.2-2.6-3.3-6.8-4.9c-6.3-2.5-8.6-4.6-8.6-9.2c0-5.3,4.1-8,10-8c3.7,0,7.3,1.3,10,3.2l-2.5,4.4c-2.4-1.7-4.8-2.5-7.6-2.5
		c-2.8,0-4,1.1-4,2.7c0,1.5,1,2.5,5.4,4.3c6.6,2.5,9.9,4.3,9.9,9.9C1734.1,728.9,1728.8,731,1723.1,731z"/>
	<path class="st1" d="M1750.4,740.8h-6.1l4.3-10.9l-10.8-28.8h6.3l4.8,14.4c0.9,2.6,2.2,6.9,2.6,8.6c0.5-1.7,1.7-5.9,2.6-8.5l5-14.5
		h6.1L1750.4,740.8z"/>
	<path class="st1" d="M1779.6,731c-4,0-8.3-1.6-11.3-3.8l2.6-4.4c2.7,1.9,5.8,2.9,8.6,2.9c3.6,0,5.4-1.2,5.4-3.2
		c0-2.2-2.6-3.3-6.8-4.9c-6.3-2.5-8.6-4.6-8.6-9.2c0-5.3,4.1-8,10-8c3.7,0,7.3,1.3,10,3.2l-2.5,4.4c-2.4-1.7-4.8-2.5-7.6-2.5
		c-2.8,0-4,1.1-4,2.7c0,1.5,1,2.5,5.4,4.3c6.6,2.5,9.9,4.3,9.9,9.9C1790.7,728.9,1785.4,731,1779.6,731z"/>
	<path class="st1" d="M1816,709.5c-2.4-2.5-4.5-3.6-7.2-3.6c-4.2,0-6.9,3.8-6.9,9.7c0,5.8,2.5,9.9,7.1,9.9c2.7,0,4.4-1.2,6.7-3.6
		l3.7,3.6c-2.3,2.9-5.2,5.5-10.5,5.5c-7.2,0-12.7-6-12.7-15.2c0-9.7,5.7-15.4,12.9-15.4c4.3,0,7.7,1.7,10.4,5L1816,709.5z"/>
	<path class="st1" d="M1842.6,730.4v-2.9c-2,2-4.9,3.5-8.1,3.5c-4.8,0-10.2-2.7-10.2-9.9c0-6.6,5-9.5,11.7-9.5
		c2.7,0,4.9,0.4,6.6,1.1v-2.2c0-3.2-2-5-5.5-5c-3,0-5.4,0.6-7.7,1.8l-2.2-4.4c2.8-1.7,5.9-2.6,10.1-2.6c6.6,0,11,3.2,11,9.9v20.2
		H1842.6z M1842.6,717.9c-1.6-0.8-3.6-1.3-6.7-1.3c-3.7,0-6,1.7-6,4.4c0,2.9,1.8,4.9,5.7,4.9c3.1,0,5.8-1.9,7.1-3.8L1842.6,717.9
		L1842.6,717.9z"/>
	<path class="st1" d="M1856.9,730.4v-37.8l5.8-3v40.8H1856.9z"/>
	<path class="st1" d="M1871.7,730.4v-37.8l5.8-3v40.8H1871.7z"/>
</g>
<g>
	<rect x="1982" y="689.6" class="st0" width="264" height="62"/>
	<path class="st1" d="M2002.2,707.1c-1.2-0.7-2.5-1.1-4.4-1.1c-3.6,0-5.8,2.6-5.8,7.6v16.8h-5.8V701h5.8v2.8c1.3-2,3.8-3.4,6.7-3.4
		c2.4,0,3.8,0.4,5,1.2L2002.2,707.1z"/>
	<path class="st1" d="M2032,717.8h-19.4c0.6,5.7,3.8,8.1,7.4,8.1c2.5,0,4.4-0.9,6.4-2.4l3.4,3.7c-2.6,2.5-5.7,3.9-10.1,3.9
		c-6.9,0-12.7-5.5-12.7-15.3c0-10,5.3-15.3,12.9-15.3c8.3,0,12.4,6.8,12.4,14.7C2032.1,716.2,2032,717.2,2032,717.8z M2019.4,705.6
		c-3.9,0-6.2,2.7-6.7,7.4h13.7C2026,709,2024.1,705.6,2019.4,705.6z"/>
	<path class="st1" d="M2052.9,729.7c-1.4,0.8-3.4,1.3-5.7,1.3c-4.1,0-6.6-2.5-6.6-7.8v-17h-4.2v-5.3h4.2v-8.4l5.7-3v11.4h7.3v5.3
		h-7.3v16c0,2.7,0.9,3.5,3,3.5c1.5,0,3.2-0.6,4.3-1.2L2052.9,729.7z"/>
	<path class="st1" d="M2078.6,730.4v-2.8c-1.5,2.1-4.4,3.4-7.4,3.4c-6.8,0-10.5-4.5-10.5-13.2v-16.9h5.8v16.6c0,5.9,2.2,8.1,6,8.1
		c3.9,0,6-2.7,6-7.5v-17.2h5.8v29.4L2078.6,730.4L2078.6,730.4z"/>
	<path class="st1" d="M2108.8,707.1c-1.2-0.7-2.5-1.1-4.4-1.1c-3.6,0-5.8,2.6-5.8,7.6v16.8h-5.8V701h5.8v2.8c1.3-2,3.8-3.4,6.7-3.4
		c2.4,0,3.8,0.4,5,1.2L2108.8,707.1z"/>
	<path class="st1" d="M2134.2,730.4v-16.6c0-5.9-2.2-8.1-6-8.1c-3.9,0-6,2.7-6,7.5v17.2h-5.8V701h5.8v2.8c1.5-2.1,4.4-3.4,7.4-3.4
		c6.8,0,10.5,4.5,10.5,13.2v16.9L2134.2,730.4L2134.2,730.4z"/>
</g>
<g>
	<rect x="2217" y="1010.6" class="st0" width="208" height="62"/>
	<path class="st1" d="M2300.6,1038.8h-19.4c0.6,5.7,3.8,8.1,7.4,8.1c2.5,0,4.4-0.9,6.4-2.4l3.4,3.7c-2.6,2.5-5.7,3.9-10.1,3.9
		c-6.9,0-12.7-5.5-12.7-15.3c0-10,5.3-15.3,12.9-15.3c8.3,0,12.4,6.8,12.4,14.7C2300.8,1037.2,2300.7,1038.2,2300.6,1038.8z
		 M2288,1026.6c-3.9,0-6.2,2.7-6.7,7.4h13.7C2294.7,1030,2292.8,1026.6,2288,1026.6z"/>
	<path class="st1" d="M2322.8,1051.4l-2.8-5.1c-1.2-2.1-2.5-4.8-3.1-5.9c-0.5,1.1-2.1,4-3.2,6l-2.9,5h-6.5l9.2-15.2l-8.6-14.2h6.7
		l2.3,4.1c1.2,2.1,2.6,4.8,3.1,5.9c0.6-1.1,2-3.9,3.1-6l2.2-4h6.6l-8.7,14.2l9.3,15.2H2322.8z"/>
	<path class="st1" d="M2339.4,1018.2c-2.1,0-3.8-1.7-3.8-3.7c0-2.1,1.7-3.8,3.8-3.8c2,0,3.7,1.7,3.7,3.8
		C2343.1,1016.5,2341.4,1018.2,2339.4,1018.2z M2336.5,1051.4V1022h5.8v29.4H2336.5z"/>
	<path class="st1" d="M2365.1,1050.7c-1.4,0.8-3.4,1.3-5.7,1.3c-4.1,0-6.6-2.5-6.6-7.8v-17h-4.2v-5.3h4.2v-8.4l5.7-3v11.4h7.3v5.3
		h-7.3v16c0,2.7,0.9,3.5,3,3.5c1.5,0,3.2-0.6,4.3-1.2L2365.1,1050.7z"/>
</g>
<g>
	<rect x="1896" y="1365.6" class="st0" width="208" height="62"/>
	<path class="st1" d="M1977.2,1406.4h-4.9l-4-14.8c-0.6-2.2-1.2-4.9-1.5-6.3c-0.3,1.4-0.9,4.1-1.5,6.3l-3.9,14.8h-4.9l-8.1-29.4h5.7
		l3.5,14.3c0.6,2.2,1.2,5,1.5,6.4c0.3-1.5,1-4.1,1.6-6.4l3.9-14.3h4.6l4,14.3c0.6,2.3,1.2,4.9,1.6,6.4c0.3-1.5,0.9-4.2,1.5-6.4
		l3.5-14.3h5.7L1977.2,1406.4z"/>
	<path class="st1" d="M2006.8,1406.4v-2.9c-2,2-4.9,3.5-8.1,3.5c-4.8,0-10.2-2.7-10.2-9.9c0-6.6,5-9.5,11.7-9.5
		c2.7,0,4.9,0.4,6.6,1.1v-2.2c0-3.2-2-5-5.5-5c-3,0-5.4,0.6-7.7,1.8l-2.2-4.4c2.8-1.7,5.9-2.6,10.1-2.6c6.6,0,11,3.2,11,9.9v20.2
		H2006.8z M2006.8,1393.9c-1.6-0.8-3.6-1.3-6.7-1.3c-3.7,0-6,1.7-6,4.4c0,2.9,1.8,4.9,5.7,4.9c3.1,0,5.8-1.9,7.1-3.8L2006.8,1393.9
		L2006.8,1393.9z"/>
	<path class="st1" d="M2023.9,1373.2c-2.1,0-3.8-1.7-3.8-3.7c0-2.1,1.7-3.8,3.8-3.8c2,0,3.7,1.7,3.7,3.8
		C2027.6,1371.5,2025.9,1373.2,2023.9,1373.2z M2021,1406.4V1377h5.8v29.4H2021z"/>
	<path class="st1" d="M2049.6,1405.7c-1.4,0.8-3.4,1.3-5.7,1.3c-4.1,0-6.6-2.5-6.6-7.8v-17h-4.2v-5.3h4.2v-8.4l5.7-3v11.4h7.3v5.3
		h-7.3v16c0,2.7,0.9,3.5,3,3.5c1.5,0,3.2-0.6,4.3-1.2L2049.6,1405.7z"/>
</g>
<g>
	<rect x="784" y="1491.6" class="st0" width="349" height="128"/>
	<path class="st1" d="M879,1519.8h-19.4c0.6,5.7,3.8,8.1,7.4,8.1c2.5,0,4.4-0.9,6.4-2.4l3.4,3.7c-2.6,2.5-5.7,3.9-10.1,3.9
		c-6.9,0-12.7-5.5-12.7-15.3c0-10,5.3-15.3,12.9-15.3c8.3,0,12.4,6.8,12.4,14.7C879.2,1518.2,879.1,1519.2,879,1519.8z
		 M866.4,1507.6c-3.9,0-6.2,2.7-6.7,7.4h13.7C873.1,1511,871.2,1507.6,866.4,1507.6z"/>
	<path class="st1" d="M899,1532.4h-5.8l-10.5-29.4h6l5.3,16c1,2.9,1.8,5.6,2.2,7.2c0.3-1.6,1.1-4.4,2-7.2l5-16h6.1L899,1532.4z"/>
	<path class="st1" d="M938.2,1519.8h-19.4c0.6,5.7,3.8,8.1,7.4,8.1c2.5,0,4.4-0.9,6.4-2.4l3.4,3.7c-2.6,2.5-5.7,3.9-10.1,3.9
		c-6.9,0-12.7-5.5-12.7-15.3c0-10,5.3-15.3,12.9-15.3c8.3,0,12.4,6.8,12.4,14.7C938.3,1518.2,938.2,1519.2,938.2,1519.8z
		 M925.6,1507.6c-3.9,0-6.2,2.7-6.7,7.4h13.7C932.2,1511,930.3,1507.6,925.6,1507.6z"/>
	<path class="st1" d="M963.4,1532.4v-16.6c0-5.9-2.2-8.1-6-8.1c-3.9,0-6,2.7-6,7.5v17.2h-5.8V1503h5.8v2.8c1.5-2.1,4.4-3.4,7.4-3.4
		c6.8,0,10.5,4.5,10.5,13.2v16.9L963.4,1532.4L963.4,1532.4z"/>
	<path class="st1" d="M991.2,1531.7c-1.4,0.8-3.4,1.3-5.7,1.3c-4.1,0-6.6-2.5-6.6-7.8v-17h-4.2v-5.3h4.2v-8.4l5.7-3v11.4h7.3v5.3
		h-7.3v16c0,2.7,0.9,3.5,3,3.5c1.5,0,3.2-0.6,4.3-1.2L991.2,1531.7z"/>
	<path class="st1" d="M1026.4,1533c-7.4,0-12.9-6.1-12.9-15.3c0-9.6,5.7-15.3,13.1-15.3c7.5,0,13.1,6,13.1,15.2
		C1039.6,1527.3,1033.9,1533,1026.4,1533z M1026.3,1507.9c-4.4,0-7.1,3.9-7.1,9.7c0,6.4,3,10,7.3,10s7.2-4.4,7.2-9.8
		C1033.8,1511.8,1031,1507.9,1026.3,1507.9z"/>
	<path class="st1" d="M1062.7,1509.1c-1.2-0.7-2.5-1.1-4.4-1.1c-3.6,0-5.8,2.6-5.8,7.6v16.8h-5.8V1503h5.8v2.8
		c1.3-2,3.8-3.4,6.7-3.4c2.4,0,3.8,0.4,5,1.2L1062.7,1509.1z"/>
	<path class="st1" d="M896.1,1600.2c-4,0-8.3-1.6-11.3-3.8l2.6-4.4c2.7,1.9,5.8,2.9,8.6,2.9c3.6,0,5.4-1.2,5.4-3.2
		c0-2.2-2.6-3.3-6.8-4.9c-6.3-2.5-8.6-4.6-8.6-9.2c0-5.3,4.1-8,10-8c3.7,0,7.3,1.3,10,3.2l-2.5,4.4c-2.4-1.7-4.8-2.5-7.6-2.5
		s-4,1.1-4,2.7c0,1.5,1,2.5,5.4,4.3c6.6,2.5,9.9,4.3,9.9,9.9C907.2,1598.1,901.9,1600.2,896.1,1600.2z"/>
	<path class="st1" d="M917.8,1566.4c-2.1,0-3.8-1.7-3.8-3.7c0-2.1,1.7-3.8,3.8-3.8c2,0,3.7,1.7,3.7,3.8
		C921.5,1564.7,919.8,1566.4,917.8,1566.4z M914.8,1599.6v-29.4h5.8v29.4H914.8z"/>
	<path class="st1" d="M938.9,1610.4l-2-4.4c8.3-0.4,10.1-2.6,10.1-8.7v-0.5c-2.1,2-4.5,3.4-7.6,3.4c-6.3,0-11.3-4.6-11.3-15.8
		c0-10.1,5.5-14.8,11.6-14.8c3,0,5.8,1.6,7.3,3.4v-2.7h5.8v26.6C952.8,1605.8,949.6,1610.1,938.9,1610.4z M947.2,1578.8
		c-1.3-1.7-4-3.9-6.9-3.9c-4.1,0-6.4,3.1-6.4,9.4c0,7.4,2.4,10.6,6.6,10.6c2.7,0,5.2-1.8,6.7-3.8L947.2,1578.8L947.2,1578.8z"/>
	<path class="st1" d="M979.2,1599.6V1583c0-5.9-2.2-8.1-6-8.1c-3.9,0-6,2.7-6,7.5v17.2h-5.8v-29.4h5.8v2.8c1.5-2.1,4.4-3.4,7.4-3.4
		c6.8,0,10.5,4.5,10.5,13.2v16.9L979.2,1599.6L979.2,1599.6z"/>
	<path class="st1" d="M1010.1,1599.6v-2.9c-2,2-4.9,3.5-8.1,3.5c-4.8,0-10.2-2.7-10.2-9.9c0-6.6,5-9.5,11.7-9.5
		c2.7,0,4.9,0.4,6.6,1.1v-2.2c0-3.2-2-5-5.5-5c-3,0-5.4,0.6-7.7,1.8l-2.2-4.4c2.8-1.7,5.9-2.6,10.1-2.6c6.6,0,11,3.2,11,9.9v20.2
		H1010.1z M1010.1,1587.1c-1.6-0.8-3.6-1.3-6.7-1.3c-3.7,0-6,1.7-6,4.4c0,2.9,1.8,4.9,5.7,4.9c3.1,0,5.8-1.9,7.1-3.8L1010.1,1587.1
		L1010.1,1587.1z"/>
	<path class="st1" d="M1024.3,1599.6v-37.8l5.8-3v40.8H1024.3z"/>
</g>
<g>
	<rect x="1477" y="976.6" class="st0" width="208" height="62"/>
	<path class="st1" d="M1497.2,994.1c-1.2-0.7-2.5-1.1-4.4-1.1c-3.6,0-5.8,2.6-5.8,7.6v16.8h-5.8V988h5.8v2.8c1.3-2,3.8-3.4,6.7-3.4
		c2.4,0,3.8,0.4,5,1.2L1497.2,994.1z"/>
	<path class="st1" d="M1522.3,1017.4v-2.8c-1.5,2.1-4.4,3.4-7.4,3.4c-6.8,0-10.5-4.5-10.5-13.2v-16.9h5.8v16.6c0,5.9,2.2,8.1,6,8.1
		c3.9,0,6-2.7,6-7.5v-17.2h5.8v29.4L1522.3,1017.4L1522.3,1017.4z"/>
	<path class="st1" d="M1554.4,1017.4v-16.6c0-5.9-2.2-8.1-6-8.1c-3.9,0-6,2.7-6,7.5v17.2h-5.8V988h5.8v2.8c1.5-2.1,4.4-3.4,7.4-3.4
		c6.8,0,10.5,4.5,10.5,13.2v16.9L1554.4,1017.4L1554.4,1017.4z"/>
</g>
<g>
	<rect x="1353" y="1136.4" class="st0" width="363" height="134.8"/>
	<path class="st1" d="M1407.4,1177.8c-3,0-5.8-1.6-7.4-3.4v10.6l-5.7,3v-40.2h5.7v2.8c2.1-2,4.6-3.4,7.7-3.4
		c6.3,0,11.3,4.6,11.3,15.8C1419,1173.1,1413.5,1177.8,1407.4,1177.8z M1406.6,1152.5c-2.7,0-5.2,1.8-6.7,3.8v12.4
		c1.3,1.7,4,3.9,6.9,3.9c4.1,0,6.4-3.1,6.4-9.4C1413.3,1155.8,1410.9,1152.5,1406.6,1152.5z"/>
	<path class="st1" d="M1442.2,1153.9c-1.2-0.7-2.5-1.1-4.4-1.1c-3.6,0-5.8,2.6-5.8,7.6v16.8h-5.8v-29.4h5.8v2.8
		c1.3-2,3.8-3.4,6.7-3.4c2.4,0,3.8,0.4,5,1.2L1442.2,1153.9z"/>
	<path class="st1" d="M1471.9,1164.6h-19.4c0.6,5.7,3.8,8.1,7.4,8.1c2.5,0,4.4-0.9,6.4-2.4l3.4,3.7c-2.6,2.5-5.7,3.9-10.1,3.9
		c-6.9,0-12.7-5.5-12.7-15.3c0-10,5.3-15.3,12.9-15.3c8.3,0,12.4,6.8,12.4,14.7C1472.1,1163,1472,1163.9,1471.9,1164.6z
		 M1459.3,1152.4c-3.9,0-6.2,2.7-6.7,7.4h13.7C1466,1155.8,1464.1,1152.4,1459.3,1152.4z"/>
	<path class="st1" d="M1503,1164.6h-19.4c0.6,5.7,3.8,8.1,7.4,8.1c2.5,0,4.4-0.9,6.4-2.4l3.4,3.7c-2.6,2.5-5.7,3.9-10.1,3.9
		c-6.9,0-12.7-5.5-12.7-15.3c0-10,5.3-15.3,12.9-15.3c8.3,0,12.4,6.8,12.4,14.7C1503.1,1163,1503,1163.9,1503,1164.6z
		 M1490.4,1152.4c-3.9,0-6.2,2.7-6.7,7.4h13.7C1497,1155.8,1495.1,1152.4,1490.4,1152.4z"/>
	<path class="st1" d="M1544.5,1177.2v-16.6c0-5.9-1.8-8.1-5.7-8.1c-3.9,0-5.7,2.7-5.7,7.5v17.2h-5.8v-16.6c0-5.9-1.8-8.1-5.7-8.1
		c-3.9,0-5.7,2.7-5.7,7.5v17.2h-5.8v-29.4h5.8v2.8c1.5-2.1,4-3.4,7-3.4c4,0,6.5,1.5,8.1,4.3c2.1-2.6,4.4-4.3,9-4.3
		c6.8,0,10.1,4.5,10.1,13.2v16.9L1544.5,1177.2L1544.5,1177.2z"/>
	<path class="st1" d="M1571.6,1177.8c-3,0-5.8-1.6-7.4-3.4v10.6l-5.7,3v-40.2h5.7v2.8c2.1-2,4.6-3.4,7.7-3.4
		c6.3,0,11.3,4.6,11.3,15.8C1583.2,1173.1,1577.7,1177.8,1571.6,1177.8z M1570.8,1152.5c-2.7,0-5.2,1.8-6.7,3.8v12.4
		c1.3,1.7,4,3.9,6.9,3.9c4.1,0,6.4-3.1,6.4-9.4C1577.5,1155.8,1575.1,1152.5,1570.8,1152.5z"/>
	<path class="st1" d="M1604.2,1176.5c-1.4,0.8-3.4,1.3-5.7,1.3c-4.1,0-6.6-2.5-6.6-7.8v-17h-4.2v-5.3h4.2v-8.4l5.7-3v11.4h7.3v5.3
		h-7.3v16c0,2.7,0.9,3.5,3,3.5c1.5,0,3.2-0.6,4.3-1.2L1604.2,1176.5z"/>
	<path class="st1" d="M1639.4,1177.8c-7.4,0-12.9-6.1-12.9-15.3c0-9.6,5.7-15.3,13.1-15.3c7.5,0,13.1,6,13.1,15.2
		C1652.7,1172.1,1647,1177.8,1639.4,1177.8z M1639.3,1152.7c-4.4,0-7.1,3.9-7.1,9.7c0,6.4,3,10,7.3,10s7.2-4.4,7.2-9.8
		C1646.8,1156.6,1644,1152.7,1639.3,1152.7z"/>
	<path class="st1" d="M1675.7,1153.9c-1.2-0.7-2.5-1.1-4.4-1.1c-3.6,0-5.8,2.6-5.8,7.6v16.8h-5.8v-29.4h5.8v2.8
		c1.3-2,3.8-3.4,6.7-3.4c2.4,0,3.8,0.4,5,1.2L1675.7,1153.9z"/>
	<path class="st1" d="M1413.8,1221.1c-1.2-0.7-2.5-1.1-4.4-1.1c-3.6,0-5.8,2.6-5.8,7.6v16.8h-5.8V1215h5.8v2.8
		c1.3-2,3.8-3.4,6.7-3.4c2.4,0,3.8,0.4,5,1.2L1413.8,1221.1z"/>
	<path class="st1" d="M1443.6,1231.8h-19.4c0.6,5.7,3.8,8.1,7.4,8.1c2.5,0,4.4-0.9,6.4-2.4l3.4,3.7c-2.6,2.5-5.7,3.9-10.1,3.9
		c-6.9,0-12.7-5.5-12.7-15.3c0-10,5.3-15.3,12.9-15.3c8.3,0,12.4,6.8,12.4,14.7C1443.8,1230.2,1443.6,1231.1,1443.6,1231.8z
		 M1431,1219.6c-3.9,0-6.2,2.7-6.7,7.4h13.7C1437.7,1223,1435.8,1219.6,1431,1219.6z"/>
	<path class="st1" d="M1459.9,1245c-4,0-8.3-1.6-11.3-3.8l2.6-4.4c2.7,1.9,5.8,2.9,8.6,2.9c3.6,0,5.4-1.2,5.4-3.2
		c0-2.2-2.6-3.3-6.8-4.9c-6.3-2.5-8.6-4.6-8.6-9.2c0-5.3,4.1-8,10-8c3.7,0,7.3,1.3,10,3.2l-2.5,4.4c-2.4-1.7-4.8-2.5-7.6-2.5
		c-2.8,0-4,1.1-4,2.7c0,1.5,1,2.5,5.4,4.3c6.6,2.5,9.9,4.3,9.9,9.9C1470.9,1242.8,1465.7,1245,1459.9,1245z"/>
	<path class="st1" d="M1496.2,1223.5c-2.4-2.5-4.5-3.6-7.2-3.6c-4.2,0-6.9,3.8-6.9,9.7c0,5.8,2.5,9.9,7.1,9.9c2.7,0,4.4-1.2,6.7-3.6
		l3.7,3.6c-2.3,2.9-5.2,5.5-10.5,5.5c-7.2,0-12.7-6-12.7-15.2c0-9.7,5.7-15.4,12.9-15.4c4.3,0,7.7,1.7,10.4,5L1496.2,1223.5z"/>
	<path class="st1" d="M1524.8,1244.4v-16.6c0-5.9-2.2-8.1-6-8.1c-3.9,0-6,2.7-6,7.5v17.2h-5.8v-37.8l5.8-3v14.2
		c1.5-2.1,4.4-3.4,7.4-3.4c6.8,0,10.5,4.5,10.5,13.2v16.9L1524.8,1244.4L1524.8,1244.4z"/>
	<path class="st1" d="M1562.6,1231.8h-19.4c0.6,5.7,3.8,8.1,7.4,8.1c2.5,0,4.4-0.9,6.4-2.4l3.4,3.7c-2.6,2.5-5.7,3.9-10.1,3.9
		c-6.9,0-12.7-5.5-12.7-15.3c0-10,5.3-15.3,12.9-15.3c8.3,0,12.4,6.8,12.4,14.7C1562.8,1230.2,1562.6,1231.1,1562.6,1231.8z
		 M1550,1219.6c-3.9,0-6.2,2.7-6.7,7.4h13.7C1556.7,1223,1554.7,1219.6,1550,1219.6z"/>
	<path class="st1" d="M1587.6,1244.4v-2.8c-2.1,2-4.6,3.4-7.7,3.4c-6.3,0-11.3-4.6-11.3-15.8c0-10.1,5.5-14.8,11.6-14.8
		c3,0,5.8,1.6,7.4,3.4v-11.2l5.7-3v40.8H1587.6z M1587.7,1223.6c-1.3-1.7-4-3.9-6.9-3.9c-4.1,0-6.4,3.1-6.4,9.4
		c0,7.4,2.4,10.6,6.6,10.6c2.7,0,5.2-1.8,6.7-3.8L1587.7,1223.6L1587.7,1223.6z"/>
	<path class="st1" d="M1619.5,1244.4v-2.8c-1.5,2.1-4.4,3.4-7.4,3.4c-6.8,0-10.5-4.5-10.5-13.2v-16.9h5.8v16.6c0,5.9,2.2,8.1,6,8.1
		c3.9,0,6-2.7,6-7.5v-17.2h5.8v29.4L1619.5,1244.4L1619.5,1244.4z"/>
	<path class="st1" d="M1634,1244.4v-37.8l5.8-3v40.8H1634z"/>
	<path class="st1" d="M1672.3,1231.8h-19.4c0.6,5.7,3.8,8.1,7.4,8.1c2.5,0,4.4-0.9,6.4-2.4l3.4,3.7c-2.6,2.5-5.7,3.9-10.1,3.9
		c-6.9,0-12.7-5.5-12.7-15.3c0-10,5.3-15.3,12.9-15.3c8.3,0,12.4,6.8,12.4,14.7C1672.5,1230.2,1672.3,1231.1,1672.3,1231.8z
		 M1659.7,1219.6c-3.9,0-6.2,2.7-6.7,7.4h13.7C1666.4,1223,1664.4,1219.6,1659.7,1219.6z"/>
</g>
<g>
	<rect x="2438" y="689.6" class="st0" width="264" height="62"/>
	<path class="st1" d="M2606.9,707.1c-1.2-0.7-2.5-1.1-4.4-1.1c-3.6,0-5.8,2.6-5.8,7.6v16.8h-5.8V701h5.8v2.8c1.3-2,3.8-3.4,6.7-3.4
		c2.4,0,3.8,0.4,5,1.2L2606.9,707.1z"/>
	<path class="st1" d="M2636.6,717.8h-19.4c0.6,5.7,3.8,8.1,7.4,8.1c2.5,0,4.4-0.9,6.4-2.4l3.4,3.7c-2.6,2.5-5.7,3.9-10.1,3.9
		c-6.9,0-12.7-5.5-12.7-15.3c0-10,5.3-15.3,12.9-15.3c8.3,0,12.4,6.8,12.4,14.7C2636.8,716.2,2636.7,717.2,2636.6,717.8z
		 M2624,705.6c-3.9,0-6.2,2.7-6.7,7.4h13.7C2630.7,709,2628.8,705.6,2624,705.6z"/>
	<path class="st1" d="M2660.4,730.4v-2.9c-2,2-4.9,3.5-8.1,3.5c-4.8,0-10.2-2.7-10.2-9.9c0-6.6,5-9.5,11.7-9.5
		c2.7,0,4.9,0.4,6.6,1.1v-2.2c0-3.2-2-5-5.5-5c-3,0-5.4,0.6-7.7,1.8l-2.2-4.4c2.8-1.7,5.9-2.6,10.1-2.6c6.6,0,11,3.2,11,9.9v20.2
		H2660.4z M2660.4,717.9c-1.6-0.8-3.6-1.3-6.7-1.3c-3.7,0-6,1.7-6,4.4c0,2.9,1.8,4.9,5.7,4.9c3.1,0,5.8-1.9,7.1-3.8v-4.2H2660.4z"/>
	<path class="st1" d="M2687.4,731c-3,0-5.8-1.6-7.4-3.4v10.6l-5.7,3V701h5.7v2.8c2.1-2,4.6-3.4,7.7-3.4c6.3,0,11.3,4.6,11.3,15.8
		C2699,726.3,2693.5,731,2687.4,731z M2686.7,705.7c-2.7,0-5.2,1.8-6.7,3.8v12.4c1.3,1.7,4,3.9,6.9,3.9c4.1,0,6.4-3.1,6.4-9.4
		C2693.3,709,2690.9,705.7,2686.7,705.7z"/>
</g>
<circle class="st2" cx="1132.8" cy="361.1" r="231.5"/>
<circle class="st3" cx="2726" cy="513.6" r="54.5"/>
<g>
	<g>
		<line class="st4" x1="568" y1="1072.1" x2="872.3" y2="1072.1"/>
		<g>
			<polygon class="st1" points="866.5,1092 901,1072.1 866.5,1052.2 			"/>
		</g>
	</g>
</g>
<g>
	<g>
		<line class="st4" x1="1115" y1="848.6" x2="1115" y2="622.3"/>
		<g>
			<polygon class="st1" points="1134.9,628.1 1115,593.6 1095.1,628.1 			"/>
		</g>
	</g>
</g>
<g>
	<g>
		<line class="st4" x1="1171" y1="593.6" x2="1171" y2="819.9"/>
		<g>
			<polygon class="st1" points="1151.1,814.1 1171,848.6 1190.9,814.1 			"/>
		</g>
	</g>
</g>
<g>
	<g>
		<line class="st4" x1="1901" y1="848.6" x2="1901" y2="622.3"/>
		<g>
			<polygon class="st1" points="1920.9,628.1 1901,593.6 1881.1,628.1 			"/>
		</g>
	</g>
</g>
<g>
	<g>
		<line class="st4" x1="2726" y1="848.6" x2="2726" y2="622.3"/>
		<g>
			<polygon class="st1" points="2745.9,628.1 2726,593.6 2706.1,628.1 			"/>
		</g>
	</g>
</g>
<g>
	<g>
		<line class="st4" x1="1957" y1="593.6" x2="1957" y2="819.9"/>
		<g>
			<polygon class="st1" points="1937.1,814.1 1957,848.6 1976.9,814.1 			"/>
		</g>
	</g>
</g>
<g>
	<g>
		<line class="st4" x1="1929" y1="1300.6" x2="1929" y2="1526.9"/>
		<g>
			<polygon class="st1" points="1909.1,1521.1 1929,1555.6 1948.9,1521.1 			"/>
		</g>
	</g>
</g>
<g>
	<g>
		<line class="st4" x1="329" y1="593.6" x2="329" y2="819.9"/>
		<g>
			<polygon class="st1" points="309.1,814.1 329,848.6 348.9,814.1 			"/>
		</g>
	</g>
</g>
<g>
	<g>
		<line class="st4" x1="1368" y1="1043.6" x2="1672.3" y2="1043.6"/>
		<g>
			<polygon class="st1" points="1666.5,1063.5 1701,1043.6 1666.5,1023.7 			"/>
		</g>
	</g>
</g>
<g>
	<g>
		<line class="st4" x1="1701" y1="1101.6" x2="1396.7" y2="1101.6"/>
		<g>
			<polygon class="st1" points="1402.5,1081.7 1368,1101.6 1402.5,1121.5 			"/>
		</g>
	</g>
</g>
<g>
	<g>
		<line class="st4" x1="2161" y1="1072.6" x2="2465.3" y2="1072.6"/>
		<g>
			<polygon class="st1" points="2459.5,1092.5 2494,1072.6 2459.5,1052.7 			"/>
		</g>
	</g>
</g>
<g>
	<rect x="962.8" y="330.2" class="st0" width="340" height="61.8"/>
	<path class="st5" d="M1043.5,371.6c-6.6,0-12.3-2.7-15.2-7.1l5.7-5c2.7,3.2,6.3,4.5,10,4.5c4.6,0,6.8-1.3,6.8-4.3
		c0-2.5-1.3-3.6-8.7-5.3c-7.2-1.7-12.3-4-12.3-11.7c0-7.1,6.3-11.5,14-11.5c6.1,0,10.6,2.3,14.3,6.2l-5.7,5.5c-2.5-2.6-5.3-4-8.9-4
		c-4.2,0-5.6,1.8-5.6,3.5c0,2.5,1.7,3.2,7.9,4.7c6.2,1.5,13.1,3.6,13.1,12.1C1058.9,366.6,1054.2,371.6,1043.5,371.6z"/>
	<path class="st5" d="M1081.5,369.8c-1.3,1-3.6,1.8-6,1.8c-4.8,0-7.8-3.7-7.8-8.8v-13.9h-4.9v-7.3h4.9V334l7.7-3.9v11.5h7.1v7.3
		h-7.1v11.8c0,2.8,1,3.5,2.9,3.5c1.4,0,2.5-0.6,4.4-2.2L1081.5,369.8z"/>
	<path class="st5" d="M1100.4,371.6c-7.7,0-13.3-6.3-13.3-15.3s5.6-15.3,13.3-15.3c7.7,0,13.3,6.3,13.3,15.3
		S1108.1,371.6,1100.4,371.6z M1100.4,348.4c-3.7,0-5.4,3.4-5.4,7.9s1.7,7.8,5.4,7.8c3.7,0,5.5-3.8,5.5-7.8
		C1105.9,351.8,1104.1,348.4,1100.4,348.4z"/>
	<path class="st5" d="M1133.7,371.6c-2.6,0-4.8-1-6.2-2.3v8.6l-7.7,3.9v-40.2h7.7v1.8c1.5-1.3,3.4-2.5,6.2-2.5
		c6.3,0,11.4,4.7,11.4,15.7C1145.1,365.5,1141,371.6,1133.7,371.6z M1132.2,348.3c-2.4,0-3.6,1-4.8,2.5v11.1c1.2,1.6,3,2.5,5.2,2.5
		c3,0,4.6-2.6,4.6-7.5C1137.3,350.8,1135.2,348.3,1132.2,348.3z"/>
	<path class="st5" d="M1165.1,371.6c-2.6,0-4.8-1-6.2-2.3v8.6l-7.7,3.9v-40.2h7.7v1.8c1.5-1.3,3.4-2.5,6.2-2.5
		c6.3,0,11.4,4.7,11.4,15.7C1176.6,365.5,1172.4,371.6,1165.1,371.6z M1163.7,348.3c-2.4,0-3.6,1-4.8,2.5v11.1
		c1.2,1.6,3,2.5,5.2,2.5c3,0,4.6-2.6,4.6-7.5C1168.7,350.8,1166.7,348.3,1163.7,348.3z"/>
	<path class="st5" d="M1206.5,358.8h-17.6c0.3,4,3.2,5.5,6,5.5c2.1,0,3.9-0.8,5-2.1l5.5,4.6c-2.4,3-6.6,4.8-10.5,4.8
		c-8.5,0-13.8-6-13.8-15.3c0-9,5.7-15.3,13.1-15.3c7.8,0,12.4,6.9,12.4,15.3C1206.6,357.4,1206.6,358.2,1206.5,358.8z M1193.9,347.7
		c-2.8,0-4.5,2.3-4.8,5.3h10.1C1198.9,350.3,1197.3,347.7,1193.9,347.7z"/>
	<path class="st5" d="M1228.9,371v-1.8c-1.5,1.3-3.4,2.5-6.2,2.5c-6.3,0-11.4-4.7-11.4-15.7c0-8.8,4.1-15,11.4-15
		c2.6,0,4.8,1,6.2,2.3v-9.2l7.7-3.9V371L1228.9,371L1228.9,371z M1228.9,350.8c-1.2-1.6-3-2.5-5.2-2.5c-3,0-4.6,2.6-4.6,7.5
		c0,6,2,8.6,5,8.6c2.4,0,3.6-1,4.8-2.5L1228.9,350.8L1228.9,350.8z"/>
</g>
<circle class="st2" cx="1929.2" cy="361.1" r="231.5"/>
<g>
	<rect x="1759.2" y="296.4" class="st0" width="340" height="129.4"/>
	<path class="st5" d="M1848.1,337.2l-7-14.1h-7.9v14.1h-7.8V298h18.3c7.4,0,13.5,4.1,13.5,12.4c0,5.9-2.5,9.6-7.5,11.5l7.5,15.2
		L1848.1,337.2L1848.1,337.2z M1843.5,305.6h-10.2v10.1h10.2c3.6,0,5.6-1.7,5.6-5.1C1849.1,307.1,1847,305.6,1843.5,305.6z"/>
	<path class="st5" d="M1881.1,337.2v-2c-1.3,1.4-3.8,2.6-6.9,2.6c-7.5,0-10.9-5.2-10.9-13.4v-16.6h7.7v15.9c0,5.3,1.8,6.8,5,6.8
		s5-1.6,5-6.7v-16.1h7.7v29.4L1881.1,337.2L1881.1,337.2z"/>
	<path class="st5" d="M1914.1,337.2v-15.9c0-5.3-1.8-6.8-5-6.8s-5,1.6-5,6.7v16.1h-7.7v-29.4h7.7v2c1.3-1.4,3.8-2.6,6.9-2.6
		c7.5,0,10.9,5.2,10.9,13.4v16.6L1914.1,337.2L1914.1,337.2z"/>
	<path class="st5" d="M1946.8,337.2v-15.9c0-5.3-1.8-6.8-5-6.8s-5,1.6-5,6.7v16.1h-7.7v-29.4h7.7v2c1.3-1.4,3.8-2.6,6.9-2.6
		c7.5,0,10.9,5.2,10.9,13.4v16.6L1946.8,337.2L1946.8,337.2z"/>
	<path class="st5" d="M1965.9,305.4c-2.4,0-4.4-2-4.4-4.4s2-4.4,4.4-4.4s4.4,2,4.4,4.4S1968.3,305.4,1965.9,305.4z M1962,337.2
		v-29.4h7.7v29.4H1962z"/>
	<path class="st5" d="M1995.3,337.2v-15.9c0-5.3-1.8-6.8-5-6.8s-5,1.6-5,6.7v16.1h-7.7v-29.4h7.7v2c1.3-1.4,3.8-2.6,6.9-2.6
		c7.5,0,10.9,5.2,10.9,13.4v16.6L1995.3,337.2L1995.3,337.2z"/>
	<path class="st5" d="M2021.5,348l-2.7-5.8c6-0.8,7.7-2.3,7.7-6.8c-1.5,1.3-3.4,2.5-6.2,2.5c-6.3,0-11.4-4.7-11.4-15.7
		c0-8.8,4.1-15,11.4-15c2.6,0,4.8,1,6.2,2.3v-1.7h7.7v24.4C2034.1,341.9,2031.8,346.9,2021.5,348z M2026.4,317
		c-1.2-1.6-3-2.5-5.2-2.5c-3,0-4.6,2.6-4.6,7.5c0,6,2,8.6,5,8.6c2.4,0,3.6-1,4.8-2.5L2026.4,317L2026.4,317z"/>
	<path class="st5" d="M1865.6,410.6c-5.4-5.9-9.7-12.5-9.7-23s4-17,9.7-23.3l5,3.5c-4,5.2-6.7,11-6.7,19.5c0,8.8,2.6,14.6,6.7,19.8
		L1865.6,410.6z"/>
	<path class="st5" d="M1892.2,404.4v-2c-1.3,1.4-3.8,2.6-6.9,2.6c-7.5,0-10.9-5.2-10.9-13.4V375h7.7v15.9c0,5.3,1.8,6.8,5,6.8
		s5-1.6,5-6.7v-16.1h7.7v29.4L1892.2,404.4L1892.2,404.4z"/>
	<path class="st5" d="M1918.7,405c-4.6,0-9.2-1.3-12.3-3.4l2.6-5.9c3.1,1.7,6.4,2.7,10.2,2.7c3,0,3.9-0.7,3.9-2.2c0-1.3-1.1-2-4.3-3
		c-7.1-2.1-11.6-3.9-11.6-10.1c0-6.1,4.9-8.7,11.8-8.7c3.7,0,7.7,1.1,10.9,2.9l-2.5,6.1c-2.9-1.6-6.1-2.4-8.6-2.4
		c-3.1,0-4,0.6-4,1.9c0,1.2,0.9,1.7,6.1,3.4c5.3,1.7,9.8,3.6,9.8,9.5C1930.7,402.6,1925.3,405,1918.7,405z"/>
	<path class="st5" d="M1960.8,392.2h-17.6c0.3,4,3.2,5.5,6,5.5c2.1,0,3.9-0.8,5-2.1l5.5,4.6c-2.4,3-6.6,4.8-10.5,4.8
		c-8.5,0-13.8-6-13.8-15.3c0-9,5.7-15.3,13.1-15.3c7.8,0,12.4,6.9,12.4,15.3C1960.9,390.9,1960.9,391.6,1960.8,392.2z M1948.2,381.1
		c-2.8,0-4.5,2.3-4.8,5.3h10.1C1953.2,383.7,1951.7,381.1,1948.2,381.1z"/>
	<path class="st5" d="M1984.3,384c-1.2-1.1-2.7-1.9-4.5-1.9c-3,0-5,1.3-5,6.4v15.9h-7.7V375h7.7v2c1.3-1.4,3.3-2.6,6-2.6
		c2.5,0,4.4,1,5.4,2.1L1984.3,384z"/>
	<path class="st5" d="M1992.7,410.6l-5-3.5c4-5.2,6.7-11,6.7-19.5c0-8.8-2.6-14.6-6.7-19.8l5-3.5c5.4,5.9,9.7,12.5,9.7,23
		C2002.4,397.7,1998.4,404.2,1992.7,410.6z"/>
</g>
<circle class="st2" cx="1132.8" cy="1072.1" r="231.5"/>
<g>
	<rect x="962.8" y="1041.2" class="st0" width="340" height="140.4"/>
	<path class="st5" d="M1037.5,1082l-7-14.1h-7.9v14.1h-7.8v-39.2h18.3c7.4,0,13.5,4.1,13.5,12.4c0,5.9-2.5,9.6-7.5,11.5l7.5,15.2
		L1037.5,1082L1037.5,1082z M1032.9,1050.4h-10.2v10.1h10.2c3.6,0,5.6-1.7,5.6-5.1C1038.5,1051.9,1036.3,1050.4,1032.9,1050.4z"/>
	<path class="st5" d="M1070.5,1082v-2c-1.3,1.4-3.8,2.6-6.9,2.6c-7.5,0-10.9-5.2-10.9-13.4v-16.6h7.7v15.9c0,5.3,1.8,6.8,5,6.8
		s5-1.6,5-6.7v-16h7.7v29.4H1070.5z"/>
	<path class="st5" d="M1103.5,1082v-15.9c0-5.3-1.8-6.8-5-6.8s-5,1.6-5,6.7v16.1h-7.7v-29.5h7.7v2c1.3-1.4,3.8-2.6,6.9-2.6
		c7.5,0,10.9,5.2,10.9,13.4v16.6H1103.5z"/>
	<path class="st5" d="M1136.2,1082v-15.9c0-5.3-1.8-6.8-5-6.8s-5,1.6-5,6.7v16.1h-7.7v-29.5h7.7v2c1.3-1.4,3.8-2.6,6.9-2.6
		c7.5,0,10.9,5.2,10.9,13.4v16.6H1136.2z"/>
	<path class="st5" d="M1167.3,1082v-2c-1.4,1.5-3.9,2.6-6.6,2.6c-5.5,0-11-3.4-11-10.5c0-6.5,5.3-9.7,11.9-9.7
		c2.7,0,4.4,0.6,5.7,1.2v-1.5c0-2.1-1.4-3.8-4.2-3.8c-3.5,0-5.4,0.5-8.1,2l-3-5.4c3.4-2,6.3-3,11-3c7.1,0,11.9,3.7,11.9,10.3v19.7
		h-7.6V1082z M1167.3,1069.7c-1.3-0.8-2.6-1.2-5.4-1.2c-2.9,0-4.5,1.3-4.5,3.7c0,2.1,1.2,3.9,4.5,3.9c2.5,0,4.5-1.3,5.4-2.7V1069.7z
		"/>
	<path class="st5" d="M1196.2,1082.6c-2.6,0-4.8-1-6.2-2.3v1.7h-7.7v-37l7.7-3.9v13.3c1.5-1.3,3.4-2.5,6.2-2.5
		c6.3,0,11.4,4.7,11.4,15.7C1207.6,1076.5,1203.5,1082.6,1196.2,1082.6z M1194.8,1059.3c-2.4,0-3.6,1-4.8,2.5v11.1
		c1.2,1.6,3,2.5,5.2,2.5c3,0,4.6-2.6,4.6-7.5C1199.8,1061.8,1197.8,1059.3,1194.8,1059.3z"/>
	<path class="st5" d="M1214,1082v-37l7.7-3.9v40.8L1214,1082L1214,1082z"/>
	<path class="st5" d="M1253.4,1069.8h-17.6c0.3,4,3.2,5.5,6,5.5c2.1,0,3.9-0.8,5-2.1l5.5,4.6c-2.4,3-6.6,4.8-10.5,4.8
		c-8.5,0-13.8-6-13.8-15.3c0-9,5.7-15.3,13.1-15.3c7.8,0,12.4,6.9,12.4,15.3C1253.5,1068.4,1253.5,1069.2,1253.4,1069.8z
		 M1240.7,1058.7c-2.8,0-4.5,2.3-4.8,5.3h10.1C1245.8,1061.3,1244.2,1058.7,1240.7,1058.7z"/>
	<path class="st5" d="M1053,1155.4c-5.4-5.9-9.7-12.5-9.7-23s4-17,9.7-23.3l5,3.5c-4,5.2-6.7,11-6.7,19.5c0,8.8,2.6,14.6,6.7,19.8
		L1053,1155.4z"/>
	<path class="st5" d="M1080,1128.8c-1.2-1.1-2.7-1.9-4.5-1.9c-3,0-5,1.3-5,6.4v15.9h-7.7v-29.4h7.7v2c1.3-1.4,3.3-2.6,6-2.6
		c2.5,0,4.4,1,5.4,2.1L1080,1128.8z"/>
	<path class="st5" d="M1109.8,1137h-17.6c0.3,4,3.2,5.5,6,5.5c2.1,0,3.9-0.8,5-2.1l5.5,4.6c-2.4,3-6.6,4.8-10.5,4.8
		c-8.5,0-13.8-6-13.8-15.3c0-9,5.7-15.3,13.1-15.3c7.8,0,12.4,6.9,12.4,15.3C1109.9,1135.6,1109.8,1136.4,1109.8,1137z
		 M1097.1,1125.9c-2.8,0-4.5,2.3-4.8,5.3h10.1C1102.2,1128.5,1100.6,1125.9,1097.1,1125.9z"/>
	<path class="st5" d="M1131.8,1149.2v-2c-1.4,1.5-3.9,2.6-6.6,2.6c-5.5,0-11-3.4-11-10.5c0-6.5,5.3-9.7,11.9-9.7
		c2.7,0,4.4,0.6,5.7,1.2v-1.5c0-2.1-1.4-3.8-4.2-3.8c-3.5,0-5.4,0.5-8.1,2l-3-5.4c3.4-2,6.3-3,11-3c7.1,0,11.9,3.7,11.9,10.3v19.7
		h-7.6V1149.2z M1131.8,1136.9c-1.3-0.8-2.6-1.2-5.4-1.2c-2.9,0-4.5,1.3-4.5,3.7c0,2.1,1.2,3.9,4.5,3.9c2.5,0,4.5-1.3,5.4-2.7
		V1136.9z"/>
	<path class="st5" d="M1162.9,1149.2v-1.8c-1.5,1.3-3.4,2.5-6.2,2.5c-6.3,0-11.4-4.7-11.4-15.7c0-8.8,4.1-15,11.4-15
		c2.6,0,4.8,1,6.2,2.3v-9.2l7.7-3.9v40.8L1162.9,1149.2L1162.9,1149.2z M1162.9,1129c-1.2-1.6-3-2.5-5.2-2.5c-3,0-4.6,2.6-4.6,7.5
		c0,6,2,8.6,5,8.6c2.4,0,3.6-1,4.8-2.5L1162.9,1129L1162.9,1129z"/>
	<path class="st5" d="M1191,1159.6h-7.6l3.9-10.4l-11.4-29.4h8.5l4.8,14.2c0.8,2.2,1.6,5,1.9,6.4c0.3-1.5,1.1-4.1,1.9-6.4l4.8-14.2
		h8.3L1191,1159.6z"/>
	<path class="st5" d="M1212.6,1155.4l-5-3.5c4-5.2,6.7-11,6.7-19.5c0-8.8-2.6-14.6-6.7-19.8l5-3.5c5.4,5.9,9.7,12.5,9.7,23
		C1222.3,1142.5,1218.3,1149,1212.6,1155.4z"/>
</g>
<circle class="st2" cx="336.5" cy="1072.1" r="231.5"/>
<g>
	<rect x="166.5" y="1041.2" class="st0" width="340" height="61.8"/>
	<path class="st5" d="M279.3,1088.2c-5.4-5.9-9.7-12.5-9.7-23s4-17,9.7-23.3l5,3.5c-4,5.2-6.7,11-6.7,19.5c0,8.8,2.6,14.6,6.7,19.8
		L279.3,1088.2z"/>
	<path class="st5" d="M306.9,1082v-15.9c0-5.3-1.8-6.8-5-6.8s-5,1.6-5,6.7v16.1h-7.7v-29.5h7.7v2c1.3-1.4,3.8-2.6,6.9-2.6
		c7.5,0,10.9,5.2,10.9,13.4v16.6H306.9z"/>
	<path class="st5" d="M345.7,1069.8h-17.6c0.3,4,3.2,5.5,6,5.5c2.1,0,3.9-0.8,5-2.1l5.5,4.6c-2.4,3-6.6,4.8-10.5,4.8
		c-8.5,0-13.8-6-13.8-15.3c0-9,5.7-15.3,13.1-15.3c7.8,0,12.4,6.9,12.4,15.3C345.8,1068.4,345.7,1069.2,345.7,1069.8z M333,1058.7
		c-2.8,0-4.5,2.3-4.8,5.3h10.1C338,1061.3,336.5,1058.7,333,1058.7z"/>
	<path class="st5" d="M378.7,1082h-6.4l-2.9-11.5c-0.6-2.3-1.3-5.5-1.6-6.9c-0.2,1.4-1,4.6-1.6,6.9l-2.9,11.5h-6.4l-8.5-29.4h7.8
		l2.6,10.9c0.5,2.2,1.2,5.3,1.4,6.7c0.2-1.5,1-4.4,1.6-6.7l2.9-10.9h6.4l2.9,10.9c0.6,2.3,1.3,5.3,1.6,6.7c0.2-1.4,0.9-4.5,1.4-6.7
		l2.6-10.9h7.6L378.7,1082z"/>
	<path class="st5" d="M393.7,1088.2l-5-3.5c4-5.2,6.7-11,6.7-19.5c0-8.8-2.6-14.6-6.7-19.8l5-3.5c5.4,5.9,9.7,12.5,9.7,23
		C403.3,1075.3,399.4,1081.8,393.7,1088.2z"/>
</g>
<circle class="st2" cx="2725.5" cy="1072.1" r="231.5"/>
<g>
	<rect x="2555.5" y="1041.2" class="st0" width="340" height="61.8"/>
	<path class="st5" d="M2632.2,1082v-6.9l16.9-20.1c1.2-1.5,3.5-4.1,4.5-5.1c-1.6,0.1-5.7,0.1-8,0.1h-12.3v-7.2h29.5v6.9l-16.7,20.1
		c-1.2,1.5-3.5,4.1-4.5,5.1c1.6-0.1,5.7-0.1,8-0.1h13.5v7.2H2632.2z"/>
	<path class="st5" d="M2680.3,1082.6c-7.7,0-13.3-6.3-13.3-15.3s5.6-15.3,13.3-15.3s13.3,6.3,13.3,15.3
		C2693.7,1076.3,2688,1082.6,2680.3,1082.6z M2680.3,1059.4c-3.7,0-5.4,3.4-5.4,7.9s1.7,7.8,5.4,7.8s5.5-3.8,5.5-7.8
		C2685.8,1062.8,2684,1059.4,2680.3,1059.4z"/>
	<path class="st5" d="M2734,1082v-15.9c0-5.3-1.5-6.8-4.7-6.8s-4.8,1.6-4.8,6.7v16.1h-7.7v-15.9c0-5.3-1.5-6.8-4.7-6.8
		s-4.8,1.6-4.8,6.7v16.1h-7.7v-29.6h7.7v2c1.3-1.4,3.4-2.6,6.4-2.6c3.8,0,5.9,1.1,8.1,3.8c2-2.1,4.5-3.8,9.4-3.8
		c7.5,0,10.5,5.2,10.5,13.4v16.6H2734z"/>
	<path class="st5" d="M2762.9,1082.6c-2.6,0-4.8-1-6.2-2.3v1.7h-7.7v-37l7.7-3.9v13.3c1.5-1.3,3.4-2.5,6.2-2.5
		c6.3,0,11.4,4.7,11.4,15.7C2774.4,1076.5,2770.2,1082.6,2762.9,1082.6z M2761.5,1059.3c-2.4,0-3.6,1-4.8,2.5v11.1
		c1.2,1.6,3,2.5,5.2,2.5c3,0,4.6-2.6,4.6-7.5C2766.5,1061.8,2764.5,1059.3,2761.5,1059.3z"/>
	<path class="st5" d="M2784.6,1050.2c-2.4,0-4.4-2-4.4-4.4s2-4.4,4.4-4.4s4.4,2,4.4,4.4S2787,1050.2,2784.6,1050.2z M2780.7,1082
		v-29.4h7.7v29.4H2780.7z"/>
	<path class="st5" d="M2820.1,1069.8h-17.6c0.3,4,3.2,5.5,6,5.5c2.1,0,3.9-0.8,5-2.1l5.5,4.6c-2.4,3-6.6,4.8-10.5,4.8
		c-8.5,0-13.8-6-13.8-15.3c0-9,5.7-15.3,13.1-15.3c7.8,0,12.4,6.9,12.4,15.3C2820.2,1068.4,2820.2,1069.2,2820.1,1069.8z
		 M2807.5,1058.7c-2.8,0-4.5,2.3-4.8,5.3h10.1C2812.5,1061.3,2810.9,1058.7,2807.5,1058.7z"/>
</g>
<circle class="st2" cx="1929.2" cy="1072.1" r="231.5"/>
<g>
	<rect x="1759.2" y="1007.4" class="st0" width="340" height="129.4"/>
	<path class="st5" d="M1848.1,1048.2l-7-14.1h-7.9v14.1h-7.8V1009h18.3c7.4,0,13.5,4.1,13.5,12.4c0,5.9-2.5,9.6-7.5,11.5l7.5,15.2
		L1848.1,1048.2L1848.1,1048.2z M1843.5,1016.6h-10.2v10.1h10.2c3.6,0,5.6-1.7,5.6-5.1C1849.1,1018.1,1847,1016.6,1843.5,1016.6z"/>
	<path class="st5" d="M1881.1,1048.2v-2c-1.3,1.4-3.8,2.6-6.9,2.6c-7.5,0-10.9-5.2-10.9-13.4v-16.6h7.7v15.9c0,5.3,1.8,6.8,5,6.8
		s5-1.6,5-6.7v-16.1h7.7v29.4L1881.1,1048.2L1881.1,1048.2z"/>
	<path class="st5" d="M1914.1,1048.2v-15.9c0-5.3-1.8-6.8-5-6.8s-5,1.6-5,6.7v16.1h-7.7v-29.4h7.7v2c1.3-1.4,3.8-2.6,6.9-2.6
		c7.5,0,10.9,5.2,10.9,13.4v16.6L1914.1,1048.2L1914.1,1048.2z"/>
	<path class="st5" d="M1946.8,1048.2v-15.9c0-5.3-1.8-6.8-5-6.8s-5,1.6-5,6.7v16.1h-7.7v-29.4h7.7v2c1.3-1.4,3.8-2.6,6.9-2.6
		c7.5,0,10.9,5.2,10.9,13.4v16.6L1946.8,1048.2L1946.8,1048.2z"/>
	<path class="st5" d="M1965.9,1016.4c-2.4,0-4.4-2-4.4-4.4s2-4.4,4.4-4.4s4.4,2,4.4,4.4S1968.3,1016.4,1965.9,1016.4z M1962,1048.2
		v-29.4h7.7v29.4H1962z"/>
	<path class="st5" d="M1995.3,1048.2v-15.9c0-5.3-1.8-6.8-5-6.8s-5,1.6-5,6.7v16.1h-7.7v-29.4h7.7v2c1.3-1.4,3.8-2.6,6.9-2.6
		c7.5,0,10.9,5.2,10.9,13.4v16.6L1995.3,1048.2L1995.3,1048.2z"/>
	<path class="st5" d="M2021.5,1059l-2.7-5.8c6-0.8,7.7-2.3,7.7-6.8c-1.5,1.3-3.4,2.5-6.2,2.5c-6.3,0-11.4-4.7-11.4-15.7
		c0-8.8,4.1-15,11.4-15c2.6,0,4.8,1,6.2,2.3v-1.7h7.7v24.4C2034.1,1052.9,2031.8,1057.9,2021.5,1059z M2026.4,1028
		c-1.2-1.6-3-2.5-5.2-2.5c-3,0-4.6,2.6-4.6,7.5c0,6,2,8.6,5,8.6c2.4,0,3.6-1,4.8-2.5L2026.4,1028L2026.4,1028z"/>
	<path class="st5" d="M1840.7,1121.6c-5.4-5.9-9.7-12.5-9.7-23s4-17,9.7-23.3l5,3.5c-4,5.2-6.7,11-6.7,19.5c0,8.8,2.6,14.6,6.7,19.8
		L1840.7,1121.6z"/>
	<path class="st5" d="M1868.9,1115.4l-5.6-13.6l-3.8,4.6v8.9h-7.7v-37l7.7-3.9v15.6c0,1.8-0.1,4.8-0.1,6.3c0.8-1.2,2.1-3,3.1-4.3
		l4.8-6.2h9.1l-7.6,9.4l8.5,20h-8.4V1115.4z"/>
	<path class="st5" d="M1905.1,1103.2h-17.6c0.3,4,3.2,5.5,6,5.5c2.1,0,3.9-0.8,5-2.1l5.5,4.6c-2.4,3-6.6,4.8-10.5,4.8
		c-8.5,0-13.8-6-13.8-15.3c0-9,5.7-15.3,13.1-15.3c7.8,0,12.4,6.9,12.4,15.3C1905.2,1101.9,1905.2,1102.6,1905.1,1103.2z
		 M1892.5,1092.1c-2.8,0-4.5,2.3-4.8,5.3h10.1C1897.5,1094.7,1895.9,1092.1,1892.5,1092.1z"/>
	<path class="st5" d="M1928.6,1095c-1.2-1.1-2.7-1.9-4.5-1.9c-3,0-5,1.3-5,6.4v15.9h-7.7V1086h7.7v2c1.3-1.4,3.3-2.6,6-2.6
		c2.5,0,4.4,1,5.4,2.1L1928.6,1095z"/>
	<path class="st5" d="M1953.1,1115.4v-15.9c0-5.3-1.8-6.8-5-6.8s-5,1.6-5,6.7v16.1h-7.7v-29.4h7.7v2c1.3-1.4,3.8-2.6,6.9-2.6
		c7.5,0,10.9,5.2,10.9,13.4v16.6L1953.1,1115.4L1953.1,1115.4z"/>
	<path class="st5" d="M1991.9,1103.2h-17.6c0.3,4,3.2,5.5,6,5.5c2.1,0,3.9-0.8,5-2.1l5.5,4.6c-2.4,3-6.6,4.8-10.5,4.8
		c-8.5,0-13.8-6-13.8-15.3c0-9,5.7-15.3,13.1-15.3c7.8,0,12.4,6.9,12.4,15.3C1992,1101.9,1992,1102.6,1991.9,1103.2z M1979.3,1092.1
		c-2.8,0-4.5,2.3-4.8,5.3h10.1C1984.3,1094.7,1982.7,1092.1,1979.3,1092.1z"/>
	<path class="st5" d="M1998.5,1115.4v-37l7.7-3.9v40.8L1998.5,1115.4L1998.5,1115.4z"/>
	<path class="st5" d="M2017.7,1121.6l-5-3.5c4-5.2,6.7-11,6.7-19.5c0-8.8-2.6-14.6-6.7-19.8l5-3.5c5.4,5.9,9.7,12.5,9.7,23
		C2027.4,1108.7,2023.4,1115.2,2017.7,1121.6z"/>
</g>
<circle class="st6" cx="1598.8" cy="1783.6" r="231.5"/>
<g>
	<rect x="1428.8" y="1752.7" class="st0" width="340" height="61.8"/>
	<path class="st5" d="M1505,1794.1c-6.6,0-12.3-2.7-15.2-7.1l5.7-5c2.7,3.2,6.3,4.5,10,4.5c4.6,0,6.8-1.3,6.8-4.3
		c0-2.5-1.3-3.6-8.7-5.3c-7.2-1.7-12.3-4-12.3-11.7c0-7.1,6.3-11.5,14-11.5c6.1,0,10.6,2.3,14.3,6.2l-5.7,5.5c-2.5-2.6-5.3-4-8.9-4
		c-4.2,0-5.6,1.8-5.6,3.5c0,2.5,1.7,3.2,7.9,4.7c6.2,1.5,13.1,3.6,13.1,12.1C1520.4,1789.1,1515.6,1794.1,1505,1794.1z"/>
	<path class="st5" d="M1527.6,1793.5v-37l7.7-3.9v40.8L1527.6,1793.5L1527.6,1793.5z"/>
	<path class="st5" d="M1567,1781.3h-17.6c0.3,4,3.2,5.5,6,5.5c2.1,0,3.9-0.8,5-2.1l5.5,4.6c-2.4,3-6.6,4.8-10.5,4.8
		c-8.5,0-13.8-6-13.8-15.3c0-9,5.7-15.3,13.1-15.3c7.8,0,12.4,6.9,12.4,15.3C1567.1,1779.9,1567.1,1780.7,1567,1781.3z
		 M1554.3,1770.2c-2.8,0-4.5,2.3-4.8,5.3h10.1C1559.4,1772.8,1557.8,1770.2,1554.3,1770.2z"/>
	<path class="st5" d="M1597.1,1781.3h-17.6c0.3,4,3.2,5.5,6,5.5c2.1,0,3.9-0.8,5-2.1l5.5,4.6c-2.4,3-6.6,4.8-10.5,4.8
		c-8.5,0-13.8-6-13.8-15.3c0-9,5.7-15.3,13.1-15.3c7.8,0,12.4,6.9,12.4,15.3C1597.2,1779.9,1597.2,1780.7,1597.1,1781.3z
		 M1584.5,1770.2c-2.8,0-4.5,2.3-4.8,5.3h10.1C1589.5,1772.8,1587.9,1770.2,1584.5,1770.2z"/>
	<path class="st5" d="M1617.3,1794.1c-2.6,0-4.8-1-6.2-2.3v8.6l-7.7,3.9v-40.2h7.7v1.8c1.5-1.3,3.4-2.5,6.2-2.5
		c6.3,0,11.4,4.7,11.4,15.7C1628.8,1788,1624.6,1794.1,1617.3,1794.1z M1615.9,1770.8c-2.4,0-3.6,1-4.8,2.5v11.1
		c1.2,1.6,3,2.5,5.2,2.5c3,0,4.6-2.6,4.6-7.5C1620.9,1773.3,1618.9,1770.8,1615.9,1770.8z"/>
	<path class="st5" d="M1639,1761.7c-2.4,0-4.4-2-4.4-4.4s2-4.4,4.4-4.4s4.4,2,4.4,4.4S1641.4,1761.7,1639,1761.7z M1635.2,1793.5
		v-29.4h7.7v29.4H1635.2z"/>
	<path class="st5" d="M1668.4,1793.5v-15.9c0-5.3-1.8-6.8-5-6.8s-5,1.6-5,6.7v16.1h-7.7v-29.4h7.7v2c1.3-1.4,3.8-2.6,6.9-2.6
		c7.5,0,10.9,5.2,10.9,13.4v16.6h-7.8V1793.5z"/>
	<path class="st5" d="M1694.6,1804.3l-2.7-5.8c6-0.8,7.7-2.3,7.7-6.8c-1.5,1.3-3.4,2.5-6.2,2.5c-6.3,0-11.4-4.7-11.4-15.7
		c0-8.8,4.1-15,11.4-15c2.6,0,4.8,1,6.2,2.3v-1.7h7.7v24.4C1707.2,1798.2,1704.9,1803.2,1694.6,1804.3z M1699.5,1773.3
		c-1.2-1.6-3-2.5-5.2-2.5c-3,0-4.6,2.6-4.6,7.5c0,6,2,8.6,5,8.6c2.4,0,3.6-1,4.8-2.5L1699.5,1773.3L1699.5,1773.3z"/>
</g>
<circle class="st3" cx="2726.5" cy="945.1" r="54.5"/>
<circle class="st3" cx="1929.5" cy="945.1" r="54.5"/>
<circle class="st3" cx="1131.5" cy="945.1" r="54.5"/>
<circle class="st3" cx="1929.5" cy="223.1" r="54.5"/>
<circle class="st3" cx="1595.5" cy="1659.1" r="54.5"/>
<circle class="st3" cx="1131.5" cy="223.1" r="54.5"/>
<circle class="st6" cx="1922.5" cy="1783.6" r="231.5"/>
<g>
	<rect x="1755" y="1752.7" class="st0" width="340" height="61.8"/>
	<path class="st5" d="M1831.1,1794.1c-6.6,0-12.3-2.7-15.2-7.1l5.7-5c2.7,3.2,6.3,4.5,10,4.5c4.6,0,6.8-1.3,6.8-4.3
		c0-2.5-1.3-3.6-8.7-5.3c-7.2-1.7-12.3-4-12.3-11.7c0-7.1,6.3-11.5,14-11.5c6.1,0,10.6,2.3,14.3,6.2l-5.7,5.5c-2.5-2.6-5.3-4-8.9-4
		c-4.2,0-5.6,1.8-5.6,3.5c0,2.5,1.7,3.2,7.9,4.7s13.1,3.6,13.1,12.1C1846.5,1789.1,1841.8,1794.1,1831.1,1794.1z"/>
	<path class="st5" d="M1853.8,1793.5v-37l7.7-3.9v40.8L1853.8,1793.5L1853.8,1793.5z"/>
	<path class="st5" d="M1893.2,1781.3h-17.6c0.3,4,3.2,5.5,6,5.5c2.1,0,3.9-0.8,5-2.1l5.5,4.6c-2.4,3-6.6,4.8-10.5,4.8
		c-8.5,0-13.8-6-13.8-15.3c0-9,5.7-15.3,13.1-15.3c7.8,0,12.4,6.9,12.4,15.3C1893.3,1779.9,1893.2,1780.7,1893.2,1781.3z
		 M1880.5,1770.2c-2.8,0-4.5,2.3-4.8,5.3h10.1C1885.5,1772.8,1884,1770.2,1880.5,1770.2z"/>
	<path class="st5" d="M1923.3,1781.3h-17.6c0.3,4,3.2,5.5,6,5.5c2.1,0,3.9-0.8,5-2.1l5.5,4.6c-2.4,3-6.6,4.8-10.5,4.8
		c-8.5,0-13.8-6-13.8-15.3c0-9,5.7-15.3,13.1-15.3c7.8,0,12.4,6.9,12.4,15.3C1923.4,1779.9,1923.3,1780.7,1923.3,1781.3z
		 M1910.6,1770.2c-2.8,0-4.5,2.3-4.8,5.3h10.1C1915.7,1772.8,1914.1,1770.2,1910.6,1770.2z"/>
	<path class="st5" d="M1943.5,1794.1c-2.6,0-4.8-1-6.2-2.3v8.6l-7.7,3.9v-40.2h7.7v1.8c1.5-1.3,3.4-2.5,6.2-2.5
		c6.3,0,11.4,4.7,11.4,15.7C1954.9,1788,1950.8,1794.1,1943.5,1794.1z M1942.1,1770.8c-2.4,0-3.6,1-4.8,2.5v11.1
		c1.2,1.6,3,2.5,5.2,2.5c3,0,4.6-2.6,4.6-7.5C1947.1,1773.3,1945.1,1770.8,1942.1,1770.8z"/>
	<path class="st5" d="M1965.2,1761.7c-2.4,0-4.4-2-4.4-4.4s2-4.4,4.4-4.4s4.4,2,4.4,4.4S1967.6,1761.7,1965.2,1761.7z
		 M1961.3,1793.5v-29.4h7.7v29.4H1961.3z"/>
	<path class="st5" d="M1994.6,1793.5v-15.9c0-5.3-1.8-6.8-5-6.8s-5,1.6-5,6.7v16.1h-7.7v-29.4h7.7v2c1.3-1.4,3.8-2.6,6.9-2.6
		c7.5,0,10.9,5.2,10.9,13.4v16.6h-7.8V1793.5z"/>
	<path class="st5" d="M2020.7,1804.3l-2.7-5.8c6-0.8,7.7-2.3,7.7-6.8c-1.5,1.3-3.4,2.5-6.2,2.5c-6.3,0-11.4-4.7-11.4-15.7
		c0-8.8,4.1-15,11.4-15c2.6,0,4.8,1,6.2,2.3v-1.7h7.7v24.4C2033.4,1798.2,2031,1803.2,2020.7,1804.3z M2025.7,1773.3
		c-1.2-1.6-3-2.5-5.2-2.5c-3,0-4.6,2.6-4.6,7.5c0,6,2,8.6,5,8.6c2.4,0,3.6-1,4.8-2.5L2025.7,1773.3L2025.7,1773.3z"/>
</g>
<circle class="st3" cx="1925" cy="1659.1" r="54.5"/>
<circle class="st6" cx="2246.2" cy="1783.6" r="231.5"/>
<g>
	<rect x="2079" y="1752.7" class="st0" width="340" height="61.8"/>
	<path class="st5" d="M2155.1,1794.1c-6.6,0-12.3-2.7-15.2-7.1l5.7-5c2.7,3.2,6.3,4.5,10,4.5c4.6,0,6.8-1.3,6.8-4.3
		c0-2.5-1.3-3.6-8.7-5.3c-7.2-1.7-12.3-4-12.3-11.7c0-7.1,6.3-11.5,14-11.5c6.1,0,10.6,2.3,14.3,6.2l-5.7,5.5c-2.5-2.6-5.3-4-8.9-4
		c-4.2,0-5.6,1.8-5.6,3.5c0,2.5,1.7,3.2,7.9,4.7s13.1,3.6,13.1,12.1C2170.5,1789.1,2165.8,1794.1,2155.1,1794.1z"/>
	<path class="st5" d="M2177.8,1793.5v-37l7.7-3.9v40.8L2177.8,1793.5L2177.8,1793.5z"/>
	<path class="st5" d="M2217.2,1781.3h-17.6c0.3,4,3.2,5.5,6,5.5c2.1,0,3.9-0.8,5-2.1l5.5,4.6c-2.4,3-6.6,4.8-10.5,4.8
		c-8.5,0-13.8-6-13.8-15.3c0-9,5.7-15.3,13.1-15.3c7.8,0,12.4,6.9,12.4,15.3C2217.3,1779.9,2217.2,1780.7,2217.2,1781.3z
		 M2204.5,1770.2c-2.8,0-4.5,2.3-4.8,5.3h10.1C2209.5,1772.8,2208,1770.2,2204.5,1770.2z"/>
	<path class="st5" d="M2247.3,1781.3h-17.6c0.3,4,3.2,5.5,6,5.5c2.1,0,3.9-0.8,5-2.1l5.5,4.6c-2.4,3-6.6,4.8-10.5,4.8
		c-8.5,0-13.8-6-13.8-15.3c0-9,5.7-15.3,13.1-15.3c7.8,0,12.4,6.9,12.4,15.3C2247.4,1779.9,2247.3,1780.7,2247.3,1781.3z
		 M2234.6,1770.2c-2.8,0-4.5,2.3-4.8,5.3h10.1C2239.7,1772.8,2238.1,1770.2,2234.6,1770.2z"/>
	<path class="st5" d="M2267.5,1794.1c-2.6,0-4.8-1-6.2-2.3v8.6l-7.7,3.9v-40.2h7.7v1.8c1.5-1.3,3.4-2.5,6.2-2.5
		c6.3,0,11.4,4.7,11.4,15.7C2278.9,1788,2274.8,1794.1,2267.5,1794.1z M2266.1,1770.8c-2.4,0-3.6,1-4.8,2.5v11.1
		c1.2,1.6,3,2.5,5.2,2.5c3,0,4.6-2.6,4.6-7.5C2271.1,1773.3,2269.1,1770.8,2266.1,1770.8z"/>
	<path class="st5" d="M2289.2,1761.7c-2.4,0-4.4-2-4.4-4.4s2-4.4,4.4-4.4s4.4,2,4.4,4.4S2291.6,1761.7,2289.2,1761.7z
		 M2285.3,1793.5v-29.4h7.7v29.4H2285.3z"/>
	<path class="st5" d="M2318.6,1793.5v-15.9c0-5.3-1.8-6.8-5-6.8s-5,1.6-5,6.7v16.1h-7.7v-29.4h7.7v2c1.3-1.4,3.8-2.6,6.9-2.6
		c7.5,0,10.9,5.2,10.9,13.4v16.6h-7.8V1793.5z"/>
	<path class="st5" d="M2344.7,1804.3l-2.7-5.8c6-0.8,7.7-2.3,7.7-6.8c-1.5,1.3-3.4,2.5-6.2,2.5c-6.3,0-11.4-4.7-11.4-15.7
		c0-8.8,4.1-15,11.4-15c2.6,0,4.8,1,6.2,2.3v-1.7h7.7v24.4C2357.4,1798.2,2355,1803.2,2344.7,1804.3z M2349.7,1773.3
		c-1.2-1.6-3-2.5-5.2-2.5c-3,0-4.6,2.6-4.6,7.5c0,6,2,8.6,5,8.6c2.4,0,3.6-1,4.8-2.5V1773.3z"/>
</g>
<circle class="st3" cx="2246.5" cy="1659.1" r="54.5"/>
<g>
	<rect x="1864.2" y="200.4" class="st0" width="135.8" height="64.2"/>
	<path class="st5" d="M1939.9,241.2l-7-14.1h-7.9v14.1h-7.8V202h18.3c7.4,0,13.5,4.1,13.5,12.4c0,5.9-2.5,9.6-7.5,11.5l7.5,15.2
		L1939.9,241.2L1939.9,241.2z M1935.2,209.6H1925v10.1h10.2c3.6,0,5.6-1.7,5.6-5.1C1940.8,211.1,1938.7,209.6,1935.2,209.6z"/>
</g>
<g>
	<rect x="1063.2" y="200.4" class="st0" width="135.8" height="64.2"/>
	<path class="st5" d="M1135,209.7v31.5h-7.8v-31.5h-11.3V202h30.4v7.7H1135z"/>
</g>
<g>
	<rect x="1063.2" y="922.4" class="st0" width="135.8" height="64.2"/>
	<path class="st5" d="M1138.9,963.2l-7-14.1h-7.9v14.1h-7.8V924h18.3c7.4,0,13.5,4.1,13.5,12.4c0,5.9-2.5,9.6-7.5,11.5l7.5,15.2
		L1138.9,963.2L1138.9,963.2z M1134.2,931.6H1124v10.1h10.2c3.6,0,5.6-1.7,5.6-5.1C1139.8,933.1,1137.7,931.6,1134.2,931.6z"/>
</g>
<g>
	<rect x="1861.2" y="922.4" class="st0" width="135.8" height="64.2"/>
	<path class="st5" d="M1936.9,963.2l-7-14.1h-7.9v14.1h-7.8V924h18.3c7.4,0,13.5,4.1,13.5,12.4c0,5.9-2.5,9.6-7.5,11.5l7.5,15.2
		L1936.9,963.2L1936.9,963.2z M1932.2,931.6H1922v10.1h10.2c3.6,0,5.6-1.7,5.6-5.1C1937.8,933.1,1935.7,931.6,1932.2,931.6z"/>
</g>
<g>
	<rect x="2658.2" y="922.4" class="st0" width="135.8" height="64.2"/>
	<path class="st5" d="M2710.6,963.2v-6.9l16.9-20.1c1.2-1.5,3.5-4.1,4.5-5.1c-1.6,0.1-5.7,0.1-8,0.1h-12.3V924h29.5v6.9l-16.7,20.1
		c-1.2,1.5-3.5,4.1-4.5,5.1c1.6-0.1,5.7-0.1,8-0.1h13.5v7.2H2710.6z"/>
</g>
<g>
	
		<rect x="1567" y="1601.5" transform="matrix(7.684230e-03 -1 1 7.684230e-03 -82.4753 3255.6582)" class="st0" width="64.2" height="135.8"/>
	<path class="st5" d="M1608.8,1677.7l-10.6-18.9l-6.3,7.4v11.5h-7.8v-39.2h7.8v11.1c0,1.5-0.1,5-0.1,6.2c0.6-0.9,2-2.7,3.1-4
		l11-13.4h9.5l-11.5,13.6l14.4,25.6h-9.5V1677.7z"/>
</g>
<g>
	<rect x="1857.2" y="1637.4" class="st0" width="135.8" height="64.2"/>
	<path class="st5" d="M1922,1678.2h-11.7V1639h12.3c11.2,0,19.5,5.3,19.5,19.6C1942.1,1672.4,1932.1,1678.2,1922,1678.2z
		 M1922.3,1646.6h-4.1v24h3.9c8.2,0,12-4.8,12-12C1934,1650.6,1930.6,1646.6,1922.3,1646.6z"/>
</g>
<g>
	<rect x="2181.2" y="1637.4" class="st0" width="135.8" height="64.2"/>
	<path class="st5" d="M2248.9,1678.8c-6.6,0-12.3-2.7-15.2-7.1l5.7-5c2.7,3.2,6.3,4.5,10,4.5c4.6,0,6.8-1.3,6.8-4.3
		c0-2.5-1.3-3.6-8.7-5.3c-7.2-1.7-12.3-4-12.3-11.7c0-7.1,6.3-11.5,14-11.5c6.1,0,10.6,2.3,14.3,6.2l-5.7,5.5c-2.5-2.6-5.3-4-8.9-4
		c-4.2,0-5.6,1.8-5.6,3.5c0,2.5,1.7,3.2,7.9,4.7s13.1,3.6,13.1,12.1C2264.3,1673.8,2259.6,1678.8,2248.9,1678.8z"/>
</g>
<g>
	<rect x="2658.2" y="487.4" class="st0" width="135.8" height="64.2"/>
	<path class="st5" d="M2733.9,528.2l-3.5-5.9c-1.4-2.4-3.5-6.2-4.3-7.7c-0.7,1.5-2.8,5.2-4.3,7.7l-3.5,5.9h-9.4l12.4-20l-11.9-19.2
		h9.4l3,5c1.4,2.4,3.5,6.2,4.3,7.7c0.7-1.5,2.8-5.2,4.3-7.7l3-5h9.4l-11.9,19.2l12.5,20H2733.9z"/>
</g>
<g>
	<g>
		<polyline class="st4" points="1929,1303.6 1929,1459.6 1596,1459.6 1596,1522.9 		"/>
		<g>
			<polygon class="st1" points="1576.1,1517.1 1596,1551.6 1615.9,1517.1 			"/>
		</g>
	</g>
</g>
<g>
	<g>
		<polyline class="st4" points="1929,1303.6 1929,1459.6 2246,1459.6 2246,1522.9 		"/>
		<g>
			<polygon class="st1" points="2226.1,1517.1 2246,1551.6 2265.9,1517.1 			"/>
		</g>
	</g>
</g>
<g>
	<g>
		<polyline class="st4" points="1367,1783.6 1133,1783.6 1133,1332.3 		"/>
		<g>
			<polygon class="st1" points="1152.9,1338.1 1133,1303.6 1113.1,1338.1 			"/>
		</g>
	</g>
</g>
</svg>
