<?xml version="1.0" encoding="utf-8"?>
<!-- Generator: Adobe Illustrator 21.1.0, SVG Export Plug-In . SVG Version: 6.00 Build 0)  -->
<svg version="1.1" id="Layer_1" xmlns="http://www.w3.org/2000/svg" xmlns:xlink="http://www.w3.org/1999/xlink" x="0px" y="0px"
	 width="3116px" height="1140px" viewBox="0 0 3116 1140" style="enable-background:new 0 0 3116 1140;" xml:space="preserve">
<style type="text/css">
	.st0{fill:#FFFFFF;}
	.st1{fill:#8AD4E9;}
	.st2{fill:#D9F5FB;stroke:#D9F5FB;stroke-miterlimit:10;}
	.st3{fill:#D9F5FB;}
	.st4{fill:none;stroke:#D9F5FB;stroke-width:10;stroke-miterlimit:10;}
	.st5{fill:none;stroke:#4D4C4D;stroke-width:10;stroke-miterlimit:10;}
	.st6{fill:#4D4C4D;}
	.st7{enable-background:new    ;}
	.st8{fill:#74D2E8;}
</style>
<rect class="st0" width="3116" height="1140"/>
<circle class="st1" cx="326.5" cy="275.5" r="231.5"/>
<circle class="st2" cx="1054.5" cy="275.5" r="231.5"/>
<circle class="st2" cx="1782.5" cy="275.5" r="231.5"/>
<circle class="st1" cx="2510.5" cy="275.5" r="231.5"/>
<circle class="st1" cx="1054.5" cy="866.5" r="231.5"/>
<circle class="st1" cx="1782.5" cy="866.5" r="231.5"/>
<circle class="st2" cx="2510.5" cy="866.5" r="231.5"/>
<g>
	<polygon class="st3" points="788.5,270 557.5,270 557.5,280 788.5,280 788.5,294.9 823,275 788.5,255.1 	"/>
	<polygon class="st3" points="1552,275 1517.5,255.1 1517.5,270 1286.5,270 1286.5,280 1517.5,280 1517.5,294.9 	"/>
</g>
<g>
	<g>
		<line class="st4" x1="2013.5" y1="275" x2="2250.3" y2="275"/>
		<g>
			<polygon class="st3" points="2244.5,294.9 2279,275 2244.5,255.1 			"/>
		</g>
	</g>
</g>
<g>
	<g>
		<line class="st5" x1="1286.5" y1="866.5" x2="1523.3" y2="866.5"/>
		<g>
			<polygon class="st6" points="1517.5,886.4 1552,866.5 1517.5,846.6 			"/>
		</g>
	</g>
</g>
<g>
	<g>
		<line class="st5" x1="2742.5" y1="275" x2="2979.3" y2="275"/>
		<g>
			<polygon class="st6" points="2973.5,294.9 3008,275 2973.5,255.1 			"/>
		</g>
	</g>
</g>
<polygon class="st3" points="2279,866.5 2244.5,846.6 2244.5,861.5 2013.5,861.5 2013.5,871.5 2244.5,871.5 2244.5,886.4 "/>
<g>
	<g>
		<polyline class="st5" points="2014,866.5 2142,866.5 2142,275.5 2250.3,275.5 		"/>
		<g>
			<polygon class="st6" points="2244.5,295.4 2279,275.5 2244.5,255.6 			"/>
		</g>
	</g>
</g>
<g>
	<g>
		<polyline class="st5" points="794.3,866.5 698,866.5 698,275 558,275 		"/>
		<g>
			<polygon class="st6" points="788.5,846.6 823,866.5 788.5,886.4 			"/>
		</g>
	</g>
</g>
<g class="st7">
	<path class="st0" d="M221,296.2c-3.2,0-6-1.3-7.8-2.9v10.8l-9.7,4.8v-50.3h9.7v2.3c1.8-1.6,4.3-3.1,7.8-3.1
		c7.8,0,14.3,5.9,14.3,19.6C235.3,288.5,230.1,296.2,221,296.2z M219.2,267c-3,0-4.6,1.3-6,3.1v13.9c1.5,2,3.7,3.2,6.5,3.2
		c3.7,0,5.7-3.2,5.7-9.4C225.5,270.1,223,267,219.2,267z"/>
	<path class="st0" d="M264.4,269.9c-1.5-1.4-3.4-2.4-5.6-2.4c-3.8,0-6.2,1.6-6.2,8v19.9H243v-36.8h9.7v2.5c1.7-1.8,4.1-3.2,7.6-3.2
		c3.2,0,5.5,1.3,6.8,2.6L264.4,269.9z"/>
	<path class="st0" d="M286.6,296.2c-9.6,0-16.6-7.8-16.6-19.1s7-19.2,16.6-19.2c9.6,0,16.7,7.9,16.7,19.2S296.2,296.2,286.6,296.2z
		 M286.6,267.2c-4.6,0-6.8,4.2-6.8,9.9s2.2,9.8,6.8,9.8s6.9-4.7,6.9-9.8C293.4,271.5,291.2,267.2,286.6,267.2z"/>
	<path class="st0" d="M326,296.2c-9.6,0-17.2-7.8-17.2-19.1s7.4-19.2,17.6-19.2c7,0,11.5,3.4,14.6,8.1l-6.4,6.4
		c-2.2-3.1-4.5-5.2-8.4-5.2c-4.6,0-7.6,3.9-7.6,9.9c0,5.9,3,9.8,7.6,9.8c3.8,0,6.2-1.7,8.7-4.7l6.2,5.8
		C337.5,292.7,333.3,296.2,326,296.2z"/>
	<path class="st0" d="M377.3,280.1h-22c0.4,5,4.1,6.9,7.6,6.9c2.7,0,4.9-1,6.3-2.6l6.9,5.7c-2.9,3.8-8.3,6-13.2,6
		c-10.6,0-17.3-7.5-17.3-19.1c0-11.3,7.1-19.2,16.4-19.2c9.8,0,15.5,8.7,15.5,19.2C377.4,278.5,377.4,279.4,377.3,280.1z
		 M361.5,266.3c-3.5,0-5.7,2.9-6,6.6h12.6C367.8,269.6,365.8,266.3,361.5,266.3z"/>
	<path class="st0" d="M398.5,296.2c-5.8,0-11.5-1.7-15.4-4.3l3.2-7.4c3.9,2.2,8.1,3.4,12.7,3.4c3.8,0,4.9-0.9,4.9-2.8
		c0-1.7-1.3-2.5-5.4-3.7c-8.8-2.7-14.5-4.8-14.5-12.6c0-7.6,6.1-10.9,14.7-10.9c4.6,0,9.7,1.4,13.6,3.6l-3.1,7.6
		c-3.6-2-7.6-2.9-10.7-2.9c-3.9,0-5,0.8-5,2.4c0,1.5,1.1,2.2,7.6,4.3c6.6,2.2,12.3,4.6,12.3,11.9
		C413.5,293.2,406.8,296.2,398.5,296.2z"/>
	<path class="st0" d="M435.3,296.2c-5.8,0-11.5-1.7-15.4-4.3l3.2-7.4c3.9,2.2,8.1,3.4,12.7,3.4c3.8,0,4.9-0.9,4.9-2.8
		c0-1.7-1.3-2.5-5.4-3.7c-8.8-2.7-14.5-4.8-14.5-12.6c0-7.6,6.1-10.9,14.7-10.9c4.6,0,9.7,1.4,13.6,3.6l-3.1,7.6
		c-3.6-2-7.6-2.9-10.7-2.9c-3.9,0-5,0.8-5,2.4c0,1.5,1.1,2.2,7.6,4.3c6.6,2.2,12.3,4.6,12.3,11.9
		C450.2,293.2,443.5,296.2,435.3,296.2z"/>
</g>
<g class="st7">
	<path class="st6" d="M585.7,212c-2.1,0-3,0.8-3,3.2v3.7h6v6h-6v26.6h-6.4v-26.6h-4.2v-6h4.2v-4.3c0-6,3.7-8.2,8.2-8.2
		c1.7,0,3.5,0.2,4.8,0.6v5.6C587.9,212.2,586.8,212,585.7,212z"/>
	<path class="st6" d="M608,252.1c-8.2,0-14.3-6.8-14.3-16.9c0-10.7,6.3-17,14.5-17c8.3,0,14.5,6.6,14.5,16.8
		C622.7,245.8,616.4,252.1,608,252.1z M608,224.2c-4.8,0-7.8,4.3-7.8,10.7c0,7.1,3.3,11,8.1,11s8-4.9,8-10.8
		C616.3,228.5,613.1,224.2,608,224.2z"/>
	<path class="st6" d="M648.3,225.6c-1.4-0.7-2.8-1.2-4.9-1.2c-4,0-6.4,2.9-6.4,8.4v18.6h-6.4v-32.5h6.4v3.1c1.5-2.2,4.2-3.8,7.4-3.8
		c2.6,0,4.2,0.5,5.5,1.4L648.3,225.6z"/>
	<path class="st6" d="M675,251.4l-7.2-16.2l-5,6.6v9.6h-6.4v-41.8l6.4-3.3v20.5c0,2-0.1,5.3-0.1,6.9c0.9-1.3,2.5-3.8,3.6-5.3
		l6.8-9.5h7.3l-8.2,10.9l9.8,21.6H675z"/>
</g>
<g>
	<g class="st7">
		<path class="st8" d="M1361.1,251.4h-5.5l-4.4-16.4c-0.7-2.5-1.4-5.4-1.7-6.9c-0.3,1.6-1,4.5-1.7,7l-4.3,16.4h-5.5l-8.9-32.5h6.3
			l3.8,15.8c0.6,2.5,1.3,5.6,1.6,7.1c0.4-1.6,1.1-4.6,1.8-7.1l4.3-15.8h5.1l4.4,15.9c0.7,2.5,1.4,5.5,1.7,7.1c0.4-1.6,1-4.6,1.6-7.1
			l3.8-15.8h6.3L1361.1,251.4z"/>
		<path class="st8" d="M1393.8,251.4v-3.2c-2.2,2.2-5.4,3.9-8.9,3.9c-5.3,0-11.3-3-11.3-11c0-7.3,5.6-10.5,13-10.5
			c3,0,5.5,0.4,7.3,1.2v-2.4c0-3.5-2.2-5.5-6.1-5.5c-3.3,0-6,0.6-8.5,2l-2.5-4.8c3.1-1.9,6.6-2.9,11.2-2.9c7.3,0,12.2,3.5,12.2,10.9
			v22.3H1393.8z M1393.8,237.5c-1.7-0.9-4-1.4-7.4-1.4c-4.1,0-6.7,1.9-6.7,4.8c0,3.2,2,5.4,6.3,5.4c3.4,0,6.4-2.1,7.9-4.2V237.5z"/>
		<path class="st8" d="M1412.8,214.6c-2.3,0-4.2-1.9-4.2-4.1c0-2.3,1.9-4.2,4.2-4.2c2.2,0,4.1,1.9,4.1,4.2
			C1416.9,212.8,1415,214.6,1412.8,214.6z M1409.5,251.4v-32.5h6.4v32.5H1409.5z"/>
		<path class="st8" d="M1441.2,250.6c-1.5,0.9-3.7,1.5-6.3,1.5c-4.5,0-7.3-2.8-7.3-8.6v-18.8h-4.6v-5.8h4.6v-9.3l6.3-3.3v12.6h8.1
			v5.8h-8.1v17.7c0,3,1,3.9,3.3,3.9c1.7,0,3.5-0.6,4.7-1.3L1441.2,250.6z"/>
	</g>
</g>
<g class="st7">
	<path class="st6" d="M1357.6,927.5h-21.5c0.7,6.3,4.2,8.9,8.2,8.9c2.7,0,4.9-1,7.1-2.6l3.8,4.1c-2.9,2.7-6.3,4.3-11.2,4.3
		c-7.6,0-14.1-6.1-14.1-16.9c0-11,5.8-17,14.3-17c9.2,0,13.7,7.5,13.7,16.3C1357.8,925.8,1357.6,926.8,1357.6,927.5z M1343.6,914
		c-4.3,0-6.9,3-7.4,8.2h15.1C1351,917.8,1348.9,914,1343.6,914z"/>
	<path class="st6" d="M1382.2,941.5l-3.1-5.6c-1.3-2.4-2.8-5.3-3.4-6.6c-0.6,1.2-2.3,4.4-3.5,6.6l-3.2,5.6h-7.2l10.2-16.9l-9.5-15.7
		h7.4l2.5,4.6c1.3,2.4,2.9,5.3,3.4,6.5c0.7-1.2,2.2-4.3,3.5-6.6l2.5-4.5h7.3l-9.6,15.7l10.3,16.9H1382.2z"/>
	<path class="st6" d="M1421.9,927.5h-21.5c0.7,6.3,4.2,8.9,8.2,8.9c2.7,0,4.9-1,7.1-2.6l3.8,4.1c-2.9,2.7-6.3,4.3-11.2,4.3
		c-7.6,0-14.1-6.1-14.1-16.9c0-11,5.8-17,14.3-17c9.2,0,13.7,7.5,13.7,16.3C1422.1,925.8,1422,926.8,1421.9,927.5z M1408,914
		c-4.3,0-6.9,3-7.4,8.2h15.1C1415.4,917.8,1413.3,914,1408,914z"/>
	<path class="st6" d="M1450.5,918.3c-2.7-2.7-5-4-7.9-4c-4.6,0-7.6,4.2-7.6,10.8c0,6.4,2.7,11,7.8,11c3,0,4.8-1.4,7.4-4l4.1,4
		c-2.5,3.2-5.8,6.1-11.7,6.1c-7.9,0-14.1-6.7-14.1-16.9c0-10.8,6.3-17,14.3-17c4.8,0,8.5,1.9,11.5,5.5L1450.5,918.3z"/>
</g>
<g class="st7">
	<path class="st6" d="M2071.9,927.5h-21.5c0.7,6.3,4.2,8.9,8.2,8.9c2.7,0,4.9-1,7.1-2.6l3.8,4.1c-2.9,2.7-6.3,4.3-11.2,4.3
		c-7.6,0-14.1-6.1-14.1-16.9c0-11,5.8-17,14.3-17c9.2,0,13.7,7.5,13.7,16.3C2072.1,925.8,2072,926.8,2071.9,927.5z M2058,914
		c-4.3,0-6.9,3-7.4,8.2h15.1C2065.4,917.8,2063.3,914,2058,914z"/>
	<path class="st6" d="M2096.5,941.5l-3.1-5.6c-1.3-2.4-2.8-5.3-3.4-6.6c-0.6,1.2-2.3,4.4-3.5,6.6l-3.2,5.6h-7.2l10.2-16.9l-9.5-15.7
		h7.4l2.5,4.6c1.3,2.4,2.9,5.3,3.4,6.5c0.7-1.2,2.2-4.3,3.5-6.6l2.5-4.5h7.3l-9.6,15.7l10.3,16.9H2096.5z"/>
	<path class="st6" d="M2114.8,904.7c-2.3,0-4.2-1.9-4.2-4.1c0-2.3,1.9-4.2,4.2-4.2c2.2,0,4.1,1.9,4.1,4.2
		C2118.9,902.9,2117.1,904.7,2114.8,904.7z M2111.6,941.5V909h6.4v32.5H2111.6z"/>
	<path class="st6" d="M2143.3,940.7c-1.5,0.9-3.7,1.5-6.3,1.5c-4.5,0-7.3-2.8-7.3-8.6v-18.8h-4.6V909h4.6v-9.3l6.3-3.3V909h8.1v5.8
		h-8.1v17.7c0,3,1,3.9,3.3,3.9c1.7,0,3.5-0.6,4.7-1.3L2143.3,940.7z"/>
</g>
<g class="st7">
	<path class="st0" d="M2393.3,296.2c-3.2,0-6-1.3-7.8-2.9v10.8l-9.7,4.8v-50.3h9.7v2.3c1.8-1.6,4.3-3.1,7.8-3.1
		c7.8,0,14.3,5.9,14.3,19.6C2407.5,288.5,2402.4,296.2,2393.3,296.2z M2391.4,267c-3,0-4.6,1.3-6,3.1v13.9c1.5,2,3.7,3.2,6.5,3.2
		c3.7,0,5.7-3.2,5.7-9.4C2397.7,270.1,2395.2,267,2391.4,267z"/>
	<path class="st0" d="M2436.7,269.9c-1.5-1.4-3.4-2.4-5.6-2.4c-3.8,0-6.2,1.6-6.2,8v19.9h-9.7v-36.8h9.7v2.5
		c1.7-1.8,4.1-3.2,7.6-3.2c3.2,0,5.5,1.3,6.8,2.6L2436.7,269.9z"/>
	<path class="st0" d="M2458.8,296.2c-9.6,0-16.6-7.8-16.6-19.1s7-19.2,16.6-19.2s16.7,7.9,16.7,19.2S2468.4,296.2,2458.8,296.2z
		 M2458.8,267.2c-4.6,0-6.8,4.2-6.8,9.9s2.2,9.8,6.8,9.8c4.6,0,6.9-4.7,6.9-9.8C2465.6,271.5,2463.4,267.2,2458.8,267.2z"/>
	<path class="st0" d="M2498.3,296.2c-9.6,0-17.2-7.8-17.2-19.1s7.4-19.2,17.6-19.2c7,0,11.5,3.4,14.6,8.1l-6.4,6.4
		c-2.2-3.1-4.5-5.2-8.4-5.2c-4.6,0-7.6,3.9-7.6,9.9c0,5.9,3,9.8,7.6,9.8c3.8,0,6.2-1.7,8.7-4.7l6.2,5.8
		C2509.7,292.7,2505.5,296.2,2498.3,296.2z"/>
	<path class="st0" d="M2549.5,280.1h-22c0.4,5,4.1,6.9,7.6,6.9c2.7,0,4.9-1,6.3-2.6l6.9,5.7c-2.9,3.8-8.3,6-13.2,6
		c-10.6,0-17.3-7.5-17.3-19.1c0-11.3,7.1-19.2,16.4-19.2c9.8,0,15.5,8.7,15.5,19.2C2549.7,278.5,2549.6,279.4,2549.5,280.1z
		 M2533.7,266.3c-3.5,0-5.7,2.9-6,6.6h12.6C2540,269.6,2538,266.3,2533.7,266.3z"/>
	<path class="st0" d="M2570.7,296.2c-5.8,0-11.5-1.7-15.4-4.3l3.2-7.4c3.9,2.2,8.1,3.4,12.7,3.4c3.8,0,4.9-0.9,4.9-2.8
		c0-1.7-1.3-2.5-5.4-3.7c-8.8-2.7-14.5-4.8-14.5-12.6c0-7.6,6.1-10.9,14.7-10.9c4.6,0,9.7,1.4,13.6,3.6l-3.1,7.6
		c-3.6-2-7.6-2.9-10.7-2.9c-3.9,0-5,0.8-5,2.4c0,1.5,1.1,2.2,7.6,4.3c6.6,2.2,12.3,4.6,12.3,11.9
		C2585.7,293.2,2579,296.2,2570.7,296.2z"/>
	<path class="st0" d="M2607.5,296.2c-5.8,0-11.5-1.7-15.4-4.3l3.2-7.4c3.9,2.2,8.1,3.4,12.7,3.4c3.8,0,4.9-0.9,4.9-2.8
		c0-1.7-1.3-2.5-5.4-3.7c-8.8-2.7-14.5-4.8-14.5-12.6c0-7.6,6.1-10.9,14.7-10.9c4.6,0,9.7,1.4,13.6,3.6l-3.1,7.6
		c-3.6-2-7.6-2.9-10.7-2.9c-3.9,0-5,0.8-5,2.4c0,1.5,1.1,2.2,7.6,4.3c6.6,2.2,12.3,4.6,12.3,11.9
		C2622.5,293.2,2615.7,296.2,2607.5,296.2z"/>
</g>
<g class="st7">
	<path class="st8" d="M2397.2,886.4v-7l13.4-15.9c1.5-1.8,3.6-4.1,4.6-5.2c-1.3,0.1-4.2,0.1-6,0.1h-10.8v-8.8h29.2v7l-13,15.9
		c-1.5,1.8-3.6,4.1-4.6,5.2c1.3-0.1,4.2-0.1,6-0.1h11.5v8.8H2397.2z"/>
	<path class="st8" d="M2450.1,887.2c-9.6,0-16.6-7.8-16.6-19.1s7-19.2,16.6-19.2s16.7,7.9,16.7,19.2S2459.7,887.2,2450.1,887.2z
		 M2450.1,858.2c-4.6,0-6.8,4.2-6.8,9.9s2.2,9.8,6.8,9.8c4.6,0,6.9-4.7,6.9-9.8C2456.9,862.5,2454.7,858.2,2450.1,858.2z"/>
	<path class="st8" d="M2517.2,886.4v-19.9c0-6.6-1.9-8.5-5.9-8.5s-6,2-6,8.3v20.1h-9.7v-19.9c0-6.6-1.9-8.5-5.9-8.5s-6,2-6,8.3v20.1
		h-9.7v-36.8h9.7v2.5c1.7-1.8,4.2-3.2,8.1-3.2c4.7,0,7.4,1.3,10.2,4.7c2.5-2.6,5.6-4.7,11.7-4.7c9.4,0,13.1,6.4,13.1,16.8v20.7
		H2517.2z"/>
	<path class="st8" d="M2553.3,887.2c-3.2,0-6-1.3-7.8-2.9v2.1h-9.7v-46.2l9.7-4.8V852c1.8-1.6,4.3-3.1,7.8-3.1
		c7.8,0,14.3,5.9,14.3,19.6C2567.6,879.5,2562.4,887.2,2553.3,887.2z M2551.5,858c-3,0-4.6,1.3-6,3.1v13.9c1.5,2,3.7,3.2,6.5,3.2
		c3.7,0,5.7-3.2,5.7-9.4C2557.8,861.1,2555.3,858,2551.5,858z"/>
	<path class="st8" d="M2580.4,846.6c-3,0-5.5-2.5-5.5-5.5c0-3,2.5-5.5,5.5-5.5c3,0,5.5,2.5,5.5,5.5
		C2586,844.1,2583.4,846.6,2580.4,846.6z M2575.6,886.4v-36.8h9.7v36.8H2575.6z"/>
	<path class="st8" d="M2624.8,871.1h-22c0.4,5,4.1,6.9,7.6,6.9c2.7,0,4.9-1,6.3-2.6l6.9,5.7c-2.9,3.8-8.3,6-13.2,6
		c-10.6,0-17.3-7.5-17.3-19.1c0-11.3,7.1-19.2,16.4-19.2c9.8,0,15.5,8.7,15.5,19.2C2624.9,869.5,2624.9,870.4,2624.8,871.1z
		 M2609,857.3c-3.5,0-5.7,2.9-6,6.6h12.6C2615.3,860.6,2613.3,857.3,2609,857.3z"/>
</g>
<g class="st7">
	<path class="st8" d="M967.8,257.3c-3.2,0-6-1.3-7.8-2.9v10.8l-9.7,4.8v-50.3h9.7v2.3c1.8-1.6,4.3-3.1,7.8-3.1
		c7.8,0,14.3,5.9,14.3,19.6C982.1,249.6,976.9,257.3,967.8,257.3z M966,228.1c-3,0-4.6,1.3-6,3.1V245c1.5,2,3.7,3.2,6.5,3.2
		c3.7,0,5.7-3.2,5.7-9.4C972.3,231.2,969.7,228.1,966,228.1z"/>
	<path class="st8" d="M1009.3,256.5V254c-1.8,1.8-4.8,3.2-8.3,3.2c-6.9,0-13.7-4.2-13.7-13.1c0-8.1,6.6-12.2,14.9-12.2
		c3.4,0,5.5,0.7,7.1,1.5v-1.8c0-2.6-1.8-4.7-5.3-4.7c-4.4,0-6.7,0.6-10.1,2.5l-3.7-6.7c4.3-2.5,7.8-3.7,13.8-3.7
		c8.9,0,14.9,4.6,14.9,12.9v24.6H1009.3z M1009.3,241.1c-1.7-1.1-3.3-1.5-6.7-1.5c-3.6,0-5.6,1.7-5.6,4.6c0,2.6,1.5,4.9,5.6,4.9
		c3.2,0,5.7-1.6,6.7-3.4V241.1z"/>
	<path class="st8" d="M1049.5,231c-1.5-1.4-3.4-2.4-5.6-2.4c-3.8,0-6.2,1.6-6.2,8v19.9h-9.7v-36.8h9.7v2.5c1.7-1.8,4.1-3.2,7.6-3.2
		c3.2,0,5.5,1.3,6.8,2.6L1049.5,231z"/>
	<path class="st8" d="M1086.8,241.2h-22c0.4,5,4.1,6.9,7.6,6.9c2.7,0,4.9-1,6.3-2.6l6.9,5.7c-2.9,3.8-8.3,6-13.2,6
		c-10.6,0-17.3-7.5-17.3-19.1c0-11.3,7.1-19.2,16.4-19.2c9.8,0,15.5,8.7,15.5,19.2C1086.9,239.6,1086.8,240.5,1086.8,241.2z
		 M1071,227.4c-3.5,0-5.7,2.9-6,6.6h12.6C1077.3,230.7,1075.3,227.4,1071,227.4z"/>
	<path class="st8" d="M1116.8,256.5v-19.9c0-6.6-2.2-8.5-6.2-8.5c-4,0-6.3,2-6.3,8.3v20.1h-9.7v-36.8h9.7v2.5
		c1.7-1.8,4.8-3.2,8.6-3.2c9.4,0,13.6,6.4,13.6,16.8v20.7H1116.8z"/>
	<path class="st8" d="M1155.7,255c-1.6,1.3-4.5,2.2-7.5,2.2c-6,0-9.8-4.6-9.8-11.1v-17.4h-6.2v-9.1h6.2v-9.5l9.7-4.8v14.3h8.8v9.1
		h-8.8v14.8c0,3.5,1.3,4.4,3.6,4.4c1.8,0,3.1-0.8,5.5-2.8L1155.7,255z"/>
</g>
<g class="st7">
	<path class="st8" d="M947.4,341.3c-3.2,0-6-1.3-7.8-2.9v10.8l-9.7,4.8v-50.3h9.7v2.3c1.8-1.6,4.3-3.1,7.8-3.1
		c7.8,0,14.3,5.9,14.3,19.6C961.7,333.6,956.5,341.3,947.4,341.3z M945.6,312.1c-3,0-4.6,1.3-6,3.1V329c1.5,2,3.7,3.2,6.5,3.2
		c3.7,0,5.7-3.2,5.7-9.4C951.9,315.2,949.3,312.1,945.6,312.1z"/>
	<path class="st8" d="M990.8,315c-1.5-1.4-3.4-2.4-5.6-2.4c-3.8,0-6.2,1.6-6.2,8v19.9h-9.7v-36.8h9.7v2.5c1.7-1.8,4.1-3.2,7.6-3.2
		c3.2,0,5.5,1.3,6.8,2.6L990.8,315z"/>
	<path class="st8" d="M1012.9,341.3c-9.6,0-16.6-7.8-16.6-19.1s7-19.2,16.6-19.2c9.6,0,16.7,7.9,16.7,19.2
		S1022.5,341.3,1012.9,341.3z M1012.9,312.3c-4.6,0-6.8,4.2-6.8,9.9s2.2,9.8,6.8,9.8s6.9-4.7,6.9-9.8
		C1019.8,316.6,1017.5,312.3,1012.9,312.3z"/>
	<path class="st8" d="M1052.4,341.3c-9.6,0-17.2-7.8-17.2-19.1s7.4-19.2,17.6-19.2c7,0,11.5,3.4,14.6,8.1l-6.4,6.4
		c-2.2-3.1-4.5-5.2-8.4-5.2c-4.6,0-7.6,3.9-7.6,9.9c0,5.9,3,9.8,7.6,9.8c3.8,0,6.2-1.7,8.7-4.7l6.2,5.8
		C1063.9,337.8,1059.7,341.3,1052.4,341.3z"/>
	<path class="st8" d="M1103.6,325.2h-22c0.4,5,4.1,6.9,7.6,6.9c2.7,0,4.9-1,6.3-2.6l6.9,5.7c-2.9,3.8-8.3,6-13.2,6
		c-10.6,0-17.3-7.5-17.3-19.1c0-11.3,7.1-19.2,16.4-19.2c9.8,0,15.5,8.7,15.5,19.2C1103.8,323.6,1103.7,324.5,1103.6,325.2z
		 M1087.8,311.4c-3.5,0-5.7,2.9-6,6.6h12.6C1094.1,314.7,1092.1,311.4,1087.8,311.4z"/>
	<path class="st8" d="M1124.8,341.3c-5.8,0-11.5-1.7-15.4-4.3l3.2-7.4c3.9,2.2,8.1,3.4,12.7,3.4c3.8,0,4.9-0.9,4.9-2.8
		c0-1.7-1.3-2.5-5.4-3.7c-8.8-2.7-14.5-4.8-14.5-12.6c0-7.6,6.1-10.9,14.7-10.9c4.6,0,9.7,1.4,13.6,3.6l-3.1,7.6
		c-3.6-2-7.6-2.9-10.7-2.9c-3.9,0-5,0.8-5,2.4c0,1.5,1.1,2.2,7.6,4.3c6.6,2.2,12.3,4.6,12.3,11.9
		C1139.8,338.3,1133.1,341.3,1124.8,341.3z"/>
	<path class="st8" d="M1161.6,341.3c-5.8,0-11.5-1.7-15.4-4.3l3.2-7.4c3.9,2.2,8.1,3.4,12.7,3.4c3.8,0,4.9-0.9,4.9-2.8
		c0-1.7-1.3-2.5-5.4-3.7c-8.8-2.7-14.5-4.8-14.5-12.6c0-7.6,6.1-10.9,14.7-10.9c4.6,0,9.7,1.4,13.6,3.6l-3.1,7.6
		c-3.6-2-7.6-2.9-10.7-2.9c-3.9,0-5,0.8-5,2.4c0,1.5,1.1,2.2,7.6,4.3c6.6,2.2,12.3,4.6,12.3,11.9
		C1176.6,338.3,1169.8,341.3,1161.6,341.3z"/>
</g>
<g>
	<g class="st7">
		<path class="st8" d="M1697,257.3c-3.2,0-6-1.3-7.8-2.9v10.8l-9.7,4.8v-50.3h9.7v2.3c1.8-1.6,4.3-3.1,7.8-3.1
			c7.8,0,14.3,5.9,14.3,19.6C1711.3,249.6,1706.1,257.3,1697,257.3z M1695.2,228.1c-3,0-4.6,1.3-6,3.1V245c1.5,2,3.7,3.2,6.5,3.2
			c3.7,0,5.7-3.2,5.7-9.4C1701.5,231.2,1698.9,228.1,1695.2,228.1z"/>
		<path class="st8" d="M1738.5,256.5V254c-1.8,1.8-4.8,3.2-8.3,3.2c-6.9,0-13.7-4.2-13.7-13.1c0-8.1,6.6-12.2,14.9-12.2
			c3.4,0,5.5,0.7,7.1,1.5v-1.8c0-2.6-1.8-4.7-5.2-4.7c-4.4,0-6.7,0.6-10.1,2.5l-3.7-6.7c4.3-2.5,7.8-3.7,13.8-3.7
			c8.9,0,14.9,4.6,14.9,12.9v24.6H1738.5z M1738.5,241.1c-1.7-1.1-3.3-1.5-6.7-1.5c-3.6,0-5.6,1.7-5.6,4.6c0,2.6,1.5,4.9,5.6,4.9
			c3.2,0,5.7-1.6,6.7-3.4V241.1z"/>
		<path class="st8" d="M1778.7,231c-1.5-1.4-3.4-2.4-5.6-2.4c-3.8,0-6.2,1.6-6.2,8v19.9h-9.7v-36.8h9.7v2.5c1.7-1.8,4.1-3.2,7.6-3.2
			c3.2,0,5.5,1.3,6.8,2.6L1778.7,231z"/>
		<path class="st8" d="M1816,241.2h-22c0.3,5,4.1,6.9,7.6,6.9c2.7,0,4.9-1,6.3-2.6l6.9,5.7c-2.9,3.8-8.3,6-13.2,6
			c-10.6,0-17.3-7.5-17.3-19.1c0-11.3,7.1-19.2,16.4-19.2c9.8,0,15.5,8.7,15.5,19.2C1816.1,239.6,1816,240.5,1816,241.2z
			 M1800.2,227.4c-3.5,0-5.7,2.9-6,6.6h12.6C1806.5,230.7,1804.5,227.4,1800.2,227.4z"/>
		<path class="st8" d="M1846,256.5v-19.9c0-6.6-2.2-8.5-6.2-8.5s-6.3,2-6.3,8.3v20.1h-9.7v-36.8h9.7v2.5c1.7-1.8,4.8-3.2,8.6-3.2
			c9.4,0,13.6,6.4,13.6,16.8v20.7H1846z"/>
		<path class="st8" d="M1884.9,255c-1.6,1.3-4.5,2.2-7.5,2.2c-6,0-9.8-4.6-9.8-11.1v-17.4h-6.2v-9.1h6.2v-9.5l9.7-4.8v14.3h8.8v9.1
			h-8.8v14.8c0,3.5,1.3,4.4,3.6,4.4c1.8,0,3.1-0.8,5.5-2.8L1884.9,255z"/>
	</g>
	<g class="st7">
		<path class="st8" d="M1676.6,341.3c-3.2,0-6-1.3-7.8-2.9v10.8l-9.7,4.8v-50.3h9.7v2.3c1.8-1.6,4.3-3.1,7.8-3.1
			c7.8,0,14.3,5.9,14.3,19.6C1690.9,333.6,1685.7,341.3,1676.6,341.3z M1674.8,312.1c-3,0-4.6,1.3-6,3.1V329c1.5,2,3.7,3.2,6.5,3.2
			c3.7,0,5.7-3.2,5.7-9.4C1681.1,315.2,1678.5,312.1,1674.8,312.1z"/>
		<path class="st8" d="M1720,315c-1.5-1.4-3.4-2.4-5.6-2.4c-3.8,0-6.2,1.6-6.2,8v19.9h-9.7v-36.8h9.7v2.5c1.7-1.8,4.1-3.2,7.6-3.2
			c3.2,0,5.5,1.3,6.8,2.6L1720,315z"/>
		<path class="st8" d="M1742.1,341.3c-9.6,0-16.6-7.8-16.6-19.1s7-19.2,16.6-19.2s16.7,7.9,16.7,19.2S1751.7,341.3,1742.1,341.3z
			 M1742.1,312.3c-4.6,0-6.8,4.2-6.8,9.9s2.2,9.8,6.8,9.8c4.6,0,6.9-4.7,6.9-9.8C1749,316.6,1746.7,312.3,1742.1,312.3z"/>
		<path class="st8" d="M1781.6,341.3c-9.6,0-17.2-7.8-17.2-19.1s7.4-19.2,17.6-19.2c7,0,11.5,3.4,14.6,8.1l-6.4,6.4
			c-2.2-3.1-4.5-5.2-8.4-5.2c-4.6,0-7.6,3.9-7.6,9.9c0,5.9,3,9.8,7.6,9.8c3.8,0,6.2-1.7,8.7-4.7l6.2,5.8
			C1793.1,337.8,1788.9,341.3,1781.6,341.3z"/>
		<path class="st8" d="M1832.8,325.2h-22c0.4,5,4.1,6.9,7.6,6.9c2.7,0,4.9-1,6.3-2.6l6.9,5.7c-2.9,3.8-8.3,6-13.2,6
			c-10.6,0-17.3-7.5-17.3-19.1c0-11.3,7.1-19.2,16.4-19.2c9.8,0,15.5,8.7,15.5,19.2C1833,323.6,1832.9,324.5,1832.8,325.2z
			 M1817,311.4c-3.5,0-5.7,2.9-6,6.6h12.6C1823.3,314.7,1821.3,311.4,1817,311.4z"/>
		<path class="st8" d="M1854,341.3c-5.8,0-11.5-1.7-15.4-4.3l3.2-7.4c3.9,2.2,8.1,3.4,12.7,3.4c3.8,0,4.9-0.9,4.9-2.8
			c0-1.7-1.3-2.5-5.4-3.7c-8.8-2.7-14.5-4.8-14.5-12.6c0-7.6,6.1-10.9,14.7-10.9c4.6,0,9.7,1.4,13.6,3.6l-3.1,7.6
			c-3.6-2-7.6-2.9-10.7-2.9c-3.9,0-5,0.8-5,2.4c0,1.5,1.1,2.2,7.6,4.3c6.6,2.2,12.3,4.6,12.3,11.9
			C1869,338.3,1862.3,341.3,1854,341.3z"/>
		<path class="st8" d="M1890.8,341.3c-5.8,0-11.5-1.7-15.4-4.3l3.2-7.4c3.9,2.2,8.1,3.4,12.7,3.4c3.8,0,4.9-0.9,4.9-2.8
			c0-1.7-1.3-2.5-5.4-3.7c-8.8-2.7-14.5-4.8-14.5-12.6c0-7.6,6.1-10.9,14.7-10.9c4.6,0,9.7,1.4,13.6,3.6l-3.1,7.6
			c-3.6-2-7.6-2.9-10.7-2.9c-3.9,0-5,0.8-5,2.4c0,1.5,1.1,2.2,7.6,4.3c6.6,2.2,12.3,4.6,12.3,11.9
			C1905.8,338.3,1899,341.3,1890.8,341.3z"/>
	</g>
</g>
<g class="st7">
	<path class="st0" d="M995.9,848.3c-9.6,0-17.2-7.8-17.2-19.1s7.4-19.2,17.6-19.2c7,0,11.5,3.4,14.6,8.1l-6.4,6.4
		c-2.2-3.1-4.5-5.2-8.4-5.2c-4.6,0-7.6,3.9-7.6,9.9c0,5.9,3,9.8,7.6,9.8c3.8,0,6.2-1.7,8.7-4.7l6.2,5.8
		C1007.4,844.8,1003.2,848.3,995.9,848.3z"/>
	<path class="st0" d="M1040.3,847.5v-19.9c0-6.6-2.2-8.5-6.2-8.5c-4,0-6.3,2-6.3,8.3v20.1h-9.7v-46.2l9.7-4.8v16.7
		c1.7-1.8,4.8-3.2,8.6-3.2c9.4,0,13.6,6.4,13.6,16.8v20.7H1040.3z"/>
	<path class="st0" d="M1064.2,807.7c-3,0-5.5-2.5-5.5-5.5c0-3,2.5-5.5,5.5-5.5s5.5,2.5,5.5,5.5
		C1069.7,805.2,1067.2,807.7,1064.2,807.7z M1059.4,847.5v-36.8h9.7v36.8H1059.4z"/>
	<path class="st0" d="M1079.1,847.5v-46.2l9.7-4.8v51H1079.1z"/>
	<path class="st0" d="M1118.7,847.5v-2.3c-1.8,1.6-4.3,3.1-7.8,3.1c-7.8,0-14.3-5.9-14.3-19.6c0-11,5.2-18.7,14.3-18.7
		c3.2,0,6,1.3,7.8,2.9v-11.6l9.7-4.8v51H1118.7z M1118.7,822.2c-1.5-2-3.7-3.2-6.5-3.2c-3.7,0-5.7,3.2-5.7,9.4
		c0,7.6,2.5,10.7,6.3,10.7c3,0,4.6-1.3,6-3.1V822.2z"/>
</g>
<g class="st7">
	<path class="st0" d="M947.4,932.3c-3.2,0-6-1.3-7.8-2.9v10.8l-9.7,4.8v-50.3h9.7v2.3c1.8-1.6,4.3-3.1,7.8-3.1
		c7.8,0,14.3,5.9,14.3,19.6C961.7,924.6,956.5,932.3,947.4,932.3z M945.6,903.1c-3,0-4.6,1.3-6,3.1V920c1.5,2,3.7,3.2,6.5,3.2
		c3.7,0,5.7-3.2,5.7-9.4C951.9,906.2,949.3,903.1,945.6,903.1z"/>
	<path class="st0" d="M990.8,906c-1.5-1.4-3.4-2.4-5.6-2.4c-3.8,0-6.2,1.6-6.2,8v19.9h-9.7v-36.8h9.7v2.5c1.7-1.8,4.1-3.2,7.6-3.2
		c3.2,0,5.5,1.3,6.8,2.6L990.8,906z"/>
	<path class="st0" d="M1012.9,932.3c-9.6,0-16.6-7.8-16.6-19.1s7-19.2,16.6-19.2c9.6,0,16.7,7.9,16.7,19.2
		S1022.5,932.3,1012.9,932.3z M1012.9,903.3c-4.6,0-6.8,4.2-6.8,9.9s2.2,9.8,6.8,9.8s6.9-4.7,6.9-9.8
		C1019.8,907.6,1017.5,903.3,1012.9,903.3z"/>
	<path class="st0" d="M1052.4,932.3c-9.6,0-17.2-7.8-17.2-19.1s7.4-19.2,17.6-19.2c7,0,11.5,3.4,14.6,8.1l-6.4,6.4
		c-2.2-3.1-4.5-5.2-8.4-5.2c-4.6,0-7.6,3.9-7.6,9.9c0,5.9,3,9.8,7.6,9.8c3.8,0,6.2-1.7,8.7-4.7l6.2,5.8
		C1063.9,928.8,1059.7,932.3,1052.4,932.3z"/>
	<path class="st0" d="M1103.6,916.2h-22c0.4,5,4.1,6.9,7.6,6.9c2.7,0,4.9-1,6.3-2.6l6.9,5.7c-2.9,3.8-8.3,6-13.2,6
		c-10.6,0-17.3-7.5-17.3-19.1c0-11.3,7.1-19.2,16.4-19.2c9.8,0,15.5,8.7,15.5,19.2C1103.8,914.6,1103.7,915.5,1103.6,916.2z
		 M1087.8,902.4c-3.5,0-5.7,2.9-6,6.6h12.6C1094.1,905.7,1092.1,902.4,1087.8,902.4z"/>
	<path class="st0" d="M1124.8,932.3c-5.8,0-11.5-1.7-15.4-4.3l3.2-7.4c3.9,2.2,8.1,3.4,12.7,3.4c3.8,0,4.9-0.9,4.9-2.8
		c0-1.7-1.3-2.5-5.4-3.7c-8.8-2.7-14.5-4.8-14.5-12.6c0-7.6,6.1-10.9,14.7-10.9c4.6,0,9.7,1.4,13.6,3.6l-3.1,7.6
		c-3.6-2-7.6-2.9-10.7-2.9c-3.9,0-5,0.8-5,2.4c0,1.5,1.1,2.2,7.6,4.3c6.6,2.2,12.3,4.6,12.3,11.9
		C1139.8,929.3,1133.1,932.3,1124.8,932.3z"/>
	<path class="st0" d="M1161.6,932.3c-5.8,0-11.5-1.7-15.4-4.3l3.2-7.4c3.9,2.2,8.1,3.4,12.7,3.4c3.8,0,4.9-0.9,4.9-2.8
		c0-1.7-1.3-2.5-5.4-3.7c-8.8-2.7-14.5-4.8-14.5-12.6c0-7.6,6.1-10.9,14.7-10.9c4.6,0,9.7,1.4,13.6,3.6l-3.1,7.6
		c-3.6-2-7.6-2.9-10.7-2.9c-3.9,0-5,0.8-5,2.4c0,1.5,1.1,2.2,7.6,4.3c6.6,2.2,12.3,4.6,12.3,11.9
		C1176.6,929.3,1169.8,932.3,1161.6,932.3z"/>
</g>
<g class="st7">
	<path class="st0" d="M1725.1,848.3c-9.6,0-17.2-7.8-17.2-19.1s7.4-19.2,17.6-19.2c7,0,11.5,3.4,14.6,8.1l-6.4,6.4
		c-2.2-3.1-4.5-5.2-8.4-5.2c-4.6,0-7.6,3.9-7.6,9.9c0,5.9,3,9.8,7.6,9.8c3.8,0,6.2-1.7,8.7-4.7l6.2,5.8
		C1736.6,844.8,1732.4,848.3,1725.1,848.3z"/>
	<path class="st0" d="M1769.5,847.5v-19.9c0-6.6-2.2-8.5-6.2-8.5s-6.3,2-6.3,8.3v20.1h-9.7v-46.2l9.7-4.8v16.7
		c1.7-1.8,4.8-3.2,8.6-3.2c9.4,0,13.6,6.4,13.6,16.8v20.7H1769.5z"/>
	<path class="st0" d="M1793.4,807.7c-3,0-5.5-2.5-5.5-5.5c0-3,2.5-5.5,5.5-5.5c3,0,5.5,2.5,5.5,5.5
		C1798.9,805.2,1796.4,807.7,1793.4,807.7z M1788.6,847.5v-36.8h9.7v36.8H1788.6z"/>
	<path class="st0" d="M1808.3,847.5v-46.2l9.7-4.8v51H1808.3z"/>
	<path class="st0" d="M1847.9,847.5v-2.3c-1.8,1.6-4.3,3.1-7.8,3.1c-7.8,0-14.3-5.9-14.3-19.6c0-11,5.2-18.7,14.3-18.7
		c3.2,0,6,1.3,7.8,2.9v-11.6l9.7-4.8v51H1847.9z M1847.9,822.2c-1.5-2-3.7-3.2-6.5-3.2c-3.7,0-5.7,3.2-5.7,9.4
		c0,7.6,2.5,10.7,6.3,10.7c3,0,4.6-1.3,6-3.1V822.2z"/>
</g>
<g class="st7">
	<path class="st0" d="M1676.6,932.3c-3.2,0-6-1.3-7.8-2.9v10.8l-9.7,4.8v-50.3h9.7v2.3c1.8-1.6,4.3-3.1,7.8-3.1
		c7.8,0,14.3,5.9,14.3,19.6C1690.9,924.6,1685.7,932.3,1676.6,932.3z M1674.8,903.1c-3,0-4.6,1.3-6,3.1V920c1.5,2,3.7,3.2,6.5,3.2
		c3.7,0,5.7-3.2,5.7-9.4C1681.1,906.2,1678.5,903.1,1674.8,903.1z"/>
	<path class="st0" d="M1720,906c-1.5-1.4-3.4-2.4-5.6-2.4c-3.8,0-6.2,1.6-6.2,8v19.9h-9.7v-36.8h9.7v2.5c1.7-1.8,4.1-3.2,7.6-3.2
		c3.2,0,5.5,1.3,6.8,2.6L1720,906z"/>
	<path class="st0" d="M1742.1,932.3c-9.6,0-16.6-7.8-16.6-19.1s7-19.2,16.6-19.2s16.7,7.9,16.7,19.2S1751.7,932.3,1742.1,932.3z
		 M1742.1,903.3c-4.6,0-6.8,4.2-6.8,9.9s2.2,9.8,6.8,9.8c4.6,0,6.9-4.7,6.9-9.8C1749,907.6,1746.7,903.3,1742.1,903.3z"/>
	<path class="st0" d="M1781.6,932.3c-9.6,0-17.2-7.8-17.2-19.1s7.4-19.2,17.6-19.2c7,0,11.5,3.4,14.6,8.1l-6.4,6.4
		c-2.2-3.1-4.5-5.2-8.4-5.2c-4.6,0-7.6,3.9-7.6,9.9c0,5.9,3,9.8,7.6,9.8c3.8,0,6.2-1.7,8.7-4.7l6.2,5.8
		C1793.1,928.8,1788.9,932.3,1781.6,932.3z"/>
	<path class="st0" d="M1832.8,916.2h-22c0.4,5,4.1,6.9,7.6,6.9c2.7,0,4.9-1,6.3-2.6l6.9,5.7c-2.9,3.8-8.3,6-13.2,6
		c-10.6,0-17.3-7.5-17.3-19.1c0-11.3,7.1-19.2,16.4-19.2c9.8,0,15.5,8.7,15.5,19.2C1833,914.6,1832.9,915.5,1832.8,916.2z
		 M1817,902.4c-3.5,0-5.7,2.9-6,6.6h12.6C1823.3,905.7,1821.3,902.4,1817,902.4z"/>
	<path class="st0" d="M1854,932.3c-5.8,0-11.5-1.7-15.4-4.3l3.2-7.4c3.9,2.2,8.1,3.4,12.7,3.4c3.8,0,4.9-0.9,4.9-2.8
		c0-1.7-1.3-2.5-5.4-3.7c-8.8-2.7-14.5-4.8-14.5-12.6c0-7.6,6.1-10.9,14.7-10.9c4.6,0,9.7,1.4,13.6,3.6l-3.1,7.6
		c-3.6-2-7.6-2.9-10.7-2.9c-3.9,0-5,0.8-5,2.4c0,1.5,1.1,2.2,7.6,4.3c6.6,2.2,12.3,4.6,12.3,11.9
		C1869,929.3,1862.3,932.3,1854,932.3z"/>
	<path class="st0" d="M1890.8,932.3c-5.8,0-11.5-1.7-15.4-4.3l3.2-7.4c3.9,2.2,8.1,3.4,12.7,3.4c3.8,0,4.9-0.9,4.9-2.8
		c0-1.7-1.3-2.5-5.4-3.7c-8.8-2.7-14.5-4.8-14.5-12.6c0-7.6,6.1-10.9,14.7-10.9c4.6,0,9.7,1.4,13.6,3.6l-3.1,7.6
		c-3.6-2-7.6-2.9-10.7-2.9c-3.9,0-5,0.8-5,2.4c0,1.5,1.1,2.2,7.6,4.3c6.6,2.2,12.3,4.6,12.3,11.9
		C1905.8,929.3,1899,932.3,1890.8,932.3z"/>
</g>
</svg>
