<?xml version="1.0" encoding="utf-8"?>
<!-- Generator: Adobe Illustrator 21.0.2, SVG Export Plug-In . SVG Version: 6.00 Build 0)  -->
<svg version="1.1" id="Layer_1" xmlns="http://www.w3.org/2000/svg" xmlns:xlink="http://www.w3.org/1999/xlink" x="0px" y="0px"
	 width="1600px" height="567px" viewBox="0 0 1600 567" style="enable-background:new 0 0 1600 567;" xml:space="preserve">
<style type="text/css">
	.st0{fill:#4D4C4D;}
	.st1{enable-background:new    ;}
	.st2{fill:none;stroke:#4C4C4C;stroke-width:3;stroke-miterlimit:10;}
	.st3{fill:none;stroke:#4C4C4C;stroke-width:3;stroke-miterlimit:10;stroke-dasharray:8;}
	.st4{fill:none;stroke:#4C4C4C;stroke-width:4;stroke-miterlimit:10;stroke-dasharray:16;}
	.st5{fill:#4C4C4C;}
</style>
<g>
	<g>
		<path class="st0" d="M852.3,42.6c-0.4-0.5-0.9-0.8-1.6-0.8h-17.9V26.7c0-0.4-0.2-1-0.6-1.3c-0.4-0.3-0.8-0.6-1.3-0.6h-47.7
			c-0.5-2.4-1-4.9-1.5-7.3c-0.2-0.8-0.9-1.5-1.8-1.5h-22c-0.8,0-1.7,0.6-1.8,1.5c-0.5,2.4-1,4.9-1.5,7.3h-7.9c-0.5,0-1,0.2-1.3,0.6
			c-0.3,0.4-0.6,0.8-0.6,1.3v58.1l0,0c0,0.2,0,0.4,0.1,0.6c0,0.1,0,0.1,0,0.2c0.1,0,0.1,0.2,0.2,0.2c0,0.2,0.1,0.2,0.2,0.3
			c0,0,0,0,0.1,0v0c0.2,0.1,0.3,0.2,0.5,0.4c0.1,0,0.1,0,0.2,0c0.2,0.1,0.4,0.2,0.6,0.2h84.2c0.2,0,0.5-0.1,0.6-0.2
			c0.1,0,0.2,0,0.2,0c0.2-0.1,0.3-0.2,0.4-0.3c0,0,0,0,0.1-0.1c0,0,0,0,0,0c0.2-0.2,0.2-0.3,0.3-0.5c6.6-13.7,13.2-27.4,19.7-41.1
			C852.7,43.8,852.7,43.1,852.3,42.6L852.3,42.6z M753.1,37.3c-0.5,0-0.9,0.4-0.9,0.9c0,0.5,0.4,0.9,0.9,0.9h76v2.4h-76
			c-0.5,0-0.9,0.4-0.9,0.9s0.4,0.9,0.9,0.9h11.4c-0.4,0.8-0.8,1.6-1.1,2.4h-10.2c-0.5,0-0.9,0.4-0.9,0.9c0,0.5,0.4,0.9,0.9,0.9h9.4
			l-1.2,2.4h-8.2c-0.5,0-0.9,0.4-0.9,0.9c0,0.4,0.4,0.9,0.9,0.9h7.3c-0.4,0.8-0.8,1.6-1.2,2.4h-6.1c-0.5,0-0.9,0.4-0.9,0.9
			c0,0.5,0.4,0.9,0.9,0.9h5.3c-0.4,0.8-0.8,1.6-1.1,2.4h-4.1c-0.5,0-0.9,0.4-0.9,0.9s0.4,0.9,0.9,0.9h3.2l-1.2,2.4h-2.1
			c-0.5,0-0.9,0.4-0.9,0.9c0,0.5,0.4,0.9,0.9,0.9h1.1c-0.4,0.8-0.8,1.6-1.1,2.4l0,0c-0.5,0-0.9,0.4-0.9,0.9c0,0.2,0.1,0.4,0.2,0.6
			c-1.3,2.6-2.5,5.3-3.8,7.8v-48l0,0h7.6c0.9,0,1.7-0.6,1.8-1.5c0.5-2.5,1.1-4.9,1.5-7.4h19c0.5,2.5,1,4.9,1.5,7.4
			c0.2,0.8,0.9,1.5,1.8,1.5h47.3v8.8 M829.9,82.8h-80.1c6-12.5,12-24.9,18-37.4h80.1C841.8,57.9,835.8,70.4,829.9,82.8L829.9,82.8z
			 M812.8,80.2h14.5c0.4,0,0.7-0.2,0.8-0.5l4.6-9.5c0.2-0.5,0-1.1-0.4-1.3c-0.4-0.2-1.1,0-1.3,0.4c-1.4,3-2.9,6-4.3,9h-13.9
			c-0.5,0-0.9,0.4-0.9,0.9C811.8,79.8,812.2,80.2,812.8,80.2L812.8,80.2z"/>
	</g>
</g>
<g>
	<g>
		<path class="st0" d="M112.8,214.8c-0.4-0.5-0.9-0.8-1.6-0.8H93.3v-15.1c0-0.4-0.2-1-0.6-1.3c-0.4-0.3-0.8-0.6-1.3-0.6H43.8
			c-0.5-2.4-1-4.9-1.5-7.3c-0.2-0.8-0.9-1.5-1.8-1.5h-22c-0.8,0-1.7,0.6-1.8,1.5c-0.5,2.4-1,4.9-1.5,7.3H7.3c-0.5,0-1,0.2-1.3,0.6
			c-0.3,0.4-0.6,0.8-0.6,1.3V257l0,0c0,0.2,0,0.4,0.1,0.6c0,0.1,0,0.1,0,0.2c0.1,0,0.1,0.2,0.2,0.2c0,0.2,0.1,0.2,0.2,0.3
			c0,0,0,0,0.1,0v0c0.2,0.1,0.3,0.2,0.5,0.4c0.1,0,0.1,0,0.2,0c0.2,0.1,0.4,0.2,0.6,0.2h84.2c0.2,0,0.5-0.1,0.6-0.2
			c0.1,0,0.2,0,0.2,0c0.2-0.1,0.3-0.2,0.4-0.3c0,0,0,0,0.1-0.1c0,0,0,0,0,0c0.2-0.2,0.2-0.3,0.3-0.5c6.6-13.7,13.2-27.4,19.7-41.1
			C113.1,216.1,113.1,215.4,112.8,214.8L112.8,214.8z M13.6,209.6c-0.5,0-0.9,0.4-0.9,0.9c0,0.5,0.4,0.9,0.9,0.9h76v2.4h-76
			c-0.5,0-0.9,0.4-0.9,0.9c0,0.5,0.4,0.9,0.9,0.9h11.4c-0.4,0.8-0.8,1.6-1.1,2.4H13.6c-0.5,0-0.9,0.4-0.9,0.9c0,0.5,0.4,0.9,0.9,0.9
			h9.4l-1.2,2.4h-8.2c-0.5,0-0.9,0.4-0.9,0.9c0,0.4,0.4,0.9,0.9,0.9h7.3c-0.4,0.8-0.8,1.6-1.2,2.4h-6.1c-0.5,0-0.9,0.4-0.9,0.9
			c0,0.5,0.4,0.9,0.9,0.9h5.3c-0.4,0.8-0.8,1.6-1.1,2.4h-4.1c-0.5,0-0.9,0.4-0.9,0.9s0.4,0.9,0.9,0.9h3.2l-1.2,2.4h-2.1
			c-0.5,0-0.9,0.4-0.9,0.9c0,0.5,0.4,0.9,0.9,0.9h1.1c-0.4,0.8-0.8,1.6-1.1,2.4l0,0c-0.5,0-0.9,0.4-0.9,0.9c0,0.2,0.1,0.4,0.2,0.6
			c-1.3,2.6-2.5,5.3-3.8,7.8v-48l0,0h7.6c0.9,0,1.7-0.6,1.8-1.5c0.5-2.5,1.1-4.9,1.5-7.4h19c0.5,2.5,1,4.9,1.5,7.4
			c0.2,0.8,0.9,1.5,1.8,1.5h47.3v8.8 M90.3,255.1H10.2c6-12.5,12-24.9,18-37.4h80.1C102.3,230.2,96.3,242.6,90.3,255.1L90.3,255.1z
			 M73.2,252.5h14.5c0.4,0,0.7-0.2,0.8-0.5l4.6-9.5c0.2-0.5,0-1.1-0.4-1.3c-0.4-0.2-1.1,0-1.3,0.4c-1.4,3-2.9,6-4.3,9H73.2
			c-0.5,0-0.9,0.4-0.9,0.9C72.3,252,72.6,252.5,73.2,252.5L73.2,252.5z"/>
	</g>
</g>
<g>
	<g>
		<path class="st0" d="M247.1,214.8c-0.4-0.5-0.9-0.8-1.6-0.8h-17.9v-15.1c0-0.4-0.2-1-0.6-1.3c-0.4-0.3-0.8-0.6-1.3-0.6h-47.7
			c-0.5-2.4-1-4.9-1.5-7.3c-0.2-0.8-0.9-1.5-1.8-1.5h-22c-0.8,0-1.7,0.6-1.8,1.5c-0.5,2.4-1,4.9-1.5,7.3h-7.9c-0.5,0-1,0.2-1.3,0.6
			c-0.3,0.4-0.6,0.8-0.6,1.3V257l0,0c0,0.2,0,0.4,0.1,0.6c0,0.1,0,0.1,0,0.2c0.1,0,0.1,0.2,0.2,0.2c0,0.2,0.1,0.2,0.2,0.3
			c0,0,0,0,0.1,0v0c0.2,0.1,0.3,0.2,0.5,0.4c0.1,0,0.1,0,0.2,0c0.2,0.1,0.4,0.2,0.6,0.2h84.2c0.2,0,0.5-0.1,0.6-0.2
			c0.1,0,0.2,0,0.2,0c0.2-0.1,0.3-0.2,0.4-0.3c0,0,0,0,0.1-0.1c0,0,0,0,0,0c0.2-0.2,0.2-0.3,0.3-0.5c6.6-13.7,13.2-27.4,19.7-41.1
			C247.5,216.1,247.4,215.4,247.1,214.8L247.1,214.8z M147.9,209.6c-0.5,0-0.9,0.4-0.9,0.9c0,0.5,0.4,0.9,0.9,0.9h76v2.4h-76
			c-0.5,0-0.9,0.4-0.9,0.9c0,0.5,0.4,0.9,0.9,0.9h11.4c-0.4,0.8-0.8,1.6-1.1,2.4h-10.2c-0.5,0-0.9,0.4-0.9,0.9
			c0,0.5,0.4,0.9,0.9,0.9h9.4l-1.2,2.4h-8.2c-0.5,0-0.9,0.4-0.9,0.9c0,0.4,0.4,0.9,0.9,0.9h7.3c-0.4,0.8-0.8,1.6-1.2,2.4h-6.1
			c-0.5,0-0.9,0.4-0.9,0.9c0,0.5,0.4,0.9,0.9,0.9h5.3c-0.4,0.8-0.8,1.6-1.1,2.4H148c-0.5,0-0.9,0.4-0.9,0.9s0.4,0.9,0.9,0.9h3.2
			l-1.2,2.4H148c-0.5,0-0.9,0.4-0.9,0.9c0,0.5,0.4,0.9,0.9,0.9h1.1c-0.4,0.8-0.8,1.6-1.1,2.4l0,0c-0.5,0-0.9,0.4-0.9,0.9
			c0,0.2,0.1,0.4,0.2,0.6c-1.3,2.6-2.5,5.3-3.8,7.8v-48l0,0h7.6c0.9,0,1.7-0.6,1.8-1.5c0.5-2.5,1.1-4.9,1.5-7.4h19
			c0.5,2.5,1,4.9,1.5,7.4c0.2,0.8,0.9,1.5,1.8,1.5H224v8.8 M224.6,255.1h-80.1c6-12.5,12-24.9,18-37.4h80.1
			C236.6,230.2,230.6,242.6,224.6,255.1L224.6,255.1z M207.5,252.5H222c0.4,0,0.7-0.2,0.8-0.5l4.6-9.5c0.2-0.5,0-1.1-0.4-1.3
			c-0.4-0.2-1.1,0-1.3,0.4c-1.4,3-2.9,6-4.3,9h-13.9c-0.5,0-0.9,0.4-0.9,0.9C206.6,252,207,252.5,207.5,252.5L207.5,252.5z"/>
	</g>
</g>
<g>
	<g>
		<path class="st0" d="M392.9,214.8c-0.4-0.5-0.9-0.8-1.6-0.8h-17.9v-15.1c0-0.4-0.2-1-0.6-1.3c-0.4-0.3-0.8-0.6-1.3-0.6h-47.7
			c-0.5-2.4-1-4.9-1.5-7.3c-0.2-0.8-0.9-1.5-1.8-1.5h-22c-0.8,0-1.7,0.6-1.8,1.5c-0.5,2.4-1,4.9-1.5,7.3h-7.9c-0.5,0-1,0.2-1.3,0.6
			c-0.3,0.4-0.6,0.8-0.6,1.3V257l0,0c0,0.2,0,0.4,0.1,0.6c0,0.1,0,0.1,0,0.2c0.1,0,0.1,0.2,0.2,0.2c0,0.2,0.1,0.2,0.2,0.3
			c0,0,0,0,0.1,0v0c0.2,0.1,0.3,0.2,0.5,0.4c0.1,0,0.1,0,0.2,0c0.2,0.1,0.4,0.2,0.6,0.2h84.2c0.2,0,0.5-0.1,0.6-0.2
			c0.1,0,0.2,0,0.2,0c0.2-0.1,0.3-0.2,0.4-0.3c0,0,0,0,0.1-0.1c0,0,0,0,0,0c0.2-0.2,0.2-0.3,0.3-0.5c6.6-13.7,13.2-27.4,19.7-41.1
			C393.2,216.1,393.2,215.4,392.9,214.8L392.9,214.8z M293.7,209.6c-0.5,0-0.9,0.4-0.9,0.9c0,0.5,0.4,0.9,0.9,0.9h76v2.4h-76
			c-0.5,0-0.9,0.4-0.9,0.9c0,0.5,0.4,0.9,0.9,0.9H305c-0.4,0.8-0.8,1.6-1.1,2.4h-10.2c-0.5,0-0.9,0.4-0.9,0.9c0,0.5,0.4,0.9,0.9,0.9
			h9.4l-1.2,2.4h-8.2c-0.5,0-0.9,0.4-0.9,0.9c0,0.4,0.4,0.9,0.9,0.9h7.3c-0.4,0.8-0.8,1.6-1.2,2.4h-6.1c-0.5,0-0.9,0.4-0.9,0.9
			c0,0.5,0.4,0.9,0.9,0.9h5.3c-0.4,0.8-0.8,1.6-1.1,2.4h-4.1c-0.5,0-0.9,0.4-0.9,0.9s0.4,0.9,0.9,0.9h3.2l-1.2,2.4h-2.1
			c-0.5,0-0.9,0.4-0.9,0.9c0,0.5,0.4,0.9,0.9,0.9h1.1c-0.4,0.8-0.8,1.6-1.1,2.4l0,0c-0.5,0-0.9,0.4-0.9,0.9c0,0.2,0.1,0.4,0.2,0.6
			c-1.3,2.6-2.5,5.3-3.8,7.8v-48l0,0h7.6c0.9,0,1.7-0.6,1.8-1.5c0.5-2.5,1.1-4.9,1.5-7.4h19c0.5,2.5,1,4.9,1.5,7.4
			c0.2,0.8,0.9,1.5,1.8,1.5h47.3v8.8 M370.4,255.1h-80.1c6-12.5,12-24.9,18-37.4h80.1C382.4,230.2,376.4,242.6,370.4,255.1
			L370.4,255.1z M353.3,252.5h14.5c0.4,0,0.7-0.2,0.8-0.5l4.6-9.5c0.2-0.5,0-1.1-0.4-1.3s-1.1,0-1.3,0.4c-1.4,3-2.9,6-4.3,9h-13.9
			c-0.5,0-0.9,0.4-0.9,0.9C352.4,252,352.7,252.5,353.3,252.5L353.3,252.5z"/>
	</g>
</g>
<g>
	<g>
		<path class="st0" d="M539.5,214.8c-0.4-0.5-0.9-0.8-1.6-0.8h-17.9v-15.1c0-0.4-0.2-1-0.6-1.3c-0.4-0.3-0.8-0.6-1.3-0.6h-47.7
			c-0.5-2.4-1-4.9-1.5-7.3c-0.2-0.8-0.9-1.5-1.8-1.5h-22c-0.8,0-1.7,0.6-1.8,1.5c-0.5,2.4-1,4.9-1.5,7.3H434c-0.5,0-1,0.2-1.3,0.6
			c-0.3,0.4-0.6,0.8-0.6,1.3V257l0,0c0,0.2,0,0.4,0.1,0.6c0,0.1,0,0.1,0,0.2c0.1,0,0.1,0.2,0.2,0.2c0,0.2,0.1,0.2,0.2,0.3
			c0,0,0,0,0.1,0v0c0.2,0.1,0.3,0.2,0.5,0.4c0.1,0,0.1,0,0.2,0c0.2,0.1,0.4,0.2,0.6,0.2h84.2c0.2,0,0.5-0.1,0.6-0.2
			c0.1,0,0.2,0,0.2,0c0.2-0.1,0.3-0.2,0.4-0.3c0,0,0,0,0.1-0.1c0,0,0,0,0,0c0.2-0.2,0.2-0.3,0.3-0.5c6.6-13.7,13.2-27.4,19.7-41.1
			C539.9,216.1,539.8,215.4,539.5,214.8L539.5,214.8z M440.3,209.6c-0.5,0-0.9,0.4-0.9,0.9c0,0.5,0.4,0.9,0.9,0.9h76v2.4h-76
			c-0.5,0-0.9,0.4-0.9,0.9c0,0.5,0.4,0.9,0.9,0.9h11.4c-0.4,0.8-0.8,1.6-1.1,2.4h-10.2c-0.5,0-0.9,0.4-0.9,0.9
			c0,0.5,0.4,0.9,0.9,0.9h9.4l-1.2,2.4h-8.2c-0.5,0-0.9,0.4-0.9,0.9c0,0.4,0.4,0.9,0.9,0.9h7.3c-0.4,0.8-0.8,1.6-1.2,2.4h-6.1
			c-0.5,0-0.9,0.4-0.9,0.9c0,0.5,0.4,0.9,0.9,0.9h5.3c-0.4,0.8-0.8,1.6-1.1,2.4h-4.1c-0.5,0-0.9,0.4-0.9,0.9s0.4,0.9,0.9,0.9h3.2
			l-1.2,2.4h-2.1c-0.5,0-0.9,0.4-0.9,0.9c0,0.5,0.4,0.9,0.9,0.9h1.1c-0.4,0.8-0.8,1.6-1.1,2.4l0,0c-0.5,0-0.9,0.4-0.9,0.9
			c0,0.2,0.1,0.4,0.2,0.6c-1.3,2.6-2.5,5.3-3.8,7.8v-48l0,0h7.6c0.9,0,1.7-0.6,1.8-1.5c0.5-2.5,1.1-4.9,1.5-7.4h19
			c0.5,2.5,1,4.9,1.5,7.4c0.2,0.8,0.9,1.5,1.8,1.5h47.3v8.8 M517,255.1h-80.1c6-12.5,12-24.9,18-37.4H535
			C529,230.2,523,242.6,517,255.1L517,255.1z M499.9,252.5h14.5c0.4,0,0.7-0.2,0.8-0.5l4.6-9.5c0.2-0.5,0-1.1-0.4-1.3
			c-0.4-0.2-1.1,0-1.3,0.4c-1.4,3-2.9,6-4.3,9H500c-0.5,0-0.9,0.4-0.9,0.9C499,252,499.4,252.5,499.9,252.5L499.9,252.5z"/>
	</g>
</g>
<g>
	<g>
		<path class="st0" d="M701.6,214.8c-0.4-0.5-0.9-0.8-1.6-0.8h-17.9v-15.1c0-0.4-0.2-1-0.6-1.3c-0.4-0.3-0.8-0.6-1.3-0.6h-47.7
			c-0.5-2.4-1-4.9-1.5-7.3c-0.2-0.8-0.9-1.5-1.8-1.5h-22c-0.8,0-1.7,0.6-1.8,1.5c-0.5,2.4-1,4.9-1.5,7.3h-7.9c-0.5,0-1,0.2-1.3,0.6
			c-0.3,0.4-0.6,0.8-0.6,1.3V257l0,0c0,0.2,0,0.4,0.1,0.6c0,0.1,0,0.1,0,0.2c0.1,0,0.1,0.2,0.2,0.2c0,0.2,0.1,0.2,0.2,0.3
			c0,0,0,0,0.1,0v0c0.2,0.1,0.3,0.2,0.5,0.4c0.1,0,0.1,0,0.2,0c0.2,0.1,0.4,0.2,0.6,0.2h84.2c0.2,0,0.5-0.1,0.6-0.2
			c0.1,0,0.2,0,0.2,0c0.2-0.1,0.3-0.2,0.4-0.3c0,0,0,0,0.1-0.1c0,0,0,0,0,0c0.2-0.2,0.2-0.3,0.3-0.5c6.6-13.7,13.2-27.4,19.7-41.1
			C702,216.1,701.9,215.4,701.6,214.8L701.6,214.8z M602.4,209.6c-0.5,0-0.9,0.4-0.9,0.9c0,0.5,0.4,0.9,0.9,0.9h76v2.4h-76
			c-0.5,0-0.9,0.4-0.9,0.9c0,0.5,0.4,0.9,0.9,0.9h11.4c-0.4,0.8-0.8,1.6-1.1,2.4h-10.2c-0.5,0-0.9,0.4-0.9,0.9
			c0,0.5,0.4,0.9,0.9,0.9h9.4l-1.2,2.4h-8.2c-0.5,0-0.9,0.4-0.9,0.9c0,0.4,0.4,0.9,0.9,0.9h7.3c-0.4,0.8-0.8,1.6-1.2,2.4h-6.1
			c-0.5,0-0.9,0.4-0.9,0.9c0,0.5,0.4,0.9,0.9,0.9h5.3c-0.4,0.8-0.8,1.6-1.1,2.4h-4.1c-0.5,0-0.9,0.4-0.9,0.9s0.4,0.9,0.9,0.9h3.2
			l-1.2,2.4h-2.1c-0.5,0-0.9,0.4-0.9,0.9c0,0.5,0.4,0.9,0.9,0.9h1.1c-0.4,0.8-0.8,1.6-1.1,2.4l0,0c-0.5,0-0.9,0.4-0.9,0.9
			c0,0.2,0.1,0.4,0.2,0.6c-1.3,2.6-2.5,5.3-3.8,7.8v-48l0,0h7.6c0.9,0,1.7-0.6,1.8-1.5c0.5-2.5,1.1-4.9,1.5-7.4h19
			c0.5,2.5,1,4.9,1.5,7.4c0.2,0.8,0.9,1.5,1.8,1.5h47.3v8.8 M679.1,255.1H599c6-12.5,12-24.9,18-37.4h80.1
			C691.1,230.2,685.1,242.6,679.1,255.1L679.1,255.1z M662,252.5h14.5c0.4,0,0.7-0.2,0.8-0.5l4.6-9.5c0.2-0.5,0-1.1-0.4-1.3
			c-0.4-0.2-1.1,0-1.3,0.4c-1.4,3-2.9,6-4.3,9h-13.9c-0.5,0-0.9,0.4-0.9,0.9C661.1,252,661.5,252.5,662,252.5L662,252.5z"/>
	</g>
</g>
<g>
	<g>
		<path class="st0" d="M404.5,447.3c-0.4-0.5-0.9-0.8-1.6-0.8H385v-15.1c0-0.4-0.2-1-0.6-1.3c-0.4-0.3-0.8-0.6-1.3-0.6h-47.7
			c-0.5-2.4-1-4.9-1.5-7.3c-0.2-0.8-0.9-1.5-1.8-1.5h-22c-0.8,0-1.7,0.6-1.8,1.5c-0.5,2.4-1,4.9-1.5,7.3H299c-0.5,0-1,0.2-1.3,0.6
			s-0.6,0.8-0.6,1.3v58.1l0,0c0,0.2,0,0.4,0.1,0.6c0,0.1,0,0.1,0,0.2c0.1,0,0.1,0.2,0.2,0.2c0,0.2,0.1,0.2,0.2,0.3c0,0,0,0,0.1,0v0
			c0.2,0.1,0.3,0.2,0.5,0.4c0.1,0,0.1,0,0.2,0c0.2,0.1,0.4,0.2,0.6,0.2h84.2c0.2,0,0.5-0.1,0.6-0.2c0.1,0,0.2,0,0.2,0
			c0.2-0.1,0.3-0.2,0.4-0.3c0,0,0,0,0.1-0.1c0,0,0,0,0,0c0.2-0.2,0.2-0.3,0.3-0.5c6.6-13.7,13.2-27.4,19.7-41.1
			C404.9,448.6,404.8,447.9,404.5,447.3L404.5,447.3z M305.3,442.1c-0.5,0-0.9,0.4-0.9,0.9c0,0.5,0.4,0.9,0.9,0.9h76v2.4h-76
			c-0.5,0-0.9,0.4-0.9,0.9c0,0.5,0.4,0.9,0.9,0.9h11.4c-0.4,0.8-0.8,1.6-1.1,2.4h-10.2c-0.5,0-0.9,0.4-0.9,0.9
			c0,0.5,0.4,0.9,0.9,0.9h9.4l-1.2,2.4h-8.2c-0.5,0-0.9,0.4-0.9,0.9c0,0.4,0.4,0.9,0.9,0.9h7.3c-0.4,0.8-0.8,1.6-1.2,2.4h-6.1
			c-0.5,0-0.9,0.4-0.9,0.9c0,0.5,0.4,0.9,0.9,0.9h5.3c-0.4,0.8-0.8,1.6-1.1,2.4h-4.1c-0.5,0-0.9,0.4-0.9,0.9c0,0.5,0.4,0.9,0.9,0.9
			h3.2l-1.2,2.4h-2.1c-0.5,0-0.9,0.4-0.9,0.9s0.4,0.9,0.9,0.9h1.1c-0.4,0.8-0.8,1.6-1.1,2.4l0,0c-0.5,0-0.9,0.4-0.9,0.9
			c0,0.2,0.1,0.4,0.2,0.6c-1.3,2.6-2.5,5.3-3.8,7.8v-48l0,0h7.6c0.9,0,1.7-0.6,1.8-1.5c0.5-2.5,1.1-4.9,1.5-7.4h19
			c0.5,2.5,1,4.9,1.5,7.4c0.2,0.8,0.9,1.5,1.8,1.5h47.3v8.8 M382,487.6h-80.1c6-12.5,12-24.9,18-37.4H400
			C394,462.7,388,475.2,382,487.6L382,487.6z M364.9,485h14.5c0.4,0,0.7-0.2,0.8-0.5l4.6-9.5c0.2-0.5,0-1.1-0.4-1.3
			c-0.4-0.2-1.1,0-1.3,0.4c-1.4,3-2.9,6-4.3,9H365c-0.5,0-0.9,0.4-0.9,0.9C364,484.5,364.3,485,364.9,485L364.9,485z"/>
	</g>
</g>
<g>
	<g>
		<path class="st0" d="M547.3,447.3c-0.4-0.5-0.9-0.8-1.6-0.8h-17.9v-15.1c0-0.4-0.2-1-0.6-1.3c-0.4-0.3-0.8-0.6-1.3-0.6h-47.7
			c-0.5-2.4-1-4.9-1.5-7.3c-0.2-0.8-0.9-1.5-1.8-1.5h-22c-0.8,0-1.7,0.6-1.8,1.5c-0.5,2.4-1,4.9-1.5,7.3h-7.9c-0.5,0-1,0.2-1.3,0.6
			s-0.6,0.8-0.6,1.3v58.1l0,0c0,0.2,0,0.4,0.1,0.6c0,0.1,0,0.1,0,0.2c0.1,0,0.1,0.2,0.2,0.2c0,0.2,0.1,0.2,0.2,0.3c0,0,0,0,0.1,0v0
			c0.2,0.1,0.3,0.2,0.5,0.4c0.1,0,0.1,0,0.2,0c0.2,0.1,0.4,0.2,0.6,0.2h84.2c0.2,0,0.5-0.1,0.6-0.2c0.1,0,0.2,0,0.2,0
			c0.2-0.1,0.3-0.2,0.4-0.3c0,0,0,0,0.1-0.1c0,0,0,0,0,0c0.2-0.2,0.2-0.3,0.3-0.5c6.6-13.7,13.2-27.4,19.7-41.1
			C547.7,448.6,547.6,447.9,547.3,447.3L547.3,447.3z M448.1,442.1c-0.5,0-0.9,0.4-0.9,0.9c0,0.5,0.4,0.9,0.9,0.9h76v2.4h-76
			c-0.5,0-0.9,0.4-0.9,0.9c0,0.5,0.4,0.9,0.9,0.9h11.4c-0.4,0.8-0.8,1.6-1.1,2.4h-10.2c-0.5,0-0.9,0.4-0.9,0.9
			c0,0.5,0.4,0.9,0.9,0.9h9.4l-1.2,2.4h-8.2c-0.5,0-0.9,0.4-0.9,0.9c0,0.4,0.4,0.9,0.9,0.9h7.3c-0.4,0.8-0.8,1.6-1.2,2.4h-6.1
			c-0.5,0-0.9,0.4-0.9,0.9c0,0.5,0.4,0.9,0.9,0.9h5.3c-0.4,0.8-0.8,1.6-1.1,2.4h-4.1c-0.5,0-0.9,0.4-0.9,0.9c0,0.5,0.4,0.9,0.9,0.9
			h3.2l-1.2,2.4h-2.1c-0.5,0-0.9,0.4-0.9,0.9s0.4,0.9,0.9,0.9h1.1c-0.4,0.8-0.8,1.6-1.1,2.4l0,0c-0.5,0-0.9,0.4-0.9,0.9
			c0,0.2,0.1,0.4,0.2,0.6c-1.3,2.6-2.5,5.3-3.8,7.8v-48l0,0h7.6c0.9,0,1.7-0.6,1.8-1.5c0.5-2.5,1.1-4.9,1.5-7.4h19
			c0.5,2.5,1,4.9,1.5,7.4c0.2,0.8,0.9,1.5,1.8,1.5h47.3v8.8 M524.8,487.6h-80.1c6-12.5,12-24.9,18-37.4h80.1
			C536.8,462.7,530.8,475.2,524.8,487.6L524.8,487.6z M507.7,485h14.5c0.4,0,0.7-0.2,0.8-0.5l4.6-9.5c0.2-0.5,0-1.1-0.4-1.3
			c-0.4-0.2-1.1,0-1.3,0.4c-1.4,3-2.9,6-4.3,9h-13.9c-0.5,0-0.9,0.4-0.9,0.9C506.8,484.5,507.1,485,507.7,485L507.7,485z"/>
	</g>
</g>
<g>
	<g>
		<path class="st0" d="M703.5,447.3c-0.4-0.5-0.9-0.8-1.6-0.8H684v-15.1c0-0.4-0.2-1-0.6-1.3c-0.4-0.3-0.8-0.6-1.3-0.6h-47.7
			c-0.5-2.4-1-4.9-1.5-7.3c-0.2-0.8-0.9-1.5-1.8-1.5h-22c-0.8,0-1.7,0.6-1.8,1.5c-0.5,2.4-1,4.9-1.5,7.3H598c-0.5,0-1,0.2-1.3,0.6
			s-0.6,0.8-0.6,1.3v58.1l0,0c0,0.2,0,0.4,0.1,0.6c0,0.1,0,0.1,0,0.2c0.1,0,0.1,0.2,0.2,0.2c0,0.2,0.1,0.2,0.2,0.3c0,0,0,0,0.1,0v0
			c0.2,0.1,0.3,0.2,0.5,0.4c0.1,0,0.1,0,0.2,0c0.2,0.1,0.4,0.2,0.6,0.2h84.2c0.2,0,0.5-0.1,0.6-0.2c0.1,0,0.2,0,0.2,0
			c0.2-0.1,0.3-0.2,0.4-0.3c0,0,0,0,0.1-0.1c0,0,0,0,0,0c0.2-0.2,0.2-0.3,0.3-0.5c6.6-13.7,13.2-27.4,19.7-41.1
			C703.9,448.6,703.8,447.9,703.5,447.3L703.5,447.3z M604.3,442.1c-0.5,0-0.9,0.4-0.9,0.9c0,0.5,0.4,0.9,0.9,0.9h76v2.4h-76
			c-0.5,0-0.9,0.4-0.9,0.9c0,0.5,0.4,0.9,0.9,0.9h11.4c-0.4,0.8-0.8,1.6-1.1,2.4h-10.2c-0.5,0-0.9,0.4-0.9,0.9
			c0,0.5,0.4,0.9,0.9,0.9h9.4l-1.2,2.4h-8.2c-0.5,0-0.9,0.4-0.9,0.9c0,0.4,0.4,0.9,0.9,0.9h7.3c-0.4,0.8-0.8,1.6-1.2,2.4h-6.1
			c-0.5,0-0.9,0.4-0.9,0.9c0,0.5,0.4,0.9,0.9,0.9h5.3c-0.4,0.8-0.8,1.6-1.1,2.4h-4.1c-0.5,0-0.9,0.4-0.9,0.9c0,0.5,0.4,0.9,0.9,0.9
			h3.2l-1.2,2.4h-2.1c-0.5,0-0.9,0.4-0.9,0.9s0.4,0.9,0.9,0.9h1.1c-0.4,0.8-0.8,1.6-1.1,2.4l0,0c-0.5,0-0.9,0.4-0.9,0.9
			c0,0.2,0.1,0.4,0.2,0.6c-1.3,2.6-2.5,5.3-3.8,7.8v-48l0,0h7.6c0.9,0,1.7-0.6,1.8-1.5c0.5-2.5,1.1-4.9,1.5-7.4h19
			c0.5,2.5,1,4.9,1.5,7.4c0.2,0.8,0.9,1.5,1.8,1.5h47.3v8.8 M681,487.6h-80.1c6-12.5,12-24.9,18-37.4H699
			C693,462.7,687,475.2,681,487.6L681,487.6z M663.9,485h14.5c0.4,0,0.7-0.2,0.8-0.5l4.6-9.5c0.2-0.5,0-1.1-0.4-1.3
			c-0.4-0.2-1.1,0-1.3,0.4c-1.4,3-2.9,6-4.3,9H664c-0.5,0-0.9,0.4-0.9,0.9C663,484.5,663.3,485,663.9,485L663.9,485z"/>
	</g>
</g>
<g>
	<g>
		<path class="st0" d="M1004.9,445.8c-0.4-0.5-0.9-0.8-1.6-0.8h-17.9v-15.1c0-0.4-0.2-1-0.6-1.3c-0.4-0.3-0.8-0.6-1.3-0.6h-47.7
			c-0.5-2.4-1-4.9-1.5-7.3c-0.2-0.8-0.9-1.5-1.8-1.5h-22c-0.8,0-1.7,0.6-1.8,1.5c-0.5,2.4-1,4.9-1.5,7.3h-7.9c-0.5,0-1,0.2-1.3,0.6
			c-0.3,0.4-0.6,0.8-0.6,1.3v58.1l0,0c0,0.2,0,0.4,0.1,0.6c0,0.1,0,0.1,0,0.2c0.1,0,0.1,0.2,0.2,0.2c0,0.2,0.1,0.2,0.2,0.3
			c0,0,0,0,0.1,0v0c0.2,0.1,0.3,0.2,0.5,0.4c0.1,0,0.1,0,0.2,0c0.2,0.1,0.4,0.2,0.6,0.2h84.2c0.2,0,0.5-0.1,0.6-0.2
			c0.1,0,0.2,0,0.2,0c0.2-0.1,0.3-0.2,0.4-0.3c0,0,0,0,0.1-0.1c0,0,0,0,0,0c0.2-0.2,0.2-0.3,0.3-0.5c6.6-13.7,13.2-27.4,19.7-41.1
			C1005.3,447,1005.2,446.3,1004.9,445.8L1004.9,445.8z M905.7,440.5c-0.5,0-0.9,0.4-0.9,0.9c0,0.5,0.4,0.9,0.9,0.9h76v2.4h-76
			c-0.5,0-0.9,0.4-0.9,0.9c0,0.5,0.4,0.9,0.9,0.9h11.4c-0.4,0.8-0.8,1.6-1.1,2.4h-10.2c-0.5,0-0.9,0.4-0.9,0.9
			c0,0.5,0.4,0.9,0.9,0.9h9.4l-1.2,2.4h-8.2c-0.5,0-0.9,0.4-0.9,0.9c0,0.4,0.4,0.9,0.9,0.9h7.3c-0.4,0.8-0.8,1.6-1.2,2.4h-6.1
			c-0.5,0-0.9,0.4-0.9,0.9c0,0.5,0.4,0.9,0.9,0.9h5.3c-0.4,0.8-0.8,1.6-1.1,2.4h-4.1c-0.5,0-0.9,0.4-0.9,0.9c0,0.5,0.4,0.9,0.9,0.9
			h3.2l-1.2,2.4h-2.1c-0.5,0-0.9,0.4-0.9,0.9s0.4,0.9,0.9,0.9h1.1c-0.4,0.8-0.8,1.6-1.1,2.4l0,0c-0.5,0-0.9,0.4-0.9,0.9
			c0,0.2,0.1,0.4,0.2,0.6c-1.3,2.6-2.5,5.3-3.8,7.8v-48l0,0h7.6c0.9,0,1.7-0.6,1.8-1.5c0.5-2.5,1.1-4.9,1.5-7.4h19
			c0.5,2.5,1,4.9,1.5,7.4c0.2,0.8,0.9,1.5,1.8,1.5h47.3v8.8 M982.4,486h-80.1c6-12.5,12-24.9,18-37.4h80.1
			C994.4,461.1,988.4,473.6,982.4,486L982.4,486z M965.3,483.4h14.5c0.4,0,0.7-0.2,0.8-0.5l4.6-9.5c0.2-0.5,0-1.1-0.4-1.3
			c-0.4-0.2-1.1,0-1.3,0.4c-1.4,3-2.9,6-4.3,9h-13.9c-0.5,0-0.9,0.4-0.9,0.9C964.4,483,964.8,483.4,965.3,483.4L965.3,483.4z"/>
	</g>
</g>
<g>
	<g>
		<path class="st0" d="M1152.2,445.8c-0.4-0.5-0.9-0.8-1.6-0.8h-17.9v-15.1c0-0.4-0.2-1-0.6-1.3c-0.4-0.3-0.8-0.6-1.3-0.6h-47.7
			c-0.5-2.4-1-4.9-1.5-7.3c-0.2-0.8-0.9-1.5-1.8-1.5h-22c-0.8,0-1.7,0.6-1.8,1.5c-0.5,2.4-1,4.9-1.5,7.3h-7.9c-0.5,0-1,0.2-1.3,0.6
			c-0.3,0.4-0.6,0.8-0.6,1.3v58.1l0,0c0,0.2,0,0.4,0.1,0.6c0,0.1,0,0.1,0,0.2c0.1,0,0.1,0.2,0.2,0.2c0,0.2,0.1,0.2,0.2,0.3
			c0,0,0,0,0.1,0v0c0.2,0.1,0.3,0.2,0.5,0.4c0.1,0,0.1,0,0.2,0c0.2,0.1,0.4,0.2,0.6,0.2h84.2c0.2,0,0.5-0.1,0.6-0.2
			c0.1,0,0.2,0,0.2,0c0.2-0.1,0.3-0.2,0.4-0.3c0,0,0,0,0.1-0.1c0,0,0,0,0,0c0.2-0.2,0.2-0.3,0.3-0.5c6.6-13.7,13.2-27.4,19.7-41.1
			C1152.6,447,1152.6,446.3,1152.2,445.8L1152.2,445.8z M1053,440.5c-0.5,0-0.9,0.4-0.9,0.9c0,0.5,0.4,0.9,0.9,0.9h76v2.4h-76
			c-0.5,0-0.9,0.4-0.9,0.9c0,0.5,0.4,0.9,0.9,0.9h11.4c-0.4,0.8-0.8,1.6-1.1,2.4H1053c-0.5,0-0.9,0.4-0.9,0.9c0,0.5,0.4,0.9,0.9,0.9
			h9.4l-1.2,2.4h-8.2c-0.5,0-0.9,0.4-0.9,0.9c0,0.4,0.4,0.9,0.9,0.9h7.3c-0.4,0.8-0.8,1.6-1.2,2.4h-6.1c-0.5,0-0.9,0.4-0.9,0.9
			c0,0.5,0.4,0.9,0.9,0.9h5.3c-0.4,0.8-0.8,1.6-1.1,2.4h-4.1c-0.5,0-0.9,0.4-0.9,0.9c0,0.5,0.4,0.9,0.9,0.9h3.2l-1.2,2.4h-2.1
			c-0.5,0-0.9,0.4-0.9,0.9s0.4,0.9,0.9,0.9h1.1c-0.4,0.8-0.8,1.6-1.1,2.4l0,0c-0.5,0-0.9,0.4-0.9,0.9c0,0.2,0.1,0.4,0.2,0.6
			c-1.3,2.6-2.5,5.3-3.8,7.8v-48l0,0h7.6c0.9,0,1.7-0.6,1.8-1.5c0.5-2.5,1.1-4.9,1.5-7.4h19c0.5,2.5,1,4.9,1.5,7.4
			c0.2,0.8,0.9,1.5,1.8,1.5h47.3v8.8 M1129.8,486h-80.1c6-12.5,12-24.9,18-37.4h80.1C1141.7,461.1,1135.7,473.6,1129.8,486
			L1129.8,486z M1112.7,483.4h14.5c0.4,0,0.7-0.2,0.8-0.5l4.6-9.5c0.2-0.5,0-1.1-0.4-1.3c-0.4-0.2-1.1,0-1.3,0.4c-1.4,3-2.9,6-4.3,9
			h-13.9c-0.5,0-0.9,0.4-0.9,0.9C1111.7,483,1112.1,483.4,1112.7,483.4L1112.7,483.4z"/>
	</g>
</g>
<g>
	<g>
		<path class="st0" d="M1302,445.8c-0.4-0.5-0.9-0.8-1.6-0.8h-17.9v-15.1c0-0.4-0.2-1-0.6-1.3c-0.4-0.3-0.8-0.6-1.3-0.6H1233
			c-0.5-2.4-1-4.9-1.5-7.3c-0.2-0.8-0.9-1.5-1.8-1.5h-22c-0.8,0-1.7,0.6-1.8,1.5c-0.5,2.4-1,4.9-1.5,7.3h-7.9c-0.5,0-1,0.2-1.3,0.6
			c-0.3,0.4-0.6,0.8-0.6,1.3v58.1l0,0c0,0.2,0,0.4,0.1,0.6c0,0.1,0,0.1,0,0.2c0.1,0,0.1,0.2,0.2,0.2c0,0.2,0.1,0.2,0.2,0.3
			c0,0,0,0,0.1,0v0c0.2,0.1,0.3,0.2,0.5,0.4c0.1,0,0.1,0,0.2,0c0.2,0.1,0.4,0.2,0.6,0.2h84.2c0.2,0,0.5-0.1,0.6-0.2
			c0.1,0,0.2,0,0.2,0c0.2-0.1,0.3-0.2,0.4-0.3c0,0,0,0,0.1-0.1c0,0,0,0,0,0c0.2-0.2,0.2-0.3,0.3-0.5c6.6-13.7,13.2-27.4,19.7-41.1
			C1302.4,447,1302.4,446.3,1302,445.8L1302,445.8z M1202.8,440.5c-0.5,0-0.9,0.4-0.9,0.9c0,0.5,0.4,0.9,0.9,0.9h76v2.4h-76
			c-0.5,0-0.9,0.4-0.9,0.9c0,0.5,0.4,0.9,0.9,0.9h11.4c-0.4,0.8-0.8,1.6-1.1,2.4h-10.2c-0.5,0-0.9,0.4-0.9,0.9
			c0,0.5,0.4,0.9,0.9,0.9h9.4l-1.2,2.4h-8.2c-0.5,0-0.9,0.4-0.9,0.9c0,0.4,0.4,0.9,0.9,0.9h7.3c-0.4,0.8-0.8,1.6-1.2,2.4h-6.1
			c-0.5,0-0.9,0.4-0.9,0.9c0,0.5,0.4,0.9,0.9,0.9h5.3c-0.4,0.8-0.8,1.6-1.1,2.4h-4.1c-0.5,0-0.9,0.4-0.9,0.9c0,0.5,0.4,0.9,0.9,0.9
			h3.2l-1.2,2.4h-2.1c-0.5,0-0.9,0.4-0.9,0.9s0.4,0.9,0.9,0.9h1.1c-0.4,0.8-0.8,1.6-1.1,2.4l0,0c-0.5,0-0.9,0.4-0.9,0.9
			c0,0.2,0.1,0.4,0.2,0.6c-1.3,2.6-2.5,5.3-3.8,7.8v-48l0,0h7.6c0.9,0,1.7-0.6,1.8-1.5c0.5-2.5,1.1-4.9,1.5-7.4h19
			c0.5,2.5,1,4.9,1.5,7.4c0.2,0.8,0.9,1.5,1.8,1.5h47.3v8.8 M1279.6,486h-80.1c6-12.5,12-24.9,18-37.4h80.1
			C1291.5,461.1,1285.6,473.6,1279.6,486L1279.6,486z M1262.5,483.4h14.5c0.4,0,0.7-0.2,0.8-0.5l4.6-9.5c0.2-0.5,0-1.1-0.4-1.3
			c-0.4-0.2-1.1,0-1.3,0.4c-1.4,3-2.9,6-4.3,9h-13.9c-0.5,0-0.9,0.4-0.9,0.9C1261.5,483,1261.9,483.4,1262.5,483.4L1262.5,483.4z"/>
	</g>
</g>
<g>
	<g>
		<path class="st0" d="M1451.2,445.8c-0.4-0.5-0.9-0.8-1.6-0.8h-17.9v-15.1c0-0.4-0.2-1-0.6-1.3c-0.4-0.3-0.8-0.6-1.3-0.6h-47.7
			c-0.5-2.4-1-4.9-1.5-7.3c-0.2-0.8-0.9-1.5-1.8-1.5h-22c-0.8,0-1.7,0.6-1.8,1.5c-0.5,2.4-1,4.9-1.5,7.3h-7.9c-0.5,0-1,0.2-1.3,0.6
			c-0.3,0.4-0.6,0.8-0.6,1.3v58.1l0,0c0,0.2,0,0.4,0.1,0.6c0,0.1,0,0.1,0,0.2c0.1,0,0.1,0.2,0.2,0.2c0,0.2,0.1,0.2,0.2,0.3
			c0,0,0,0,0.1,0v0c0.2,0.1,0.3,0.2,0.5,0.4c0.1,0,0.1,0,0.2,0c0.2,0.1,0.4,0.2,0.6,0.2h84.2c0.2,0,0.5-0.1,0.6-0.2
			c0.1,0,0.2,0,0.2,0c0.2-0.1,0.3-0.2,0.4-0.3c0,0,0,0,0.1-0.1c0,0,0,0,0,0c0.2-0.2,0.2-0.3,0.3-0.5c6.6-13.7,13.2-27.4,19.7-41.1
			C1451.5,447,1451.5,446.3,1451.2,445.8L1451.2,445.8z M1352,440.5c-0.5,0-0.9,0.4-0.9,0.9c0,0.5,0.4,0.9,0.9,0.9h76v2.4h-76
			c-0.5,0-0.9,0.4-0.9,0.9c0,0.5,0.4,0.9,0.9,0.9h11.4c-0.4,0.8-0.8,1.6-1.1,2.4H1352c-0.5,0-0.9,0.4-0.9,0.9c0,0.5,0.4,0.9,0.9,0.9
			h9.4l-1.2,2.4h-8.2c-0.5,0-0.9,0.4-0.9,0.9c0,0.4,0.4,0.9,0.9,0.9h7.3c-0.4,0.8-0.8,1.6-1.2,2.4h-6.1c-0.5,0-0.9,0.4-0.9,0.9
			c0,0.5,0.4,0.9,0.9,0.9h5.3c-0.4,0.8-0.8,1.6-1.1,2.4h-4.1c-0.5,0-0.9,0.4-0.9,0.9c0,0.5,0.4,0.9,0.9,0.9h3.2l-1.2,2.4h-2.1
			c-0.5,0-0.9,0.4-0.9,0.9s0.4,0.9,0.9,0.9h1.1c-0.4,0.8-0.8,1.6-1.1,2.4l0,0c-0.5,0-0.9,0.4-0.9,0.9c0,0.2,0.1,0.4,0.2,0.6
			c-1.3,2.6-2.5,5.3-3.8,7.8v-48l0,0h7.6c0.9,0,1.7-0.6,1.8-1.5c0.5-2.5,1.1-4.9,1.5-7.4h19c0.5,2.5,1,4.9,1.5,7.4
			c0.2,0.8,0.9,1.5,1.8,1.5h47.3v8.8 M1428.7,486h-80.1c6-12.5,12-24.9,18-37.4h80.1C1440.7,461.1,1434.7,473.6,1428.7,486
			L1428.7,486z M1411.6,483.4h14.5c0.4,0,0.7-0.2,0.8-0.5l4.6-9.5c0.2-0.5,0-1.1-0.4-1.3c-0.4-0.2-1.1,0-1.3,0.4c-1.4,3-2.9,6-4.3,9
			h-13.9c-0.5,0-0.9,0.4-0.9,0.9C1410.7,483,1411,483.4,1411.6,483.4L1411.6,483.4z"/>
	</g>
</g>
<g>
	<g>
		<path class="st0" d="M1598.8,375.3c-0.4-0.5-0.9-0.8-1.6-0.8h-17.9v-15.1c0-0.4-0.2-1-0.6-1.3c-0.4-0.3-0.8-0.6-1.3-0.6h-47.7
			c-0.5-2.4-1-4.9-1.5-7.3c-0.2-0.8-0.9-1.5-1.8-1.5h-22c-0.8,0-1.7,0.6-1.8,1.5c-0.5,2.4-1,4.9-1.5,7.3h-7.9c-0.5,0-1,0.2-1.3,0.6
			c-0.3,0.4-0.6,0.8-0.6,1.3v58.1l0,0c0,0.2,0,0.4,0.1,0.6c0,0.1,0,0.1,0,0.2c0.1,0,0.1,0.2,0.2,0.2c0,0.2,0.1,0.2,0.2,0.3
			c0,0,0,0,0.1,0v0c0.2,0.1,0.3,0.2,0.5,0.4c0.1,0,0.1,0,0.2,0c0.2,0.1,0.4,0.2,0.6,0.2h84.2c0.2,0,0.5-0.1,0.6-0.2
			c0.1,0,0.2,0,0.2,0c0.2-0.1,0.3-0.2,0.4-0.3c0,0,0,0,0.1-0.1c0,0,0,0,0,0c0.2-0.2,0.2-0.3,0.3-0.5c6.6-13.7,13.2-27.4,19.7-41.1
			C1599.2,376.5,1599.1,375.8,1598.8,375.3L1598.8,375.3z M1499.6,370c-0.5,0-0.9,0.4-0.9,0.9c0,0.5,0.4,0.9,0.9,0.9h76v2.4h-76
			c-0.5,0-0.9,0.4-0.9,0.9c0,0.5,0.4,0.9,0.9,0.9h11.4c-0.4,0.8-0.8,1.6-1.1,2.4h-10.2c-0.5,0-0.9,0.4-0.9,0.9
			c0,0.5,0.4,0.9,0.9,0.9h9.4l-1.2,2.4h-8.2c-0.5,0-0.9,0.4-0.9,0.9c0,0.4,0.4,0.9,0.9,0.9h7.3c-0.4,0.8-0.8,1.6-1.2,2.4h-6.1
			c-0.5,0-0.9,0.4-0.9,0.9c0,0.5,0.4,0.9,0.9,0.9h5.3c-0.4,0.8-0.8,1.6-1.1,2.4h-4.1c-0.5,0-0.9,0.4-0.9,0.9c0,0.5,0.4,0.9,0.9,0.9
			h3.2l-1.2,2.4h-2.1c-0.5,0-0.9,0.4-0.9,0.9s0.4,0.9,0.9,0.9h1.1c-0.4,0.8-0.8,1.6-1.1,2.4l0,0c-0.5,0-0.9,0.4-0.9,0.9
			c0,0.2,0.1,0.4,0.2,0.6c-1.3,2.6-2.5,5.3-3.8,7.8v-48l0,0h7.6c0.9,0,1.7-0.6,1.8-1.5c0.5-2.5,1.1-4.9,1.5-7.4h19
			c0.5,2.5,1,4.9,1.5,7.4c0.2,0.8,0.9,1.5,1.8,1.5h47.3v8.8 M1576.3,415.5h-80.1c6-12.5,12-24.9,18-37.4h80.1
			C1588.3,390.6,1582.3,403.1,1576.3,415.5L1576.3,415.5z M1559.2,412.9h14.5c0.4,0,0.7-0.2,0.8-0.5l4.6-9.5c0.2-0.5,0-1.1-0.4-1.3
			c-0.4-0.2-1.1,0-1.3,0.4c-1.4,3-2.9,6-4.3,9h-13.9c-0.5,0-0.9,0.4-0.9,0.9C1558.3,412.4,1558.7,412.9,1559.2,412.9L1559.2,412.9z"
			/>
	</g>
</g>
<g>
	<g>
		<path class="st0" d="M847.4,214.8c-0.4-0.5-0.9-0.8-1.6-0.8h-17.9v-15.1c0-0.4-0.2-1-0.6-1.3c-0.4-0.3-0.8-0.6-1.3-0.6h-47.7
			c-0.5-2.4-1-4.9-1.5-7.3c-0.2-0.8-0.9-1.5-1.8-1.5h-22c-0.8,0-1.7,0.6-1.8,1.5c-0.5,2.4-1,4.9-1.5,7.3h-7.9c-0.5,0-1,0.2-1.3,0.6
			c-0.3,0.4-0.6,0.8-0.6,1.3V257l0,0c0,0.2,0,0.4,0.1,0.6c0,0.1,0,0.1,0,0.2c0.1,0,0.1,0.2,0.2,0.2c0,0.2,0.1,0.2,0.2,0.3
			c0,0,0,0,0.1,0v0c0.2,0.1,0.3,0.2,0.5,0.4c0.1,0,0.1,0,0.2,0c0.2,0.1,0.4,0.2,0.6,0.2h84.2c0.2,0,0.5-0.1,0.6-0.2
			c0.1,0,0.2,0,0.2,0c0.2-0.1,0.3-0.2,0.4-0.3c0,0,0,0,0.1-0.1c0,0,0,0,0,0c0.2-0.2,0.2-0.3,0.3-0.5c6.6-13.7,13.2-27.4,19.7-41.1
			C847.8,216.1,847.7,215.4,847.4,214.8L847.4,214.8z M748.2,209.6c-0.5,0-0.9,0.4-0.9,0.9c0,0.5,0.4,0.9,0.9,0.9h76v2.4h-76
			c-0.5,0-0.9,0.4-0.9,0.9c0,0.5,0.4,0.9,0.9,0.9h11.4c-0.4,0.8-0.8,1.6-1.1,2.4h-10.2c-0.5,0-0.9,0.4-0.9,0.9
			c0,0.5,0.4,0.9,0.9,0.9h9.4l-1.2,2.4h-8.2c-0.5,0-0.9,0.4-0.9,0.9c0,0.4,0.4,0.9,0.9,0.9h7.3c-0.4,0.8-0.8,1.6-1.2,2.4h-6.1
			c-0.5,0-0.9,0.4-0.9,0.9c0,0.5,0.4,0.9,0.9,0.9h5.3c-0.4,0.8-0.8,1.6-1.1,2.4h-4.1c-0.5,0-0.9,0.4-0.9,0.9s0.4,0.9,0.9,0.9h3.2
			l-1.2,2.4h-2.1c-0.5,0-0.9,0.4-0.9,0.9c0,0.5,0.4,0.9,0.9,0.9h1.1c-0.4,0.8-0.8,1.6-1.1,2.4l0,0c-0.5,0-0.9,0.4-0.9,0.9
			c0,0.2,0.1,0.4,0.2,0.6c-1.3,2.6-2.5,5.3-3.8,7.8v-48l0,0h7.6c0.9,0,1.7-0.6,1.8-1.5c0.5-2.5,1.1-4.9,1.5-7.4h19
			c0.5,2.5,1,4.9,1.5,7.4c0.2,0.8,0.9,1.5,1.8,1.5h47.3v8.8 M824.9,255.1h-80.1c6-12.5,12-24.9,18-37.4h80.1
			C836.9,230.2,830.9,242.6,824.9,255.1L824.9,255.1z M807.8,252.5h14.5c0.4,0,0.7-0.2,0.8-0.5l4.6-9.5c0.2-0.5,0-1.1-0.4-1.3
			c-0.4-0.2-1.1,0-1.3,0.4c-1.4,3-2.9,6-4.3,9h-13.9c-0.5,0-0.9,0.4-0.9,0.9C806.9,252,807.2,252.5,807.8,252.5L807.8,252.5z"/>
	</g>
</g>
<g>
	<g>
		<path class="st0" d="M1003,214.8c-0.4-0.5-0.9-0.8-1.6-0.8h-17.9v-15.1c0-0.4-0.2-1-0.6-1.3c-0.4-0.3-0.8-0.6-1.3-0.6H934
			c-0.5-2.4-1-4.9-1.5-7.3c-0.2-0.8-0.9-1.5-1.8-1.5h-22c-0.8,0-1.7,0.6-1.8,1.5c-0.5,2.4-1,4.9-1.5,7.3h-7.9c-0.5,0-1,0.2-1.3,0.6
			c-0.3,0.4-0.6,0.8-0.6,1.3V257l0,0c0,0.2,0,0.4,0.1,0.6c0,0.1,0,0.1,0,0.2c0.1,0,0.1,0.2,0.2,0.2c0,0.2,0.1,0.2,0.2,0.3
			c0,0,0,0,0.1,0v0c0.2,0.1,0.3,0.2,0.5,0.4c0.1,0,0.1,0,0.2,0c0.2,0.1,0.4,0.2,0.6,0.2h84.2c0.2,0,0.5-0.1,0.6-0.2
			c0.1,0,0.2,0,0.2,0c0.2-0.1,0.3-0.2,0.4-0.3c0,0,0,0,0.1-0.1c0,0,0,0,0,0c0.2-0.2,0.2-0.3,0.3-0.5c6.6-13.7,13.2-27.4,19.7-41.1
			C1003.4,216.1,1003.4,215.4,1003,214.8L1003,214.8z M903.8,209.6c-0.5,0-0.9,0.4-0.9,0.9c0,0.5,0.4,0.9,0.9,0.9h76v2.4h-76
			c-0.5,0-0.9,0.4-0.9,0.9c0,0.5,0.4,0.9,0.9,0.9h11.4c-0.4,0.8-0.8,1.6-1.1,2.4h-10.2c-0.5,0-0.9,0.4-0.9,0.9
			c0,0.5,0.4,0.9,0.9,0.9h9.4l-1.2,2.4h-8.2c-0.5,0-0.9,0.4-0.9,0.9c0,0.4,0.4,0.9,0.9,0.9h7.3c-0.4,0.8-0.8,1.6-1.2,2.4h-6.1
			c-0.5,0-0.9,0.4-0.9,0.9c0,0.5,0.4,0.9,0.9,0.9h5.3c-0.4,0.8-0.8,1.6-1.1,2.4h-4.1c-0.5,0-0.9,0.4-0.9,0.9s0.4,0.9,0.9,0.9h3.2
			l-1.2,2.4h-2.1c-0.5,0-0.9,0.4-0.9,0.9c0,0.5,0.4,0.9,0.9,0.9h1.1c-0.4,0.8-0.8,1.6-1.1,2.4l0,0c-0.5,0-0.9,0.4-0.9,0.9
			c0,0.2,0.1,0.4,0.2,0.6c-1.3,2.6-2.5,5.3-3.8,7.8v-48l0,0h7.6c0.9,0,1.7-0.6,1.8-1.5c0.5-2.5,1.1-4.9,1.5-7.4h19
			c0.5,2.5,1,4.9,1.5,7.4c0.2,0.8,0.9,1.5,1.8,1.5h47.3v8.8 M980.6,255.1h-80.1c6-12.5,12-24.9,18-37.4h80.1
			C992.5,230.2,986.5,242.6,980.6,255.1L980.6,255.1z M963.5,252.5h14.5c0.4,0,0.7-0.2,0.8-0.5l4.6-9.5c0.2-0.5,0-1.1-0.4-1.3
			c-0.4-0.2-1.1,0-1.3,0.4c-1.4,3-2.9,6-4.3,9h-13.9c-0.5,0-0.9,0.4-0.9,0.9C962.5,252,962.9,252.5,963.5,252.5L963.5,252.5z"/>
	</g>
</g>
<g>
	<g>
		<path class="st0" d="M1152.5,214.8c-0.4-0.5-0.9-0.8-1.6-0.8h-17.9v-15.1c0-0.4-0.2-1-0.6-1.3c-0.4-0.3-0.8-0.6-1.3-0.6h-47.7
			c-0.5-2.4-1-4.9-1.5-7.3c-0.2-0.8-0.9-1.5-1.8-1.5h-22c-0.8,0-1.7,0.6-1.8,1.5c-0.5,2.4-1,4.9-1.5,7.3h-7.9c-0.5,0-1,0.2-1.3,0.6
			c-0.3,0.4-0.6,0.8-0.6,1.3V257l0,0c0,0.2,0,0.4,0.1,0.6c0,0.1,0,0.1,0,0.2c0.1,0,0.1,0.2,0.2,0.2c0,0.2,0.1,0.2,0.2,0.3
			c0,0,0,0,0.1,0v0c0.2,0.1,0.3,0.2,0.5,0.4c0.1,0,0.1,0,0.2,0c0.2,0.1,0.4,0.2,0.6,0.2h84.2c0.2,0,0.5-0.1,0.6-0.2
			c0.1,0,0.2,0,0.2,0c0.2-0.1,0.3-0.2,0.4-0.3c0,0,0,0,0.1-0.1c0,0,0,0,0,0c0.2-0.2,0.2-0.3,0.3-0.5c6.6-13.7,13.2-27.4,19.7-41.1
			C1152.9,216.1,1152.9,215.4,1152.5,214.8L1152.5,214.8z M1053.3,209.6c-0.5,0-0.9,0.4-0.9,0.9c0,0.5,0.4,0.9,0.9,0.9h76v2.4h-76
			c-0.5,0-0.9,0.4-0.9,0.9c0,0.5,0.4,0.9,0.9,0.9h11.4c-0.4,0.8-0.8,1.6-1.1,2.4h-10.2c-0.5,0-0.9,0.4-0.9,0.9
			c0,0.5,0.4,0.9,0.9,0.9h9.4l-1.2,2.4h-8.2c-0.5,0-0.9,0.4-0.9,0.9c0,0.4,0.4,0.9,0.9,0.9h7.3c-0.4,0.8-0.8,1.6-1.2,2.4h-6.1
			c-0.5,0-0.9,0.4-0.9,0.9c0,0.5,0.4,0.9,0.9,0.9h5.3c-0.4,0.8-0.8,1.6-1.1,2.4h-4.1c-0.5,0-0.9,0.4-0.9,0.9s0.4,0.9,0.9,0.9h3.2
			l-1.2,2.4h-2.1c-0.5,0-0.9,0.4-0.9,0.9c0,0.5,0.4,0.9,0.9,0.9h1.1c-0.4,0.8-0.8,1.6-1.1,2.4l0,0c-0.5,0-0.9,0.4-0.9,0.9
			c0,0.2,0.1,0.4,0.2,0.6c-1.3,2.6-2.5,5.3-3.8,7.8v-48l0,0h7.6c0.9,0,1.7-0.6,1.8-1.5c0.5-2.5,1.1-4.9,1.5-7.4h19
			c0.5,2.5,1,4.9,1.5,7.4c0.2,0.8,0.9,1.5,1.8,1.5h47.3v8.8 M1130.1,255.1h-80.1c6-12.5,12-24.9,18-37.4h80.1
			C1142,230.2,1136,242.6,1130.1,255.1L1130.1,255.1z M1113,252.5h14.5c0.4,0,0.7-0.2,0.8-0.5l4.6-9.5c0.2-0.5,0-1.1-0.4-1.3
			c-0.4-0.2-1.1,0-1.3,0.4c-1.4,3-2.9,6-4.3,9H1113c-0.5,0-0.9,0.4-0.9,0.9C1112,252,1112.4,252.5,1113,252.5L1113,252.5z"/>
	</g>
</g>
<g>
	<g>
		<path class="st0" d="M1296.5,214.8c-0.4-0.5-0.9-0.8-1.6-0.8h-17.9v-15.1c0-0.4-0.2-1-0.6-1.3c-0.4-0.3-0.8-0.6-1.3-0.6h-47.7
			c-0.5-2.4-1-4.9-1.5-7.3c-0.2-0.8-0.9-1.5-1.8-1.5h-22c-0.8,0-1.7,0.6-1.8,1.5c-0.5,2.4-1,4.9-1.5,7.3h-7.9c-0.5,0-1,0.2-1.3,0.6
			c-0.3,0.4-0.6,0.8-0.6,1.3V257l0,0c0,0.2,0,0.4,0.1,0.6c0,0.1,0,0.1,0,0.2c0.1,0,0.1,0.2,0.2,0.2c0,0.2,0.1,0.2,0.2,0.3
			c0,0,0,0,0.1,0v0c0.2,0.1,0.3,0.2,0.5,0.4c0.1,0,0.1,0,0.2,0c0.2,0.1,0.4,0.2,0.6,0.2h84.2c0.2,0,0.5-0.1,0.6-0.2
			c0.1,0,0.2,0,0.2,0c0.2-0.1,0.3-0.2,0.4-0.3c0,0,0,0,0.1-0.1c0,0,0,0,0,0c0.2-0.2,0.2-0.3,0.3-0.5c6.6-13.7,13.2-27.4,19.7-41.1
			C1296.9,216.1,1296.9,215.4,1296.5,214.8L1296.5,214.8z M1197.3,209.6c-0.5,0-0.9,0.4-0.9,0.9c0,0.5,0.4,0.9,0.9,0.9h76v2.4h-76
			c-0.5,0-0.9,0.4-0.9,0.9c0,0.5,0.4,0.9,0.9,0.9h11.4c-0.4,0.8-0.8,1.6-1.1,2.4h-10.2c-0.5,0-0.9,0.4-0.9,0.9
			c0,0.5,0.4,0.9,0.9,0.9h9.4l-1.2,2.4h-8.2c-0.5,0-0.9,0.4-0.9,0.9c0,0.4,0.4,0.9,0.9,0.9h7.3c-0.4,0.8-0.8,1.6-1.2,2.4h-6.1
			c-0.5,0-0.9,0.4-0.9,0.9c0,0.5,0.4,0.9,0.9,0.9h5.3c-0.4,0.8-0.8,1.6-1.1,2.4h-4.1c-0.5,0-0.9,0.4-0.9,0.9s0.4,0.9,0.9,0.9h3.2
			l-1.2,2.4h-2.1c-0.5,0-0.9,0.4-0.9,0.9c0,0.5,0.4,0.9,0.9,0.9h1.1c-0.4,0.8-0.8,1.6-1.1,2.4l0,0c-0.5,0-0.9,0.4-0.9,0.9
			c0,0.2,0.1,0.4,0.2,0.6c-1.3,2.6-2.5,5.3-3.8,7.8v-48l0,0h7.6c0.9,0,1.7-0.6,1.8-1.5c0.5-2.5,1.1-4.9,1.5-7.4h19
			c0.5,2.5,1,4.9,1.5,7.4c0.2,0.8,0.9,1.5,1.8,1.5h47.3v8.8 M1274.1,255.1h-80.1c6-12.5,12-24.9,18-37.4h80.1
			C1286,230.2,1280,242.6,1274.1,255.1L1274.1,255.1z M1257,252.5h14.5c0.4,0,0.7-0.2,0.8-0.5l4.6-9.5c0.2-0.5,0-1.1-0.4-1.3
			s-1.1,0-1.3,0.4c-1.4,3-2.9,6-4.3,9H1257c-0.5,0-0.9,0.4-0.9,0.9C1256,252,1256.4,252.5,1257,252.5L1257,252.5z"/>
	</g>
</g>
<g>
	<g>
		<path class="st0" d="M1459.2,214.8c-0.4-0.5-0.9-0.8-1.6-0.8h-17.9v-15.1c0-0.4-0.2-1-0.6-1.3c-0.4-0.3-0.8-0.6-1.3-0.6h-47.7
			c-0.5-2.4-1-4.9-1.5-7.3c-0.2-0.8-0.9-1.5-1.8-1.5h-22c-0.8,0-1.7,0.6-1.8,1.5c-0.5,2.4-1,4.9-1.5,7.3h-7.9c-0.5,0-1,0.2-1.3,0.6
			c-0.3,0.4-0.6,0.8-0.6,1.3V257l0,0c0,0.2,0,0.4,0.1,0.6c0,0.1,0,0.1,0,0.2c0.1,0,0.1,0.2,0.2,0.2c0,0.2,0.1,0.2,0.2,0.3
			c0,0,0,0,0.1,0v0c0.2,0.1,0.3,0.2,0.5,0.4c0.1,0,0.1,0,0.2,0c0.2,0.1,0.4,0.2,0.6,0.2h84.2c0.2,0,0.5-0.1,0.6-0.2
			c0.1,0,0.2,0,0.2,0c0.2-0.1,0.3-0.2,0.4-0.3c0,0,0,0,0.1-0.1c0,0,0,0,0,0c0.2-0.2,0.2-0.3,0.3-0.5c6.6-13.7,13.2-27.4,19.7-41.1
			C1459.5,216.1,1459.5,215.4,1459.2,214.8L1459.2,214.8z M1360,209.6c-0.5,0-0.9,0.4-0.9,0.9c0,0.5,0.4,0.9,0.9,0.9h76v2.4h-76
			c-0.5,0-0.9,0.4-0.9,0.9c0,0.5,0.4,0.9,0.9,0.9h11.4c-0.4,0.8-0.8,1.6-1.1,2.4H1360c-0.5,0-0.9,0.4-0.9,0.9c0,0.5,0.4,0.9,0.9,0.9
			h9.4l-1.2,2.4h-8.2c-0.5,0-0.9,0.4-0.9,0.9c0,0.4,0.4,0.9,0.9,0.9h7.3c-0.4,0.8-0.8,1.6-1.2,2.4h-6.1c-0.5,0-0.9,0.4-0.9,0.9
			c0,0.5,0.4,0.9,0.9,0.9h5.3c-0.4,0.8-0.8,1.6-1.1,2.4h-4.1c-0.5,0-0.9,0.4-0.9,0.9s0.4,0.9,0.9,0.9h3.2l-1.2,2.4h-2.1
			c-0.5,0-0.9,0.4-0.9,0.9c0,0.5,0.4,0.9,0.9,0.9h1.1c-0.4,0.8-0.8,1.6-1.1,2.4l0,0c-0.5,0-0.9,0.4-0.9,0.9c0,0.2,0.1,0.4,0.2,0.6
			c-1.3,2.6-2.5,5.3-3.8,7.8v-48l0,0h7.6c0.9,0,1.7-0.6,1.8-1.5c0.5-2.5,1.1-4.9,1.5-7.4h19c0.5,2.5,1,4.9,1.5,7.4
			c0.2,0.8,0.9,1.5,1.8,1.5h47.3v8.8 M1436.7,255.1h-80.1c6-12.5,12-24.9,18-37.4h80.1C1448.7,230.2,1442.7,242.6,1436.7,255.1
			L1436.7,255.1z M1419.6,252.5h14.5c0.4,0,0.7-0.2,0.8-0.5l4.6-9.5c0.2-0.5,0-1.1-0.4-1.3c-0.4-0.2-1.1,0-1.3,0.4
			c-1.4,3-2.9,6-4.3,9h-13.9c-0.5,0-0.9,0.4-0.9,0.9C1418.7,252,1419,252.5,1419.6,252.5L1419.6,252.5z"/>
	</g>
</g>
<g>
	<g>
		<path class="st0" d="M1594.8,214.8c-0.4-0.5-0.9-0.8-1.6-0.8h-17.9v-15.1c0-0.4-0.2-1-0.6-1.3c-0.4-0.3-0.8-0.6-1.3-0.6h-47.7
			c-0.5-2.4-1-4.9-1.5-7.3c-0.2-0.8-0.9-1.5-1.8-1.5h-22c-0.8,0-1.7,0.6-1.8,1.5c-0.5,2.4-1,4.9-1.5,7.3h-7.9c-0.5,0-1,0.2-1.3,0.6
			c-0.3,0.4-0.6,0.8-0.6,1.3V257l0,0c0,0.2,0,0.4,0.1,0.6c0,0.1,0,0.1,0,0.2c0.1,0,0.1,0.2,0.2,0.2c0,0.2,0.1,0.2,0.2,0.3
			c0,0,0,0,0.1,0v0c0.2,0.1,0.3,0.2,0.5,0.4c0.1,0,0.1,0,0.2,0c0.2,0.1,0.4,0.2,0.6,0.2h84.2c0.2,0,0.5-0.1,0.6-0.2
			c0.1,0,0.2,0,0.2,0c0.2-0.1,0.3-0.2,0.4-0.3c0,0,0,0,0.1-0.1c0,0,0,0,0,0c0.2-0.2,0.2-0.3,0.3-0.5c6.6-13.7,13.2-27.4,19.7-41.1
			C1595.2,216.1,1595.1,215.4,1594.8,214.8L1594.8,214.8z M1495.6,209.6c-0.5,0-0.9,0.4-0.9,0.9c0,0.5,0.4,0.9,0.9,0.9h76v2.4h-76
			c-0.5,0-0.9,0.4-0.9,0.9c0,0.5,0.4,0.9,0.9,0.9h11.4c-0.4,0.8-0.8,1.6-1.1,2.4h-10.2c-0.5,0-0.9,0.4-0.9,0.9
			c0,0.5,0.4,0.9,0.9,0.9h9.4l-1.2,2.4h-8.2c-0.5,0-0.9,0.4-0.9,0.9c0,0.4,0.4,0.9,0.9,0.9h7.3c-0.4,0.8-0.8,1.6-1.2,2.4h-6.1
			c-0.5,0-0.9,0.4-0.9,0.9c0,0.5,0.4,0.9,0.9,0.9h5.3c-0.4,0.8-0.8,1.6-1.1,2.4h-4.1c-0.5,0-0.9,0.4-0.9,0.9s0.4,0.9,0.9,0.9h3.2
			l-1.2,2.4h-2.1c-0.5,0-0.9,0.4-0.9,0.9c0,0.5,0.4,0.9,0.9,0.9h1.1c-0.4,0.8-0.8,1.6-1.1,2.4l0,0c-0.5,0-0.9,0.4-0.9,0.9
			c0,0.2,0.1,0.4,0.2,0.6c-1.3,2.6-2.5,5.3-3.8,7.8v-48l0,0h7.6c0.9,0,1.7-0.6,1.8-1.5c0.5-2.5,1.1-4.9,1.5-7.4h19
			c0.5,2.5,1,4.9,1.5,7.4c0.2,0.8,0.9,1.5,1.8,1.5h47.3v8.8 M1572.3,255.1h-80.1c6-12.5,12-24.9,18-37.4h80.1
			C1584.3,230.2,1578.3,242.6,1572.3,255.1L1572.3,255.1z M1555.2,252.5h14.5c0.4,0,0.7-0.2,0.8-0.5l4.6-9.5c0.2-0.5,0-1.1-0.4-1.3
			c-0.4-0.2-1.1,0-1.3,0.4c-1.4,3-2.9,6-4.3,9h-13.9c-0.5,0-0.9,0.4-0.9,0.9C1554.3,252,1554.7,252.5,1555.2,252.5L1555.2,252.5z"/>
	</g>
</g>
<g class="st1">
	<path class="st0" d="M791.7,119.9h-3.2l9.6-27.2h3.2L791.7,119.9z"/>
</g>
<polyline class="st2" points="796.4,124.9 796.4,159.3 49,159.3 49,197.1 "/>
<polyline class="st2" points="796.4,124.9 796.4,159.3 193.6,159.3 193.6,197.1 "/>
<polyline class="st2" points="796.4,124.9 796.4,159.3 338.8,159.3 338.8,197.1 "/>
<polyline class="st2" points="796.4,124.9 796.4,159.3 489.5,159.3 489.5,197.1 "/>
<polyline class="st2" points="796.4,124.9 796.4,159.3 648.1,159.3 648.1,197.1 "/>
<polyline class="st2" points="645.7,313.9 645.7,387.3 346.7,387.3 346.7,432.2 "/>
<polyline class="st2" points="1400.2,300.2 1400.2,386.3 947.1,386.3 947.1,430.7 "/>
<polyline class="st2" points="1400.2,300.2 1400.2,386.3 1097.8,386.3 1097.8,430.7 "/>
<polyline class="st2" points="1248.5,430.7 1248.5,386.3 1400.2,386.3 1400.2,300.2 1400.2,430.7 "/>
<polyline class="st2" points="489.5,432.2 489.5,387.3 645.7,387.3 645.7,300.1 645.7,432.2 "/>
<polyline class="st2" points="796.4,124.9 796.4,159.3 949.5,159.3 949.5,197.1 "/>
<polyline class="st2" points="796.4,124.9 796.4,159.3 1097.8,159.3 1097.8,197.1 "/>
<polyline class="st2" points="796.4,124.9 796.4,159.3 1243,159.3 1243,197.1 "/>
<polyline class="st2" points="796.4,124.9 796.4,159.3 1401.6,159.3 1401.6,197.1 "/>
<polyline class="st2" points="1546.8,197.1 1546.8,159.3 796.4,159.3 796.4,133 796.4,197.1 "/>
<line class="st2" x1="1545.9" y1="300.1" x2="1545.9" y2="357.5"/>
<g>
	<g>
		<g>
		</g>
		<g>
			<g>
				<path class="st3" d="M51.9,297.1c0,0,52.1,153.9,442.2,40.6C688.5,300.4,816.2,378,883,446.2"/>
				<path class="st3" d="M884.4,447.6c0.5,0.5,0.9,0.9,1.4,1.4"/>
			</g>
		</g>
		<g>
			<path class="st4" d="M887.3,450.6c0.5,0.5,1,1.1,1.5,1.6"/>
		</g>
		<g>
			<polygon class="st5" points="882.1,455.5 895.7,459.8 892.6,445.8 			"/>
		</g>
	</g>
</g>
<g>
	<g>
		<g>
			<g>
				<path class="st3" d="M1097.6,313.8c0,0-0.1,0.7-0.1,2"/>
				<path class="st3" d="M1097.4,319.7c0.2,19.4,7.2,82.7,85.7,117.4"/>
				<path class="st3" d="M1184.6,437.7c0.5,0.2,1,0.4,1.5,0.6"/>
			</g>
		</g>
		<g>
			<polygon class="st5" points="1179.9,443.6 1194.2,440.6 1184.4,429.7 			"/>
		</g>
	</g>
</g>
<g>
	<g>
		<path class="st3" d="M1434.3,516c0,0,110.1,32,117.6-44.9"/>
		<g>
			<polygon class="st5" points="1559.1,473.5 1552.1,460.5 1544.4,473 			"/>
		</g>
	</g>
</g>
<g>
	<path class="st0" d="M37.2,291.2c-1.6,0-3.1-0.8-4-1.8v1.5h-3.1v-20.3l3.1-1.6v7.6c1.1-1.1,2.5-1.8,4.1-1.8c3.4,0,6.1,2.5,6.1,8.5
		C43.4,288.6,40.5,291.2,37.2,291.2z M36.8,277.6c-1.5,0-2.8,1-3.6,2v6.6c0.7,0.9,2.1,2.1,3.7,2.1c2.2,0,3.4-1.7,3.4-5
		C40.3,279.3,39.1,277.6,36.8,277.6z"/>
	<path class="st0" d="M49,273c-1.1,0-2-0.9-2-2c0-1.1,0.9-2,2-2c1.1,0,2,0.9,2,2C51,272.1,50.1,273,49,273z M47.5,290.8v-15.7h3.1
		v15.7H47.5z"/>
	<path class="st0" d="M64.8,290.8v-8.9c0-3.2-1.2-4.3-3.2-4.3c-2.1,0-3.2,1.5-3.2,4v9.2h-3.1v-15.7h3.1v1.5c0.8-1.1,2.3-1.8,4-1.8
		c3.7,0,5.6,2.4,5.6,7v9H64.8z"/>
</g>
<g>
	<path class="st0" d="M171.2,291.2c-1.6,0-3.1-0.8-4-1.8v1.5h-3.1v-20.3l3.1-1.6v7.6c1.1-1.1,2.5-1.8,4.1-1.8c3.4,0,6.1,2.5,6.1,8.5
		C177.5,288.6,174.5,291.2,171.2,291.2z M170.8,277.6c-1.5,0-2.8,1-3.6,2v6.6c0.7,0.9,2.1,2.1,3.7,2.1c2.2,0,3.4-1.7,3.4-5
		C174.4,279.3,173.1,277.6,170.8,277.6z"/>
	<path class="st0" d="M187.5,291.2c-4,0-6.9-3.3-6.9-8.2c0-5.2,3.1-8.2,7-8.2c4,0,7,3.2,7,8.1C194.6,288.1,191.6,291.2,187.5,291.2z
		 M187.5,277.7c-2.3,0-3.8,2.1-3.8,5.2c0,3.4,1.6,5.3,3.9,5.3s3.9-2.4,3.9-5.2C191.5,279.8,190,277.7,187.5,277.7z"/>
	<path class="st0" d="M204.6,291.2c-4,0-6.9-3.3-6.9-8.2c0-5.2,3.1-8.2,7-8.2c4,0,7,3.2,7,8.1C211.7,288.1,208.7,291.2,204.6,291.2z
		 M204.6,277.7c-2.3,0-3.8,2.1-3.8,5.2c0,3.4,1.6,5.3,3.9,5.3s3.9-2.4,3.9-5.2C208.6,279.8,207.1,277.7,204.6,277.7z"/>
	<path class="st0" d="M222.9,290.4c-0.8,0.4-1.8,0.7-3,0.7c-2.2,0-3.5-1.3-3.5-4.2v-9.1h-2.2v-2.8h2.2v-4.5l3-1.6v6.1h3.9v2.8h-3.9
		v8.5c0,1.5,0.5,1.9,1.6,1.9c0.8,0,1.7-0.3,2.3-0.6L222.9,290.4z"/>
</g>
<g>
	<path class="st0" d="M325.9,290.8v-1.5c-1.1,1-2.5,1.8-4.1,1.8c-3.4,0-6.1-2.5-6.1-8.5c0-5.4,2.9-7.9,6.2-7.9c1.6,0,3.1,0.8,4,1.8
		v-6l3.1-1.6v21.9H325.9z M325.9,279.7c-0.7-0.9-2.1-2.1-3.7-2.1c-2.2,0-3.4,1.7-3.4,5c0,4,1.3,5.7,3.5,5.7c1.5,0,2.8-1,3.6-2V279.7
		z"/>
	<path class="st0" d="M346.2,284.1h-10.4c0.3,3,2,4.3,4,4.3c1.3,0,2.4-0.5,3.4-1.3l1.8,2c-1.4,1.3-3,2.1-5.4,2.1
		c-3.7,0-6.8-3-6.8-8.2c0-5.3,2.8-8.2,6.9-8.2c4.5,0,6.6,3.6,6.6,7.9C346.3,283.2,346.2,283.7,346.2,284.1z M339.4,277.5
		c-2.1,0-3.3,1.4-3.6,4h7.3C343,279.3,342,277.5,339.4,277.5z"/>
	<path class="st0" d="M356.9,290.8h-3.1l-5.6-15.7h3.2l2.8,8.5c0.5,1.5,1,3,1.2,3.9c0.2-0.9,0.6-2.3,1.1-3.9l2.7-8.5h3.3
		L356.9,290.8z"/>
</g>
<g>
	<path class="st0" d="M479.2,284.1h-10.4c0.3,3,2,4.3,4,4.3c1.3,0,2.4-0.5,3.4-1.3l1.8,2c-1.4,1.3-3,2.1-5.4,2.1
		c-3.7,0-6.8-3-6.8-8.2c0-5.3,2.8-8.2,6.9-8.2c4.5,0,6.6,3.6,6.6,7.9C479.3,283.2,479.2,283.7,479.2,284.1z M472.4,277.5
		c-2.1,0-3.3,1.4-3.6,4h7.3C476,279.3,475,277.5,472.4,277.5z"/>
	<path class="st0" d="M490.4,290.4c-0.8,0.4-1.8,0.7-3,0.7c-2.2,0-3.5-1.3-3.5-4.2v-9.1h-2.2v-2.8h2.2v-4.5l3-1.6v6.1h3.9v2.8h-3.9
		v8.5c0,1.5,0.5,1.9,1.6,1.9c0.8,0,1.7-0.3,2.3-0.6L490.4,290.4z"/>
	<path class="st0" d="M504.2,279.6c-1.3-1.3-2.4-1.9-3.8-1.9c-2.2,0-3.7,2-3.7,5.2c0,3.1,1.3,5.3,3.8,5.3c1.5,0,2.3-0.7,3.6-1.9
		l2,1.9c-1.2,1.6-2.8,2.9-5.6,2.9c-3.8,0-6.8-3.2-6.8-8.2c0-5.2,3.1-8.2,6.9-8.2c2.3,0,4.1,0.9,5.6,2.7L504.2,279.6z"/>
</g>
<g>
	<path class="st0" d="M616.5,290.8v-8.9c0-3.2-1.2-4.3-3.2-4.3c-2.1,0-3.2,1.5-3.2,4v9.2h-3.1v-20.2l3.1-1.6v7.6
		c0.8-1.1,2.3-1.8,4-1.8c3.7,0,5.6,2.4,5.6,7v9H616.5z"/>
	<path class="st0" d="M630.2,291.2c-4,0-6.9-3.3-6.9-8.2c0-5.2,3.1-8.2,7-8.2c4,0,7,3.2,7,8.1C637.3,288.1,634.2,291.2,630.2,291.2z
		 M630.1,277.7c-2.3,0-3.8,2.1-3.8,5.2c0,3.4,1.6,5.3,3.9,5.3s3.9-2.4,3.9-5.2C634.2,279.8,632.6,277.7,630.1,277.7z"/>
	<path class="st0" d="M659.4,290.8v-8.9c0-3.2-1-4.3-3-4.3c-2.1,0-3,1.5-3,4v9.2h-3.1v-8.9c0-3.2-1-4.3-3-4.3c-2.1,0-3,1.5-3,4v9.2
		h-3.1v-15.7h3.1v1.5c0.8-1.1,2.1-1.8,3.8-1.8c2.1,0,3.5,0.8,4.3,2.3c1.1-1.4,2.4-2.3,4.8-2.3c3.7,0,5.4,2.4,5.4,7v9H659.4z"/>
	<path class="st0" d="M679.6,284.1h-10.4c0.3,3,2,4.3,4,4.3c1.3,0,2.4-0.5,3.4-1.3l1.8,2c-1.4,1.3-3,2.1-5.4,2.1
		c-3.7,0-6.8-3-6.8-8.2c0-5.3,2.8-8.2,6.9-8.2c4.5,0,6.6,3.6,6.6,7.9C679.7,283.2,679.6,283.7,679.6,284.1z M672.9,277.5
		c-2.1,0-3.3,1.4-3.6,4h7.3C676.4,279.3,675.4,277.5,672.9,277.5z"/>
</g>
<g>
	<path class="st0" d="M318,523.3v-1.6c-1.1,1.1-2.6,1.9-4.3,1.9c-2.5,0-5.5-1.4-5.5-5.3c0-3.5,2.7-5.1,6.3-5.1
		c1.5,0,2.6,0.2,3.5,0.6v-1.2c0-1.7-1-2.7-3-2.7c-1.6,0-2.9,0.3-4.1,1l-1.2-2.3c1.5-0.9,3.2-1.4,5.4-1.4c3.5,0,5.9,1.7,5.9,5.3v10.8
		H318z M318,516.6c-0.8-0.4-1.9-0.7-3.6-0.7c-2,0-3.2,0.9-3.2,2.3c0,1.6,1,2.6,3,2.6c1.6,0,3.1-1,3.8-2V516.6z"/>
	<path class="st0" d="M325.6,523.3V503l3.1-1.6v21.9H325.6z"/>
	<path class="st0" d="M335.1,505.5c-1.1,0-2-0.9-2-2c0-1.1,0.9-2,2-2c1.1,0,2,0.9,2,2C337.1,504.6,336.2,505.5,335.1,505.5z
		 M333.6,523.3v-15.7h3.1v15.7H333.6z"/>
	<path class="st0" d="M351.3,512.1c-1.3-1.3-2.4-1.9-3.8-1.9c-2.2,0-3.7,2-3.7,5.2c0,3.1,1.3,5.3,3.8,5.3c1.5,0,2.3-0.7,3.6-1.9
		l2,1.9c-1.2,1.6-2.8,2.9-5.6,2.9c-3.8,0-6.8-3.2-6.8-8.2c0-5.2,3.1-8.2,6.9-8.2c2.3,0,4.1,0.9,5.6,2.7L351.3,512.1z"/>
	<path class="st0" d="M369.2,516.5h-10.4c0.3,3,2,4.3,4,4.3c1.3,0,2.4-0.5,3.4-1.3l1.8,2c-1.4,1.3-3,2.1-5.4,2.1
		c-3.7,0-6.8-3-6.8-8.2c0-5.3,2.8-8.2,6.9-8.2c4.5,0,6.6,3.6,6.6,7.9C369.3,515.7,369.2,516.2,369.2,516.5z M362.5,510
		c-2.1,0-3.3,1.4-3.6,4h7.3C366,511.8,365,510,362.5,510z"/>
</g>
<g>
	<path class="st0" d="M469.6,523.6c-1.6,0-3.1-0.8-4-1.8v1.5h-3.1V503l3.1-1.6v7.6c1.1-1.1,2.5-1.8,4.1-1.8c3.4,0,6.1,2.5,6.1,8.5
		C475.8,521.1,472.9,523.6,469.6,523.6z M469.2,510c-1.5,0-2.8,1-3.6,2v6.6c0.7,0.9,2.1,2.1,3.7,2.1c2.2,0,3.4-1.7,3.4-5
		C472.7,511.8,471.5,510,469.2,510z"/>
	<path class="st0" d="M485.9,523.6c-4,0-6.9-3.3-6.9-8.2c0-5.2,3.1-8.2,7-8.2c4,0,7,3.2,7,8.1C493,520.5,489.9,523.6,485.9,523.6z
		 M485.8,510.1c-2.3,0-3.8,2.1-3.8,5.2c0,3.4,1.6,5.3,3.9,5.3s3.9-2.4,3.9-5.2C489.9,512.2,488.3,510.1,485.8,510.1z"/>
	<path class="st0" d="M503.8,523.6c-1.6,0-3.1-0.8-4-1.8v1.5h-3.1V503l3.1-1.6v7.6c1.1-1.1,2.5-1.8,4.1-1.8c3.4,0,6.1,2.5,6.1,8.5
		C510,521.1,507.1,523.6,503.8,523.6z M503.4,510c-1.5,0-2.8,1-3.6,2v6.6c0.7,0.9,2.1,2.1,3.7,2.1c2.2,0,3.4-1.7,3.4-5
		C506.9,511.8,505.7,510,503.4,510z"/>
</g>
<g>
	<path class="st0" d="M633.7,516.5h-10.4c0.3,3,2,4.3,4,4.3c1.3,0,2.4-0.5,3.4-1.3l1.8,2c-1.4,1.3-3,2.1-5.4,2.1
		c-3.7,0-6.8-3-6.8-8.2c0-5.3,2.8-8.2,6.9-8.2c4.5,0,6.6,3.6,6.6,7.9C633.8,515.7,633.8,516.2,633.7,516.5z M627,510
		c-2.1,0-3.3,1.4-3.6,4h7.3C630.6,511.8,629.5,510,627,510z"/>
	<path class="st0" d="M644.5,523.3h-3.1l-5.6-15.7h3.2l2.8,8.5c0.5,1.5,1,3,1.2,3.9c0.2-0.9,0.6-2.3,1.1-3.9l2.7-8.5h3.3
		L644.5,523.3z"/>
	<path class="st0" d="M665.4,516.5H655c0.3,3,2,4.3,4,4.3c1.3,0,2.4-0.5,3.4-1.3l1.8,2c-1.4,1.3-3,2.1-5.4,2.1c-3.7,0-6.8-3-6.8-8.2
		c0-5.3,2.8-8.2,6.9-8.2c4.5,0,6.6,3.6,6.6,7.9C665.5,515.7,665.5,516.2,665.4,516.5z M658.7,510c-2.1,0-3.3,1.4-3.6,4h7.3
		C662.2,511.8,661.2,510,658.7,510z"/>
</g>
<g>
	<path class="st0" d="M771.7,278.4c-0.7-0.4-1.4-0.6-2.4-0.6c-1.9,0-3.1,1.4-3.1,4v9h-3.1v-15.7h3.1v1.5c0.7-1.1,2-1.8,3.6-1.8
		c1.3,0,2,0.2,2.7,0.7L771.7,278.4z"/>
	<path class="st0" d="M781.2,291.2c-4,0-6.9-3.3-6.9-8.2c0-5.2,3.1-8.2,7-8.2c4,0,7,3.2,7,8.1C788.3,288.1,785.2,291.2,781.2,291.2z
		 M781.1,277.7c-2.3,0-3.8,2.1-3.8,5.2c0,3.4,1.6,5.3,3.9,5.3s3.9-2.4,3.9-5.2C785.1,279.8,783.6,277.7,781.1,277.7z"/>
	<path class="st0" d="M798.3,291.2c-4,0-6.9-3.3-6.9-8.2c0-5.2,3.1-8.2,7-8.2c4,0,7,3.2,7,8.1C805.4,288.1,802.3,291.2,798.3,291.2z
		 M798.2,277.7c-2.3,0-3.8,2.1-3.8,5.2c0,3.4,1.6,5.3,3.9,5.3c2.3,0,3.9-2.4,3.9-5.2C802.2,279.8,800.7,277.7,798.2,277.7z"/>
	<path class="st0" d="M816.6,290.4c-0.8,0.4-1.8,0.7-3,0.7c-2.2,0-3.5-1.3-3.5-4.2v-9.1h-2.2v-2.8h2.2v-4.5l3-1.6v6.1h3.9v2.8H813
		v8.5c0,1.5,0.5,1.9,1.6,1.9c0.8,0,1.7-0.3,2.3-0.6L816.6,290.4z"/>
</g>
<g>
	<path class="st0" d="M934.6,278.4c-0.7-0.4-1.3-0.6-2.4-0.6c-1.9,0-3.1,1.4-3.1,4v9H926v-15.7h3.1v1.5c0.7-1.1,2-1.8,3.6-1.8
		c1.3,0,2,0.2,2.7,0.7L934.6,278.4z"/>
	<path class="st0" d="M948,290.8v-1.5c-0.8,1.1-2.3,1.8-4,1.8c-3.7,0-5.6-2.4-5.6-7v-9h3.1v8.9c0,3.2,1.2,4.3,3.2,4.3
		c2.1,0,3.2-1.5,3.2-4v-9.2h3.1v15.7H948z"/>
	<path class="st0" d="M965.2,290.8v-8.9c0-3.2-1.2-4.3-3.2-4.3c-2.1,0-3.2,1.5-3.2,4v9.2h-3.1v-15.7h3.1v1.5c0.8-1.1,2.3-1.8,4-1.8
		c3.7,0,5.6,2.4,5.6,7v9H965.2z"/>
</g>
<g>
	<path class="st0" d="M1077.8,291.2c-2.1,0-4.4-0.8-6-2l1.4-2.3c1.5,1,3.1,1.6,4.6,1.6c2,0,2.9-0.6,2.9-1.7c0-1.2-1.4-1.8-3.7-2.6
		c-3.4-1.3-4.6-2.5-4.6-4.9c0-2.8,2.2-4.3,5.4-4.3c2,0,3.9,0.7,5.3,1.7l-1.3,2.4c-1.3-0.9-2.6-1.3-4.1-1.3s-2.2,0.6-2.2,1.4
		c0,0.8,0.5,1.4,2.9,2.3c3.5,1.3,5.3,2.3,5.3,5.3C1083.7,290,1080.9,291.2,1077.8,291.2z"/>
	<path class="st0" d="M1094.7,291.2c-1.6,0-3.1-0.8-4-1.8v1.5h-3.1v-20.3l3.1-1.6v7.6c1.1-1.1,2.5-1.8,4.1-1.8
		c3.4,0,6.1,2.5,6.1,8.5C1100.9,288.6,1098,291.2,1094.7,291.2z M1094.3,277.6c-1.5,0-2.8,1-3.6,2v6.6c0.7,0.9,2.1,2.1,3.7,2.1
		c2.2,0,3.4-1.7,3.4-5C1097.8,279.3,1096.6,277.6,1094.3,277.6z"/>
	<path class="st0" d="M1106.5,273c-1.1,0-2-0.9-2-2c0-1.1,0.9-2,2-2c1.1,0,2,0.9,2,2C1108.5,272.1,1107.6,273,1106.5,273z
		 M1104.9,290.8v-15.7h3.1v15.7H1104.9z"/>
	<path class="st0" d="M1122.3,290.8v-8.9c0-3.2-1.2-4.3-3.2-4.3c-2.1,0-3.2,1.5-3.2,4v9.2h-3.1v-15.7h3.1v1.5c0.8-1.1,2.3-1.8,4-1.8
		c3.7,0,5.6,2.4,5.6,7v9H1122.3z"/>
</g>
<g>
	<path class="st0" d="M1225.3,290.4c-0.8,0.4-1.8,0.7-3,0.7c-2.2,0-3.5-1.3-3.5-4.2v-9.1h-2.2v-2.8h2.2v-4.5l3-1.6v6.1h3.9v2.8h-3.9
		v8.5c0,1.5,0.5,1.9,1.6,1.9c0.8,0,1.7-0.3,2.3-0.6L1225.3,290.4z"/>
	<path class="st0" d="M1248.2,290.8v-8.9c0-3.2-1-4.3-3-4.3c-2.1,0-3,1.5-3,4v9.2h-3.1v-8.9c0-3.2-1-4.3-3-4.3c-2.1,0-3,1.5-3,4v9.2
		h-3.1v-15.7h3.1v1.5c0.8-1.1,2.1-1.8,3.8-1.8c2.1,0,3.5,0.8,4.3,2.3c1.1-1.4,2.4-2.3,4.8-2.3c3.7,0,5.4,2.4,5.4,7v9H1248.2z"/>
	<path class="st0" d="M1262.7,291.2c-1.6,0-3.1-0.8-4-1.8v5.7l-3.1,1.6v-21.5h3.1v1.5c1.1-1.1,2.5-1.8,4.1-1.8
		c3.4,0,6.1,2.5,6.1,8.5C1268.9,288.6,1266,291.2,1262.7,291.2z M1262.3,277.6c-1.5,0-2.8,1-3.6,2v6.6c0.7,0.9,2.1,2.1,3.7,2.1
		c2.2,0,3.4-1.7,3.4-5C1265.8,279.3,1264.6,277.6,1262.3,277.6z"/>
</g>
<g>
	<path class="st0" d="M1391,290.8v-1.5c-0.8,1.1-2.3,1.8-4,1.8c-3.7,0-5.6-2.4-5.6-7v-9h3.1v8.9c0,3.2,1.2,4.3,3.2,4.3
		c2.1,0,3.2-1.5,3.2-4v-9.2h3.1v15.7H1391z"/>
	<path class="st0" d="M1403.8,291.2c-2.1,0-4.4-0.8-6-2l1.4-2.3c1.5,1,3.1,1.6,4.6,1.6c2,0,2.9-0.6,2.9-1.7c0-1.2-1.4-1.8-3.7-2.6
		c-3.4-1.3-4.6-2.5-4.6-4.9c0-2.8,2.2-4.3,5.4-4.3c2,0,3.9,0.7,5.3,1.7l-1.4,2.4c-1.3-0.9-2.6-1.3-4.1-1.3c-1.5,0-2.2,0.6-2.2,1.4
		c0,0.8,0.5,1.4,2.9,2.3c3.5,1.3,5.3,2.3,5.3,5.3C1409.7,290,1406.9,291.2,1403.8,291.2z"/>
	<path class="st0" d="M1422.2,278.4c-0.7-0.4-1.4-0.6-2.4-0.6c-2,0-3.1,1.4-3.1,4v9h-3.1v-15.7h3.1v1.5c0.7-1.1,2-1.8,3.6-1.8
		c1.3,0,2,0.2,2.7,0.7L1422.2,278.4z"/>
</g>
<g>
	<path class="st0" d="M935.3,523.6c-1.6,0-3.1-0.8-4-1.8v1.5h-3.1V503l3.1-1.6v7.6c1.1-1.1,2.5-1.8,4.1-1.8c3.4,0,6.1,2.5,6.1,8.5
		C941.5,521.1,938.6,523.6,935.3,523.6z M934.9,510c-1.5,0-2.8,1-3.6,2v6.6c0.7,0.9,2.1,2.1,3.7,2.1c2.2,0,3.4-1.7,3.4-5
		C938.4,511.8,937.2,510,934.9,510z"/>
	<path class="st0" d="M947.1,505.5c-1.1,0-2-0.9-2-2c0-1.1,0.9-2,2-2c1.1,0,2,0.9,2,2C949.1,504.6,948.2,505.5,947.1,505.5z
		 M945.5,523.3v-15.7h3.1v15.7H945.5z"/>
	<path class="st0" d="M962.9,523.3v-8.9c0-3.2-1.2-4.3-3.2-4.3c-2.1,0-3.2,1.5-3.2,4v9.2h-3.1v-15.7h3.1v1.5c0.8-1.1,2.3-1.8,4-1.8
		c3.7,0,5.6,2.4,5.6,7v9H962.9z"/>
</g>
<g>
	<path class="st0" d="M1069.1,523.3V503l3.1-1.6v21.9H1069.1z"/>
	<path class="st0" d="M1083.1,523.6c-4,0-6.9-3.3-6.9-8.2c0-5.2,3.1-8.2,7-8.2c4,0,7,3.2,7,8.1
		C1090.2,520.5,1087.1,523.6,1083.1,523.6z M1083.1,510.1c-2.3,0-3.8,2.1-3.8,5.2c0,3.4,1.6,5.3,3.9,5.3s3.9-2.4,3.9-5.2
		C1087.1,512.2,1085.5,510.1,1083.1,510.1z"/>
	<path class="st0" d="M1103.9,512.1c-1.3-1.3-2.4-1.9-3.8-1.9c-2.2,0-3.7,2-3.7,5.2c0,3.1,1.3,5.3,3.8,5.3c1.5,0,2.3-0.7,3.6-1.9
		l2,1.9c-1.2,1.6-2.8,2.9-5.6,2.9c-3.8,0-6.8-3.2-6.8-8.2c0-5.2,3.1-8.2,6.9-8.2c2.3,0,4.1,0.9,5.6,2.7L1103.9,512.1z"/>
	<path class="st0" d="M1118.2,523.3v-1.6c-1.1,1.1-2.6,1.9-4.3,1.9c-2.5,0-5.5-1.4-5.5-5.3c0-3.5,2.7-5.1,6.3-5.1
		c1.5,0,2.6,0.2,3.5,0.6v-1.2c0-1.7-1-2.7-3-2.7c-1.6,0-2.9,0.3-4.1,1l-1.2-2.3c1.5-0.9,3.2-1.4,5.4-1.4c3.5,0,5.9,1.7,5.9,5.3v10.8
		H1118.2z M1118.2,516.6c-0.8-0.4-1.9-0.7-3.6-0.7c-2,0-3.2,0.9-3.2,2.3c0,1.6,1,2.6,3,2.6c1.6,0,3.1-1,3.8-2V516.6z"/>
	<path class="st0" d="M1125.8,523.3V503l3.1-1.6v21.9H1125.8z"/>
</g>
<g>
	<path class="st0" d="M1221.8,523.6c-2.1,0-4.4-0.8-6-2l1.4-2.3c1.5,1,3.1,1.6,4.6,1.6c2,0,2.9-0.6,2.9-1.7c0-1.2-1.4-1.8-3.7-2.6
		c-3.4-1.3-4.6-2.5-4.6-4.9c0-2.8,2.2-4.3,5.4-4.3c2,0,3.9,0.7,5.3,1.7l-1.4,2.4c-1.3-0.9-2.6-1.3-4.1-1.3c-1.5,0-2.2,0.6-2.2,1.4
		c0,0.8,0.5,1.4,2.9,2.3c3.5,1.3,5.3,2.3,5.3,5.3C1227.7,522.4,1224.9,523.6,1221.8,523.6z"/>
	<path class="st0" d="M1238.7,523.6c-1.6,0-3.1-0.8-4-1.8v1.5h-3.1V503l3.1-1.6v7.6c1.1-1.1,2.5-1.8,4.1-1.8c3.4,0,6.1,2.5,6.1,8.5
		C1244.9,521.1,1242,523.6,1238.7,523.6z M1238.3,510c-1.5,0-2.8,1-3.6,2v6.6c0.7,0.9,2.1,2.1,3.7,2.1c2.2,0,3.4-1.7,3.4-5
		C1241.8,511.8,1240.6,510,1238.3,510z"/>
	<path class="st0" d="M1250.5,505.5c-1.1,0-2-0.9-2-2c0-1.1,0.9-2,2-2c1.1,0,2,0.9,2,2C1252.5,504.6,1251.6,505.5,1250.5,505.5z
		 M1248.9,523.3v-15.7h3.1v15.7H1248.9z"/>
	<path class="st0" d="M1266.3,523.3v-8.9c0-3.2-1.2-4.3-3.2-4.3c-2.1,0-3.2,1.5-3.2,4v9.2h-3.1v-15.7h3.1v1.5c0.8-1.1,2.3-1.8,4-1.8
		c3.7,0,5.6,2.4,5.6,7v9H1266.3z"/>
</g>
<g>
	<path class="st0" d="M1377.9,522.9c-0.8,0.4-1.8,0.7-3,0.7c-2.2,0-3.5-1.3-3.5-4.2v-9.1h-2.2v-2.8h2.2V503l3-1.6v6.1h3.9v2.8h-3.9
		v8.5c0,1.5,0.5,1.9,1.6,1.9c0.8,0,1.7-0.3,2.3-0.6L1377.9,522.9z"/>
	<path class="st0" d="M1400.8,523.3v-8.9c0-3.2-1-4.3-3-4.3c-2.1,0-3,1.5-3,4v9.2h-3.1v-8.9c0-3.2-1-4.3-3-4.3c-2.1,0-3,1.5-3,4v9.2
		h-3.1v-15.7h3.1v1.5c0.8-1.1,2.1-1.8,3.8-1.8c2.1,0,3.5,0.8,4.3,2.3c1.1-1.4,2.4-2.3,4.8-2.3c3.7,0,5.4,2.4,5.4,7v9H1400.8z"/>
	<path class="st0" d="M1415.3,523.6c-1.6,0-3.1-0.8-4-1.8v5.7l-3.1,1.6v-21.5h3.1v1.5c1.1-1.1,2.5-1.8,4.1-1.8
		c3.4,0,6.1,2.5,6.1,8.5C1421.5,521.1,1418.6,523.6,1415.3,523.6z M1414.9,510c-1.5,0-2.8,1-3.6,2v6.6c0.7,0.9,2.1,2.1,3.7,2.1
		c2.2,0,3.4-1.7,3.4-5C1418.4,511.8,1417.2,510,1414.9,510z"/>
</g>
<g>
	<path class="st0" d="M1525.2,448.6c-0.8,0.4-1.8,0.7-3,0.7c-2.2,0-3.5-1.3-3.5-4.2v-9.1h-2.2v-2.8h2.2v-4.5l3-1.6v6.1h3.9v2.8h-3.9
		v8.5c0,1.5,0.5,1.9,1.6,1.9c0.8,0,1.7-0.3,2.3-0.6L1525.2,448.6z"/>
	<path class="st0" d="M1548.1,449v-8.9c0-3.2-1-4.3-3-4.3c-2.1,0-3,1.5-3,4v9.2h-3.1v-8.9c0-3.2-1-4.3-3-4.3c-2.1,0-3,1.5-3,4v9.2
		h-3.1v-15.7h3.1v1.5c0.8-1.1,2.1-1.8,3.8-1.8c2.1,0,3.5,0.8,4.3,2.3c1.1-1.4,2.4-2.3,4.8-2.3c3.7,0,5.4,2.4,5.4,7v9H1548.1z"/>
	<path class="st0" d="M1562.6,449.3c-1.6,0-3.1-0.8-4-1.8v5.7l-3.1,1.6v-21.5h3.1v1.5c1.1-1.1,2.5-1.8,4.1-1.8
		c3.4,0,6.1,2.5,6.1,8.5C1568.8,446.8,1565.9,449.3,1562.6,449.3z M1562.2,435.8c-1.5,0-2.8,1-3.6,2v6.6c0.7,0.9,2.1,2.1,3.7,2.1
		c2.2,0,3.4-1.7,3.4-5C1565.7,437.5,1564.5,435.8,1562.2,435.8z"/>
</g>
<g>
	<path class="st0" d="M1531.9,290.8h-3.1l-5.6-15.7h3.2l2.8,8.5c0.5,1.5,1,3,1.2,3.9c0.2-0.9,0.6-2.3,1.1-3.9l2.7-8.5h3.3
		L1531.9,290.8z"/>
	<path class="st0" d="M1548.9,290.8v-1.6c-1.1,1.1-2.6,1.9-4.3,1.9c-2.5,0-5.5-1.4-5.5-5.3c0-3.5,2.7-5.1,6.3-5.1
		c1.5,0,2.6,0.2,3.5,0.6v-1.2c0-1.7-1-2.7-3-2.7c-1.6,0-2.9,0.3-4.1,1l-1.2-2.3c1.5-0.9,3.2-1.4,5.4-1.4c3.5,0,5.9,1.7,5.9,5.3v10.8
		H1548.9z M1548.9,284.1c-0.8-0.4-1.9-0.7-3.6-0.7c-2,0-3.2,0.9-3.2,2.3c0,1.6,1,2.6,3,2.6c1.7,0,3.1-1,3.8-2V284.1z"/>
	<path class="st0" d="M1564.9,278.4c-0.7-0.4-1.4-0.6-2.4-0.6c-2,0-3.1,1.4-3.1,4v9h-3.1v-15.7h3.1v1.5c0.7-1.1,2-1.8,3.6-1.8
		c1.3,0,2,0.2,2.7,0.7L1564.9,278.4z"/>
</g>
</svg>
