<?xml version="1.0" encoding="utf-8"?>
<!-- Generator: Adobe Illustrator 21.1.0, SVG Export Plug-In . SVG Version: 6.00 Build 0)  -->
<svg version="1.1" id="Layer_1" xmlns="http://www.w3.org/2000/svg" xmlns:xlink="http://www.w3.org/1999/xlink" x="0px" y="0px"
	 width="3101px" height="932.8px" viewBox="0 0 3101 932.8" style="enable-background:new 0 0 3101 932.8;" xml:space="preserve">
<style type="text/css">
	.st0{fill:#FFFFFF;}
	.st1{fill:#FFFFFF;stroke:#0088CE;stroke-width:6;stroke-miterlimit:10;}
	.st2{fill:#0088CE;stroke:#FFFFFF;stroke-miterlimit:10;}
	.st3{fill:#4C4C4C;}
	.st4{fill:#F0F0F0;}
	.st5{fill:none;}
	.st6{fill:none;stroke:#4C4C4C;stroke-width:6;stroke-miterlimit:10;}
</style>
<rect class="st0" width="3101" height="932.8"/>
<path class="st1" d="M1579.6,727.8H903.7c-38.1,0-68.9-25.4-68.9-56.7V154c0-31.3,30.9-56.7,68.9-56.7h675.9
	c38.1,0,68.9,25.4,68.9,56.7v517.1C1648.5,702.4,1617.6,727.8,1579.6,727.8z"/>
<path class="st2" d="M1156.9,714.2c-1.5,1.6-2.5,2.6-3.5,3.7c-0.8-1.1-2.4-2.2-2.4-3.2c0-1.3,1.4-2.6,2.1-3.9
	C1154.2,711.7,1155.3,712.7,1156.9,714.2z"/>
<circle class="st2" cx="834.8" cy="315.8" r="72"/>
<circle class="st2" cx="1646.7" cy="208.8" r="72"/>
<circle class="st2" cx="1648.5" cy="364.3" r="72"/>
<circle class="st2" cx="1494.5" cy="732.4" r="72"/>
<g>
	<g>
		<path class="st3" d="M2714,278.7c1.1,0,2.2-0.3,3.1-1l159.7-107.2c2.5-1.7,3.2-5.2,1.5-7.7s-5.2-3.2-7.7-1.5l-159.7,107.2
			c-2.5,1.7-3.2,5.2-1.5,7.7C2710.5,277.8,2712.3,278.7,2714,278.7z"/>
		<path class="st3" d="M2666.6,352.5c1.1,0,2.2-0.3,3.1-1l126.5-85.4c2.5-1.7,3.2-5.2,1.5-7.7s-5.2-3.2-7.7-1.5l-126.5,85.4
			c-2.5,1.7-3.2,5.2-1.5,7.7C2663.1,351.7,2664.8,352.5,2666.6,352.5z"/>
		<path class="st3" d="M2392.8,441.8h546.6c15.3,0,27.7-13.3,27.7-29.6V95.3c0-16.3-12.4-29.6-27.7-29.6h-546.6
			c-15.3,0-27.7,13.3-27.7,29.6v316.9C2365.1,428.5,2377.5,441.8,2392.8,441.8z M2381.7,95.3c0-7.2,5-13,11.1-13h546.6
			c6.1,0,11,5.8,11,13v316.9c0,7.2-4.9,13-11,13h-546.6c-6.1,0-11.1-5.8-11.1-13L2381.7,95.3z"/>
		<g>
			<path class="st3" d="M2969.1,17.8h-606.2c-24.7,0-44.9,20.1-44.9,44.9v376.6c0,24.8,20.1,44.9,44.9,44.9h197v37.4h-60.5
				c-6.1,0-11.1,5-11.1,11.1s5,11.1,11.1,11.1h60.5h212.2h60.5c6.1,0,11.1-5,11.1-11.1s-5-11.1-11.1-11.1h-60.5v-37.4h197
				c24.7,0,44.9-20.1,44.9-44.9V62.7C3014,37.9,2993.9,17.8,2969.1,17.8z M2582.1,521.6v-33.4H2750v33.4H2582.1z M2991.8,440.4
				c0,12.5-10.2,22.7-22.7,22.7h-606.2c-12.5,0-22.7-10.2-22.7-22.7V62.7c0-12.5,10.2-22.7,22.7-22.7h606.2
				c12.5,0,22.7,10.2,22.7,22.7V440.4z"/>
		</g>
	</g>
</g>
<rect x="2318" y="584.3" class="st4" width="696" height="287"/>
<g>
	<path class="st0" d="M834.2,342.8c-13.6,0-20.6-11.1-20.6-27s7.2-27.1,20.8-27.1s20.6,11.1,20.6,27
		C855,331.6,847.8,342.8,834.2,342.8z M834.2,296.3c-9.1,0-12.7,8.3-12.7,19.3s3.7,19.5,12.8,19.5c9.2,0,12.7-8.3,12.7-19.3
		S843.4,296.3,834.2,296.3z"/>
</g>
<g>
	<path class="st0" d="M1644.1,228.5v-40.2h-9.3v-5.5c5.4-0.4,9.8-2.2,10.8-6.8h6.4v52.5H1644.1z"/>
</g>
<g>
	<path class="st0" d="M1627.9,384c0.5-15.4,9.8-22.2,20.2-28.3c7.1-4.2,8.9-6.5,8.9-10.2c0-4.2-2.8-6.9-10-6.9
		c-4.4,0-9.3,2-12.7,5.2l-5-6c4.7-4.4,11.4-7.1,17.9-7.1c10.9,0,17.8,4.6,17.8,14.3c0,8.1-4,11.5-13.2,17
		c-10,5.9-12.9,9.3-14.1,14.3h27.8v7.6h-37.6L1627.9,384L1627.9,384z"/>
</g>
<g>
	<path class="st0" d="M1475.5,756.9c-3.2,0-5.9-2.7-5.9-5.9s2.7-6,5.9-6s5.9,2.8,5.9,6C1481.5,754.2,1478.8,756.9,1475.5,756.9z"/>
	<path class="st0" d="M1494.6,756.9c-3.2,0-5.9-2.7-5.9-5.9s2.7-6,5.9-6s5.9,2.8,5.9,6S1497.8,756.9,1494.6,756.9z"/>
	<path class="st0" d="M1513.6,756.9c-3.2,0-5.9-2.7-5.9-5.9s2.7-6,5.9-6s5.9,2.8,5.9,6C1519.6,754.2,1516.9,756.9,1513.6,756.9z"/>
</g>
<g>
	<rect x="969.7" y="373.5" class="st5" width="544" height="78"/>
	<path class="st3" d="M1091.5,410.1h-11.7v18.8h-10.6v-53.2h23.3c10,0,18.3,5.5,18.3,16.9C1110.7,404.9,1102.5,410.1,1091.5,410.1z
		 M1092.1,386h-12.2v13.7h12.4c4.9,0,7.6-2.3,7.6-6.9C1099.8,388.2,1096.8,386,1092.1,386z"/>
	<path class="st3" d="M1151.7,428.9l-9.5-19.2h-10.7v19.2h-10.6v-53.2h24.8c10,0,18.3,5.5,18.3,16.9c0,8-3.4,13-10.2,15.7L1164,429
		L1151.7,428.9L1151.7,428.9z M1145.4,386h-13.9v13.7h13.9c4.9,0,7.6-2.3,7.6-6.9C1153,388,1150.1,386,1145.4,386z"/>
	<path class="st3" d="M1195.4,429.8c-14.5,0-23.1-11.2-23.1-27.4s8.6-27.4,23.1-27.4s23.1,11.2,23.1,27.4S1209.9,429.8,1195.4,429.8
		z M1195.4,385.4c-8.6,0-12.2,7.4-12.2,16.9s3.6,16.9,12.2,16.9s12.2-7.4,12.2-16.9S1204,385.4,1195.4,385.4z"/>
	<path class="st3" d="M1259.8,391.2c-1.9-3.6-4.9-5.8-9.7-5.8c-8,0-12.5,7-12.5,16.9c0,9.6,4.6,16.9,12.6,16.9
		c4.8,0,7.6-2.1,10.4-6.8l9,5.3c-3.6,7.5-10,12-19.7,12c-13.9,0-23.3-10.6-23.3-27.4c0-16.2,9.7-27.4,23.6-27.4
		c10,0,16.1,4.9,19.5,11.8L1259.8,391.2z"/>
	<path class="st3" d="M1280.2,428.9v-53.2h36.9v10.4h-26.3v9.2h15.3v10.3h-15.3v12.8h27.4v10.4L1280.2,428.9L1280.2,428.9z"/>
	<path class="st3" d="M1346.7,429.8c-8.9,0-16.6-3.7-20.7-9.7l7.7-6.8c3.7,4.3,8.5,6.1,13.6,6.1c6.3,0,9.3-1.7,9.3-5.8
		c0-3.4-1.8-4.9-11.9-7.2c-9.8-2.3-16.6-5.4-16.6-15.9c0-9.7,8.5-15.6,19-15.6c8.3,0,14.4,3.1,19.4,8.4l-7.7,7.4
		c-3.4-3.5-7.2-5.5-12.1-5.5c-5.7,0-7.6,2.4-7.6,4.8c0,3.3,2.3,4.4,10.7,6.4c8.4,2,17.8,4.9,17.8,16.4
		C1367.6,422.9,1361.2,429.8,1346.7,429.8z"/>
	<path class="st3" d="M1395.8,429.8c-8.9,0-16.6-3.7-20.7-9.7l7.7-6.8c3.7,4.3,8.5,6.1,13.6,6.1c6.3,0,9.3-1.7,9.3-5.8
		c0-3.4-1.8-4.9-11.9-7.2c-9.8-2.3-16.6-5.4-16.6-15.9c0-9.7,8.5-15.6,19-15.6c8.3,0,14.4,3.1,19.4,8.4l-7.7,7.4
		c-3.4-3.5-7.2-5.5-12.1-5.5c-5.7,0-7.6,2.4-7.6,4.8c0,3.3,2.3,4.4,10.7,6.4c8.4,2,17.8,4.9,17.8,16.4
		C1416.7,422.9,1410.2,429.8,1395.8,429.8z"/>
</g>
<g>
	<rect x="1743.3" y="130.3" class="st5" width="438" height="78"/>
	<path class="st3" d="M1762,186.5c-5.4,0-11.2-2.1-15.3-5.1l3.6-5.9c3.7,2.6,7.9,4,11.6,4c4.9,0,7.3-1.6,7.3-4.4
		c0-3-3.5-4.5-9.3-6.7c-8.6-3.3-11.7-6.2-11.7-12.5c0-7.1,5.6-10.9,13.6-10.9c5,0,10,1.8,13.5,4.4l-3.4,6c-3.3-2.3-6.5-3.4-10.3-3.4
		s-5.5,1.5-5.5,3.6c0,2,1.4,3.4,7.4,5.8c8.9,3.4,13.5,5.9,13.5,13.4C1777,183.6,1769.8,186.5,1762,186.5z"/>
	<path class="st3" d="M1805.3,184.7c-1.9,1.1-4.6,1.8-7.7,1.8c-5.5,0-9-3.4-9-10.6v-23h-5.7v-7.1h5.7v-11.4l7.7-4.1v15.5h9.9v7.1
		h-9.9v21.7c0,3.7,1.2,4.8,4.1,4.8c2.1,0,4.3-0.8,5.8-1.6L1805.3,184.7z"/>
	<path class="st3" d="M1839,185.7v-3.8c-2.9,2.7-6.2,4.6-10.4,4.6c-8.6,0-15.4-6.2-15.4-21.4c0-13.7,7.4-20.1,15.7-20.1
		c4,0,7.8,2.1,10,4.6v-15.3l7.8-4v55.4L1839,185.7L1839,185.7z M1839.1,157.4c-1.7-2.4-5.4-5.2-9.3-5.2c-5.6,0-8.7,4.3-8.7,12.7
		c0,10,3.2,14.4,9,14.4c3.7,0,7-2.5,9-5.1V157.4z"/>
	<path class="st3" d="M1874,186.5c-10,0-17.6-8.3-17.6-20.7c0-13.1,7.8-20.8,17.8-20.8c10.2,0,17.8,8.1,17.8,20.6
		C1892,178.8,1884.2,186.5,1874,186.5z M1873.9,152.4c-5.9,0-9.6,5.2-9.6,13.1c0,8.7,4,13.5,10,13.5c5.9,0,9.8-6,9.8-13.3
		C1884.1,157.7,1880.2,152.4,1873.9,152.4z"/>
	<path class="st3" d="M1925.6,185.7v-3.8c-2,2.9-5.9,4.6-10,4.6c-9.3,0-14.2-6.1-14.2-17.9v-22.9h7.8v22.6c0,8.1,3,10.9,8.2,10.9
		s8.2-3.7,8.2-10.2v-23.3h7.8v39.9L1925.6,185.7L1925.6,185.7z"/>
	<path class="st3" d="M1964,184.7c-1.9,1.1-4.6,1.8-7.7,1.8c-5.5,0-9-3.4-9-10.6v-23h-5.7v-7.1h5.7v-11.4l7.7-4.1v15.5h9.9v7.1h-9.9
		v21.7c0,3.7,1.2,4.8,4.1,4.8c2.1,0,4.3-0.8,5.8-1.6L1964,184.7z"/>
</g>
<g>
	<rect x="234.5" y="228.5" class="st5" width="438" height="78"/>
	<path class="st3" d="M253.2,284.7c-5.4,0-11.2-2.1-15.3-5.1l3.6-5.9c3.7,2.6,7.9,4,11.6,4c4.9,0,7.3-1.6,7.3-4.4
		c0-3-3.5-4.5-9.3-6.7c-8.6-3.3-11.7-6.2-11.7-12.5c0-7.1,5.6-10.9,13.6-10.9c5,0,10,1.8,13.5,4.4l-3.4,6c-3.3-2.3-6.5-3.4-10.3-3.4
		s-5.5,1.5-5.5,3.6c0,2,1.4,3.4,7.4,5.8c8.9,3.4,13.5,5.9,13.5,13.4C268.2,281.8,261,284.7,253.2,284.7z"/>
	<path class="st3" d="M296.5,282.9c-1.9,1.1-4.6,1.8-7.7,1.8c-5.5,0-9-3.4-9-10.6v-23h-5.7V244h5.7v-11.4l7.7-4.1V244h9.9v7.1h-9.9
		v21.7c0,3.7,1.2,4.8,4.1,4.8c2.1,0,4.3-0.8,5.8-1.6L296.5,282.9z"/>
	<path class="st3" d="M330.2,283.9v-3.8c-2.9,2.7-6.2,4.6-10.4,4.6c-8.6,0-15.4-6.2-15.4-21.4c0-13.7,7.4-20.1,15.7-20.1
		c4,0,7.8,2.1,10,4.6v-15.3l7.8-4v55.4L330.2,283.9L330.2,283.9z M330.3,255.6c-1.7-2.4-5.4-5.2-9.3-5.2c-5.6,0-8.7,4.3-8.7,12.7
		c0,10,3.2,14.4,9,14.4c3.7,0,7-2.5,9-5.1V255.6z"/>
	<path class="st3" d="M353.8,238.8c-2.8,0-5.1-2.3-5.1-5c0-2.8,2.3-5.1,5.1-5.1c2.7,0,5,2.3,5,5.1S356.6,238.8,353.8,238.8z
		 M349.9,283.9V244h7.8v39.9H349.9z"/>
	<path class="st3" d="M393.9,283.9v-22.6c0-8.1-3-10.9-8.2-10.9s-8.2,3.7-8.2,10.2v23.3h-7.8V244h7.8v3.8c2-2.9,5.9-4.6,10-4.6
		c9.3,0,14.2,6.1,14.2,17.9V284L393.9,283.9L393.9,283.9z"/>
</g>
<g>
	<rect x="1743.3" y="284.3" class="st5" width="438" height="78"/>
	<path class="st3" d="M1762,340.5c-5.4,0-11.2-2.1-15.3-5.1l3.6-5.9c3.7,2.6,7.9,4,11.6,4c4.9,0,7.3-1.6,7.3-4.4
		c0-3-3.5-4.5-9.3-6.7c-8.6-3.3-11.7-6.2-11.7-12.5c0-7.1,5.6-10.9,13.6-10.9c5,0,10,1.8,13.5,4.4l-3.4,6c-3.3-2.3-6.5-3.4-10.3-3.4
		s-5.5,1.5-5.5,3.6c0,2,1.4,3.4,7.4,5.8c8.9,3.4,13.5,5.9,13.5,13.4C1777,337.6,1769.8,340.5,1762,340.5z"/>
	<path class="st3" d="M1805.3,338.7c-1.9,1.1-4.6,1.8-7.7,1.8c-5.5,0-9-3.4-9-10.6v-23h-5.7v-7.1h5.7v-11.4l7.7-4.1v15.5h9.9v7.1
		h-9.9v21.7c0,3.7,1.2,4.8,4.1,4.8c2.1,0,4.3-0.8,5.8-1.6L1805.3,338.7z"/>
	<path class="st3" d="M1839,339.7v-3.8c-2.9,2.7-6.2,4.6-10.4,4.6c-8.6,0-15.4-6.2-15.4-21.4c0-13.7,7.4-20.1,15.7-20.1
		c4,0,7.8,2.1,10,4.6v-15.3l7.8-4v55.4L1839,339.7L1839,339.7z M1839.1,311.4c-1.7-2.4-5.4-5.2-9.3-5.2c-5.6,0-8.7,4.3-8.7,12.7
		c0,10,3.2,14.4,9,14.4c3.7,0,7-2.5,9-5.1V311.4z"/>
	<path class="st3" d="M1890.4,322.5H1864c0.8,7.7,5.2,10.9,10,10.9c3.3,0,6-1.2,8.7-3.2l4.6,5c-3.5,3.3-7.7,5.2-13.8,5.2
		c-9.3,0-17.3-7.5-17.3-20.7c0-13.5,7.1-20.8,17.5-20.8c11.3,0,16.8,9.2,16.8,20C1890.7,320.4,1890.5,321.7,1890.4,322.5z
		 M1873.3,306c-5.2,0-8.4,3.6-9.1,10h18.5C1882.4,310.6,1879.8,306,1873.3,306z"/>
	<path class="st3" d="M1922.1,308.1c-1.7-0.9-3.4-1.4-6-1.4c-4.9,0-7.8,3.5-7.8,10.3v22.8h-7.8v-39.9h7.8v3.8
		c1.8-2.7,5.2-4.6,9.1-4.6c3.2,0,5.2,0.6,6.8,1.7L1922.1,308.1z"/>
	<path class="st3" d="M1953.8,308.1c-1.7-0.9-3.4-1.4-6-1.4c-4.9,0-7.8,3.5-7.8,10.3v22.8h-7.8v-39.9h7.8v3.8
		c1.8-2.7,5.2-4.6,9.1-4.6c3.2,0,5.2,0.6,6.8,1.7L1953.8,308.1z"/>
</g>
<g>
	<rect x="1772" y="663.5" class="st5" width="438" height="78"/>
	<path class="st3" d="M1833.4,719.7c-10,0-17.6-8.3-17.6-20.7c0-13.1,7.8-20.8,17.8-20.8c10.2,0,17.8,8.1,17.8,20.6
		C1851.5,712,1843.7,719.7,1833.4,719.7z M1833.4,685.6c-5.9,0-9.6,5.2-9.6,13.1c0,8.7,4,13.5,10,13.5c5.9,0,9.8-6,9.8-13.3
		C1843.6,690.9,1839.7,685.6,1833.4,685.6z"/>
	<path class="st3" d="M1879.8,717.9c-1.9,1.1-4.6,1.8-7.7,1.8c-5.5,0-9-3.4-9-10.6v-23h-5.7V679h5.7v-11.4l7.7-4.1V679h9.9v7.1h-9.9
		v21.7c0,3.7,1.2,4.8,4.1,4.8c2.1,0,4.3-0.8,5.8-1.6L1879.8,717.9z"/>
	<path class="st3" d="M1915.6,718.9v-22.6c0-8.1-3-10.9-8.2-10.9s-8.2,3.7-8.2,10.2v23.3h-7.8v-51.3l7.8-4.1v19.3
		c2-2.9,5.9-4.6,10-4.6c9.3,0,14.2,6.1,14.2,17.9V719L1915.6,718.9L1915.6,718.9z"/>
	<path class="st3" d="M1966.8,701.7h-26.4c0.8,7.7,5.2,10.9,10,10.9c3.3,0,6-1.2,8.7-3.2l4.6,5c-3.5,3.3-7.7,5.2-13.8,5.2
		c-9.3,0-17.3-7.5-17.3-20.7c0-13.5,7.1-20.8,17.5-20.8c11.3,0,16.8,9.2,16.8,20C1967.1,699.6,1966.9,700.9,1966.8,701.7z
		 M1949.7,685.2c-5.2,0-8.4,3.6-9.1,10h18.5C1958.8,689.8,1956.2,685.2,1949.7,685.2z"/>
	<path class="st3" d="M1998.4,687.2c-1.7-0.9-3.4-1.4-6-1.4c-4.9,0-7.8,3.5-7.8,10.3v22.8h-7.8V679h7.8v3.8c1.8-2.7,5.2-4.6,9.1-4.6
		c3.2,0,5.2,0.6,6.8,1.7L1998.4,687.2z"/>
	<path class="st3" d="M2043.2,670.6c-2.6,0-3.6,1-3.6,3.9v4.6h7.4v7.3h-7.4V719h-7.8v-32.6h-5.2v-7.3h5.2v-5.2c0-7.3,4.5-10,10.1-10
		c2.1,0,4.3,0.3,5.9,0.8v6.8C2045.9,670.8,2044.6,670.6,2043.2,670.6z"/>
	<path class="st3" d="M2060.5,673.8c-2.8,0-5.1-2.3-5.1-5c0-2.8,2.3-5.1,5.1-5.1c2.7,0,5,2.3,5,5.1
		C2065.6,671.6,2063.3,673.8,2060.5,673.8z M2056.6,718.9V679h7.8v39.9H2056.6z"/>
	<path class="st3" d="M2076.7,718.9v-51.3l7.8-4.1v55.4L2076.7,718.9L2076.7,718.9z"/>
	<path class="st3" d="M2128.6,701.7h-26.4c0.8,7.7,5.2,10.9,10,10.9c3.3,0,6-1.2,8.7-3.2l4.6,5c-3.5,3.3-7.7,5.2-13.8,5.2
		c-9.3,0-17.3-7.5-17.3-20.7c0-13.5,7.1-20.8,17.5-20.8c11.3,0,16.8,9.2,16.8,20C2128.9,699.6,2128.7,700.9,2128.6,701.7z
		 M2111.5,685.2c-5.2,0-8.4,3.6-9.1,10h18.5C2120.6,689.8,2118,685.2,2111.5,685.2z"/>
	<path class="st3" d="M2150.8,719.7c-5.4,0-11.2-2.1-15.3-5.1l3.6-5.9c3.7,2.6,7.9,4,11.6,4c4.9,0,7.3-1.6,7.3-4.4
		c0-3-3.5-4.5-9.3-6.7c-8.6-3.3-11.7-6.2-11.7-12.5c0-7.1,5.6-10.9,13.6-10.9c5,0,10,1.8,13.5,4.4l-3.4,6c-3.3-2.3-6.5-3.4-10.3-3.4
		s-5.5,1.5-5.5,3.6c0,2,1.4,3.4,7.4,5.8c8.9,3.4,13.5,5.9,13.5,13.4C2165.7,716.8,2158.6,719.7,2150.8,719.7z"/>
</g>
<g>
	<g>
		<line class="st6" x1="1744.9" y1="208.3" x2="2242.9" y2="208.3"/>
		<g>
			<polygon class="st3" points="2235.4,238.2 2280,208.3 2235.4,178.4 			"/>
		</g>
	</g>
</g>
<g>
	<g>
		<line class="st6" x1="1744.9" y1="364.3" x2="2232.7" y2="364.3"/>
		<g>
			<polygon class="st3" points="2223.2,394.2 2280,364.3 2223.2,334.4 			"/>
		</g>
	</g>
</g>
<g>
	<g>
		<line class="st6" x1="186" y1="315.8" x2="673.8" y2="315.8"/>
		<g>
			<polygon class="st3" points="664.3,345.7 721,315.8 664.3,285.9 			"/>
		</g>
	</g>
</g>
<g>
	<g>
		<line class="st6" x1="1725.1" y1="742.5" x2="2236.9" y2="742.5"/>
		<g>
			<polygon class="st3" points="1733.8,772.4 1682,742.5 1733.8,712.6 			"/>
		</g>
		<g>
			<polygon class="st3" points="2228.2,772.4 2280,742.5 2228.2,712.6 			"/>
		</g>
	</g>
</g>
<g>
	<g>
		<g>
			<g>
				<path class="st3" d="M2499.3,633.8c-0.5-0.5-1.2-0.8-2-0.8H2396c-1.5,0-2.8,1.2-2.8,2.8v183.8c0,1.5,1.2,2.8,2.8,2.8h134
					c1.5,0,2.8-1.2,2.8-2.8V669.5c0-0.7-0.3-1.4-0.8-1.9L2499.3,633.8z M2500.1,642.5l24.9,25.7h-24.9V642.5z M2398.7,638.5h95.8
					v31.3c0,0.2,0.1,0.4,0.1,0.6s-0.1,0.4-0.1,0.6c0,1.5,1.2,2.8,2.8,2.8h30v143.1h-128.5V638.5H2398.7z"/>
			</g>
		</g>
		<g>
			<path class="st3" d="M2505.7,698.6h-86.9c-1.1,0-2.1-0.9-2.1-2.1c0-1.1,0.9-2.1,2.1-2.1h86.9c1.1,0,2.1,0.9,2.1,2.1
				C2507.7,697.7,2506.8,698.6,2505.7,698.6z"/>
		</g>
		<g>
			<path class="st3" d="M2488,720h-69.2c-1.1,0-2.1-0.9-2.1-2.1c0-1.1,0.9-2.1,2.1-2.1h69.2c1.1,0,2.1,0.9,2.1,2.1
				C2490,719.1,2489.1,720,2488,720z"/>
		</g>
		<g>
			<path class="st3" d="M2505.7,741.4h-86.9c-1.1,0-2.1-0.9-2.1-2.1s0.9-2.1,2.1-2.1h86.9c1.1,0,2.1,0.9,2.1,2.1
				S2506.8,741.4,2505.7,741.4z"/>
		</g>
		<g>
			<path class="st3" d="M2488,762.7h-69.2c-1.1,0-2.1-0.9-2.1-2.1c0-1.1,0.9-2.1,2.1-2.1h69.2c1.1,0,2.1,0.9,2.1,2.1
				C2490,761.8,2489.1,762.7,2488,762.7z"/>
		</g>
		<g>
			<path class="st3" d="M2505.7,784.1h-86.9c-1.1,0-2.1-0.9-2.1-2.1c0-1.1,0.9-2.1,2.1-2.1h86.9c1.1,0,2.1,0.9,2.1,2.1
				C2507.7,783.2,2506.8,784.1,2505.7,784.1z"/>
		</g>
	</g>
	<g>
		<g>
			<g>
				<path class="st3" d="M2702.3,633.8c-0.5-0.5-1.2-0.8-2-0.8H2599c-1.5,0-2.8,1.2-2.8,2.8v183.8c0,1.5,1.2,2.8,2.8,2.8h134
					c1.5,0,2.8-1.2,2.8-2.8V669.5c0-0.7-0.3-1.4-0.8-1.9L2702.3,633.8z M2703.1,642.5l24.9,25.7h-24.9V642.5z M2601.7,638.5h95.8
					v31.3c0,0.2,0.1,0.4,0.1,0.6s-0.1,0.4-0.1,0.6c0,1.5,1.2,2.8,2.8,2.8h30v143.1h-128.5V638.5H2601.7z"/>
			</g>
		</g>
		<g>
			<path class="st3" d="M2708.7,698.6h-86.9c-1.1,0-2.1-0.9-2.1-2.1c0-1.1,0.9-2.1,2.1-2.1h86.9c1.1,0,2.1,0.9,2.1,2.1
				C2710.7,697.7,2709.8,698.6,2708.7,698.6z"/>
		</g>
		<g>
			<path class="st3" d="M2691,720h-69.2c-1.1,0-2.1-0.9-2.1-2.1c0-1.1,0.9-2.1,2.1-2.1h69.2c1.1,0,2.1,0.9,2.1,2.1
				C2693,719.1,2692.1,720,2691,720z"/>
		</g>
		<g>
			<path class="st3" d="M2708.7,741.4h-86.9c-1.1,0-2.1-0.9-2.1-2.1s0.9-2.1,2.1-2.1h86.9c1.1,0,2.1,0.9,2.1,2.1
				S2709.8,741.4,2708.7,741.4z"/>
		</g>
		<g>
			<path class="st3" d="M2691,762.7h-69.2c-1.1,0-2.1-0.9-2.1-2.1c0-1.1,0.9-2.1,2.1-2.1h69.2c1.1,0,2.1,0.9,2.1,2.1
				C2693,761.8,2692.1,762.7,2691,762.7z"/>
		</g>
		<g>
			<path class="st3" d="M2708.7,784.1h-86.9c-1.1,0-2.1-0.9-2.1-2.1c0-1.1,0.9-2.1,2.1-2.1h86.9c1.1,0,2.1,0.9,2.1,2.1
				C2710.7,783.2,2709.8,784.1,2708.7,784.1z"/>
		</g>
	</g>
	<g>
		<g>
			<g>
				<path class="st3" d="M2905.3,633.8c-0.5-0.5-1.2-0.8-2-0.8H2802c-1.5,0-2.8,1.2-2.8,2.8v183.8c0,1.5,1.2,2.8,2.8,2.8h134
					c1.5,0,2.8-1.2,2.8-2.8V669.5c0-0.7-0.3-1.4-0.8-1.9L2905.3,633.8z M2906.1,642.5l24.9,25.7h-24.9V642.5z M2804.7,638.5h95.8
					v31.3c0,0.2,0.1,0.4,0.1,0.6s-0.1,0.4-0.1,0.6c0,1.5,1.2,2.8,2.8,2.8h30v143.1h-128.5V638.5H2804.7z"/>
			</g>
		</g>
		<g>
			<path class="st3" d="M2911.7,698.6h-86.9c-1.1,0-2.1-0.9-2.1-2.1c0-1.1,0.9-2.1,2.1-2.1h86.9c1.1,0,2.1,0.9,2.1,2.1
				C2913.7,697.7,2912.8,698.6,2911.7,698.6z"/>
		</g>
		<g>
			<path class="st3" d="M2894,720h-69.2c-1.1,0-2.1-0.9-2.1-2.1c0-1.1,0.9-2.1,2.1-2.1h69.2c1.1,0,2.1,0.9,2.1,2.1
				C2896,719.1,2895.1,720,2894,720z"/>
		</g>
		<g>
			<path class="st3" d="M2911.7,741.4h-86.9c-1.1,0-2.1-0.9-2.1-2.1s0.9-2.1,2.1-2.1h86.9c1.1,0,2.1,0.9,2.1,2.1
				S2912.8,741.4,2911.7,741.4z"/>
		</g>
		<g>
			<path class="st3" d="M2894,762.7h-69.2c-1.1,0-2.1-0.9-2.1-2.1c0-1.1,0.9-2.1,2.1-2.1h69.2c1.1,0,2.1,0.9,2.1,2.1
				C2896,761.8,2895.1,762.7,2894,762.7z"/>
		</g>
		<g>
			<path class="st3" d="M2911.7,784.1h-86.9c-1.1,0-2.1-0.9-2.1-2.1c0-1.1,0.9-2.1,2.1-2.1h86.9c1.1,0,2.1,0.9,2.1,2.1
				C2913.7,783.2,2912.8,784.1,2911.7,784.1z"/>
		</g>
	</g>
</g>
<circle class="st2" cx="1377.1" cy="735.1" r="72"/>
<g>
	<path class="st0" d="M1372.6,759.6c-11,0-19.7-6.1-19.7-20.9c0-13.7,7.6-32.5,32.5-33.2v7.4c-12.1,0.5-20.3,6.1-23.7,17
		c3.7-2.9,7.4-4.2,13.8-4.2c9.5,0,17.6,5.2,17.6,16.4C1393.1,753.6,1384.1,759.6,1372.6,759.6z M1373.3,733.2
		c-7.7,0-12.4,3.1-12.4,9.2c0,5.1,4.1,9.6,12,9.6s12.3-3.8,12.3-9.7C1385.2,736,1380.8,733.2,1373.3,733.2z"/>
</g>
<circle class="st2" cx="1249.2" cy="735.6" r="72"/>
<g>
	<path class="st0" d="M1248,760.1c-6.7,0-12.7-1.6-18.3-5.2l3.8-6.5c4.4,2.5,10,4,14.7,4c8.2,0,12.4-4,12.4-10.6
		c0-6.2-4.1-9.4-10.6-9.4c-4.4,0-7.4,1.3-10.1,3.3l-8.4-3.3l1.8-25.6h32.2v7.5h-25.2l-1,13.3c2.9-1.6,6.6-2.7,11.3-2.7
		c12,0,18.1,7,18.1,16.6C1268.7,754.3,1260.1,760.1,1248,760.1z"/>
</g>
<circle class="st2" cx="1129.4" cy="735.1" r="72"/>
<g>
	<path class="st0" d="M1138,747v11.8h-7.6v-11.5H1102v-7.5l27.1-33.4h9v33.7h7v7L1138,747L1138,747z M1125.9,721.4l-10.1,12.9
		c-1.6,2-3.8,4.6-4.9,5.8c1.8,0,5.8-0.1,8.5-0.1h11.1v-15.3c0-3,0.2-7.7,0.2-9.6C1129.6,716.5,1127.6,719.2,1125.9,721.4z"/>
</g>
<circle class="st2" cx="1004.8" cy="732.4" r="72"/>
<g>
	<path class="st0" d="M1004.5,756.9c-7.4,0-15.2-3.3-18.9-8.7l6-5.1c3.2,4,8.2,6,12.9,6c8.4,0,11.5-3.2,11.5-8.6
		c0-5.4-4-7.9-9.5-7.9h-5V725h4.8c4.9,0,7.4-3.2,7.4-7.2c0-3-2.2-7.2-9.9-7.2c-4.1,0-7.4,1.8-10.3,4.9l-5.8-5.6
		c4.4-4.6,9.7-7.1,16.3-7.1c9.9,0,17.9,5.1,17.9,14.2c0,6.3-2.8,9.4-6.4,11.5c5,1.4,8.5,5.5,8.5,12
		C1024.1,751.2,1016.8,756.9,1004.5,756.9z"/>
</g>
<g>
	<path class="st3" d="M759.3,804c-2,0.1-4,0.4-5.9,0.4c-204.5,0-408.9,0-613.4,0c-2,0-4,0-6.3,0c0-81.7,0-163.1,0-245
		c98.4,0,196.8,0,295.8,0c-1.2-5.8-2.5-10.9-3.4-16c-3.4-19.9,6.4-37.7,24.9-45.7c15.5-6.8,31.8-8.4,48.3-8.5
		c17.2-0.2,34.3,0.6,51.4-0.4c9-0.5,18.1-3.1,26.5-6.4c11.2-4.4,15.7-14.8,14.9-28.9c-1.1-18.1-1.9-36.2-2.8-54.4
		c-0.1-1.6,0.2-3.3,0.3-5.5c5.6,0.5,10.8,0.9,16.5,1.3c0,4.2-0.2,8.3,0,12.3c0.8,15.3,2,30.6,2.5,45.9c0.8,23.6-6.6,38.3-30.8,47.1
		c-14.3,5.2-29.1,6.4-44.2,6.4c-17.8,0-35.7-0.3-53.4,0.8c-8.2,0.5-16.6,3.4-24.2,6.9c-15.1,6.9-15.4,20.3-12.3,32.2
		c3.4,12.8,3.6,12.7,16.7,12.7c97.3,0,194.6,0,291.9,0c2.3,0,4.6-0.2,7-0.3C759.3,640.7,759.3,722.3,759.3,804z M447.1,776.1
		c65,0,130,0,194.9,0.1c4.3,0,5.9-1,5.7-5.6c-0.3-8.7-0.4-17.3,0-26c0.3-5.2-1.5-6.4-6.5-6.3c-53.8,0.2-107.6,0.1-161.4,0.1
		c-75.8,0-151.6,0-227.4-0.1c-4.6,0-6.1,1.2-6,5.9c0.3,8.5,0.1,17,0.1,25.5c0,6.4,0,6.5,6.7,6.5
		C317.8,776.1,382.4,776.1,447.1,776.1z M461.9,728.5c0-12.6,0-24.7,0-37c-10.5,0-20.7,0-31.1,0c0,12.5,0,24.7,0,37
		C441.3,728.5,451.4,728.5,461.9,728.5z M660.4,775.8c1.7,0.1,3,0.3,4.3,0.3c8.2,0,16.3,0.1,24.4-0.2c1,0,2.7-2.2,2.8-3.4
		c0.3-7,0.1-14,0.1-21c0-13.1,0-13.1-12.9-13.1c-6.2,0-12.5,0-18.8,0C660.4,751.2,660.4,763.2,660.4,775.8z M232,776
		c0-12.9,0-25.1,0-37.7c-9.7,0-19-0.1-28.3,0.1c-1.1,0-2.9,2.1-3,3.3c-0.2,10.3-0.2,20.6,0,31c0,1.1,1.9,3.1,3,3.2
		C213,776.2,222.3,776,232,776z M522.4,728.7c10.2,0,19.7,0.1,29.1-0.1c1,0,2.7-1.9,2.7-3c0.2-10.5,0.2-20.9,0-31.4
		c0-1-1.8-2.9-2.8-2.9c-8.6-0.2-17.3-0.2-25.9,0c-1,0-2.9,1.8-2.9,2.8C522.3,705.3,522.4,716.6,522.4,728.7z M200.6,638.1
		c0,11.9-0.1,23.4,0.1,34.8c0,0.9,1.4,2.5,2.2,2.5c9.7,0.2,19.5,0.1,29.2,0.1c0-12.9,0-25.1,0-37.4
		C221.6,638.1,211.5,638.1,200.6,638.1z M660.6,638.1c0,12.7,0,24.9,0,37.5c9.6,0,18.9,0,28.2,0c2.7,0,3.4-1.3,3.3-3.7
		c-0.1-7.1,0-14.3,0-21.4c0-4.1,0-8.2,0-12.4C681.2,638.1,671.1,638.1,660.6,638.1z M430.8,638.2c0,12.7,0,24.8,0,37.1
		c10.6,0,20.8,0,31.1,0c0-12.6,0-24.8,0-37.1C451.4,638.2,441.3,638.2,430.8,638.2z M476.2,638.2c0,11.7,0.1,22.9,0,34
		c0,3.1,1.7,3.5,4.2,3.5c7.7-0.1,15.3-0.2,23,0.1c4.2,0.2,5.1-1.6,5-5.3c-0.2-6.7-0.1-13.3-0.1-20c0-4.1,0-8.2,0-12.3
		C497.2,638.2,487.1,638.2,476.2,638.2z M522.8,638.1c0,12.7,0,24.8,0,37.1c10.7,0,20.9,0,31.1,0c0-12.6,0-24.8,0-37.1
		C543.4,638.1,533.3,638.1,522.8,638.1z M568.4,675.6c10.1,0,19.7,0.1,29.3-0.1c0.8,0,2.3-1.5,2.4-2.3c0.2-11.6,0.1-23.2,0.1-34.8
		c-11,0-21.3,0-31.7,0C568.4,650.8,568.4,662.7,568.4,675.6z M614.2,638.2c0,11.9-0.1,23.3,0.2,34.7c0,0.9,2.3,2.6,3.6,2.6
		c8.1,0.2,16.3,0,24.4,0.2c3.2,0.1,3.9-1.5,3.9-4.3c-0.1-5.6,0-11.3,0-16.9c0-5.4,0-10.8,0-16.3
		C635.3,638.2,625.2,638.2,614.2,638.2z M200.6,728.3c10.8,0,21.2,0,31.5,0c0-12.5,0-24.5,0-37.1c-9.9,0-19.5-0.1-29.1,0.1
		c-0.8,0-2.3,1.5-2.3,2.4C200.5,705.1,200.6,716.5,200.6,728.3z M324.4,728.4c0-11.9,0.1-23.1-0.2-34.4c0-1-2.2-2.7-3.4-2.8
		c-8.3-0.2-16.6-0.1-24.9-0.2c-2.6,0-3.5,1-3.5,3.6c0.1,6.8,0,13.6,0,20.5c0,4.4,0,8.8,0,13.3C303.5,728.4,313.6,728.4,324.4,728.4z
		 M370.3,728.7c0-12.1,0.1-23.3-0.1-34.6c0-1-1.9-2.8-2.9-2.8c-8.6-0.2-17.3-0.2-25.9,0c-1,0-2.8,1.8-2.9,2.8
		c-0.2,10.5-0.2,21,0,31.4c0,1.1,1.7,3,2.7,3C350.6,728.8,360.1,728.7,370.3,728.7z M600.1,728.4c0-11.9,0.1-23.3-0.1-34.8
		c0-0.9-2.1-2.4-3.2-2.4c-8.3-0.2-16.6,0-24.9-0.2c-2.9,0-3.7,1.2-3.6,3.9c0.1,4.8,0,9.6,0,14.5c0,6.2,0,12.5,0,19
		C579.1,728.4,589.2,728.4,600.1,728.4z M646.2,710c0-5-0.1-10,0-15c0.1-2.7-0.8-4-3.7-3.9c-8.2,0.1-16.3,0.1-24.5,0
		c-2.7,0-3.9,0.9-3.9,3.8c0.1,10,0.1,20,0,30c0,2.7,0.8,4,3.7,3.9c8.2-0.1,16.3-0.1,24.5,0c3.2,0.1,4-1.5,3.9-4.3
		C646.1,719.7,646.2,714.8,646.2,710z M660.3,691.2c0,6.8,0,12.8,0,18.8c0,6.1,0,12.2,0,18.7c10,0,19.3,0.1,28.6-0.1
		c1.1,0,3-2,3-3.1c0.2-10.3,0.2-20.7,0-31c0-1.1-1.7-3.1-2.7-3.1C679.9,691.1,670.4,691.2,660.3,691.2z M384.5,638.2
		c0,11.9-0.1,23.3,0.2,34.8c0,0.9,2.4,2.5,3.7,2.6c5.6,0.3,11.3,0.1,17,0.1c11.1,0,11.1,0,11.1-10.9c0-8.8,0-17.5,0-26.5
		C405.6,638.2,395.5,638.2,384.5,638.2z M338.6,675.6c10,0,19.8,0.1,29.5-0.2c0.8,0,2.1-2.6,2.1-4.1c0.2-9,0.1-18,0.1-26.9
		c0-2.1,0-4.1,0-6c-11.2,0-21.4,0-31.7,0C338.6,650.8,338.6,662.9,338.6,675.6z M292.5,638.2c0,11.8-0.1,23.1,0.1,34.4
		c0,1,2.1,2.8,3.3,2.9c5.8,0.3,11.6,0.1,17.4,0.1c3.6,0,7.1,0,10.7,0c0-13,0-25.1,0-37.4C313.7,638.2,303.4,638.2,292.5,638.2z
		 M246.5,638.2c0,11.9-0.1,23.3,0.2,34.8c0,0.9,2.4,2.5,3.7,2.5c8,0.2,16,0,24,0.2c3.5,0.1,4.3-1.5,4.2-4.5c-0.2-4.7,0-9.3,0-14
		c0-6.3,0-12.5,0-19C267.6,638.2,257.5,638.2,246.5,638.2z M155.2,638.2c0,12.6,0,24.8,0,37.4c9.7,0,19,0.1,28.3-0.1
		c1,0,2.9-1.5,2.9-2.3c0.2-11.6,0.1-23.2,0.1-35C175.8,638.2,165.7,638.2,155.2,638.2z M232.2,584.8c-9.9,0-19.4-0.1-28.8,0.1
		c-1,0-2.7,1.7-2.7,2.6c-0.2,11.4-0.1,22.9-0.1,34.6c10.9,0,21.1,0,31.6,0C232.2,609.9,232.2,597.8,232.2,584.8z M246.5,622.4
		c10.2,0,20,0.1,29.8-0.2c0.8,0,2.1-2.3,2.1-3.6c0.2-10,0.1-20,0.1-29.9c0-2.6-0.8-4-3.7-4c-8.3,0.1-16.6-0.1-24.9,0.1
		c-1.1,0-3.2,1.7-3.2,2.6C246.5,598.9,246.5,610.3,246.5,622.4z M154.8,728.7c10.1,0,19.4,0.1,28.7-0.2c1.1,0,3-2.4,3-3.7
		c0.3-10,0.1-20,0.2-29.9c0-2.4-0.7-3.7-3.4-3.7c-8.5,0.1-17-0.1-25.4,0.1c-1,0-2.9,1.8-2.9,2.8
		C154.7,705.4,154.8,716.6,154.8,728.7z M370.3,622.2c0-11.7,0.1-22.9-0.1-34c0-1.1-1.9-3.2-3-3.2c-8.5-0.3-17-0.3-25.5,0
		c-1.1,0-3.1,1.7-3.2,2.6c-0.2,11.5-0.1,22.9-0.1,34.7C349.1,622.2,359.3,622.2,370.3,622.2z M246.5,709.9c0,5,0.1,10,0,15
		c-0.1,2.8,1,3.9,3.8,3.8c8.2-0.1,16.3-0.1,24.5,0c2.9,0,3.8-1.1,3.8-3.9c-0.1-10-0.1-20,0-30c0-2.8-1.1-3.9-3.8-3.8
		c-8.2,0.1-16.3,0.1-24.5,0c-2.8,0-3.8,1.1-3.8,3.9C246.6,699.9,246.5,704.9,246.5,709.9z M554.3,622.2c0-11.7,0.1-22.8-0.1-34
		c0-1.1-1.9-3.2-2.9-3.2c-8.7-0.3-17.3-0.2-26,0c-1,0-2.7,1.6-2.7,2.5c-0.2,11.5-0.1,22.9-0.1,34.7
		C533.1,622.2,543.4,622.2,554.3,622.2z M155,776c9.8,0,19.1,0.1,28.4-0.1c1.1,0,3-2.1,3-3.2c0.2-10.2,0.1-20.3,0.2-30.5
		c0-2.8-1-3.9-3.8-3.8c-8.2,0.1-16.3,0.1-24.5,0c-3-0.1-3.6,1.4-3.6,4c0.1,9.2,0,18.3,0,27.5C154.8,771.7,154.9,773.7,155,776z
		 M416.4,622.5c0-12.1,0.1-23.4-0.2-34.7c0-1-2.2-2.8-3.4-2.9c-8.3-0.3-16.6-0.3-24.9,0c-1.2,0-3.3,2.2-3.3,3.5
		c-0.3,10.3-0.2,20.6,0,30.9c0,1.1,1.7,2.9,2.7,3C396.7,622.6,406.2,622.5,416.4,622.5z M476.2,710.1c0,4.7,0.1,9.3,0,14
		c-0.1,3.3,0.8,4.8,4.5,4.7c7.8-0.2,15.7-0.2,23.5,0c3,0.1,4.2-0.9,4.2-4c-0.1-9.8-0.1-19.7,0-29.5c0.1-3.4-1.3-4.3-4.5-4.2
		c-7.7,0.1-15.3,0.2-23,0c-3.9-0.1-4.9,1.5-4.7,5C476.4,700.7,476.2,705.4,476.2,710.1z M508.2,603.5c0-4.8-0.1-9.6,0-14.5
		c0.1-2.8-0.7-4.3-3.9-4.3c-8.1,0.1-16.3,0.1-24.5,0c-2.9,0-3.7,1.3-3.7,3.9c0.1,10,0.1,20,0,29.9c0,2.7,0.8,3.9,3.7,3.9
		c8.3-0.1,16.6-0.1,25,0c2.6,0,3.5-1,3.5-3.6C508.1,613.8,508.2,608.6,508.2,603.5z M384.4,709.7c0,5,0.1,10,0,15
		c-0.1,3,1,4.1,4.1,4.1c8-0.2,16-0.2,24,0c3.1,0.1,4-1.2,4-4.2c-0.1-9.8-0.1-19.6,0-29.5c0-3.1-1.2-4.1-4.1-4.1c-8,0.1-16,0.1-24,0
		c-3.1-0.1-4.1,1.3-4,4.2C384.5,700.1,384.4,704.9,384.4,709.7z M600.1,622.2c0-11.8,0.1-22.9-0.1-34.1c0-1.1-2-3.1-3.1-3.2
		c-8.5-0.3-17-0.2-25.5,0c-1.1,0-3.1,1.7-3.1,2.6c-0.2,11.4-0.1,22.9-0.1,34.6C579,622.2,589.2,622.2,600.1,622.2z M155.2,584.8
		c0,12.8,0,25.1,0,37.2c10.7,0,20.8,0,31.4,0c0-11.6,0.1-22.7-0.1-33.8c0-1.1-2-3.2-3.1-3.2C174.2,584.7,164.9,584.8,155.2,584.8z
		 M462.2,622.2c0-11.8,0.1-23.2-0.1-34.7c0-0.9-2-2.5-3.1-2.6c-8.5-0.2-17-0.2-25.4,0c-1,0-2.9,1.5-2.9,2.3
		c-0.2,11.6-0.1,23.1-0.1,35C441.3,622.2,451.5,622.2,462.2,622.2z M660.5,584.8c0,12.9,0,25,0,37.2c10.6,0,20.9,0,31.6,0
		c0-11.6,0.1-22.7-0.1-33.9c0-1.1-2-3.2-3.1-3.2C679.6,584.7,670.3,584.8,660.5,584.8z M646.2,622.5c0-12.2,0.1-23.5-0.1-34.8
		c0-1-1.9-2.8-3-2.8c-8.5-0.2-17-0.3-25.5,0c-1.2,0-3.2,2-3.3,3c-0.3,10.5-0.2,21,0,31.5c0,1,1.8,2.9,2.8,2.9
		C626.5,622.6,636,622.5,646.2,622.5z M324.4,622.4c0-12,0.1-23.5-0.1-35c0-0.9-2-2.6-3.1-2.6c-8.5-0.2-17-0.2-25.5,0
		c-1.1,0-3,2.1-3,3.2c-0.2,10.3-0.2,20.7,0,31c0,1.1,1.6,3.1,2.5,3.1C304.8,622.5,314.4,622.4,324.4,622.4z M737.7,728.7
		c0-12.1,0.1-23.7-0.1-35.3c0-0.7-2-2.1-3.1-2.1c-8.3-0.2-16.7-0.2-25,0c-1.2,0-3.2,1.9-3.3,3c-0.2,10.5-0.2,21,0,31.5
		c0,1,1.6,2.7,2.5,2.8C718.1,728.7,727.6,728.7,737.7,728.7z M706,638.2c0,11.7,0.1,22.8,0,33.9c0,3.1,1.6,3.5,4.1,3.5
		c7.8-0.1,15.6-0.1,23.4,0c3.3,0.1,4.4-1,4.3-4.3c-0.2-8.3,0-16.6,0-24.9c0-2.7,0-5.5,0-8.3C726.9,638.2,716.8,638.2,706,638.2z
		 M737.8,757.7c0-5.2-0.1-10.3,0-15.5c0.1-2.6-0.7-4-3.7-3.9c-8.1,0.1-16.3,0.1-24.4,0c-2.9,0-3.7,1.3-3.7,3.9c0.1,10,0.1,20,0,29.9
		c0,2.7,0.9,3.9,3.7,3.9c8.1-0.1,16.3-0.1,24.4,0c3,0,3.7-1.3,3.6-3.9C737.7,767.4,737.8,762.5,737.8,757.7z M737.8,622.1
		c0-11.7,0.1-23.2-0.1-34.6c0-0.9-2-2.5-3.1-2.6c-8.3-0.2-16.6-0.2-25,0c-1.2,0-3.3,1.6-3.3,2.5c-0.2,11.4-0.1,22.9-0.1,34.7
		C716.8,622.1,727,622.1,737.8,622.1z"/>
	<path class="st0" d="M447.1,776.1c-64.6,0-129.3,0-193.9,0c-6.6,0-6.6,0-6.7-6.5c0-8.5,0.2-17-0.1-25.5c-0.2-4.7,1.4-5.9,6-5.9
		c75.8,0.1,151.6,0.1,227.4,0.1c53.8,0,107.6,0.1,161.4-0.1c5,0,6.8,1.1,6.5,6.3c-0.4,8.6-0.4,17.3,0,26c0.2,4.5-1.4,5.6-5.7,5.6
		C577,776,512.1,776.1,447.1,776.1z"/>
	<path class="st0" d="M461.9,728.5c-10.5,0-20.6,0-31.1,0c0-12.3,0-24.5,0-37c10.4,0,20.6,0,31.1,0
		C461.9,703.8,461.9,715.9,461.9,728.5z"/>
	<path class="st0" d="M660.4,775.8c0-12.6,0-24.5,0-37.4c6.3,0,12.6,0,18.8,0c12.9,0,12.9,0,12.9,13.1c0,7,0.1,14-0.1,21
		c0,1.2-1.8,3.4-2.8,3.4c-8.1,0.3-16.3,0.2-24.4,0.2C663.5,776.1,662.2,775.9,660.4,775.8z"/>
	<path class="st0" d="M232,776c-9.7,0-19,0.1-28.3-0.1c-1.1,0-3-2-3-3.2c-0.2-10.3-0.2-20.6,0-31c0-1.2,1.9-3.2,3-3.3
		c9.3-0.3,18.6-0.1,28.3-0.1C232,750.9,232,763.1,232,776z"/>
	<path class="st0" d="M522.4,728.7c0-12.1-0.1-23.4,0.1-34.7c0-1,1.9-2.8,2.9-2.8c8.6-0.2,17.3-0.2,25.9,0c1,0,2.8,1.9,2.8,2.9
		c0.2,10.5,0.2,20.9,0,31.4c0,1.1-1.7,3-2.7,3C542,728.8,532.6,728.7,522.4,728.7z"/>
	<path class="st0" d="M200.6,638.1c10.9,0,21,0,31.5,0c0,12.4,0,24.6,0,37.4c-9.7,0-19.5,0.1-29.2-0.1c-0.8,0-2.2-1.6-2.2-2.5
		C200.5,661.5,200.6,650.1,200.6,638.1z"/>
	<path class="st0" d="M660.6,638.1c10.5,0,20.6,0,31.5,0c0,4.2,0,8.3,0,12.4c0,7.1,0,14.3,0,21.4c0,2.4-0.6,3.7-3.3,3.7
		c-9.3-0.1-18.5,0-28.2,0C660.6,663,660.6,650.8,660.6,638.1z"/>
	<path class="st0" d="M430.8,638.2c10.5,0,20.6,0,31.1,0c0,12.4,0,24.5,0,37.1c-10.3,0-20.5,0-31.1,0
		C430.8,663,430.8,650.8,430.8,638.2z"/>
	<path class="st0" d="M476.2,638.2c10.9,0,21,0,32,0c0,4.1,0,8.2,0,12.3c0,6.7-0.2,13.3,0.1,20c0.1,3.7-0.8,5.4-5,5.3
		c-7.6-0.3-15.3-0.1-23-0.1c-2.5,0-4.2-0.4-4.2-3.5C476.3,661.1,476.2,649.9,476.2,638.2z"/>
	<path class="st0" d="M522.8,638.1c10.5,0,20.6,0,31.1,0c0,12.3,0,24.5,0,37.1c-10.3,0-20.5,0-31.1,0
		C522.8,663,522.8,650.8,522.8,638.1z"/>
	<path class="st0" d="M568.4,675.6c0-12.9,0-24.8,0-37.2c10.4,0,20.7,0,31.7,0c0,11.6,0.1,23.2-0.1,34.8c0,0.8-1.5,2.3-2.4,2.3
		C588.1,675.7,578.5,675.6,568.4,675.6z"/>
	<path class="st0" d="M614.2,638.2c11,0,21.1,0,32,0c0,5.5,0,10.9,0,16.3c0,5.6-0.1,11.3,0,16.9c0.1,2.8-0.6,4.3-3.9,4.3
		c-8.1-0.2-16.3,0.1-24.4-0.2c-1.3,0-3.6-1.7-3.6-2.6C614.1,661.5,614.2,650.1,614.2,638.2z"/>
	<path class="st0" d="M200.6,728.3c0-11.8-0.1-23.2,0.1-34.6c0-0.8,1.5-2.4,2.3-2.4c9.6-0.2,19.2-0.1,29.1-0.1c0,12.6,0,24.6,0,37.1
		C221.7,728.3,211.4,728.3,200.6,728.3z"/>
	<path class="st0" d="M324.4,728.4c-10.9,0-21,0-31.9,0c0-4.5,0-8.9,0-13.3c0-6.8,0.1-13.6,0-20.5c0-2.5,0.9-3.6,3.5-3.6
		c8.3,0.1,16.6-0.1,24.9,0.2c1.2,0,3.4,1.8,3.4,2.8C324.5,705.3,324.4,716.6,324.4,728.4z"/>
	<path class="st0" d="M370.3,728.7c-10.2,0-19.7,0.1-29.1-0.1c-1,0-2.7-1.9-2.7-3c-0.2-10.5-0.2-21,0-31.4c0-1,1.8-2.8,2.9-2.8
		c8.6-0.2,17.3-0.2,25.9,0c1,0,2.9,1.8,2.9,2.8C370.4,705.3,370.3,716.6,370.3,728.7z"/>
	<path class="st0" d="M600.1,728.4c-11,0-21,0-31.9,0c0-6.5,0-12.7,0-19c0-4.8,0.1-9.6,0-14.5c-0.1-2.7,0.7-4,3.6-3.9
		c8.3,0.1,16.6-0.1,24.9,0.2c1.1,0,3.2,1.6,3.2,2.4C600.2,705.1,600.1,716.5,600.1,728.4z"/>
	<path class="st0" d="M646.2,710c0,4.8-0.1,9.7,0,14.5c0.1,2.8-0.7,4.3-3.9,4.3c-8.2-0.2-16.3-0.1-24.5,0c-2.9,0-3.7-1.2-3.7-3.9
		c0.1-10,0.1-20,0-30c0-2.9,1.2-3.8,3.9-3.8c8.2,0.1,16.3,0.1,24.5,0c2.9,0,3.8,1.2,3.7,3.9C646.1,700,646.2,705,646.2,710z"/>
	<path class="st0" d="M660.3,691.2c10.1,0,19.6-0.1,29,0.1c0.9,0,2.6,2,2.7,3.1c0.2,10.3,0.2,20.7,0,31c0,1.1-2,3.1-3,3.1
		c-9.3,0.3-18.6,0.1-28.6,0.1c0-6.5,0-12.6,0-18.7C660.3,704,660.3,698,660.3,691.2z"/>
	<path class="st0" d="M384.5,638.2c11,0,21.1,0,32,0c0,9,0,17.7,0,26.5c0,10.9,0,10.9-11.1,10.9c-5.7,0-11.3,0.2-17-0.1
		c-1.3-0.1-3.7-1.6-3.7-2.6C384.4,661.5,384.5,650.1,384.5,638.2z"/>
	<path class="st0" d="M338.6,675.6c0-12.7,0-24.8,0-37.2c10.3,0,20.5,0,31.7,0c0,1.9,0,4,0,6c0,9,0.1,18-0.1,26.9
		c0,1.4-1.3,4.1-2.1,4.1C358.4,675.7,348.6,675.6,338.6,675.6z"/>
	<path class="st0" d="M292.5,638.2c10.9,0,21.1,0,31.6,0c0,12.3,0,24.4,0,37.4c-3.6,0-7.2,0-10.7,0c-5.8,0-11.6,0.2-17.4-0.1
		c-1.2-0.1-3.3-1.8-3.3-2.9C292.4,661.4,292.5,650.1,292.5,638.2z"/>
	<path class="st0" d="M246.5,638.2c10.9,0,21.1,0,32,0c0,6.5,0,12.7,0,19c0,4.7-0.1,9.3,0,14c0.1,3-0.7,4.6-4.2,4.5
		c-8-0.2-16,0.1-24-0.2c-1.3,0-3.7-1.6-3.7-2.5C246.4,661.6,246.5,650.1,246.5,638.2z"/>
	<path class="st0" d="M155.2,638.2c10.5,0,20.6,0,31.4,0c0,11.8,0.1,23.4-0.1,35c0,0.8-1.9,2.3-2.9,2.3c-9.3,0.2-18.6,0.1-28.3,0.1
		C155.2,663,155.2,650.8,155.2,638.2z"/>
	<path class="st0" d="M232.2,584.8c0,13,0,25.1,0,37.3c-10.5,0-20.7,0-31.6,0c0-11.8-0.1-23.2,0.1-34.6c0-0.9,1.7-2.6,2.7-2.6
		C212.8,584.7,222.3,584.8,232.2,584.8z"/>
	<path class="st0" d="M246.5,622.4c0-12.1-0.1-23.5,0.1-34.9c0-0.9,2.1-2.5,3.2-2.6c8.3-0.2,16.6-0.1,24.9-0.1c2.9,0,3.7,1.3,3.7,4
		c-0.1,10,0.1,20-0.1,29.9c0,1.3-1.3,3.6-2.1,3.6C266.5,622.5,256.8,622.4,246.5,622.4z"/>
	<path class="st0" d="M154.8,728.7c0-12.1-0.1-23.3,0.1-34.6c0-1,1.9-2.8,2.9-2.8c8.5-0.2,17-0.1,25.4-0.1c2.7,0,3.4,1.3,3.4,3.7
		c-0.1,10,0.1,20-0.2,29.9c0,1.3-1.9,3.7-3,3.7C174.2,728.8,164.9,728.7,154.8,728.7z"/>
	<path class="st0" d="M370.3,622.2c-11,0-21.2,0-31.9,0c0-11.8-0.1-23.2,0.1-34.7c0-0.9,2-2.5,3.2-2.6c8.5-0.2,17-0.2,25.5,0
		c1.1,0,3,2.1,3,3.2C370.4,599.3,370.3,610.5,370.3,622.2z"/>
	<path class="st0" d="M246.5,709.9c0-5,0.1-10,0-15c-0.1-2.8,1-3.9,3.8-3.9c8.2,0.1,16.3,0.1,24.5,0c2.8,0,3.9,1,3.8,3.8
		c-0.1,10-0.1,20,0,30c0,2.7-0.9,3.9-3.8,3.9c-8.2-0.1-16.3-0.1-24.5,0c-2.8,0-3.9-1.1-3.8-3.8C246.6,719.9,246.5,714.9,246.5,709.9
		z"/>
	<path class="st0" d="M554.3,622.2c-10.9,0-21.1,0-31.9,0c0-11.8-0.1-23.2,0.1-34.7c0-0.9,1.8-2.5,2.7-2.5c8.7-0.2,17.3-0.2,26,0
		c1.1,0,2.9,2.1,2.9,3.2C554.4,599.3,554.3,610.5,554.3,622.2z"/>
	<path class="st0" d="M155,776c-0.1-2.4-0.3-4.3-0.3-6.3c0-9.2,0-18.3,0-27.5c0-2.6,0.6-4,3.6-4c8.2,0.1,16.3,0.1,24.5,0
		c2.8,0,3.8,1.1,3.8,3.8c-0.1,10.2,0.1,20.3-0.2,30.5c0,1.2-1.9,3.2-3,3.2C174.2,776.2,164.8,776,155,776z"/>
	<path class="st0" d="M416.4,622.5c-10.2,0-19.7,0.1-29.1-0.1c-1,0-2.7-1.9-2.7-3c-0.2-10.3-0.2-20.6,0-30.9c0-1.2,2.1-3.5,3.3-3.5
		c8.3-0.3,16.6-0.3,24.9,0c1.2,0,3.4,1.8,3.4,2.9C416.5,599.1,416.4,610.4,416.4,622.5z"/>
	<path class="st0" d="M476.2,710.1c0-4.7,0.2-9.3-0.1-14c-0.2-3.5,0.8-5.2,4.7-5c7.7,0.2,15.3,0.2,23,0c3.1-0.1,4.5,0.9,4.5,4.2
		c-0.2,9.8-0.1,19.7,0,29.5c0,3.1-1.2,4-4.2,4c-7.8-0.1-15.7-0.2-23.5,0c-3.6,0.1-4.6-1.4-4.5-4.7
		C476.4,719.4,476.2,714.7,476.2,710.1z"/>
	<path class="st0" d="M508.2,603.5c0,5.2-0.1,10.3,0,15.5c0.1,2.6-0.9,3.6-3.5,3.6c-8.3-0.1-16.6-0.1-25,0c-2.9,0-3.7-1.2-3.7-3.9
		c0.1-10,0.1-20,0-29.9c0-2.7,0.8-4,3.7-3.9c8.1,0.1,16.3,0.1,24.5,0c3.2-0.1,4,1.5,3.9,4.3C508.2,593.8,508.2,598.7,508.2,603.5z"
		/>
	<path class="st0" d="M384.4,709.7c0-4.8,0.1-9.7,0-14.5c-0.1-2.9,0.8-4.2,4-4.2c8,0.1,16,0.1,24,0c3,0,4.2,1,4.1,4.1
		c-0.1,9.8-0.1,19.6,0,29.5c0,2.9-0.9,4.2-4,4.2c-8-0.1-16-0.1-24,0c-3,0.1-4.2-1-4.1-4.1C384.5,719.7,384.4,714.7,384.4,709.7z"/>
	<path class="st0" d="M600.1,622.2c-10.9,0-21.2,0-31.9,0c0-11.8-0.1-23.2,0.1-34.6c0-0.9,2-2.6,3.1-2.6c8.5-0.2,17-0.2,25.5,0
		c1.1,0,3.1,2,3.1,3.2C600.2,599.3,600.1,610.4,600.1,622.2z"/>
	<path class="st0" d="M155.2,584.8c9.6,0,18.9-0.1,28.2,0.1c1.1,0,3,2.1,3.1,3.2c0.2,11.1,0.1,22.2,0.1,33.8c-10.6,0-20.7,0-31.4,0
		C155.2,609.9,155.2,597.6,155.2,584.8z"/>
	<path class="st0" d="M462.2,622.2c-10.7,0-20.9,0-31.8,0c0-11.8-0.1-23.4,0.1-35c0-0.8,1.9-2.3,2.9-2.3c8.5-0.2,17-0.2,25.4,0
		c1.1,0,3.1,1.7,3.1,2.6C462.3,598.9,462.2,610.4,462.2,622.2z"/>
	<path class="st0" d="M660.5,584.8c9.8,0,19.1-0.1,28.4,0.1c1.1,0,3,2.1,3.1,3.2c0.2,11.1,0.1,22.3,0.1,33.9c-10.7,0-21,0-31.6,0
		C660.5,609.8,660.5,597.7,660.5,584.8z"/>
	<path class="st0" d="M646.2,622.5c-10.2,0-19.6,0.1-29.1-0.1c-1,0-2.8-1.9-2.8-2.9c-0.2-10.5-0.2-21,0-31.5c0-1.1,2.1-3,3.3-3
		c8.5-0.3,17-0.2,25.5,0c1.1,0,3,1.8,3,2.8C646.2,599,646.2,610.3,646.2,622.5z"/>
	<path class="st0" d="M324.4,622.4c-10,0-19.6,0.1-29.3-0.1c-0.9,0-2.5-2-2.5-3.1c-0.2-10.3-0.2-20.7,0-31c0-1.1,1.9-3.2,3-3.2
		c8.5-0.3,17-0.3,25.5,0c1.1,0,3.1,1.7,3.1,2.6C324.5,598.9,324.4,610.4,324.4,622.4z"/>
	<path class="st0" d="M737.7,728.7c-10.1,0-19.6,0.1-29-0.1c-0.9,0-2.5-1.8-2.5-2.8c-0.2-10.5-0.2-21,0-31.5c0-1.1,2.1-3,3.3-3
		c8.3-0.3,16.7-0.2,25,0c1.1,0,3.1,1.3,3.1,2.1C737.8,704.9,737.7,716.6,737.7,728.7z"/>
	<path class="st0" d="M706,638.2c10.8,0,20.8,0,31.8,0c0,2.8,0,5.5,0,8.3c0,8.3-0.1,16.6,0,24.9c0.1,3.2-1,4.4-4.3,4.3
		c-7.8-0.2-15.6-0.1-23.4,0c-2.5,0-4.1-0.4-4.1-3.5C706.1,661.1,706,649.9,706,638.2z"/>
	<path class="st0" d="M737.8,757.7c0,4.8-0.1,9.6,0,14.5c0.1,2.6-0.7,4-3.6,3.9c-8.1-0.1-16.3-0.1-24.4,0c-2.8,0-3.8-1.1-3.7-3.9
		c0.1-10,0.1-20,0-29.9c0-2.7,0.9-4,3.7-3.9c8.1,0.1,16.3,0.1,24.4,0c3,0,3.7,1.3,3.7,3.9C737.7,747.4,737.8,752.6,737.8,757.7z"/>
	<path class="st0" d="M737.8,622.1c-10.7,0-21,0-31.7,0c0-11.8-0.1-23.3,0.1-34.7c0-0.9,2.1-2.5,3.3-2.5c8.3-0.2,16.6-0.2,25,0
		c1.1,0,3.1,1.7,3.1,2.6C737.8,598.9,737.8,610.4,737.8,622.1z"/>
</g>
</svg>
