<?xml version="1.0" encoding="utf-8"?>
<!-- Generator: Adobe Illustrator 21.1.0, SVG Export Plug-In . SVG Version: 6.00 Build 0)  -->
<svg version="1.1" id="Layer_1" xmlns="http://www.w3.org/2000/svg" xmlns:xlink="http://www.w3.org/1999/xlink" x="0px" y="0px"
	 width="3629.3px" height="724.1px" viewBox="0 0 3629.3 724.1" style="enable-background:new 0 0 3629.3 724.1;"
	 xml:space="preserve">
<style type="text/css">
	.st0{fill:#FFFFFF;}
	.st1{fill:none;}
	.st2{fill:#4C4C4C;}
	.st3{font-family:'Interstate-Regular';}
	.st4{font-size:76px;}
	.st5{fill:none;stroke:#4C4C4C;stroke-width:6;stroke-miterlimit:10;}
	.st6{fill:#FFFFFF;stroke:#0088CE;stroke-width:6;stroke-miterlimit:10;}
	.st7{fill:#0088CE;stroke:#FFFFFF;stroke-miterlimit:10;}
</style>
<rect class="st0" width="3629.3" height="724.1"/>
<rect x="1053.6" y="66.3" class="st1" width="438" height="78"/>
<text transform="matrix(1 0 0 1 1053.587 121.7412)" class="st2 st3 st4">stdout</text>
<rect x="2121.6" y="66.3" class="st1" width="438" height="78"/>
<text transform="matrix(1 0 0 1 2121.5872 121.7412)" class="st2 st3 st4">stdin</text>
<g>
	<g>
		<line class="st5" x1="1007.6" y1="152.3" x2="1483.5" y2="152.3"/>
		<g>
			<polygon class="st2" points="1474.8,182.2 1526.6,152.3 1474.8,122.4 			"/>
		</g>
	</g>
</g>
<g>
	<g>
		<line class="st5" x1="2027.6" y1="144.3" x2="2537.5" y2="144.3"/>
		<g>
			<polygon class="st2" points="2528.8,174.2 2580.6,144.3 2528.8,114.4 			"/>
		</g>
	</g>
</g>
<path class="st2" d="M2031.6,200.3h-467c-52-23-48-94.3,0-112.7l475-2.3C1979.5,80.5,1969.6,188,2031.6,200.3z"/>
<ellipse class="st5" cx="2031.1" cy="142.8" rx="41.5" ry="55.2"/>
<path class="st6" d="M861.6,673.1H185.7c-38.1,0-68.9-25.4-68.9-56.7V99.3c0-31.3,30.9-56.7,68.9-56.7h675.9
	c38.1,0,68.9,25.4,68.9,56.7v517.1C930.5,647.7,899.7,673.1,861.6,673.1z"/>
<circle class="st7" cx="116.8" cy="261.1" r="72"/>
<circle class="st7" cx="928.7" cy="154.1" r="72"/>
<circle class="st7" cx="930.5" cy="559.2" r="72"/>
<g>
	<path class="st0" d="M116.2,288.2c-13.6,0-20.6-11.1-20.6-27s7.2-27.1,20.8-27.1s20.6,11.1,20.6,27S129.8,288.2,116.2,288.2z
		 M116.2,241.7c-9.1,0-12.7,8.3-12.7,19.3s3.7,19.5,12.8,19.5c9.2,0,12.7-8.3,12.7-19.3C129,250.2,125.4,241.7,116.2,241.7z"/>
</g>
<g>
	<path class="st0" d="M926.1,173.8v-40.2h-9.3v-5.5c5.4-0.4,9.8-2.2,10.8-6.8h6.4v52.5H926.1z"/>
</g>
<g>
	<path class="st0" d="M909.9,578.9c0.5-15.4,9.8-22.2,20.2-28.3c7.1-4.2,8.9-6.5,8.9-10.2c0-4.2-2.8-6.9-10-6.9
		c-4.4,0-9.3,2-12.7,5.2l-5-6c4.7-4.4,11.4-7.1,17.9-7.1c10.9,0,17.8,4.6,17.8,14.3c0,8.1-4,11.5-13.2,17
		c-10,5.9-12.9,9.3-14.1,14.3h27.8v7.6L909.9,578.9L909.9,578.9L909.9,578.9z"/>
</g>
<g>
	<rect x="251.7" y="386.8" class="st1" width="544" height="78"/>
	<path class="st2" d="M373.5,423.4h-11.7v18.8h-10.6V389h23.3c10,0,18.3,5.5,18.3,16.9C392.7,418.2,384.5,423.4,373.5,423.4z
		 M374.1,399.3h-12.2V413h12.4c4.9,0,7.6-2.3,7.6-6.9C381.8,401.5,378.8,399.3,374.1,399.3z"/>
	<path class="st2" d="M433.7,442.2l-9.5-19.2h-10.7v19.2h-10.6V389h24.8c10,0,18.3,5.5,18.3,16.9c0,8-3.4,13-10.2,15.7l10.2,20.7
		L433.7,442.2L433.7,442.2z M427.4,399.3h-13.9V413h13.9c4.9,0,7.6-2.3,7.6-6.9C435,401.3,432.1,399.3,427.4,399.3z"/>
	<path class="st2" d="M477.4,443c-14.5,0-23.1-11.2-23.1-27.4s8.6-27.4,23.1-27.4s23.1,11.2,23.1,27.4S491.9,443,477.4,443z
		 M477.4,398.7c-8.6,0-12.2,7.4-12.2,16.9s3.6,16.9,12.2,16.9s12.2-7.4,12.2-16.9S486,398.7,477.4,398.7z"/>
	<path class="st2" d="M541.8,404.5c-1.9-3.6-4.9-5.8-9.7-5.8c-8,0-12.5,7-12.5,16.9c0,9.6,4.6,16.9,12.6,16.9
		c4.8,0,7.6-2.1,10.4-6.8l9,5.3c-3.6,7.5-10,12-19.7,12c-13.9,0-23.3-10.6-23.3-27.4c0-16.2,9.7-27.4,23.6-27.4
		c10,0,16.1,4.9,19.5,11.8L541.8,404.5z"/>
	<path class="st2" d="M562.3,442.2V389h36.9v10.4h-26.3v9.2h15.3v10.3h-15.3v12.8h27.4v10.4L562.3,442.2L562.3,442.2z"/>
	<path class="st2" d="M628.7,443c-8.9,0-16.6-3.7-20.7-9.7l7.7-6.8c3.7,4.3,8.5,6.1,13.6,6.1c6.3,0,9.3-1.7,9.3-5.8
		c0-3.4-1.8-4.9-11.9-7.2c-9.8-2.3-16.6-5.4-16.6-15.9c0-9.7,8.5-15.6,19-15.6c8.3,0,14.4,3.1,19.4,8.4l-7.7,7.4
		c-3.4-3.5-7.2-5.5-12.1-5.5c-5.7,0-7.6,2.4-7.6,4.8c0,3.3,2.3,4.4,10.7,6.4s17.8,4.9,17.8,16.4C649.6,436.2,643.2,443,628.7,443z"
		/>
	<path class="st2" d="M677.8,443c-8.9,0-16.6-3.7-20.7-9.7l7.7-6.8c3.7,4.3,8.5,6.1,13.6,6.1c6.3,0,9.3-1.7,9.3-5.8
		c0-3.4-1.8-4.9-11.9-7.2c-9.8-2.3-16.6-5.4-16.6-15.9c0-9.7,8.5-15.6,19-15.6c8.3,0,14.4,3.1,19.4,8.4l-7.7,7.4
		c-3.4-3.5-7.2-5.5-12.1-5.5c-5.7,0-7.6,2.4-7.6,4.8c0,3.3,2.3,4.4,10.7,6.4s17.8,4.9,17.8,16.4C698.7,436.2,692.3,443,677.8,443z"
		/>
</g>
<path class="st6" d="M3443.6,653.6h-675.9c-38.1,0-68.9-24.6-68.9-54.9V97.6c0-30.4,30.9-54.9,68.9-54.9h675.9
	c38.1,0,68.9,24.6,68.9,54.9v501.1C3512.5,629,3481.7,653.6,3443.6,653.6z"/>
<circle class="st7" cx="2698.8" cy="157.1" r="72"/>
<circle class="st7" cx="3510.7" cy="154.1" r="72"/>
<circle class="st7" cx="3512.5" cy="559.2" r="72"/>
<g>
	<path class="st0" d="M2698.2,184.2c-13.6,0-20.6-11.1-20.6-27s7.2-27.1,20.8-27.1s20.6,11.1,20.6,27S2711.8,184.2,2698.2,184.2z
		 M2698.2,137.7c-9.1,0-12.7,8.3-12.7,19.3s3.7,19.5,12.8,19.5c9.2,0,12.7-8.3,12.7-19.3S2707.4,137.7,2698.2,137.7z"/>
</g>
<g>
	<path class="st0" d="M3491.9,578.9c0.5-15.4,9.8-22.2,20.2-28.3c7.1-4.2,8.9-6.5,8.9-10.2c0-4.2-2.8-6.9-10-6.9
		c-4.4,0-9.3,2-12.7,5.2l-5-6c4.7-4.4,11.4-7.1,17.9-7.1c10.9,0,17.8,4.6,17.8,14.3c0,8.1-4,11.5-13.2,17
		c-10,5.9-12.9,9.3-14.1,14.3h27.8v7.6L3491.9,578.9L3491.9,578.9L3491.9,578.9z"/>
</g>
<g>
	<rect x="2833.7" y="386.8" class="st1" width="544" height="78"/>
	<path class="st2" d="M2955.5,423.4h-11.7v18.8h-10.6V389h23.3c10,0,18.3,5.5,18.3,16.9C2974.7,418.2,2966.5,423.4,2955.5,423.4z
		 M2956.1,399.3h-12.2V413h12.4c4.9,0,7.6-2.3,7.6-6.9C2963.8,401.5,2960.8,399.3,2956.1,399.3z"/>
	<path class="st2" d="M3015.7,442.2l-9.5-19.2h-10.7v19.2h-10.6V389h24.8c10,0,18.3,5.5,18.3,16.9c0,8-3.4,13-10.2,15.7l10.2,20.7
		L3015.7,442.2L3015.7,442.2z M3009.4,399.3h-13.9V413h13.9c4.9,0,7.6-2.3,7.6-6.9C3017,401.3,3014.1,399.3,3009.4,399.3z"/>
	<path class="st2" d="M3059.4,443c-14.5,0-23.1-11.2-23.1-27.4s8.6-27.4,23.1-27.4s23.1,11.2,23.1,27.4S3073.9,443,3059.4,443z
		 M3059.4,398.7c-8.6,0-12.2,7.4-12.2,16.9s3.6,16.9,12.2,16.9c8.6,0,12.2-7.4,12.2-16.9S3068,398.7,3059.4,398.7z"/>
	<path class="st2" d="M3123.8,404.5c-1.9-3.6-4.9-5.8-9.7-5.8c-8,0-12.5,7-12.5,16.9c0,9.6,4.6,16.9,12.6,16.9
		c4.8,0,7.6-2.1,10.4-6.8l9,5.3c-3.6,7.5-10,12-19.7,12c-13.9,0-23.3-10.6-23.3-27.4c0-16.2,9.7-27.4,23.6-27.4
		c10,0,16.1,4.9,19.5,11.8L3123.8,404.5z"/>
	<path class="st2" d="M3144.3,442.2V389h36.9v10.4h-26.3v9.2h15.3v10.3h-15.3v12.8h27.4v10.4L3144.3,442.2L3144.3,442.2z"/>
	<path class="st2" d="M3210.7,443c-8.9,0-16.6-3.7-20.7-9.7l7.7-6.8c3.7,4.3,8.5,6.1,13.6,6.1c6.3,0,9.3-1.7,9.3-5.8
		c0-3.4-1.8-4.9-11.9-7.2c-9.8-2.3-16.6-5.4-16.6-15.9c0-9.7,8.5-15.6,19-15.6c8.3,0,14.4,3.1,19.4,8.4l-7.7,7.4
		c-3.4-3.5-7.2-5.5-12.1-5.5c-5.7,0-7.6,2.4-7.6,4.8c0,3.3,2.3,4.4,10.7,6.4s17.8,4.9,17.8,16.4C3231.6,436.2,3225.2,443,3210.7,443
		z"/>
	<path class="st2" d="M3259.8,443c-8.9,0-16.6-3.7-20.7-9.7l7.7-6.8c3.7,4.3,8.5,6.1,13.6,6.1c6.3,0,9.3-1.7,9.3-5.8
		c0-3.4-1.8-4.9-11.9-7.2c-9.8-2.3-16.6-5.4-16.6-15.9c0-9.7,8.5-15.6,19-15.6c8.3,0,14.4,3.1,19.4,8.4l-7.7,7.4
		c-3.4-3.5-7.2-5.5-12.1-5.5c-5.7,0-7.6,2.4-7.6,4.8c0,3.3,2.3,4.4,10.7,6.4s17.8,4.9,17.8,16.4C3280.7,436.2,3274.3,443,3259.8,443
		z"/>
</g>
<g>
	<path class="st0" d="M3511.1,173.8v-40.2h-9.3v-5.5c5.4-0.4,9.8-2.2,10.8-6.8h6.4v52.5H3511.1z"/>
</g>
</svg>
