<?xml version="1.0" encoding="utf-8"?>
<!-- Generator: Adobe Illustrator 21.1.0, SVG Export Plug-In . SVG Version: 6.00 Build 0)  -->
<svg version="1.1" id="Layer_1" xmlns="http://www.w3.org/2000/svg" xmlns:xlink="http://www.w3.org/1999/xlink" x="0px" y="0px"
	 width="3629.3px" height="903.4px" viewBox="0 0 3629.3 903.4" style="enable-background:new 0 0 3629.3 903.4;"
	 xml:space="preserve">
<style type="text/css">
	.st0{fill:#FFFFFF;}
	.st1{enable-background:new    ;}
	.st2{fill:none;}
	.st3{fill:#4C4C4C;}
	.st4{fill:none;stroke:#4C4C4C;stroke-width:6;stroke-miterlimit:10;}
	.st5{fill:none;stroke:#FFFFFF;stroke-miterlimit:10;}
	.st6{fill:#FFFFFF;stroke:#0088CE;stroke-width:6;stroke-miterlimit:10;}
	.st7{fill:#0088CE;stroke:#FFFFFF;stroke-miterlimit:10;}
</style>
<rect class="st0" width="3629.3" height="903.4"/>
<g class="st1">
	<path class="st0" d="M950.2,167v-40.2h-9.3v-5.5c5.4-0.4,9.8-2.2,10.8-6.8h6.4V167H950.2z"/>
</g>
<rect x="1066.3" y="68.8" class="st2" width="438" height="78"/>
<g class="st1">
	<path class="st3" d="M1085,125.1c-5.4,0-11.2-2.1-15.3-5.1l3.6-5.9c3.7,2.6,7.9,4,11.6,4c4.9,0,7.3-1.6,7.3-4.4
		c0-3-3.5-4.5-9.3-6.7c-8.6-3.3-11.7-6.2-11.7-12.5c0-7.1,5.6-10.9,13.6-10.9c5,0,10,1.8,13.5,4.4l-3.4,6c-3.3-2.3-6.5-3.4-10.3-3.4
		s-5.5,1.5-5.5,3.6c0,2,1.4,3.4,7.4,5.8c8.9,3.4,13.5,5.9,13.5,13.4C1099.9,122.1,1092.8,125.1,1085,125.1z"/>
	<path class="st3" d="M1128.3,123.2c-1.9,1.1-4.6,1.8-7.7,1.8c-5.5,0-9-3.4-9-10.6v-23h-5.7v-7.1h5.7V72.9l7.7-4.1v15.5h9.9v7.1
		h-9.9v21.7c0,3.7,1.2,4.8,4.1,4.8c2.1,0,4.3-0.8,5.8-1.6L1128.3,123.2z"/>
	<path class="st3" d="M1162,124.2v-3.8c-2.9,2.7-6.2,4.6-10.4,4.6c-8.6,0-15.4-6.2-15.4-21.4c0-13.7,7.4-20.1,15.7-20.1
		c4,0,7.8,2.1,10,4.6V72.8l7.8-4v55.4C1169.7,124.2,1162,124.2,1162,124.2z M1162,95.9c-1.7-2.4-5.4-5.2-9.3-5.2
		c-5.6,0-8.7,4.3-8.7,12.7c0,10,3.2,14.4,9,14.4c3.7,0,7-2.5,9-5.1V95.9z"/>
	<path class="st3" d="M1196.9,125.1c-10,0-17.6-8.3-17.6-20.7c0-13.1,7.8-20.8,17.8-20.8c10.2,0,17.8,8.1,17.8,20.6
		C1214.9,117.3,1207.2,125.1,1196.9,125.1z M1196.9,90.9c-5.9,0-9.6,5.2-9.6,13.1c0,8.7,4,13.5,10,13.5c5.9,0,9.8-6,9.8-13.3
		C1207,96.2,1203.2,90.9,1196.9,90.9z"/>
	<path class="st3" d="M1248.5,124.2v-3.8c-2,2.9-5.9,4.6-10,4.6c-9.3,0-14.2-6.1-14.2-17.9V84.3h7.8v22.6c0,8.1,3,10.9,8.2,10.9
		s8.2-3.7,8.2-10.2V84.3h7.8v39.9C1256.3,124.2,1248.5,124.2,1248.5,124.2z"/>
	<path class="st3" d="M1287,123.2c-1.9,1.1-4.6,1.8-7.7,1.8c-5.5,0-9-3.4-9-10.6v-23h-5.7v-7.1h5.7V72.9l7.7-4.1v15.5h9.9v7.1h-9.9
		v21.7c0,3.7,1.2,4.8,4.1,4.8c2.1,0,4.3-0.8,5.8-1.6L1287,123.2z"/>
</g>
<rect x="2134.3" y="68.8" class="st2" width="438" height="78"/>
<g class="st1">
	<path class="st3" d="M2153,125.1c-5.4,0-11.2-2.1-15.3-5.1l3.6-5.9c3.7,2.6,7.9,4,11.6,4c4.9,0,7.3-1.6,7.3-4.4
		c0-3-3.5-4.5-9.3-6.7c-8.6-3.3-11.7-6.2-11.7-12.5c0-7.1,5.6-10.9,13.6-10.9c5,0,10,1.8,13.5,4.4l-3.4,6c-3.3-2.3-6.5-3.4-10.3-3.4
		s-5.5,1.5-5.5,3.6c0,2,1.4,3.4,7.4,5.8c8.9,3.4,13.5,5.9,13.5,13.4C2167.9,122.1,2160.8,125.1,2153,125.1z"/>
	<path class="st3" d="M2196.3,123.2c-1.9,1.1-4.6,1.8-7.7,1.8c-5.5,0-9-3.4-9-10.6v-23h-5.7v-7.1h5.7V72.9l7.7-4.1v15.5h9.9v7.1
		h-9.9v21.7c0,3.7,1.2,4.8,4.1,4.8c2.1,0,4.3-0.8,5.8-1.6L2196.3,123.2z"/>
	<path class="st3" d="M2230,124.2v-3.8c-2.9,2.7-6.2,4.6-10.4,4.6c-8.6,0-15.4-6.2-15.4-21.4c0-13.7,7.4-20.1,15.7-20.1
		c4,0,7.8,2.1,10,4.6V72.8l7.8-4v55.4C2237.7,124.2,2230,124.2,2230,124.2z M2230,95.9c-1.7-2.4-5.4-5.2-9.3-5.2
		c-5.6,0-8.7,4.3-8.7,12.7c0,10,3.2,14.4,9,14.4c3.7,0,7-2.5,9-5.1V95.9z"/>
	<path class="st3" d="M2253.6,79.1c-2.8,0-5.1-2.3-5.1-5c0-2.8,2.3-5.1,5.1-5.1c2.7,0,5,2.3,5,5.1
		C2258.6,76.9,2256.3,79.1,2253.6,79.1z M2249.7,124.2V84.3h7.8v39.9C2257.5,124.2,2249.7,124.2,2249.7,124.2z"/>
	<path class="st3" d="M2293.7,124.2v-22.6c0-8.1-3-10.9-8.2-10.9s-8.2,3.7-8.2,10.2v23.3h-7.8V84.3h7.8v3.8c2-2.9,5.9-4.6,10-4.6
		c9.3,0,14.2,6.1,14.2,17.9v22.9h-7.8V124.2z"/>
</g>
<rect x="1771.3" y="691.2" class="st2" width="438" height="78"/>
<g class="st1">
	<path class="st3" d="M1792.7,747.5c-10,0-17.6-8.3-17.6-20.7c0-13.1,7.8-20.8,17.8-20.8c10.2,0,17.8,8.1,17.8,20.6
		C1810.7,739.8,1803,747.5,1792.7,747.5z M1792.6,713.4c-5.9,0-9.6,5.2-9.6,13.1c0,8.7,4,13.5,10,13.5c5.9,0,9.8-6,9.8-13.3
		C1802.8,718.6,1798.9,713.4,1792.6,713.4z"/>
	<path class="st3" d="M1842,715c-1.7-0.9-3.4-1.4-6-1.4c-4.9,0-7.8,3.5-7.8,10.3v22.8h-7.8v-39.9h7.8v3.8c1.8-2.7,5.2-4.6,9.1-4.6
		c3.2,0,5.2,0.6,6.8,1.7L1842,715z"/>
</g>
<rect x="1833.3" y="456.8" class="st2" width="438" height="78"/>
<g class="st1">
	<path class="st3" d="M1858.1,511.2c-1.9,1.1-4.6,1.8-7.7,1.8c-5.5,0-9-3.4-9-10.6v-23h-5.7v-7.1h5.7v-11.4l7.7-4.1v15.5h9.9v7.1
		h-9.9v21.7c0,3.7,1.2,4.8,4.1,4.8c2.1,0,4.3-0.8,5.8-1.6L1858.1,511.2z"/>
	<path class="st3" d="M1900.3,495h-26.4c0.8,7.7,5.2,10.9,10,10.9c3.3,0,6-1.2,8.7-3.2l4.6,5c-3.5,3.3-7.7,5.2-13.8,5.2
		c-9.3,0-17.3-7.5-17.3-20.7c0-13.5,7.1-20.8,17.5-20.8c11.3,0,16.8,9.2,16.8,20C1900.5,492.9,1900.4,494.2,1900.3,495z
		 M1883.2,478.5c-5.2,0-8.4,3.6-9.1,10h18.5C1892.3,483.1,1889.7,478.5,1883.2,478.5z"/>
	<path class="st3" d="M1942.4,495H1916c0.8,7.7,5.2,10.9,10,10.9c3.3,0,6-1.2,8.7-3.2l4.6,5c-3.5,3.3-7.7,5.2-13.8,5.2
		c-9.3,0-17.3-7.5-17.3-20.7c0-13.5,7.1-20.8,17.5-20.8c11.3,0,16.8,9.2,16.8,20C1942.6,492.9,1942.5,494.2,1942.4,495z
		 M1925.3,478.5c-5.2,0-8.4,3.6-9.1,10h18.5C1934.4,483.1,1931.8,478.5,1925.3,478.5z"/>
</g>
<g>
	<g>
		<line class="st4" x1="1020.3" y1="154.8" x2="1496.2" y2="154.8"/>
		<g>
			<polygon class="st3" points="1487.5,184.8 1539.3,154.8 1487.5,124.9 			"/>
		</g>
	</g>
</g>
<g>
	<g>
		<line class="st4" x1="2040.3" y1="146.8" x2="2550.2" y2="146.8"/>
		<g>
			<polygon class="st3" points="2541.5,176.8 2593.3,146.8 2541.5,116.9 			"/>
		</g>
	</g>
</g>
<g>
	<g>
		<line class="st4" x1="1796.3" y1="338.4" x2="1796.3" y2="540.1"/>
		<g>
			<polygon class="st3" points="1766.4,531.3 1796.3,583.1 1826.2,531.3 			"/>
		</g>
	</g>
</g>
<path class="st3" d="M2044.3,202.8h-467c-52-23-48-94.3,0-112.7l475-2.3C1992.2,83.1,1982.3,190.6,2044.3,202.8z"/>
<ellipse class="st4" cx="2043.8" cy="145.3" rx="41.5" ry="55.2"/>
<g>
	<path class="st3" d="M1738.2,347.3V159.9c23-31.6,94.3-29.8,112.7,0l2.3,190.6C1858,326.4,1750.5,322.4,1738.2,347.3z"/>
	<ellipse class="st4" cx="1795.7" cy="345.3" rx="55.2" ry="25.4"/>
</g>
<path class="st5" d="M1738.3,202.8v-29c0-49.3,113-49.3,113,0v29"/>
<g>
	<g>
		<g>
			<path class="st3" d="M1681.3,594.4c-0.7-0.7-1.7-1.1-2.7-1.1H1540c-2.1,0-3.8,1.7-3.8,3.8v251.5c0,2.1,1.7,3.8,3.8,3.8h183.4
				c2.1,0,3.8-1.7,3.8-3.8V643.1c0-1-0.4-1.9-1.1-2.6L1681.3,594.4z M1682.4,606.3l34.1,35.1h-34.1V606.3z M1543.8,600.8h131.1v42.8
				c0,0.3,0.1,0.5,0.2,0.8c-0.1,0.3-0.2,0.5-0.2,0.8c0,2.1,1.7,3.8,3.8,3.8h41v195.7h-175.8L1543.8,600.8L1543.8,600.8z"/>
		</g>
	</g>
	<g>
		<path class="st3" d="M1690,683h-118.9c-1.6,0-2.8-1.3-2.8-2.8s1.3-2.8,2.8-2.8H1690c1.6,0,2.8,1.3,2.8,2.8S1691.6,683,1690,683z"
			/>
	</g>
	<g>
		<path class="st3" d="M1665.8,712.3h-94.6c-1.6,0-2.8-1.3-2.8-2.8s1.3-2.8,2.8-2.8h94.6c1.6,0,2.8,1.3,2.8,2.8
			C1668.7,711,1667.4,712.3,1665.8,712.3z"/>
	</g>
	<g>
		<path class="st3" d="M1690,741.5h-118.9c-1.6,0-2.8-1.3-2.8-2.8s1.3-2.8,2.8-2.8H1690c1.6,0,2.8,1.3,2.8,2.8
			S1691.6,741.5,1690,741.5z"/>
	</g>
	<g>
		<path class="st3" d="M1665.8,770.7h-94.6c-1.6,0-2.8-1.3-2.8-2.8s1.3-2.8,2.8-2.8h94.6c1.6,0,2.8,1.3,2.8,2.8
			C1668.7,769.5,1667.4,770.7,1665.8,770.7z"/>
	</g>
	<g>
		<path class="st3" d="M1690,800h-118.9c-1.6,0-2.8-1.3-2.8-2.8s1.3-2.8,2.8-2.8H1690c1.6,0,2.8,1.3,2.8,2.8S1691.6,800,1690,800z"
			/>
	</g>
</g>
<g>
	<g>
		<path class="st3" d="M2074.1,718.8c0.5,0,1-0.1,1.4-0.4l72-48.3c1.1-0.8,1.4-2.3,0.7-3.5c-0.8-1.1-2.3-1.4-3.5-0.7l-72,48.3
			c-1.1,0.8-1.4,2.3-0.7,3.5C2072.5,718.4,2073.3,718.8,2074.1,718.8z"/>
		<path class="st3" d="M2052.7,752.1c0.5,0,1-0.1,1.4-0.4l57-38.5c1.1-0.8,1.4-2.3,0.7-3.5c-0.8-1.1-2.3-1.4-3.5-0.7l-57,38.5
			c-1.1,0.8-1.4,2.3-0.7,3.5C2051.1,751.7,2051.9,752.1,2052.7,752.1z"/>
		<path class="st3" d="M1929.3,792.3h246.3c6.9,0,12.5-6,12.5-13.3V636.1c0-7.4-5.6-13.3-12.5-13.3h-246.3c-6.9,0-12.5,6-12.5,13.3
			v142.8C1916.9,786.3,1922.5,792.3,1929.3,792.3z M1924.4,636.1c0-3.2,2.2-5.8,5-5.8h246.3c2.7,0,5,2.6,5,5.8v142.8
			c0,3.2-2.2,5.8-5,5.8h-246.3c-2.7,0-5-2.6-5-5.8L1924.4,636.1L1924.4,636.1z"/>
		<g>
			<path class="st3" d="M2189,601.2h-273.2c-11.2,0-20.2,9.1-20.2,20.2v169.7c0,11.2,9.1,20.2,20.2,20.2h88.8v16.9h-27.3
				c-2.8,0-5,2.2-5,5s2.2,5,5,5h27.3h95.6h27.3c2.8,0,5-2.2,5-5s-2.2-5-5-5h-27.3v-16.9h88.8c11.2,0,20.2-9.1,20.2-20.2V621.5
				C2209.3,610.3,2200.2,601.2,2189,601.2z M2014.7,828.3v-15h75.6v15H2014.7z M2199.3,791.7c0,5.6-4.6,10.2-10.2,10.2h-273.2
				c-5.6,0-10.2-4.6-10.2-10.2V621.5c0-5.6,4.6-10.2,10.2-10.2H2189c5.6,0,10.2,4.6,10.2,10.2v170.2H2199.3z"/>
		</g>
	</g>
</g>
<path class="st6" d="M851.3,646.8H175.4c-38.1,0-68.9-24.9-68.9-55.5V84.6c0-30.7,30.9-55.5,68.9-55.5h675.9
	c38.1,0,68.9,24.9,68.9,55.5v506.6C920.2,621.9,889.4,646.8,851.3,646.8z"/>
<path class="st7" d="M428.6,775.7c-1.5,1.6-2.5,2.6-3.5,3.7c-0.8-1.1-2.4-2.2-2.4-3.2c0-1.3,1.4-2.6,2.1-3.9
	C425.9,773.2,427,774.2,428.6,775.7z"/>
<circle class="st7" cx="106.5" cy="247.6" r="72"/>
<circle class="st7" cx="918.4" cy="140.6" r="72"/>
<circle class="st7" cx="920.2" cy="546.5" r="72"/>
<g>
	<path class="st0" d="M105.9,274.7c-13.6,0-20.6-11.1-20.6-27s7.2-27.1,20.8-27.1s20.6,11.1,20.6,27
		C126.7,263.5,119.5,274.7,105.9,274.7z M105.9,228.2c-9.1,0-12.7,8.3-12.7,19.3S96.9,267,106,267c9.2,0,12.7-8.3,12.7-19.3
		C118.7,236.7,115.1,228.2,105.9,228.2z"/>
</g>
<g>
	<path class="st0" d="M915.8,160.3v-40.2h-9.3v-5.5c5.4-0.4,9.8-2.2,10.8-6.8h6.4v52.5H915.8z"/>
</g>
<g>
	<path class="st0" d="M899.6,566.2c0.5-15.4,9.8-22.2,20.2-28.3c7.1-4.2,8.9-6.5,8.9-10.2c0-4.2-2.8-6.9-10-6.9
		c-4.4,0-9.3,2-12.7,5.2l-5-6c4.7-4.4,11.4-7.1,17.9-7.1c10.9,0,17.8,4.6,17.8,14.3c0,8.1-4,11.5-13.2,17
		c-10,5.9-12.9,9.3-14.1,14.3h27.8v7.6L899.6,566.2L899.6,566.2L899.6,566.2z"/>
</g>
<g>
	<rect x="241.4" y="298.9" class="st2" width="544" height="78"/>
	<path class="st3" d="M363.2,335.5h-11.7v18.8h-10.6v-53.2h23.3c10,0,18.3,5.5,18.3,16.9C382.4,330.4,374.2,335.5,363.2,335.5z
		 M363.8,311.4h-12.2v13.7H364c4.9,0,7.6-2.3,7.6-6.9C371.5,313.6,368.5,311.4,363.8,311.4z"/>
	<path class="st3" d="M423.4,354.4l-9.5-19.2h-10.7v19.2h-10.6v-53.2h24.8c10,0,18.3,5.5,18.3,16.9c0,8-3.4,13-10.2,15.7l10.2,20.7
		L423.4,354.4L423.4,354.4z M417.1,311.4h-13.9v13.7h13.9c4.9,0,7.6-2.3,7.6-6.9C424.7,313.4,421.8,311.4,417.1,311.4z"/>
	<path class="st3" d="M467.1,355.1c-14.5,0-23.1-11.2-23.1-27.4s8.6-27.4,23.1-27.4s23.1,11.2,23.1,27.4S481.6,355.1,467.1,355.1z
		 M467.1,310.9c-8.6,0-12.2,7.4-12.2,16.9s3.6,16.9,12.2,16.9s12.2-7.4,12.2-16.9S475.7,310.9,467.1,310.9z"/>
	<path class="st3" d="M531.5,316.6c-1.9-3.6-4.9-5.8-9.7-5.8c-8,0-12.5,7-12.5,16.9c0,9.6,4.6,16.9,12.6,16.9
		c4.8,0,7.6-2.1,10.4-6.8l9,5.3c-3.6,7.5-10,12-19.7,12c-13.9,0-23.3-10.6-23.3-27.4c0-16.2,9.7-27.4,23.6-27.4
		c10,0,16.1,4.9,19.5,11.8L531.5,316.6z"/>
	<path class="st3" d="M552,354.4v-53.2h36.9v10.4h-26.3v9.2h15.3V331h-15.3v12.8H590v10.4L552,354.4L552,354.4z"/>
	<path class="st3" d="M618.4,355.1c-8.9,0-16.6-3.7-20.7-9.7l7.7-6.8c3.7,4.3,8.5,6.1,13.6,6.1c6.3,0,9.3-1.7,9.3-5.8
		c0-3.4-1.8-4.9-11.9-7.2c-9.8-2.3-16.6-5.4-16.6-15.9c0-9.7,8.5-15.6,19-15.6c8.3,0,14.4,3.1,19.4,8.4l-7.7,7.4
		c-3.4-3.5-7.2-5.5-12.1-5.5c-5.7,0-7.6,2.4-7.6,4.8c0,3.3,2.3,4.4,10.7,6.4s17.8,4.9,17.8,16.4
		C639.3,348.4,632.9,355.1,618.4,355.1z"/>
	<path class="st3" d="M667.5,355.1c-8.9,0-16.6-3.7-20.7-9.7l7.7-6.8c3.7,4.3,8.5,6.1,13.6,6.1c6.3,0,9.3-1.7,9.3-5.8
		c0-3.4-1.8-4.9-11.9-7.2c-9.8-2.3-16.6-5.4-16.6-15.9c0-9.7,8.5-15.6,19-15.6c8.3,0,14.4,3.1,19.4,8.4l-7.7,7.4
		c-3.4-3.5-7.2-5.5-12.1-5.5c-5.7,0-7.6,2.4-7.6,4.8c0,3.3,2.3,4.4,10.7,6.4s17.8,4.9,17.8,16.4C688.4,348.4,682,355.1,667.5,355.1z
		"/>
</g>
<path class="st6" d="M3433.3,646.8h-675.9c-38.1,0-68.9-24.9-68.9-55.5V84.6c0-30.7,30.9-55.5,68.9-55.5h675.9
	c38.1,0,68.9,24.9,68.9,55.5v506.6C3502.2,621.9,3471.4,646.8,3433.3,646.8z"/>
<path class="st7" d="M3010.6,775.7c-1.5,1.6-2.5,2.6-3.5,3.7c-0.8-1.1-2.4-2.2-2.4-3.2c0-1.3,1.4-2.6,2.1-3.9
	C3007.9,773.2,3009,774.2,3010.6,775.7z"/>
<circle class="st7" cx="2688.5" cy="143.6" r="72"/>
<circle class="st7" cx="3500.4" cy="140.6" r="72"/>
<circle class="st7" cx="3502.2" cy="546.5" r="72"/>
<g>
	<path class="st0" d="M2687.9,170.7c-13.6,0-20.6-11.1-20.6-27s7.2-27.1,20.8-27.1s20.6,11.1,20.6,27S2701.5,170.7,2687.9,170.7z
		 M2687.9,124.2c-9.1,0-12.7,8.3-12.7,19.3s3.7,19.5,12.8,19.5c9.2,0,12.7-8.3,12.7-19.3S2697.1,124.2,2687.9,124.2z"/>
</g>
<g>
	<path class="st0" d="M3481.6,566.2c0.5-15.4,9.8-22.2,20.2-28.3c7.1-4.2,8.9-6.5,8.9-10.2c0-4.2-2.8-6.9-10-6.9
		c-4.4,0-9.3,2-12.7,5.2l-5-6c4.7-4.4,11.4-7.1,17.9-7.1c10.9,0,17.8,4.6,17.8,14.3c0,8.1-4,11.5-13.2,17
		c-10,5.9-12.9,9.3-14.1,14.3h27.8v7.6L3481.6,566.2L3481.6,566.2L3481.6,566.2z"/>
</g>
<g>
	<rect x="2823.4" y="298.9" class="st2" width="544" height="78"/>
	<path class="st3" d="M2945.2,335.5h-11.7v18.8h-10.6v-53.2h23.3c10,0,18.3,5.5,18.3,16.9C2964.4,330.4,2956.2,335.5,2945.2,335.5z
		 M2945.8,311.4h-12.2v13.7h12.4c4.9,0,7.6-2.3,7.6-6.9C2953.5,313.6,2950.5,311.4,2945.8,311.4z"/>
	<path class="st3" d="M3005.4,354.4l-9.5-19.2h-10.7v19.2h-10.6v-53.2h24.8c10,0,18.3,5.5,18.3,16.9c0,8-3.4,13-10.2,15.7l10.2,20.7
		L3005.4,354.4L3005.4,354.4z M2999.1,311.4h-13.9v13.7h13.9c4.9,0,7.6-2.3,7.6-6.9C3006.7,313.4,3003.8,311.4,2999.1,311.4z"/>
	<path class="st3" d="M3049.1,355.1c-14.5,0-23.1-11.2-23.1-27.4s8.6-27.4,23.1-27.4s23.1,11.2,23.1,27.4S3063.6,355.1,3049.1,355.1
		z M3049.1,310.9c-8.6,0-12.2,7.4-12.2,16.9s3.6,16.9,12.2,16.9c8.6,0,12.2-7.4,12.2-16.9S3057.7,310.9,3049.1,310.9z"/>
	<path class="st3" d="M3113.5,316.6c-1.9-3.6-4.9-5.8-9.7-5.8c-8,0-12.5,7-12.5,16.9c0,9.6,4.6,16.9,12.6,16.9
		c4.8,0,7.6-2.1,10.4-6.8l9,5.3c-3.6,7.5-10,12-19.7,12c-13.9,0-23.3-10.6-23.3-27.4c0-16.2,9.7-27.4,23.6-27.4
		c10,0,16.1,4.9,19.5,11.8L3113.5,316.6z"/>
	<path class="st3" d="M3134,354.4v-53.2h36.9v10.4h-26.3v9.2h15.3V331h-15.3v12.8h27.4v10.4L3134,354.4L3134,354.4z"/>
	<path class="st3" d="M3200.4,355.1c-8.9,0-16.6-3.7-20.7-9.7l7.7-6.8c3.7,4.3,8.5,6.1,13.6,6.1c6.3,0,9.3-1.7,9.3-5.8
		c0-3.4-1.8-4.9-11.9-7.2c-9.8-2.3-16.6-5.4-16.6-15.9c0-9.7,8.5-15.6,19-15.6c8.3,0,14.4,3.1,19.4,8.4l-7.7,7.4
		c-3.4-3.5-7.2-5.5-12.1-5.5c-5.7,0-7.6,2.4-7.6,4.8c0,3.3,2.3,4.4,10.7,6.4s17.8,4.9,17.8,16.4
		C3221.3,348.4,3214.9,355.1,3200.4,355.1z"/>
	<path class="st3" d="M3249.5,355.1c-8.9,0-16.6-3.7-20.7-9.7l7.7-6.8c3.7,4.3,8.5,6.1,13.6,6.1c6.3,0,9.3-1.7,9.3-5.8
		c0-3.4-1.8-4.9-11.9-7.2c-9.8-2.3-16.6-5.4-16.6-15.9c0-9.7,8.5-15.6,19-15.6c8.3,0,14.4,3.1,19.4,8.4l-7.7,7.4
		c-3.4-3.5-7.2-5.5-12.1-5.5c-5.7,0-7.6,2.4-7.6,4.8c0,3.3,2.3,4.4,10.7,6.4s17.8,4.9,17.8,16.4
		C3270.4,348.4,3264,355.1,3249.5,355.1z"/>
</g>
<g>
	<path class="st0" d="M3500.8,160.3v-40.2h-9.3v-5.5c5.4-0.4,9.8-2.2,10.8-6.8h6.4v52.5H3500.8z"/>
</g>
</svg>
