<?xml version="1.0" encoding="utf-8"?>
<!-- Generator: Adobe Illustrator 21.1.0, SVG Export Plug-In . SVG Version: 6.00 Build 0)  -->
<svg version="1.1" id="Layer_1" xmlns="http://www.w3.org/2000/svg" xmlns:xlink="http://www.w3.org/1999/xlink" x="0px" y="0px"
	 width="3070.6px" height="764.7px" viewBox="0 0 3070.6 764.7" style="enable-background:new 0 0 3070.6 764.7;"
	 xml:space="preserve">
<style type="text/css">
	.st0{fill:#FFFFFF;}
	.st1{fill:#4C4C4C;}
	.st2{fill:#FFFFFF;stroke:#0088CE;stroke-width:6;stroke-miterlimit:10;}
	.st3{fill:#0088CE;stroke:#FFFFFF;stroke-miterlimit:10;}
	.st4{fill:none;}
	.st5{fill:none;stroke:#4C4C4C;stroke-width:6;stroke-miterlimit:10;}
</style>
<rect class="st0" width="3070.6" height="764.7"/>
<g>
	<g>
		<path class="st1" d="M2742.4,527c0.6,0,1.3-0.2,1.8-0.6l93.5-62.8c1.5-1,1.9-3,0.9-4.5s-3-1.9-4.5-0.9l-93.5,62.8
			c-1.5,1-1.9,3-0.9,4.5C2740.4,526.5,2741.4,527,2742.4,527z"/>
		<path class="st1" d="M2714.7,570.2c0.6,0,1.3-0.2,1.8-0.6l74.1-50c1.5-1,1.9-3,0.9-4.5s-3-1.9-4.5-0.9l-74.1,50
			c-1.5,1-1.9,3-0.9,4.5C2712.6,569.7,2713.6,570.2,2714.7,570.2z"/>
		<path class="st1" d="M2554.3,622.5h320.1c8.9,0,16.2-7.8,16.2-17.3V419.6c0-9.6-7.3-17.3-16.2-17.3h-320.1
			c-8.9,0-16.2,7.8-16.2,17.3v185.6C2538.1,614.7,2545.4,622.5,2554.3,622.5z M2547.8,419.6c0-4.2,2.9-7.6,6.5-7.6h320.1
			c3.6,0,6.5,3.4,6.5,7.6v185.6c0,4.2-2.9,7.6-6.5,7.6h-320.1c-3.6,0-6.5-3.4-6.5-7.6V419.6z"/>
		<g>
			<path class="st1" d="M2891.8,374.2h-355c-14.5,0-26.3,11.8-26.3,26.3V621c0,14.5,11.8,26.3,26.3,26.3h115.4v21.9h-35.5
				c-3.6,0-6.5,2.9-6.5,6.5s2.9,6.5,6.5,6.5h35.5h124.3h35.5c3.6,0,6.5-2.9,6.5-6.5s-2.9-6.5-6.5-6.5h-35.5v-21.9h115.3
				c14.5,0,26.3-11.8,26.3-26.3V400.5C2918.1,386,2906.3,374.2,2891.8,374.2z M2665.2,669.2v-19.5h98.3v19.5H2665.2z M2905.1,621.7
				c0,7.3-6,13.3-13.3,13.3h-355c-7.3,0-13.3-6-13.3-13.3V400.5c0-7.3,6-13.3,13.3-13.3h355c7.3,0,13.3,6,13.3,13.3V621.7z"/>
		</g>
	</g>
</g>
<g>
	<path class="st1" d="M2322.4,301.2h14.9v-28.6h25.5v28.6h15.1c-9.4,13-18.4,25.7-27.8,38.8C2340.9,327,2331.9,314.3,2322.4,301.2z"
		/>
	<path class="st1" d="M2389.4,301.2h14.9v-28.6h25.5v28.6h15.1c-9.4,13-18.4,25.7-27.8,38.8C2407.9,327,2398.9,314.3,2389.4,301.2z"
		/>
	<g>
		<g>
			<g>
				<path class="st1" d="M2423.8,61.8c-0.5-0.6-1.3-0.9-2.1-0.9h-108.8c-0.3,0-0.6,0.3-0.6,0.6v197.9c0,0.3,0.3,0.6,0.6,0.6h145.5
					c0.3,0,0.6-0.3,0.6-0.6V99.2c0-0.8-0.3-1.5-0.8-2L2423.8,61.8z M2424.5,71l26.2,27h-26.2V71z M2318,66.7h100.7v32.9
					c0,0.2,0.1,0.4,0.1,0.6s-0.1,0.4-0.1,0.6c0,1.6,1.3,2.9,2.9,2.9h31.5v150.4H2318V66.7z"/>
			</g>
		</g>
		<g>
			<path class="st1" d="M2430.4,129.9h-92.3l0,0c-2.4-1.8-1-4.4,1-4.4h92.4l0,0C2433.5,127.3,2432.3,129.9,2430.4,129.9z"/>
		</g>
		<g>
			<path class="st1" d="M2411.9,152.3h-73.8l0,0c-2.4-1.8-1-4.4,1-4.4h74.1C2414.8,150.2,2413.6,152.3,2411.9,152.3z"/>
		</g>
		<g>
			<path class="st1" d="M2430.4,174.8h-92.3l0,0c-2.4-1.8-1-4.4,1-4.4h92.4l0,0C2433.5,172.2,2432.3,174.8,2430.4,174.8z"/>
		</g>
		<g>
			<path class="st1" d="M2411.9,197.3h-73.8l0,0c-2.4-1.8-1-4.4,1-4.4h73.8C2414.9,194.7,2413.7,197.3,2411.9,197.3z"/>
		</g>
		<g>
			<path class="st1" d="M2430.4,219.8h-92.3l0,0c-2.4-1.8-1-4.4,1-4.4h92.4l0,0C2433.5,217.2,2432.3,219.8,2430.4,219.8z"/>
		</g>
	</g>
</g>
<path class="st2" d="M1533,671.6H857.1c-38.1,0-68.9-25.4-68.9-56.7V97.8c0-31.3,30.9-56.7,68.9-56.7H1533
	c38.1,0,68.9,25.4,68.9,56.7v517.1C1601.9,646.2,1571.1,671.6,1533,671.6z"/>
<circle class="st3" cx="788.2" cy="259.6" r="72"/>
<circle class="st3" cx="1600.1" cy="152.6" r="72"/>
<circle class="st3" cx="1601.9" cy="560.1" r="72"/>
<g>
	<path class="st0" d="M787.6,286.7c-13.6,0-20.6-11.1-20.6-27s7.2-27.1,20.8-27.1s20.6,11.1,20.6,27
		C808.4,275.5,801.2,286.7,787.6,286.7z M787.6,240.2c-9.1,0-12.7,8.3-12.7,19.3s3.7,19.5,12.8,19.5c9.2,0,12.7-8.3,12.7-19.3
		C800.4,248.7,796.8,240.2,787.6,240.2z"/>
</g>
<g>
	<path class="st0" d="M1597.5,172.3v-40.2h-9.3v-5.5c5.4-0.4,9.8-2.2,10.8-6.8h6.4v52.5H1597.5z"/>
</g>
<g>
	<path class="st0" d="M1581.3,579.8c0.5-15.4,9.8-22.2,20.2-28.3c7.1-4.2,8.9-6.5,8.9-10.2c0-4.2-2.8-6.9-10-6.9
		c-4.4,0-9.3,2-12.7,5.2l-5-6c4.7-4.4,11.4-7.1,17.9-7.1c10.9,0,17.8,4.6,17.8,14.3c0,8.1-4,11.5-13.2,17
		c-10,5.9-12.9,9.3-14.1,14.3h27.8v7.6L1581.3,579.8L1581.3,579.8L1581.3,579.8z"/>
</g>
<g>
	<rect x="923" y="317.3" class="st4" width="544" height="78"/>
	<path class="st1" d="M1044.9,353.9h-11.7v18.8h-10.6v-53.2h23.3c10,0,18.3,5.5,18.3,16.9C1064.1,348.8,1055.9,353.9,1044.9,353.9z
		 M1045.4,329.8h-12.2v13.7h12.4c4.9,0,7.6-2.3,7.6-6.9C1053.1,332,1050.1,329.8,1045.4,329.8z"/>
	<path class="st1" d="M1105.1,372.8l-9.5-19.2h-10.7v19.2h-10.6v-53.2h24.8c10,0,18.3,5.5,18.3,16.9c0,8-3.4,13-10.2,15.7l10.2,20.7
		L1105.1,372.8L1105.1,372.8z M1098.8,329.8h-13.9v13.7h13.9c4.9,0,7.6-2.3,7.6-6.9C1106.4,331.8,1103.4,329.8,1098.8,329.8z"/>
	<path class="st1" d="M1148.8,373.5c-14.5,0-23.1-11.2-23.1-27.4s8.6-27.4,23.1-27.4s23.1,11.2,23.1,27.4S1163.2,373.5,1148.8,373.5
		z M1148.8,329.2c-8.6,0-12.2,7.4-12.2,16.9s3.6,16.9,12.2,16.9s12.2-7.4,12.2-16.9S1157.4,329.2,1148.8,329.2z"/>
	<path class="st1" d="M1213.1,335c-1.9-3.6-4.9-5.8-9.7-5.8c-8,0-12.5,7-12.5,16.9c0,9.6,4.6,16.9,12.6,16.9c4.8,0,7.6-2.1,10.4-6.8
		l9,5.3c-3.6,7.5-10,12-19.7,12c-13.9,0-23.3-10.6-23.3-27.4c0-16.2,9.7-27.4,23.6-27.4c10,0,16.1,4.9,19.5,11.8L1213.1,335z"/>
	<path class="st1" d="M1233.6,372.8v-53.2h36.9V330h-26.3v9.2h15.3v10.3h-15.3v12.8h27.4v10.4L1233.6,372.8L1233.6,372.8z"/>
	<path class="st1" d="M1300.1,373.5c-8.9,0-16.6-3.7-20.7-9.7l7.7-6.8c3.7,4.3,8.5,6.1,13.6,6.1c6.3,0,9.3-1.7,9.3-5.8
		c0-3.4-1.8-4.9-11.9-7.2c-9.8-2.3-16.6-5.4-16.6-15.9c0-9.7,8.5-15.6,19-15.6c8.3,0,14.4,3.1,19.4,8.4l-7.7,7.4
		c-3.4-3.5-7.2-5.5-12.1-5.5c-5.7,0-7.6,2.4-7.6,4.8c0,3.3,2.3,4.4,10.7,6.4s17.8,4.9,17.8,16.4
		C1320.9,366.8,1314.6,373.5,1300.1,373.5z"/>
	<path class="st1" d="M1349.1,373.5c-8.9,0-16.6-3.7-20.7-9.7l7.7-6.8c3.7,4.3,8.5,6.1,13.6,6.1c6.3,0,9.3-1.7,9.3-5.8
		c0-3.4-1.8-4.9-11.9-7.2c-9.8-2.3-16.6-5.4-16.6-15.9c0-9.7,8.5-15.6,19-15.6c8.3,0,14.4,3.1,19.4,8.4l-7.7,7.4
		c-3.4-3.5-7.2-5.5-12.1-5.5c-5.7,0-7.6,2.4-7.6,4.8c0,3.3,2.3,4.4,10.7,6.4c8.4,2,17.8,4.9,17.8,16.4
		C1370.1,366.8,1363.6,373.5,1349.1,373.5z"/>
</g>
<g>
	<rect x="1696.7" y="74.1" class="st4" width="438" height="78"/>
	<path class="st1" d="M1715.4,130.3c-5.4,0-11.2-2.1-15.3-5.1l3.6-5.9c3.7,2.6,7.9,4,11.6,4c4.9,0,7.3-1.6,7.3-4.4
		c0-3-3.5-4.5-9.3-6.7c-8.6-3.3-11.7-6.2-11.7-12.5c0-7.1,5.6-10.9,13.6-10.9c5,0,10,1.8,13.5,4.4l-3.4,6c-3.3-2.3-6.5-3.4-10.3-3.4
		s-5.5,1.5-5.5,3.6c0,2,1.4,3.4,7.4,5.8c8.9,3.4,13.5,5.9,13.5,13.4C1730.4,127.4,1723.2,130.3,1715.4,130.3z"/>
	<path class="st1" d="M1758.7,128.5c-1.9,1.1-4.6,1.8-7.7,1.8c-5.5,0-9-3.4-9-10.6v-23h-5.7v-7.1h5.7V78.2l7.7-4.1v15.5h9.9v7.1
		h-9.9v21.7c0,3.7,1.2,4.8,4.1,4.8c2.1,0,4.3-0.8,5.8-1.6L1758.7,128.5z"/>
	<path class="st1" d="M1792.4,129.5v-3.8c-2.9,2.7-6.2,4.6-10.4,4.6c-8.6,0-15.4-6.2-15.4-21.4c0-13.7,7.4-20.1,15.7-20.1
		c4,0,7.8,2.1,10,4.6V78.1l7.8-4v55.4H1792.4L1792.4,129.5z M1792.5,101.2c-1.7-2.4-5.4-5.2-9.3-5.2c-5.6,0-8.7,4.3-8.7,12.7
		c0,10,3.2,14.4,9,14.4c3.7,0,7-2.5,9-5.1V101.2z"/>
	<path class="st1" d="M1827.4,130.3c-10,0-17.6-8.3-17.6-20.7c0-13.1,7.8-20.8,17.8-20.8c10.2,0,17.8,8.1,17.8,20.6
		C1845.4,122.6,1837.6,130.3,1827.4,130.3z M1827.3,96.2c-5.9,0-9.6,5.2-9.6,13.1c0,8.7,4,13.5,10,13.5c5.9,0,9.8-6,9.8-13.3
		C1837.5,101.5,1833.6,96.2,1827.3,96.2z"/>
	<path class="st1" d="M1879,129.5v-3.8c-2,2.9-5.9,4.6-10,4.6c-9.3,0-14.2-6.1-14.2-17.9V89.5h7.8v22.6c0,8.1,3,10.9,8.2,10.9
		s8.2-3.7,8.2-10.2V89.5h7.8v39.9L1879,129.5L1879,129.5z"/>
	<path class="st1" d="M1917.4,128.5c-1.9,1.1-4.6,1.8-7.7,1.8c-5.5,0-9-3.4-9-10.6v-23h-5.7v-7.1h5.7V78.2l7.7-4.1v15.5h9.9v7.1
		h-9.9v21.7c0,3.7,1.2,4.8,4.1,4.8c2.1,0,4.3-0.8,5.8-1.6L1917.4,128.5z"/>
</g>
<g>
	<rect x="187.9" y="172.3" class="st4" width="438" height="78"/>
	<path class="st1" d="M206.6,228.5c-5.4,0-11.2-2.1-15.3-5.1l3.6-5.9c3.7,2.6,7.9,4,11.6,4c4.9,0,7.3-1.6,7.3-4.4
		c0-3-3.5-4.5-9.3-6.7c-8.6-3.3-11.7-6.2-11.7-12.5c0-7.1,5.6-10.9,13.6-10.9c5,0,10,1.8,13.5,4.4l-3.4,6c-3.3-2.3-6.5-3.4-10.3-3.4
		s-5.5,1.5-5.5,3.6c0,2,1.4,3.4,7.4,5.8c8.9,3.4,13.5,5.9,13.5,13.4C221.6,225.6,214.4,228.5,206.6,228.5z"/>
	<path class="st1" d="M249.9,226.7c-1.9,1.1-4.6,1.8-7.7,1.8c-5.5,0-9-3.4-9-10.6v-23h-5.7v-7.1h5.7v-11.4l7.7-4.1v15.5h9.9v7.1
		h-9.9v21.7c0,3.7,1.2,4.8,4.1,4.8c2.1,0,4.3-0.8,5.8-1.6L249.9,226.7z"/>
	<path class="st1" d="M283.6,227.7v-3.8c-2.9,2.7-6.2,4.6-10.4,4.6c-8.6,0-15.4-6.2-15.4-21.4c0-13.7,7.4-20.1,15.7-20.1
		c4,0,7.8,2.1,10,4.6v-15.3l7.8-4v55.4L283.6,227.7L283.6,227.7z M283.7,199.4c-1.7-2.4-5.4-5.2-9.3-5.2c-5.6,0-8.7,4.3-8.7,12.7
		c0,10,3.2,14.4,9,14.4c3.7,0,7-2.5,9-5.1V199.4z"/>
	<path class="st1" d="M307.2,182.6c-2.8,0-5.1-2.3-5.1-5c0-2.8,2.3-5.1,5.1-5.1c2.7,0,5,2.3,5,5.1S310,182.6,307.2,182.6z
		 M303.3,227.7v-39.9h7.8v39.9L303.3,227.7L303.3,227.7z"/>
	<path class="st1" d="M347.3,227.7v-22.6c0-8.1-3-10.9-8.2-10.9s-8.2,3.7-8.2,10.2v23.3h-7.8v-39.9h7.8v3.8c2-2.9,5.9-4.6,10-4.6
		c9.3,0,14.2,6.1,14.2,17.9v22.9L347.3,227.7L347.3,227.7z"/>
</g>
<g>
	<rect x="1696.7" y="480.1" class="st4" width="438" height="78"/>
	<path class="st1" d="M1715.4,536.3c-5.4,0-11.2-2.1-15.3-5.1l3.6-5.9c3.7,2.6,7.9,4,11.6,4c4.9,0,7.3-1.6,7.3-4.4
		c0-3-3.5-4.5-9.3-6.7c-8.6-3.3-11.7-6.2-11.7-12.5c0-7.1,5.6-10.9,13.6-10.9c5,0,10,1.8,13.5,4.4l-3.4,6c-3.3-2.3-6.5-3.4-10.3-3.4
		s-5.5,1.5-5.5,3.6c0,2,1.4,3.4,7.4,5.8c8.9,3.4,13.5,5.9,13.5,13.4C1730.4,533.4,1723.2,536.3,1715.4,536.3z"/>
	<path class="st1" d="M1758.7,534.5c-1.9,1.1-4.6,1.8-7.7,1.8c-5.5,0-9-3.4-9-10.6v-23h-5.7v-7.1h5.7v-11.4l7.7-4.1v15.5h9.9v7.1
		h-9.9v21.7c0,3.7,1.2,4.8,4.1,4.8c2.1,0,4.3-0.8,5.8-1.6L1758.7,534.5z"/>
	<path class="st1" d="M1792.4,535.5v-3.8c-2.9,2.7-6.2,4.6-10.4,4.6c-8.6,0-15.4-6.2-15.4-21.4c0-13.7,7.4-20.1,15.7-20.1
		c4,0,7.8,2.1,10,4.6v-15.3l7.8-4v55.4H1792.4L1792.4,535.5z M1792.5,507.2c-1.7-2.4-5.4-5.2-9.3-5.2c-5.6,0-8.7,4.3-8.7,12.7
		c0,10,3.2,14.4,9,14.4c3.7,0,7-2.5,9-5.1V507.2z"/>
	<path class="st1" d="M1843.8,518.3h-26.4c0.8,7.7,5.2,10.9,10,10.9c3.3,0,6-1.2,8.7-3.2l4.6,5c-3.5,3.3-7.7,5.2-13.8,5.2
		c-9.3,0-17.3-7.5-17.3-20.7c0-13.5,7.1-20.8,17.5-20.8c11.3,0,16.8,9.2,16.8,20C1844.1,516.2,1843.9,517.5,1843.8,518.3z
		 M1826.7,501.8c-5.2,0-8.4,3.6-9.1,10h18.5C1835.8,506.4,1833.2,501.8,1826.7,501.8z"/>
	<path class="st1" d="M1875.5,503.9c-1.7-0.9-3.4-1.4-6-1.4c-4.9,0-7.8,3.5-7.8,10.3v22.8h-7.8v-39.9h7.8v3.8
		c1.8-2.7,5.2-4.6,9.1-4.6c3.2,0,5.2,0.6,6.8,1.7L1875.5,503.9z"/>
	<path class="st1" d="M1907.2,503.9c-1.7-0.9-3.4-1.4-6-1.4c-4.9,0-7.8,3.5-7.8,10.3v22.8h-7.8v-39.9h7.8v3.8
		c1.8-2.7,5.2-4.6,9.1-4.6c3.2,0,5.2,0.6,6.8,1.7L1907.2,503.9z"/>
</g>
<g>
	<g>
		<line class="st5" x1="1698.3" y1="152.1" x2="2196.3" y2="152.1"/>
		<g>
			<polygon class="st1" points="2188.9,182 2233.4,152.1 2188.9,122.2 			"/>
		</g>
	</g>
</g>
<g>
	<g>
		<line class="st5" x1="1700.1" y1="560.1" x2="2416.6" y2="560.1"/>
		<g>
			<polygon class="st1" points="2407.1,590 2463.9,560.1 2407.1,530.2 			"/>
		</g>
	</g>
</g>
<g>
	<g>
		<line class="st5" x1="139.4" y1="259.6" x2="627.2" y2="259.6"/>
		<g>
			<polygon class="st1" points="617.7,289.5 674.5,259.6 617.7,229.7 			"/>
		</g>
	</g>
</g>
<g>
	<path class="st1" d="M712.8,697.3c-2,0.1-4,0.4-5.9,0.4c-204.5,0-408.9,0-613.4,0c-2,0-4,0-6.3,0c0-81.7,0-163.1,0-245
		c98.4,0,196.8,0,295.8,0c-1.2-5.8-2.5-10.9-3.4-16c-3.4-19.9,6.4-37.7,24.9-45.7c15.5-6.8,31.8-8.4,48.3-8.5
		c17.2-0.2,34.3,0.6,51.4-0.4c9-0.5,18.1-3.1,26.5-6.4c11.2-4.4,15.7-14.8,14.9-28.9c-1.1-18.1-1.9-36.2-2.8-54.4
		c-0.1-1.6,0.2-3.3,0.3-5.5c5.6,0.5,10.8,0.9,16.5,1.3c0,4.2-0.2,8.3,0,12.3c0.8,15.3,2,30.6,2.5,45.9c0.8,23.6-6.6,38.3-30.8,47.1
		c-14.3,5.2-29.1,6.4-44.2,6.4c-17.8,0-35.7-0.3-53.4,0.8c-8.2,0.5-16.6,3.4-24.2,6.9c-15.1,6.9-15.4,20.3-12.3,32.2
		c3.4,12.8,3.6,12.7,16.7,12.7c97.3,0,194.6,0,291.9,0c2.3,0,4.6-0.2,7-0.3C712.8,534,712.8,615.6,712.8,697.3z M400.5,669.4
		c65,0,130,0,194.9,0.1c4.3,0,5.9-1,5.7-5.6c-0.3-8.7-0.4-17.3,0-26c0.3-5.2-1.5-6.4-6.5-6.3c-53.8,0.2-107.6,0.1-161.4,0.1
		c-75.8,0-151.6,0-227.4-0.1c-4.6,0-6.1,1.2-6,5.9c0.3,8.5,0.1,17,0.1,25.5c0,6.4,0,6.5,6.7,6.5
		C271.2,669.4,335.9,669.4,400.5,669.4z M415.4,621.8c0-12.6,0-24.7,0-37c-10.5,0-20.7,0-31.1,0c0,12.5,0,24.7,0,37
		C394.8,621.8,404.9,621.8,415.4,621.8z M613.9,669.1c1.7,0.1,3,0.3,4.3,0.3c8.2,0,16.3,0.1,24.4-0.2c1,0,2.7-2.2,2.8-3.4
		c0.3-7,0.1-14,0.1-21c0-13.1,0-13.1-12.9-13.1c-6.2,0-12.5,0-18.8,0C613.9,644.5,613.9,656.5,613.9,669.1z M185.4,669.3
		c0-12.9,0-25.1,0-37.7c-9.7,0-19-0.1-28.3,0.1c-1.1,0-2.9,2.1-3,3.3c-0.2,10.3-0.2,20.6,0,31c0,1.1,1.9,3.1,3,3.2
		C166.4,669.5,175.7,669.3,185.4,669.3z M475.8,622c10.2,0,19.7,0.1,29.1-0.1c1,0,2.7-1.9,2.7-3c0.2-10.5,0.2-20.9,0-31.4
		c0-1-1.8-2.9-2.8-2.9c-8.6-0.2-17.3-0.2-25.9,0c-1,0-2.9,1.8-2.9,2.8C475.7,598.6,475.8,609.9,475.8,622z M154,531.4
		c0,11.9-0.1,23.4,0.1,34.8c0,0.9,1.4,2.5,2.2,2.5c9.7,0.2,19.5,0.1,29.2,0.1c0-12.9,0-25.1,0-37.4C175,531.4,164.9,531.4,154,531.4
		z M614.1,531.4c0,12.7,0,24.9,0,37.5c9.6,0,18.9,0,28.2,0c2.7,0,3.4-1.3,3.3-3.7c-0.1-7.1,0-14.3,0-21.4c0-4.1,0-8.2,0-12.4
		C634.6,531.4,624.5,531.4,614.1,531.4z M384.2,531.5c0,12.7,0,24.8,0,37.1c10.6,0,20.8,0,31.1,0c0-12.6,0-24.8,0-37.1
		C404.8,531.5,394.7,531.5,384.2,531.5z M429.7,531.5c0,11.7,0.1,22.9,0,34c0,3.1,1.7,3.5,4.2,3.5c7.7-0.1,15.3-0.2,23,0.1
		c4.2,0.2,5.1-1.6,5-5.3c-0.2-6.7-0.1-13.3-0.1-20c0-4.1,0-8.2,0-12.3C450.6,531.5,440.5,531.5,429.7,531.5z M476.2,531.4
		c0,12.7,0,24.8,0,37.1c10.7,0,20.9,0,31.1,0c0-12.6,0-24.8,0-37.1C496.8,531.4,486.7,531.4,476.2,531.4z M521.8,568.9
		c10.1,0,19.7,0.1,29.3-0.1c0.8,0,2.3-1.5,2.4-2.3c0.2-11.6,0.1-23.2,0.1-34.8c-11,0-21.3,0-31.7,0
		C521.8,544.1,521.8,556,521.8,568.9z M567.6,531.5c0,11.9-0.1,23.3,0.2,34.7c0,0.9,2.3,2.6,3.6,2.6c8.1,0.2,16.3,0,24.4,0.2
		c3.2,0.1,3.9-1.5,3.9-4.3c-0.1-5.6,0-11.3,0-16.9c0-5.4,0-10.8,0-16.3C588.7,531.5,578.6,531.5,567.6,531.5z M154,621.6
		c10.8,0,21.2,0,31.5,0c0-12.5,0-24.5,0-37.1c-9.9,0-19.5-0.1-29.1,0.1c-0.8,0-2.3,1.5-2.3,2.4C154,598.4,154,609.8,154,621.6z
		 M277.9,621.7c0-11.9,0.1-23.1-0.2-34.4c0-1-2.2-2.7-3.4-2.8c-8.3-0.2-16.6-0.1-24.9-0.2c-2.6,0-3.5,1-3.5,3.6
		c0.1,6.8,0,13.6,0,20.5c0,4.4,0,8.8,0,13.3C256.9,621.7,267,621.7,277.9,621.7z M323.7,622c0-12.1,0.1-23.3-0.1-34.6
		c0-1-1.9-2.8-2.9-2.8c-8.6-0.2-17.3-0.2-25.9,0c-1,0-2.8,1.8-2.9,2.8c-0.2,10.5-0.2,21,0,31.4c0,1.1,1.7,3,2.7,3
		C304.1,622.1,313.5,622,323.7,622z M553.5,621.7c0-11.9,0.1-23.3-0.1-34.8c0-0.9-2.1-2.4-3.2-2.4c-8.3-0.2-16.6,0-24.9-0.2
		c-2.9,0-3.7,1.2-3.6,3.9c0.1,4.8,0,9.6,0,14.5c0,6.2,0,12.5,0,19C532.5,621.7,542.6,621.7,553.5,621.7z M599.6,603.3
		c0-5-0.1-10,0-15c0.1-2.7-0.8-4-3.7-3.9c-8.2,0.1-16.3,0.1-24.5,0c-2.7,0-3.9,0.9-3.9,3.8c0.1,10,0.1,20,0,30c0,2.7,0.8,4,3.7,3.9
		c8.2-0.1,16.3-0.1,24.5,0c3.2,0.1,4-1.5,3.9-4.3C599.5,613,599.6,608.1,599.6,603.3z M613.7,584.5c0,6.8,0,12.8,0,18.8
		c0,6.1,0,12.2,0,18.7c10,0,19.3,0.1,28.6-0.1c1.1,0,3-2,3-3.1c0.2-10.3,0.2-20.7,0-31c0-1.1-1.7-3.1-2.7-3.1
		C633.3,584.4,623.8,584.5,613.7,584.5z M337.9,531.5c0,11.9-0.1,23.3,0.2,34.8c0,0.9,2.4,2.5,3.7,2.6c5.6,0.3,11.3,0.1,17,0.1
		c11.1,0,11.1,0,11.1-10.9c0-8.8,0-17.5,0-26.5C359,531.5,348.9,531.5,337.9,531.5z M292,568.9c10,0,19.8,0.1,29.5-0.2
		c0.8,0,2.1-2.6,2.1-4.1c0.2-9,0.1-18,0.1-26.9c0-2.1,0-4.1,0-6c-11.2,0-21.4,0-31.7,0C292,544.1,292,556.2,292,568.9z M246,531.5
		c0,11.8-0.1,23.1,0.1,34.4c0,1,2.1,2.8,3.3,2.9c5.8,0.3,11.6,0.1,17.4,0.1c3.6,0,7.1,0,10.7,0c0-13,0-25.1,0-37.4
		C267.1,531.5,256.9,531.5,246,531.5z M199.9,531.5c0,11.9-0.1,23.3,0.2,34.8c0,0.9,2.4,2.5,3.7,2.5c8,0.2,16,0,24,0.2
		c3.5,0.1,4.3-1.5,4.2-4.5c-0.2-4.7,0-9.3,0-14c0-6.3,0-12.5,0-19C221,531.5,210.9,531.5,199.9,531.5z M108.6,531.5
		c0,12.6,0,24.8,0,37.4c9.7,0,19,0.1,28.3-0.1c1,0,2.9-1.5,2.9-2.3c0.2-11.6,0.1-23.2,0.1-35C129.2,531.5,119.1,531.5,108.6,531.5z
		 M185.6,478.1c-9.9,0-19.4-0.1-28.8,0.1c-1,0-2.7,1.7-2.7,2.6c-0.2,11.4-0.1,22.9-0.1,34.6c10.9,0,21.1,0,31.6,0
		C185.6,503.2,185.6,491.1,185.6,478.1z M200,515.7c10.2,0,20,0.1,29.8-0.2c0.8,0,2.1-2.3,2.1-3.6c0.2-10,0.1-20,0.1-29.9
		c0-2.6-0.8-4-3.7-4c-8.3,0.1-16.6-0.1-24.9,0.1c-1.1,0-3.2,1.7-3.2,2.6C199.9,492.2,200,503.6,200,515.7z M108.2,622
		c10.1,0,19.4,0.1,28.7-0.2c1.1,0,3-2.4,3-3.7c0.3-10,0.1-20,0.2-29.9c0-2.4-0.7-3.7-3.4-3.7c-8.5,0.1-17-0.1-25.4,0.1
		c-1,0-2.9,1.8-2.9,2.8C108.1,598.7,108.2,609.9,108.2,622z M323.7,515.5c0-11.7,0.1-22.9-0.1-34c0-1.1-1.9-3.2-3-3.2
		c-8.5-0.3-17-0.3-25.5,0c-1.1,0-3.1,1.7-3.2,2.6c-0.2,11.5-0.1,22.9-0.1,34.7C302.5,515.5,312.8,515.5,323.7,515.5z M199.9,603.2
		c0,5,0.1,10,0,15c-0.1,2.8,1,3.9,3.8,3.8c8.2-0.1,16.3-0.1,24.5,0c2.9,0,3.8-1.1,3.8-3.9c-0.1-10-0.1-20,0-30
		c0-2.8-1.1-3.9-3.8-3.8c-8.2,0.1-16.3,0.1-24.5,0c-2.8,0-3.8,1.1-3.8,3.9C200,593.2,199.9,598.2,199.9,603.2z M507.7,515.5
		c0-11.7,0.1-22.8-0.1-34c0-1.1-1.9-3.2-2.9-3.2c-8.7-0.3-17.3-0.2-26,0c-1,0-2.7,1.6-2.7,2.5c-0.2,11.5-0.1,22.9-0.1,34.7
		C486.6,515.5,496.8,515.5,507.7,515.5z M108.5,669.3c9.8,0,19.1,0.1,28.4-0.1c1.1,0,3-2.1,3-3.2c0.2-10.2,0.1-20.3,0.2-30.5
		c0-2.8-1-3.9-3.8-3.8c-8.2,0.1-16.3,0.1-24.5,0c-3-0.1-3.6,1.4-3.6,4c0.1,9.2,0,18.3,0,27.5C108.2,665,108.3,667,108.5,669.3z
		 M369.8,515.8c0-12.1,0.1-23.4-0.2-34.7c0-1-2.2-2.8-3.4-2.9c-8.3-0.3-16.6-0.3-24.9,0c-1.2,0-3.3,2.2-3.3,3.5
		c-0.3,10.3-0.2,20.6,0,30.9c0,1.1,1.7,2.9,2.7,3C350.1,515.9,359.6,515.8,369.8,515.8z M429.6,603.4c0,4.7,0.1,9.3,0,14
		c-0.1,3.3,0.8,4.8,4.5,4.7c7.8-0.2,15.7-0.2,23.5,0c3,0.1,4.2-0.9,4.2-4c-0.1-9.8-0.1-19.7,0-29.5c0.1-3.4-1.3-4.3-4.5-4.2
		c-7.7,0.1-15.3,0.2-23,0c-3.9-0.1-4.9,1.5-4.7,5C429.8,594,429.6,598.7,429.6,603.4z M461.7,496.8c0-4.8-0.1-9.6,0-14.5
		c0.1-2.8-0.7-4.3-3.9-4.3c-8.1,0.1-16.3,0.1-24.5,0c-2.9,0-3.7,1.3-3.7,3.9c0.1,10,0.1,20,0,29.9c0,2.7,0.8,3.9,3.7,3.9
		c8.3-0.1,16.6-0.1,25,0c2.6,0,3.5-1,3.5-3.6C461.6,507.1,461.7,501.9,461.7,496.8z M337.9,603c0,5,0.1,10,0,15
		c-0.1,3,1,4.1,4.1,4.1c8-0.2,16-0.2,24,0c3.1,0.1,4-1.2,4-4.2c-0.1-9.8-0.1-19.6,0-29.5c0-3.1-1.2-4.1-4.1-4.1c-8,0.1-16,0.1-24,0
		c-3.1-0.1-4.1,1.3-4,4.2C338,593.4,337.9,598.2,337.9,603z M553.6,515.5c0-11.8,0.1-22.9-0.1-34.1c0-1.1-2-3.1-3.1-3.2
		c-8.5-0.3-17-0.2-25.5,0c-1.1,0-3.1,1.7-3.1,2.6c-0.2,11.4-0.1,22.9-0.1,34.6C532.4,515.5,542.6,515.5,553.6,515.5z M108.7,478.1
		c0,12.8,0,25.1,0,37.2c10.7,0,20.8,0,31.4,0c0-11.6,0.1-22.7-0.1-33.8c0-1.1-2-3.2-3.1-3.2C127.6,478,118.3,478.1,108.7,478.1z
		 M415.7,515.5c0-11.8,0.1-23.2-0.1-34.7c0-0.9-2-2.5-3.1-2.6c-8.5-0.2-17-0.2-25.4,0c-1,0-2.9,1.5-2.9,2.3
		c-0.2,11.6-0.1,23.1-0.1,35C394.7,515.5,405,515.5,415.7,515.5z M613.9,478.1c0,12.9,0,25,0,37.2c10.6,0,20.9,0,31.6,0
		c0-11.6,0.1-22.7-0.1-33.9c0-1.1-2-3.2-3.1-3.2C633,478,623.7,478.1,613.9,478.1z M599.6,515.8c0-12.2,0.1-23.5-0.1-34.8
		c0-1-1.9-2.8-3-2.8c-8.5-0.2-17-0.3-25.5,0c-1.2,0-3.2,2-3.3,3c-0.3,10.5-0.2,21,0,31.5c0,1,1.8,2.9,2.8,2.9
		C579.9,515.9,589.4,515.8,599.6,515.8z M277.8,515.7c0-12,0.1-23.5-0.1-35c0-0.9-2-2.6-3.1-2.6c-8.5-0.2-17-0.2-25.5,0
		c-1.1,0-3,2.1-3,3.2c-0.2,10.3-0.2,20.7,0,31c0,1.1,1.6,3.1,2.5,3.1C258.2,515.8,267.8,515.7,277.8,515.7z M691.1,622
		c0-12.1,0.1-23.7-0.1-35.3c0-0.7-2-2.1-3.1-2.1c-8.3-0.2-16.7-0.2-25,0c-1.2,0-3.2,1.9-3.3,3c-0.2,10.5-0.2,21,0,31.5
		c0,1,1.6,2.7,2.5,2.8C671.6,622,681,622,691.1,622z M659.5,531.5c0,11.7,0.1,22.8,0,33.9c0,3.1,1.6,3.5,4.1,3.5
		c7.8-0.1,15.6-0.1,23.4,0c3.3,0.1,4.4-1,4.3-4.3c-0.2-8.3,0-16.6,0-24.9c0-2.7,0-5.5,0-8.3C680.3,531.5,670.2,531.5,659.5,531.5z
		 M691.2,651c0-5.2-0.1-10.3,0-15.5c0.1-2.6-0.7-4-3.7-3.9c-8.1,0.1-16.3,0.1-24.4,0c-2.9,0-3.7,1.3-3.7,3.9c0.1,10,0.1,20,0,29.9
		c0,2.7,0.9,3.9,3.7,3.9c8.1-0.1,16.3-0.1,24.4,0c3,0,3.7-1.3,3.6-3.9C691.1,660.7,691.2,655.8,691.2,651z M691.2,515.4
		c0-11.7,0.1-23.2-0.1-34.6c0-0.9-2-2.5-3.1-2.6c-8.3-0.2-16.6-0.2-25,0c-1.2,0-3.3,1.6-3.3,2.5c-0.2,11.4-0.1,22.9-0.1,34.7
		C670.2,515.4,680.4,515.4,691.2,515.4z"/>
	<path class="st0" d="M400.5,669.4c-64.6,0-129.3,0-193.9,0c-6.6,0-6.6,0-6.7-6.5c0-8.5,0.2-17-0.1-25.5c-0.2-4.7,1.4-5.9,6-5.9
		c75.8,0.1,151.6,0.1,227.4,0.1c53.8,0,107.6,0.1,161.4-0.1c5,0,6.8,1.1,6.5,6.3c-0.4,8.6-0.4,17.3,0,26c0.2,4.5-1.4,5.6-5.7,5.6
		C530.5,669.3,465.5,669.4,400.5,669.4z"/>
	<path class="st0" d="M415.4,621.8c-10.5,0-20.6,0-31.1,0c0-12.3,0-24.5,0-37c10.4,0,20.6,0,31.1,0
		C415.4,597.1,415.4,609.2,415.4,621.8z"/>
	<path class="st0" d="M613.9,669.1c0-12.6,0-24.5,0-37.4c6.3,0,12.6,0,18.8,0c12.9,0,12.9,0,12.9,13.1c0,7,0.1,14-0.1,21
		c0,1.2-1.8,3.4-2.8,3.4c-8.1,0.3-16.3,0.2-24.4,0.2C616.9,669.4,615.6,669.2,613.9,669.1z"/>
	<path class="st0" d="M185.4,669.3c-9.7,0-19,0.1-28.3-0.1c-1.1,0-3-2-3-3.2c-0.2-10.3-0.2-20.6,0-31c0-1.2,1.9-3.2,3-3.3
		c9.3-0.3,18.6-0.1,28.3-0.1C185.4,644.2,185.4,656.4,185.4,669.3z"/>
	<path class="st0" d="M475.8,622c0-12.1-0.1-23.4,0.1-34.7c0-1,1.9-2.8,2.9-2.8c8.6-0.2,17.3-0.2,25.9,0c1,0,2.8,1.9,2.8,2.9
		c0.2,10.5,0.2,20.9,0,31.4c0,1.1-1.7,3-2.7,3C495.4,622.1,486,622,475.8,622z"/>
	<path class="st0" d="M154,531.4c10.9,0,21,0,31.5,0c0,12.4,0,24.6,0,37.4c-9.7,0-19.5,0.1-29.2-0.1c-0.8,0-2.2-1.6-2.2-2.5
		C153.9,554.8,154,543.4,154,531.4z"/>
	<path class="st0" d="M614.1,531.4c10.5,0,20.6,0,31.5,0c0,4.2,0,8.3,0,12.4c0,7.1,0,14.3,0,21.4c0,2.4-0.6,3.7-3.3,3.7
		c-9.3-0.1-18.5,0-28.2,0C614.1,556.3,614.1,544.1,614.1,531.4z"/>
	<path class="st0" d="M384.2,531.5c10.5,0,20.6,0,31.1,0c0,12.4,0,24.5,0,37.1c-10.3,0-20.5,0-31.1,0
		C384.2,556.3,384.2,544.1,384.2,531.5z"/>
	<path class="st0" d="M429.7,531.5c10.9,0,21,0,32,0c0,4.1,0,8.2,0,12.3c0,6.7-0.2,13.3,0.1,20c0.1,3.7-0.8,5.4-5,5.3
		c-7.6-0.3-15.3-0.1-23-0.1c-2.5,0-4.2-0.4-4.2-3.5C429.7,554.4,429.7,543.2,429.7,531.5z"/>
	<path class="st0" d="M476.2,531.4c10.5,0,20.6,0,31.1,0c0,12.3,0,24.5,0,37.1c-10.3,0-20.5,0-31.1,0
		C476.2,556.3,476.2,544.1,476.2,531.4z"/>
	<path class="st0" d="M521.8,568.9c0-12.9,0-24.8,0-37.2c10.4,0,20.7,0,31.7,0c0,11.6,0.1,23.2-0.1,34.8c0,0.8-1.5,2.3-2.4,2.3
		C541.5,569,531.9,568.9,521.8,568.9z"/>
	<path class="st0" d="M567.6,531.5c11,0,21.1,0,32,0c0,5.5,0,10.9,0,16.3c0,5.6-0.1,11.3,0,16.9c0.1,2.8-0.6,4.3-3.9,4.3
		c-8.1-0.2-16.3,0.1-24.4-0.2c-1.3,0-3.6-1.7-3.6-2.6C567.5,554.8,567.6,543.4,567.6,531.5z"/>
	<path class="st0" d="M154,621.6c0-11.8-0.1-23.2,0.1-34.6c0-0.8,1.5-2.4,2.3-2.4c9.6-0.2,19.2-0.1,29.1-0.1c0,12.6,0,24.6,0,37.1
		C175.2,621.6,164.8,621.6,154,621.6z"/>
	<path class="st0" d="M277.9,621.7c-10.9,0-21,0-31.9,0c0-4.5,0-8.9,0-13.3c0-6.8,0.1-13.6,0-20.5c0-2.5,0.9-3.6,3.5-3.6
		c8.3,0.1,16.6-0.1,24.9,0.2c1.2,0,3.4,1.8,3.4,2.8C277.9,598.6,277.9,609.9,277.9,621.7z"/>
	<path class="st0" d="M323.7,622c-10.2,0-19.7,0.1-29.1-0.1c-1,0-2.7-1.9-2.7-3c-0.2-10.5-0.2-21,0-31.4c0-1,1.8-2.8,2.9-2.8
		c8.6-0.2,17.3-0.2,25.9,0c1,0,2.9,1.8,2.9,2.8C323.8,598.6,323.7,609.9,323.7,622z"/>
	<path class="st0" d="M553.5,621.7c-11,0-21,0-31.9,0c0-6.5,0-12.7,0-19c0-4.8,0.1-9.6,0-14.5c-0.1-2.7,0.7-4,3.6-3.9
		c8.3,0.1,16.6-0.1,24.9,0.2c1.1,0,3.2,1.6,3.2,2.4C553.6,598.4,553.5,609.8,553.5,621.7z"/>
	<path class="st0" d="M599.6,603.3c0,4.8-0.1,9.7,0,14.5c0.1,2.8-0.7,4.3-3.9,4.3c-8.2-0.2-16.3-0.1-24.5,0c-2.9,0-3.7-1.2-3.7-3.9
		c0.1-10,0.1-20,0-30c0-2.9,1.2-3.8,3.9-3.8c8.2,0.1,16.3,0.1,24.5,0c2.9,0,3.8,1.2,3.7,3.9C599.5,593.3,599.6,598.3,599.6,603.3z"
		/>
	<path class="st0" d="M613.7,584.5c10.1,0,19.6-0.1,29,0.1c0.9,0,2.6,2,2.7,3.1c0.2,10.3,0.2,20.7,0,31c0,1.1-2,3.1-3,3.1
		c-9.3,0.3-18.6,0.1-28.6,0.1c0-6.5,0-12.6,0-18.7C613.7,597.3,613.7,591.3,613.7,584.5z"/>
	<path class="st0" d="M337.9,531.5c11,0,21.1,0,32,0c0,9,0,17.7,0,26.5c0,10.9,0,10.9-11.1,10.9c-5.7,0-11.3,0.2-17-0.1
		c-1.3-0.1-3.7-1.6-3.7-2.6C337.8,554.8,337.9,543.4,337.9,531.5z"/>
	<path class="st0" d="M292,568.9c0-12.7,0-24.8,0-37.2c10.3,0,20.5,0,31.7,0c0,1.9,0,4,0,6c0,9,0.1,18-0.1,26.9
		c0,1.4-1.3,4.1-2.1,4.1C311.8,569,302.1,568.9,292,568.9z"/>
	<path class="st0" d="M246,531.5c10.9,0,21.1,0,31.6,0c0,12.3,0,24.4,0,37.4c-3.6,0-7.2,0-10.7,0c-5.8,0-11.6,0.2-17.4-0.1
		c-1.2-0.1-3.3-1.8-3.3-2.9C245.9,554.7,246,543.4,246,531.5z"/>
	<path class="st0" d="M199.9,531.5c10.9,0,21.1,0,32,0c0,6.5,0,12.7,0,19c0,4.7-0.1,9.3,0,14c0.1,3-0.7,4.6-4.2,4.5
		c-8-0.2-16,0.1-24-0.2c-1.3,0-3.7-1.6-3.7-2.5C199.9,554.9,199.9,543.4,199.9,531.5z"/>
	<path class="st0" d="M108.6,531.5c10.5,0,20.6,0,31.4,0c0,11.8,0.1,23.4-0.1,35c0,0.8-1.9,2.3-2.9,2.3c-9.3,0.2-18.6,0.1-28.3,0.1
		C108.6,556.3,108.6,544.1,108.6,531.5z"/>
	<path class="st0" d="M185.6,478.1c0,13,0,25.1,0,37.3c-10.5,0-20.7,0-31.6,0c0-11.8-0.1-23.2,0.1-34.6c0-0.9,1.7-2.6,2.7-2.6
		C166.3,478,175.7,478.1,185.6,478.1z"/>
	<path class="st0" d="M200,515.7c0-12.1-0.1-23.5,0.1-34.9c0-0.9,2.1-2.5,3.2-2.6c8.3-0.2,16.6-0.1,24.9-0.1c2.9,0,3.7,1.3,3.7,4
		c-0.1,10,0.1,20-0.1,29.9c0,1.3-1.3,3.6-2.1,3.6C220,515.8,210.2,515.7,200,515.7z"/>
	<path class="st0" d="M108.2,622c0-12.1-0.1-23.3,0.1-34.6c0-1,1.9-2.8,2.9-2.8c8.5-0.2,17-0.1,25.4-0.1c2.7,0,3.4,1.3,3.4,3.7
		c-0.1,10,0.1,20-0.2,29.9c0,1.3-1.9,3.7-3,3.7C127.6,622.1,118.3,622,108.2,622z"/>
	<path class="st0" d="M323.7,515.5c-11,0-21.2,0-31.9,0c0-11.8-0.1-23.2,0.1-34.7c0-0.9,2-2.5,3.2-2.6c8.5-0.2,17-0.2,25.5,0
		c1.1,0,3,2.1,3,3.2C323.8,492.6,323.7,503.8,323.7,515.5z"/>
	<path class="st0" d="M199.9,603.2c0-5,0.1-10,0-15c-0.1-2.8,1-3.9,3.8-3.9c8.2,0.1,16.3,0.1,24.5,0c2.8,0,3.9,1,3.8,3.8
		c-0.1,10-0.1,20,0,30c0,2.7-0.9,3.9-3.8,3.9c-8.2-0.1-16.3-0.1-24.5,0c-2.8,0-3.9-1.1-3.8-3.8C200,613.2,199.9,608.2,199.9,603.2z"
		/>
	<path class="st0" d="M507.7,515.5c-10.9,0-21.1,0-31.9,0c0-11.8-0.1-23.2,0.1-34.7c0-0.9,1.8-2.5,2.7-2.5c8.7-0.2,17.3-0.2,26,0
		c1.1,0,2.9,2.1,2.9,3.2C507.8,492.6,507.7,503.8,507.7,515.5z"/>
	<path class="st0" d="M108.5,669.3c-0.1-2.4-0.3-4.3-0.3-6.3c0-9.2,0-18.3,0-27.5c0-2.6,0.6-4,3.6-4c8.2,0.1,16.3,0.1,24.5,0
		c2.8,0,3.8,1.1,3.8,3.8c-0.1,10.2,0.1,20.3-0.2,30.5c0,1.2-1.9,3.2-3,3.2C127.6,669.5,118.3,669.3,108.5,669.3z"/>
	<path class="st0" d="M369.8,515.8c-10.2,0-19.7,0.1-29.1-0.1c-1,0-2.7-1.9-2.7-3c-0.2-10.3-0.2-20.6,0-30.9c0-1.2,2.1-3.5,3.3-3.5
		c8.3-0.3,16.6-0.3,24.9,0c1.2,0,3.4,1.8,3.4,2.9C369.9,492.4,369.8,503.7,369.8,515.8z"/>
	<path class="st0" d="M429.6,603.4c0-4.7,0.2-9.3-0.1-14c-0.2-3.5,0.8-5.2,4.7-5c7.7,0.2,15.3,0.2,23,0c3.1-0.1,4.5,0.9,4.5,4.2
		c-0.2,9.8-0.1,19.7,0,29.5c0,3.1-1.2,4-4.2,4c-7.8-0.1-15.7-0.2-23.5,0c-3.6,0.1-4.6-1.4-4.5-4.7
		C429.8,612.7,429.6,608,429.6,603.4z"/>
	<path class="st0" d="M461.7,496.8c0,5.2-0.1,10.3,0,15.5c0.1,2.6-0.9,3.6-3.5,3.6c-8.3-0.1-16.6-0.1-25,0c-2.9,0-3.7-1.2-3.7-3.9
		c0.1-10,0.1-20,0-29.9c0-2.7,0.8-4,3.7-3.9c8.1,0.1,16.3,0.1,24.5,0c3.2-0.1,4,1.5,3.9,4.3C461.6,487.1,461.7,492,461.7,496.8z"/>
	<path class="st0" d="M337.9,603c0-4.8,0.1-9.7,0-14.5c-0.1-2.9,0.8-4.2,4-4.2c8,0.1,16,0.1,24,0c3,0,4.2,1,4.1,4.1
		c-0.1,9.8-0.1,19.6,0,29.5c0,2.9-0.9,4.2-4,4.2c-8-0.1-16-0.1-24,0c-3,0.1-4.2-1-4.1-4.1C338,613,337.9,608,337.9,603z"/>
	<path class="st0" d="M553.6,515.5c-10.9,0-21.2,0-31.9,0c0-11.8-0.1-23.2,0.1-34.6c0-0.9,2-2.6,3.1-2.6c8.5-0.2,17-0.2,25.5,0
		c1.1,0,3.1,2,3.1,3.2C553.7,492.6,553.6,503.7,553.6,515.5z"/>
	<path class="st0" d="M108.7,478.1c9.6,0,18.9-0.1,28.2,0.1c1.1,0,3,2.1,3.1,3.2c0.2,11.1,0.1,22.2,0.1,33.8c-10.6,0-20.7,0-31.4,0
		C108.7,503.2,108.7,490.9,108.7,478.1z"/>
	<path class="st0" d="M415.7,515.5c-10.7,0-20.9,0-31.8,0c0-11.8-0.1-23.4,0.1-35c0-0.8,1.9-2.3,2.9-2.3c8.5-0.2,17-0.2,25.4,0
		c1.1,0,3.1,1.7,3.1,2.6C415.7,492.2,415.7,503.7,415.7,515.5z"/>
	<path class="st0" d="M613.9,478.1c9.8,0,19.1-0.1,28.4,0.1c1.1,0,3,2.1,3.1,3.2c0.2,11.1,0.1,22.3,0.1,33.9c-10.7,0-21,0-31.6,0
		C613.9,503.1,613.9,491,613.9,478.1z"/>
	<path class="st0" d="M599.6,515.8c-10.2,0-19.6,0.1-29.1-0.1c-1,0-2.8-1.9-2.8-2.9c-0.2-10.5-0.2-21,0-31.5c0-1.1,2.1-3,3.3-3
		c8.5-0.3,17-0.2,25.5,0c1.1,0,3,1.8,3,2.8C599.7,492.3,599.6,503.6,599.6,515.8z"/>
	<path class="st0" d="M277.8,515.7c-10,0-19.6,0.1-29.3-0.1c-0.9,0-2.5-2-2.5-3.1c-0.2-10.3-0.2-20.7,0-31c0-1.1,1.9-3.2,3-3.2
		c8.5-0.3,17-0.3,25.5,0c1.1,0,3.1,1.7,3.1,2.6C277.9,492.2,277.8,503.7,277.8,515.7z"/>
	<path class="st0" d="M691.1,622c-10.1,0-19.6,0.1-29-0.1c-0.9,0-2.5-1.8-2.5-2.8c-0.2-10.5-0.2-21,0-31.5c0-1.1,2.1-3,3.3-3
		c8.3-0.3,16.7-0.2,25,0c1.1,0,3.1,1.3,3.1,2.1C691.2,598.2,691.1,609.9,691.1,622z"/>
	<path class="st0" d="M659.5,531.5c10.8,0,20.8,0,31.8,0c0,2.8,0,5.5,0,8.3c0,8.3-0.1,16.6,0,24.9c0.1,3.2-1,4.4-4.3,4.3
		c-7.8-0.2-15.6-0.1-23.4,0c-2.5,0-4.1-0.4-4.1-3.5C659.5,554.4,659.5,543.2,659.5,531.5z"/>
	<path class="st0" d="M691.2,651c0,4.8-0.1,9.6,0,14.5c0.1,2.6-0.7,4-3.6,3.9c-8.1-0.1-16.3-0.1-24.4,0c-2.8,0-3.8-1.1-3.7-3.9
		c0.1-10,0.1-20,0-29.9c0-2.7,0.9-4,3.7-3.9c8.1,0.1,16.3,0.1,24.4,0c3,0,3.7,1.3,3.7,3.9C691.2,640.7,691.2,645.9,691.2,651z"/>
	<path class="st0" d="M691.2,515.4c-10.7,0-21,0-31.7,0c0-11.8-0.1-23.3,0.1-34.7c0-0.9,2.1-2.5,3.3-2.5c8.3-0.2,16.6-0.2,25,0
		c1.1,0,3.1,1.7,3.1,2.6C691.3,492.2,691.2,503.7,691.2,515.4z"/>
</g>
</svg>
