<?xml version="1.0" encoding="utf-8"?>
<!-- Generator: Adobe Illustrator 21.1.0, SVG Export Plug-In . SVG Version: 6.00 Build 0)  -->
<svg version="1.1" id="Layer_1" xmlns="http://www.w3.org/2000/svg" xmlns:xlink="http://www.w3.org/1999/xlink" x="0px" y="0px"
	 width="3070.6px" height="761.8px" viewBox="0 0 3070.6 761.8" style="enable-background:new 0 0 3070.6 761.8;"
	 xml:space="preserve">
<style type="text/css">
	.st0{fill:#FFFFFF;}
	.st1{fill:#4C4C4C;}
	.st2{fill:#FFFFFF;stroke:#0088CE;stroke-width:6;stroke-miterlimit:10;}
	.st3{fill:#0088CE;stroke:#FFFFFF;stroke-miterlimit:10;}
	.st4{fill:none;}
	.st5{fill:none;stroke:#4C4C4C;stroke-width:6;stroke-miterlimit:10;}
</style>
<rect class="st0" width="3070.6" height="761.8"/>
<g>
	<g>
		<path class="st1" d="M2515.9,171.3c0.6,0,1.3-0.2,1.8-0.6l93.5-62.8c1.5-1,1.9-3,0.9-4.5s-3-1.9-4.5-0.9l-93.5,62.8
			c-1.5,1-1.9,3-0.9,4.5C2513.9,170.8,2514.9,171.3,2515.9,171.3z"/>
		<path class="st1" d="M2488.2,214.5c0.6,0,1.3-0.2,1.8-0.6l74.1-50c1.5-1,1.9-3,0.9-4.5s-3-1.9-4.5-0.9l-74.1,50
			c-1.5,1-1.9,3-0.9,4.5C2486.1,214,2487.1,214.5,2488.2,214.5z"/>
		<path class="st1" d="M2327.8,266.8h320.1c8.9,0,16.2-7.8,16.2-17.3V64c0-9.6-7.3-17.3-16.2-17.3h-320.1c-8.9,0-16.2,7.8-16.2,17.3
			v185.6C2311.6,259.1,2318.9,266.8,2327.8,266.8z M2321.3,64c0-4.2,2.9-7.6,6.5-7.6h320.1c3.6,0,6.5,3.4,6.5,7.6v185.6
			c0,4.2-2.9,7.6-6.5,7.6h-320.1c-3.6,0-6.5-3.4-6.5-7.6V64z"/>
		<g>
			<path class="st1" d="M2665.3,18.5h-355c-14.5,0-26.3,11.8-26.3,26.3v220.5c0,14.5,11.8,26.3,26.3,26.3h115.4v21.9h-35.5
				c-3.6,0-6.5,2.9-6.5,6.5s2.9,6.5,6.5,6.5h35.5H2550h35.5c3.6,0,6.5-2.9,6.5-6.5s-2.9-6.5-6.5-6.5H2550v-21.9h115.3
				c14.5,0,26.3-11.8,26.3-26.3V44.8C2691.6,30.3,2679.8,18.5,2665.3,18.5z M2438.7,313.5V294h98.3v19.5H2438.7z M2678.6,266.1
				c0,7.3-6,13.3-13.3,13.3h-355c-7.3,0-13.3-6-13.3-13.3V44.8c0-7.3,6-13.3,13.3-13.3h355c7.3,0,13.3,6,13.3,13.3V266.1z"/>
		</g>
	</g>
</g>
<path class="st2" d="M1533,698.1H857.1c-38.1,0-68.9-25.4-68.9-56.7V124.3c0-31.3,30.9-56.7,68.9-56.7H1533
	c38.1,0,68.9,25.4,68.9,56.7v517.1C1601.9,672.7,1571.1,698.1,1533,698.1z"/>
<circle class="st3" cx="788.2" cy="286.1" r="72"/>
<circle class="st3" cx="1600.1" cy="179.1" r="72"/>
<circle class="st3" cx="1601.9" cy="577.7" r="72"/>
<g>
	<path class="st0" d="M787.6,313.2c-13.6,0-20.6-11.1-20.6-27s7.2-27.1,20.8-27.1s20.6,11.1,20.6,27
		C808.4,302,801.2,313.2,787.6,313.2z M787.6,266.7c-9.1,0-12.7,8.3-12.7,19.3s3.7,19.5,12.8,19.5c9.2,0,12.7-8.3,12.7-19.3
		S796.8,266.7,787.6,266.7z"/>
</g>
<g>
	<path class="st0" d="M1597.5,198.8v-40.2h-9.3v-5.5c5.4-0.4,9.8-2.2,10.8-6.8h6.4v52.5H1597.5z"/>
</g>
<g>
	<path class="st0" d="M1581.3,597.4c0.5-15.4,9.8-22.2,20.2-28.3c7.1-4.2,8.9-6.5,8.9-10.2c0-4.2-2.8-6.9-10-6.9
		c-4.4,0-9.3,2-12.7,5.2l-5-6c4.7-4.4,11.4-7.1,17.9-7.1c10.9,0,17.8,4.6,17.8,14.3c0,8.1-4,11.5-13.2,17
		c-10,5.9-12.9,9.3-14.1,14.3h27.8v7.6L1581.3,597.4L1581.3,597.4L1581.3,597.4z"/>
</g>
<g>
	<rect x="923.1" y="343.8" class="st4" width="544" height="78"/>
	<path class="st1" d="M1044.9,380.4h-11.7v18.8h-10.6V346h23.3c10,0,18.3,5.5,18.3,16.9C1064.1,375.2,1055.9,380.4,1044.9,380.4z
		 M1045.5,356.3h-12.2V370h12.4c4.9,0,7.6-2.3,7.6-6.9C1053.2,358.5,1050.2,356.3,1045.5,356.3z"/>
	<path class="st1" d="M1105.1,399.2l-9.5-19.2h-10.7v19.2h-10.6V346h24.8c10,0,18.3,5.5,18.3,16.9c0,8-3.4,13-10.2,15.7l10.2,20.7
		L1105.1,399.2L1105.1,399.2z M1098.8,356.3h-13.9V370h13.9c4.9,0,7.6-2.3,7.6-6.9C1106.4,358.3,1103.5,356.3,1098.8,356.3z"/>
	<path class="st1" d="M1148.8,400c-14.5,0-23.1-11.2-23.1-27.4s8.6-27.4,23.1-27.4s23.1,11.2,23.1,27.4S1163.3,400,1148.8,400z
		 M1148.8,355.7c-8.6,0-12.2,7.4-12.2,16.9s3.6,16.9,12.2,16.9s12.2-7.4,12.2-16.9S1157.4,355.7,1148.8,355.7z"/>
	<path class="st1" d="M1213.2,361.5c-1.9-3.6-4.9-5.8-9.7-5.8c-8,0-12.5,7-12.5,16.9c0,9.6,4.6,16.9,12.6,16.9
		c4.8,0,7.6-2.1,10.4-6.8l9,5.3c-3.6,7.5-10,12-19.7,12c-13.9,0-23.3-10.6-23.3-27.4c0-16.2,9.7-27.4,23.6-27.4
		c10,0,16.1,4.9,19.5,11.8L1213.2,361.5z"/>
	<path class="st1" d="M1233.7,399.2V346h36.9v10.4h-26.3v9.2h15.3v10.3h-15.3v12.8h27.4v10.4L1233.7,399.2L1233.7,399.2z"/>
	<path class="st1" d="M1300.1,400c-8.9,0-16.6-3.7-20.7-9.7l7.7-6.8c3.7,4.3,8.5,6.1,13.6,6.1c6.3,0,9.3-1.7,9.3-5.8
		c0-3.4-1.8-4.9-11.9-7.2c-9.8-2.3-16.6-5.4-16.6-15.9c0-9.7,8.5-15.6,19-15.6c8.3,0,14.4,3.1,19.4,8.4l-7.7,7.4
		c-3.4-3.5-7.2-5.5-12.1-5.5c-5.7,0-7.6,2.4-7.6,4.8c0,3.3,2.3,4.4,10.7,6.4c8.4,2,17.8,4.9,17.8,16.4
		C1321,393.2,1314.6,400,1300.1,400z"/>
	<path class="st1" d="M1349.2,400c-8.9,0-16.6-3.7-20.7-9.7l7.7-6.8c3.7,4.3,8.5,6.1,13.6,6.1c6.3,0,9.3-1.7,9.3-5.8
		c0-3.4-1.8-4.9-11.9-7.2c-9.8-2.3-16.6-5.4-16.6-15.9c0-9.7,8.5-15.6,19-15.6c8.3,0,14.4,3.1,19.4,8.4l-7.7,7.4
		c-3.4-3.5-7.2-5.5-12.1-5.5c-5.7,0-7.6,2.4-7.6,4.8c0,3.3,2.3,4.4,10.7,6.4c8.4,2,17.8,4.9,17.8,16.4
		C1370.1,393.2,1363.7,400,1349.2,400z"/>
</g>
<g>
	<rect x="1696.7" y="100.6" class="st4" width="438" height="78"/>
	<path class="st1" d="M1715.4,156.8c-5.4,0-11.2-2.1-15.3-5.1l3.6-5.9c3.7,2.6,7.9,4,11.6,4c4.9,0,7.3-1.6,7.3-4.4
		c0-3-3.5-4.5-9.3-6.7c-8.6-3.3-11.7-6.2-11.7-12.5c0-7.1,5.6-10.9,13.6-10.9c5,0,10,1.8,13.5,4.4l-3.4,6c-3.3-2.3-6.5-3.4-10.3-3.4
		s-5.5,1.5-5.5,3.6c0,2,1.4,3.4,7.4,5.8c8.9,3.4,13.5,5.9,13.5,13.4C1730.4,153.9,1723.2,156.8,1715.4,156.8z"/>
	<path class="st1" d="M1758.7,155c-1.9,1.1-4.6,1.8-7.7,1.8c-5.5,0-9-3.4-9-10.6v-23h-5.7v-7.1h5.7v-11.4l7.7-4.1v15.5h9.9v7.1h-9.9
		v21.7c0,3.7,1.2,4.8,4.1,4.8c2.1,0,4.3-0.8,5.8-1.6L1758.7,155z"/>
	<path class="st1" d="M1792.4,156v-3.8c-2.9,2.7-6.2,4.6-10.4,4.6c-8.6,0-15.4-6.2-15.4-21.4c0-13.7,7.4-20.1,15.7-20.1
		c4,0,7.8,2.1,10,4.6v-15.3l7.8-4V156H1792.4L1792.4,156z M1792.5,127.7c-1.7-2.4-5.4-5.2-9.3-5.2c-5.6,0-8.7,4.3-8.7,12.7
		c0,10,3.2,14.4,9,14.4c3.7,0,7-2.5,9-5.1V127.7z"/>
	<path class="st1" d="M1827.4,156.8c-10,0-17.6-8.3-17.6-20.7c0-13.1,7.8-20.8,17.8-20.8c10.2,0,17.8,8.1,17.8,20.6
		C1845.4,149.1,1837.6,156.8,1827.4,156.8z M1827.3,122.7c-5.9,0-9.6,5.2-9.6,13.1c0,8.7,4,13.5,10,13.5c5.9,0,9.8-6,9.8-13.3
		C1837.5,128,1833.6,122.7,1827.3,122.7z"/>
	<path class="st1" d="M1879,156v-3.8c-2,2.9-5.9,4.6-10,4.6c-9.3,0-14.2-6.1-14.2-17.9V116h7.8v22.6c0,8.1,3,10.9,8.2,10.9
		s8.2-3.7,8.2-10.2V116h7.8v39.9L1879,156L1879,156z"/>
	<path class="st1" d="M1917.4,155c-1.9,1.1-4.6,1.8-7.7,1.8c-5.5,0-9-3.4-9-10.6v-23h-5.7v-7.1h5.7v-11.4l7.7-4.1v15.5h9.9v7.1h-9.9
		v21.7c0,3.7,1.2,4.8,4.1,4.8c2.1,0,4.3-0.8,5.8-1.6L1917.4,155z"/>
</g>
<g>
	<rect x="187.9" y="198.8" class="st4" width="438" height="78"/>
	<path class="st1" d="M206.6,255c-5.4,0-11.2-2.1-15.3-5.1l3.6-5.9c3.7,2.6,7.9,4,11.6,4c4.9,0,7.3-1.6,7.3-4.4c0-3-3.5-4.5-9.3-6.7
		c-8.6-3.3-11.7-6.2-11.7-12.5c0-7.1,5.6-10.9,13.6-10.9c5,0,10,1.8,13.5,4.4l-3.4,6c-3.3-2.3-6.5-3.4-10.3-3.4s-5.5,1.5-5.5,3.6
		c0,2,1.4,3.4,7.4,5.8c8.9,3.4,13.5,5.9,13.5,13.4C221.6,252.1,214.4,255,206.6,255z"/>
	<path class="st1" d="M249.9,253.2c-1.9,1.1-4.6,1.8-7.7,1.8c-5.5,0-9-3.4-9-10.6v-23h-5.7v-7.1h5.7v-11.4l7.7-4.1v15.5h9.9v7.1
		h-9.9v21.7c0,3.7,1.2,4.8,4.1,4.8c2.1,0,4.3-0.8,5.8-1.6L249.9,253.2z"/>
	<path class="st1" d="M283.6,254.2v-3.8c-2.9,2.7-6.2,4.6-10.4,4.6c-8.6,0-15.4-6.2-15.4-21.4c0-13.7,7.4-20.1,15.7-20.1
		c4,0,7.8,2.1,10,4.6v-15.3l7.8-4v55.4L283.6,254.2L283.6,254.2z M283.7,225.9c-1.7-2.4-5.4-5.2-9.3-5.2c-5.6,0-8.7,4.3-8.7,12.7
		c0,10,3.2,14.4,9,14.4c3.7,0,7-2.5,9-5.1V225.9z"/>
	<path class="st1" d="M307.2,209.1c-2.8,0-5.1-2.3-5.1-5c0-2.8,2.3-5.1,5.1-5.1c2.7,0,5,2.3,5,5.1S310,209.1,307.2,209.1z
		 M303.3,254.2v-39.9h7.8v39.9L303.3,254.2L303.3,254.2z"/>
	<path class="st1" d="M347.3,254.2v-22.6c0-8.1-3-10.9-8.2-10.9s-8.2,3.7-8.2,10.2v23.3h-7.8v-39.9h7.8v3.8c2-2.9,5.9-4.6,10-4.6
		c9.3,0,14.2,6.1,14.2,17.9v22.9L347.3,254.2L347.3,254.2z"/>
</g>
<g>
	<rect x="1696.7" y="497.7" class="st4" width="438" height="78"/>
	<path class="st1" d="M1715.4,553.9c-5.4,0-11.2-2.1-15.3-5.1l3.6-5.9c3.7,2.6,7.9,4,11.6,4c4.9,0,7.3-1.6,7.3-4.4
		c0-3-3.5-4.5-9.3-6.7c-8.6-3.3-11.7-6.2-11.7-12.5c0-7.1,5.6-10.9,13.6-10.9c5,0,10,1.8,13.5,4.4l-3.4,6c-3.3-2.3-6.5-3.4-10.3-3.4
		s-5.5,1.5-5.5,3.6c0,2,1.4,3.4,7.4,5.8c8.9,3.4,13.5,5.9,13.5,13.4C1730.4,551,1723.2,553.9,1715.4,553.9z"/>
	<path class="st1" d="M1758.7,552.1c-1.9,1.1-4.6,1.8-7.7,1.8c-5.5,0-9-3.4-9-10.6v-23h-5.7v-7.1h5.7v-11.4l7.7-4.1v15.5h9.9v7.1
		h-9.9V542c0,3.7,1.2,4.8,4.1,4.8c2.1,0,4.3-0.8,5.8-1.6L1758.7,552.1z"/>
	<path class="st1" d="M1792.4,553.1v-3.8c-2.9,2.7-6.2,4.6-10.4,4.6c-8.6,0-15.4-6.2-15.4-21.4c0-13.7,7.4-20.1,15.7-20.1
		c4,0,7.8,2.1,10,4.6v-15.3l7.8-4v55.4H1792.4L1792.4,553.1z M1792.5,524.8c-1.7-2.4-5.4-5.2-9.3-5.2c-5.6,0-8.7,4.3-8.7,12.7
		c0,10,3.2,14.4,9,14.4c3.7,0,7-2.5,9-5.1V524.8z"/>
	<path class="st1" d="M1843.8,535.9h-26.4c0.8,7.7,5.2,10.9,10,10.9c3.3,0,6-1.2,8.7-3.2l4.6,5c-3.5,3.3-7.7,5.2-13.8,5.2
		c-9.3,0-17.3-7.5-17.3-20.7c0-13.5,7.1-20.8,17.5-20.8c11.3,0,16.8,9.2,16.8,20C1844.1,533.8,1843.9,535.1,1843.8,535.9z
		 M1826.7,519.4c-5.2,0-8.4,3.6-9.1,10h18.5C1835.8,524,1833.2,519.4,1826.7,519.4z"/>
	<path class="st1" d="M1875.5,521.5c-1.7-0.9-3.4-1.4-6-1.4c-4.9,0-7.8,3.5-7.8,10.3v22.8h-7.8v-39.9h7.8v3.8
		c1.8-2.7,5.2-4.6,9.1-4.6c3.2,0,5.2,0.6,6.8,1.7L1875.5,521.5z"/>
	<path class="st1" d="M1907.2,521.5c-1.7-0.9-3.4-1.4-6-1.4c-4.9,0-7.8,3.5-7.8,10.3v22.8h-7.8v-39.9h7.8v3.8
		c1.8-2.7,5.2-4.6,9.1-4.6c3.2,0,5.2,0.6,6.8,1.7L1907.2,521.5z"/>
</g>
<g>
	<g>
		<line class="st5" x1="1698.3" y1="178.6" x2="2196.3" y2="178.6"/>
		<g>
			<polygon class="st1" points="2188.9,208.5 2233.4,178.6 2188.9,148.7 			"/>
		</g>
	</g>
</g>
<g>
	<g>
		<line class="st5" x1="1700.1" y1="577.7" x2="2416.6" y2="577.7"/>
		<g>
			<polygon class="st1" points="2407.1,607.6 2463.9,577.7 2407.1,547.8 			"/>
		</g>
	</g>
</g>
<g>
	<g>
		<line class="st5" x1="139.4" y1="286.1" x2="627.2" y2="286.1"/>
		<g>
			<polygon class="st1" points="617.7,316 674.5,286.1 617.7,256.2 			"/>
		</g>
	</g>
</g>
<g>
	<path class="st1" d="M712.8,717.5c-2,0.1-4,0.4-5.9,0.4c-204.5,0-408.9,0-613.4,0c-2,0-4,0-6.3,0c0-81.7,0-163.1,0-245
		c98.4,0,196.8,0,295.8,0c-1.2-5.8-2.5-10.9-3.4-16c-3.4-19.9,6.4-37.7,24.9-45.7c15.5-6.8,31.8-8.4,48.3-8.5
		c17.2-0.2,34.3,0.6,51.4-0.4c9-0.5,18.1-3.1,26.5-6.4c11.2-4.4,15.7-14.8,14.9-28.9c-1.1-18.1-1.9-36.2-2.8-54.4
		c-0.1-1.6,0.2-3.3,0.3-5.5c5.6,0.5,10.8,0.9,16.5,1.3c0,4.2-0.2,8.3,0,12.3c0.8,15.3,2,30.6,2.5,45.9c0.8,23.6-6.6,38.3-30.8,47.1
		c-14.3,5.2-29.1,6.4-44.2,6.4c-17.8,0-35.7-0.3-53.4,0.8c-8.2,0.5-16.6,3.4-24.2,6.9c-15.1,6.9-15.4,20.3-12.3,32.2
		c3.4,12.8,3.6,12.7,16.7,12.7c97.3,0,194.6,0,291.9,0c2.3,0,4.6-0.2,7-0.3C712.8,554.2,712.8,635.8,712.8,717.5z M400.5,689.6
		c65,0,130,0,194.9,0.1c4.3,0,5.9-1,5.7-5.6c-0.3-8.7-0.4-17.3,0-26c0.3-5.2-1.5-6.4-6.5-6.3c-53.8,0.2-107.6,0.1-161.4,0.1
		c-75.8,0-151.6,0-227.4-0.1c-4.6,0-6.1,1.2-6,5.9c0.3,8.5,0.1,17,0.1,25.5c0,6.4,0,6.5,6.7,6.5
		C271.2,689.6,335.9,689.6,400.5,689.6z M415.4,642c0-12.6,0-24.7,0-37c-10.5,0-20.7,0-31.1,0c0,12.5,0,24.7,0,37
		C394.8,642,404.9,642,415.4,642z M613.9,689.3c1.7,0.1,3,0.3,4.3,0.3c8.2,0,16.3,0.1,24.4-0.2c1,0,2.7-2.2,2.8-3.4
		c0.3-7,0.1-14,0.1-21c0-13.1,0-13.1-12.9-13.1c-6.2,0-12.5,0-18.8,0C613.9,664.7,613.9,676.7,613.9,689.3z M185.4,689.5
		c0-12.9,0-25.1,0-37.7c-9.7,0-19-0.1-28.3,0.1c-1.1,0-2.9,2.1-3,3.3c-0.2,10.3-0.2,20.6,0,31c0,1.1,1.9,3.1,3,3.2
		C166.4,689.7,175.7,689.5,185.4,689.5z M475.8,642.2c10.2,0,19.7,0.1,29.1-0.1c1,0,2.7-1.9,2.7-3c0.2-10.5,0.2-20.9,0-31.4
		c0-1-1.8-2.9-2.8-2.9c-8.6-0.2-17.3-0.2-25.9,0c-1,0-2.9,1.8-2.9,2.8C475.7,618.8,475.8,630.1,475.8,642.2z M154,551.6
		c0,11.9-0.1,23.4,0.1,34.8c0,0.9,1.4,2.5,2.2,2.5c9.7,0.2,19.5,0.1,29.2,0.1c0-12.9,0-25.1,0-37.4C175,551.6,164.9,551.6,154,551.6
		z M614.1,551.6c0,12.7,0,24.9,0,37.5c9.6,0,18.9,0,28.2,0c2.7,0,3.4-1.3,3.3-3.7c-0.1-7.1,0-14.3,0-21.4c0-4.1,0-8.2,0-12.4
		C634.6,551.6,624.5,551.6,614.1,551.6z M384.2,551.7c0,12.7,0,24.8,0,37.1c10.6,0,20.8,0,31.1,0c0-12.6,0-24.8,0-37.1
		C404.8,551.7,394.7,551.7,384.2,551.7z M429.7,551.7c0,11.7,0.1,22.9,0,34c0,3.1,1.7,3.5,4.2,3.5c7.7-0.1,15.3-0.2,23,0.1
		c4.2,0.2,5.1-1.6,5-5.3c-0.2-6.7-0.1-13.3-0.1-20c0-4.1,0-8.2,0-12.3C450.6,551.7,440.5,551.7,429.7,551.7z M476.2,551.6
		c0,12.7,0,24.8,0,37.1c10.7,0,20.9,0,31.1,0c0-12.6,0-24.8,0-37.1C496.8,551.6,486.7,551.6,476.2,551.6z M521.8,589.1
		c10.1,0,19.7,0.1,29.3-0.1c0.8,0,2.3-1.5,2.4-2.3c0.2-11.6,0.1-23.2,0.1-34.8c-11,0-21.3,0-31.7,0
		C521.8,564.3,521.8,576.2,521.8,589.1z M567.6,551.7c0,11.9-0.1,23.3,0.2,34.7c0,0.9,2.3,2.6,3.6,2.6c8.1,0.2,16.3,0,24.4,0.2
		c3.2,0.1,3.9-1.5,3.9-4.3c-0.1-5.6,0-11.3,0-16.9c0-5.4,0-10.8,0-16.3C588.7,551.7,578.6,551.7,567.6,551.7z M154,641.8
		c10.8,0,21.2,0,31.5,0c0-12.5,0-24.5,0-37.1c-9.9,0-19.5-0.1-29.1,0.1c-0.8,0-2.3,1.5-2.3,2.4C154,618.6,154,630,154,641.8z
		 M277.9,641.9c0-11.9,0.1-23.1-0.2-34.4c0-1-2.2-2.7-3.4-2.8c-8.3-0.2-16.6-0.1-24.9-0.2c-2.6,0-3.5,1-3.5,3.6
		c0.1,6.8,0,13.6,0,20.5c0,4.4,0,8.8,0,13.3C256.9,641.9,267,641.9,277.9,641.9z M323.7,642.2c0-12.1,0.1-23.3-0.1-34.6
		c0-1-1.9-2.8-2.9-2.8c-8.6-0.2-17.3-0.2-25.9,0c-1,0-2.8,1.8-2.9,2.8c-0.2,10.5-0.2,21,0,31.4c0,1.1,1.7,3,2.7,3
		C304.1,642.3,313.5,642.2,323.7,642.2z M553.5,641.9c0-11.9,0.1-23.3-0.1-34.8c0-0.9-2.1-2.4-3.2-2.4c-8.3-0.2-16.6,0-24.9-0.2
		c-2.9,0-3.7,1.2-3.6,3.9c0.1,4.8,0,9.6,0,14.5c0,6.2,0,12.5,0,19C532.5,641.9,542.6,641.9,553.5,641.9z M599.6,623.5
		c0-5-0.1-10,0-15c0.1-2.7-0.8-4-3.7-3.9c-8.2,0.1-16.3,0.1-24.5,0c-2.7,0-3.9,0.9-3.9,3.8c0.1,10,0.1,20,0,30c0,2.7,0.8,4,3.7,3.9
		c8.2-0.1,16.3-0.1,24.5,0c3.2,0.1,4-1.5,3.9-4.3C599.5,633.2,599.6,628.3,599.6,623.5z M613.7,604.7c0,6.8,0,12.8,0,18.8
		c0,6.1,0,12.2,0,18.7c10,0,19.3,0.1,28.6-0.1c1.1,0,3-2,3-3.1c0.2-10.3,0.2-20.7,0-31c0-1.1-1.7-3.1-2.7-3.1
		C633.3,604.6,623.8,604.7,613.7,604.7z M337.9,551.7c0,11.9-0.1,23.3,0.2,34.8c0,0.9,2.4,2.5,3.7,2.6c5.6,0.3,11.3,0.1,17,0.1
		c11.1,0,11.1,0,11.1-10.9c0-8.8,0-17.5,0-26.5C359,551.7,348.9,551.7,337.9,551.7z M292,589.1c10,0,19.8,0.1,29.5-0.2
		c0.8,0,2.1-2.6,2.1-4.1c0.2-9,0.1-18,0.1-26.9c0-2.1,0-4.1,0-6c-11.2,0-21.4,0-31.7,0C292,564.3,292,576.4,292,589.1z M246,551.7
		c0,11.8-0.1,23.1,0.1,34.4c0,1,2.1,2.8,3.3,2.9c5.8,0.3,11.6,0.1,17.4,0.1c3.6,0,7.1,0,10.7,0c0-13,0-25.1,0-37.4
		C267.1,551.7,256.9,551.7,246,551.7z M199.9,551.7c0,11.9-0.1,23.3,0.2,34.8c0,0.9,2.4,2.5,3.7,2.5c8,0.2,16,0,24,0.2
		c3.5,0.1,4.3-1.5,4.2-4.5c-0.2-4.7,0-9.3,0-14c0-6.3,0-12.5,0-19C221,551.7,210.9,551.7,199.9,551.7z M108.6,551.7
		c0,12.6,0,24.8,0,37.4c9.7,0,19,0.1,28.3-0.1c1,0,2.9-1.5,2.9-2.3c0.2-11.6,0.1-23.2,0.1-35C129.2,551.7,119.1,551.7,108.6,551.7z
		 M185.6,498.3c-9.9,0-19.4-0.1-28.8,0.1c-1,0-2.7,1.7-2.7,2.6c-0.2,11.4-0.1,22.9-0.1,34.6c10.9,0,21.1,0,31.6,0
		C185.6,523.4,185.6,511.3,185.6,498.3z M200,535.9c10.2,0,20,0.1,29.8-0.2c0.8,0,2.1-2.3,2.1-3.6c0.2-10,0.1-20,0.1-29.9
		c0-2.6-0.8-4-3.7-4c-8.3,0.1-16.6-0.1-24.9,0.1c-1.1,0-3.2,1.7-3.2,2.6C199.9,512.4,200,523.8,200,535.9z M108.2,642.2
		c10.1,0,19.4,0.1,28.7-0.2c1.1,0,3-2.4,3-3.7c0.3-10,0.1-20,0.2-29.9c0-2.4-0.7-3.7-3.4-3.7c-8.5,0.1-17-0.1-25.4,0.1
		c-1,0-2.9,1.8-2.9,2.8C108.1,618.9,108.2,630.1,108.2,642.2z M323.7,535.7c0-11.7,0.1-22.9-0.1-34c0-1.1-1.9-3.2-3-3.2
		c-8.5-0.3-17-0.3-25.5,0c-1.1,0-3.1,1.7-3.2,2.6c-0.2,11.5-0.1,22.9-0.1,34.7C302.5,535.7,312.8,535.7,323.7,535.7z M199.9,623.4
		c0,5,0.1,10,0,15c-0.1,2.8,1,3.9,3.8,3.8c8.2-0.1,16.3-0.1,24.5,0c2.9,0,3.8-1.1,3.8-3.9c-0.1-10-0.1-20,0-30
		c0-2.8-1.1-3.9-3.8-3.8c-8.2,0.1-16.3,0.1-24.5,0c-2.8,0-3.8,1.1-3.8,3.9C200,613.4,199.9,618.4,199.9,623.4z M507.7,535.7
		c0-11.7,0.1-22.8-0.1-34c0-1.1-1.9-3.2-2.9-3.2c-8.7-0.3-17.3-0.2-26,0c-1,0-2.7,1.6-2.7,2.5c-0.2,11.5-0.1,22.9-0.1,34.7
		C486.6,535.7,496.8,535.7,507.7,535.7z M108.5,689.5c9.8,0,19.1,0.1,28.4-0.1c1.1,0,3-2.1,3-3.2c0.2-10.2,0.1-20.3,0.2-30.5
		c0-2.8-1-3.9-3.8-3.8c-8.2,0.1-16.3,0.1-24.5,0c-3-0.1-3.6,1.4-3.6,4c0.1,9.2,0,18.3,0,27.5C108.2,685.2,108.3,687.2,108.5,689.5z
		 M369.8,536c0-12.1,0.1-23.4-0.2-34.7c0-1-2.2-2.8-3.4-2.9c-8.3-0.3-16.6-0.3-24.9,0c-1.2,0-3.3,2.2-3.3,3.5
		c-0.3,10.3-0.2,20.6,0,30.9c0,1.1,1.7,2.9,2.7,3C350.1,536.1,359.6,536,369.8,536z M429.6,623.6c0,4.7,0.1,9.3,0,14
		c-0.1,3.3,0.8,4.8,4.5,4.7c7.8-0.2,15.7-0.2,23.5,0c3,0.1,4.2-0.9,4.2-4c-0.1-9.8-0.1-19.7,0-29.5c0.1-3.4-1.3-4.3-4.5-4.2
		c-7.7,0.1-15.3,0.2-23,0c-3.9-0.1-4.9,1.5-4.7,5C429.8,614.2,429.6,618.9,429.6,623.6z M461.7,517c0-4.8-0.1-9.6,0-14.5
		c0.1-2.8-0.7-4.3-3.9-4.3c-8.1,0.1-16.3,0.1-24.5,0c-2.9,0-3.7,1.3-3.7,3.9c0.1,10,0.1,20,0,29.9c0,2.7,0.8,3.9,3.7,3.9
		c8.3-0.1,16.6-0.1,25,0c2.6,0,3.5-1,3.5-3.6C461.6,527.3,461.7,522.1,461.7,517z M337.9,623.2c0,5,0.1,10,0,15
		c-0.1,3,1,4.1,4.1,4.1c8-0.2,16-0.2,24,0c3.1,0.1,4-1.2,4-4.2c-0.1-9.8-0.1-19.6,0-29.5c0-3.1-1.2-4.1-4.1-4.1c-8,0.1-16,0.1-24,0
		c-3.1-0.1-4.1,1.3-4,4.2C338,613.6,337.9,618.4,337.9,623.2z M553.6,535.7c0-11.8,0.1-22.9-0.1-34.1c0-1.1-2-3.1-3.1-3.2
		c-8.5-0.3-17-0.2-25.5,0c-1.1,0-3.1,1.7-3.1,2.6c-0.2,11.4-0.1,22.9-0.1,34.6C532.4,535.7,542.6,535.7,553.6,535.7z M108.7,498.3
		c0,12.8,0,25.1,0,37.2c10.7,0,20.8,0,31.4,0c0-11.6,0.1-22.7-0.1-33.8c0-1.1-2-3.2-3.1-3.2C127.6,498.2,118.3,498.3,108.7,498.3z
		 M415.7,535.7c0-11.8,0.1-23.2-0.1-34.7c0-0.9-2-2.5-3.1-2.6c-8.5-0.2-17-0.2-25.4,0c-1,0-2.9,1.5-2.9,2.3
		c-0.2,11.6-0.1,23.1-0.1,35C394.7,535.7,405,535.7,415.7,535.7z M613.9,498.3c0,12.9,0,25,0,37.2c10.6,0,20.9,0,31.6,0
		c0-11.6,0.1-22.7-0.1-33.9c0-1.1-2-3.2-3.1-3.2C633,498.2,623.7,498.3,613.9,498.3z M599.6,536c0-12.2,0.1-23.5-0.1-34.8
		c0-1-1.9-2.8-3-2.8c-8.5-0.2-17-0.3-25.5,0c-1.2,0-3.2,2-3.3,3c-0.3,10.5-0.2,21,0,31.5c0,1,1.8,2.9,2.8,2.9
		C579.9,536.1,589.4,536,599.6,536z M277.8,535.9c0-12,0.1-23.5-0.1-35c0-0.9-2-2.6-3.1-2.6c-8.5-0.2-17-0.2-25.5,0
		c-1.1,0-3,2.1-3,3.2c-0.2,10.3-0.2,20.7,0,31c0,1.1,1.6,3.1,2.5,3.1C258.2,536,267.8,535.9,277.8,535.9z M691.1,642.2
		c0-12.1,0.1-23.7-0.1-35.3c0-0.7-2-2.1-3.1-2.1c-8.3-0.2-16.7-0.2-25,0c-1.2,0-3.2,1.9-3.3,3c-0.2,10.5-0.2,21,0,31.5
		c0,1,1.6,2.7,2.5,2.8C671.6,642.2,681,642.2,691.1,642.2z M659.5,551.7c0,11.7,0.1,22.8,0,33.9c0,3.1,1.6,3.5,4.1,3.5
		c7.8-0.1,15.6-0.1,23.4,0c3.3,0.1,4.4-1,4.3-4.3c-0.2-8.3,0-16.6,0-24.9c0-2.7,0-5.5,0-8.3C680.3,551.7,670.2,551.7,659.5,551.7z
		 M691.2,671.2c0-5.2-0.1-10.3,0-15.5c0.1-2.6-0.7-4-3.7-3.9c-8.1,0.1-16.3,0.1-24.4,0c-2.9,0-3.7,1.3-3.7,3.9c0.1,10,0.1,20,0,29.9
		c0,2.7,0.9,3.9,3.7,3.9c8.1-0.1,16.3-0.1,24.4,0c3,0,3.7-1.3,3.6-3.9C691.1,680.9,691.2,676,691.2,671.2z M691.2,535.6
		c0-11.7,0.1-23.2-0.1-34.6c0-0.9-2-2.5-3.1-2.6c-8.3-0.2-16.6-0.2-25,0c-1.2,0-3.3,1.6-3.3,2.5c-0.2,11.4-0.1,22.9-0.1,34.7
		C670.2,535.6,680.4,535.6,691.2,535.6z"/>
	<path class="st0" d="M400.5,689.6c-64.6,0-129.3,0-193.9,0c-6.6,0-6.6,0-6.7-6.5c0-8.5,0.2-17-0.1-25.5c-0.2-4.7,1.4-5.9,6-5.9
		c75.8,0.1,151.6,0.1,227.4,0.1c53.8,0,107.6,0.1,161.4-0.1c5,0,6.8,1.1,6.5,6.3c-0.4,8.6-0.4,17.3,0,26c0.2,4.5-1.4,5.6-5.7,5.6
		C530.5,689.5,465.5,689.6,400.5,689.6z"/>
	<path class="st0" d="M415.4,642c-10.5,0-20.6,0-31.1,0c0-12.3,0-24.5,0-37c10.4,0,20.6,0,31.1,0C415.4,617.3,415.4,629.4,415.4,642
		z"/>
	<path class="st0" d="M613.9,689.3c0-12.6,0-24.5,0-37.4c6.3,0,12.6,0,18.8,0c12.9,0,12.9,0,12.9,13.1c0,7,0.1,14-0.1,21
		c0,1.2-1.8,3.4-2.8,3.4c-8.1,0.3-16.3,0.2-24.4,0.2C616.9,689.6,615.6,689.4,613.9,689.3z"/>
	<path class="st0" d="M185.4,689.5c-9.7,0-19,0.1-28.3-0.1c-1.1,0-3-2-3-3.2c-0.2-10.3-0.2-20.6,0-31c0-1.2,1.9-3.2,3-3.3
		c9.3-0.3,18.6-0.1,28.3-0.1C185.4,664.4,185.4,676.6,185.4,689.5z"/>
	<path class="st0" d="M475.8,642.2c0-12.1-0.1-23.4,0.1-34.7c0-1,1.9-2.8,2.9-2.8c8.6-0.2,17.3-0.2,25.9,0c1,0,2.8,1.9,2.8,2.9
		c0.2,10.5,0.2,20.9,0,31.4c0,1.1-1.7,3-2.7,3C495.4,642.3,486,642.2,475.8,642.2z"/>
	<path class="st0" d="M154,551.6c10.9,0,21,0,31.5,0c0,12.4,0,24.6,0,37.4c-9.7,0-19.5,0.1-29.2-0.1c-0.8,0-2.2-1.6-2.2-2.5
		C153.9,575,154,563.6,154,551.6z"/>
	<path class="st0" d="M614.1,551.6c10.5,0,20.6,0,31.5,0c0,4.2,0,8.3,0,12.4c0,7.1,0,14.3,0,21.4c0,2.4-0.6,3.7-3.3,3.7
		c-9.3-0.1-18.5,0-28.2,0C614.1,576.5,614.1,564.3,614.1,551.6z"/>
	<path class="st0" d="M384.2,551.7c10.5,0,20.6,0,31.1,0c0,12.4,0,24.5,0,37.1c-10.3,0-20.5,0-31.1,0
		C384.2,576.5,384.2,564.3,384.2,551.7z"/>
	<path class="st0" d="M429.7,551.7c10.9,0,21,0,32,0c0,4.1,0,8.2,0,12.3c0,6.7-0.2,13.3,0.1,20c0.1,3.7-0.8,5.4-5,5.3
		c-7.6-0.3-15.3-0.1-23-0.1c-2.5,0-4.2-0.4-4.2-3.5C429.7,574.6,429.7,563.4,429.7,551.7z"/>
	<path class="st0" d="M476.2,551.6c10.5,0,20.6,0,31.1,0c0,12.3,0,24.5,0,37.1c-10.3,0-20.5,0-31.1,0
		C476.2,576.5,476.2,564.3,476.2,551.6z"/>
	<path class="st0" d="M521.8,589.1c0-12.9,0-24.8,0-37.2c10.4,0,20.7,0,31.7,0c0,11.6,0.1,23.2-0.1,34.8c0,0.8-1.5,2.3-2.4,2.3
		C541.5,589.2,531.9,589.1,521.8,589.1z"/>
	<path class="st0" d="M567.6,551.7c11,0,21.1,0,32,0c0,5.5,0,10.9,0,16.3c0,5.6-0.1,11.3,0,16.9c0.1,2.8-0.6,4.3-3.9,4.3
		c-8.1-0.2-16.3,0.1-24.4-0.2c-1.3,0-3.6-1.7-3.6-2.6C567.5,575,567.6,563.6,567.6,551.7z"/>
	<path class="st0" d="M154,641.8c0-11.8-0.1-23.2,0.1-34.6c0-0.8,1.5-2.4,2.3-2.4c9.6-0.2,19.2-0.1,29.1-0.1c0,12.6,0,24.6,0,37.1
		C175.2,641.8,164.8,641.8,154,641.8z"/>
	<path class="st0" d="M277.9,641.9c-10.9,0-21,0-31.9,0c0-4.5,0-8.9,0-13.3c0-6.8,0.1-13.6,0-20.5c0-2.5,0.9-3.6,3.5-3.6
		c8.3,0.1,16.6-0.1,24.9,0.2c1.2,0,3.4,1.8,3.4,2.8C277.9,618.8,277.9,630.1,277.9,641.9z"/>
	<path class="st0" d="M323.7,642.2c-10.2,0-19.7,0.1-29.1-0.1c-1,0-2.7-1.9-2.7-3c-0.2-10.5-0.2-21,0-31.4c0-1,1.8-2.8,2.9-2.8
		c8.6-0.2,17.3-0.2,25.9,0c1,0,2.9,1.8,2.9,2.8C323.8,618.8,323.7,630.1,323.7,642.2z"/>
	<path class="st0" d="M553.5,641.9c-11,0-21,0-31.9,0c0-6.5,0-12.7,0-19c0-4.8,0.1-9.6,0-14.5c-0.1-2.7,0.7-4,3.6-3.9
		c8.3,0.1,16.6-0.1,24.9,0.2c1.1,0,3.2,1.6,3.2,2.4C553.6,618.6,553.5,630,553.5,641.9z"/>
	<path class="st0" d="M599.6,623.5c0,4.8-0.1,9.7,0,14.5c0.1,2.8-0.7,4.3-3.9,4.3c-8.2-0.2-16.3-0.1-24.5,0c-2.9,0-3.7-1.2-3.7-3.9
		c0.1-10,0.1-20,0-30c0-2.9,1.2-3.8,3.9-3.8c8.2,0.1,16.3,0.1,24.5,0c2.9,0,3.8,1.2,3.7,3.9C599.5,613.5,599.6,618.5,599.6,623.5z"
		/>
	<path class="st0" d="M613.7,604.7c10.1,0,19.6-0.1,29,0.1c0.9,0,2.6,2,2.7,3.1c0.2,10.3,0.2,20.7,0,31c0,1.1-2,3.1-3,3.1
		c-9.3,0.3-18.6,0.1-28.6,0.1c0-6.5,0-12.6,0-18.7C613.7,617.5,613.7,611.5,613.7,604.7z"/>
	<path class="st0" d="M337.9,551.7c11,0,21.1,0,32,0c0,9,0,17.7,0,26.5c0,10.9,0,10.9-11.1,10.9c-5.7,0-11.3,0.2-17-0.1
		c-1.3-0.1-3.7-1.6-3.7-2.6C337.8,575,337.9,563.6,337.9,551.7z"/>
	<path class="st0" d="M292,589.1c0-12.7,0-24.8,0-37.2c10.3,0,20.5,0,31.7,0c0,1.9,0,4,0,6c0,9,0.1,18-0.1,26.9
		c0,1.4-1.3,4.1-2.1,4.1C311.8,589.2,302.1,589.1,292,589.1z"/>
	<path class="st0" d="M246,551.7c10.9,0,21.1,0,31.6,0c0,12.3,0,24.4,0,37.4c-3.6,0-7.2,0-10.7,0c-5.8,0-11.6,0.2-17.4-0.1
		c-1.2-0.1-3.3-1.8-3.3-2.9C245.9,574.9,246,563.6,246,551.7z"/>
	<path class="st0" d="M199.9,551.7c10.9,0,21.1,0,32,0c0,6.5,0,12.7,0,19c0,4.7-0.1,9.3,0,14c0.1,3-0.7,4.6-4.2,4.5
		c-8-0.2-16,0.1-24-0.2c-1.3,0-3.7-1.6-3.7-2.5C199.9,575.1,199.9,563.6,199.9,551.7z"/>
	<path class="st0" d="M108.6,551.7c10.5,0,20.6,0,31.4,0c0,11.8,0.1,23.4-0.1,35c0,0.8-1.9,2.3-2.9,2.3c-9.3,0.2-18.6,0.1-28.3,0.1
		C108.6,576.5,108.6,564.3,108.6,551.7z"/>
	<path class="st0" d="M185.6,498.3c0,13,0,25.1,0,37.3c-10.5,0-20.7,0-31.6,0c0-11.8-0.1-23.2,0.1-34.6c0-0.9,1.7-2.6,2.7-2.6
		C166.3,498.2,175.7,498.3,185.6,498.3z"/>
	<path class="st0" d="M200,535.9c0-12.1-0.1-23.5,0.1-34.9c0-0.9,2.1-2.5,3.2-2.6c8.3-0.2,16.6-0.1,24.9-0.1c2.9,0,3.7,1.3,3.7,4
		c-0.1,10,0.1,20-0.1,29.9c0,1.3-1.3,3.6-2.1,3.6C220,536,210.2,535.9,200,535.9z"/>
	<path class="st0" d="M108.2,642.2c0-12.1-0.1-23.3,0.1-34.6c0-1,1.9-2.8,2.9-2.8c8.5-0.2,17-0.1,25.4-0.1c2.7,0,3.4,1.3,3.4,3.7
		c-0.1,10,0.1,20-0.2,29.9c0,1.3-1.9,3.7-3,3.7C127.6,642.3,118.3,642.2,108.2,642.2z"/>
	<path class="st0" d="M323.7,535.7c-11,0-21.2,0-31.9,0c0-11.8-0.1-23.2,0.1-34.7c0-0.9,2-2.5,3.2-2.6c8.5-0.2,17-0.2,25.5,0
		c1.1,0,3,2.1,3,3.2C323.8,512.8,323.7,524,323.7,535.7z"/>
	<path class="st0" d="M199.9,623.4c0-5,0.1-10,0-15c-0.1-2.8,1-3.9,3.8-3.9c8.2,0.1,16.3,0.1,24.5,0c2.8,0,3.9,1,3.8,3.8
		c-0.1,10-0.1,20,0,30c0,2.7-0.9,3.9-3.8,3.9c-8.2-0.1-16.3-0.1-24.5,0c-2.8,0-3.9-1.1-3.8-3.8C200,633.4,199.9,628.4,199.9,623.4z"
		/>
	<path class="st0" d="M507.7,535.7c-10.9,0-21.1,0-31.9,0c0-11.8-0.1-23.2,0.1-34.7c0-0.9,1.8-2.5,2.7-2.5c8.7-0.2,17.3-0.2,26,0
		c1.1,0,2.9,2.1,2.9,3.2C507.8,512.8,507.7,524,507.7,535.7z"/>
	<path class="st0" d="M108.5,689.5c-0.1-2.4-0.3-4.3-0.3-6.3c0-9.2,0-18.3,0-27.5c0-2.6,0.6-4,3.6-4c8.2,0.1,16.3,0.1,24.5,0
		c2.8,0,3.8,1.1,3.8,3.8c-0.1,10.2,0.1,20.3-0.2,30.5c0,1.2-1.9,3.2-3,3.2C127.6,689.7,118.3,689.5,108.5,689.5z"/>
	<path class="st0" d="M369.8,536c-10.2,0-19.7,0.1-29.1-0.1c-1,0-2.7-1.9-2.7-3c-0.2-10.3-0.2-20.6,0-30.9c0-1.2,2.1-3.5,3.3-3.5
		c8.3-0.3,16.6-0.3,24.9,0c1.2,0,3.4,1.8,3.4,2.9C369.9,512.6,369.8,523.9,369.8,536z"/>
	<path class="st0" d="M429.6,623.6c0-4.7,0.2-9.3-0.1-14c-0.2-3.5,0.8-5.2,4.7-5c7.7,0.2,15.3,0.2,23,0c3.1-0.1,4.5,0.9,4.5,4.2
		c-0.2,9.8-0.1,19.7,0,29.5c0,3.1-1.2,4-4.2,4c-7.8-0.1-15.7-0.2-23.5,0c-3.6,0.1-4.6-1.4-4.5-4.7
		C429.8,632.9,429.6,628.2,429.6,623.6z"/>
	<path class="st0" d="M461.7,517c0,5.2-0.1,10.3,0,15.5c0.1,2.6-0.9,3.6-3.5,3.6c-8.3-0.1-16.6-0.1-25,0c-2.9,0-3.7-1.2-3.7-3.9
		c0.1-10,0.1-20,0-29.9c0-2.7,0.8-4,3.7-3.9c8.1,0.1,16.3,0.1,24.5,0c3.2-0.1,4,1.5,3.9,4.3C461.6,507.3,461.7,512.2,461.7,517z"/>
	<path class="st0" d="M337.9,623.2c0-4.8,0.1-9.7,0-14.5c-0.1-2.9,0.8-4.2,4-4.2c8,0.1,16,0.1,24,0c3,0,4.2,1,4.1,4.1
		c-0.1,9.8-0.1,19.6,0,29.5c0,2.9-0.9,4.2-4,4.2c-8-0.1-16-0.1-24,0c-3,0.1-4.2-1-4.1-4.1C338,633.2,337.9,628.2,337.9,623.2z"/>
	<path class="st0" d="M553.6,535.7c-10.9,0-21.2,0-31.9,0c0-11.8-0.1-23.2,0.1-34.6c0-0.9,2-2.6,3.1-2.6c8.5-0.2,17-0.2,25.5,0
		c1.1,0,3.1,2,3.1,3.2C553.7,512.8,553.6,523.9,553.6,535.7z"/>
	<path class="st0" d="M108.7,498.3c9.6,0,18.9-0.1,28.2,0.1c1.1,0,3,2.1,3.1,3.2c0.2,11.1,0.1,22.2,0.1,33.8c-10.6,0-20.7,0-31.4,0
		C108.7,523.4,108.7,511.1,108.7,498.3z"/>
	<path class="st0" d="M415.7,535.7c-10.7,0-20.9,0-31.8,0c0-11.8-0.1-23.4,0.1-35c0-0.8,1.9-2.3,2.9-2.3c8.5-0.2,17-0.2,25.4,0
		c1.1,0,3.1,1.7,3.1,2.6C415.7,512.4,415.7,523.9,415.7,535.7z"/>
	<path class="st0" d="M613.9,498.3c9.8,0,19.1-0.1,28.4,0.1c1.1,0,3,2.1,3.1,3.2c0.2,11.1,0.1,22.3,0.1,33.9c-10.7,0-21,0-31.6,0
		C613.9,523.3,613.9,511.2,613.9,498.3z"/>
	<path class="st0" d="M599.6,536c-10.2,0-19.6,0.1-29.1-0.1c-1,0-2.8-1.9-2.8-2.9c-0.2-10.5-0.2-21,0-31.5c0-1.1,2.1-3,3.3-3
		c8.5-0.3,17-0.2,25.5,0c1.1,0,3,1.8,3,2.8C599.7,512.5,599.6,523.8,599.6,536z"/>
	<path class="st0" d="M277.8,535.9c-10,0-19.6,0.1-29.3-0.1c-0.9,0-2.5-2-2.5-3.1c-0.2-10.3-0.2-20.7,0-31c0-1.1,1.9-3.2,3-3.2
		c8.5-0.3,17-0.3,25.5,0c1.1,0,3.1,1.7,3.1,2.6C277.9,512.4,277.8,523.9,277.8,535.9z"/>
	<path class="st0" d="M691.1,642.2c-10.1,0-19.6,0.1-29-0.1c-0.9,0-2.5-1.8-2.5-2.8c-0.2-10.5-0.2-21,0-31.5c0-1.1,2.1-3,3.3-3
		c8.3-0.3,16.7-0.2,25,0c1.1,0,3.1,1.3,3.1,2.1C691.2,618.4,691.1,630.1,691.1,642.2z"/>
	<path class="st0" d="M659.5,551.7c10.8,0,20.8,0,31.8,0c0,2.8,0,5.5,0,8.3c0,8.3-0.1,16.6,0,24.9c0.1,3.2-1,4.4-4.3,4.3
		c-7.8-0.2-15.6-0.1-23.4,0c-2.5,0-4.1-0.4-4.1-3.5C659.5,574.6,659.5,563.4,659.5,551.7z"/>
	<path class="st0" d="M691.2,671.2c0,4.8-0.1,9.6,0,14.5c0.1,2.6-0.7,4-3.6,3.9c-8.1-0.1-16.3-0.1-24.4,0c-2.8,0-3.8-1.1-3.7-3.9
		c0.1-10,0.1-20,0-29.9c0-2.7,0.9-4,3.7-3.9c8.1,0.1,16.3,0.1,24.4,0c3,0,3.7,1.3,3.7,3.9C691.2,660.9,691.2,666.1,691.2,671.2z"/>
	<path class="st0" d="M691.2,535.6c-10.7,0-21,0-31.7,0c0-11.8-0.1-23.3,0.1-34.7c0-0.9,2.1-2.5,3.3-2.5c8.3-0.2,16.6-0.2,25,0
		c1.1,0,3.1,1.7,3.1,2.6C691.3,512.4,691.2,523.9,691.2,535.6z"/>
</g>
<g>
	<g>
		<g>
			<path class="st1" d="M2624.2,474.9c-0.5-0.6-1.3-0.9-2.1-0.9h-106.5c-1.6,0-2.9,1.3-2.9,2.9v193.2c0,1.6,1.3,2.9,2.9,2.9h140.9
				c1.6,0,2.9-1.3,2.9-2.9V512.3c0-0.8-0.3-1.5-0.8-2L2624.2,474.9z M2625,484.1l26.2,27H2625V484.1z M2518.5,479.8h100.7v32.9
				c0,0.2,0.1,0.4,0.1,0.6c0,0.2-0.1,0.4-0.1,0.6c0,1.6,1.3,2.9,2.9,2.9h31.5v150.4h-135.1L2518.5,479.8L2518.5,479.8z"/>
		</g>
	</g>
	<g>
		<path class="st1" d="M2630.9,543h-91.4c-1.2,0-2.2-1-2.2-2.2s1-2.2,2.2-2.2h91.3c1.2,0,2.2,1,2.2,2.2S2632.1,543,2630.9,543z"/>
	</g>
	<g>
		<path class="st1" d="M2612.3,565.4h-72.8c-1.2,0-2.2-1-2.2-2.2s1-2.2,2.2-2.2h72.7c1.2,0,2.2,1,2.2,2.2
			C2614.4,564.5,2613.5,565.4,2612.3,565.4z"/>
	</g>
	<g>
		<path class="st1" d="M2630.9,587.9h-91.4c-1.2,0-2.2-1-2.2-2.2s1-2.2,2.2-2.2h91.3c1.2,0,2.2,1,2.2,2.2S2632.1,587.9,2630.9,587.9
			z"/>
	</g>
	<g>
		<path class="st1" d="M2612.3,610.4h-72.8c-1.2,0-2.2-1-2.2-2.2s1-2.2,2.2-2.2h72.7c1.2,0,2.2,1,2.2,2.2S2613.5,610.4,2612.3,610.4
			z"/>
	</g>
	<g>
		<path class="st1" d="M2630.9,632.9h-91.4c-1.2,0-2.2-1-2.2-2.2s1-2.2,2.2-2.2h91.3c1.2,0,2.2,1,2.2,2.2S2632.1,632.9,2630.9,632.9
			z"/>
	</g>
</g>
</svg>
