<?xml version="1.0" encoding="utf-8"?>
<!-- Generator: Adobe Illustrator 15.0.0, SVG Export Plug-In . SVG Version: 6.00 Build 0)  -->
<!DOCTYPE svg PUBLIC "-//W3C//DTD SVG 1.1//EN" "http://www.w3.org/Graphics/SVG/1.1/DTD/svg11.dtd">
<svg version="1.1" id="Layer_1" xmlns="http://www.w3.org/2000/svg" xmlns:xlink="http://www.w3.org/1999/xlink" x="0px" y="0px"
	 width="471.333px" height="325.334px" viewBox="-34.028 -52.637 471.333 325.334"
	 enable-background="new -34.028 -52.637 471.333 325.334" xml:space="preserve">
<circle fill="none" stroke="#007C85" stroke-width="2.5" stroke-linecap="round" cx="199.083" cy="85.38" r="91.13"/>
<rect x="238.471" y="146.695" transform="matrix(0.7071 -0.7071 0.7071 0.7071 -40.301 221.4288)" fill="#FFFFFF" width="17.332" height="25.334"/>
<rect x="189.971" y="156.197" fill="#FFFFFF" width="17.333" height="25.333"/>
<rect x="141.971" y="145.696" transform="matrix(-0.7071 -0.7071 0.7071 -0.7071 145.1797 376.8578)" fill="#FFFFFF" width="17.333" height="25.333"/>
<path fill="#C5C7C8" stroke="#58595B" stroke-width="2" d="M202.248,36.768c-0.4-0.402-0.4-1.058,0-1.46l3.68-3.68
	c0.404-0.403,1.059-0.402,1.459,0l4.484,3.37c1.631-0.99,3.387-1.707,5.191-2.147l0.785-5.556c0-0.569,0.463-1.032,1.032-1.032
	h5.201c0.569,0,1.032,0.462,1.032,1.031l0.785,5.557c1.808,0.44,3.562,1.157,5.193,2.148l4.48-3.372
	c0.404-0.403,1.059-0.401,1.461,0.001l3.68,3.679c0.404,0.402,0.404,1.058,0.002,1.46l-3.373,4.481
	c0.992,1.635,1.709,3.387,2.15,5.193l5.555,0.784c0.57,0.002,1.033,0.464,1.033,1.032v5.202c0,0.569-0.463,1.033-1.033,1.033
	l-5.555,0.785c-0.441,1.808-1.158,3.562-2.15,5.193l3.371,4.481c0.404,0.401,0.404,1.058,0,1.461l-3.68,3.678
	c-0.402,0.404-1.057,0.402-1.461,0l-4.48-3.37c-1.635,0.991-3.387,1.708-5.193,2.149l-0.785,5.554c0,0.57-0.463,1.032-1.032,1.032
	h-5.201c-0.569,0.001-1.032-0.461-1.032-1.033l-0.785-5.554c-1.808-0.441-3.562-1.157-5.191-2.15l-4.484,3.371
	c-0.4,0.403-1.059,0.405-1.459,0.001l-3.68-3.678c-0.4-0.402-0.4-1.06,0-1.463l3.373-4.48c-0.992-1.633-1.709-3.387-2.148-5.192
	l-5.557-0.786c-0.568,0.001-1.035-0.461-1.035-1.031l0.004-5.203c0-0.569,0.463-1.03,1.031-1.03l5.557-0.785
	c0.439-1.81,1.156-3.562,2.148-5.194L202.248,36.768L202.248,36.768z M227.748,57.126c-3.461,3.459-9.066,3.46-12.525,0
	c-3.463-3.459-3.463-9.067-0.004-12.526c3.463-3.461,9.068-3.459,12.529,0C231.205,48.059,231.205,53.666,227.748,57.126
	L227.748,57.126z"/>
<path fill="#C5C7C8" stroke="#58595B" stroke-width="2" d="M156.252,46.804c-0.402-0.403-0.402-1.058,0.002-1.462l3.678-3.678
	c0.402-0.401,1.057-0.404,1.461-0.001l4.48,3.372c1.635-0.991,3.389-1.708,5.197-2.15l0.781-5.555c0-0.57,0.463-1.032,1.035-1.033
	l5.201,0.001c0.57-0.001,1.033,0.462,1.033,1.033l0.785,5.556c1.807,0.441,3.561,1.158,5.195,2.148l4.48-3.371
	c0.402-0.404,1.059-0.404,1.461,0l3.677,3.678c0.404,0.403,0.404,1.06,0,1.464l-3.37,4.479c0.99,1.634,1.709,3.388,2.149,5.193
	l5.556,0.786c0.569-0.002,1.032,0.461,1.03,1.031v5.201c0,0.571-0.463,1.035-1.03,1.032l-5.556,0.785
	c-0.44,1.808-1.16,3.562-2.151,5.192l3.372,4.482c0.404,0.402,0.402,1.059,0,1.461l-3.677,3.678
	c-0.404,0.404-1.059,0.404-1.461,0.001l-4.482-3.372c-1.633,0.992-3.387,1.709-5.193,2.15l-0.785,5.555
	c0,0.57-0.465,1.033-1.033,1.033h-5.203c-0.57,0-1.033-0.463-1.031-1.032l-0.787-5.556c-1.805-0.441-3.559-1.158-5.193-2.149
	l-4.48,3.372c-0.404,0.402-1.059,0.402-1.461-0.001l-3.678-3.679c-0.404-0.402-0.404-1.058,0-1.461l3.371-4.48
	c-0.992-1.633-1.709-3.387-2.15-5.193l-5.555-0.784c-0.572-0.002-1.033-0.464-1.033-1.033v-5.202
	c-0.002-0.569,0.461-1.032,1.033-1.032l5.555-0.783c0.441-1.81,1.158-3.562,2.15-5.195L156.252,46.804L156.252,46.804z
	 M181.75,67.163c-3.459,3.461-9.068,3.459-12.527,0s-3.461-9.068,0-12.527c3.459-3.459,9.07-3.461,12.529-0.001
	C185.211,58.094,185.211,63.704,181.75,67.163L181.75,67.163z"/>
<g>
	<g>
		
			<line fill="none" stroke="#58595B" stroke-width="2.5" stroke-linecap="round" stroke-linejoin="round" x1="198.484" y1="130.235" x2="198.484" y2="190.079"/>
		<polygon fill="#58595B" points="193.482,188.62 198.468,197.256 203.455,188.62 		"/>
	</g>
</g>
<g>
	<g>
		
			<line fill="none" stroke="#58595B" stroke-width="2.5" stroke-linecap="round" stroke-linejoin="round" x1="216.555" y1="129.363" x2="273.843" y2="185.642"/>
		<polygon fill="#58595B" points="269.393,188.351 279.132,190.493 276.117,180.987 		"/>
	</g>
</g>
<g>
	<g>
		
			<line fill="none" stroke="#58595B" stroke-width="2.5" stroke-linecap="round" stroke-linejoin="round" x1="181.086" y1="129.735" x2="123.083" y2="185.392"/>
		<polygon fill="#58595B" points="120.674,180.772 117.895,190.35 127.576,187.968 		"/>
	</g>
</g>
<g>
	<path fill="#58595B" d="M171.3,110.976l-1.357-3.817h-6.44l-1.334,3.817h-2.507l5.796-16.101h2.553l5.865,16.101H171.3z
		 M167.918,101.293c-0.092-0.291-0.199-0.612-0.322-0.966c-0.123-0.354-0.242-0.705-0.356-1.059
		c-0.115-0.354-0.223-0.68-0.322-0.979s-0.172-0.533-0.218-0.702c-0.046,0.169-0.115,0.403-0.207,0.702
		c-0.092,0.299-0.192,0.621-0.299,0.966c-0.107,0.346-0.218,0.701-0.333,1.069c-0.115,0.367-0.226,0.697-0.333,0.988l-1.288,3.681
		h4.968L167.918,101.293z"/>
	<path fill="#58595B" d="M186.457,107.836c-0.261,0.759-0.609,1.393-1.046,1.896c-0.437,0.507-0.943,0.883-1.518,1.127
		c-0.575,0.245-1.177,0.368-1.806,0.368c-0.613,0-1.188-0.14-1.725-0.418c-0.537-0.278-0.974-0.604-1.311-0.977v4.357l-2.346,1.224
		V98.9h2.346v1.165c0.444-0.402,0.92-0.739,1.426-1.011c0.506-0.271,1.081-0.407,1.725-0.407s1.25,0.123,1.817,0.368
		c0.567,0.246,1.062,0.629,1.483,1.149c0.422,0.521,0.751,1.191,0.989,2.014c0.237,0.819,0.356,1.805,0.356,2.955
		C186.848,106.177,186.717,107.078,186.457,107.836z M183.757,101.885c-0.466-0.686-1.134-1.028-2.004-1.028
		c-0.565,0-1.084,0.156-1.558,0.47c-0.473,0.312-0.862,0.667-1.168,1.062v5.054c0.138,0.184,0.306,0.366,0.504,0.55
		c0.199,0.184,0.42,0.351,0.664,0.503c0.245,0.151,0.504,0.277,0.779,0.377s0.565,0.147,0.871,0.147
		c0.855,0,1.504-0.315,1.947-0.948s0.664-1.59,0.664-2.87C184.456,103.677,184.223,102.573,183.757,101.885z"/>
	<path fill="#58595B" d="M196.552,110.976v-1.195c-0.413,0.413-0.903,0.759-1.471,1.034s-1.183,0.414-1.84,0.414
		c-0.491,0-0.985-0.072-1.483-0.219c-0.499-0.146-0.947-0.38-1.346-0.701c-0.399-0.322-0.724-0.744-0.977-1.266
		s-0.38-1.149-0.38-1.886c0-0.676,0.123-1.258,0.368-1.748c0.245-0.491,0.583-0.896,1.012-1.22c0.429-0.321,0.935-0.561,1.518-0.713
		s1.219-0.229,1.908-0.229c1.104,0,2.002,0.152,2.69,0.46v-0.896c0-0.659-0.194-1.165-0.586-1.519
		c-0.391-0.354-0.954-0.528-1.688-0.528c-0.629,0-1.192,0.062-1.69,0.185c-0.499,0.122-0.985,0.312-1.46,0.574l-0.92-1.794
		c0.583-0.354,1.203-0.621,1.863-0.806c0.659-0.184,1.418-0.275,2.278-0.275c1.348,0,2.44,0.333,3.276,1s1.254,1.684,1.254,3.048
		v8.28H196.552L196.552,110.976z M196.552,105.824c-0.321-0.168-0.7-0.3-1.137-0.392c-0.438-0.093-0.979-0.139-1.623-0.139
		c-0.767,0-1.373,0.161-1.816,0.482c-0.445,0.322-0.667,0.76-0.667,1.312c0,0.599,0.192,1.081,0.575,1.449
		c0.383,0.367,0.966,0.552,1.749,0.552c0.645,0,1.223-0.16,1.736-0.482c0.513-0.321,0.908-0.674,1.184-1.059L196.552,105.824
		L196.552,105.824z"/>
	<path fill="#58595B" d="M209.871,102.374c-0.492-0.506-0.971-0.877-1.438-1.115c-0.469-0.237-0.971-0.356-1.508-0.356
		c-0.873,0-1.562,0.356-2.068,1.07c-0.508,0.713-0.76,1.689-0.76,2.934c0,0.598,0.062,1.146,0.185,1.644
		c0.122,0.499,0.307,0.929,0.553,1.288c0.244,0.361,0.547,0.642,0.908,0.84c0.358,0.199,0.776,0.3,1.254,0.3
		c0.565,0,1.045-0.126,1.438-0.379c0.393-0.254,0.823-0.625,1.299-1.116l1.52,1.495c-0.23,0.308-0.482,0.595-0.76,0.861
		c-0.275,0.27-0.586,0.506-0.932,0.713c-0.347,0.207-0.732,0.372-1.162,0.494c-0.43,0.123-0.92,0.185-1.474,0.185
		c-0.733,0-1.422-0.148-2.059-0.447c-0.636-0.3-1.188-0.722-1.654-1.266c-0.469-0.544-0.836-1.2-1.104-1.967
		c-0.268-0.767-0.4-1.625-0.4-2.575c0-0.997,0.139-1.887,0.414-2.668c0.273-0.782,0.65-1.444,1.127-1.99
		c0.475-0.544,1.035-0.958,1.68-1.241c0.645-0.284,1.334-0.427,2.068-0.427c0.891,0,1.684,0.174,2.381,0.519s1.33,0.854,1.896,1.53
		L209.871,102.374z"/>
	<path fill="#58595B" d="M221.623,110.976v-6.814c0-1.225-0.219-2.081-0.65-2.57c-0.438-0.489-1.043-0.734-1.82-0.734
		c-0.795,0-1.403,0.269-1.832,0.804c-0.428,0.535-0.643,1.293-0.643,2.271v7.045h-2.393V95.452l2.393-1.242v5.856
		c0.309-0.448,0.732-0.798,1.277-1.046c0.543-0.248,1.129-0.372,1.758-0.372c1.412,0,2.48,0.453,3.209,1.356
		c0.729,0.905,1.094,2.254,1.094,4.048v6.924L221.623,110.976L221.623,110.976z"/>
	<path fill="#58595B" d="M237.169,105.307c-0.017,0.191-0.028,0.35-0.045,0.471h-7.979c0.062,0.583,0.186,1.081,0.367,1.495
		c0.184,0.414,0.413,0.755,0.688,1.022c0.276,0.27,0.584,0.469,0.92,0.599c0.338,0.13,0.69,0.194,1.06,0.194
		c0.506,0,0.969-0.084,1.391-0.253c0.424-0.168,0.832-0.405,1.229-0.713l1.404,1.519c-0.537,0.506-1.136,0.896-1.795,1.173
		c-0.658,0.275-1.449,0.414-2.369,0.414c-0.705,0-1.375-0.139-2.013-0.414c-0.637-0.275-1.192-0.683-1.668-1.22
		c-0.475-0.536-0.852-1.195-1.127-1.978c-0.274-0.783-0.414-1.672-0.414-2.668c0-1.027,0.132-1.933,0.392-2.715
		c0.263-0.781,0.621-1.438,1.082-1.966c0.459-0.528,1.017-0.933,1.668-1.208c0.649-0.275,1.367-0.414,2.149-0.414
		c0.857,0,1.605,0.161,2.242,0.482c0.638,0.322,1.164,0.76,1.586,1.312c0.422,0.553,0.736,1.196,0.943,1.933
		c0.207,0.735,0.311,1.511,0.311,2.322C237.193,104.912,237.186,105.115,237.169,105.307z M234.583,102.65
		c-0.115-0.367-0.289-0.689-0.519-0.966c-0.229-0.275-0.52-0.495-0.862-0.655c-0.347-0.16-0.765-0.241-1.254-0.241
		c-0.798,0-1.431,0.265-1.896,0.793c-0.466,0.527-0.756,1.275-0.862,2.243h5.61C234.771,103.409,234.697,103.018,234.583,102.65z"/>
</g>
<g>
	<path fill="#58595B" d="M312.296,108.331c-0.238,0.599-0.598,1.111-1.08,1.541c-0.481,0.43-1.102,0.763-1.852,1
		c-0.752,0.237-1.644,0.355-2.669,0.355c-1.182,0-2.258-0.233-3.231-0.702c-0.973-0.467-1.805-1.101-2.496-1.896l1.728-1.679
		c0.535,0.583,1.178,1.046,1.922,1.392c0.742,0.346,1.498,0.518,2.266,0.518c2.224,0,3.334-0.781,3.334-2.346
		c0-0.308-0.061-0.583-0.184-0.828s-0.33-0.473-0.621-0.679c-0.291-0.207-0.666-0.402-1.127-0.587s-1.027-0.375-1.701-0.575
		c-0.859-0.244-1.604-0.497-2.23-0.759c-0.629-0.26-1.149-0.562-1.563-0.908c-0.414-0.345-0.726-0.763-0.933-1.253
		c-0.207-0.489-0.311-1.096-0.311-1.816c0-0.689,0.139-1.313,0.414-1.875c0.273-0.561,0.648-1.03,1.127-1.415
		c0.475-0.383,1.037-0.678,1.688-0.885c0.652-0.207,1.348-0.312,2.082-0.312c1.104,0,2.077,0.191,2.922,0.575
		c0.844,0.383,1.625,0.92,2.348,1.609l-1.703,1.726c-0.506-0.521-1.059-0.909-1.656-1.162c-0.597-0.253-1.295-0.379-2.092-0.379
		c-0.951,0-1.637,0.198-2.059,0.598c-0.422,0.398-0.635,0.867-0.635,1.403c0,0.275,0.055,0.524,0.162,0.748
		c0.104,0.222,0.291,0.429,0.553,0.62c0.26,0.191,0.619,0.38,1.08,0.562c0.461,0.185,1.035,0.375,1.727,0.575
		c0.797,0.246,1.514,0.499,2.15,0.759c0.635,0.262,1.176,0.575,1.621,0.943c0.442,0.367,0.782,0.805,1.021,1.311
		c0.238,0.507,0.357,1.119,0.357,1.841C312.653,107.074,312.535,107.733,312.296,108.331z"/>
	<path fill="#58595B" d="M316.263,110.976V94.875h10.353v2.369h-7.957v3.933h4.623v2.369h-4.623v5.061h8.303v2.369H316.263z"/>
	<path fill="#58595B" d="M330.408,110.976V94.875h2.393v13.73h8.027v2.369L330.408,110.976L330.408,110.976z"/>
	<path fill="#58595B" d="M346.128,96.889c-0.299,0.299-0.654,0.447-1.068,0.447c-0.43,0-0.795-0.148-1.094-0.447
		c-0.299-0.3-0.447-0.656-0.447-1.07c0-0.429,0.148-0.793,0.447-1.092c0.299-0.3,0.664-0.449,1.094-0.449
		c0.414,0,0.771,0.149,1.068,0.449c0.299,0.299,0.449,0.664,0.449,1.092C346.578,96.233,346.427,96.589,346.128,96.889z
		 M343.863,110.976V98.901h2.393v12.075H343.863z"/>
	<path fill="#58595B" d="M357.181,110.976v-6.814c0-1.225-0.219-2.081-0.651-2.57c-0.437-0.489-1.041-0.734-1.82-0.734
		c-0.793,0-1.404,0.269-1.83,0.804c-0.428,0.535-0.641,1.293-0.641,2.271v7.045h-2.396V98.902h2.396v1.165
		c0.307-0.448,0.729-0.798,1.272-1.046c0.545-0.248,1.131-0.372,1.761-0.372c1.409,0,2.479,0.453,3.211,1.356
		c0.729,0.905,1.092,2.254,1.092,4.048v6.924L357.181,110.976L357.181,110.976z"/>
	<path fill="#58595B" d="M370.199,110.976v-1.165c-0.31,0.448-0.732,0.798-1.277,1.045c-0.545,0.248-1.131,0.372-1.76,0.372
		c-1.41,0-2.48-0.452-3.207-1.356c-0.73-0.905-1.094-2.254-1.094-4.048V98.9h2.393v6.815c0,1.225,0.217,2.081,0.652,2.57
		c0.435,0.488,1.041,0.733,1.819,0.733c0.793,0,1.404-0.269,1.83-0.804c0.429-0.534,0.644-1.292,0.644-2.271V98.9h2.391v12.075
		L370.199,110.976L370.199,110.976z"/>
	<path fill="#58595B" d="M382.802,110.976l-1.147-2.094c-0.246-0.444-0.486-0.904-0.728-1.38c-0.235-0.476-0.418-0.828-0.541-1.059
		c-0.045,0.123-0.117,0.28-0.217,0.472c-0.102,0.191-0.211,0.398-0.334,0.621s-0.254,0.457-0.391,0.702
		c-0.14,0.244-0.263,0.468-0.369,0.667l-1.172,2.069h-2.668l3.795-6.256l-3.543-5.819h2.735l0.943,1.702
		c0.246,0.444,0.49,0.9,0.736,1.369c0.243,0.468,0.422,0.815,0.526,1.046c0.062-0.106,0.144-0.256,0.242-0.449
		c0.101-0.19,0.207-0.401,0.322-0.632c0.113-0.229,0.231-0.463,0.354-0.702c0.123-0.236,0.244-0.463,0.367-0.678l0.92-1.656h2.715
		l-3.563,5.819l3.816,6.256L382.802,110.976L382.802,110.976z"/>
</g>
<g>
	<path fill="#AFBD22" d="M143.334,227.724c0,1.657-1.343,3-3,3H3c-1.656,0-3-1.343-3-3v-22c0-1.656,1.344-3,3-3h137.334
		c1.657,0,3,1.344,3,3V227.724z"/>
	<g>
		<path fill="#58595B" d="M15.065,223.829h-1.751l5.287-14.96h1.751L15.065,223.829z"/>
		<path fill="#58595B" d="M25.453,222.3h-1.751l-3.196-8.926h1.836l1.598,4.846c0.147,0.432,0.28,0.843,0.399,1.232
			c0.119,0.39,0.207,0.711,0.264,0.96c0.056-0.249,0.139-0.569,0.246-0.96c0.108-0.392,0.229-0.803,0.366-1.232l1.53-4.846h1.853
			L25.453,222.3z"/>
		<path fill="#58595B" d="M35.092,222.3v-0.885c-0.306,0.308-0.669,0.562-1.088,0.767c-0.419,0.202-0.873,0.306-1.36,0.306
			c-0.363,0-0.729-0.054-1.097-0.16c-0.368-0.107-0.7-0.281-0.994-0.521c-0.295-0.237-0.536-0.55-0.723-0.936
			s-0.28-0.851-0.28-1.395c0-0.499,0.09-0.931,0.272-1.292c0.181-0.361,0.43-0.663,0.748-0.9c0.317-0.238,0.691-0.414,1.122-0.527
			c0.431-0.112,0.901-0.17,1.411-0.17c0.816,0,1.479,0.113,1.989,0.34v-0.661c0-0.487-0.145-0.86-0.434-1.123
			c-0.289-0.261-0.706-0.392-1.25-0.392c-0.465,0-0.881,0.046-1.25,0.138c-0.369,0.09-0.729,0.231-1.08,0.425l-0.68-1.326
			c0.431-0.261,0.89-0.459,1.377-0.595c0.487-0.138,1.048-0.204,1.683-0.204c0.997,0,1.805,0.246,2.423,0.738
			c0.617,0.493,0.926,1.244,0.926,2.253v6.12H35.092L35.092,222.3z M35.092,218.491c-0.238-0.125-0.519-0.222-0.842-0.289
			c-0.323-0.068-0.722-0.103-1.198-0.103c-0.567,0-1.015,0.118-1.343,0.356c-0.329,0.236-0.493,0.562-0.493,0.969
			c0,0.441,0.142,0.8,0.425,1.07c0.283,0.271,0.714,0.407,1.292,0.407c0.476,0,0.904-0.118,1.284-0.356
			c0.379-0.236,0.671-0.498,0.875-0.78V218.491z"/>
		<path fill="#58595B" d="M44.186,215.228c-0.193-0.103-0.391-0.183-0.595-0.237c-0.204-0.057-0.454-0.086-0.748-0.086
			c-0.556,0-0.986,0.192-1.292,0.578c-0.306,0.387-0.459,0.958-0.459,1.718v5.101h-1.768v-8.926h1.768v0.851
			c0.204-0.294,0.484-0.541,0.841-0.738c0.357-0.198,0.757-0.298,1.199-0.298c0.362,0,0.66,0.03,0.893,0.094
			c0.232,0.062,0.439,0.155,0.62,0.28L44.186,215.228z"/>
		<path fill="#58595B" d="M45.716,223.829h-1.751l5.287-14.96h1.751L45.716,223.829z"/>
		<path fill="#58595B" d="M60.031,222.3h-1.496l-1.207-4.506c-0.091-0.34-0.178-0.688-0.264-1.045
			c-0.085-0.356-0.15-0.644-0.195-0.858c-0.045,0.217-0.11,0.505-0.195,0.866c-0.085,0.363-0.173,0.716-0.264,1.056l-1.19,4.487
			h-1.496l-2.448-8.926h1.734l1.054,4.336c0.091,0.34,0.176,0.696,0.255,1.07c0.079,0.373,0.142,0.669,0.187,0.885
			c0.057-0.229,0.13-0.521,0.221-0.885c0.091-0.362,0.181-0.721,0.272-1.07l1.19-4.336H57.6l1.207,4.353
			c0.091,0.353,0.179,0.706,0.264,1.062s0.156,0.648,0.212,0.877c0.057-0.229,0.122-0.524,0.195-0.894
			c0.074-0.369,0.156-0.724,0.247-1.062l1.054-4.336h1.734L60.031,222.3z"/>
		<path fill="#58595B" d="M72.627,222.3h-1.496l-1.207-4.506c-0.091-0.34-0.178-0.688-0.264-1.045
			c-0.085-0.356-0.15-0.644-0.195-0.858c-0.045,0.217-0.11,0.505-0.195,0.866c-0.085,0.363-0.173,0.716-0.264,1.056l-1.19,4.487
			H66.32l-2.448-8.926h1.734l1.054,4.336c0.091,0.34,0.176,0.696,0.255,1.07c0.079,0.373,0.142,0.669,0.187,0.885
			c0.057-0.229,0.13-0.521,0.221-0.885c0.091-0.362,0.181-0.721,0.272-1.07l1.19-4.336h1.411l1.207,4.353
			c0.091,0.353,0.179,0.706,0.264,1.062s0.156,0.648,0.212,0.877c0.057-0.229,0.122-0.524,0.195-0.894
			c0.074-0.369,0.156-0.724,0.247-1.062l1.054-4.336h1.734L72.627,222.3z"/>
		<path fill="#58595B" d="M85.225,222.3h-1.496l-1.207-4.506c-0.091-0.34-0.178-0.688-0.264-1.045
			c-0.085-0.356-0.15-0.644-0.195-0.858c-0.045,0.217-0.11,0.505-0.195,0.866c-0.085,0.363-0.173,0.716-0.264,1.056l-1.19,4.487
			h-1.496l-2.448-8.926h1.734l1.054,4.336c0.091,0.34,0.176,0.696,0.255,1.07c0.079,0.373,0.142,0.669,0.187,0.885
			c0.057-0.229,0.13-0.521,0.221-0.885c0.091-0.362,0.181-0.721,0.272-1.07l1.19-4.336h1.411L84,217.726
			c0.091,0.353,0.179,0.706,0.264,1.062s0.156,0.648,0.212,0.877c0.057-0.229,0.122-0.524,0.195-0.894
			c0.074-0.369,0.156-0.724,0.247-1.062l1.054-4.336h1.734L85.225,222.3z"/>
		<path fill="#58595B" d="M89.305,223.829h-1.751l5.287-14.96h1.751L89.305,223.829z"/>
		<path fill="#58595B" d="M101.409,222.3v-5.037c0-0.904-0.161-1.538-0.482-1.898c-0.321-0.361-0.77-0.544-1.345-0.544
			c-0.587,0-1.038,0.197-1.354,0.595c-0.316,0.396-0.474,0.955-0.474,1.68v5.207h-1.768v-11.476l1.768-0.918v4.328
			c0.227-0.332,0.541-0.59,0.943-0.772c0.402-0.183,0.836-0.273,1.301-0.273c1.042,0,1.833,0.335,2.371,1.003
			c0.539,0.669,0.808,1.666,0.808,2.992v5.116L101.409,222.3L101.409,222.3z"/>
		<path fill="#58595B" d="M109.858,222.078c-0.215,0.125-0.468,0.224-0.756,0.298c-0.289,0.073-0.609,0.109-0.961,0.109
			c-0.623,0-1.113-0.191-1.47-0.577c-0.357-0.387-0.536-0.979-0.536-1.784v-5.151h-1.275v-1.599h1.275v-2.55l1.717-0.918v3.468h2.21
			v1.599h-2.21v4.846c0,0.421,0.07,0.703,0.212,0.851s0.376,0.222,0.706,0.222c0.227,0,0.459-0.036,0.697-0.108
			c0.238-0.074,0.436-0.156,0.595-0.247L109.858,222.078z"/>
		<path fill="#58595B" d="M122.846,222.3v-5.037c0-0.904-0.142-1.538-0.425-1.898c-0.283-0.361-0.714-0.544-1.292-0.544
			c-0.589,0-1.023,0.197-1.3,0.595c-0.278,0.396-0.417,0.955-0.417,1.68v5.207h-1.768v-5.037c0-0.904-0.142-1.538-0.425-1.898
			c-0.283-0.361-0.714-0.543-1.292-0.543c-0.589,0-1.023,0.196-1.3,0.594c-0.278,0.396-0.417,0.955-0.417,1.68v5.207h-1.768v-8.926
			h1.768v0.86c0.227-0.331,0.522-0.59,0.886-0.772c0.363-0.184,0.778-0.273,1.244-0.273c0.613,0,1.116,0.111,1.508,0.335
			s0.708,0.554,0.946,0.988c0.16-0.207,0.327-0.391,0.503-0.552c0.176-0.16,0.373-0.297,0.589-0.412
			c0.216-0.113,0.458-0.202,0.726-0.266c0.267-0.062,0.577-0.096,0.93-0.096c1.046,0,1.82,0.335,2.321,1.003
			c0.5,0.669,0.751,1.666,0.751,2.992v5.116L122.846,222.3L122.846,222.3z"/>
		<path fill="#58595B" d="M127.164,222.3v-11.476l1.768-0.918V222.3H127.164z"/>
	</g>
</g>
<g>
	<path fill="#EBE729" d="M234.957,227.724c0,1.657-1.342,3-3,3h-66.332c-1.656,0-3-1.343-3-3v-22c0-1.656,1.344-3,3-3h66.332
		c1.658,0,3,1.344,3,3V227.724z"/>
	<g>
		<path fill="#58595B" d="M181.647,223.829h-1.751l5.287-14.96h1.751L181.647,223.829z"/>
		<path fill="#58595B" d="M192.341,222.078c-0.215,0.125-0.468,0.224-0.756,0.298c-0.289,0.073-0.609,0.109-0.961,0.109
			c-0.623,0-1.113-0.191-1.47-0.577c-0.357-0.387-0.536-0.979-0.536-1.784v-5.151h-1.275v-1.599h1.275v-2.55l1.717-0.918v3.468h2.21
			v1.599h-2.21v4.846c0,0.421,0.07,0.703,0.212,0.851s0.376,0.222,0.706,0.222c0.227,0,0.459-0.036,0.697-0.108
			c0.238-0.074,0.436-0.156,0.595-0.247L192.341,222.078z"/>
		<path fill="#58595B" d="M205.328,222.3v-5.037c0-0.904-0.141-1.538-0.424-1.898c-0.283-0.361-0.715-0.544-1.293-0.544
			c-0.59,0-1.021,0.197-1.301,0.595c-0.278,0.396-0.416,0.955-0.416,1.68v5.207h-1.769v-5.037c0-0.904-0.144-1.538-0.426-1.898
			c-0.283-0.361-0.714-0.543-1.293-0.543c-0.589,0-1.023,0.196-1.3,0.594c-0.278,0.396-0.418,0.955-0.418,1.68v5.207h-1.768v-8.926
			h1.768v0.86c0.228-0.331,0.521-0.59,0.888-0.772c0.362-0.184,0.776-0.273,1.243-0.273c0.613,0,1.115,0.111,1.509,0.335
			c0.392,0.224,0.707,0.554,0.944,0.988c0.16-0.207,0.326-0.391,0.504-0.552c0.177-0.16,0.371-0.297,0.589-0.412
			c0.217-0.113,0.459-0.202,0.727-0.266c0.267-0.062,0.576-0.096,0.931-0.096c1.047,0,1.819,0.335,2.319,1.003
			c0.5,0.669,0.753,1.666,0.753,2.992v5.116L205.328,222.3L205.328,222.3z"/>
		<path fill="#58595B" d="M216.77,219.979c-0.191,0.562-0.451,1.026-0.771,1.401c-0.324,0.373-0.697,0.651-1.123,0.832
			c-0.424,0.183-0.869,0.271-1.334,0.271c-0.453,0-0.879-0.104-1.273-0.311c-0.397-0.205-0.721-0.445-0.971-0.721v3.221
			l-1.732,0.903V213.37h1.732v0.86c0.328-0.298,0.682-0.547,1.055-0.748c0.375-0.198,0.799-0.3,1.275-0.3s0.924,0.091,1.342,0.271
			c0.42,0.182,0.785,0.465,1.098,0.851c0.312,0.385,0.556,0.881,0.73,1.486c0.176,0.605,0.264,1.335,0.264,2.186
			C217.059,218.752,216.962,219.418,216.77,219.979z M214.773,215.58c-0.344-0.507-0.838-0.762-1.48-0.762
			c-0.418,0-0.801,0.115-1.15,0.348c-0.349,0.231-0.639,0.493-0.863,0.786v3.735c0.103,0.136,0.228,0.271,0.373,0.404
			c0.146,0.136,0.312,0.26,0.49,0.372c0.183,0.112,0.373,0.205,0.574,0.279c0.203,0.071,0.418,0.108,0.646,0.108
			c0.632,0,1.111-0.233,1.438-0.701c0.326-0.469,0.49-1.176,0.49-2.122C215.291,216.904,215.119,216.087,214.773,215.58z"/>
	</g>
</g>
<g>
	<path fill="#EBE729" d="M359.25,227.724c0,1.657-1.342,3-3,3h-99c-1.656,0-3-1.343-3-3v-22c0-1.656,1.344-3,3-3h99
		c1.658,0,3,1.344,3,3V227.724z"/>
	<g>
		<path fill="#58595B" d="M274.281,223.829h-1.752l5.287-14.96h1.752L274.281,223.829z"/>
		<path fill="#58595B" d="M284.667,222.3h-1.75l-3.196-8.926h1.836l1.6,4.846c0.146,0.432,0.279,0.843,0.398,1.232
			c0.118,0.39,0.207,0.711,0.264,0.96c0.059-0.249,0.141-0.569,0.246-0.96c0.106-0.392,0.229-0.803,0.365-1.232l1.53-4.846h1.853
			L284.667,222.3z"/>
		<path fill="#58595B" d="M294.307,222.3v-0.885c-0.306,0.308-0.668,0.562-1.089,0.767c-0.42,0.202-0.872,0.306-1.358,0.306
			c-0.361,0-0.729-0.054-1.098-0.16c-0.367-0.107-0.699-0.281-0.994-0.521c-0.295-0.237-0.535-0.55-0.724-0.936
			c-0.187-0.386-0.278-0.851-0.278-1.395c0-0.499,0.09-0.931,0.271-1.292s0.43-0.663,0.748-0.9c0.316-0.238,0.691-0.414,1.121-0.527
			c0.432-0.112,0.902-0.17,1.412-0.17c0.813,0,1.479,0.113,1.988,0.34v-0.661c0-0.487-0.146-0.86-0.435-1.123
			c-0.289-0.261-0.705-0.392-1.25-0.392c-0.465,0-0.881,0.046-1.248,0.138c-0.369,0.09-0.729,0.231-1.08,0.425l-0.68-1.326
			c0.43-0.261,0.889-0.459,1.377-0.595c0.485-0.138,1.047-0.204,1.682-0.204c0.998,0,1.806,0.246,2.425,0.738
			c0.616,0.493,0.926,1.244,0.926,2.253v6.12H294.307L294.307,222.3z M294.307,218.491c-0.238-0.125-0.519-0.222-0.843-0.289
			c-0.321-0.068-0.721-0.103-1.196-0.103c-0.566,0-1.017,0.118-1.345,0.356c-0.327,0.236-0.491,0.562-0.491,0.969
			c0,0.441,0.143,0.8,0.424,1.07c0.283,0.271,0.717,0.407,1.293,0.407c0.477,0,0.904-0.118,1.283-0.356
			c0.379-0.236,0.672-0.498,0.875-0.78V218.491z"/>
		<path fill="#58595B" d="M303.4,215.228c-0.191-0.103-0.392-0.183-0.594-0.237c-0.205-0.057-0.453-0.086-0.748-0.086
			c-0.558,0-0.986,0.192-1.293,0.578c-0.306,0.387-0.459,0.958-0.459,1.718v5.101h-1.769v-8.926h1.769v0.851
			c0.205-0.294,0.483-0.541,0.842-0.738c0.356-0.198,0.758-0.298,1.199-0.298c0.36,0,0.659,0.03,0.893,0.094
			c0.232,0.062,0.439,0.155,0.619,0.28L303.4,215.228z"/>
		<path fill="#58595B" d="M304.932,223.829h-1.75l5.286-14.96h1.75L304.932,223.829z"/>
		<path fill="#58595B" d="M315.625,222.078c-0.215,0.125-0.467,0.224-0.756,0.298c-0.289,0.073-0.609,0.109-0.961,0.109
			c-0.623,0-1.113-0.191-1.472-0.577c-0.357-0.387-0.534-0.979-0.534-1.784v-5.151h-1.275v-1.599h1.275v-2.55l1.717-0.918v3.468
			h2.211v1.599h-2.211v4.846c0,0.421,0.07,0.703,0.213,0.851c0.141,0.147,0.377,0.222,0.705,0.222c0.227,0,0.459-0.036,0.697-0.108
			c0.235-0.074,0.436-0.156,0.596-0.247L315.625,222.078z"/>
		<path fill="#58595B" d="M328.613,222.3v-5.037c0-0.904-0.144-1.538-0.427-1.898c-0.282-0.361-0.713-0.544-1.29-0.544
			c-0.591,0-1.023,0.197-1.302,0.595c-0.277,0.396-0.416,0.955-0.416,1.68v5.207h-1.77v-5.037c0-0.904-0.144-1.538-0.424-1.898
			c-0.283-0.361-0.718-0.543-1.293-0.543c-0.59,0-1.023,0.196-1.302,0.594c-0.277,0.396-0.418,0.955-0.418,1.68v5.207h-1.768v-8.926
			h1.768v0.86c0.229-0.331,0.523-0.59,0.89-0.772c0.362-0.183,0.776-0.273,1.244-0.273c0.61,0,1.112,0.111,1.508,0.335
			c0.393,0.224,0.707,0.554,0.942,0.988c0.16-0.207,0.328-0.391,0.507-0.552c0.176-0.16,0.37-0.297,0.588-0.412
			c0.217-0.113,0.459-0.202,0.727-0.266c0.269-0.062,0.576-0.096,0.93-0.096c1.048,0,1.82,0.335,2.32,1.003
			c0.502,0.669,0.752,1.666,0.752,2.992v5.116L328.613,222.3L328.613,222.3z"/>
		<path fill="#58595B" d="M340.054,219.979c-0.19,0.562-0.451,1.026-0.772,1.401c-0.322,0.373-0.697,0.651-1.121,0.832
			c-0.426,0.183-0.871,0.271-1.334,0.271c-0.455,0-0.879-0.104-1.275-0.311c-0.396-0.205-0.721-0.445-0.969-0.721v3.221
			l-1.734,0.903V213.37h1.734v0.86c0.328-0.298,0.68-0.547,1.053-0.748c0.375-0.198,0.799-0.3,1.275-0.3
			c0.476,0,0.924,0.091,1.344,0.271c0.418,0.182,0.783,0.465,1.096,0.851c0.312,0.385,0.558,0.881,0.73,1.486
			c0.176,0.605,0.264,1.335,0.264,2.186C340.343,218.752,340.246,219.418,340.054,219.979z M338.058,215.58
			c-0.344-0.507-0.838-0.762-1.479-0.762c-0.416,0-0.801,0.115-1.15,0.348c-0.35,0.231-0.637,0.493-0.862,0.786v3.735
			c0.102,0.136,0.227,0.271,0.373,0.404c0.146,0.136,0.311,0.26,0.489,0.372c0.183,0.112,0.373,0.205,0.576,0.279
			c0.203,0.071,0.416,0.108,0.644,0.108c0.633,0,1.11-0.233,1.438-0.701c0.326-0.469,0.49-1.176,0.49-2.122
			C338.574,216.904,338.402,216.087,338.058,215.58z"/>
	</g>
</g>
<path fill="#FFFFFF" stroke="#58595B" stroke-width="2" d="M227.748,57.126L227.748,57.126c-3.461,3.459-9.066,3.46-12.525,0
	c-3.463-3.459-3.463-9.067-0.004-12.526c3.463-3.461,9.068-3.459,12.529,0C231.205,48.059,231.205,53.666,227.748,57.126"/>
<path fill="#FFFFFF" stroke="#58595B" stroke-width="2" d="M181.752,67.161L181.752,67.161c-3.461,3.459-9.067,3.46-12.526,0
	c-3.462-3.459-3.462-9.067-0.003-12.526c3.462-3.461,9.068-3.459,12.529,0C185.209,58.094,185.209,63.701,181.752,67.161"/>
<g>
	<path fill="#60605B" d="M312.205,126.407c-0.25,0.602-0.601,1.108-1.054,1.519c-0.454,0.411-0.991,0.719-1.613,0.925
		c-0.622,0.205-1.306,0.307-2.052,0.307h-4.017v5.742h-2.288V119.5h6.446c0.704,0,1.36,0.103,1.969,0.308
		c0.608,0.206,1.133,0.51,1.573,0.913c0.439,0.403,0.784,0.905,1.033,1.507c0.25,0.602,0.375,1.299,0.375,2.09
		C312.578,125.111,312.453,125.807,312.205,126.407z M309.512,122.361c-0.476-0.455-1.115-0.683-1.92-0.683h-4.122v5.302h4.122
		c0.877,0,1.535-0.234,1.975-0.703c0.438-0.47,0.657-1.123,0.657-1.959C310.224,123.468,309.986,122.815,309.512,122.361z"/>
	<path fill="#60605B" d="M324.128,129.478c-0.015,0.184-0.029,0.333-0.044,0.45h-7.634c0.058,0.558,0.176,1.034,0.352,1.431
		c0.177,0.396,0.396,0.723,0.66,0.979c0.265,0.257,0.558,0.447,0.88,0.572s0.66,0.187,1.012,0.187c0.484,0,0.928-0.08,1.332-0.241
		c0.402-0.162,0.795-0.389,1.176-0.683l1.343,1.452c-0.514,0.484-1.086,0.857-1.716,1.122c-0.631,0.264-1.387,0.396-2.266,0.396
		c-0.676,0-1.317-0.132-1.926-0.396c-0.609-0.265-1.141-0.653-1.595-1.166c-0.455-0.513-0.813-1.144-1.078-1.892
		s-0.396-1.6-0.396-2.553c0-0.982,0.124-1.848,0.373-2.596c0.25-0.748,0.594-1.375,1.034-1.881s0.972-0.891,1.595-1.155
		s1.31-0.396,2.058-0.396c0.821,0,1.536,0.153,2.146,0.461c0.607,0.309,1.113,0.727,1.518,1.254
		c0.402,0.529,0.703,1.145,0.902,1.849c0.197,0.704,0.297,1.444,0.297,2.222C324.15,129.1,324.143,129.294,324.128,129.478z
		 M321.652,126.937c-0.109-0.353-0.274-0.66-0.494-0.925c-0.221-0.264-0.495-0.473-0.825-0.627c-0.33-0.153-0.729-0.231-1.199-0.231
		c-0.763,0-1.368,0.254-1.815,0.76s-0.723,1.221-0.824,2.145h5.367C321.832,127.662,321.764,127.288,321.652,126.937z"/>
	<path fill="#60605B" d="M333.258,125.748c-0.25-0.132-0.506-0.234-0.771-0.308c-0.264-0.074-0.587-0.11-0.968-0.11
		c-0.719,0-1.275,0.249-1.672,0.748s-0.594,1.239-0.594,2.222v6.6h-2.289v-11.549h2.289v1.1c0.264-0.381,0.627-0.701,1.088-0.957
		c0.463-0.257,0.979-0.385,1.552-0.385c0.47,0,0.854,0.04,1.155,0.121c0.301,0.08,0.568,0.201,0.803,0.362L333.258,125.748z"/>
	<path fill="#60605B" d="M349.625,134.9v-6.519c0-1.171-0.184-1.99-0.55-2.458c-0.366-0.469-0.924-0.703-1.672-0.703
		c-0.763,0-1.323,0.256-1.683,0.769s-0.539,1.237-0.539,2.173v6.738h-2.289v-6.519c0-1.171-0.184-1.99-0.549-2.458
		c-0.367-0.469-0.924-0.703-1.672-0.703c-0.764,0-1.324,0.256-1.684,0.769s-0.539,1.237-0.539,2.173v6.738h-2.288v-11.549h2.288
		v1.113c0.294-0.43,0.676-0.764,1.146-1c0.471-0.237,1.008-0.355,1.61-0.355c0.794,0,1.444,0.145,1.952,0.434
		c0.507,0.289,0.915,0.715,1.224,1.277c0.206-0.266,0.423-0.503,0.651-0.711c0.229-0.207,0.482-0.385,0.762-0.533
		c0.28-0.148,0.593-0.264,0.939-0.345c0.346-0.081,0.747-0.122,1.203-0.122c1.354,0,2.355,0.432,3.004,1.297
		c0.647,0.866,0.972,2.156,0.972,3.873v6.621H349.625z"/>
	<path fill="#60605B" d="M357.381,121.425c-0.287,0.286-0.628,0.43-1.023,0.43c-0.411,0-0.76-0.144-1.045-0.43
		c-0.286-0.286-0.43-0.627-0.43-1.023c0-0.41,0.144-0.758,0.43-1.044c0.285-0.286,0.634-0.429,1.045-0.429
		c0.396,0,0.736,0.143,1.023,0.429c0.285,0.287,0.428,0.634,0.428,1.044C357.809,120.798,357.666,121.139,357.381,121.425z
		 M355.213,134.9v-11.549h2.288V134.9H355.213z"/>
	<path fill="#60605B" d="M368.645,133.349c-0.242,0.434-0.562,0.781-0.957,1.045c-0.396,0.264-0.855,0.455-1.375,0.572
		c-0.521,0.117-1.067,0.176-1.639,0.176c-0.793,0-1.581-0.139-2.365-0.418c-0.785-0.278-1.471-0.631-2.057-1.056l1.033-1.716
		c0.543,0.381,1.104,0.668,1.684,0.857c0.578,0.191,1.14,0.286,1.683,0.286c1.407,0,2.112-0.425,2.112-1.276
		c0-0.439-0.238-0.791-0.715-1.056c-0.478-0.264-1.134-0.558-1.97-0.88c-0.616-0.234-1.141-0.473-1.573-0.715
		s-0.784-0.502-1.056-0.781c-0.271-0.278-0.466-0.59-0.583-0.935s-0.176-0.745-0.176-1.199c0-0.513,0.096-0.968,0.285-1.364
		c0.191-0.396,0.463-0.726,0.814-0.99c0.352-0.264,0.77-0.461,1.254-0.594c0.484-0.132,1.012-0.197,1.584-0.197
		c0.733,0,1.441,0.117,2.123,0.352s1.279,0.543,1.793,0.924l-0.99,1.738c-0.469-0.338-0.945-0.586-1.43-0.748
		c-0.484-0.161-1.004-0.242-1.562-0.242c-0.557,0-0.96,0.1-1.209,0.297c-0.25,0.198-0.375,0.451-0.375,0.76
		c0,0.146,0.029,0.282,0.089,0.406c0.058,0.125,0.169,0.254,0.33,0.385c0.161,0.133,0.378,0.268,0.649,0.407
		c0.271,0.14,0.627,0.298,1.066,0.474c0.645,0.249,1.21,0.487,1.693,0.715c0.484,0.227,0.892,0.484,1.222,0.77
		c0.33,0.286,0.575,0.62,0.737,1.001c0.16,0.382,0.242,0.844,0.242,1.386C369.008,132.378,368.887,132.917,368.645,133.349z"/>
	<path fill="#60605B" d="M379.402,133.349c-0.242,0.434-0.561,0.781-0.957,1.045s-0.854,0.455-1.375,0.572s-1.066,0.176-1.639,0.176
		c-0.792,0-1.58-0.139-2.365-0.418c-0.785-0.278-1.471-0.631-2.057-1.056l1.033-1.716c0.543,0.381,1.104,0.668,1.684,0.857
		c0.579,0.191,1.141,0.286,1.684,0.286c1.407,0,2.111-0.425,2.111-1.276c0-0.439-0.238-0.791-0.715-1.056
		c-0.477-0.264-1.133-0.558-1.969-0.88c-0.616-0.234-1.141-0.473-1.573-0.715s-0.784-0.502-1.056-0.781
		c-0.271-0.278-0.467-0.59-0.584-0.935s-0.176-0.745-0.176-1.199c0-0.513,0.096-0.968,0.286-1.364
		c0.19-0.396,0.462-0.726,0.813-0.99c0.353-0.264,0.771-0.461,1.255-0.594c0.483-0.132,1.012-0.197,1.584-0.197
		c0.733,0,1.44,0.117,2.123,0.352c0.682,0.234,1.279,0.543,1.793,0.924l-0.99,1.738c-0.47-0.338-0.946-0.586-1.431-0.748
		c-0.483-0.161-1.004-0.242-1.562-0.242s-0.96,0.1-1.21,0.297c-0.25,0.198-0.374,0.451-0.374,0.76c0,0.146,0.029,0.282,0.089,0.406
		c0.058,0.125,0.168,0.254,0.33,0.385c0.16,0.133,0.377,0.268,0.648,0.407s0.627,0.298,1.066,0.474
		c0.646,0.249,1.211,0.487,1.694,0.715c0.483,0.227,0.892,0.484,1.222,0.77c0.33,0.286,0.574,0.62,0.736,1.001
		c0.161,0.382,0.242,0.844,0.242,1.386C379.766,132.378,379.645,132.917,379.402,133.349z"/>
	<path fill="#60605B" d="M384.947,121.425c-0.287,0.286-0.628,0.43-1.023,0.43c-0.411,0-0.76-0.144-1.045-0.43
		c-0.286-0.286-0.43-0.627-0.43-1.023c0-0.41,0.144-0.758,0.43-1.044c0.285-0.286,0.634-0.429,1.045-0.429
		c0.396,0,0.736,0.143,1.023,0.429c0.285,0.287,0.428,0.634,0.428,1.044C385.375,120.798,385.232,121.139,384.947,121.425z
		 M382.779,134.9v-11.549h2.288V134.9H382.779z"/>
	<path fill="#60605B" d="M393.955,134.9h-2.266l-4.136-11.549h2.376l2.068,6.27c0.189,0.557,0.363,1.089,0.517,1.595
		s0.268,0.921,0.341,1.243c0.073-0.322,0.18-0.737,0.319-1.243s0.297-1.038,0.473-1.595l1.979-6.27h2.398L393.955,134.9z"/>
	<path fill="#60605B" d="M409.377,129.478c-0.014,0.184-0.029,0.333-0.043,0.45h-7.635c0.059,0.558,0.176,1.034,0.352,1.431
		c0.177,0.396,0.396,0.723,0.66,0.979c0.265,0.257,0.558,0.447,0.881,0.572c0.322,0.125,0.66,0.187,1.012,0.187
		c0.484,0,0.928-0.08,1.331-0.241c0.403-0.162,0.796-0.389,1.177-0.683l1.342,1.452c-0.514,0.484-1.086,0.857-1.716,1.122
		c-0.631,0.264-1.386,0.396-2.266,0.396c-0.675,0-1.317-0.132-1.925-0.396c-0.609-0.265-1.141-0.653-1.596-1.166
		s-0.813-1.144-1.078-1.892c-0.264-0.748-0.396-1.6-0.396-2.553c0-0.982,0.124-1.848,0.374-2.596
		c0.249-0.748,0.594-1.375,1.033-1.881c0.441-0.506,0.973-0.891,1.596-1.155s1.309-0.396,2.057-0.396
		c0.822,0,1.537,0.153,2.146,0.461c0.608,0.309,1.114,0.727,1.519,1.254c0.402,0.529,0.703,1.145,0.901,1.849
		s0.297,1.444,0.297,2.222C409.399,129.1,409.393,129.294,409.377,129.478z M406.902,126.937c-0.109-0.353-0.275-0.66-0.495-0.925
		c-0.22-0.264-0.495-0.473-0.825-0.627c-0.33-0.153-0.729-0.231-1.199-0.231c-0.762,0-1.367,0.254-1.814,0.76
		s-0.723,1.221-0.824,2.145h5.367C407.082,127.662,407.013,127.288,406.902,126.937z"/>
</g>
</svg>
