<?xml version="1.0" encoding="utf-8"?>
<!-- Generator: Adobe Illustrator 13.0.2, SVG Export Plug-In . SVG Version: 6.00 Build 14948)  -->
<!DOCTYPE svg PUBLIC "-//W3C//DTD SVG 1.1//EN" "http://www.w3.org/Graphics/SVG/1.1/DTD/svg11.dtd">
<svg version="1.1" id="Layer_1" xmlns="http://www.w3.org/2000/svg" xmlns:xlink="http://www.w3.org/1999/xlink" x="0px" y="0px"
	 width="359.25px" height="205.461px" viewBox="0 0 359.25 205.461" enable-background="new 0 0 359.25 205.461"
	 xml:space="preserve">
<g>
	<path fill="#C5C7C8" stroke="#58595B" stroke-width="2" d="M202.248,11.505c-0.402-0.403-0.402-1.057-0.001-1.46l3.681-3.679
		c0.403-0.404,1.059-0.403,1.459,0l4.484,3.371c1.631-0.991,3.386-1.707,5.191-2.149l0.785-5.555c0-0.57,0.463-1.033,1.032-1.033
		h5.202c0.568,0,1.031,0.462,1.031,1.033l0.785,5.555c1.809,0.441,3.562,1.158,5.195,2.15l4.48-3.373
		c0.404-0.403,1.058-0.402,1.461,0.001l3.679,3.678c0.404,0.404,0.404,1.057,0.003,1.46l-3.373,4.482
		c0.991,1.635,1.708,3.388,2.149,5.195l5.555,0.785c0.57,0.001,1.033,0.463,1.033,1.033v5.202c0,0.57-0.463,1.033-1.033,1.033
		l-5.555,0.786c-0.441,1.807-1.158,3.561-2.149,5.194l3.37,4.482c0.404,0.403,0.404,1.058,0,1.461l-3.679,3.679
		c-0.403,0.403-1.057,0.402-1.461-0.001l-4.48-3.371c-1.635,0.992-3.388,1.708-5.195,2.15l-0.785,5.554
		c0,0.57-0.463,1.032-1.031,1.032h-5.202c-0.569,0.001-1.032-0.461-1.032-1.033l-0.785-5.553c-1.807-0.442-3.562-1.158-5.191-2.151
		l-4.484,3.372c-0.4,0.403-1.059,0.405-1.459,0.001l-3.681-3.678c-0.401-0.403-0.401-1.059,0.001-1.462l3.372-4.482
		c-0.992-1.632-1.709-3.386-2.149-5.193l-5.556-0.787c-0.569,0.001-1.034-0.461-1.034-1.032L196.884,23
		c0-0.57,0.462-1.032,1.031-1.032l5.556-0.785c0.441-1.808,1.157-3.561,2.149-5.194L202.248,11.505L202.248,11.505z M227.747,31.864
		c-3.461,3.459-9.067,3.46-12.526,0c-3.461-3.459-3.461-9.069-0.002-12.528c3.461-3.46,9.067-3.458,12.528,0.001
		C231.205,22.796,231.205,28.404,227.747,31.864L227.747,31.864z"/>
	<path fill="#C5C7C8" stroke="#58595B" stroke-width="2" d="M156.252,21.542c-0.402-0.403-0.402-1.057,0.002-1.46l3.678-3.679
		c0.402-0.402,1.057-0.404,1.461,0l4.48,3.372c1.635-0.991,3.389-1.708,5.197-2.15l0.781-5.555c0-0.571,0.463-1.033,1.035-1.033
		h5.201c0.57-0.001,1.033,0.461,1.033,1.033l0.785,5.555c1.807,0.442,3.561,1.159,5.194,2.15l4.48-3.371
		c0.402-0.404,1.059-0.404,1.461-0.001l3.678,3.678c0.404,0.403,0.404,1.058,0,1.462l-3.371,4.48c0.99,1.634,1.709,3.388,2.15,5.195
		l5.555,0.786c0.57-0.002,1.033,0.461,1.031,1.033v5.201c0,0.571-0.463,1.034-1.031,1.033l-5.555,0.784
		c-0.441,1.808-1.16,3.562-2.152,5.194l3.373,4.482c0.404,0.403,0.402,1.058,0,1.46l-3.678,3.679c-0.404,0.403-1.059,0.404-1.461,0
		l-4.482-3.373c-1.633,0.992-3.387,1.709-5.192,2.151l-0.785,5.554c0,0.571-0.465,1.034-1.033,1.033h-5.203
		c-0.57,0-1.033-0.463-1.031-1.032l-0.787-5.555c-1.805-0.441-3.559-1.158-5.193-2.15l-4.48,3.372c-0.404,0.403-1.059,0.403-1.461,0
		l-3.678-3.678c-0.404-0.403-0.404-1.058,0-1.461l3.371-4.48c-0.992-1.634-1.709-3.388-2.15-5.195l-5.555-0.785
		c-0.572,0-1.033-0.463-1.033-1.033v-5.203c-0.002-0.57,0.461-1.033,1.033-1.033l5.555-0.783c0.441-1.808,1.158-3.562,2.15-5.196
		L156.252,21.542L156.252,21.542z M181.75,41.901c-3.459,3.46-9.068,3.458-12.527,0c-3.459-3.459-3.461-9.068,0-12.528
		c3.459-3.459,9.07-3.46,12.529,0C185.211,32.832,185.211,38.442,181.75,41.901L181.75,41.901z"/>
</g>
<g>
	<g>
		
			<line fill="none" stroke="#58595B" stroke-width="2.5" stroke-linecap="round" stroke-linejoin="round" x1="198.484" y1="104.474" x2="198.484" y2="159.806"/>
		<polygon fill="#58595B" points="193.482,158.347 198.469,166.982 203.455,158.347 		"/>
	</g>
</g>
<g>
	<g>
		
			<line fill="none" stroke="#58595B" stroke-width="2.5" stroke-linecap="round" stroke-linejoin="round" x1="215.881" y1="104.474" x2="274.383" y2="160.129"/>
		<polygon fill="#58595B" points="269.877,162.747 279.572,165.086 276.75,155.522 		"/>
	</g>
</g>
<g>
	<g>
		
			<line fill="none" stroke="#58595B" stroke-width="2.5" stroke-linecap="round" stroke-linejoin="round" x1="181.086" y1="104.474" x2="123.083" y2="160.129"/>
		<polygon fill="#58595B" points="120.674,155.51 117.894,165.086 127.576,162.706 		"/>
	</g>
</g>
<g>
	<path fill="#58595B" d="M171.3,85.713l-1.357-3.818h-6.44l-1.334,3.818h-2.507l5.796-16.1h2.553l5.865,16.1H171.3z M167.918,76.03
		c-0.092-0.291-0.199-0.613-0.322-0.966c-0.123-0.353-0.242-0.705-0.356-1.058c-0.115-0.353-0.223-0.679-0.322-0.978
		c-0.099-0.299-0.172-0.533-0.218-0.702c-0.046,0.169-0.115,0.403-0.207,0.702c-0.092,0.299-0.192,0.621-0.299,0.966
		c-0.107,0.345-0.218,0.701-0.333,1.069c-0.115,0.368-0.226,0.698-0.333,0.989l-1.288,3.68h4.968L167.918,76.03z"/>
	<path fill="#58595B" d="M186.457,82.574c-0.262,0.759-0.609,1.392-1.047,1.897c-0.438,0.506-0.943,0.882-1.518,1.127
		c-0.576,0.245-1.179,0.368-1.808,0.368c-0.612,0-1.188-0.139-1.726-0.418c-0.536-0.279-0.974-0.604-1.311-0.976v4.358l-2.346,1.222
		V73.638h2.346v1.165c0.444-0.403,0.92-0.74,1.426-1.011s1.082-0.407,1.726-0.407c0.645,0,1.25,0.123,1.817,0.368
		c0.566,0.246,1.062,0.629,1.482,1.15c0.422,0.521,0.751,1.192,0.988,2.013c0.238,0.82,0.356,1.805,0.356,2.956
		C186.848,80.914,186.717,81.815,186.457,82.574z M183.757,76.623c-0.466-0.686-1.134-1.029-2.004-1.029
		c-0.565,0-1.084,0.156-1.558,0.469c-0.473,0.312-0.862,0.667-1.168,1.063v5.054c0.138,0.183,0.306,0.366,0.504,0.549
		c0.199,0.184,0.42,0.351,0.664,0.503s0.504,0.278,0.779,0.377c0.273,0.099,0.563,0.148,0.869,0.148
		c0.854,0,1.504-0.316,1.946-0.949c0.442-0.632,0.664-1.589,0.664-2.87C184.455,78.415,184.223,77.309,183.757,76.623z"/>
	<path fill="#58595B" d="M196.553,85.713v-1.196c-0.414,0.414-0.904,0.759-1.471,1.035c-0.568,0.276-1.182,0.414-1.841,0.414
		c-0.491,0-0.985-0.073-1.483-0.218s-0.947-0.38-1.346-0.702c-0.398-0.322-0.725-0.744-0.977-1.265
		c-0.254-0.521-0.381-1.15-0.381-1.886c0-0.675,0.122-1.257,0.368-1.748c0.244-0.491,0.582-0.897,1.013-1.219
		c0.429-0.322,0.936-0.56,1.518-0.713c0.582-0.153,1.219-0.23,1.908-0.23c1.104,0,2.002,0.153,2.69,0.46v-0.897
		c0-0.659-0.194-1.165-0.586-1.518c-0.391-0.353-0.955-0.529-1.69-0.529c-0.629,0-1.191,0.062-1.689,0.184s-0.984,0.314-1.461,0.575
		l-0.92-1.794c0.583-0.353,1.203-0.621,1.863-0.805c0.658-0.184,1.418-0.276,2.277-0.276c1.348,0,2.44,0.333,3.276,1
		s1.254,1.683,1.254,3.048v8.28H196.553z M196.553,80.562c-0.32-0.168-0.701-0.299-1.138-0.391
		c-0.437-0.092-0.978-0.138-1.622-0.138c-0.768,0-1.372,0.161-1.816,0.483c-0.444,0.322-0.668,0.759-0.668,1.311
		c0,0.598,0.192,1.081,0.576,1.449c0.383,0.368,0.965,0.552,1.748,0.552c0.645,0,1.223-0.161,1.736-0.483
		c0.514-0.322,0.908-0.674,1.184-1.058V80.562L196.553,80.562z"/>
	<path fill="#58595B" d="M209.87,77.111c-0.491-0.506-0.97-0.877-1.438-1.115c-0.468-0.238-0.97-0.357-1.507-0.357
		c-0.873,0-1.563,0.357-2.069,1.07s-0.758,1.69-0.758,2.933c0,0.598,0.061,1.146,0.184,1.644c0.123,0.499,0.307,0.928,0.552,1.288
		c0.245,0.361,0.548,0.641,0.909,0.84c0.359,0.199,0.777,0.299,1.253,0.299c0.567,0,1.046-0.126,1.438-0.379
		c0.392-0.253,0.823-0.625,1.299-1.116l1.519,1.495c-0.229,0.307-0.481,0.594-0.759,0.862c-0.276,0.269-0.587,0.506-0.932,0.713
		c-0.346,0.207-0.732,0.372-1.162,0.494c-0.43,0.123-0.92,0.184-1.473,0.184c-0.734,0-1.422-0.149-2.059-0.448
		c-0.637-0.299-1.188-0.721-1.655-1.265s-0.836-1.2-1.104-1.966c-0.268-0.767-0.401-1.625-0.401-2.576
		c0-0.997,0.14-1.886,0.414-2.668s0.651-1.445,1.127-1.99c0.476-0.544,1.035-0.958,1.68-1.242c0.644-0.284,1.334-0.426,2.069-0.426
		c0.89,0,1.683,0.173,2.38,0.518c0.698,0.345,1.33,0.855,1.897,1.53L209.87,77.111z"/>
	<path fill="#58595B" d="M221.623,85.713v-6.815c0-1.224-0.219-2.081-0.652-2.57c-0.436-0.49-1.041-0.735-1.82-0.735
		c-0.793,0-1.403,0.268-1.832,0.803c-0.428,0.536-0.641,1.293-0.641,2.272v7.045h-2.393V70.188l2.393-1.242v5.857
		c0.307-0.449,0.732-0.798,1.276-1.046s1.13-0.372,1.759-0.372c1.411,0,2.48,0.453,3.209,1.357c0.729,0.905,1.094,2.254,1.094,4.048
		v6.923H221.623z"/>
	<path fill="#58595B" d="M237.17,80.044c-0.016,0.192-0.029,0.349-0.045,0.471h-7.98c0.062,0.583,0.185,1.081,0.367,1.495
		c0.184,0.414,0.414,0.755,0.689,1.023c0.275,0.269,0.583,0.468,0.92,0.598c0.338,0.13,0.689,0.195,1.059,0.195
		c0.506,0,0.969-0.084,1.391-0.253c0.423-0.168,0.832-0.406,1.23-0.713l1.404,1.518c-0.537,0.506-1.137,0.897-1.795,1.173
		c-0.659,0.276-1.449,0.414-2.369,0.414c-0.705,0-1.376-0.138-2.012-0.414c-0.637-0.276-1.193-0.682-1.668-1.219
		c-0.476-0.537-0.853-1.196-1.127-1.978c-0.275-0.782-0.414-1.671-0.414-2.668c0-1.027,0.131-1.932,0.391-2.714
		c0.262-0.782,0.621-1.438,1.082-1.966c0.459-0.529,1.016-0.932,1.667-1.208c0.651-0.276,1.368-0.414,2.149-0.414
		c0.858,0,1.606,0.161,2.244,0.483c0.636,0.322,1.164,0.759,1.586,1.311c0.422,0.552,0.735,1.196,0.942,1.932
		c0.207,0.736,0.312,1.511,0.312,2.323C237.193,79.649,237.186,79.853,237.17,80.044z M234.583,77.387
		c-0.115-0.368-0.288-0.69-0.519-0.966c-0.229-0.276-0.518-0.495-0.861-0.655c-0.346-0.161-0.764-0.242-1.254-0.242
		c-0.797,0-1.43,0.265-1.897,0.793c-0.467,0.528-0.755,1.276-0.862,2.243h5.611C234.771,78.146,234.697,77.755,234.583,77.387z"/>
</g>
<g>
	<path fill="#AFBD22" d="M143.334,202.461c0,1.658-1.343,3-3,3H3c-1.656,0-3-1.342-3-3v-22c0-1.656,1.344-3,3-3h137.334
		c1.657,0,3,1.344,3,3V202.461z"/>
	<g>
		<path fill="#58595B" d="M15.065,198.567h-1.751l5.287-14.96h1.751L15.065,198.567z"/>
		<path fill="#58595B" d="M25.453,197.038h-1.751l-3.196-8.926h1.836l1.598,4.846c0.147,0.432,0.28,0.842,0.399,1.232
			c0.119,0.391,0.207,0.711,0.264,0.96c0.056-0.249,0.139-0.569,0.246-0.96c0.108-0.391,0.229-0.802,0.366-1.232l1.53-4.846h1.853
			L25.453,197.038z"/>
		<path fill="#58595B" d="M35.092,197.038v-0.885c-0.306,0.307-0.669,0.561-1.088,0.766c-0.419,0.203-0.873,0.307-1.36,0.307
			c-0.363,0-0.729-0.055-1.097-0.161c-0.368-0.106-0.7-0.28-0.994-0.521c-0.295-0.236-0.536-0.549-0.723-0.935
			c-0.187-0.385-0.28-0.851-0.28-1.394c0-0.5,0.09-0.93,0.272-1.293c0.181-0.361,0.43-0.662,0.748-0.9
			c0.317-0.238,0.691-0.414,1.122-0.527s0.901-0.17,1.411-0.17c0.816,0,1.479,0.113,1.989,0.34v-0.662
			c0-0.486-0.145-0.86-0.434-1.123c-0.289-0.26-0.706-0.391-1.25-0.391c-0.465,0-0.881,0.047-1.25,0.137
			c-0.369,0.09-0.729,0.232-1.08,0.426l-0.68-1.326c0.431-0.262,0.89-0.459,1.377-0.596c0.487-0.137,1.048-0.203,1.683-0.203
			c0.997,0,1.805,0.246,2.423,0.738c0.617,0.494,0.926,1.244,0.926,2.252v6.121H35.092z M35.092,193.229
			c-0.238-0.125-0.519-0.221-0.842-0.289s-0.722-0.102-1.198-0.102c-0.567,0-1.015,0.119-1.343,0.356
			c-0.329,0.237-0.493,0.562-0.493,0.97c0,0.44,0.142,0.799,0.425,1.069c0.283,0.272,0.714,0.408,1.292,0.408
			c0.476,0,0.904-0.119,1.284-0.356c0.379-0.238,0.671-0.498,0.875-0.781V193.229z"/>
		<path fill="#58595B" d="M44.186,189.965c-0.193-0.102-0.391-0.182-0.595-0.237c-0.204-0.056-0.454-0.085-0.748-0.085
			c-0.556,0-0.986,0.191-1.292,0.578c-0.306,0.386-0.459,0.957-0.459,1.717v5.102h-1.768v-8.927h1.768v0.851
			c0.204-0.295,0.484-0.541,0.841-0.738c0.357-0.199,0.757-0.299,1.199-0.299c0.362,0,0.66,0.031,0.893,0.094
			c0.232,0.062,0.439,0.156,0.62,0.281L44.186,189.965z"/>
		<path fill="#58595B" d="M45.716,198.567h-1.751l5.287-14.96h1.751L45.716,198.567z"/>
		<path fill="#58595B" d="M60.031,197.038h-1.496l-1.207-4.506c-0.091-0.34-0.178-0.688-0.264-1.045
			c-0.085-0.357-0.15-0.643-0.195-0.859c-0.045,0.217-0.11,0.506-0.195,0.867c-0.085,0.363-0.173,0.715-0.264,1.055l-1.19,4.488
			h-1.496l-2.448-8.926h1.734l1.054,4.336c0.091,0.34,0.176,0.696,0.255,1.07c0.079,0.374,0.142,0.669,0.187,0.885
			c0.057-0.229,0.13-0.521,0.221-0.885c0.091-0.361,0.181-0.721,0.272-1.07l1.19-4.336H57.6l1.207,4.352
			c0.091,0.353,0.179,0.707,0.264,1.062c0.085,0.357,0.156,0.648,0.212,0.877c0.057-0.229,0.122-0.525,0.195-0.893
			c0.074-0.369,0.156-0.723,0.247-1.062l1.054-4.336h1.734L60.031,197.038z"/>
		<path fill="#58595B" d="M72.627,197.038h-1.496l-1.207-4.506c-0.091-0.34-0.178-0.688-0.264-1.045
			c-0.085-0.357-0.15-0.643-0.195-0.859c-0.045,0.217-0.11,0.506-0.195,0.867c-0.085,0.363-0.173,0.715-0.264,1.055l-1.19,4.488
			H66.32l-2.448-8.926h1.734l1.054,4.336c0.091,0.34,0.176,0.696,0.255,1.07s0.142,0.669,0.187,0.885
			c0.057-0.229,0.13-0.521,0.221-0.885c0.091-0.361,0.181-0.721,0.272-1.07l1.19-4.336h1.411l1.207,4.352
			c0.091,0.353,0.179,0.707,0.264,1.062c0.085,0.357,0.156,0.648,0.212,0.877c0.057-0.229,0.122-0.525,0.195-0.893
			c0.074-0.369,0.156-0.723,0.247-1.062l1.054-4.336h1.734L72.627,197.038z"/>
		<path fill="#58595B" d="M85.225,197.038h-1.496l-1.207-4.506c-0.091-0.34-0.178-0.688-0.264-1.045
			c-0.085-0.357-0.15-0.643-0.195-0.859c-0.045,0.217-0.11,0.506-0.195,0.867c-0.085,0.363-0.173,0.715-0.264,1.055l-1.19,4.488
			h-1.496l-2.448-8.926h1.734l1.054,4.336c0.091,0.34,0.176,0.696,0.255,1.07c0.079,0.374,0.142,0.669,0.187,0.885
			c0.057-0.229,0.13-0.521,0.221-0.885c0.091-0.361,0.181-0.721,0.272-1.07l1.19-4.336h1.411L84,192.463
			c0.091,0.353,0.179,0.707,0.264,1.062c0.085,0.357,0.156,0.648,0.212,0.877c0.057-0.229,0.122-0.525,0.195-0.893
			c0.074-0.369,0.156-0.723,0.247-1.062l1.054-4.336h1.734L85.225,197.038z"/>
		<path fill="#58595B" d="M89.305,198.567h-1.751l5.287-14.96h1.751L89.305,198.567z"/>
		<path fill="#58595B" d="M101.409,197.038V192c0-0.904-0.161-1.539-0.482-1.899c-0.321-0.36-0.77-0.543-1.345-0.543
			c-0.587,0-1.038,0.196-1.354,0.594c-0.316,0.396-0.474,0.955-0.474,1.681v5.207h-1.768v-11.477l1.768-0.918v4.329
			c0.227-0.332,0.541-0.591,0.943-0.772c0.402-0.184,0.836-0.275,1.301-0.275c1.042,0,1.833,0.336,2.371,1.004
			c0.539,0.669,0.808,1.666,0.808,2.992v5.117h-1.768V197.038z"/>
		<path fill="#58595B" d="M109.858,196.816c-0.215,0.125-0.468,0.224-0.756,0.298c-0.289,0.073-0.609,0.11-0.961,0.11
			c-0.623,0-1.113-0.192-1.47-0.578s-0.536-0.979-0.536-1.784v-5.152h-1.275v-1.598h1.275v-2.55l1.717-0.918v3.468h2.21v1.598h-2.21
			v4.847c0,0.42,0.07,0.702,0.212,0.851c0.142,0.147,0.376,0.221,0.706,0.221c0.227,0,0.459-0.037,0.697-0.109
			c0.238-0.074,0.436-0.156,0.595-0.247L109.858,196.816z"/>
		<path fill="#58595B" d="M122.846,197.038V192c0-0.904-0.142-1.539-0.425-1.899c-0.283-0.36-0.714-0.543-1.292-0.543
			c-0.589,0-1.023,0.196-1.3,0.594c-0.278,0.396-0.417,0.955-0.417,1.681v5.207h-1.768V192c0-0.904-0.142-1.539-0.425-1.899
			c-0.283-0.36-0.714-0.543-1.292-0.543c-0.589,0-1.023,0.196-1.3,0.594c-0.278,0.396-0.417,0.955-0.417,1.681v5.207h-1.768v-8.927
			h1.768v0.861c0.227-0.332,0.522-0.591,0.886-0.772c0.363-0.185,0.778-0.275,1.244-0.275c0.613,0,1.116,0.113,1.508,0.336
			s0.708,0.553,0.946,0.988c0.16-0.207,0.327-0.391,0.503-0.551c0.176-0.16,0.373-0.298,0.589-0.412
			c0.216-0.115,0.458-0.203,0.726-0.267c0.267-0.063,0.577-0.095,0.93-0.095c1.046,0,1.82,0.334,2.321,1.003
			c0.5,0.669,0.751,1.665,0.751,2.991v5.117H122.846L122.846,197.038z"/>
		<path fill="#58595B" d="M127.164,197.038v-11.476l1.768-0.918v12.394H127.164z"/>
	</g>
</g>
<g>
	<path fill="#EBE729" d="M234.957,202.461c0,1.658-1.342,3-3,3h-66.332c-1.656,0-3-1.342-3-3v-22c0-1.656,1.344-3,3-3h66.332
		c1.658,0,3,1.344,3,3V202.461z"/>
	<g>
		<path fill="#58595B" d="M181.646,198.567h-1.75l5.288-14.96h1.75L181.646,198.567z"/>
		<path fill="#58595B" d="M192.341,196.816c-0.216,0.125-0.468,0.224-0.757,0.298c-0.289,0.073-0.609,0.11-0.961,0.11
			c-0.623,0-1.113-0.192-1.471-0.578c-0.356-0.386-0.535-0.979-0.535-1.784v-5.152h-1.274v-1.598h1.274v-2.55l1.718-0.918v3.468
			h2.21v1.598h-2.21v4.847c0,0.42,0.07,0.702,0.212,0.851c0.143,0.147,0.377,0.221,0.706,0.221c0.228,0,0.459-0.037,0.696-0.109
			c0.238-0.074,0.437-0.156,0.596-0.247L192.341,196.816z"/>
		<path fill="#58595B" d="M205.328,197.038V192c0-0.904-0.141-1.539-0.424-1.899s-0.715-0.543-1.293-0.543
			c-0.59,0-1.022,0.196-1.301,0.594c-0.277,0.396-0.416,0.955-0.416,1.681v5.207h-1.769V192c0-0.904-0.144-1.539-0.426-1.899
			c-0.283-0.36-0.714-0.543-1.291-0.543c-0.591,0-1.023,0.196-1.302,0.594c-0.276,0.396-0.416,0.955-0.416,1.681v5.207h-1.769
			v-8.927h1.769v0.861c0.228-0.332,0.521-0.591,0.887-0.772c0.363-0.185,0.777-0.275,1.244-0.275c0.613,0,1.115,0.113,1.508,0.336
			s0.708,0.553,0.945,0.988c0.16-0.207,0.326-0.391,0.504-0.551c0.177-0.16,0.371-0.298,0.589-0.412
			c0.217-0.115,0.458-0.203,0.726-0.267s0.577-0.095,0.932-0.095c1.045,0,1.82,0.334,2.32,1.003s0.75,1.665,0.75,2.991v5.117
			H205.328L205.328,197.038z"/>
		<path fill="#58595B" d="M216.77,194.717c-0.192,0.562-0.451,1.027-0.772,1.402c-0.323,0.373-0.697,0.651-1.122,0.832
			c-0.425,0.182-0.87,0.272-1.335,0.272c-0.453,0-0.878-0.103-1.274-0.31c-0.396-0.205-0.72-0.447-0.97-0.722v3.222l-1.733,0.902
			v-12.206h1.733v0.861c0.329-0.298,0.681-0.548,1.056-0.748c0.373-0.199,0.799-0.3,1.274-0.3s0.924,0.091,1.343,0.271
			c0.42,0.182,0.784,0.465,1.098,0.85c0.311,0.386,0.555,0.881,0.729,1.488c0.175,0.605,0.265,1.334,0.265,2.184
			C217.059,193.491,216.962,194.157,216.77,194.717z M214.773,190.318c-0.344-0.507-0.838-0.761-1.48-0.761
			c-0.418,0-0.801,0.115-1.15,0.347c-0.351,0.231-0.639,0.493-0.863,0.786v3.736c0.102,0.135,0.226,0.27,0.371,0.404
			c0.146,0.135,0.312,0.26,0.492,0.373c0.181,0.111,0.371,0.205,0.574,0.278c0.203,0.072,0.418,0.108,0.645,0.108
			c0.632,0,1.111-0.233,1.438-0.7c0.327-0.47,0.491-1.177,0.491-2.122C215.291,191.643,215.118,190.825,214.773,190.318z"/>
	</g>
</g>
<g>
	<path fill="#EBE729" d="M359.25,202.461c0,1.658-1.342,3-3,3h-99c-1.656,0-3-1.342-3-3v-22c0-1.656,1.344-3,3-3h99
		c1.658,0,3,1.344,3,3V202.461z"/>
	<g>
		<path fill="#58595B" d="M274.281,198.567h-1.752l5.287-14.96h1.752L274.281,198.567z"/>
		<path fill="#58595B" d="M284.668,197.038h-1.751l-3.196-8.926h1.836l1.6,4.846c0.146,0.432,0.279,0.842,0.398,1.232
			s0.207,0.711,0.264,0.96c0.058-0.249,0.14-0.569,0.246-0.96c0.107-0.391,0.229-0.802,0.365-1.232l1.53-4.846h1.853
			L284.668,197.038z"/>
		<path fill="#58595B" d="M294.307,197.038v-0.885c-0.306,0.307-0.668,0.561-1.088,0.766c-0.42,0.203-0.873,0.307-1.359,0.307
			c-0.362,0-0.729-0.055-1.098-0.161c-0.367-0.106-0.699-0.28-0.994-0.521c-0.295-0.236-0.535-0.549-0.723-0.935
			c-0.188-0.385-0.279-0.851-0.279-1.394c0-0.5,0.09-0.93,0.271-1.293c0.181-0.361,0.43-0.662,0.748-0.9
			c0.316-0.238,0.691-0.414,1.121-0.527c0.432-0.113,0.902-0.17,1.412-0.17c0.814,0,1.479,0.113,1.988,0.34v-0.662
			c0-0.486-0.146-0.86-0.435-1.123c-0.289-0.26-0.705-0.391-1.249-0.391c-0.465,0-0.882,0.047-1.249,0.137
			c-0.369,0.09-0.729,0.232-1.08,0.426l-0.68-1.326c0.43-0.262,0.889-0.459,1.377-0.596c0.485-0.137,1.048-0.203,1.683-0.203
			c0.997,0,1.805,0.246,2.424,0.738c0.616,0.494,0.926,1.244,0.926,2.252v6.121H294.307z M294.307,193.229
			c-0.238-0.125-0.518-0.221-0.842-0.289c-0.322-0.068-0.722-0.102-1.197-0.102c-0.566,0-1.016,0.119-1.344,0.356
			s-0.492,0.562-0.492,0.97c0,0.44,0.142,0.799,0.424,1.069c0.283,0.272,0.716,0.408,1.293,0.408c0.477,0,0.903-0.119,1.283-0.356
			c0.379-0.238,0.672-0.498,0.875-0.781V193.229z"/>
		<path fill="#58595B" d="M303.4,189.965c-0.191-0.102-0.391-0.182-0.594-0.237c-0.205-0.056-0.453-0.085-0.748-0.085
			c-0.557,0-0.986,0.191-1.293,0.578c-0.306,0.386-0.459,0.957-0.459,1.717v5.102h-1.769v-8.927h1.769v0.851
			c0.204-0.295,0.484-0.541,0.842-0.738c0.356-0.199,0.758-0.299,1.199-0.299c0.361,0,0.659,0.031,0.893,0.094
			c0.232,0.062,0.439,0.156,0.619,0.281L303.4,189.965z"/>
		<path fill="#58595B" d="M304.932,198.567h-1.75l5.286-14.96h1.751L304.932,198.567z"/>
		<path fill="#58595B" d="M315.625,196.816c-0.215,0.125-0.468,0.224-0.756,0.298c-0.289,0.073-0.609,0.11-0.961,0.11
			c-0.623,0-1.113-0.192-1.471-0.578c-0.358-0.386-0.535-0.979-0.535-1.784v-5.152h-1.275v-1.598h1.275v-2.55l1.717-0.918v3.468
			h2.21v1.598h-2.21v4.847c0,0.42,0.07,0.702,0.213,0.851c0.141,0.147,0.376,0.221,0.705,0.221c0.227,0,0.459-0.037,0.697-0.109
			c0.236-0.074,0.436-0.156,0.595-0.247L315.625,196.816z"/>
		<path fill="#58595B" d="M328.613,197.038V192c0-0.904-0.144-1.539-0.426-1.899c-0.283-0.36-0.714-0.543-1.291-0.543
			c-0.591,0-1.023,0.196-1.302,0.594c-0.276,0.396-0.416,0.955-0.416,1.681v5.207h-1.769V192c0-0.904-0.143-1.539-0.425-1.899
			c-0.283-0.36-0.716-0.543-1.293-0.543c-0.589,0-1.022,0.196-1.3,0.594c-0.278,0.396-0.418,0.955-0.418,1.681v5.207h-1.768v-8.927
			h1.768v0.861c0.229-0.332,0.523-0.591,0.888-0.772c0.364-0.184,0.777-0.275,1.244-0.275c0.612,0,1.114,0.113,1.508,0.336
			c0.393,0.223,0.707,0.553,0.944,0.988c0.16-0.207,0.328-0.391,0.505-0.551c0.176-0.16,0.372-0.298,0.589-0.412
			c0.216-0.115,0.458-0.203,0.726-0.267c0.269-0.063,0.577-0.095,0.93-0.095c1.048,0,1.82,0.334,2.321,1.003
			s0.751,1.665,0.751,2.991v5.117H328.613L328.613,197.038z"/>
		<path fill="#58595B" d="M340.054,194.717c-0.191,0.562-0.45,1.027-0.772,1.402c-0.323,0.373-0.697,0.651-1.122,0.832
			c-0.425,0.182-0.87,0.272-1.334,0.272c-0.454,0-0.879-0.103-1.275-0.31c-0.396-0.205-0.72-0.447-0.969-0.722v3.222l-1.734,0.902
			v-12.206h1.734v0.861c0.328-0.298,0.68-0.548,1.054-0.748c0.374-0.199,0.799-0.3,1.274-0.3c0.477,0,0.924,0.091,1.344,0.271
			c0.419,0.182,0.784,0.465,1.096,0.85c0.312,0.386,0.557,0.881,0.731,1.488c0.175,0.605,0.264,1.334,0.264,2.184
			C340.343,193.491,340.246,194.157,340.054,194.717z M338.059,190.318c-0.345-0.507-0.838-0.761-1.48-0.761
			c-0.417,0-0.802,0.115-1.151,0.347c-0.349,0.231-0.637,0.493-0.862,0.786v3.736c0.102,0.135,0.227,0.27,0.373,0.404
			c0.146,0.135,0.311,0.26,0.489,0.373c0.182,0.111,0.373,0.205,0.576,0.278c0.203,0.072,0.417,0.108,0.644,0.108
			c0.633,0,1.11-0.233,1.438-0.7c0.327-0.47,0.49-1.177,0.49-2.122C338.574,191.643,338.402,190.825,338.059,190.318z"/>
	</g>
</g>
<path fill="#FFFFFF" stroke="#58595B" stroke-width="2" d="M227.747,31.863L227.747,31.863c-3.461,3.459-9.067,3.46-12.526,0
	c-3.462-3.459-3.462-9.067-0.003-12.526c3.462-3.461,9.068-3.459,12.529,0C231.204,22.797,231.204,28.403,227.747,31.863"/>
<path fill="#FFFFFF" stroke="#58595B" stroke-width="2" d="M181.752,41.898L181.752,41.898c-3.461,3.459-9.068,3.46-12.527,0
	c-3.462-3.459-3.462-9.067-0.003-12.526c3.462-3.461,9.068-3.459,12.53,0C185.209,32.832,185.209,38.438,181.752,41.898"/>
</svg>
