<?xml version="1.0" encoding="utf-8"?>
<!-- Generator: Adobe Illustrator 15.0.0, SVG Export Plug-In . SVG Version: 6.00 Build 0)  -->
<!DOCTYPE svg PUBLIC "-//W3C//DTD SVG 1.1//EN" "http://www.w3.org/Graphics/SVG/1.1/DTD/svg11.dtd">
<svg version="1.1" id="Layer_1" xmlns="http://www.w3.org/2000/svg" xmlns:xlink="http://www.w3.org/1999/xlink" x="0px" y="0px"
	 width="464px" height="490.833px" viewBox="0 0 464 490.833" enable-background="new 0 0 464 490.833" xml:space="preserve">
<g>
	<line fill="none" stroke="#60605B" stroke-width="0.75" stroke-miterlimit="10" x1="252.307" y1="100.219" x2="417" y2="100.219"/>
	<rect x="252.707" y="90.579" fill="none" width="10.443" height="10.444"/>
	<text transform="matrix(1 0 0 1 252.707 97.606)" fill="#60605B" font-family="'Interstate-Bold'" font-size="9.6406">4.</text>
</g>
<g>
	<line fill="none" stroke="#60605B" stroke-width="0.75" stroke-miterlimit="10" x1="252.307" y1="208.676" x2="417" y2="208.676"/>
	<rect x="252.707" y="199.036" fill="none" width="10.443" height="10.444"/>
	<text transform="matrix(1 0 0 1 252.707 206.064)" fill="#60605B" font-family="'Interstate-Bold'" font-size="9.6406">3.</text>
</g>
<g>
	<line fill="none" stroke="#60605B" stroke-width="0.75" stroke-miterlimit="10" x1="252.307" y1="317.133" x2="417" y2="317.133"/>
	<rect x="252.707" y="307.493" fill="none" width="10.443" height="10.443"/>
	<text transform="matrix(1 0 0 1 252.707 314.519)" fill="#60605B" font-family="'Interstate-Bold'" font-size="9.6406">2.</text>
</g>
<path fill="#58595B" d="M196.502,52.576c7.537,0,12.501,11.769,12.501,24.307c0,12.537-4.964,24.305-12.501,24.305h-11.189
	c-7.537,0-12.501-11.768-12.501-24.305c0-12.538,4.965-24.307,12.501-24.307H196.502L196.502,52.576z"/>
<path fill="#E7E8E9" d="M185.313,53.813c2.035,0,9.153,0,11.189,0c6.222,0,11.263,10.328,11.263,23.069
	c0,12.74-5.042,23.067-11.263,23.067c-2.036,0-9.154,0-11.189,0c-6.221,0-11.264-10.326-11.264-23.067
	C174.05,64.141,179.092,53.813,185.313,53.813L185.313,53.813z"/>
<path fill="#C6C8CA" d="M196.502,53.813c6.222,0,11.263,10.328,11.263,23.069c0,12.74-5.042,23.067-11.263,23.067
	c-6.22,0-11.263-10.326-11.263-23.067C185.24,64.141,190.282,53.813,196.502,53.813L196.502,53.813z"/>
<path fill="#FFFFFF" d="M192.977,99.95c-4.935-3.312-8.356-12.868-8.356-23.067c0-10.195,3.419-19.753,8.353-23.068l3.78,0.006
	c-5.561,0-10.896,10.221-10.896,23.062c0,12.841,5.333,23.061,10.896,23.061L192.977,99.95L192.977,99.95z"/>
<path fill="#58595B" d="M209.623,52.576c7.537,0,12.502,11.769,12.502,24.307c0,12.537-4.965,24.305-12.502,24.305h-11.19
	c-7.536,0-12.501-11.768-12.501-24.305c0-12.538,4.965-24.307,12.501-24.307H209.623L209.623,52.576z"/>
<path fill="#58595B" d="M209.389,53.191c7.537,0,12.066,11.153,12.066,23.691c0,12.537-4.529,23.69-12.066,23.69h-10.575
	c-7.536,0-12.269-11.152-12.269-23.69s4.733-23.691,12.269-23.691H209.389z"/>
<path fill="#FFFFFF" d="M198.433,53.813c2.036,0,9.154,0,11.19,0c6.223,0,11.264,10.328,11.264,23.069
	c0,12.74-5.041,23.067-11.264,23.067c-2.036,0-9.154,0-11.19,0c-6.221,0-11.264-10.326-11.264-23.067
	C187.17,64.141,192.212,53.813,198.433,53.813L198.433,53.813z"/>
<path opacity="0.57" fill="#A6A6A6" enable-background="new    " d="M198.433,53.813c2.036,0,9.154,0,11.19,0
	c6.223,0,11.264,10.328,11.264,23.069c0,12.74-5.041,23.067-11.264,23.067c-2.036,0-9.154,0-11.19,0
	c-6.221,0-11.264-10.326-11.264-23.067C187.17,64.141,192.212,53.813,198.433,53.813L198.433,53.813z"/>
<path opacity="0.25" fill="#404040" enable-background="new    " d="M198.433,99.95c-6.207,0-11.243-10.282-11.264-22.986
	c1.782,0.934,3.855,1.468,6.07,1.468c1.594,0,3.116-0.276,4.507-0.78c0.167,9.907,3.541,19.07,8.35,22.299L198.433,99.95
	L198.433,99.95z"/>
<path opacity="0.25" fill="#A6A6A6" enable-background="new    " d="M209.623,53.813c6.223,0,11.264,10.328,11.264,23.069
	c0,12.74-5.041,23.067-11.264,23.067c-6.22,0-11.264-10.326-11.264-23.067C198.359,64.141,203.403,53.813,209.623,53.813
	L209.623,53.813z"/>
<path fill="#FFFFFF" d="M206.097,99.95c-4.935-3.312-8.357-12.868-8.357-23.067c0-10.195,3.419-19.753,8.353-23.068l3.782,0.006
	c-5.563,0-10.896,10.221-10.896,23.062c0,12.841,5.333,23.061,10.896,23.061L206.097,99.95L206.097,99.95z"/>
<g>
	<g>
		<path fill="#58595B" d="M184.046,160.7c7.536,0,12.501,11.769,12.501,24.308c0,12.537-4.965,24.307-12.501,24.307h-11.189
			c-7.537,0-12.502-11.77-12.502-24.307c0-12.539,4.965-24.308,12.502-24.308H184.046L184.046,160.7z"/>
		<path fill="#E7E8E9" d="M172.857,161.936c2.036,0,9.153,0,11.189,0c6.221,0,11.264,10.329,11.264,23.069
			c0,12.74-5.043,23.07-11.264,23.07c-2.037,0-9.153,0-11.189,0c-6.221,0-11.264-10.328-11.264-23.07
			C161.593,172.265,166.635,161.936,172.857,161.936L172.857,161.936z"/>
		<path fill="#C6C8CA" d="M172.857,208.076c-6.208,0-11.242-10.283-11.264-22.988c1.782,0.934,3.855,1.469,6.071,1.469
			c1.594,0,3.115-0.277,4.508-0.781c0.166,9.908,3.539,19.07,8.348,22.303h-7.663V208.076z"/>
		<path fill="#C6C8CA" d="M184.046,161.936c6.221,0,11.264,10.329,11.264,23.069c0,12.74-5.043,23.07-11.264,23.07
			c-6.221,0-11.263-10.328-11.263-23.07C172.782,172.265,177.825,161.936,184.046,161.936L184.046,161.936z"/>
		<path fill="#FFFFFF" d="M180.519,208.076c-4.934-3.312-8.355-12.869-8.355-23.068c0-10.195,3.419-19.754,8.352-23.067l3.782,0.006
			c-5.562,0-10.896,10.22-10.896,23.062c0,12.84,5.333,23.061,10.896,23.061L180.519,208.076L180.519,208.076z"/>
		<path opacity="0.57" fill="#A6A6A6" enable-background="new    " d="M172.164,185.005c0-10.193,3.419-19.754,8.352-23.069
			c-2.834,0-6.33,0-7.66,0c-6.221,0-11.263,10.329-11.263,23.069c0,12.74,5.042,23.07,11.264,23.07c1.33,0,4.828,0,7.663,0
			C175.585,204.763,172.164,195.207,172.164,185.005z"/>
	</g>
	<g>
		<path fill="#58595B" d="M196.998,160.7c7.536,0,12.501,11.769,12.501,24.308c0,12.537-4.965,24.307-12.501,24.307h-11.19
			c-7.537,0-12.502-11.77-12.502-24.307c0-12.539,4.965-24.308,12.502-24.308H196.998L196.998,160.7z"/>
		<path fill="#E7E8E9" d="M185.808,161.936c2.037,0,9.153,0,11.19,0c6.22,0,11.263,10.329,11.263,23.069
			c0,12.74-5.043,23.07-11.263,23.07c-2.037,0-9.153,0-11.19,0c-6.221,0-11.264-10.328-11.264-23.07
			C174.544,172.265,179.586,161.936,185.808,161.936L185.808,161.936z"/>
		<path fill="#C6C8CA" d="M185.808,208.076c-6.208,0-11.242-10.283-11.264-22.988c1.782,0.934,3.855,1.469,6.071,1.469
			c1.594,0,3.116-0.277,4.508-0.781c0.166,9.908,3.539,19.07,8.348,22.303h-7.663V208.076L185.808,208.076z"/>
		<path fill="#C6C8CA" d="M196.998,161.936c6.22,0,11.263,10.329,11.263,23.069c0,12.74-5.043,23.07-11.263,23.07
			c-6.221,0-11.264-10.328-11.264-23.07C185.733,172.265,190.776,161.936,196.998,161.936L196.998,161.936z"/>
		<path fill="#FFFFFF" d="M193.47,208.076c-4.934-3.312-8.355-12.869-8.355-23.068c0-10.195,3.419-19.754,8.352-23.067l3.782,0.006
			c-5.562,0-10.896,10.22-10.896,23.062c0,12.84,5.333,23.061,10.896,23.061L193.47,208.076L193.47,208.076z"/>
		<path opacity="0.57" fill="#A6A6A6" enable-background="new    " d="M185.115,185.005c0-10.193,3.418-19.754,8.352-23.069
			c-2.834,0-6.33,0-7.659,0c-6.221,0-11.264,10.329-11.264,23.069c0,12.74,5.042,23.07,11.264,23.07c1.33,0,4.828,0,7.663,0
			C188.536,204.763,185.115,195.207,185.115,185.005z"/>
	</g>
	<g>
		<path fill="#58595B" d="M210.199,160.7c7.535,0,12.501,11.769,12.501,24.308c0,12.537-4.966,24.307-12.501,24.307h-11.19
			c-7.537,0-12.501-11.77-12.501-24.307c0-12.539,4.964-24.308,12.501-24.308H210.199L210.199,160.7z"/>
		<path fill="#E7E8E9" d="M199.009,161.936c2.037,0,9.153,0,11.19,0c6.22,0,11.264,10.329,11.264,23.069
			c0,12.74-5.043,23.07-11.264,23.07c-2.037,0-9.153,0-11.19,0c-6.221,0-11.264-10.328-11.264-23.07
			C187.745,172.265,192.788,161.936,199.009,161.936L199.009,161.936z"/>
		<path fill="#C6C8CA" d="M199.009,208.076c-6.207,0-11.242-10.283-11.264-22.988c1.783,0.934,3.856,1.469,6.071,1.469
			c1.594,0,3.116-0.277,4.508-0.781c0.166,9.908,3.539,19.07,8.349,22.303h-7.664V208.076L199.009,208.076z"/>
		<path fill="#C8C8C8" d="M210.199,161.936c6.22,0,11.264,10.329,11.264,23.069c0,12.74-5.043,23.07-11.264,23.07
			c-6.221,0-11.264-10.328-11.264-23.07C198.935,172.265,203.978,161.936,210.199,161.936L210.199,161.936z"/>
		<path fill="#FFFFFF" d="M206.671,208.076c-4.935-3.312-8.355-12.869-8.355-23.068c0-10.195,3.419-19.754,8.352-23.067l3.782,0.006
			c-5.562,0-10.896,10.22-10.896,23.062c0,12.84,5.333,23.061,10.896,23.061L206.671,208.076L206.671,208.076z"/>
		<path opacity="0.57" fill="#A6A6A6" enable-background="new    " d="M198.316,185.005c0-10.193,3.418-19.754,8.352-23.069
			c-2.834,0-6.33,0-7.66,0c-6.221,0-11.264,10.329-11.264,23.069c0,12.74,5.042,23.07,11.264,23.07c1.331,0,4.828,0,7.663,0
			C201.737,204.763,198.316,195.207,198.316,185.005z"/>
	</g>
	<path opacity="0.25" fill="#404040" enable-background="new    " d="M198.933,208.117c-6.207,0-11.243-10.282-11.264-22.986
		c1.782,0.934,3.855,1.469,6.07,1.469c1.594,0,3.116-0.276,4.507-0.781c0.167,9.908,3.541,19.07,8.35,22.3L198.933,208.117
		L198.933,208.117z"/>
	<path opacity="0.25" fill="#404040" enable-background="new    " d="M185.683,208.117c-6.207,0-11.243-10.282-11.264-22.986
		c1.782,0.934,3.855,1.469,6.07,1.469c1.594,0,3.116-0.276,4.507-0.781c0.167,9.908,3.541,19.07,8.35,22.3L185.683,208.117
		L185.683,208.117z"/>
	<path opacity="0.25" fill="#404040" enable-background="new    " d="M172.808,208.117c-6.207,0-11.243-10.282-11.264-22.986
		c1.782,0.934,3.855,1.469,6.07,1.469c1.594,0,3.116-0.276,4.507-0.781c0.167,9.908,3.541,19.07,8.35,22.3L172.808,208.117
		L172.808,208.117z"/>
	<path opacity="0.25" fill="#A6A6A6" enable-background="new    " d="M210.596,161.813c6.024,0,10.904,10.328,10.904,23.069
		c0,12.74-4.88,23.067-10.904,23.067c-6.021,0-10.904-10.326-10.904-23.067C199.692,172.141,204.575,161.813,210.596,161.813
		L210.596,161.813z"/>
</g>
<g>
	<g>
		<path fill="#58595B" d="M209.699,268.45c7.535,0,12.501,11.77,12.501,24.309c0,12.537-4.966,24.307-12.501,24.307h-11.19
			c-7.537,0-12.501-11.77-12.501-24.307c0-12.539,4.964-24.309,12.501-24.309H209.699L209.699,268.45z"/>
		<path fill="#E7E8E9" d="M198.509,269.686c2.037,0,9.153,0,11.19,0c6.22,0,11.264,10.329,11.264,23.068
			c0,12.74-5.043,23.07-11.264,23.07c-2.037,0-9.153,0-11.19,0c-6.221,0-11.264-10.328-11.264-23.07
			C187.245,280.015,192.288,269.686,198.509,269.686L198.509,269.686z"/>
		<path fill="#C6C8CA" d="M198.509,315.827c-6.207,0-11.242-10.283-11.264-22.988c1.783,0.934,3.856,1.469,6.071,1.469
			c1.594,0,3.116-0.277,4.508-0.781c0.166,9.908,3.539,19.07,8.349,22.303h-7.664V315.827L198.509,315.827z"/>
		<path fill="#C8C8C8" d="M209.699,269.686c6.22,0,11.264,10.329,11.264,23.068c0,12.74-5.043,23.07-11.264,23.07
			c-6.221,0-11.264-10.328-11.264-23.07C198.435,280.015,203.478,269.686,209.699,269.686L209.699,269.686z"/>
		<path fill="#FFFFFF" d="M206.171,315.827c-4.935-3.312-8.355-12.869-8.355-23.068c0-10.195,3.419-19.754,8.352-23.067l3.782,0.007
			c-5.562,0-10.896,10.219-10.896,23.061c0,12.841,5.333,23.062,10.896,23.062L206.171,315.827L206.171,315.827z"/>
		<path opacity="0.57" fill="#A6A6A6" enable-background="new    " d="M197.816,292.754c0-10.192,3.418-19.754,8.352-23.068
			c-2.834,0-6.33,0-7.66,0c-6.221,0-11.264,10.329-11.264,23.068c0,12.74,5.042,23.07,11.264,23.07c1.331,0,4.828,0,7.663,0
			C201.237,312.513,197.816,302.958,197.816,292.754z"/>
	</g>
	<path opacity="0.25" fill="#404040" enable-background="new    " d="M198.433,315.868c-6.207,0-11.243-10.283-11.264-22.986
		c1.782,0.934,3.855,1.469,6.07,1.469c1.594,0,3.116-0.275,4.507-0.781c0.167,9.908,3.541,19.07,8.35,22.301L198.433,315.868
		L198.433,315.868z"/>
	<path opacity="0.25" fill="#A6A6A6" enable-background="new    " d="M210.096,269.563c6.024,0,10.904,10.328,10.904,23.068
		s-4.88,23.068-10.904,23.068c-6.021,0-10.904-10.326-10.904-23.068C199.192,279.891,204.075,269.563,210.096,269.563
		L210.096,269.563z"/>
</g>
<g>
	<g>
		<path fill="#58595B" d="M166.699,268.45c7.535,0,12.501,11.77,12.501,24.309c0,12.537-4.966,24.307-12.501,24.307h-11.19
			c-7.537,0-12.501-11.77-12.501-24.307c0-12.539,4.964-24.309,12.501-24.309H166.699L166.699,268.45z"/>
		<path fill="#E7E8E9" d="M155.509,269.686c2.037,0,9.153,0,11.19,0c6.22,0,11.264,10.329,11.264,23.068
			c0,12.74-5.043,23.07-11.264,23.07c-2.037,0-9.153,0-11.19,0c-6.221,0-11.264-10.328-11.264-23.07
			C144.245,280.015,149.288,269.686,155.509,269.686L155.509,269.686z"/>
		<path fill="#C6C8CA" d="M155.509,315.827c-6.207,0-11.242-10.283-11.264-22.988c1.783,0.934,3.856,1.469,6.071,1.469
			c1.594,0,3.116-0.277,4.508-0.781c0.166,9.908,3.539,19.07,8.349,22.303h-7.664V315.827L155.509,315.827z"/>
		<path fill="#C8C8C8" d="M166.699,269.686c6.22,0,11.264,10.329,11.264,23.068c0,12.74-5.043,23.07-11.264,23.07
			c-6.221,0-11.264-10.328-11.264-23.07C155.435,280.015,160.478,269.686,166.699,269.686L166.699,269.686z"/>
		<path fill="#FFFFFF" d="M163.171,315.827c-4.935-3.312-8.355-12.869-8.355-23.068c0-10.195,3.419-19.754,8.352-23.067l3.782,0.007
			c-5.562,0-10.896,10.219-10.896,23.061c0,12.841,5.333,23.062,10.896,23.062L163.171,315.827L163.171,315.827z"/>
		<path opacity="0.57" fill="#A6A6A6" enable-background="new    " d="M154.816,292.754c0-10.192,3.418-19.754,8.352-23.068
			c-2.834,0-6.33,0-7.66,0c-6.221,0-11.264,10.329-11.264,23.068c0,12.74,5.042,23.07,11.264,23.07c1.331,0,4.828,0,7.663,0
			C158.237,312.513,154.816,302.958,154.816,292.754z"/>
	</g>
	<path opacity="0.25" fill="#404040" enable-background="new    " d="M155.433,315.868c-6.207,0-11.243-10.283-11.264-22.986
		c1.782,0.934,3.855,1.469,6.07,1.469c1.594,0,3.116-0.275,4.507-0.781c0.167,9.908,3.541,19.07,8.35,22.301L155.433,315.868
		L155.433,315.868z"/>
	<path opacity="0.25" fill="#A6A6A6" enable-background="new    " d="M167.096,269.563c6.024,0,10.904,10.328,10.904,23.068
		s-4.88,23.068-10.904,23.068c-6.021,0-10.904-10.326-10.904-23.068C156.192,279.891,161.075,269.563,167.096,269.563
		L167.096,269.563z"/>
</g>
<g>
	<g>
		<path fill="#58595B" d="M123.949,268.45c7.535,0,12.501,11.77,12.501,24.309c0,12.537-4.966,24.307-12.501,24.307h-11.19
			c-7.537,0-12.501-11.77-12.501-24.307c0-12.539,4.964-24.309,12.501-24.309H123.949L123.949,268.45z"/>
		<path fill="#E7E8E9" d="M112.759,269.686c2.037,0,9.153,0,11.19,0c6.22,0,11.264,10.329,11.264,23.068
			c0,12.74-5.043,23.07-11.264,23.07c-2.037,0-9.153,0-11.19,0c-6.221,0-11.264-10.328-11.264-23.07
			C101.495,280.015,106.538,269.686,112.759,269.686L112.759,269.686z"/>
		<path fill="#C6C8CA" d="M112.759,315.827c-6.207,0-11.242-10.283-11.264-22.988c1.783,0.934,3.856,1.469,6.071,1.469
			c1.594,0,3.116-0.277,4.508-0.781c0.166,9.908,3.539,19.07,8.349,22.303h-7.664V315.827z"/>
		<path fill="#C8C8C8" d="M123.949,269.686c6.22,0,11.264,10.329,11.264,23.068c0,12.74-5.043,23.07-11.264,23.07
			c-6.221,0-11.264-10.328-11.264-23.07C112.685,280.015,117.728,269.686,123.949,269.686L123.949,269.686z"/>
		<path fill="#FFFFFF" d="M120.421,315.827c-4.935-3.312-8.355-12.869-8.355-23.068c0-10.195,3.419-19.754,8.352-23.067l3.782,0.007
			c-5.562,0-10.896,10.219-10.896,23.061c0,12.841,5.333,23.062,10.896,23.062L120.421,315.827L120.421,315.827z"/>
		<path opacity="0.57" fill="#A6A6A6" enable-background="new    " d="M112.066,292.754c0-10.192,3.418-19.754,8.352-23.068
			c-2.834,0-6.33,0-7.66,0c-6.221,0-11.264,10.329-11.264,23.068c0,12.74,5.042,23.07,11.264,23.07c1.331,0,4.828,0,7.663,0
			C115.487,312.513,112.066,302.958,112.066,292.754z"/>
	</g>
	<path opacity="0.25" fill="#404040" enable-background="new    " d="M112.683,315.868c-6.207,0-11.243-10.283-11.264-22.986
		c1.782,0.934,3.855,1.469,6.07,1.469c1.594,0,3.116-0.275,4.507-0.781c0.167,9.908,3.541,19.07,8.35,22.301L112.683,315.868
		L112.683,315.868z"/>
	<path opacity="0.25" fill="#A6A6A6" enable-background="new    " d="M124.346,269.563c6.024,0,10.904,10.328,10.904,23.068
		s-4.88,23.068-10.904,23.068c-6.021,0-10.904-10.326-10.904-23.068C113.442,279.891,118.325,269.563,124.346,269.563
		L124.346,269.563z"/>
</g>
<g>
	<line fill="none" stroke="#60605B" stroke-width="0.75" stroke-miterlimit="10" x1="252.307" y1="426.133" x2="417" y2="426.133"/>
	<rect x="252.707" y="416.493" fill="none" width="10.443" height="10.443"/>
	<text transform="matrix(1 0 0 1 252.707 423.519)" fill="#60605B" font-family="'Interstate-Bold'" font-size="9.6406">1.</text>
</g>
<g>
	<g>
		<path fill="#58595B" d="M173.13,402.163c0-7.535,11.769-12.502,24.308-12.502c12.537,0,24.306,4.967,24.306,12.502v11.189
			c0,7.537-11.769,12.5-24.306,12.5c-12.539,0-24.308-4.963-24.308-12.5V402.163L173.13,402.163z"/>
		<path fill="#E7E8E9" d="M174.367,413.352c0-2.037,0-9.152,0-11.189c0-6.221,10.329-11.265,23.069-11.265
			c12.74,0,23.07,5.043,23.07,11.265c0,2.037,0,9.152,0,11.189c0,6.221-10.328,11.264-23.07,11.264
			C184.696,424.616,174.367,419.573,174.367,413.352L174.367,413.352z"/>
		<path fill="#C6C8CA" d="M220.506,413.352c0,6.207-10.283,11.242-22.988,11.264c0.934-1.783,1.469-3.855,1.469-6.07
			c0-1.594-0.277-3.117-0.781-4.508c9.908-0.166,19.07-3.539,22.302-8.35v7.664H220.506z"/>
		<path fill="#C8C8C8" d="M174.367,402.163c0-6.221,10.329-11.265,23.069-11.265c12.74,0,23.07,5.043,23.07,11.265
			c0,6.221-10.328,11.264-23.07,11.264C184.696,413.426,174.367,408.383,174.367,402.163L174.367,402.163z"/>
		<path fill="#FFFFFF" d="M220.506,405.69c-3.312,4.936-12.869,8.355-23.068,8.355c-10.195,0-19.754-3.42-23.067-8.354l0.006-3.781
			c0,5.561,10.22,10.895,23.062,10.895c12.84,0,23.06-5.334,23.06-10.895L220.506,405.69L220.506,405.69z"/>
		<path opacity="0.57" fill="#A6A6A6" enable-background="new    " d="M197.436,414.045c-10.193,0-19.754-3.418-23.069-8.354
			c0,2.834,0,6.33,0,7.66c0,6.221,10.329,11.264,23.069,11.264c12.74,0,23.07-5.041,23.07-11.264c0-1.33,0-4.828,0-7.662
			C217.193,410.624,207.637,414.045,197.436,414.045z"/>
	</g>
	<path opacity="0.25" fill="#404040" enable-background="new    " d="M220.547,413.428c0,6.207-10.282,11.242-22.986,11.264
		c0.934-1.781,1.469-3.855,1.469-6.07c0-1.594-0.276-3.115-0.781-4.506c9.908-0.168,19.07-3.541,22.3-8.352v7.664H220.547z"/>
	<path opacity="0.25" fill="#A6A6A6" enable-background="new    " d="M174.244,401.764c0-6.023,10.328-10.903,23.069-10.903
		c12.74,0,23.068,4.88,23.068,10.903c0,6.021-10.327,10.904-23.068,10.904C184.572,412.668,174.244,407.786,174.244,401.764
		L174.244,401.764z"/>
</g>
<g>
	<g>
		<path fill="#58595B" d="M117.463,402.497c0-7.535,11.769-12.502,24.308-12.502c12.537,0,24.306,4.967,24.306,12.502v11.188
			c0,7.537-11.769,12.502-24.306,12.502c-12.539,0-24.308-4.965-24.308-12.502V402.497L117.463,402.497z"/>
		<path fill="#E7E8E9" d="M118.7,413.684c0-2.035,0-9.15,0-11.188c0-6.221,10.329-11.265,23.069-11.265
			c12.74,0,23.07,5.044,23.07,11.265c0,2.037,0,9.152,0,11.188c0,6.223-10.328,11.266-23.07,11.266
			C129.029,424.95,118.7,419.907,118.7,413.684L118.7,413.684z"/>
		<path fill="#C6C8CA" d="M164.839,413.684c0,6.207-10.283,11.242-22.988,11.266c0.934-1.783,1.469-3.855,1.469-6.07
			c0-1.594-0.277-3.117-0.781-4.508c9.908-0.166,19.07-3.539,22.302-8.352v7.664H164.839z"/>
		<path fill="#C8C8C8" d="M118.7,402.497c0-6.221,10.329-11.265,23.069-11.265c12.74,0,23.07,5.044,23.07,11.265
			s-10.328,11.264-23.07,11.264C129.029,413.758,118.7,408.715,118.7,402.497L118.7,402.497z"/>
		<path fill="#FFFFFF" d="M164.839,406.024c-3.312,4.936-12.869,8.354-23.068,8.354c-10.195,0-19.754-3.42-23.067-8.352l0.006-3.783
			c0,5.562,10.22,10.896,23.062,10.896c12.84,0,23.06-5.334,23.06-10.896L164.839,406.024L164.839,406.024z"/>
		<path opacity="0.57" fill="#A6A6A6" enable-background="new    " d="M141.769,414.377c-10.193,0-19.754-3.418-23.069-8.352
			c0,2.834,0,6.33,0,7.66c0,6.221,10.329,11.264,23.069,11.264c12.74,0,23.07-5.043,23.07-11.264c0-1.332,0-4.828,0-7.664
			C161.526,410.958,151.97,414.377,141.769,414.377z"/>
	</g>
	<path opacity="0.25" fill="#404040" enable-background="new    " d="M164.88,413.76c0,6.207-10.282,11.242-22.986,11.266
		c0.934-1.781,1.469-3.855,1.469-6.07c0-1.594-0.276-3.115-0.781-4.506c9.908-0.168,19.07-3.541,22.3-8.354v7.664H164.88z"/>
	<path opacity="0.25" fill="#A6A6A6" enable-background="new    " d="M118.577,402.096c0-6.021,10.328-10.901,23.069-10.901
		c12.74,0,23.068,4.88,23.068,10.901S154.387,413,141.646,413S118.577,408.12,118.577,402.096L118.577,402.096z"/>
</g>
<g>
	<g>
		<path fill="#58595B" d="M61.464,402.829c0-7.535,11.769-12.5,24.308-12.5c12.537,0,24.306,4.965,24.306,12.5v11.189
			c0,7.537-11.769,12.502-24.306,12.502c-12.539,0-24.308-4.965-24.308-12.502V402.829L61.464,402.829z"/>
		<path fill="#E7E8E9" d="M62.7,414.018c0-2.035,0-9.152,0-11.189c0-6.219,10.329-11.264,23.069-11.264
			c12.74,0,23.07,5.043,23.07,11.264c0,2.037,0,9.154,0,11.189c0,6.223-10.328,11.266-23.07,11.266
			C73.029,425.284,62.7,420.241,62.7,414.018L62.7,414.018z"/>
		<path fill="#C6C8CA" d="M108.839,414.018c0,6.207-10.283,11.242-22.988,11.266c0.934-1.783,1.469-3.855,1.469-6.07
			c0-1.596-0.277-3.117-0.781-4.51c9.908-0.166,19.07-3.537,22.302-8.348v7.662H108.839z"/>
		<path fill="#C8C8C8" d="M62.7,402.829c0-6.219,10.329-11.264,23.069-11.264c12.74,0,23.07,5.043,23.07,11.264
			c0,6.223-10.328,11.266-23.07,11.266C73.029,414.092,62.7,409.049,62.7,402.829L62.7,402.829z"/>
		<path fill="#FFFFFF" d="M108.839,406.358c-3.312,4.936-12.869,8.354-23.068,8.354c-10.195,0-19.754-3.42-23.067-8.352l0.006-3.783
			c0,5.562,10.22,10.896,23.062,10.896c12.84,0,23.06-5.334,23.06-10.896L108.839,406.358L108.839,406.358z"/>
		<path opacity="0.57" fill="#A6A6A6" enable-background="new    " d="M85.77,414.711c-10.193,0-19.754-3.418-23.069-8.352
			c0,2.834,0,6.33,0,7.658c0,6.223,10.329,11.266,23.069,11.266c12.74,0,23.07-5.043,23.07-11.266c0-1.33,0-4.826,0-7.662
			C105.527,411.292,95.971,414.711,85.77,414.711z"/>
	</g>
	<path opacity="0.25" fill="#404040" enable-background="new    " d="M108.88,414.094c0,6.207-10.282,11.242-22.986,11.266
		c0.934-1.783,1.469-3.855,1.469-6.07c0-1.594-0.276-3.115-0.781-4.508c9.908-0.166,19.07-3.541,22.3-8.352v7.664H108.88z"/>
	<path opacity="0.25" fill="#A6A6A6" enable-background="new    " d="M62.577,402.43c0-6.021,10.328-10.902,23.069-10.902
		c12.74,0,23.068,4.881,23.068,10.902s-10.327,10.904-23.068,10.904S62.577,408.454,62.577,402.43L62.577,402.43z"/>
</g>
<text transform="matrix(1 0 0 1 274.168 205.1929)" fill="#60605B" font-family="'Interstate-Regular'" font-size="9.6406">Create volume group (VG) </text>
<text transform="matrix(1 0 0 1 274.168 97.1929)" fill="#60605B" font-family="'Interstate-Regular'" font-size="9.6406">Create logical volume (LV) </text>
<text transform="matrix(1 0 0 1 274.168 313.8599)" fill="#60605B" font-family="'Interstate-Regular'" font-size="9.6406">Create physical volume (PV) </text>
<text transform="matrix(1 0 0 1 274.168 423.5269)" fill="#60605B" font-family="'Interstate-Regular'" font-size="9.6406">Partition physical storage </text>
<g>
	<g>
		<line fill="none" stroke="#60605B" stroke-miterlimit="10" x1="162.072" y1="55.276" x2="145.411" y2="46.549"/>
		<g>
			<polygon fill="#60605B" points="161.608,51.892 169.865,59.494 158.913,57.039 			"/>
		</g>
	</g>
</g>
<text transform="matrix(1 0 0 1 91.8857 42.5264)" fill="#60605B" font-family="'Interstate-Regular'" font-size="9.6406">Unused Space</text>
</svg>
