<?xml version="1.0" encoding="UTF-8" standalone="no"?>
<!-- Created with Inkscape (http://www.inkscape.org/) -->

<svg
   xmlns:dc="http://purl.org/dc/elements/1.1/"
   xmlns:cc="http://creativecommons.org/ns#"
   xmlns:rdf="http://www.w3.org/1999/02/22-rdf-syntax-ns#"
   xmlns:svg="http://www.w3.org/2000/svg"
   xmlns="http://www.w3.org/2000/svg"
   xmlns:sodipodi="http://sodipodi.sourceforge.net/DTD/sodipodi-0.dtd"
   xmlns:inkscape="http://www.inkscape.org/namespaces/inkscape"
   version="1.1"
   id="svg2"
   xml:space="preserve"
   width="2026.6667"
   height="282.42001"
   viewBox="0 0 2026.6667 282.42001"
   sodipodi:docname="storage-enhance-structure.svg"
   inkscape:version="0.92.2 5c3e80d, 2017-08-06"><metadata
     id="metadata8"><rdf:RDF><cc:Work
         rdf:about=""><dc:format>image/svg+xml</dc:format><dc:type
           rdf:resource="http://purl.org/dc/dcmitype/StillImage" /><dc:title></dc:title><dc:subject><rdf:Bag><rdf:li>VDO Stratis RHEL8</rdf:li></rdf:Bag></dc:subject></cc:Work></rdf:RDF></metadata><defs
     id="defs6"><clipPath
       clipPathUnits="userSpaceOnUse"
       id="clipPath24"><path
         d="M 0,211.815 H 1520 V 0 H 0 Z"
         id="path22"
         inkscape:connector-curvature="0" /></clipPath></defs><sodipodi:namedview
     pagecolor="#ffffff"
     bordercolor="#666666"
     borderopacity="1"
     objecttolerance="10"
     gridtolerance="10"
     guidetolerance="10"
     inkscape:pageopacity="0"
     inkscape:pageshadow="2"
     inkscape:window-width="640"
     inkscape:window-height="480"
     id="namedview4"
     showgrid="false"
     inkscape:zoom="0.21167762"
     inkscape:cx="1013.3334"
     inkscape:cy="141.21001"
     inkscape:window-x="0"
     inkscape:window-y="0"
     inkscape:window-maximized="0"
     inkscape:current-layer="g10" /><g
     id="g10"
     inkscape:groupmode="layer"
     inkscape:label="storage-enhance-structure"
     transform="matrix(1.3333333,0,0,-1.3333333,0,282.42)"><path
       d="m 0,117.991 h 287.164 v 76.765 H 0 Z"
       style="fill:#bfe1f3;fill-opacity:1;fill-rule:nonzero;stroke:none"
       id="path12"
       inkscape:connector-curvature="0" /><path
       d="M 309.903,117.991 H 1520 v 76.765 H 309.903 Z"
       style="fill:#0088ce;fill-opacity:1;fill-rule:nonzero;stroke:none"
       id="path14"
       inkscape:connector-curvature="0" /><path
       d="M 0,18.481 H 1520 V 95.246 H 0 Z"
       style="fill:#e6e6e6;fill-opacity:1;fill-rule:nonzero;stroke:none"
       id="path16"
       inkscape:connector-curvature="0" /><g
       id="g18"><g
         id="g20"
         clip-path="url(#clipPath24)"><g
           id="g26"
           transform="translate(896.5703,146.9749)"><path
             d="m 0,0 h -3.891 l -7.124,20.027 H -6.58 L -2.804,8.44 c 0.372,-1.116 0.773,-2.575 0.945,-3.291 0.172,0.745 0.544,2.118 0.916,3.291 l 3.69,11.587 h 4.377 z"
             style="fill:#ffffff;fill-opacity:1;fill-rule:nonzero;stroke:none"
             id="path28"
             inkscape:connector-curvature="0" /></g><g
           id="g30"
           transform="translate(913.5352,163.1107)"><path
             d="m 0,0 h -2.116 v -12.245 h 1.973 c 4.206,0 6.123,2.461 6.123,6.123 C 5.98,-2.031 4.234,0 0,0 M -0.143,-16.136 H -6.122 V 3.892 h 6.266 c 5.721,0 9.956,-2.69 9.956,-10.014 0,-7.038 -5.093,-10.014 -10.243,-10.014"
             style="fill:#ffffff;fill-opacity:1;fill-rule:nonzero;stroke:none"
             id="path32"
             inkscape:connector-curvature="0" /></g><g
           id="g34"
           transform="translate(935.2783,163.3402)"><path
             d="m 0,0 c -3.232,0 -4.577,-2.775 -4.577,-6.352 0,-3.576 1.345,-6.351 4.577,-6.351 3.233,0 4.578,2.775 4.578,6.351 C 4.578,-2.775 3.233,0 0,0 m 0,-16.68 c -5.464,0 -8.697,4.235 -8.697,10.328 0,6.094 3.233,10.329 8.697,10.329 5.465,0 8.697,-4.235 8.697,-10.329 C 8.697,-12.445 5.465,-16.68 0,-16.68"
             style="fill:#ffffff;fill-opacity:1;fill-rule:nonzero;stroke:none"
             id="path36"
             inkscape:connector-curvature="0" /></g><g
           id="g38"
           transform="translate(85.4214,146.6605)"><path
             d="m 0,0 c -4.95,0 -7.524,3.204 -7.524,8.726 v 11.616 h 3.003 V 8.812 c 0,-3.777 1.574,-5.808 4.578,-5.808 3.148,0 4.635,1.945 4.635,5.607 V 20.342 H 7.696 V 8.669 C 7.696,3.061 4.979,0 0,0"
             style="fill:#525252;fill-opacity:1;fill-rule:nonzero;stroke:none"
             id="path40"
             inkscape:connector-curvature="0" /></g><g
           id="g42"
           transform="translate(103.6455,164.0843)"><path
             d="M 0,0 H -2.46 V -14.191 H 0 c 4.75,0 6.695,2.889 6.695,7.095 C 6.695,-2.89 4.75,0 0,0 M 0,-17.109 H -5.464 V 2.918 H 0 c 5.379,0 9.756,-2.947 9.756,-10.014 0,-7.066 -4.52,-10.013 -9.756,-10.013"
             style="fill:#525252;fill-opacity:1;fill-rule:nonzero;stroke:none"
             id="path44"
             inkscape:connector-curvature="0" /></g><g
           id="g46"
           transform="translate(123.3286,146.6605)"><path
             d="m 0,0 c -2.918,0 -5.436,1.259 -7.124,3.232 l 2.145,2.089 c 1.345,-1.459 3.319,-2.375 5.208,-2.375 2.804,0 4.148,0.973 4.148,2.919 0,1.545 -1.173,2.318 -4.52,3.319 -4.234,1.258 -6.266,2.317 -6.266,5.893 0,3.462 2.918,5.579 6.609,5.579 2.718,0 4.778,-1.001 6.552,-2.718 L 4.635,15.793 c -1.259,1.287 -2.69,1.916 -4.664,1.916 -2.346,0 -3.347,-1.144 -3.347,-2.488 0,-1.403 0.916,-2.089 4.377,-3.119 C 4.949,10.9 7.41,9.642 7.41,6.065 7.41,2.46 5.121,0 0,0"
             style="fill:#525252;fill-opacity:1;fill-rule:nonzero;stroke:none"
             id="path48"
             inkscape:connector-curvature="0" /></g><path
           d="m 143.097,167.002 h 3.004 v -20.027 h -3.004 z"
           style="fill:#525252;fill-opacity:1;fill-rule:nonzero;stroke:none"
           id="path50"
           inkscape:connector-curvature="0" /><g
           id="g52"
           transform="translate(160.1484,146.9749)"><path
             d="m 0,0 v 8.497 c 0,3.033 -1.145,4.12 -3.09,4.12 -1.974,0 -3.09,-1.402 -3.09,-3.834 V 0 H -9.127 V 15.021 H -6.18 V 13.59 c 0.744,1.087 2.232,1.745 3.777,1.745 3.49,0 5.35,-2.289 5.35,-6.724 L 2.947,0 Z"
             style="fill:#525252;fill-opacity:1;fill-rule:nonzero;stroke:none"
             id="path54"
             inkscape:connector-curvature="0" /></g><g
           id="g56"
           transform="translate(176.3979,157.6175)"><path
             d="m 0,0 c -0.658,0.888 -2.031,1.975 -3.519,1.975 -2.117,0 -3.261,-1.603 -3.261,-4.779 0,-3.776 1.201,-5.435 3.376,-5.435 1.402,0 2.632,0.944 3.404,1.917 z m -0.028,-10.643 v 1.431 c -1.088,-1.002 -2.347,-1.745 -3.92,-1.745 -3.233,0 -5.78,2.346 -5.78,8.067 0,5.151 2.805,7.582 5.923,7.582 1.516,0 2.947,-0.8 3.777,-1.716 v 5.722 l 2.918,1.516 v -20.857 z"
             style="fill:#525252;fill-opacity:1;fill-rule:nonzero;stroke:none"
             id="path58"
             inkscape:connector-curvature="0" /></g><g
           id="g60"
           transform="translate(189.3013,159.6497)"><path
             d="M 0,0 C -1.974,0 -3.176,-1.374 -3.434,-3.777 H 3.547 C 3.404,-1.717 2.432,0 0,0 m 6.437,-6.209 h -9.928 c 0.315,-2.89 1.946,-4.12 3.777,-4.12 1.259,0 2.26,0.458 3.261,1.202 l 1.746,-1.889 c -1.316,-1.258 -2.89,-1.973 -5.179,-1.973 -3.519,0 -6.494,2.832 -6.494,7.81 0,5.093 2.689,7.839 6.58,7.839 4.263,0 6.323,-3.462 6.323,-7.524 0,-0.544 -0.057,-1.031 -0.086,-1.345"
             style="fill:#525252;fill-opacity:1;fill-rule:nonzero;stroke:none"
             id="path62"
             inkscape:connector-curvature="0" /></g><g
           id="g64"
           transform="translate(207.0928,146.9749)"><path
             d="M 0,0 -1.431,2.604 C -2.031,3.69 -2.718,5.064 -3.004,5.636 -3.262,5.064 -4.062,3.604 -4.635,2.575 L -6.094,0 h -3.319 l 4.721,7.782 -4.406,7.239 h 3.405 l 1.172,-2.118 c 0.602,-1.087 1.317,-2.431 1.574,-3.004 0.315,0.573 1.03,2.003 1.602,3.061 L -0.2,15.021 H 3.176 L -1.259,7.782 3.491,0 Z"
             style="fill:#525252;fill-opacity:1;fill-rule:nonzero;stroke:none"
             id="path66"
             inkscape:connector-curvature="0" /></g><g
           id="g68"
           transform="translate(686.5054,56.849)"><path
             d="m 0,0 h -5.436 v -6.638 h 5.35 c 2.661,0 3.633,1.345 3.633,3.32 C 3.547,-1.259 2.26,0 0,0 M -0.058,7.896 H -5.436 V 2.719 h 5.378 c 1.975,0 2.776,1.229 2.776,2.546 0,1.487 -0.773,2.631 -2.776,2.631 m -0.257,-17.28 h -7.954 v 20.028 h 8.24 c 3.49,0 5.751,-1.831 5.751,-5.207 0,-2.032 -1.087,-3.291 -2.546,-4.006 1.573,-0.429 3.376,-1.888 3.376,-4.663 0,-4.063 -2.49,-6.152 -6.867,-6.152"
             style="fill:#525252;fill-opacity:1;fill-rule:nonzero;stroke:none"
             id="path70"
             inkscape:connector-curvature="0" /></g><g
           id="g72"
           transform="translate(696.9756,47.4652)"><path
             d="m 0,0 v 19.312 l 2.947,1.544 V 0 Z"
             style="fill:#525252;fill-opacity:1;fill-rule:nonzero;stroke:none"
             id="path74"
             inkscape:connector-curvature="0" /></g><g
           id="g76"
           transform="translate(710.2793,59.9964)"><path
             d="m 0,0 c -2.231,0 -3.605,-1.974 -3.605,-4.949 0,-3.29 1.517,-5.093 3.748,-5.093 2.232,0 3.69,2.26 3.69,5.007 C 3.833,-1.974 2.375,0 0,0 m 0.028,-12.846 c -3.776,0 -6.609,3.118 -6.609,7.811 0,4.921 2.919,7.839 6.695,7.839 3.834,0 6.695,-3.062 6.695,-7.753 0,-4.979 -2.918,-7.897 -6.781,-7.897"
             style="fill:#525252;fill-opacity:1;fill-rule:nonzero;stroke:none"
             id="path78"
             inkscape:connector-curvature="0" /></g><g
           id="g80"
           transform="translate(730.1626,58.1654)"><path
             d="m 0,0 c -1.23,1.259 -2.317,1.831 -3.662,1.831 -2.146,0 -3.519,-1.917 -3.519,-4.978 0,-2.947 1.259,-5.064 3.605,-5.064 1.402,0 2.231,0.629 3.404,1.859 l 1.889,-1.859 c -1.174,-1.488 -2.661,-2.804 -5.379,-2.804 -3.662,0 -6.495,3.09 -6.495,7.782 0,4.978 2.919,7.868 6.581,7.868 2.203,0 3.919,-0.887 5.321,-2.546 z"
             style="fill:#525252;fill-opacity:1;fill-rule:nonzero;stroke:none"
             id="path82"
             inkscape:connector-curvature="0" /></g><g
           id="g84"
           transform="translate(744.2095,47.4652)"><path
             d="M 0,0 -3.319,7.467 -5.608,4.435 V 0 h -2.947 v 19.312 l 2.947,1.544 v -9.469 c 0,-0.915 -0.028,-2.46 -0.028,-3.204 0.4,0.6 1.173,1.745 1.659,2.46 l 3.119,4.378 H 2.489 L -1.316,9.985 3.204,0 Z"
             style="fill:#525252;fill-opacity:1;fill-rule:nonzero;stroke:none"
             id="path86"
             inkscape:connector-curvature="0" /></g><g
           id="g88"
           transform="translate(764.4072,64.5746)"><path
             d="M 0,0 H -2.461 V -14.191 H 0 c 4.749,0 6.694,2.889 6.694,7.095 C 6.694,-2.89 4.749,0 0,0 M 0,-17.109 H -5.464 V 2.918 H 0 c 5.379,0 9.756,-2.947 9.756,-10.014 0,-7.066 -4.521,-10.013 -9.756,-10.013"
             style="fill:#525252;fill-opacity:1;fill-rule:nonzero;stroke:none"
             id="path90"
             inkscape:connector-curvature="0" /></g><g
           id="g92"
           transform="translate(783.6035,60.14)"><path
             d="M 0,0 C -1.974,0 -3.176,-1.374 -3.434,-3.777 H 3.548 C 3.404,-1.717 2.432,0 0,0 M 6.437,-6.209 H -3.49 c 0.314,-2.89 1.945,-4.12 3.776,-4.12 1.259,0 2.261,0.458 3.262,1.202 l 1.745,-1.889 c -1.316,-1.258 -2.89,-1.973 -5.179,-1.973 -3.518,0 -6.494,2.832 -6.494,7.81 0,5.093 2.69,7.839 6.58,7.839 4.263,0 6.323,-3.462 6.323,-7.524 0,-0.544 -0.057,-1.031 -0.086,-1.345"
             style="fill:#525252;fill-opacity:1;fill-rule:nonzero;stroke:none"
             id="path94"
             inkscape:connector-curvature="0" /></g><g
           id="g96"
           transform="translate(800.2549,47.4652)"><path
             d="m 0,0 h -2.947 l -5.378,15.021 h 3.09 l 2.689,-8.155 c 0.486,-1.459 0.915,-2.86 1.115,-3.69 0.172,0.83 0.573,2.231 1.031,3.69 l 2.574,8.155 h 3.119 z"
             style="fill:#525252;fill-opacity:1;fill-rule:nonzero;stroke:none"
             id="path98"
             inkscape:connector-curvature="0" /></g><path
           d="m 808.809,62.486 h 2.947 V 47.465 h -2.947 z m 1.488,1.945 c -1.059,0 -1.917,0.858 -1.917,1.889 0,1.058 0.858,1.917 1.917,1.917 1.029,0 1.888,-0.859 1.888,-1.917 0,-1.031 -0.859,-1.889 -1.888,-1.889"
           style="fill:#525252;fill-opacity:1;fill-rule:nonzero;stroke:none"
           id="path100"
           inkscape:connector-curvature="0" /><g
           id="g102"
           transform="translate(825.6885,58.1654)"><path
             d="m 0,0 c -1.23,1.259 -2.317,1.831 -3.662,1.831 -2.146,0 -3.52,-1.917 -3.52,-4.978 0,-2.947 1.259,-5.064 3.606,-5.064 1.401,0 2.231,0.629 3.404,1.859 l 1.889,-1.859 c -1.174,-1.488 -2.661,-2.804 -5.379,-2.804 -3.662,0 -6.495,3.09 -6.495,7.782 0,4.978 2.919,7.868 6.581,7.868 2.203,0 3.919,-0.887 5.321,-2.546 z"
             style="fill:#525252;fill-opacity:1;fill-rule:nonzero;stroke:none"
             id="path104"
             inkscape:connector-curvature="0" /></g><g
           id="g106"
           transform="translate(836.3574,60.14)"><path
             d="M 0,0 C -1.975,0 -3.176,-1.374 -3.434,-3.777 H 3.547 C 3.404,-1.717 2.432,0 0,0 m 6.437,-6.209 h -9.928 c 0.315,-2.89 1.946,-4.12 3.777,-4.12 1.259,0 2.26,0.458 3.261,1.202 l 1.746,-1.889 c -1.316,-1.258 -2.89,-1.973 -5.179,-1.973 -3.519,0 -6.495,2.832 -6.495,7.81 0,5.093 2.69,7.839 6.581,7.839 4.263,0 6.322,-3.462 6.322,-7.524 0,-0.544 -0.056,-1.031 -0.085,-1.345"
             style="fill:#525252;fill-opacity:1;fill-rule:nonzero;stroke:none"
             id="path108"
             inkscape:connector-curvature="0" /></g></g></g></g></svg>